<svg xmlns="http://www.w3.org/2000/svg" version="1.2" baseProfile="tiny" x="0" y="0" width="30" height="30" viewBox="-72.5 12.5 85 85" xml:space="preserve"><path fill="#FFFFFF" d="M-30 20.4c4.9 0 9.5 1.9 13 5.4 3.5 3.5 5.4 8.1 5.4 13 0 4.9-1.9 9.5-5.4 13 -3.5 3.5-8.1 5.4-13 5.4s-9.5-1.9-13-5.4c-3.5-3.5-5.4-8.1-5.4-13 0-4.9 1.9-9.5 5.4-13C-39.5 22.3-34.9 20.4-30 20.4M-30 71.7c13.3 0 22.4 6.6 23 13.1 -1.6 1.5-9 4.9-23 4.9 -14.5 0-21.6-3.3-23-4.8 0.2-2.9 2.1-5.9 5.4-8.3C-43.3 73.4-37 71.7-30 71.7M-30 15.4c-6.4 0-12.3 2.6-16.5 6.8 -4.2 4.2-6.8 10.1-6.8 16.5s2.6 12.3 6.8 16.5C-42.3 59.4-36.4 62-30 62s12.3-2.6 16.5-6.8c4.2-4.2 6.8-10.1 6.8-16.5s-2.6-12.3-6.8-16.5C-17.7 18-23.6 15.4-30 15.4L-30 15.4zM-30 66.7c-17.5 0-28 9.3-28 18.7 0 4.7 10.5 9.3 28 9.3 16.4 0 28-4.7 28-9.3C-2 76-13 66.7-30 66.7L-30 66.7z"/></svg>