<svg xmlns="http://www.w3.org/2000/svg" version="1.2" baseProfile="tiny" x="0" y="0" width="30" height="30" viewBox="0 0 85 85" xml:space="preserve"><path fill="none" stroke="#FFFFFF" stroke-width="5" stroke-linecap="round" stroke-linejoin="round" stroke-miterlimit="10" d="M55.7 3.6c0 0-48.6-9.4-41.7 39.4 3.2 22.4 30.3 39.3 30.3 39.3l27.4-26.7"/><path fill="none" stroke="#FFFFFF" stroke-width="5" stroke-linecap="round" stroke-linejoin="round" stroke-miterlimit="10" d="M53.3 25.8C41 25.7 32.9 30.2 28 34.7s-6.8 9.1-6.8 9.1 1.7 2.4 5 4.7 8.1 4.3 14.4 3.5c6.2-0.8 10.3-4.9 12.8-8.9s3.5-7.7 3.5-7.7M16.7 52.2c0 0 1.2-0.8 4.5-8.4 -4.3-4.5-7.6-5.5-7.6-5.5"/></svg>