<svg xmlns="http://www.w3.org/2000/svg" version="1.2" baseProfile="tiny" x="0" y="0" width="30" height="30" viewBox="0 0 85 85" xml:space="preserve"><path fill="none" stroke="#FFFFFF" stroke-width="5" stroke-linecap="round" stroke-linejoin="round" stroke-miterlimit="10" d="M61 77.7c3.4-1.8 6.6-4.2 9.5-7.2 7-7 10.9-15.4 11.5-25.1 0-1 0.1-2 0.1-3 0-10.9-3.9-20.3-11.6-28.1 -0.7-0.7-1.4-1.3-2.2-2 -7.3-6.4-15.9-9.6-25.9-9.6 -7.4 0-14.1 1.8-20 5.3M61 77.7c0.1-13.2-1.8-24.8-5.8-34.9 -1.7-4.3-3.9-8.4-6.4-12.2 -6.3-9.4-15.1-16.9-26.4-22.5M68.4 12.4c-4.6 8.1-11 14.2-19.6 18.2 -11.5 5.5-26.7 7.4-45.6 5.7M22.5 8.2c-2.8 1.7-5.5 3.8-8 6.3C8.2 20.7 4.5 28 3.3 36.4c-0.3 2-0.4 4-0.4 6.1 0 11 3.9 20.3 11.6 28.1 0.3 0.3 0.6 0.6 1 0.9C23 78.6 32 82.2 42.5 82.2c6.8 0 12.9-1.5 18.5-4.5M82.1 45.5c-9.6-2.9-18.6-3.8-26.9-2.6 -15.6 2.2-28.9 11.8-39.8 28.6"/></svg>