<svg xmlns="http://www.w3.org/2000/svg" version="1.2" baseProfile="tiny" x="0" y="0" width="30" height="30" viewBox="-72.5 12.5 85 85" xml:space="preserve"><path fill="none" stroke="#FFFFFF" stroke-width="5" stroke-linecap="round" stroke-miterlimit="10" d="M-1.9 83.1c-3.6 3.6-7.9 6.5-12.6 8.5s-10 3.1-15.4 3.1 -10.7-1.1-15.4-3.1 -9-4.9-12.6-8.5 -6.5-7.9-8.5-12.6c-2-4.7-3.1-10-3.1-15.4s1.1-10.7 3.1-15.4 4.9-9 8.5-12.6 7.9-6.5 12.6-8.5 10-3.1 15.4-3.1 10.7 1.1 15.4 3.1 9 4.9 12.6 8.5 6.5 7.9 8.5 12.6 3.1 10 3.1 15.4c0 0 0 12.2-8.7 14.9C-9.7 73.1-15.1 64.8-15.1 56V40.2"/><circle fill="none" stroke="#FFFFFF" stroke-width="5" stroke-miterlimit="10" cx="-30" cy="55" r="14.9"/></svg>