<svg xmlns="http://www.w3.org/2000/svg" version="1.2" baseProfile="tiny" x="0" y="0" width="30" height="30" viewBox="0 0 85 85" xml:space="preserve"><path fill="none" stroke="#FFFFFF" stroke-width="5" stroke-linecap="round" stroke-linejoin="round" stroke-miterlimit="10" d="M2.8 42.5c0 3.1 0.8 5.9 2.2 8.3 0.7 1.2 1.5 2.2 2.6 3.3 3.2 3.2 7.1 4.8 11.6 4.8 4.5 0 8.4-1.6 11.6-4.8 3.2-3.2 4.8-7.1 4.8-11.6 0-4.5-1.6-8.4-4.8-11.6 -3.2-3.2-7.1-4.8-11.6-4.8 -4.5 0-8.4 1.6-11.6 4.8 -1 1-1.9 2.1-2.6 3.3C3.6 36.6 2.8 39.4 2.8 42.5L2.8 42.5zM82.2 42.5c0-4.5-1.6-8.4-4.8-11.6 -3.2-3.2-7.1-4.8-11.6-4.8 -4.5 0-8.4 1.6-11.6 4.8 -3.2 3.2-4.8 7.1-4.8 11.6 0 4.5 1.6 8.4 4.8 11.6 3.2 3.2 7.1 4.8 11.6 4.8 4.5 0 8.4-1.6 11.6-4.8C80.6 50.9 82.2 47 82.2 42.5L82.2 42.5z"/></svg>