<svg xmlns="http://www.w3.org/2000/svg" version="1.2" baseProfile="tiny" x="0" y="0" width="30" height="30" viewBox="0 0 85 85" xml:space="preserve"><path fill="none" stroke="#FFFFFF" stroke-width="5" stroke-linecap="round" stroke-linejoin="round" stroke-miterlimit="10" d="M64.3 49.6v2.7V55v2.7 2.7c0 3-0.6 5.9-1.7 8.5 -1.1 2.6-2.7 5-4.7 6.9 -2 2-4.3 3.6-6.9 4.7 -2.6 1.1-5.5 1.7-8.5 1.7l0 0 0 0 0 0 0 0c-3 0-5.9-0.6-8.5-1.7s-5-2.7-6.9-4.7c-2-2-3.6-4.3-4.7-6.9"/><line fill="none" stroke="#FFFFFF" stroke-width="5" stroke-linecap="round" stroke-linejoin="round" stroke-miterlimit="10" x1="64.3" y1="2.8" x2="64.3" y2="51"/><circle fill="none" stroke="#FFFFFF" stroke-width="5" stroke-linecap="round" stroke-linejoin="round" stroke-miterlimit="10" cx="42.5" cy="24.5" r="21"/></svg>