<svg xmlns="http://www.w3.org/2000/svg" version="1.2" baseProfile="tiny" x="0" y="0" viewBox="0 0 85 85" xml:space="preserve"><line fill="none" stroke="#FFFFFF" stroke-width="5" stroke-linecap="round" stroke-linejoin="round" stroke-miterlimit="10" x1="25.7" y1="3.9" x2="45.6" y2="3.9"/><path fill="none" stroke="#FFFFFF" stroke-width="5" stroke-linecap="round" stroke-linejoin="round" stroke-miterlimit="10" d="M31.7 35.5c1.9-0.9 3.6-2 5.2-3.6 3.3-3.2 4.9-7 4.9-11.6s-1.6-8.4-4.9-11.6C33.8 5.6 30.1 4 25.7 3.9M25.7 3.9h-0.9c-4.3 0.1-8 1.7-11.2 4.8 -3.2 3.2-4.8 7-4.8 11.6s1.6 8.4 4.8 11.6 7 4.8 11.6 4.8c2.2 0 4.4-0.4 6.3-1.2M37.9 51.5c-3.5-1.5-7.6-2.3-12-2.3 -6.3 0-11.7 1.5-16.2 4.7s-6.8 6.9-6.8 11.3c0 4.5 2.3 8.2 6.8 11.4 4.5 3.1 9.9 4.7 16.2 4.7s11.8-1.5 16.3-4.7c4.5-3.1 6.7-6.8 6.7-11.3 0-4.5-2.2-8.2-6.7-11.3 -0.5-0.3-1.1-0.7-1.7-1.1C39.5 52.3 38.7 51.8 37.9 51.5L37.9 51.5zM37.9 51.5c-7.6-4.3-9.7-9.6-6.2-16"/><line fill="none" stroke="#FFFFFF" stroke-width="5" stroke-linecap="round" stroke-linejoin="round" stroke-miterlimit="10" x1="70.1" y1="24.6" x2="70.1" y2="48.7"/><line fill="none" stroke="#FFFFFF" stroke-width="5" stroke-linecap="round" stroke-linejoin="round" stroke-miterlimit="10" x1="58.1" y1="36.7" x2="82.2" y2="36.7"/></svg>