<svg xmlns="http://www.w3.org/2000/svg" version="1.2" baseProfile="tiny" x="0" y="0" viewBox="0 0 85 85" xml:space="preserve"><path fill="none" stroke="#FFFFFF" stroke-width="5" stroke-linecap="round" stroke-linejoin="round" stroke-miterlimit="10" d="M45.9 4.2c-0.9-0.9-2-1.4-3.4-1.4 -1.3 0-2.5 0.6-3.4 1.4 -0.9 0.9-1.4 2-1.4 3.4s0.6 2.5 1.4 3.4c0.8 0.8 2 1.4 3.4 1.4s2.5-0.6 3.4-1.4c0.8-0.8 1.4-2 1.4-3.4C47.3 6.4 46.9 5.2 45.9 4.2L45.9 4.2z"/><line fill="none" stroke="#FFFFFF" stroke-width="5" stroke-linecap="round" stroke-linejoin="round" stroke-miterlimit="10" x1="42.5" y1="82.2" x2="42.5" y2="28.5"/><line fill="none" stroke="#FFFFFF" stroke-width="5" stroke-linecap="round" stroke-linejoin="round" stroke-miterlimit="10" x1="31.9" y1="28.5" x2="42.5" y2="28.5"/><line fill="none" stroke="#FFFFFF" stroke-width="5" stroke-linecap="round" stroke-linejoin="round" stroke-miterlimit="10" x1="31.9" y1="82.2" x2="42.5" y2="82.2"/><line fill="none" stroke="#FFFFFF" stroke-width="5" stroke-linecap="round" stroke-linejoin="round" stroke-miterlimit="10" x1="42.5" y1="82.2" x2="53.1" y2="82.2"/></svg>