<svg xmlns="http://www.w3.org/2000/svg" version="1.2" baseProfile="tiny" x="0" y="0" viewBox="0 0 85 85" xml:space="preserve"><path fill="none" stroke="#FFFFFF" stroke-width="5" stroke-linecap="round" stroke-linejoin="round" stroke-miterlimit="10" d="M77.4 82.2V49.7c-0.2-6.2-2.4-11.6-6.9-16 -4.6-4.6-10.1-6.9-16.6-6.9s-12 2.3-16.6 6.9c-4.5 4.5-6.7 9.8-6.9 16M15.9 4.2c-0.9-0.9-2-1.4-3.4-1.4 -1.3 0-2.5 0.6-3.4 1.4 -0.9 0.9-1.4 2-1.4 3.4s0.6 2.5 1.4 3.4c0.8 0.8 2 1.4 3.4 1.4s2.5-0.6 3.4-1.4c0.8-0.8 1.4-2 1.4-3.4C17.3 6.4 16.8 5.2 15.9 4.2L15.9 4.2z"/><line fill="none" stroke="#FFFFFF" stroke-width="5" stroke-linecap="round" stroke-linejoin="round" stroke-miterlimit="10" x1="30.6" y1="82.2" x2="30.6" y2="49.6"/><line fill="none" stroke="#FFFFFF" stroke-width="5" stroke-linecap="round" stroke-linejoin="round" stroke-miterlimit="10" x1="30.6" y1="49.6" x2="30.6" y2="28.5"/><line fill="none" stroke="#FFFFFF" stroke-width="5" stroke-linecap="round" stroke-linejoin="round" stroke-miterlimit="10" x1="12.4" y1="82.2" x2="12.4" y2="28.5"/></svg>