<svg viewBox="0 0 3600 400" version="1.1" xmlns="http://www.w3.org/2000/svg" xmlns:xlink="http://www.w3.org/1999/xlink">
    <path d="M0,159.964757 L50.075681,133.195405 L54.5176582,119.30949 L100.444111,110.878475 L125.128701,80.1383631 L167.136222,90.9776792 L219.948129,66.9573163 L254.293434,76.3868947 L321.723272,72.1537658 L453.214383,181.647305 L566.539447,70.187965 L614.909378,95.1755645 L678.307087,66.9573163 L691.925768,68.9622765 L729.971419,83.0714006 L745.736925,76.3868947 L842.184037,111.548101 L951.730688,41.9305574 L1237.18432,180.496019 L1373.63655,148.78867 L1407.94282,136.386895 L1445.4342,151.240047 L1546.46771,128.774311 L1637.02862,89.9007962 L1651.3538,78.2430492 L1721.30128,87.4885785 L1779.55441,62.1681243 L1863.45236,94.0986816 L1917.00589,68.108602 L2174.66399,161.00248 L2358.56106,201.140843 L2595.5706,78.3918548 L2628.13599,45.2003655 L2649.38176,40 L2661.22443,48.4270983 L2753.52622,121.240047 L2899.67429,66.9925597 L2986.05474,97.2549276 L3022.39855,70.7440282 L3083.27861,95.2852108 L3103.07625,91.7961102 L3110.51598,95.5084193 L3143.34289,69.5183396 L3199.85514,90.0887613 L3223.06038,84.8883958 L3238.12328,100 L3275.68883,73.7123091 L3380.53588,70.5208197 L3424.02276,89.6423443 L3446.52149,81.027281 L3469.24662,80.0248009 L3501.22261,109.284689 L3526.12969,110.024801 L3547.41058,134.381934 L3600,158.887874 L3600,399.890354 L0,400 L0,159.964757 Z" fill="#8A9EA3"></path>
</svg>