<svg viewBox="0 0 3600 400" version="1.1" xmlns="http://www.w3.org/2000/svg" xmlns:xlink="http://www.w3.org/1999/xlink">
    <path d="M2503.45002,386.979908 L2234,175 L1948,400 L2495,400 L3280.34991,400 L3600,400 L3339.87786,251 L3242.0747,307.02242 L3220.82196,298.75 L2975.47205,349.375 L2867.30856,298.75 C2867.30856,298.75 2571.79544,360.37712 2542.39974,371.819107 C2529.4165,376.872707 2509.44851,384.645051 2493.76877,390.748237 L2503.45002,386.979908 Z M1096.49719,386.959357 L1260.88338,200.504881 C1264.53764,196.36005 1270.45918,196.356436 1274.11662,200.504881 L1313.48021,245.152892 L1418.5,126 L1660,400 L1313.5,400 L1107.5,400 L319.650088,400 L0,400 L260.122137,251 L357.925303,307.02242 L379.178039,298.75 L624.527951,349.375 L732.691439,298.75 C732.691439,298.75 1028.20456,360.37712 1057.60026,371.819107 C1070.5659,376.865857 1090.49736,384.623985 1106.16744,390.723409 L1096.49719,386.959357 Z" fill="#698CAB"></path>
    <g class="flag">
        <path d="M1418.69782,177.767983 L1426.21046,34.9278039 C1427.52181,34.4724595 1428.43696,33.5410396 1428.49579,32.4224921 C1428.58357,30.7535156 1426.73165,29.2999367 1424.35942,29.1758326 C1421.98718,29.0517284 1419.99295,30.3040949 1419.90517,31.9730714 C1419.84634,33.0916189 1420.65876,34.1134169 1421.91515,34.7030924 L1414.40251,177.543273 C1413.09116,177.998616 1412.17601,178.930036 1412.11718,180.048584 C1412.0294,181.71756 1413.88132,183.171139 1416.25355,183.295243 C1418.62579,183.419347 1420.62003,182.166981 1420.7078,180.498004 C1420.76663,179.379456 1419.95421,178.357658 1418.69782,177.767983 L1418.69782,177.767983 L1418.69782,177.767983 L1418.69782,177.767983 L1418.69782,177.767983 Z" class="flag-pole" fill="#023360"></path>
        <path d="M1531.26661,84.9254173 C1537.49956,83.3888856 1544.93974,87.3753468 1548.13825,90.7538601 C1534.18558,90.0244662 1528.77146,100.614948 1507.31261,107.939354 C1485.85376,115.26376 1481.40568,106.836854 1464.29114,107.601787 C1457.33983,107.912475 1449.19101,114.12842 1442.43363,115.988989 C1432.29074,118.781725 1424.73996,117.491347 1424.73996,117.491347 L1428.57586,44.4812369 C1428.57586,44.4812369 1456.23408,46.1484317 1467.38541,48.7073546 C1485.57815,52.8820897 1493.43652,63.509766 1505.37022,70.4025958 C1517.30392,77.2954254 1536.41867,68.9100642 1548.67995,80.4435619 C1543.64067,78.129822 1535.96926,78.5313544 1531.26661,84.9254173 L1531.26661,84.9254173 L1531.26661,84.9254173 L1531.26661,84.9254173 Z" class="flag" fill="#023360"></path>
        <path d="M1424.73707,117.48366 L1413.28288,116.884877 L1417.11878,43.8747669 L1428.57297,44.4735495" class="flag-accent" fill="#FBB431"></path>
        <path d="M1435.92937,79.4465752 C1435.63365,85.0894035 1439.03411,88.2388817 1443.38862,88.467092 C1445.47569,88.5764709 1447.37543,87.8234074 1448.85189,86.2730472 L1446.885,83.8704642 C1446.01321,84.7290746 1445.00303,85.2703869 1443.61165,85.1974676 C1441.16385,85.0691837 1439.64589,82.9743368 1439.82684,79.5216473 C1440.00374,76.1462569 1441.93983,74.2065914 1444.28456,74.3294738 C1445.46982,74.3915902 1446.24292,74.9230117 1447.05269,75.7405637 L1449.26265,73.5052057 C1448.1897,72.2863047 1446.4916,71.1638269 1444.40453,71.054448 C1440.07578,70.8275881 1436.22105,73.8810459 1435.92937,79.4465752 L1435.92937,79.4465752 L1435.92937,79.4465752 Z M1455.13238,81.7964916 L1455.62566,80.2721169 C1456.17723,78.6216113 1456.74365,76.6876759 1457.22332,74.9300538 L1457.32638,74.9354553 C1457.69835,76.7118728 1458.0324,78.718837 1458.40842,80.4179554 L1458.73966,81.9855415 L1455.13238,81.7964916 L1455.13238,81.7964916 Z M1460.17871,89.0369781 L1464.19826,89.2476337 L1459.79659,72.1711573 L1455.26172,71.9334946 L1449.09919,88.4563247 L1452.96414,88.6588782 L1454.2041,84.7191099 L1459.35736,84.9891812 L1460.17871,89.0369781 L1460.17871,89.0369781 Z M1465.95037,89.339458 L1476.38574,89.8863524 L1476.55318,86.6913263 L1469.93123,86.3442847 L1470.64422,72.7396575 L1466.8308,72.5398047 L1465.95037,89.339458 L1465.95037,89.339458 Z" class="cal" fill="#FFFFFF"></path>
    </g>
</svg>