<svg viewBox="0 0 3600 400" version="1.1" xmlns="http://www.w3.org/2000/svg" xmlns:xlink="http://www.w3.org/1999/xlink">
    <g class="guru" fill-rule="evenodd">
        <path d="M2995.49506,293.661448 C2995.49506,293.661448 2991.95133,292.843312 2989.37016,295.939703 C2986.78899,299.036094 2986.37579,304.76716 2989.41334,307.758094 C2992.45089,310.749027 2995.80161,308.501422 2995.8016,308.501422 C2997.89133,315.503092 3000.55099,334.048731 3030.17346,339.511104 C3053.55213,343.822122 3067.82141,330.579516 3070.47146,316.509564 C3070.47146,316.509564 3074.43035,319.55365 3077.39414,316.915635 C3080.35793,314.277621 3082.03766,310.872154 3081.07509,306.957627 C3080.11252,303.0431 3077.65704,301.553132 3073.70866,302.487726 C3078.99668,291.708585 3065.68009,276.634229 3065.68009,276.634229 C3054.23958,277.68528 3045.22696,268.219953 3035.48169,265.970078 C3025.73641,263.720204 2998.83037,263.046906 2995.49506,293.661448" class="face" stroke="#33534D" stroke-width="2" stroke-linecap="round" stroke-linejoin="round" fill="#F9EDE6"></path>
        <path d="M3034.53133,326.673636 C3038.75868,328.572671 3048.02267,328.865282 3049.23662,323.607092" class="mouth" stroke="#33534D" stroke-width="2" stroke-linecap="round" stroke-linejoin="round"></path>
        <path d="M2995.49784,293.437341 C2995.49784,293.437341 2987.46948,287.904564 2993.82596,276.49458 C2984.56716,275.52386 2980.51147,261.463015 2990.60894,254.439691 C2989.56663,258.954456 2992.03037,264.122362 2997.33039,265.345968 C2988.13131,256.743922 2998.85033,233.810345 3015.03417,234.421623 C3010.2031,240.22021 3019.06739,245.529182 3022.21048,246.254821 C3022.21048,246.254821 3024.70685,239.472586 3031.29444,239.153808 C3022.76777,251.902408 3062.89813,247.369916 3069.46767,267.283034 C3069.46767,267.283034 3068.93987,273.599929 3065.48298,276.481127 C3054.07476,277.526618 3045.08589,268.092804 3035.3676,265.849161 C3025.64931,263.605517 2998.81871,262.93011 2995.49784,293.437341 L2995.49784,293.437341 L2995.49784,293.437341 L2995.49784,293.437341 Z M3065.48298,276.481127 C3065.48298,276.481127 3078.76468,291.505123 3073.49329,302.245799 C3091.05637,290.663599 3076.0625,266.046108 3069.46767,267.283034 M3007.27978,278.680818 L3026.51475,284.04138 L3027.11958,281.421554 L3010.25641,273.849101 L3007.27978,278.680818 L3007.27978,278.680818 L3007.27978,278.680818 L3007.27978,278.680818 Z M3065.37337,288.052049 L3045.50177,286.138889 L3045.87258,283.475536 L3064.31973,282.470712 L3065.37337,288.052049 L3065.37337,288.052049 L3065.37337,288.052049 L3065.37337,288.052049 Z" class="hair" stroke="#33534D" stroke-width="2" stroke-linecap="round" stroke-linejoin="round" fill="#69B3A5"></path>
        <path d="M3035.6422,291.319721 C3032.05025,290.818441 3030.37982,292.514104 3030.48225,292.764241 C3031.11052,294.289014 3031.49503,295.944257 3031.58589,297.685429 C3032.01517,305.926102 3025.69723,312.958123 3017.47426,313.391769 C3009.25061,313.824502 3002.23592,307.495013 3001.80585,299.254227 C3001.53276,294.011066 2996.72127,293.193839 2996.72127,293.193839 L2997.2984,290.1902 C2997.2984,290.1902 2999.42191,290.125173 3002.08542,289.129592 C3004.95006,288.057903 3008.39046,286.038668 3009.01917,285.658931 C3011.04552,284.436676 3013.39131,283.681061 3015.91828,283.548 C3021.27318,283.265494 3026.11553,285.85134 3028.96101,289.965382 C3029.08482,290.144303 3030.7881,288.214645 3035.97566,288.944486 C3040.76417,289.618186 3041.87015,291.943081 3042.03843,291.805256 C3045.90645,288.635739 3051.27321,287.486221 3056.34289,289.23537 C3058.73533,290.060545 3060.7822,291.434167 3062.39351,293.168209 C3062.8933,293.706715 3065.64445,296.597043 3068.10304,298.417661 C3070.38925,300.109623 3072.41259,300.758074 3072.41259,300.758074 L3072.14033,303.804604 C3072.14033,303.804604 3067.2902,303.262531 3065.58403,308.22723 C3062.90158,316.03011 3054.41585,320.178835 3046.62991,317.4937 C3038.84489,314.807877 3034.70791,306.304946 3037.38957,298.501953 C3037.95633,296.853302 3038.78171,295.36828 3039.80548,294.075933 C3039.97281,293.863749 3038.83398,291.772848 3035.24315,291.263579 M3015.33573,311.326172 C3021.94728,312.256356 3028.06114,307.638753 3028.99141,301.012465 C3029.92168,294.386177 3025.31608,288.260445 3018.70453,287.330261 C3012.09297,286.400076 3005.97912,291.01768 3005.04885,297.643968 C3004.11858,304.270255 3008.72417,310.395987 3015.33573,311.326172 L3015.33573,311.326172 L3015.33573,311.326172 L3015.33573,311.326172 L3015.33573,311.326172 Z M3049.25435,316.098209 C3042.6428,315.168024 3038.03721,309.042293 3038.96747,302.416005 C3039.89774,295.789717 3046.0116,291.172113 3052.62315,292.102298 C3059.23471,293.032483 3063.8403,299.158214 3062.91003,305.784502 C3061.97976,312.41079 3055.86591,317.028394 3049.25435,316.098209 L3049.25435,316.098209 L3049.25435,316.098209 L3049.25435,316.098209 L3049.25435,316.098209 L3049.25435,316.098209 Z M3020.41147,305.098542 C3022.40444,305.346321 3024.21393,303.9479 3024.45308,301.975081 C3024.69223,300.002262 3023.19775,297.918774 3021.38575,297.061306 C3018.78756,295.831798 3016.98327,295.607476 3014.16857,296.16402 C3011.35387,296.720563 3008.21441,299.956186 3008.21441,299.956186 L3009.93287,300.888582 C3014.96246,297.169207 3017.4524,299.291742 3017.23589,301.077794 C3016.99675,303.050613 3018.4185,304.850763 3020.41147,305.098542 L3020.41147,305.098542 L3020.41147,305.098542 L3020.41147,305.098542 L3020.41147,305.098542 Z M3054.73643,309.044665 C3056.7294,309.292444 3058.53889,307.894023 3058.77804,305.921203 C3059.01719,303.948384 3057.52271,301.864897 3055.71071,301.007429 C3053.11252,299.77792 3051.30822,299.553599 3048.49353,300.110142 C3045.67883,300.666686 3042.53937,303.902309 3042.53937,303.902309 L3044.25783,304.834704 C3049.28742,301.115329 3051.77736,303.237864 3051.56085,305.023917 C3051.3217,306.996736 3052.74346,308.796886 3054.73643,309.044665 L3054.73643,309.044665 L3054.73643,309.044665 L3054.73643,309.044665 L3054.73643,309.044665 Z" class="glasses" stroke="#33534D" stroke-width="2" stroke-linecap="round" stroke-linejoin="round" fill="#33534D"></path>
        <path d="M2991.8149,307.581019 C2992.54883,307.75046 2993.27968,307.299277 2993.44729,306.573272 C2993.6149,305.847268 2993.15581,305.121366 2992.42188,304.951924 C2991.68794,304.782482 2990.9571,305.233666 2990.78949,305.95967 C2990.62188,306.685675 2991.08097,307.411577 2991.8149,307.581019 L2991.8149,307.581019 L2991.8149,307.581019 L2991.8149,307.581019 L2991.8149,307.581019 Z M3074.46248,316.29222 C3075.19642,316.461661 3075.92726,316.010478 3076.09487,315.284473 C3076.26248,314.558469 3075.80339,313.832566 3075.06946,313.663125 C3074.33553,313.493683 3073.60468,313.944867 3073.43707,314.670871 C3073.26946,315.396876 3073.72855,316.122778 3074.46248,316.29222 L3074.46248,316.29222 L3074.46248,316.29222 L3074.46248,316.29222 L3074.46248,316.29222 Z" class="earrings" stroke="#33534D" stroke-width="2" stroke-linecap="round" stroke-linejoin="round" fill="#33534D"></path>
        <path d="M2989.39013,295.416849 C2988.48691,294.978963 2987.39972,295.347399 2986.96184,296.239774 C2986.52395,297.132148 2986.90118,298.210537 2987.8044,298.648423 C2988.70763,299.086308 2989.79481,298.717872 2990.23269,297.825498 M3078.51696,312.850348 C3078.06337,313.734945 3078.42157,314.8196 3079.31701,315.272993 C3080.21246,315.726386 3081.30606,315.376826 3081.75964,314.49223 C3082.21322,313.607633 3081.85502,312.522979 3080.95958,312.069586" class="earrings" stroke="#33534D" stroke-width="2" stroke-linecap="round" stroke-linejoin="round"></path>
    </g>
    <path d="M1207.89108,399.985064 L1092.26861,66 L965.676011,127.694393 L914.465303,71.2334559 L736.024586,103.053539 L302,397.267693 L1207.89108,399.985064 Z M1804.5,40 L2107,400 L1502,400 L1804.5,40 Z M2520.53372,152 L2312.06743,400 L2729,400 L2520.53372,152 Z M3297.5,40 L2995,400 L3600,400 L3297.5,40 Z" class="snow-1" fill="#FFFFFF"></path>
    <path d="M3342.5,183 L3365.88479,210.805479 L3378.5,195.805479 L3392.61521,212.589041 L3417.5,183 L3600,400 L2992,400 L3174.5,183 L3209.35363,224.442398 L3244.5,184 L3268.80053,211.962248 L3278,201 L3302.65417,230.378326 L3342.5,183 L3342.5,183 Z" class="rocky-5" fill="#749EC2"></path>
    <path d="M2866.5,400 L2520,400 L2761.5,126 L2866.51979,245.152892 L2905.88338,200.504881 C2909.54082,196.356436 2915.46236,196.36005 2919.11662,200.504881 L3095,400 L2866.5,400 L2866.5,400 Z" class="rocky-4" fill="#82A7C8"></path>
    <path d="M2551.54523,250.511111 L2567.66074,269.665997 L2576.35444,259.332664 L2586.08186,270.894673 L2603.23109,250.511111 L2729,400 L2310,400 L2435.76891,250.511111 L2459.78811,279.060319 L2484.00905,251.2 L2500.75563,270.462882 L2507.09539,262.911111 L2524.08569,283.149513 L2551.54523,250.511111 L2551.54523,250.511111 Z" class="rocky-3" fill="#749EC2"></path>
    <path d="M1759.5,183 L1736.11521,210.805479 L1723.5,195.805479 L1709.38479,212.589041 L1684.5,183 L1502,400 L2110,400 L1927.5,183 L1892.64637,224.442398 L1857.5,184 L1833.19947,211.962248 L1824,201 L1799.34583,230.378326 L1759.5,183 Z" class="rocky-2" fill="#749EC2"></path>
    <path d="M1207.89108,399.985064 L1139.35767,182.648926 L1092.26861,156 L965.676011,217.694393 L914.465303,161.233456 L736.024586,193.053539 L618.605507,182.648926 L302,397.267693 L1207.89108,399.985064 Z" class="rocky-1" fill="#82A7C8"></path>
</svg>