<svg xmlns="http://www.w3.org/2000/svg" version="1.2" baseProfile="tiny" x="0" y="0" width="30" height="30" viewBox="-72.5 12.5 85 85" xml:space="preserve"><path fill="none" stroke="#FFFFFF" stroke-width="5" stroke-linecap="round" stroke-linejoin="round" stroke-miterlimit="10" d="M-9.9 50.4H-30h-19.1c-3.1 0-4.8 1.3-6.8 3.4s-6.3 8-6.3 8 4.2 5.9 6.3 8 3.8 3.4 6.8 3.4H-30h20.1c3.1 0 5.8-1.3 7.8-3.4s3.3-4.9 3.3-8c0-3.1-1.2-5.9-3.3-8S-6.9 50.4-9.9 50.4zM-54.6 50.4h24.1 23.1c3.1 0 4.8-1.3 6.8-3.4s6.3-8 6.3-8 -4.2-5.9-6.3-8 -3.8-3.4-6.8-3.4h-23.1 -24.1c-3.1 0-5.8 1.3-7.8 3.4s-3.3 4.9-3.3 8c0 3.1 1.2 5.9 3.3 8S-57.6 50.4-54.6 50.4z"/><line fill="#B26666" stroke="#FFFFFF" stroke-width="5" stroke-linecap="round" stroke-linejoin="round" stroke-miterlimit="10" x1="-30" y1="15.4" x2="-30" y2="27.7"/><line fill="#B26666" stroke="#FFFFFF" stroke-width="5" stroke-linecap="round" stroke-linejoin="round" stroke-miterlimit="10" x1="-30" y1="73" x2="-30" y2="94.7"/></svg>