<svg xmlns="http://www.w3.org/2000/svg" version="1.2" baseProfile="tiny" x="0" y="0" width="30" height="30" viewBox="0 0 85 85" xml:space="preserve"><path fill="none" stroke="#FFFFFF" stroke-width="5" stroke-linecap="round" stroke-linejoin="round" stroke-miterlimit="10" d="M58.8 30.9c-0.6-1.6 15.6-16 6.2-27.7 -2.2-2.7-9.7 13.1-20.3 20.3 -5.9 4-19.5 12.4-19.5 17.1v30.2c0 5.6 21.7 11.5 38.1 11.5 6 0 14.8-37.8 14.8-43.8C78 32.4 59.4 32.5 58.8 30.9zM11.6 70.9L11.6 70.9c2.5 0 4.5-2 4.5-4.5V44.9c0-2.5-2-4.5-4.5-4.5h0c-2.5 0-4.5 2-4.5 4.5v21.5C7.1 68.9 9.1 70.9 11.6 70.9z"/></svg>