<svg xmlns="http://www.w3.org/2000/svg" version="1.2" baseProfile="tiny" x="0" y="0" width="30" height="30" viewBox="-42.5 42.5 85 85" xml:space="preserve"><path fill="none" stroke="#FFFFFF" stroke-width="5" stroke-linecap="round" stroke-linejoin="round" stroke-miterlimit="10" d="M-9.2 82.8C-9.6 91-6.1 96.7 1.1 100c3.3 1.6 6.8 2 10.4 1.3 3.8-0.8 7.1-2.7 9.9-5.9 5-5.5 7.5-12.2 7.6-20.2 0-8.2-2.9-15.3-8.5-21.2C14.8 48.1 8 45.2 0 45.3c-8-0.1-14.9 2.9-20.5 8.7 -5.7 5.9-8.5 12.9-8.5 21.2 0 3.8 0.6 7.3 1.8 10.6M-9.4 82.4c-2.9-11.3-1.9-17 3-17.1"/><line fill="none" stroke="#FFFFFF" stroke-width="5" stroke-linecap="round" stroke-linejoin="round" stroke-miterlimit="10" x1="-9.2" y1="81.4" x2="-6.3" y2="65.9"/><line fill="none" stroke="#FFFFFF" stroke-width="5" stroke-linecap="round" stroke-linejoin="round" stroke-miterlimit="10" x1="-17.2" y1="124.8" x2="-9.4" y2="82.4"/></svg>