<svg xmlns="http://www.w3.org/2000/svg" version="1.2" baseProfile="tiny" x="0" y="0" width="30" height="30" viewBox="0 0 85 85" xml:space="preserve"><path fill="none" stroke="#FFFFFF" stroke-width="5" stroke-miterlimit="10" d="M42.5 82.2c-21.9 0-39.7-17.7-39.7-39.7S20.6 2.8 42.5 2.8s39.7 17.7 39.7 39.6S64.4 82.2 42.5 82.2z"/><path fill="none" stroke="#FFFFFF" stroke-width="5" stroke-linecap="round" stroke-linejoin="round" stroke-miterlimit="10" d="M68 43.3L68 43.3 68 43.3zM68 43.3l-5.1 6.3 -5.1-6.3 -5.1 6.3 -5.1-6.3 -5.1 6.3 -5.1-6.3 -5.1 6.3 -5.1-6.3 -5.1 6.3L17 43.3c0 7 2.9 13.4 7.5 18s11 7.5 18 7.5 13.4-2.9 18-7.5C65.1 56.6 68 50.3 68 43.3L68 43.3z"/><path fill="none" stroke="#FFFFFF" stroke-width="5" stroke-miterlimit="10" d="M27.4 22.4c-3.1 0-5.7 2.5-5.7 5.7 0 3.1 2.5 5.7 5.7 5.7 3.1 0 5.7-2.5 5.7-5.7C33 25.1 30.5 22.4 27.4 22.4zM57.6 22.4c-3.1 0-5.7 2.5-5.7 5.7 0 3.1 2.5 5.7 5.7 5.7 3.1 0 5.7-2.5 5.7-5.7C63.3 25.1 60.7 22.4 57.6 22.4z"/></svg>