<svg xmlns="http://www.w3.org/2000/svg" version="1.2" baseProfile="tiny" x="0" y="0" width="30" height="30" viewBox="0 0 85 85" xml:space="preserve"><path fill="none" stroke="#FFFFFF" stroke-width="5" stroke-linecap="round" stroke-linejoin="round" stroke-miterlimit="10" d="M66 10.9c-0.8 0.8-1.3 1.6-1.6 2.5 -0.3 0.7-0.4 1.5-0.4 2.4 -0.1 1.9 0.6 3.5 2 4.8 1.4 1.4 2.9 2 4.9 2 1.9 0 3.5-0.6 4.8-2 1.4-1.4 2-3 2-4.8 0-1.9-0.6-3.5-2-4.9 -1.4-1.4-3-2-4.8-1.9C69 8.9 67.4 9.5 66 10.9L66 10.9z"/><polyline fill="none" stroke="#FFFFFF" stroke-width="5" stroke-linecap="round" stroke-linejoin="round" stroke-miterlimit="10" points=" 44.1 27.1 49.2 8.9 64.4 13.4 "/><path fill="none" stroke="#FFFFFF" stroke-width="5" stroke-linecap="round" stroke-linejoin="round" stroke-miterlimit="10" d="M68.7 35.3c-0.4-0.4-0.9-0.7-1.3-1 -6.5-4.7-14.3-7.1-23.4-7.1 -0.2 0-0.4 0-0.6 0 -9.4-0.1-17.4 2.4-24 7.1 -0.8 0.5-1.5 1.1-2.1 1.7M17.3 35.9c-0.4 0.3-0.7 0.7-1 0.9 -4.2 3.9-6.5 8.4-6.8 13.5M9.5 50.4c0 0.1 0 0.1 0 0.2 0 0.3 0 0.7 0 1 -0.1 6.8 3.2 12.5 9.9 17.3 6.6 4.8 14.6 7.2 24 7.2s17.4-2.4 24-7.2c6.7-4.8 10-10.5 10-17.3 0-0.5 0-1.1-0.1-1.6M77.4 50c0.8-0.4 1.6-1 2.4-1.7 1.7-1.7 2.5-3.7 2.5-6 0-2.4-0.8-4.4-2.5-6 -1.7-1.7-3.7-2.5-6-2.5 -1.9-0.1-3.5 0.5-5 1.5M77.4 50c-0.5-5.6-3.4-10.5-8.6-14.7M17.3 35.9c-1.7-1.6-3.7-2.4-6-2.4 -2.4 0-4.4 0.8-6 2.5 -1.7 1.7-2.5 3.7-2.5 6.1 0 2.3 0.8 4.3 2.5 6 1.2 1.2 2.6 1.9 4.2 2.3"/></svg>