<svg xmlns="http://www.w3.org/2000/svg" version="1.2" baseProfile="tiny" x="0" y="0" width="30" height="30" viewBox="-72.5 12.5 85 85" xml:space="preserve"><path fill="#FFFFFF" d="M-30 18.7l2.5 0.8c10.7 4 23.5 12.7 23.5 31.2 0 18.3-12.6 26.1-23.2 29.4l-2.8 0.7 -2.8-0.7C-43.4 76.8-56.1 69-56.1 50.7c0-18.5 12.8-27.2 23.5-31.2L-30 18.7M-30 13.4l-4.2 1.4c-10.4 3.9-26.9 13.5-26.9 35.9s16.4 31 26.9 34.2L-30 86l4.2-1.1c10.4-3.2 26.9-11.8 26.9-34.2s-16.4-32-26.9-35.9L-30 13.4 -30 13.4zM-7.5 46.4c-1-1-2.5-1-3.5 0l-16.5 16.1V50.1l12.2-11.8c1-1 1-2.5 0.1-3.5 -1-1-2.5-1-3.5-0.1l-8.8 8.4V27.8c0-1.4-1.1-2.5-2.5-2.5s-2.5 1.1-2.5 2.5v15.3l-8.8-8.4c-1-1-2.6-0.9-3.5 0.1 -1 1-0.9 2.6 0.1 3.5l12.2 11.8v12.4L-49 46.3c-1-1-2.6-0.9-3.5 0 -1 1-0.9 2.6 0 3.5l20 19.5v24.8c0 1.4 1.1 2.5 2.5 2.5s2.5-1.1 2.5-2.5V69.4l20-19.5C-6.5 48.9-6.5 47.3-7.5 46.4z"/></svg>