<svg xmlns="http://www.w3.org/2000/svg" version="1.2" baseProfile="tiny" x="0" y="0" width="30" height="30" viewBox="0 0 85 85" xml:space="preserve"><path fill="none" stroke="#FFFFFF" stroke-width="5" stroke-linecap="round" stroke-linejoin="round" stroke-miterlimit="10" d="M23.2 2.8c-5.6 0-10.5 2-14.4 6 -4 4-6 8.8-6 14.4 0 4.6 1.3 8.5 3.9 12C6.3 37.6 6 40 6 42.5c0 9.9 3.5 18.4 10.5 25.4C23.6 75 32.1 78.5 42 78.5c2.4 0 4.9-0.2 7.2-0.7M77.5 48.7c0.3-2 0.5-4 0.5-6.2 0-9.9-3.5-18.4-10.6-25.5C60.4 10 51.9 6.5 42 6.5c-2.2 0-4.2 0.2-6.3 0.5C32.1 4.2 28 2.8 23.2 2.8M47.7 27.7c-1.9-1.6-4.2-2.4-6.9-2.3 -2.8-0.1-5.2 0.8-7.1 2.6 -2.1 1.8-3 3.9-3 6.4 0 2.4 1 4.6 3 6.3 0.6 0.5 1.2 0.9 1.8 1.3 1.6 0.9 3.4 1.3 5.4 1.3 4.2-0.1 7.2 0.7 9.2 2.5 2 1.8 3 3.9 3 6.4 -0.1 2.4-1.1 4.6-3 6.3 -0.6 0.5-1.2 0.9-1.8 1.3 -1.7 0.9-3.4 1.3-5.4 1.3 -2.8 0-5.2-0.9-7.2-2.6 -0.6-0.5-1.1-1-1.5-1.6M49.2 77.8c3.6 2.9 7.8 4.4 12.6 4.4 5.6 0 10.5-2 14.4-6 4-4 6-8.8 6-14.4 0-5-1.6-9.4-4.7-13.1"/></svg>