<svg xmlns="http://www.w3.org/2000/svg" version="1.2" baseProfile="tiny" x="0" y="0" width="30" height="30" viewBox="0 0 85 85" xml:space="preserve"><path fill="none" stroke="#FFFFFF" stroke-width="5" stroke-linecap="round" stroke-miterlimit="10" d="M70.3 39.7c-1.6 0-3.2 0.3-4.6 0.9 -0.9-10.7-9.9-19.1-20.9-19.1l-3.4 0c-1.3 0-2.4 1.1-2.4 2.4v0.3c0 0 0 0.1 0 0.1 0 0.4 0 2.2 0 4.7v14.9c0 8.8 0 17.3 0 17.3s0 0.2 0 0.4c0 0.1 0.1 0.3 0.1 0.4 0 0 0 0 0 0 0 0.1 0.1 0.2 0.1 0.3 0.2 0.4 0.5 0.9 1.2 1.2 0.3 0.1 0.6 0.2 1 0.2 0 0 28.7 0 28.9 0 6.6 0 11.9-5.3 11.9-11.9C82.2 45.1 76.9 39.7 70.3 39.7z"/><line fill="none" stroke="#FFFFFF" stroke-width="5" stroke-linecap="round" stroke-miterlimit="10" x1="30" y1="23.3" x2="30" y2="63.3"/><line fill="none" stroke="#FFFFFF" stroke-width="5" stroke-linecap="round" stroke-miterlimit="10" x1="20.9" y1="39.1" x2="20.9" y2="63.3"/><line fill="none" stroke="#FFFFFF" stroke-width="5" stroke-linecap="round" stroke-miterlimit="10" x1="11.9" y1="35.8" x2="11.9" y2="61.9"/><line fill="none" stroke="#FFFFFF" stroke-width="5" stroke-linecap="round" stroke-miterlimit="10" x1="2.8" y1="46.4" x2="2.8" y2="57.9"/></svg>