<svg xmlns="http://www.w3.org/2000/svg" version="1.2" baseProfile="tiny" x="0" y="0" width="30" height="30" viewBox="0 0 85 85" xml:space="preserve"><circle fill="none" stroke="#FFFFFF" stroke-width="5" stroke-linecap="round" stroke-linejoin="round" stroke-miterlimit="10" cx="65.4" cy="27.2" r="16.8"/><circle fill="none" stroke="#FFFFFF" stroke-width="5" stroke-linecap="round" stroke-linejoin="round" stroke-miterlimit="10" cx="65.4" cy="27.2" r="6.5"/><path fill="none" stroke="#FFFFFF" stroke-width="5" stroke-linecap="round" stroke-linejoin="round" stroke-miterlimit="10" d="M32.1 46.2c-2.1 0-4.2 0.5-6 1.3l6.6 5.4c2.9 2.5 3.4 6.8 1 9.8s-6.8 3.4-9.8 1L18 58.9c-0.1 0.5-0.1 1-0.1 1.5 0 7.8 6.4 14.2 14.2 14.2s14.2-6.4 14.2-14.2S40 46.2 32.1 46.2zM26.1 47.6l-11.9-9.7c-3-2.4-7.4-2-9.8 1 -2.4 3-2 7.4 1 9.8L18 58.9"/><line fill="none" stroke="#FFFFFF" stroke-width="5" stroke-linecap="round" stroke-linejoin="round" stroke-miterlimit="10" x1="70.1" y1="43.7" x2="46" y2="64"/><line fill="none" stroke="#FFFFFF" stroke-width="5" stroke-linecap="round" stroke-linejoin="round" stroke-miterlimit="10" x1="28.5" y1="46.5" x2="49" y2="22.4"/></svg>