<svg xmlns="http://www.w3.org/2000/svg" version="1.2" baseProfile="tiny" x="0" y="0" width="30" height="30" viewBox="0 0 85 85" xml:space="preserve"><path fill="#FFFFFF" d="M56.2 11.5c4.3 0 7.9 1.6 10.9 4.6 0.2 0.2 0.4 0.4 0.7 0.7 0.8-0.1 1.7-0.3 2.5-0.4 2.4-0.7 4.8-1.4 7-2.1 -1.4 2.1-3.4 4.4-5.8 6.9 2.8-0.1 5.4-0.7 7.9-1.8 -2.1 3.1-4.5 5.4-7.2 6.9 0.1 1.2 0.1 2.4 0.1 3.7 0 12-4.3 22.3-12.8 30.8C51.6 68.6 42 72.9 30.8 73.5l-2.1 0.1c-8.3 0-15.7-2-22.3-6 0.2 0 0.3 0 0.5 0 6.9 0 13.1-2.2 18.6-6.6 -8-1.3-13.5-5.1-16.6-11.4 1.5 0.8 3 1.2 4.7 1.2 1.5 0 3-0.3 4.6-1 -7-2.7-11-7-12.2-13 -0.2-0.8-0.3-1.7-0.3-2.7 0.1 0.1 0.1 0.1 0.2 0.1 1.8 1.1 3.8 1.7 6 1.7 0.1 0 0.2 0 0.3 0 -6.2-6.5-7.6-13.5-4.2-21 8.7 10.5 19.4 15.8 32 15.8 0.2 0 0.4 0 0.6 0 -0.2-1.1-0.3-2.2-0.3-3.4 -0.1-4.4 1.5-8.1 4.6-11.1 3-3 6.6-4.6 10.9-4.6 0.1 0 0.1 0 0.2 0C56 11.5 56.1 11.5 56.2 11.5M79.4 19.3L79.4 19.3M56.2 6.5C56.2 6.5 56.2 6.5 56.2 6.5l-0.2 0 -0.2 0c-5.6 0-10.5 2-14.5 6.1 -3.6 3.6-5.6 7.9-6 12.8 -9.1-1.1-16.8-5.6-23.5-13.7 -1-1.2-2.4-1.8-3.8-1.8 -0.2 0-0.4 0-0.7 0 -1.7 0.2-3.2 1.3-3.9 2.9 -2.7 5.9-2.9 11.8-0.8 17.4 -1.3 1-2 2.6-1.9 4.2 0.1 1.2 0.2 2.3 0.4 3.3 0.6 3.3 2 6.2 3.9 8.7 -1.2 1.5-1.4 3.5-0.6 5.3 2.1 4.2 5 7.6 8.8 10 -2 0.5-4.1 0.8-6.4 0.8 -0.1 0-0.3 0-0.4 0 0 0-0.1 0-0.1 0 -2.2 0-4.2 1.5-4.8 3.6 -0.6 2.2 0.3 4.5 2.2 5.7 7.3 4.5 15.7 6.8 24.9 6.8 0 0 0.1 0 0.1 0l2.1-0.1c0 0 0.1 0 0.1 0C43.5 77.8 54.3 73 63 64.3c9.5-9.4 14.3-21 14.3-34.3 0-0.4 0-0.7 0-1.1 2.3-1.7 4.3-3.9 6.2-6.6 0.6-0.8 0.9-1.8 0.9-2.9 0-1.7-0.8-3.2-2.1-4.1 0.3-1.3 0-2.8-0.9-3.9 -1-1.3-2.5-2-4-2 -0.5 0-1 0.1-1.5 0.2 -1.7 0.5-3.4 1-5.1 1.5l-1.3 0.4C65.6 8.2 61.2 6.5 56.2 6.5L56.2 6.5z"/></svg>