<svg xmlns="http://www.w3.org/2000/svg" version="1.2" baseProfile="tiny" x="0" y="0" width="30" height="30" viewBox="-72.5 12.5 85 85" xml:space="preserve"><path fill="none" stroke="#FFFFFF" stroke-width="5" stroke-linecap="round" stroke-linejoin="round" stroke-miterlimit="10" d="M9 42.8C8.2 37.4 7.5 33.4 5.4 32c-2.2-1.8-20.9-2.2-35.4-2.2s-33.2 0.4-35.4 2.2c-2.2 1.4-2.9 5.4-3.6 10.8 -0.7 5.4-0.7 8.7-0.7 12.3 0 3.6 0 6.9 0.7 12.3 0.7 5.4 1.4 9.4 3.6 10.8 2.2 1.8 20.9 2.2 35.4 2.2s33.2-0.4 35.4-2.2c2.2-1.4 2.9-5.4 3.6-10.8 0.7-5.4 0.7-8.7 0.7-12.3C9.7 51.4 9.7 48.2 9 42.8zM-37.2 68v-26l21.6 13L-37.2 68z"/></svg>