<svg xmlns="http://www.w3.org/2000/svg" xmlns:xlink="http://www.w3.org/1999/xlink" version="1.2" baseProfile="tiny" x="0" y="0" viewBox="0 0 233.6 100" xml:space="preserve"><text transform="matrix(1 0 0 1 7.1079 13.5215)" opacity="0">x</text><a xlink:href="http://www.losttype.com/font/?name=deming" xlink:show="new"><path fill="#FFFFFF" d="M121.5 0.5c1.1 0 2.1 0.2 3.1 0.5s1.8 0.9 2.5 1.5c0.7 0.6 1.3 1.4 1.7 2.2 0.4 0.8 0.6 1.7 0.6 2.7s-0.2 1.9-0.6 2.7c-0.4 0.8-1 1.6-1.7 2.2 -0.7 0.6-1.5 1.1-2.5 1.5s-2 0.5-3.1 0.5h-12.5v-2h4V2.5h-4v-2H121.5zM121.3 12.3c0.8 0 1.6-0.1 2.3-0.4 0.7-0.3 1.3-0.6 1.9-1.1 0.5-0.4 1-1 1.3-1.6 0.3-0.6 0.5-1.2 0.5-1.9s-0.2-1.3-0.5-1.9c-0.3-0.6-0.7-1.1-1.3-1.6 -0.5-0.4-1.2-0.8-1.9-1.1 -0.7-0.3-1.5-0.4-2.3-0.4h-6.5v9.9H121.3zM147.6 2.5h-11.9v3.9h9.9v2h-9.9v3.9h11.9v-2h2v3.9h-19.8v-2h4V2.5h-4v-2h19.8v3.9h-2V2.5zM164.7 14.3h-0.3l-6.9-11.9v9.9h3v2h-8.9v-2h4V2.5h-4v-2h7.1l5.9 10.1 5.9-10.1h7.1v2h-3.9v9.9h3.9v2h-8.9v-2h3V2.4L164.7 14.3zM185.4 12.3h4v2h-9.9v-2h4V2.5h-4v-2h9.9v2h-4V12.3zM209.2 2.5h-4v-2h9.9v2h-4v11.9h-2L197.3 2.5v9.9h4v2h-9.9v-2h4V2.5h-4v-2h6.7l11.1 11.1V2.5zM217.5 7.4c0 0.7 0.2 1.4 0.5 2.1 0.4 0.7 0.9 1.3 1.5 1.8 0.6 0.5 1.4 0.9 2.3 1.2 0.9 0.3 1.8 0.5 2.8 0.5 0.6 0 1.3-0.1 1.8-0.2 0.6-0.1 1.1-0.3 1.7-0.5 0.5-0.2 1-0.5 1.4-0.8 0.4-0.3 0.8-0.6 1.1-1h-7.9v-2h9.9v5.9h-2v-1.2c-0.8 0.5-1.8 1-2.8 1.3 -1 0.3-2.1 0.5-3.2 0.5 -1.3 0-2.5-0.2-3.7-0.6 -1.1-0.4-2.1-0.9-3-1.6 -0.9-0.7-1.5-1.5-2-2.4 -0.5-0.9-0.7-1.9-0.7-2.9s0.2-2 0.7-2.9c0.5-0.9 1.2-1.7 2-2.4 0.8-0.7 1.8-1.2 3-1.6 1.1-0.4 2.4-0.6 3.7-0.6 1.1 0 2.2 0.2 3.2 0.5 1 0.3 1.9 0.7 2.8 1.2V0.5h2v3.9h-2c-0.3-0.4-0.7-0.7-1.1-1 -0.4-0.3-0.9-0.6-1.4-0.8 -0.5-0.2-1.1-0.4-1.7-0.5 -0.6-0.1-1.2-0.2-1.8-0.2 -1 0-2 0.2-2.8 0.5s-1.6 0.7-2.3 1.2c-0.6 0.5-1.2 1.1-1.5 1.7C217.7 6 217.5 6.7 217.5 7.4z"/></a><a xlink:href="http://www.linotype.com/2090/avenirnext.html" xlink:show="new"><path fill="#FFFFFF" d="M96.4 21h1.5l4.2 9.7h-2l-0.9-2.2H95l-0.9 2.2h-1.9L96.4 21zM98.6 27l-1.5-3.9L95.6 27H98.6zM101.9 24.1h1.8l1.7 4.8h0l1.7-4.8h1.7l-2.6 6.5h-1.7L101.9 24.1zM116.1 27.5c0 0.1 0 0.1 0 0.2s0 0.1 0 0.2h-5c0 0.2 0.1 0.5 0.2 0.6 0.1 0.2 0.2 0.4 0.4 0.5 0.2 0.1 0.4 0.3 0.6 0.3 0.2 0.1 0.4 0.1 0.7 0.1 0.4 0 0.8-0.1 1-0.2 0.3-0.2 0.5-0.4 0.7-0.6l1.1 0.9c-0.6 0.9-1.6 1.3-2.8 1.3 -0.5 0-1-0.1-1.4-0.2 -0.4-0.2-0.8-0.4-1.1-0.7 -0.3-0.3-0.6-0.6-0.7-1.1 -0.2-0.4-0.3-0.9-0.3-1.4 0-0.5 0.1-1 0.3-1.4 0.2-0.4 0.4-0.8 0.7-1.1 0.3-0.3 0.7-0.5 1.1-0.7 0.4-0.2 0.9-0.3 1.4-0.3 0.5 0 0.9 0.1 1.3 0.2 0.4 0.2 0.7 0.4 1 0.7 0.3 0.3 0.5 0.7 0.7 1.1C116 26.4 116.1 26.9 116.1 27.5zM114.5 26.8c0-0.2 0-0.4-0.1-0.6 -0.1-0.2-0.2-0.4-0.3-0.5 -0.1-0.1-0.3-0.3-0.5-0.3 -0.2-0.1-0.4-0.1-0.7-0.1 -0.5 0-0.9 0.1-1.2 0.4 -0.3 0.3-0.5 0.7-0.6 1.1H114.5zM117.7 24.1h1.6v1.1h0c0.1-0.3 0.4-0.6 0.8-0.9 0.4-0.2 0.8-0.4 1.3-0.4 0.4 0 0.8 0.1 1.1 0.2 0.3 0.2 0.6 0.3 0.7 0.6 0.2 0.2 0.3 0.5 0.4 0.8 0.1 0.3 0.1 0.6 0.1 1v4.1h-1.6v-3.6c0-0.2 0-0.4 0-0.6 0-0.2-0.1-0.4-0.2-0.6 -0.1-0.2-0.2-0.3-0.4-0.4 -0.2-0.1-0.4-0.2-0.6-0.2 -0.3 0-0.5 0.1-0.7 0.2 -0.2 0.1-0.3 0.2-0.5 0.4 -0.1 0.2-0.2 0.4-0.3 0.6s-0.1 0.4-0.1 0.6v3.6h-1.6V24.1zM125.4 21.9c0-0.3 0.1-0.5 0.3-0.7 0.2-0.2 0.4-0.3 0.7-0.3 0.3 0 0.6 0.1 0.8 0.3 0.2 0.2 0.3 0.4 0.3 0.7 0 0.3-0.1 0.5-0.3 0.7 -0.2 0.2-0.5 0.3-0.8 0.3 -0.3 0-0.5-0.1-0.7-0.3C125.5 22.4 125.4 22.2 125.4 21.9zM125.6 24.1h1.6v6.5h-1.6V24.1zM129.3 24.1h1.6v1.1h0c0.2-0.4 0.4-0.7 0.8-0.9 0.3-0.2 0.7-0.4 1.1-0.4 0.1 0 0.1 0 0.2 0 0.1 0 0.1 0 0.2 0v1.5c-0.1 0-0.2 0-0.3-0.1 -0.1 0-0.2 0-0.2 0 -0.4 0-0.7 0.1-0.9 0.2 -0.2 0.1-0.4 0.3-0.5 0.5 -0.1 0.2-0.2 0.4-0.3 0.6 0 0.2-0.1 0.4-0.1 0.5v3.5h-1.6V24.1zM137.7 21h2.3l4.5 7.2h0V21h1.7v9.7h-2.2l-4.6-7.5h0v7.5h-1.7V21zM154.5 27.5c0 0.1 0 0.1 0 0.2s0 0.1 0 0.2h-5c0 0.2 0.1 0.5 0.2 0.6 0.1 0.2 0.2 0.4 0.4 0.5 0.2 0.1 0.4 0.3 0.6 0.3 0.2 0.1 0.4 0.1 0.7 0.1 0.4 0 0.8-0.1 1-0.2 0.3-0.2 0.5-0.4 0.7-0.6l1.1 0.9c-0.6 0.9-1.6 1.3-2.8 1.3 -0.5 0-1-0.1-1.4-0.2 -0.4-0.2-0.8-0.4-1.1-0.7 -0.3-0.3-0.6-0.6-0.7-1.1 -0.2-0.4-0.3-0.9-0.3-1.4 0-0.5 0.1-1 0.3-1.4 0.2-0.4 0.4-0.8 0.7-1.1 0.3-0.3 0.7-0.5 1.1-0.7 0.4-0.2 0.9-0.3 1.4-0.3 0.5 0 0.9 0.1 1.3 0.2 0.4 0.2 0.7 0.4 1 0.7 0.3 0.3 0.5 0.7 0.7 1.1C154.5 26.4 154.5 26.9 154.5 27.5zM152.9 26.8c0-0.2 0-0.4-0.1-0.6 -0.1-0.2-0.2-0.4-0.3-0.5 -0.1-0.1-0.3-0.3-0.5-0.3 -0.2-0.1-0.4-0.1-0.7-0.1 -0.5 0-0.9 0.1-1.2 0.4 -0.3 0.3-0.5 0.7-0.6 1.1H152.9zM157.6 27.2l-2.4-3.1h2l1.4 2 1.5-2h1.9l-2.3 3.1 2.7 3.5h-2l-1.7-2.4 -1.7 2.4H155L157.6 27.2zM162.4 25.4v-1.3h1.1v-1.9h1.6v1.9h1.6v1.3h-1.6v3c0 0.3 0.1 0.5 0.2 0.7 0.1 0.2 0.3 0.3 0.7 0.3 0.1 0 0.2 0 0.4 0 0.1 0 0.2-0.1 0.3-0.1l0.1 1.3c-0.1 0.1-0.3 0.1-0.5 0.1 -0.2 0-0.4 0-0.6 0 -0.4 0-0.8-0.1-1.1-0.2 -0.3-0.1-0.5-0.3-0.6-0.5 -0.2-0.2-0.3-0.5-0.3-0.7 -0.1-0.3-0.1-0.6-0.1-0.9v-3.1H162.4zM171.4 21h3.4c0.6 0 1.3 0.1 1.9 0.2 0.6 0.2 1.2 0.4 1.7 0.8 0.5 0.4 0.9 0.9 1.2 1.5 0.3 0.6 0.5 1.4 0.5 2.3 0 0.8-0.2 1.6-0.5 2.2 -0.3 0.6-0.7 1.1-1.2 1.5 -0.5 0.4-1.1 0.7-1.7 0.9 -0.6 0.2-1.3 0.3-1.9 0.3h-3.4V21zM174.6 29.2c0.4 0 0.9-0.1 1.3-0.2 0.4-0.1 0.8-0.3 1.2-0.5 0.4-0.2 0.7-0.6 0.9-1 0.2-0.4 0.3-1 0.3-1.6 0-0.7-0.1-1.3-0.3-1.7 -0.2-0.4-0.5-0.8-0.9-1 -0.4-0.2-0.8-0.4-1.2-0.5 -0.4-0.1-0.9-0.1-1.3-0.1h-1.4v6.7H174.6zM188 27.5c0 0.1 0 0.1 0 0.2s0 0.1 0 0.2h-5c0 0.2 0.1 0.5 0.2 0.6 0.1 0.2 0.2 0.4 0.4 0.5 0.2 0.1 0.4 0.3 0.6 0.3 0.2 0.1 0.4 0.1 0.7 0.1 0.4 0 0.8-0.1 1-0.2s0.5-0.4 0.7-0.6l1.1 0.9c-0.6 0.9-1.6 1.3-2.8 1.3 -0.5 0-1-0.1-1.4-0.2 -0.4-0.2-0.8-0.4-1.1-0.7s-0.6-0.6-0.7-1.1c-0.2-0.4-0.3-0.9-0.3-1.4 0-0.5 0.1-1 0.3-1.4 0.2-0.4 0.4-0.8 0.7-1.1s0.7-0.5 1.1-0.7c0.4-0.2 0.9-0.3 1.4-0.3 0.5 0 0.9 0.1 1.3 0.2s0.7 0.4 1 0.7c0.3 0.3 0.5 0.7 0.7 1.1C187.9 26.4 188 26.9 188 27.5zM186.4 26.8c0-0.2 0-0.4-0.1-0.6 -0.1-0.2-0.2-0.4-0.3-0.5 -0.1-0.1-0.3-0.3-0.5-0.3 -0.2-0.1-0.4-0.1-0.7-0.1 -0.5 0-0.9 0.1-1.2 0.4 -0.3 0.3-0.5 0.7-0.6 1.1H186.4zM197.4 23.9c0.4 0 0.8 0.1 1.1 0.2 0.3 0.2 0.6 0.3 0.7 0.6s0.3 0.5 0.4 0.8 0.1 0.6 0.1 1v4.1h-1.6v-3.6c0-0.2 0-0.4 0-0.6 0-0.2-0.1-0.4-0.2-0.6 -0.1-0.2-0.2-0.3-0.4-0.4 -0.2-0.1-0.4-0.2-0.6-0.2 -0.3 0-0.5 0.1-0.7 0.2 -0.2 0.1-0.3 0.2-0.5 0.4 -0.1 0.2-0.2 0.4-0.3 0.6 -0.1 0.2-0.1 0.4-0.1 0.6v3.6h-1.6v-4c0-0.4-0.1-0.7-0.3-1 -0.2-0.3-0.5-0.4-0.9-0.4 -0.2 0-0.5 0.1-0.6 0.2 -0.2 0.1-0.3 0.2-0.4 0.4 -0.1 0.2-0.2 0.4-0.3 0.6 -0.1 0.2-0.1 0.4-0.1 0.6v3.6h-1.6v-6.5h1.6v1.1h0c0.1-0.2 0.2-0.3 0.3-0.5 0.1-0.1 0.3-0.3 0.4-0.4 0.2-0.1 0.4-0.2 0.6-0.3 0.2-0.1 0.5-0.1 0.7-0.1 0.5 0 0.9 0.1 1.3 0.3 0.3 0.2 0.6 0.5 0.8 0.9 0.2-0.4 0.5-0.7 0.9-0.9C196.5 24.1 196.9 23.9 197.4 23.9zM201.5 21.9c0-0.3 0.1-0.5 0.3-0.7 0.2-0.2 0.4-0.3 0.7-0.3 0.3 0 0.6 0.1 0.8 0.3 0.2 0.2 0.3 0.4 0.3 0.7 0 0.3-0.1 0.5-0.3 0.7 -0.2 0.2-0.5 0.3-0.8 0.3 -0.3 0-0.5-0.1-0.7-0.3C201.6 22.4 201.5 22.2 201.5 21.9zM201.8 24.1h1.6v6.5h-1.6V24.1zM207.1 20.4V25h0c0.1-0.1 0.2-0.2 0.3-0.3 0.1-0.1 0.3-0.2 0.5-0.3 0.2-0.1 0.4-0.2 0.6-0.3 0.2-0.1 0.5-0.1 0.8-0.1 0.5 0 0.9 0.1 1.3 0.3 0.4 0.2 0.7 0.4 1 0.7 0.3 0.3 0.5 0.7 0.7 1.1 0.2 0.4 0.2 0.9 0.2 1.4s-0.1 0.9-0.2 1.4c-0.1 0.4-0.4 0.8-0.6 1.1 -0.3 0.3-0.6 0.6-1 0.7 -0.4 0.2-0.8 0.3-1.3 0.3 -0.5 0-0.9-0.1-1.3-0.3 -0.4-0.2-0.7-0.5-0.9-0.9h0v1h-1.6V20.4H207.1zM210.8 27.4c0-0.3 0-0.5-0.1-0.8 -0.1-0.2-0.2-0.5-0.3-0.7 -0.2-0.2-0.3-0.4-0.6-0.5 -0.2-0.1-0.5-0.2-0.8-0.2 -0.3 0-0.6 0.1-0.8 0.2 -0.2 0.1-0.4 0.3-0.6 0.5 -0.2 0.2-0.3 0.4-0.4 0.7 -0.1 0.3-0.1 0.5-0.1 0.8 0 0.3 0 0.5 0.1 0.8 0.1 0.2 0.2 0.5 0.4 0.7s0.4 0.4 0.6 0.5c0.2 0.1 0.5 0.2 0.8 0.2 0.3 0 0.6-0.1 0.8-0.2 0.2-0.1 0.4-0.3 0.6-0.5 0.2-0.2 0.3-0.4 0.3-0.7C210.8 27.9 210.8 27.6 210.8 27.4zM213.7 27.4c0-0.5 0.1-1 0.3-1.4 0.2-0.4 0.4-0.8 0.8-1.1 0.3-0.3 0.7-0.5 1.1-0.7 0.4-0.2 0.9-0.2 1.4-0.2s1 0.1 1.4 0.2c0.4 0.2 0.8 0.4 1.1 0.7 0.3 0.3 0.6 0.7 0.8 1.1 0.2 0.4 0.3 0.9 0.3 1.4s-0.1 1-0.3 1.4c-0.2 0.4-0.4 0.8-0.8 1.1 -0.3 0.3-0.7 0.5-1.1 0.7s-0.9 0.3-1.4 0.3 -1-0.1-1.4-0.3 -0.8-0.4-1.1-0.7c-0.3-0.3-0.6-0.7-0.8-1.1C213.8 28.4 213.7 27.9 213.7 27.4zM215.3 27.4c0 0.3 0 0.5 0.1 0.8 0.1 0.3 0.2 0.5 0.3 0.7 0.2 0.2 0.4 0.4 0.6 0.5 0.2 0.1 0.5 0.2 0.8 0.2 0.3 0 0.6-0.1 0.8-0.2 0.2-0.1 0.4-0.3 0.6-0.5 0.2-0.2 0.3-0.4 0.3-0.7s0.1-0.5 0.1-0.8 0-0.5-0.1-0.8c-0.1-0.2-0.2-0.5-0.3-0.7 -0.2-0.2-0.4-0.4-0.6-0.5 -0.2-0.1-0.5-0.2-0.8-0.2 -0.3 0-0.6 0.1-0.8 0.2 -0.2 0.1-0.4 0.3-0.6 0.5 -0.2 0.2-0.3 0.4-0.3 0.7C215.4 26.9 215.3 27.1 215.3 27.4zM222.4 20.4h1.6v10.3h-1.6V20.4zM232.7 30.7h-1.6v-1h0c-0.2 0.4-0.5 0.7-0.9 0.9 -0.4 0.2-0.8 0.3-1.3 0.3 -0.5 0-0.9-0.1-1.3-0.3 -0.4-0.2-0.7-0.4-1-0.7 -0.3-0.3-0.5-0.7-0.6-1.1 -0.2-0.4-0.2-0.9-0.2-1.4s0.1-0.9 0.2-1.4c0.2-0.4 0.4-0.8 0.7-1.1 0.3-0.3 0.6-0.6 1-0.7 0.4-0.2 0.8-0.3 1.3-0.3 0.3 0 0.6 0 0.8 0.1 0.2 0.1 0.4 0.2 0.6 0.3 0.2 0.1 0.3 0.2 0.5 0.3s0.2 0.2 0.3 0.3h0v-4.6h1.6V30.7zM227.3 27.4c0 0.3 0 0.5 0.1 0.8 0.1 0.3 0.2 0.5 0.3 0.7 0.2 0.2 0.3 0.4 0.6 0.5 0.2 0.1 0.5 0.2 0.8 0.2 0.3 0 0.6-0.1 0.8-0.2 0.2-0.1 0.4-0.3 0.6-0.5s0.3-0.4 0.4-0.7c0.1-0.2 0.1-0.5 0.1-0.8 0-0.3 0-0.5-0.1-0.8 -0.1-0.3-0.2-0.5-0.4-0.7 -0.2-0.2-0.4-0.4-0.6-0.5 -0.2-0.1-0.5-0.2-0.8-0.2 -0.3 0-0.6 0.1-0.8 0.2 -0.2 0.1-0.4 0.3-0.6 0.5 -0.2 0.2-0.3 0.4-0.3 0.7C227.3 26.9 227.3 27.1 227.3 27.4zM129.8 44.5h-0.9l3.5-8.2h0.8l3.5 8.2h-0.9l-0.9-2.1h-4.2L129.8 44.5zM131 41.6h3.6l-1.8-4.3L131 41.6zM140 44.5h-0.9l-2.2-5.4h0.9l1.8 4.6h0l1.8-4.6h0.8L140 44.5zM148.3 41.7c0 0.1 0 0.1 0 0.2 0 0.1 0 0.1 0 0.2h-4.5c0 0.3 0.1 0.5 0.2 0.8 0.1 0.2 0.2 0.4 0.4 0.6 0.2 0.2 0.4 0.3 0.6 0.4 0.2 0.1 0.5 0.2 0.8 0.2 0.4 0 0.8-0.1 1.1-0.3 0.3-0.2 0.5-0.4 0.7-0.7l0.6 0.5c-0.3 0.4-0.7 0.7-1.1 0.9 -0.4 0.2-0.8 0.3-1.3 0.3 -0.4 0-0.8-0.1-1.1-0.2 -0.3-0.1-0.6-0.3-0.9-0.6 -0.2-0.3-0.4-0.6-0.6-0.9 -0.1-0.3-0.2-0.7-0.2-1.1s0.1-0.8 0.2-1.1c0.1-0.3 0.3-0.6 0.6-0.9 0.2-0.3 0.5-0.5 0.9-0.6 0.3-0.1 0.7-0.2 1.1-0.2 0.4 0 0.8 0.1 1.1 0.2 0.3 0.1 0.6 0.3 0.8 0.6 0.2 0.2 0.4 0.5 0.5 0.8C148.3 41 148.3 41.3 148.3 41.7zM147.5 41.4c0-0.5-0.2-0.9-0.5-1.3 -0.3-0.3-0.7-0.5-1.3-0.5 -0.3 0-0.5 0-0.7 0.1 -0.2 0.1-0.4 0.2-0.6 0.4 -0.2 0.2-0.3 0.4-0.4 0.6 -0.1 0.2-0.2 0.4-0.2 0.7H147.5zM150.7 39.1c0 0.1 0 0.3 0 0.5 0 0.2 0 0.3 0 0.4h0c0.2-0.3 0.4-0.6 0.7-0.8 0.3-0.2 0.7-0.3 1.1-0.3 0.7 0 1.2 0.2 1.5 0.6 0.3 0.4 0.5 0.9 0.5 1.6v3.3h-0.8v-3c0-0.3 0-0.5-0.1-0.8 0-0.2-0.1-0.4-0.2-0.6s-0.3-0.3-0.4-0.4c-0.2-0.1-0.4-0.1-0.7-0.1 -0.2 0-0.4 0-0.6 0.1 -0.2 0.1-0.4 0.2-0.5 0.4 -0.2 0.2-0.3 0.4-0.4 0.7 -0.1 0.3-0.1 0.6-0.1 0.9v2.8H150v-4.2c0-0.1 0-0.3 0-0.6 0-0.2 0-0.4 0-0.6H150.7zM157.7 37.1c0 0.2-0.1 0.3-0.2 0.4 -0.1 0.1-0.2 0.2-0.4 0.2 -0.1 0-0.3-0.1-0.4-0.2 -0.1-0.1-0.2-0.2-0.2-0.4 0-0.2 0.1-0.3 0.2-0.4 0.1-0.1 0.2-0.2 0.4-0.2 0.1 0 0.3 0.1 0.4 0.2C157.6 36.8 157.7 36.9 157.7 37.1zM157.5 44.5h-0.8v-5.4h0.8V44.5zM159.6 39.8c0-0.2 0-0.4 0-0.6h0.8c0 0.1 0 0.3 0 0.5 0 0.2 0 0.3 0 0.4h0c0.2-0.3 0.4-0.6 0.7-0.8 0.3-0.2 0.7-0.3 1-0.3 0.1 0 0.2 0 0.3 0 0.1 0 0.2 0 0.2 0l-0.1 0.8c0 0-0.1 0-0.2 0 -0.1 0-0.2 0-0.3 0 -0.2 0-0.4 0-0.6 0.1 -0.2 0.1-0.4 0.2-0.5 0.4 -0.1 0.2-0.3 0.4-0.3 0.6 -0.1 0.3-0.1 0.6-0.1 0.9v2.8h-0.8v-4.2C159.6 40.2 159.6 40 159.6 39.8zM172.5 43.3L172.5 43.3l0-7h0.8v8.2h-1l-4.8-7h0v7h-0.8v-8.2h1L172.5 43.3zM180.4 41.7c0 0.1 0 0.1 0 0.2 0 0.1 0 0.1 0 0.2h-4.5c0 0.3 0.1 0.5 0.2 0.8 0.1 0.2 0.2 0.4 0.4 0.6 0.2 0.2 0.4 0.3 0.6 0.4 0.2 0.1 0.5 0.2 0.8 0.2 0.4 0 0.8-0.1 1.1-0.3 0.3-0.2 0.5-0.4 0.7-0.7l0.6 0.5c-0.3 0.4-0.7 0.7-1.1 0.9 -0.4 0.2-0.8 0.3-1.3 0.3 -0.4 0-0.8-0.1-1.1-0.2s-0.6-0.3-0.9-0.6c-0.2-0.3-0.4-0.6-0.6-0.9 -0.1-0.3-0.2-0.7-0.2-1.1s0.1-0.8 0.2-1.1c0.1-0.3 0.3-0.6 0.6-0.9 0.2-0.3 0.5-0.5 0.9-0.6 0.3-0.1 0.7-0.2 1.1-0.2 0.4 0 0.8 0.1 1.1 0.2 0.3 0.1 0.6 0.3 0.8 0.6 0.2 0.2 0.4 0.5 0.5 0.8C180.3 41 180.4 41.3 180.4 41.7zM179.6 41.4c0-0.5-0.2-0.9-0.5-1.3 -0.3-0.3-0.7-0.5-1.3-0.5 -0.3 0-0.5 0-0.7 0.1 -0.2 0.1-0.4 0.2-0.6 0.4 -0.2 0.2-0.3 0.4-0.4 0.6 -0.1 0.2-0.2 0.4-0.2 0.7H179.6zM183.3 41.7l-2-2.6h1l1.5 2.1 1.5-2.1h0.9l-2 2.6 2.1 2.8h-1l-1.6-2.2 -1.6 2.2h-0.9L183.3 41.7zM190 39.8h-1.5v3.2c0 0.2 0 0.4 0.1 0.5 0 0.1 0.1 0.2 0.2 0.3 0.1 0.1 0.2 0.1 0.3 0.2 0.1 0 0.2 0 0.3 0 0.1 0 0.2 0 0.3 0 0.1 0 0.2-0.1 0.3-0.1l0 0.7c-0.1 0.1-0.3 0.1-0.4 0.1 -0.1 0-0.3 0-0.5 0 -0.1 0-0.3 0-0.5-0.1 -0.2 0-0.3-0.1-0.4-0.2s-0.3-0.3-0.3-0.4c-0.1-0.2-0.1-0.4-0.1-0.7v-3.4h-1.1v-0.7h1.1v-1.5h0.8v1.5h1.5V39.8zM195 44.5h-0.8v-8.2h2.4c0.4 0 0.8 0 1.1 0.1 0.3 0.1 0.6 0.2 0.9 0.4s0.4 0.4 0.6 0.7c0.1 0.3 0.2 0.6 0.2 1 0 0.3-0.1 0.6-0.2 0.8 -0.1 0.2-0.3 0.5-0.4 0.6 -0.2 0.2-0.4 0.3-0.7 0.4 -0.3 0.1-0.5 0.2-0.8 0.2l2.4 3.9h-1l-2.3-3.8H195V44.5zM195 40h1.4c0.7 0 1.2-0.1 1.5-0.4 0.4-0.2 0.5-0.6 0.5-1.1 0-0.3-0.1-0.5-0.2-0.7 -0.1-0.2-0.2-0.3-0.4-0.5 -0.2-0.1-0.4-0.2-0.6-0.3 -0.3-0.1-0.5-0.1-0.8-0.1H195V40zM205.8 41.7c0 0.1 0 0.1 0 0.2 0 0.1 0 0.1 0 0.2h-4.5c0 0.3 0.1 0.5 0.2 0.8 0.1 0.2 0.2 0.4 0.4 0.6 0.2 0.2 0.4 0.3 0.6 0.4 0.2 0.1 0.5 0.2 0.8 0.2 0.4 0 0.8-0.1 1.1-0.3 0.3-0.2 0.5-0.4 0.7-0.7l0.6 0.5c-0.3 0.4-0.7 0.7-1.1 0.9 -0.4 0.2-0.8 0.3-1.3 0.3 -0.4 0-0.8-0.1-1.1-0.2s-0.6-0.3-0.9-0.6c-0.2-0.3-0.4-0.6-0.6-0.9 -0.1-0.3-0.2-0.7-0.2-1.1s0.1-0.8 0.2-1.1c0.1-0.3 0.3-0.6 0.6-0.9 0.2-0.3 0.5-0.5 0.9-0.6 0.3-0.1 0.7-0.2 1.1-0.2 0.4 0 0.8 0.1 1.1 0.2 0.3 0.1 0.6 0.3 0.8 0.6 0.2 0.2 0.4 0.5 0.5 0.8C205.8 41 205.8 41.3 205.8 41.7zM205 41.4c0-0.5-0.2-0.9-0.5-1.3 -0.3-0.3-0.7-0.5-1.3-0.5 -0.3 0-0.5 0-0.7 0.1 -0.2 0.1-0.4 0.2-0.6 0.4 -0.2 0.2-0.3 0.4-0.4 0.6 -0.1 0.2-0.2 0.4-0.2 0.7H205zM207.8 45.6c0.2 0.3 0.5 0.5 0.9 0.7 0.4 0.2 0.8 0.3 1.2 0.3 0.4 0 0.7-0.1 1-0.2s0.5-0.3 0.7-0.5c0.2-0.2 0.3-0.4 0.4-0.7 0.1-0.3 0.1-0.5 0.1-0.8v-1h0c-0.2 0.3-0.5 0.6-0.9 0.8 -0.4 0.2-0.8 0.3-1.2 0.3 -0.4 0-0.8-0.1-1.1-0.2 -0.3-0.1-0.6-0.3-0.9-0.6 -0.2-0.2-0.4-0.5-0.6-0.9 -0.1-0.3-0.2-0.7-0.2-1.1 0-0.4 0.1-0.7 0.2-1.1 0.1-0.3 0.3-0.6 0.6-0.9 0.2-0.3 0.5-0.5 0.9-0.6 0.3-0.1 0.7-0.2 1.1-0.2 0.4 0 0.8 0.1 1.2 0.3 0.4 0.2 0.7 0.5 0.9 0.8h0v-0.9h0.8v5.4c0 0.3 0 0.6-0.1 0.9 -0.1 0.3-0.2 0.6-0.4 0.9 -0.2 0.3-0.5 0.5-0.9 0.7 -0.4 0.2-0.9 0.3-1.5 0.3 -0.5 0-1-0.1-1.4-0.3 -0.5-0.2-0.8-0.5-1.2-0.8L207.8 45.6zM207.9 41.8c0 0.3 0 0.6 0.1 0.8 0.1 0.3 0.2 0.5 0.4 0.7 0.2 0.2 0.4 0.3 0.6 0.5 0.3 0.1 0.5 0.2 0.9 0.2 0.3 0 0.6-0.1 0.8-0.2 0.3-0.1 0.5-0.2 0.7-0.4 0.2-0.2 0.3-0.4 0.4-0.7 0.1-0.3 0.2-0.5 0.2-0.9 0-0.3-0.1-0.6-0.2-0.8 -0.1-0.3-0.2-0.5-0.4-0.7 -0.2-0.2-0.4-0.3-0.7-0.5 -0.3-0.1-0.5-0.2-0.8-0.2 -0.3 0-0.6 0.1-0.9 0.2 -0.3 0.1-0.5 0.3-0.6 0.5s-0.3 0.4-0.4 0.7C208 41.2 207.9 41.5 207.9 41.8zM218.7 44.5c0-0.1 0-0.3 0-0.5 0-0.2 0-0.3 0-0.4h0c-0.2 0.3-0.4 0.6-0.7 0.8 -0.3 0.2-0.7 0.3-1.1 0.3 -0.7 0-1.2-0.2-1.5-0.6 -0.3-0.4-0.5-0.9-0.5-1.6v-3.3h0.8v3c0 0.3 0 0.5 0.1 0.8 0 0.2 0.1 0.4 0.2 0.6 0.1 0.2 0.3 0.3 0.4 0.4 0.2 0.1 0.4 0.1 0.7 0.1 0.2 0 0.4 0 0.6-0.1 0.2-0.1 0.4-0.2 0.5-0.4s0.3-0.4 0.4-0.7c0.1-0.3 0.1-0.6 0.1-0.9v-2.8h0.8v4.2c0 0.1 0 0.3 0 0.6 0 0.2 0 0.4 0 0.6H218.7zM222.3 44.5h-0.8v-8.7h0.8V44.5zM227.8 41c0-0.5-0.1-0.8-0.4-1 -0.2-0.2-0.6-0.3-1.1-0.3 -0.3 0-0.6 0.1-0.9 0.2 -0.3 0.1-0.5 0.3-0.7 0.5l-0.4-0.5c0.2-0.2 0.5-0.4 0.9-0.6 0.4-0.1 0.8-0.2 1.2-0.2 0.3 0 0.6 0 0.8 0.1 0.3 0.1 0.5 0.2 0.7 0.4 0.2 0.2 0.3 0.4 0.4 0.6 0.1 0.2 0.2 0.5 0.2 0.9v2.4c0 0.2 0 0.4 0 0.6 0 0.2 0 0.4 0.1 0.6h-0.7c0-0.1 0-0.3-0.1-0.4 0-0.2 0-0.3 0-0.4h0c-0.2 0.4-0.5 0.6-0.8 0.8 -0.3 0.2-0.7 0.2-1.1 0.2 -0.2 0-0.4 0-0.6-0.1 -0.2-0.1-0.4-0.2-0.6-0.3 -0.2-0.1-0.3-0.3-0.5-0.5 -0.1-0.2-0.2-0.5-0.2-0.8 0-0.4 0.1-0.7 0.3-1 0.2-0.2 0.5-0.4 0.8-0.5 0.4-0.1 0.8-0.2 1.2-0.2 0.5 0 0.9-0.1 1.4-0.1V41zM227.6 41.8c-0.3 0-0.6 0-1 0 -0.3 0-0.6 0.1-0.9 0.2 -0.3 0.1-0.5 0.2-0.7 0.4 -0.2 0.2-0.3 0.4-0.3 0.6 0 0.2 0 0.4 0.1 0.5 0.1 0.1 0.2 0.2 0.3 0.3 0.1 0.1 0.3 0.1 0.4 0.2 0.2 0 0.3 0.1 0.5 0.1 0.3 0 0.5 0 0.7-0.1s0.4-0.2 0.5-0.4c0.1-0.2 0.3-0.4 0.3-0.6 0.1-0.2 0.1-0.4 0.1-0.7v-0.4H227.6zM230.6 39.8c0-0.2 0-0.4 0-0.6h0.7c0 0.1 0 0.3 0 0.5 0 0.2 0 0.3 0 0.4h0c0.2-0.3 0.4-0.6 0.7-0.8 0.3-0.2 0.7-0.3 1-0.3 0.1 0 0.2 0 0.3 0 0.1 0 0.2 0 0.2 0l-0.1 0.8c0 0-0.1 0-0.2 0 -0.1 0-0.2 0-0.3 0 -0.2 0-0.4 0-0.6 0.1 -0.2 0.1-0.4 0.2-0.5 0.4 -0.1 0.2-0.3 0.4-0.3 0.6 -0.1 0.3-0.1 0.6-0.1 0.9v2.8h-0.8v-4.2C230.6 40.2 230.6 40 230.6 39.8z"/></a><a xlink:href="http://goo.gl/CL6J5Z" xlink:show="new"><path fill="#FFFFFF" d="M130.8 59.4c-0.7-1.5-1.1-2.9-1.1-4.4 0-0.3 0-0.5 0.2-0.5 0.2 0 0.4 0 0.6-0.1 0 0 0 0 0 0 0.6-1.2 1.1-2 1.6-2.5 0.4-0.6 0.7-0.9 0.8-1.1 0-0.2 0.2-0.3 0.5-0.2s0.7 0.3 1.1 0.5c0.4 0.2 0.6 0.3 0.3 0.5 -0.6 0.4-1.3 1-2.1 1.9 -0.3 0.3-0.5 0.5-0.7 0.7 0.3 0 0.6-0.1 0.9-0.2 1.4-0.4 2.3-0.6 2.7-0.5 1.2 0.2 1.9 0.6 2.3 1.1 0.1 0.2 0 0.4-0.4 0.7 -0.4 0.3-0.9 1.6-1.6 3.9 0 0.2-0.1 0.3-0.2 0.4 -0.1 0-0.4 0-0.8-0.1 -0.3 0-0.9 0.1-1.8 0.2v0c-0.3 1.3-0.9 2.6-1.7 3.6 -0.4 0.5-0.6 0.9-0.6 1.4 0 0.2-0.2 0.4-0.7 0.6 -0.2 0.1-0.3 0.1-0.5 0.2 0 0.1 0 0.1 0.1 0.2 0 0.2 0 0.4 0 0.6 -0.1 0.2-0.2 0.5-0.2 0.8 -0.1 0.3-0.3 0.3-0.7 0 -0.5-0.8-1.1-1.4-1.9-1.9 -0.6 0.3-0.9 0.6-0.9 0.8 0 0.3-0.1 0.5-0.4 0.6 -0.4 0.1-0.8 0.3-1.4 0.4 -0.6 0.1-1.1 0.2-1.6 0 -0.4 0-0.5-0.2-0.2-0.3 0.7-0.4 1.5-0.8 2.4-1.3 0.4-0.2 0.8-0.5 1.2-0.9 -0.6-0.3-1-0.5-1.4-0.6 -0.6-0.2-0.7-0.3-0.6-0.4 0.2-0.2 0.5-0.5 0.8-1 -1.8 0.6-2.8 1-2.9 1.1 -0.4 0.3-0.7 0.2-1.1-0.4 -0.4-0.6-0.3-0.9 0.3-0.9 0.2 0 1.7-0.5 4.4-1.2l0 0c0.2-0.4 0.2-0.6 0.3-0.7 0.1-0.1 0.4 0 1 0.3 0 0 0 0 0 0 0.1 0 0.3-0.1 0.4-0.1 0.3-0.2 0.6-0.3 0.9-0.3 0 0 0-0.1 0.1-0.2 0-0.5 0.2-0.7 0.4-0.5 0.3 0.2 0.5 0.3 0.8 0.4 0.3 0.1 0.2 0.4-0.1 0.7 -0.2 0.2-0.5 0.9-0.9 2 -0.2 0.5-0.4 0.9-0.6 1.3 0.1 0 0.2 0.1 0.4 0.1 0.4 0.2 0.6 0.3 0.9 0.4 0.5-0.5 1.1-1.2 1.8-2 0.4-0.6 0.8-1.5 1.1-2.5 -0.1 0-0.1 0-0.2 0 -0.4 0-0.6 0.1-0.7 0.2C131.1 59.9 131 59.8 130.8 59.4zM122.2 56.1c0.2 0 1.6-0.4 4.3-1.2 0 0 0-0.1 0-0.1 0-0.2 0-0.4 0-0.7 0-0.2 0-0.4 0-0.4 -0.2-0.4 0.1-0.5 0.8-0.4 0.6 0.2 0.9 0.4 0.7 0.7 0 0.1-0.1 0.2-0.1 0.5 0.2-0.1 0.4-0.1 0.6-0.2 0.7-0.3 1-0.3 1.1-0.2 0 0.2 0 0.4 0.1 0.7 0 0.3-0.1 0.5-0.5 0.6 -0.4 0.2-0.9 0.4-1.4 0.6 0 0.1 0 0.1 0 0.2 0 0 0.1 0.1 0.1 0.1 0.3 0.3 0.7 0.6 1.4 0.9 0.2 0.1 0.3 0.4 0.2 0.8 -0.1 0.4-0.3 0.6-0.6 0.4 -0.6-0.3-1-0.5-1.2-0.5 -0.1 0.8-0.1 1.2-0.1 1.2 0.1 0.4-0.1 0.5-0.7 0.5 -0.6 0-0.7-0.1-0.4-0.4 0 0 0-0.4 0-1 -0.3 0.2-0.7 0.4-1 0.7 -0.6 0.6-1.5 1-2.4 1.3 -0.2 0-0.4 0-0.5 0 -0.2 0-0.1-0.2 0.2-0.4 1-0.7 1.9-1.5 2.7-2.4 0.3-0.3 0.5-0.6 0.7-0.9 -0.2 0.1-0.4 0.1-0.6 0.2 -1.4 0.3-2.2 0.7-2.5 1 -0.1 0.2-0.4 0-0.7-0.7C122.1 56.4 122.1 56 122.2 56.1zM129.8 51.5c0.1 0.2-0.3 0.4-1.2 0.6 -0.8 0.1-1.3 0.3-1.3 0.6 0 0.3-0.4 0.6-1.5 0.9 -1 0.3-1.7 0.5-2.1 0.5 -0.4 0-0.4-0.1-0.1-0.3 1.1-0.9 2.5-1.9 4.3-2.8 0.4-0.2 0.7-0.4 0.9-0.5s0.3-0.1 0.5 0.3C129.5 51.1 129.6 51.3 129.8 51.5zM126.8 63.3c0.4-0.6 0.7-1.2 1-2 -0.4 0.1-0.7 0.2-1 0.3 0 0.1-0.1 0.2-0.1 0.2 -0.3 0.4-0.6 0.7-1 1C125.6 62.9 125.9 63 126.8 63.3zM131.1 55.4c-0.2 0.3-0.3 0.8-0.1 1.7 0.1 0.9 0.3 1.4 0.5 1.6 0 0 0.3 0 0.8-0.1 0-0.1 0-0.3 0.1-0.4 0-0.3 0.1-0.6 0.1-0.9 -0.2 0-0.4 0.1-0.6 0.1 -0.2 0.1-0.4 0-0.4-0.5 -0.1-0.4 0-0.6 0.3-0.7 0.3-0.1 0.6-0.1 0.9-0.2 0-0.4 0.1-0.8 0.1-1.1C131.9 55 131.4 55.1 131.1 55.4zM137.2 67.4c-1.3 0-2.2 0-2.9-0.1 -0.3-0.1-0.5-0.1-0.7-0.1 -0.2 0-0.5-0.6-1-1.8 -0.3-0.7-0.2-1.6 0.1-2.8 0.3-1.2 0.5-2 0.4-2.3 0-0.3 0.3-0.3 0.8-0.2 0.5 0.2 0.6 0.4 0.3 0.7 -0.4 0.7-0.7 1.6-0.9 2.5 -0.1 0.9-0.1 1.5 0.2 1.9 0.4 0.5 1.3 0.7 2.5 0.7 1.2 0 2-0.2 2.5-0.6 0.4-0.6 0.6-2.1 0.6-4.5 0-0.4 0.1-0.5 0.3-0.1 0.6 2.1 0.9 3.9 0.9 5.3 0 0.7 0.1 1.1 0 1.2 0 0.1-0.2 0.1-0.5 0.1C139.4 67.3 138.5 67.4 137.2 67.4zM134.7 57.7c0.2-0.3 0.4-0.9 0.6-1.7 0.2-0.9 0.2-1.3 0.1-1.5 -0.3-0.2-0.6-0.2-1.1-0.1 -0.2 0-0.3 0.1-0.5 0.1 0.1 0.1 0.1 0.2 0.1 0.2 -0.1 0.1-0.2 0.5-0.3 1 0.2 0 0.4 0 0.5-0.1 0.3 0 0.5 0.1 0.5 0.6 0 0.4-0.1 0.7-0.3 0.6 -0.3 0-0.6 0.1-0.9 0.1 0 0.4-0.1 0.8-0.2 1.2C134.2 58 134.7 57.8 134.7 57.7zM134.6 62.4c0.8-1.4 1.2-2.2 1.2-2.3 0-0.3 0.2-0.4 0.7-0.3 0.4 0.1 0.5 0.3 0.3 0.6 -0.1 0.1-0.5 0.8-1.2 2.2 0.2 0 0.4-0.1 0.6-0.2 0.3-0.1 0.5-0.2 0.7-0.3 -0.1-0.2-0.1-0.3-0.1-0.4 -0.1-0.2 0-0.2 0.2-0.1 0.6 0.4 1.1 0.9 1.5 1.3 0 0.1 0 0.3-0.3 0.7 -0.3 0.4-0.4 0.6-0.6 0.6 -0.2 0-0.2-0.1-0.2-0.2 0-0.1 0-0.3-0.1-0.6 0 0 0-0.1 0-0.2 -0.2 0-0.4 0.1-0.6 0.1 -1.1 0.4-1.7 0.7-1.8 0.7 -0.2 0.2-0.5 0.1-0.7-0.3 -0.3-0.4-0.3-0.6 0-0.6C134.1 62.9 134.3 62.6 134.6 62.4zM144.7 53.9c0.2 0.1 1.8-0.2 5-0.8 0.8-0.2 1.2-0.2 1.2 0 0 0.2 0 0.4 0 0.7s-0.2 0.5-0.6 0.6c-0.4 0.1-0.7 0.2-1.1 0.3 -0.5 0.4-1 1-1.4 1.6 -0.3 0.5-0.7 1.1-1.2 1.9 0.2 0 0.5-0.1 0.8-0.2 0.7-0.2 1.2-0.2 1.4-0.2 1 0.1 1.7 0.4 2 0.9 0 0.1 0 0.3-0.2 0.5 -0.2 0.2-0.5 1.2-0.9 3 0 0.2-0.1 0.4-0.1 0.4 -0.1 0-0.4 0.1-0.9 0 -0.2 0-0.6 0-1.2 0.1 -0.4 0-0.6 0.1-0.7 0.2 -0.1 0.1-0.3 0-0.4-0.5 -0.5-0.8-0.8-1.6-0.9-2.4 -0.5 0.6-0.9 1.1-1.3 1.3 -1.2 0.4-1.7 0.4-1.4 0.1 0.3-0.3 0.7-0.9 1.5-1.7 1.2-1.7 1.9-2.8 2.1-3.4 0.1-0.4 0.2-0.7 0.2-1.1 -0.6 0.1-1.1 0.3-1.2 0.5 -0.2 0.2-0.4 0-0.6-0.8C144.5 54.2 144.5 53.9 144.7 53.9zM148.7 61.1c0.1-0.2 0.1-0.6 0.2-1.1 0-0.5 0-0.8-0.1-0.9 -0.1-0.1-0.3-0.1-0.5 0 -0.2 0-0.4 0.1-0.6 0.1 -0.4 0.1-0.6 0.1-0.7 0.2 -0.2 0.2-0.2 0.6-0.1 1.1 0.1 0.6 0.2 1 0.3 1.1 0 0 0.3 0 0.7-0.2C148.4 61.3 148.7 61.2 148.7 61.1zM160.7 53.1c-0.2 0.3-0.7 1.7-1.5 4.1 -0.2 0.5-0.4 0.7-0.6 0.6 -0.8-0.2-1.8-0.1-3 0.1 -0.3 0.7-0.7 1.3-1.2 1.7 -0.6 0.5-0.7 0.9-0.6 1.2 0.8-0.2 1.6-0.3 2.5-0.4 0-0.7-0.1-1.3-0.1-1.7 -0.1-0.3 0-0.5 0.2-0.5 0.6 0 1 0.1 1.4 0.4 0.2 0.1 0.3 0.3 0.2 0.5 -0.1 0.2-0.2 0.5-0.2 1.2 0.6-0.1 1.3-0.1 1.9-0.2 0.9 0 1.5-0.1 1.7-0.2 0.1 0 0.2 0.1 0.4 0.3 0.1 0.3 0.2 0.4 0.4 0.6 0.2 0.1 0.2 0.4 0.2 0.9 0 0.5-0.2 0.7-0.5 0.5 -1.2-0.3-2.6-0.5-4.1-0.4 -0.1 1.1-0.1 2.1-0.1 3.1 0 1.3 0 2.5 0 3.6 0.1 0.7-0.2 1-0.9 0.6 -0.8-0.3-1.1-0.5-0.7-0.7 0.2-0.1 0.4-0.5 0.5-1.1 0-1 0-2.4 0-4.3 0-0.4 0-0.7 0-1 -2.2 0.2-3.9 0.5-5.1 0.9 -0.2 0.1-0.5-0.1-0.8-0.7 -0.4-0.6-0.2-0.7 0.6-0.6 0.3-0.1 0.6-0.1 0.9-0.2 0.1-0.1 0.3-0.2 0.5-0.4 0.4-0.4 0.9-0.9 1.4-1.6 0.2-0.3 0.4-0.7 0.6-1.1 -0.2 0.1-0.5 0.1-0.7 0.2 -0.2 0.1-0.3 0.1-0.4 0 -0.1-0.1-0.2-0.3-0.3-0.6 -0.4-1-0.7-2.3-1.1-3.9 -0.4-0.5-0.4-0.8 0-0.9 0.2-0.1 0.6-0.2 0.9-0.3 1-1.1 1.9-2.4 2.8-3.9 0-0.3 0.2-0.3 0.5 0 0.2 0.3 0.5 0.5 0.7 0.6 0.2 0.2 0.3 0.3 0.1 0.4 -0.2 0.1-0.5 0.4-0.8 0.7 -0.4 0.4-0.8 0.9-1.2 1.3 -0.2 0.2-0.4 0.4-0.5 0.6 0.6-0.1 1.2-0.2 1.9-0.3 1.4-0.3 2.4-0.3 3 0 0.3 0.1 0.7 0.2 1.1 0.4C160.8 52.7 160.9 52.9 160.7 53.1zM154 54.7c0.4-0.1 0.8-0.2 1.2-0.2 0-0.5 0-0.8 0-1.2 -0.1-0.1-0.1-0.2-0.1-0.3 -0.9 0.2-1.4 0.5-1.6 0.8 -0.1 0.3-0.1 1 0.1 2.1s0.3 1.4 0.4 1.2c0.3 0 0.6-0.1 0.9-0.2 0-0.1 0-0.2 0.1-0.2 0.1-0.4 0.2-0.8 0.2-1.1 -0.4 0.1-0.7 0.1-1 0.2 -0.2 0.1-0.3 0-0.4-0.4C153.7 54.9 153.8 54.8 154 54.7zM156.6 53c-0.1 0.3-0.1 0.8-0.1 1.4 0.4 0 0.7-0.1 1-0.1 0.3 0 0.4 0.1 0.4 0.5 0 0.4-0.1 0.6-0.2 0.6 -0.4 0-0.8 0.1-1.2 0.1 0 0.4-0.2 0.9-0.3 1.3 0.5 0 1-0.1 1.5-0.2 0.4 0 0.6-0.6 0.8-1.6 0.2-1 0.2-1.6-0.1-1.8 -0.3-0.3-0.9-0.4-1.7-0.3C156.6 52.9 156.6 52.9 156.6 53zM168.9 53.5c0.6-0.8 1.2-1.8 1.8-3.1 0.1-0.2 0.2-0.4 0.3-0.6 0.1-0.2 0.5-0.1 1.1 0.2 0.6 0.4 0.7 0.6 0.4 0.7 -0.4 0.3-0.7 0.7-1.2 1.3 -0.2 0.2-0.3 0.4-0.4 0.6 0.3 0 0.7 0 1.1-0.2 0.6-0.2 1.3-0.3 2.2-0.5 0.2 0 0.3 0.2 0.3 0.5 0 0.4 0 0.6-0.2 0.6 -0.6 0.3-1.2 0.5-2 0.7 0.1 0.2 0.4 0.5 0.8 0.8 0.4 0.2 0.5 0.5 0.4 0.7 -0.2 0.3-0.3 0.4-0.5 0.3 -0.5-0.1-0.9-0.2-1.2-0.1 -0.2 0-0.4-0.3-0.6-1 -0.1-0.2-0.1-0.4-0.1-0.6 -0.3 0-0.6-0.2-0.9-0.7 -0.2 0.2-0.3 0.5-0.3 0.8 0 0.3-0.3 0.6-0.7 0.8 -0.4 0.2-0.9 0.5-1.5 0.7 -0.6 0.2-0.7 0-0.3-0.4C167.9 54.8 168.3 54.2 168.9 53.5zM168.2 66.1c-0.1-4.8 0-7.2 0.4-7.4 0.2 0 0.5 0.1 1.1 0.4 0.5 0.3 0.7 0.5 0.5 0.6 -0.5 0.3-0.7 1.3-0.8 3.2 -0.1 1.9-0.1 3 0 3.4 0 0.3-0.1 0.5-0.5 0.5C168.4 66.6 168.2 66.5 168.2 66.1zM170.4 58.1c-0.3-0.6-0.4-1.1-0.3-1.5 0.2-0.7 0.5-0.9 0.9-0.7 0.1 0.1 0.2 0.2 0.4 0.5 0.1 0.2 0.3 0.5 0.6 0.6s0.4 0.4 0.6 0.5c0.1 0.1 0.1 0.2-0.1 0.4 -0.1 0.2-0.4 0.3-0.7 0.3 -0.4 0-0.7 0-0.9 0C170.6 58.3 170.5 58.2 170.4 58.1zM172 64.6c-0.2-1.6-0.2-3.2 0-4.8 0-0.3 0.2-0.5 0.5-0.5 0.6-0.1 1.1-0.2 1.5-0.3 0.9-0.3 1.5-0.4 2.1-0.3 0.9 0.1 1.4 0.3 1.3 0.6 -0.2 0.6-0.3 1.7-0.3 3.3 0 1.6 0 2.5 0 2.7 0 0.6-0.5 0.5-1.4-0.2 -0.6-0.5-1-0.8-1.1-0.7 -0.4 0-0.9 0.1-1.4 0.4 -0.3 0.1-0.5 0.2-0.7 0.4C172.2 65.2 172 65.1 172 64.6zM173.1 61.3c0.4 0 0.8-0.1 1.2-0.2 0.1 0 0.2 0.1 0.3 0.4 0 0.3 0 0.5-0.1 0.5 -0.4 0.1-0.7 0.2-1.1 0.3 -0.2 0-0.3 0.1-0.4 0.1 0 0.5 0.1 0.8 0.2 1 0.1 0.1 0.7 0 1.7-0.3 0.2-0.1 0.3 0 0.3 0.3 -0.1 0.3 0 0.5 0.2 0.5 0.1 0 0.2 0 0.2-0.1 0.1-0.1 0.1-0.8 0.1-2 0-1.2-0.2-1.9-0.4-2.1 -0.2-0.2-0.7-0.2-1.3 0.1 -0.5 0.1-0.7 0.3-0.9 0.4 -0.1 0.1-0.2 0.4-0.2 1.1C172.9 61.3 173 61.3 173.1 61.3zM180 66.4c0-3.1-0.1-5.9-0.3-8.4 -0.2-0.6-0.4-1-0.7-1.2 -0.6-0.3-1.3-0.4-2.1-0.1 -0.9 0.2-1.4 0.5-1.7 0.7 -0.6 0.6-1 0.7-1.1 0.5 -0.1-0.3-0.3-0.5-0.6-0.9 -0.3-0.3 0.1-0.6 1.2-0.9 3-0.6 4.9-0.8 5.8-0.5 0.5 0.2 0.8 0.3 1.1 0.4 0.3 0.1 0.2 0.4 0 0.7 -0.3 0.2-0.4 1.2-0.3 3 0 1.8 0 3.4 0 5 0 1.6 0 2.6 0 3.1 0 0.3 0 0.6 0.1 0.9 0 0.3-0.3 0.3-0.8-0.1 -0.2-0.1-0.7-0.3-1.7-0.7 -0.9-0.3-2-0.9-3.1-1.8 -0.3-0.2-0.2-0.3 0.2-0.2 0.7 0.5 1.8 0.8 3.4 0.9C179.7 66.9 179.9 66.8 180 66.4zM174.8 53.7c0.7-1.2 1.5-2.6 2.4-4.3 0.1-0.2 0.3-0.3 0.6-0.1 0.3 0.2 0.6 0.4 0.8 0.6 0.2 0.2 0.2 0.4-0.1 0.5 -0.4 0.4-0.8 0.9-1.2 1.5 0 0 0 0.1 0 0.1 0.4-0.1 0.9-0.2 1.6-0.4 0.9-0.3 1.6-0.5 1.9-0.7 0.1-0.1 0.2 0 0.4 0.3 0.1 0.3 0.3 0.5 0.5 0.8 0.2 0.2 0.2 0.5 0 0.7 0 0-0.2 0-0.6 0 -0.4 0-1 0-2 0.2 -0.3 0-0.5 0.1-0.7 0.1 0.2 0.3 0.5 0.6 1 0.9 0.4 0.2 0.5 0.5 0.4 0.7 -0.2 0.2-0.3 0.4-0.4 0.3 -0.6-0.2-1.1-0.3-1.4-0.3 -0.3 0-0.4-0.3-0.6-0.9 0-0.1 0-0.2 0-0.2 -0.2 0.1-0.4 0-0.6-0.6 0 0-0.1-0.1 0-0.1 -0.2 0.2-0.4 0.4-0.5 0.5 -0.4 0.4-0.7 0.6-0.9 0.7C174.5 54.5 174.4 54.3 174.8 53.7zM195.9 57.4c0-2.7 0-4.9 0.1-6.8 0-0.3 0-0.6 0-0.7 -0.1-0.1 0-0.2 0.4-0.1 0.4 0.1 0.8 0.2 1.1 0.3 0.3 0 0.4 0.2 0.2 0.4 -0.2 0.2-0.3 0.5-0.3 0.9 -0.1 1.2-0.2 2.5-0.2 3.9 0.5-0.8 1.1-1.7 1.6-2.7 0-0.2 0.2-0.2 0.4-0.1 0.2 0.2 0.4 0.3 0.6 0.4 0.1 0.1 0.1 0.2-0.1 0.4 -0.4 0.4-0.7 0.9-1.1 1.5 -0.4 0.6-0.8 1.1-1.2 1.4 -0.1 0.1-0.2 0.2-0.3 0.2 0 0.2 0 0.4 0 0.6 0.2-0.1 0.5-0.2 0.8-0.2 0.6-0.3 1-0.4 1-0.2 0 0.2 0 0.4 0.1 0.7 0 0.3-0.1 0.5-0.4 0.6 -0.5 0.3-1 0.5-1.5 0.7 0 0.2 0 0.5 0 0.8 0.3 0.3 0.7 0.6 1.3 0.9 0.2 0.1 0.3 0.4 0.2 0.8 -0.1 0.4-0.4 0.6-0.7 0.4 -0.4-0.2-0.7-0.4-0.9-0.4 0 1.9 0 3.9 0 6 0.1 1 0 1.5-0.2 1.5 -0.6-0.2-1.1-0.4-1.4-0.6 -0.3-0.2-0.3-0.3 0-0.5 0.3-0.2 0.4-0.4 0.4-0.6 0-1.8-0.1-3.5-0.1-5.1 -0.3 0.3-0.7 0.7-1.1 1.2 -0.7 0.9-1.6 1.7-2.8 2.3 -0.2 0.1-0.4 0.1-0.7 0.1 -0.3 0-0.2-0.2 0.2-0.6 1.1-1.1 2.1-2.3 3-3.5 0.7-1 1.1-1.8 1.2-2.3 -0.2 0.1-0.5 0.2-0.7 0.2 -1.5 0.4-2.3 0.8-2.6 1.2 -0.1 0.2-0.4 0-0.7-0.7 -0.4-0.7-0.4-1-0.2-1C191.7 58.7 193.2 58.3 195.9 57.4zM192.4 55.4c0.3 0 0.4 0 0.5 0 0.7-0.4 1.5-0.9 2.4-1.3 0.1-0.1 0.2-0.1 0.3 0 0 0.1 0 0.2-0.1 0.4 -0.4 0.5-0.7 1.1-1.1 1.9 -0.1 0.1-0.2 0.3-0.2 0.4 0 0.2-0.2 0.2-0.4 0.2 -0.2-0.1-0.6-0.4-1.1-0.8C192.2 55.6 192.1 55.4 192.4 55.4zM200.4 61.6c0.1-3.6 0.2-6 0.2-7.1 0.1-0.2 0.3-0.3 0.5-0.3 0.4-0.1 0.8-0.2 1.2-0.3 0.4-0.1 1-0.3 1.8-0.4 0.7-0.2 1.5-0.1 2.3 0.1 0.5 0 0.7 0.2 0.6 0.7 -0.3 0.6-0.4 1.8-0.3 3.5 0.1 1.6 0.2 3.4 0.2 5.3 0.2 0 0.4 0 0.5 0 0.9 0 1.5-0.1 1.7-0.2 0.1 0 0.2 0.1 0.4 0.3 0.1 0.3 0.2 0.5 0.4 0.6 0.2 0.1 0.2 0.4 0.2 0.9 0 0.5-0.2 0.7-0.5 0.5 -1.5-0.4-3.3-0.5-5.4-0.4 -2.4 0.2-4.3 0.5-5.6 0.9 -0.2 0.1-0.5-0.1-0.8-0.7 -0.3-0.6-0.2-0.8 0.6-0.6 0.6-0.2 1.3-0.3 2.1-0.4 0 0 0 0 0-0.1C200.4 63.4 200.4 62.7 200.4 61.6zM201.6 63.8c0.8-0.1 1.7-0.3 2.7-0.4 0.1 0 0.2 0 0.3 0 0-0.1 0.1-0.2 0.3-0.3 0.2-0.4 0.2-1.4 0.2-2.9 0-1.5-0.1-2.8-0.1-3.9 -0.1-1-0.2-1.6-0.4-1.8 -0.1-0.2-0.5-0.2-1.1 0 -0.6 0.2-1 0.4-1.1 0.8 -0.2 0.2-0.4 0.7-0.5 1.5 0.2 0.2 0.4 0.2 0.7 0.1 0.4-0.1 0.7-0.2 1.1-0.3 0.2 0 0.3 0.1 0.4 0.5 0 0.4 0 0.6-0.1 0.6 -0.4 0.1-0.7 0.2-1 0.4 -0.5 0.2-0.9 0.5-1.1 0.9 0 0.4-0.1 0.7 0 1.1 0.2 0.1 0.4 0.2 0.7 0 0.5-0.2 1-0.4 1.6-0.6 0.2 0 0.3 0.1 0.4 0.5 0.1 0.4 0.1 0.6-0.1 0.6 -0.5 0.2-1 0.4-1.5 0.6 -0.5 0.2-0.8 0.5-1.1 0.9 0 0.3 0 0.7 0.1 1.1C201.7 63.4 201.6 63.6 201.6 63.8zM215.6 58.1c1-1.7 1.9-3.7 2.6-6.1 0-0.3 0.1-0.5 0.3-0.8 0.1-0.3 0.5-0.2 1.3 0.1 0.8 0.3 1 0.6 0.6 0.8 -0.6 0.6-1.1 1.5-1.8 2.6 -0.6 1.1-1.1 2-1.3 2.4 -0.2 0.4-0.3 0.7-0.3 1.1 0.4 0.2 0.7 0.4 1.1 0.5 0.2 0.2 0.3 0.4 0.2 0.7 -0.2 0.6-0.3 1.6-0.2 3 0 1.4 0 2.6-0.1 3.5 0 0.2 0 0.5 0.1 0.7 0.2 0.4-0.3 0.5-1.3 0.2 -0.3-0.1-0.3-0.2-0.2-0.4 0.1-1.1 0.2-2.5 0.2-4.2 0-0.9-0.1-1.8-0.2-2.4 -0.1 0.2-0.3 0.3-0.4 0.4 -0.6 0.5-1.5 1.1-2.4 1.7 -0.6 0.3-0.7 0.2-0.4-0.3C213.8 60.6 214.6 59.5 215.6 58.1zM218.4 64.2c1.4-1.7 2.6-3.4 3.7-5.2 0.4-0.8 0.8-1.5 1-2.1 -1 0.3-1.8 0.6-2.4 0.9 -0.2 0.2-0.6-0.1-1.1-0.8 -0.5-0.7-0.3-0.9 0.6-0.8 1-0.4 2.2-0.7 3.7-1.1 0-2.6 0-3.9-0.1-4.1 -0.2-0.6 0.1-0.8 0.9-0.7 0.8 0.1 1 0.3 0.7 0.7 -0.1 0.2-0.2 1.1-0.1 2.9 0 0.3 0 0.6 0 0.9 0.5-0.1 1-0.2 1.5-0.3 0.7-0.1 1.1-0.2 1.3-0.3 0.1-0.1 0.3 0 0.4 0.2 0.1 0.2 0.3 0.4 0.4 0.5 0.2 0.1 0.3 0.4 0.3 0.9 0 0.5-0.1 0.7-0.4 0.5 -1-0.1-2.2-0.1-3.4 0.1 0.1 0.2 0.3 0.4 0.4 0.7 0.3 0.5 0.7 1.2 1.4 2 0.6 0.8 1.2 1.4 1.8 1.9 0.6 0.5 1.4 1 2.3 1.4 0.9 0.5 1.5 0.9 1.8 1.3 0.1 0.2 0 0.3-0.1 0.3 -0.7 0-1.6 0-2.8-0.2 -1.2-0.1-1.8-0.4-1.8-0.7 0-0.4-0.1-0.6-0.2-0.9 -0.2-0.4-0.5-0.8-0.9-1.1 -0.4-0.3-0.8-0.7-1.2-1.4 -0.3-0.3-0.5-0.6-0.8-0.8 0 0.3 0 0.6 0 0.8 0 0.9 0 1.7 0 2.5 0.5-0.1 0.9-0.2 1.3-0.2 0.4-0.1 0.6 0.2 0.6 0.7 0 0.6-0.1 0.9-0.3 0.8 -0.6 0.1-1.1 0.2-1.7 0.2 0 0.6 0 1.3 0 1.9 -0.1 1.9-0.1 2.8 0 3 0.3 0.5 0.1 0.7-0.6 0.5 -0.7-0.1-1-0.2-0.9-0.3 0.1-0.1 0.2-0.6 0.2-1.5 0-1.1 0-2.2 0-3.4 -0.7 0.1-1.5 0.3-2.1 0.4 -0.3 0.2-0.5 0-0.6-0.6 -0.1-0.5 0-0.8 0.3-0.9 0.8-0.2 1.6-0.3 2.3-0.5 0-0.9 0-2.1 0-3.6 -0.4 0.4-0.9 1.1-1.4 2 -0.8 1.4-2 2.7-3.6 3.9 -0.2 0.1-0.4 0.2-0.6 0.2C218.1 64.8 218.1 64.6 218.4 64.2z"/></a><a xlink:href="https://support.apple.com/en-us/HT201375" xlink:show="new"><path fill="#FFFFFF" d="M155.1 83.4h11.8V84h-11.8V83.4zM155.5 75.7h6.3c0.6-0.6 1.2-1.5 2.1-2.6l0.6 0.3c-0.4 0.6-1 1.4-1.8 2.3h3.8v0.7h-10.9V75.7zM156.4 79.5h9v0.6h-9V79.5zM157.5 73.5l0.5-0.4c0.6 0.7 1.2 1.3 1.7 2l-0.6 0.4C158.6 74.8 158.1 74.2 157.5 73.5zM172.9 73.2l0.7-0.1c0 0.1 0.1 0.2 0.1 0.3 0.1 0.1 0.1 0.4 0.2 0.8h5.3v0.6h-11.3v-0.6h5.4c0 0 0-0.1 0-0.1C173.1 73.6 173 73.4 172.9 73.2zM167.9 79.3h11.2v2h-0.6v-1.4h-9.9v1.4h-0.6V79.3zM169.4 81.2h8.2v0.6h-3.4v1.7c0 0.9-0.4 1.3-1.3 1.3 -0.6 0-1.1 0-1.7 0 0-0.2 0-0.4-0.1-0.7 0.5 0 1 0 1.5 0 0.6 0 0.9-0.2 0.9-0.6v-1.7h-4.1V81.2zM169.6 75.8h7.8v2.3h-7.8V75.8zM170.3 76.4v1.1h6.5v-1.1H170.3zM181.2 79.5h4.6v-1.4h-4.5v-4.4h9.6v4.4h-4.5v1.4h4.8v0.6h-4.8v1.4h5.6v0.6h-11.8v-0.6h5.6v-1.4h-4.6V79.5zM182 82.5l0.6 0.3c-0.4 0.7-0.9 1.4-1.4 2.1 -0.3-0.2-0.5-0.3-0.6-0.3C181.2 83.7 181.7 83 182 82.5zM182 74.3v3.2h3.8v-3.2H182zM183 75.3l0.5-0.4c0.1 0.1 0.2 0.2 0.3 0.4 0.5 0.6 0.8 1 0.9 1.2l-0.5 0.3C183.8 76.2 183.4 75.7 183 75.3zM184 82.9l0.6-0.2c0.1 0.2 0.2 0.4 0.3 0.7 0.2 0.4 0.3 0.8 0.4 1.1l-0.6 0.2C184.5 84 184.3 83.4 184 82.9zM190.3 74.3h-3.8v3.2h3.8V74.3zM187 82.8l0.5-0.2c0.1 0.1 0.1 0.2 0.2 0.4 0.4 0.6 0.6 1 0.8 1.4l-0.6 0.2C187.6 84 187.3 83.4 187 82.8zM189.2 75.3c-0.1 0.1-0.3 0.4-0.6 0.7 -0.4 0.4-0.6 0.7-0.7 0.9l-0.5-0.4c0.5-0.5 0.9-1 1.3-1.6L189.2 75.3zM189.9 82.8l0.5-0.3c0.5 0.6 0.9 1.2 1.3 1.8l-0.5 0.3c0-0.1-0.1-0.2-0.2-0.3C190.6 83.7 190.2 83.1 189.9 82.8zM198.6 73l0.7 0.1c-0.2 0.4-0.4 0.7-0.6 1h3.6v0.6h-4c-0.5 0.6-1 1.2-1.6 1.7 -0.2-0.2-0.4-0.4-0.5-0.4C197.2 75.2 198 74.2 198.6 73zM197.2 78h0.7v6.8h-0.7V78zM197.8 76.6l0.5-0.4c0.4 0.4 0.8 0.8 1.3 1.2l-0.5 0.4C198.7 77.4 198.3 77 197.8 76.6zM200.8 76l-0.5 0.4c-0.1-0.2-0.4-0.5-0.7-0.8 -0.2-0.2-0.3-0.3-0.3-0.4l0.4-0.3C200.1 75.3 200.5 75.6 200.8 76zM199.8 78.6h4.9v4.5h-4.9V78.6zM200.4 79.2v1.4h3.6v-1.4H200.4zM200.4 81.2v1.4h3.6v-1.4H200.4zM200.6 77.4v-0.6h6.8v6.6c0 0.9-0.4 1.3-1.4 1.3 -0.3 0-0.8 0-1.5 0 0-0.1 0-0.3-0.1-0.6 0.1 0.2 0.1 0.1 0-0.1 0.2 0 0.4 0 0.7 0 0.3 0 0.6 0 0.7 0 0.6 0 0.9-0.2 0.9-0.7v-6H200.6zM203.8 73.1l0.7 0.1c-0.1 0.2-0.2 0.4-0.3 0.7 -0.1 0.1-0.1 0.2-0.1 0.3h4v0.6h-4.4c-0.4 0.6-0.7 1.1-1.1 1.6 -0.2-0.2-0.4-0.3-0.6-0.4C202.7 75.2 203.3 74.2 203.8 73.1zM206.1 76l-0.4 0.4c-0.4-0.5-0.8-0.9-1.2-1.2l0.4-0.3C205.3 75.3 205.7 75.6 206.1 76zM209 83.9l-0.1-0.6c1.3-0.2 2.9-0.4 4.8-0.6 0 0.1 0 0.3 0 0.6C211.9 83.5 210.4 83.7 209 83.9zM210.2 80.5c1.2-0.1 2.2-0.2 3-0.3 0 0.1 0 0.2 0 0.3 0 0.1 0 0.2 0 0.3 -1.8 0.2-3 0.3-3.6 0.4l-0.2-0.6c0.1-0.1 0.4-0.4 0.9-0.9 0.3-0.3 0.7-0.9 1.3-1.8 -1 0-1.8 0-2.3 0.1l-0.2-0.6c0.2-0.2 0.5-0.5 0.8-0.9 0.7-1 1.3-2.2 1.9-3.3l0.7 0.2c-0.9 1.5-1.7 2.9-2.5 4 0.1 0 0.4 0 0.9 0 0.6 0 1 0 1.2 0 0.4-0.6 0.7-1.1 1-1.7l0.7 0.2C212.5 77.5 211.4 79 210.2 80.5zM220.3 74.5c-0.9 0.1-1.8 0.2-2.8 0.2v3.9h3.3v0.6h-3.3v5.6h-0.7v-5.6h-3.4v-0.6h3.4v-3.8c-0.9 0.1-1.9 0.2-2.9 0.2 0-0.3 0-0.5-0.1-0.6 2.9-0.1 5-0.3 6.3-0.5L220.3 74.5zM222.4 79.5h4.6v-1.4h-4.5v-4.4h9.6v4.4h-4.5v1.4h4.8v0.6h-4.8v1.4h5.6v0.6h-11.8v-0.6h5.6v-1.4h-4.6V79.5zM223.2 82.5l0.6 0.3c-0.4 0.7-0.9 1.4-1.4 2.1 -0.3-0.2-0.5-0.3-0.6-0.3C222.5 83.7 223 83 223.2 82.5zM223.2 74.3v3.2h3.8v-3.2H223.2zM224.3 75.3l0.5-0.4c0.1 0.1 0.2 0.2 0.3 0.4 0.5 0.6 0.8 1 0.9 1.2l-0.5 0.3C225.1 76.2 224.7 75.7 224.3 75.3zM225.2 82.9l0.6-0.2c0.1 0.2 0.2 0.4 0.3 0.7 0.2 0.4 0.3 0.8 0.4 1.1l-0.6 0.2C225.8 84 225.5 83.4 225.2 82.9zM231.5 74.3h-3.8v3.2h3.8V74.3zM228.2 82.8l0.5-0.2c0.1 0.1 0.1 0.2 0.2 0.4 0.4 0.6 0.6 1 0.8 1.4l-0.6 0.2C228.8 84 228.5 83.4 228.2 82.8zM230.4 75.3c-0.1 0.1-0.3 0.4-0.6 0.7 -0.4 0.4-0.6 0.7-0.7 0.9l-0.5-0.4c0.5-0.5 0.9-1 1.3-1.6L230.4 75.3zM231.2 82.8l0.5-0.3c0.5 0.6 0.9 1.2 1.3 1.8l-0.5 0.3c0-0.1-0.1-0.2-0.2-0.3C231.9 83.7 231.5 83.1 231.2 82.8zM155.1 99.2V98h11.7v1.2H155.1zM155.5 92v-1.3h3.2c-0.3-0.4-0.8-1-1.5-1.9l1.2-0.6c0.2 0.2 0.4 0.5 0.8 1 0.4 0.5 0.6 0.8 0.8 1l-1 0.6h2.7c0.1-0.2 0.3-0.4 0.5-0.7 0.6-0.8 1-1.4 1.2-1.8l1.3 0.5c-0.2 0.2-0.4 0.5-0.7 1 -0.4 0.4-0.6 0.8-0.8 1h3.1V92H155.5zM156.4 95.6v-1.3h9.1v1.3H156.4zM167.7 90.2v-1h5.1l-0.2-0.9 1.5-0.1 0.2 1h5v1H167.7zM167.8 96.5v-2.2h11.4v2.2H178v-1.2h-9v1.2H167.8zM169.3 97.2v-1h8.5v1h-3.2v1.2c0 0.9-0.5 1.3-1.5 1.4 -0.6 0-1.2 0-2 0 -0.1-0.3-0.1-0.7-0.2-1.1 0.4 0 0.9 0 1.6 0 0.6 0 0.8-0.1 0.8-0.5v-1H169.3zM169.4 93.5V91h8.3v2.6H169.4zM170.7 91.8v0.8h5.7v-0.8H170.7zM181.1 93.4v-4.7h10v4.7h-4.4v0.9h4.6v1h-4.6v1h5.3v1h-11.9v-1h5.3v-1H181v-1h4.5v-0.9H181.1zM181.7 100c-0.1 0-0.2 0-0.3-0.1 -0.5-0.1-0.8-0.2-1-0.2 0.5-0.8 0.9-1.4 1.2-2.1l1.3 0.2C182.3 98.8 182 99.5 181.7 100zM182.3 89.8v2.7h3.1v-2.7H182.3zM184 92.1c-0.3-0.5-0.7-1-1.1-1.5l0.8-0.6c0.2 0.2 0.4 0.5 0.8 0.9 0.2 0.3 0.3 0.4 0.4 0.5L184 92.1zM184.3 99.8c-0.2-0.7-0.3-1.3-0.5-1.9l1.2-0.1c0 0.2 0.1 0.4 0.2 0.6 0.2 0.5 0.3 0.9 0.3 1.2L184.3 99.8zM187.4 99.8c0-0.1-0.1-0.2-0.2-0.4 -0.3-0.6-0.5-1.1-0.6-1.5l1.2-0.2c0.1 0.1 0.2 0.3 0.3 0.6 0.3 0.5 0.5 1 0.6 1.3L187.4 99.8zM189.9 89.8h-3.1v2.7h3.1V89.8zM188.1 92.1l-0.8-0.6 0 0c0.5-0.6 0.9-1 1.1-1.4l0.9 0.6c-0.2 0.2-0.4 0.5-0.8 0.9C188.3 91.8 188.2 92 188.1 92.1zM190.7 99.8c-0.1-0.1-0.2-0.3-0.3-0.6 -0.3-0.6-0.6-1-0.8-1.4l1.2-0.2c0.1 0.1 0.2 0.3 0.3 0.5 0.4 0.6 0.7 1 0.8 1.4L190.7 99.8zM197 91.8c-0.1-0.1-0.2-0.3-0.4-0.5 -0.2-0.2-0.3-0.3-0.3-0.4 0.9-0.8 1.6-1.7 2.1-2.8l1.3 0.1c-0.1 0.3-0.3 0.6-0.4 0.8h3v1h-1.9c0.3 0.4 0.6 0.8 0.8 1.1l-1.1 0.3 -0.9-1.3 0.2-0.1h-0.8C198.1 90.7 197.6 91.3 197 91.8zM197.1 100v-6.6h1.3v6.6H197.1zM199 93.4c-0.4-0.5-0.9-1-1.4-1.4l0.9-0.7c0.5 0.4 1 0.8 1.4 1.3L199 93.4zM199.7 98.5v-4.8h5.1v4.8H199.7zM204.3 99.9c-0.1-0.5-0.2-0.9-0.3-1.2 0.4 0 0.9 0 1.4 0 0.6 0 0.8-0.2 0.8-0.6v-5.2h-5.8v-1h7v6.5c0 1-0.5 1.5-1.6 1.6C205.5 99.9 204.9 99.9 204.3 99.9zM200.9 94.7v1h2.7v-1H200.9zM200.9 96.6v1h2.7v-1H200.9zM202.9 91.6c-0.1-0.1-0.3-0.2-0.5-0.3 -0.2-0.1-0.4-0.2-0.5-0.3 0.8-0.9 1.4-1.8 1.7-2.8l1.3 0.1c0 0.1-0.1 0.2-0.1 0.3 -0.1 0.2-0.2 0.4-0.2 0.5h3.5v1h-2.3l0.9 1.1 -1.1 0.3 -1-1.3 0.3-0.1h-0.8C203.6 90.6 203.3 91.1 202.9 91.6zM209.5 96.6v-6.1h4.6v-2.4h1.4v2.4h4.6v6h-1.4v-0.6h-3.2v4.1h-1.4v-4.1h-3.2v0.7H209.5zM210.9 91.8v2.9h3.2v-2.9H210.9zM218.7 91.8h-3.2v2.9h3.2V91.8zM222.4 93.4v-4.7h10v4.7H228v0.9h4.6v1H228v1h5.3v1h-11.9v-1h5.3v-1h-4.5v-1h4.5v-0.9H222.4zM222.9 100c-0.1 0-0.2 0-0.3-0.1 -0.5-0.1-0.8-0.2-1-0.2 0.5-0.8 0.9-1.4 1.2-2.1l1.3 0.2C223.6 98.8 223.2 99.5 222.9 100zM223.6 89.8v2.7h3.1v-2.7H223.6zM225.3 92.1c-0.3-0.5-0.7-1-1.1-1.5L225 90c0.2 0.2 0.4 0.5 0.8 0.9 0.2 0.3 0.3 0.4 0.4 0.5L225.3 92.1zM225.5 99.8c-0.2-0.7-0.3-1.3-0.5-1.9l1.2-0.1c0 0.2 0.1 0.4 0.2 0.6 0.2 0.5 0.3 0.9 0.3 1.2L225.5 99.8zM228.7 99.8c0-0.1-0.1-0.2-0.2-0.4 -0.3-0.6-0.5-1.1-0.6-1.5l1.2-0.2c0.1 0.1 0.2 0.3 0.3 0.6 0.3 0.5 0.5 1 0.6 1.3L228.7 99.8zM231.2 89.8H228v2.7h3.1V89.8zM229.3 92.1l-0.8-0.6 0 0c0.5-0.6 0.9-1 1.1-1.4l0.9 0.6c-0.2 0.2-0.4 0.5-0.8 0.9C229.6 91.8 229.4 92 229.3 92.1zM231.9 99.8c-0.1-0.1-0.2-0.3-0.3-0.6 -0.3-0.6-0.6-1-0.8-1.4l1.2-0.2c0.1 0.1 0.2 0.3 0.3 0.5 0.4 0.6 0.7 1 0.8 1.4L231.9 99.8z"/></a></svg>