<svg xmlns="http://www.w3.org/2000/svg" version="1.2" baseProfile="tiny" x="0" y="0" viewBox="0 0 100 100" xml:space="preserve"><text transform="matrix(1 0 0 1 7.1079 13.5215)" opacity="0">x</text><path fill="#343434" d="M25.2 25.3L14.6 14.7c-19.5 19.5-19.5 51.1 0 70.6l10.6-10.6C18.9 68.4 15 59.7 15 50S18.8 31.6 25.2 25.3z"/><path fill="#FFFFFF" d="M74.7 74.7C68.4 81.1 59.7 85 50 85s-18.5-3.9-24.8-10.3L14.6 85.3c19.5 19.5 51.2 19.6 70.7 0.1L74.7 74.7z"/><path fill="#6AB2D4" d="M85.3 14.7L74.7 25.3C81.1 31.6 85 40.3 85 50s-3.9 18.4-10.3 24.7l10.6 10.7C104.9 65.9 104.8 34.3 85.3 14.7z"/><path fill="#421211" d="M50 15c9.7 0 18.4 3.9 24.7 10.3l10.6-10.6c-19.5-19.5-51.2-19.5-70.7 0l10.6 10.6C31.6 18.9 40.3 15 50 15z"/></svg>