<svg xmlns="http://www.w3.org/2000/svg" xmlns:xlink="http://www.w3.org/1999/xlink" version="1.2" baseProfile="tiny" x="0" y="0" viewBox="0 0 233.6 100" xml:space="preserve"><text transform="matrix(1 0 0 1 7.1079 13.5215)" opacity="0">x</text><a xlink:href="http://www.dafont.com/ventilla-script.font" xlink:show="new"><path fill="#FFFFFF" d="M64.3 8.1c0.3 0.3 0.5 0.7 0.5 1 0 0.2 0 0.3-0.1 0.4l-0.1 0.1c-1.4 1.8-3 3.9-4.9 6.2 -1.9 2.3-3.9 4.6-6 6.9 -2.1 2.4-4.2 4.7-6.2 6.9 -2.1 2.3-3.9 4.3-5.5 6.1 -1.6 1.8-2.9 3.3-4 4.4 -1 1.2-1.5 1.8-1.5 2 0 0.1 0 0.2 0 0.4 0 0.2-0.1 0.3-0.2 0.3 0 0-0.3-0.1-0.8-0.4 -0.5-0.3-1.1-0.7-1.7-1.4 -0.6-0.7-1.2-1.5-1.7-2.6 -0.5-1.1-0.8-2.4-0.8-4.1 0-1.7 0.3-3.4 0.8-5.2 0.5-1.8 1.1-3.4 1.9-5 0.7-1.6 1.5-3 2.3-4.2 0.8-1.2 1.4-2.1 2-2.7 -0.4-0.4-1.1-0.7-2.3-0.9 -1.1-0.2-2.3-0.4-3.6-0.4 -1.7 0-3.8 0.2-6.2 0.5 -2.4 0.3-4.8 0.8-7 1.4 -2.2 0.6-4.1 1.4-5.7 2.3 -1.6 0.9-2.4 2-2.4 3.3 0 1 0.2 1.6 0.7 2 0.4 0.4 0.7 0.6 0.7 0.6 0 0.3-0.1 0.5-0.4 0.5l-0.1-0.1c0 0-0.2-0.1-0.4-0.3 -0.2-0.1-0.4-0.4-0.7-0.6 -0.2-0.3-0.4-0.6-0.6-1 -0.2-0.4-0.3-0.8-0.3-1.4 0-1 0.4-2 1.2-2.9 0.8-0.9 1.8-1.7 3.1-2.5 1.3-0.8 2.7-1.4 4.3-2 1.6-0.6 3.3-1 4.9-1.4 1.7-0.4 3.3-0.7 4.9-0.9 1.6-0.2 3-0.3 4.3-0.3 2.6 0 4.6 0.4 6.1 1.3 1.4 0.9 2.1 1.9 2.1 3l-0.1 0.1c0 0.1 0 0.1 0 0.1 0 0 0 0 0 0.1v0.1c-0.7 0.9-1.5 2-2.4 3.3 -0.9 1.4-1.7 2.8-2.5 4.4 -0.8 1.6-1.4 3.2-2 4.8 -0.5 1.6-0.8 3.2-0.8 4.5 0 1.6 0.3 2.8 0.8 3.9 0.6 1 1.2 1.8 1.8 2.4 0-0.4 0.2-0.8 0.6-1.1 0.6-0.8 1.6-2.1 3-3.9 1.4-1.8 3-3.8 4.8-6.1 1.8-2.3 3.7-4.6 5.7-7.1 2-2.4 3.9-4.7 5.7-6.9 1.8-2.2 3.3-4 4.6-5.6 1.3-1.6 2.2-2.5 2.6-3l0.1-0.1c0.2-0.2 0.4-0.3 0.6-0.3C63.6 7.8 63.9 7.9 64.3 8.1zM65.4 28.5c0.2 0 0.4 0.1 0.5 0.2 0.1 0.1 0.2 0.2 0.2 0.3 0 0.2-0.3 0.6-1 1.3 -0.7 0.7-1.5 1.4-2.6 2.2 -1.1 0.8-2.3 1.5-3.6 2.1 -1.3 0.6-2.7 0.9-4 0.9 -1.1 0-1.9-0.4-2.4-1.2 -0.5-0.8-0.7-1.7-0.7-2.8 0-0.8 0.1-1.6 0.3-2.3 0.2-0.7 0.5-1.3 0.8-1.9 -0.3-0.2-0.5-0.3-0.5-0.4 0-0.1-0.1-0.1-0.2-0.1 0 0 0-0.2 0.1-0.4 0.1-0.2 0.2-0.3 0.3-0.3 0.2 0 0.5 0.1 0.9 0.3 0.8-1.1 1.6-2.1 2.6-2.9 1-0.8 1.9-1.5 2.8-2 0.9-0.5 1.6-0.9 2.3-1.2 0.7-0.3 1.3-0.4 1.9-0.4 0.6 0 1 0.1 1.3 0.3 0.3 0.2 0.5 0.4 0.8 0.7 0.2 0.3 0.3 0.8 0.3 1.3 0 1.1-0.3 2.1-1 2.8 -0.7 0.8-1.4 1.4-2.3 1.9 -0.9 0.5-1.8 0.8-2.8 1.1 -0.9 0.2-1.7 0.4-2.2 0.4 -0.7 0-1.4-0.1-2-0.2 -0.4 0.5-0.7 1.1-0.9 1.7 -0.2 0.6-0.4 1.3-0.4 2 0 0.6 0.1 1 0.2 1.2 0.1 0.2 0.4 0.4 0.8 0.4 0.3 0 0.8-0.1 1.6-0.2 0.8-0.1 1.7-0.4 2.7-0.8 1-0.4 2.1-1 3.2-1.6C63.5 30.3 64.5 29.5 65.4 28.5L65.4 28.5zM56.5 26.8c1.3-0.1 2.5-0.5 3.6-1.2 1.2-0.7 2.1-1.7 2.7-3 -1 0.3-2 0.9-3.1 1.6 -1.1 0.7-2.1 1.5-3 2.4L56.5 26.8zM80.5 20c0.3 0.4 0.5 0.8 0.5 1 0 0 0 0.1 0 0.1 0 0 0 0.1 0 0.1H81l-0.1 0.1c-0.7 0.8-1.5 1.7-2.4 2.6 -0.9 0.9-1.9 1.9-2.9 2.9 -1 1-2 2.1-3 3.1 -1 1.1-1.8 2.1-2.4 3.1h0.1c2.1-0.9 3.8-1.7 5.2-2.6 1.4-0.9 2.1-1.4 2.1-1.5h-0.1c0.1 0 0.2 0 0.3 0.1 0.2 0.1 0.3 0.2 0.3 0.4 0 0.1-0.5 0.5-1.4 1.3 -0.9 0.8-2.1 1.6-3.5 2.5 -1.4 0.9-2.3 1.5-2.7 1.7 -0.4 0.2-0.8 0.3-1.2 0.3 -0.7 0-1.1-0.2-1.2-0.5 -0.1-0.3-0.2-0.6-0.3-0.8 0-0.8 0.3-1.6 0.8-2.6 0.5-0.9 1.1-1.9 1.9-2.8 0.7-0.9 1.5-1.8 2.3-2.7 0.8-0.9 1.6-1.6 2.2-2.3 -0.9 0.4-1.8 0.8-2.7 1.2 -0.9 0.4-1.7 0.7-2.4 1 -0.9 1.3-1.9 2.4-2.9 3.6 -1 1.1-2 2.1-2.8 3 -0.8 0.9-1.6 1.6-2.1 2.1 -0.6 0.6-0.8 0.9-0.8 0.9h-0.1c0 0-0.1 0-0.2-0.1 -0.2-0.1-0.3-0.2-0.3-0.2 0 0 0-0.1 0-0.1 0.1-0.2 0.4-0.7 0.9-1.5 0.5-0.8 1.2-1.7 1.9-2.8 0.7-1.1 1.6-2.5 2.8-4.3 1.2-1.8 1.9-2.8 2.1-3.1 0.2-0.3 0.4-0.6 0.7-0.9 0.2-0.3 0.5-0.5 0.7-0.6 0.2-0.1 0.4-0.1 0.5 0h0.1c0.2 0 0.6 0.1 1 0.4 0.4 0.3 0.6 0.5 0.5 0.7v0.1c-0.1 0.1-0.2 0.3-0.3 0.5 -0.1 0.2-0.2 0.4-0.3 0.5 0.9-0.5 1.8-1 2.7-1.5 0.9-0.5 1.8-1 2.6-1.5 0.8-0.4 1.5-0.8 2-1.1 0.5-0.3 0.8-0.4 0.9-0.4C79.8 19.5 80.1 19.6 80.5 20zM112 16.1c0.2 0 0.3 0.1 0.3 0.2 0 0.1-0.7 0.2-2 0.3 -1.3 0.1-3.1 0.1-5.2 0.2 -2.2 0-4.6 0.1-7.4 0.1 -2.8 0-5.6 0.1-8.5 0.1 -1 1.3-2.2 2.7-3.5 4.2 -1.3 1.5-2.5 2.9-3.6 4.4 -1.1 1.5-2.1 2.9-2.9 4.2 -0.8 1.4-1.3 2.7-1.6 3.9 1.2-0.1 2.2-0.4 3.1-0.9 0.9-0.5 1.5-1 2-1.4 0.4-0.4 0.8-0.7 1-0.9 0.2-0.2 0.4-0.3 0.5-0.4 0.1-0.1 0.1-0.1 0.2-0.1 0.3 0 0.4 0.1 0.4 0.4l-0.1-0.1c-0.1 0-0.3 0.2-0.7 0.7 -0.3 0.5-0.8 1-1.4 1.6 -0.6 0.6-1.3 1.1-2.1 1.6 -0.8 0.5-1.8 0.8-2.9 0.9 -0.3 0-0.6 0-0.7-0.1l-0.3-0.1c-0.1-0.1-0.3-0.3-0.6-0.7 -0.2-0.4-0.2-1 0-2 0.2-0.9 0.7-2.1 1.5-3.5 0.7-1.4 1.6-2.8 2.5-4.1 0.9-1.4 1.9-2.7 3-4 1-1.3 2-2.5 2.9-3.7 -3.3 0.1-6.5 0.2-9.3 0.2 -2.9 0-5.2 0.1-7.1 0.1 -0.7 0-1.3 0-1.8 0 -0.5 0-0.9 0-1.1-0.1h-0.1c-0.6 0-0.9-0.3-0.9-0.8 0-0.4 0.3-0.7 0.9-0.8h0.1c0.6-0.1 1.2-0.1 1.8-0.1 0.6 0 1.3 0 2 0H73h14c1.2-1.6 2.2-2.8 3-3.9 0.8-1 1.4-1.7 1.8-2V9.7c0.1-0.1 0.3-0.1 0.5-0.1 0.4 0 0.7 0.1 1 0.4 0.3 0.3 0.4 0.6 0.4 0.9 0 0.1 0 0.2-0.1 0.3h0.1l-0.1 0.1c-0.5 0.7-1 1.4-1.6 2.1 -0.6 0.7-1.2 1.5-1.8 2.3 2.9 0 5.6 0.1 8.2 0.1 2.6 0 4.9 0.1 6.9 0.1 2 0 3.6 0.1 4.8 0.1C111.4 16 112 16.1 112 16.1zM91 30.7c0 0.1 0 0.2 0 0.2 0 0 0 0.1 0 0.1v0.1c0 0-0.4 0.3-1.1 0.8 -0.7 0.5-1.4 0.9-2.1 1.3 -0.7 0.4-1.5 0.9-2.3 1.5 -0.8 0.5-1.6 0.8-2.3 0.8 -0.7 0-1.2-0.2-1.5-0.7 -0.3-0.5-0.4-0.8-0.4-1 -0.1-0.3 0-0.8 0.3-1.7 0.3-0.8 0.8-1.9 1.7-3.3 0.8-1.4 1.7-2.7 2.5-3.9 0.8-1.2 1.6-2.2 2.4-3 0.7-0.8 1.2-1.3 1.3-1.5h0.1c0 0 0.1-0.1 0.2-0.1 0.3 0 0.6 0.2 1 0.6 0.4 0.4 0.5 0.7 0.5 1l-0.1 0.1c-0.5 0.7-1.1 1.5-1.9 2.4 -0.8 0.9-1.5 1.9-2.3 3 -0.8 1-1.5 2.1-2.1 3.1 -0.7 1-1.2 2-1.5 2.8 0.3 0.1 1-0.1 1.9-0.5 0.9-0.4 2-1 3.3-1.6 1.3-0.7 2-1 2.1-1l0.1 0.1c0 0 0.1 0 0.1 0.1C91 30.6 91 30.7 91 30.7zM95.8 17c-0.2 0.7-0.7 1.2-1.5 1.7 -0.8 0.5-1.6 0.9-2.5 1.2l-0.7-0.5c0 0 0.1-0.3 0.4-0.7 0.2-0.4 0.5-0.8 0.9-1.3 0.3-0.5 0.7-0.9 0.9-1.3 0.3-0.4 0.5-0.6 0.6-0.7 0 0 0.2 0.1 0.4 0.2 0.2 0.1 0.4 0.3 0.6 0.4 0.2 0.2 0.4 0.3 0.6 0.5C95.8 16.8 95.8 16.9 95.8 17L95.8 17zM97.7 30.1L97.7 30.1l0.2 0.1c0.2 0.1 0.4 0.2 0.4 0.3 0 0.1-0.5 0.7-1.4 1.6 -0.9 0.9-2.3 1.9-4 2.8 -0.2 0.1-0.5 0.2-0.7 0.3 -0.2 0.1-0.5 0.1-0.9 0.1 -0.7 0-1.2-0.2-1.5-0.7 -0.3-0.5-0.5-0.9-0.6-1.3 -0.1-0.8 0-1.6 0.4-2.4 0.4-0.8 0.8-1.5 1.2-2.3 0.5-0.8 1-1.5 1.5-2.2 0.5-0.7 1-1.3 1.5-1.9 1.3-1.6 2.6-3.3 3.9-4.9 1.3-1.6 2.4-3.1 3.5-4.5 1-1.4 1.9-2.6 2.7-3.5 0.8-1 1.3-1.6 1.6-2 0.1-0.1 0.3-0.1 0.5-0.1 0.4 0 0.7 0.1 1 0.4 0.3 0.3 0.4 0.6 0.4 0.9 0 0.1 0 0.2-0.1 0.3l-0.1 0.1c-0.9 1.2-1.9 2.5-3.1 4 -1.2 1.5-2.4 3-3.6 4.5 -1.3 1.6-2.6 3.1-3.9 4.8 -1.3 1.6-2.4 3-3.2 4.1 -0.8 1.1-1.5 2-1.9 2.7 -0.5 0.7-0.7 1.3-0.7 1.9 0 0.5 0.2 0.7 0.7 0.7 0.5 0 1.2-0.2 2-0.6 0.9-0.4 1.9-1.1 3.1-2.3 0.3-0.3 0.5-0.5 0.7-0.7C97.4 30.3 97.6 30.2 97.7 30.1zM104.4 30.1L104.4 30.1l0.2 0.1c0.2 0.1 0.4 0.2 0.4 0.3 0 0.1-0.5 0.7-1.4 1.6 -0.9 0.9-2.3 1.9-4 2.8 -0.2 0.1-0.5 0.2-0.7 0.3 -0.2 0.1-0.5 0.1-0.9 0.1 -0.7 0-1.2-0.2-1.5-0.7 -0.3-0.5-0.5-0.9-0.6-1.3 -0.1-0.8 0-1.6 0.4-2.4 0.4-0.8 0.8-1.5 1.2-2.3 0.5-0.8 1-1.5 1.5-2.2 0.5-0.7 1-1.3 1.5-1.9 1.3-1.6 2.6-3.3 3.9-4.9 1.3-1.6 2.4-3.1 3.5-4.5 1-1.4 1.9-2.6 2.7-3.5 0.8-1 1.3-1.6 1.6-2 0.1-0.1 0.3-0.1 0.5-0.1 0.4 0 0.7 0.1 1 0.4 0.3 0.3 0.4 0.6 0.4 0.9 0 0.1 0 0.2-0.1 0.3l-0.1 0.1c-0.9 1.2-1.9 2.5-3.1 4 -1.2 1.5-2.4 3-3.6 4.5 -1.3 1.6-2.6 3.1-3.9 4.8 -1.3 1.6-2.4 3-3.2 4.1 -0.8 1.1-1.5 2-1.9 2.7 -0.5 0.7-0.7 1.3-0.7 1.9 0 0.5 0.2 0.7 0.7 0.7 0.5 0 1.2-0.2 2-0.6 0.9-0.4 1.9-1.1 3.1-2.3 0.3-0.3 0.5-0.5 0.7-0.7S104.3 30.2 104.4 30.1zM119.4 22.5c-0.4 0.7-0.9 1.5-1.6 2.4 -0.7 0.9-1.3 1.8-2 2.8 -0.7 1-1.3 2-1.9 2.9 -0.6 1-1 1.9-1.2 2.8 0.3 0.1 0.7 0.1 1.1-0.1 0.5-0.2 1-0.5 1.7-1 0.7-0.5 1.3-0.9 1.7-1.3 0.5-0.4 0.8-0.7 1.1-0.8 0.2-0.2 0.4-0.3 0.4-0.3 0 0 0.2 0 0.4 0.1 0.2 0.1 0.3 0.2 0.3 0.4 0 0-0.3 0.3-0.7 0.8 -0.4 0.5-1 1.1-1.6 1.7 -0.7 0.6-1.4 1.2-2.2 1.7 -0.8 0.5-1.6 0.8-2.4 0.9 -0.4 0-0.8-0.1-1-0.3 -0.2-0.2-0.4-0.4-0.5-0.6 -0.1-0.2-0.2-0.4-0.2-0.6 0-0.2 0-0.3 0-0.4v-0.9c-0.1 0.1-0.3 0.3-0.6 0.6 -0.3 0.3-0.7 0.6-1.1 0.9 -0.4 0.3-0.9 0.6-1.5 0.8 -0.6 0.2-1.1 0.4-1.7 0.4 -0.5 0-1-0.1-1.3-0.4 -0.3-0.3-0.6-0.6-0.8-1 -0.2-0.4-0.3-0.8-0.4-1.2 -0.1-0.4-0.1-0.8-0.1-1.2 0-1.2 0.3-2.5 1-3.9 0.7-1.4 1.5-2.7 2.6-3.9 1.1-1.2 2.2-2.2 3.5-3 1.3-0.8 2.5-1.2 3.7-1.2 1.4 0 2.5 0.5 3.3 1.5 0 0 0.1 0 0.1 0 0 0 0.1 0 0.1 0 0.3 0 0.7 0.2 1.1 0.5C119.3 21.8 119.5 22.1 119.4 22.5L119.4 22.5zM115.5 23.5c0 0 0.1-0.2 0.1-0.4 0-0.6-0.5-0.9-1.4-0.9 -0.7 0-1.5 0.3-2.5 0.9 -1 0.6-2 1.3-2.9 2.3 -0.9 0.9-1.8 2-2.4 3.1 -0.7 1.2-1 2.3-1 3.5 0 1.1 0.2 1.6 0.7 1.6s0.9-0.1 1.5-0.4c0.6-0.3 1.1-0.6 1.7-0.9 0.6-0.4 1-0.7 1.5-1.1 0.4-0.3 0.7-0.6 0.8-0.8 0.7-1.4 1.4-2.6 2.1-3.8C114.3 25.4 115 24.4 115.5 23.5zM171.1 12.9c0 0 0.1 0.3 0.1 0.7 0 0.8-0.4 1.5-1.1 2 -0.7 0.5-1.4 0.8-2.3 1.1 -0.8 0.2-1.6 0.4-2.3 0.5 -0.7 0.1-1.1 0.1-1.1 0.1h-0.1c-0.2 0-0.3-0.1-0.3-0.4 0-0.2 0.2-0.3 0.5-0.4 0.3-0.1 0.7-0.2 1.2-0.3 0.5-0.1 1.1-0.3 1.7-0.6 0.6-0.3 1.2-0.8 1.8-1.4 0.2-0.2 0.3-0.4 0.3-0.6 0-0.5-0.5-1-1.5-1.4 -1-0.4-2.2-0.8-3.5-1 -1.4-0.3-2.7-0.5-4.1-0.6s-2.5-0.2-3.3-0.2c-1.6 0-2.7 0.5-3.2 1.5 -0.5 1-0.9 2.3-1 3.9 -0.1 1.6-0.2 3.6-0.4 5.8 -0.1 2.2-0.6 4.5-1.4 7 1.5 1.1 2.4 1.7 2.8 2 0.4 0.3 0.6 0.4 0.6 0.4 0 0.1 0 0.2 0.1 0.2 0.1 0 0.1 0.1 0.1 0.2 0 0.2-0.1 0.3-0.3 0.3 -0.1 0-0.3 0-0.4 0 -0.1 0-0.3-0.1-0.5-0.3 -0.2-0.1-0.6-0.4-1-0.7 -0.4-0.3-1-0.7-1.8-1.2 -0.5 1.5-1.2 3-2.1 4.7 -0.9 1.7-2 3.2-3.2 4.7 -1.3 1.4-2.7 2.6-4.3 3.5 -1.6 0.9-3.5 1.4-5.5 1.4 -1.3 0-2.5-0.3-3.5-0.8 -1-0.5-1.9-1.2-2.7-2 -0.7-0.8-1.3-1.8-1.7-2.8 -0.4-1-0.6-2.1-0.6-3.2 0-1.8 0.3-3.5 1-4.9 0.7-1.4 1.6-2.6 2.7-3.6 1.1-1 2.3-1.7 3.6-2.2 1.3-0.5 2.7-0.7 4-0.7 2.1 0 4 0.4 5.8 1.1 1.8 0.7 3.3 1.5 4.6 2.3 0.4-1.1 0.7-2.2 0.8-3.5 0.2-1.2 0.3-2.4 0.4-3.6 0.1-1.1 0.1-2.2 0.1-3.2 0-1 0-1.7 0.1-2.3 0-0.9 0.2-1.7 0.4-2.5 0.2-0.8 0.6-1.5 1.1-2.1 0.5-0.6 1.1-1.1 1.9-1.5 0.8-0.4 1.8-0.5 3-0.5 0.5 0 1.4 0.1 2.8 0.2 1.4 0.1 2.9 0.4 4.4 0.8 1.5 0.4 3 0.9 4.4 1.5S170.6 11.8 171.1 12.9zM147 31.8c0.3-0.6 0.6-1.3 0.8-1.9 0.2-0.6 0.5-1.2 0.7-1.8 -1.3-0.7-2.7-1.3-4.3-2 -1.6-0.6-3.4-0.9-5.2-0.9 -1.3 0-2.6 0.2-3.7 0.7 -1.2 0.5-2.2 1.1-3.1 1.9 -0.9 0.8-1.6 1.8-2.1 3 -0.5 1.2-0.8 2.4-0.8 3.9 0 2.2 0.6 3.9 1.8 5 1.2 1.1 2.7 1.6 4.4 1.6 1.4 0 2.6-0.3 3.8-0.9 1.2-0.6 2.3-1.4 3.2-2.3 0.9-0.9 1.8-2 2.5-3.1C145.8 33.8 146.4 32.8 147 31.8zM167 28c0 0 0 0 0.3 0.1 0.2 0 0.3 0.2 0.3 0.4 0 0.1-0.5 0.7-1.5 1.5 -1 0.9-2.3 1.8-3.9 2.8 -0.8 0.5-1.8 1.1-2.9 1.7 -1.1 0.6-2.3 0.9-3.7 0.9 -0.7-0.1-1.2-0.4-1.4-1.1 -0.3-0.6-0.4-1.2-0.4-1.8 0-1.3 0.4-2.6 1.1-4.1 0.7-1.5 1.6-2.9 2.7-4.2 1.1-1.3 2.3-2.4 3.6-3.3 1.3-0.9 2.6-1.3 3.8-1.3 0.3 0 0.7 0.1 1.3 0.4 0.6 0.2 0.8 0.7 0.8 1.2 0 0.6-0.1 1.2-0.3 1.9 -0.2 0.6-0.5 1.2-0.8 1.6 -0.3 0.5-0.6 0.9-0.8 1.2 -0.2 0.3-0.4 0.5-0.4 0.6l-0.1 0.1c-0.1 0.1-0.3 0.2-0.6 0.2 -0.4 0-0.8-0.1-1.1-0.4 -0.3-0.2-0.5-0.5-0.5-0.7 0 0 0-0.1 0-0.1 0 0 0-0.1 0-0.1l0.1-0.1c0.2-0.4 0.4-0.8 0.7-1.3 0.2-0.5 0.5-1 0.7-1.3 -0.1 0-0.2 0-0.2 0.1 -1 0.4-1.9 1-2.9 1.7 -0.9 0.7-1.8 1.5-2.5 2.4 -0.8 0.9-1.3 1.8-1.7 2.8 -0.4 1-0.7 2.1-0.8 3.1 0 0.3 0 0.5 0 0.6s0 0.1 0.1 0.1c0.1 0 0.3 0 0.5 0 0.2 0 0.4-0.1 0.7-0.1 1.4-0.3 2.6-0.8 3.8-1.4 1.2-0.6 2.2-1.2 3-1.8 0.8-0.6 1.5-1.1 2-1.6C166.6 28.2 166.9 28 167 28zM179.3 20.3c0.2 0.2 0.4 0.5 0.4 0.7 0 0.2 0.1 0.4 0.1 0.5l-0.1 0.1c-0.6 0.8-1.4 1.6-2.3 2.5 -0.9 0.9-1.9 1.9-2.9 2.8 -1 1-2 2-2.9 3 -0.9 1-1.7 2-2.3 3 0 0 0.1-0.1 0.1-0.1 1.8-0.9 3.5-1.8 5-2.6 1.5-0.8 2.2-1.3 2.2-1.4h-0.1c0.4 0 0.6 0.2 0.6 0.5 0 0.1-0.4 0.5-1.1 1 -0.7 0.5-1.5 1.1-2.3 1.7 -0.8 0.6-1.7 1.3-2.6 2 -0.9 0.7-1.9 1.1-2.7 1.2 -0.3 0-0.6-0.1-0.9-0.3l-0.4-0.5c-0.1-0.2-0.2-0.4-0.2-0.6 0-0.1 0-0.3 0-0.4 0-0.9 0.4-2 1.2-3.2 0.8-1.2 1.8-2.5 2.8-3.7 1.1-1.2 2.1-2.3 3.2-3.3 1-1 1.8-1.7 2.3-2.1 -0.4 0.2-1 0.5-1.6 0.7 -0.7 0.2-1.3 0.4-2 0.7l-0.7 0.2c-0.6 1-1.4 2-2.2 3 -0.8 1-1.6 1.9-2.4 2.7 -0.8 0.8-1.5 1.5-2.1 2 -0.6 0.5-1.1 0.8-1.3 0.9 -0.1 0-0.2-0.2-0.4-0.7 0 0-0.1-0.1-0.1-0.1v-0.1c0.5-0.2 1.4-0.9 2.5-2.1s2.4-2.9 3.7-5.1c-0.3-0.1-0.6-0.3-0.8-0.5 -0.2-0.3-0.4-0.6-0.4-1 0-0.1 0.1-0.4 0.3-0.8 0.2-0.4 0.4-0.8 0.7-1.2 0.3-0.4 0.7-0.8 1.1-1.1 0.4-0.3 0.9-0.5 1.5-0.5 0.4 0 0.7 0.2 0.9 0.5 0.2 0.3 0.4 0.7 0.4 1.1 0 0.3-0.1 0.6-0.2 0.8 -0.1 0.2-0.3 0.5-0.4 0.7 1.2-0.3 2.2-0.5 3-0.7 0.8-0.2 1.5-0.4 2.2-0.7C178.6 19.8 178.9 20 179.3 20.3zM170.5 21.8c0.1-0.1 0.2-0.2 0.3-0.4 0.1-0.2 0.2-0.4 0.3-0.5 -0.2 0.3-0.4 0.6-0.5 0.7C170.5 21.7 170.5 21.8 170.5 21.8L170.5 21.8zM184.5 30.7c0 0.1 0 0.2 0 0.2 0 0 0 0.1 0 0.1v0.1c0 0-0.4 0.3-1.1 0.8 -0.7 0.5-1.4 0.9-2.1 1.3 -0.7 0.4-1.5 0.9-2.3 1.5 -0.8 0.5-1.6 0.8-2.3 0.8s-1.2-0.2-1.5-0.7c-0.3-0.5-0.4-0.8-0.4-1 -0.1-0.3 0-0.8 0.3-1.7 0.3-0.8 0.8-1.9 1.7-3.3 0.8-1.4 1.7-2.7 2.5-3.9 0.8-1.2 1.6-2.2 2.4-3 0.7-0.8 1.2-1.3 1.3-1.5h0.1c0 0 0.1-0.1 0.2-0.1 0.3 0 0.6 0.2 1 0.6 0.4 0.4 0.5 0.7 0.5 1l-0.1 0.1c-0.5 0.7-1.1 1.5-1.9 2.4 -0.8 0.9-1.5 1.9-2.3 3 -0.8 1-1.5 2.1-2.1 3.1 -0.7 1-1.2 2-1.5 2.8 0.3 0.1 1-0.1 1.9-0.5 0.9-0.4 2-1 3.3-1.6 1.3-0.7 2-1 2.1-1l0.1 0.1c0 0 0.1 0 0.1 0.1C184.5 30.6 184.5 30.7 184.5 30.7zM189.3 17c-0.2 0.7-0.7 1.2-1.5 1.7 -0.8 0.5-1.6 0.9-2.5 1.2l-0.7-0.5c0 0 0.1-0.3 0.4-0.7 0.2-0.4 0.5-0.8 0.9-1.3 0.3-0.5 0.7-0.9 0.9-1.3 0.3-0.4 0.5-0.6 0.6-0.7 0 0 0.2 0.1 0.4 0.2 0.2 0.1 0.4 0.3 0.6 0.4 0.2 0.2 0.4 0.3 0.6 0.5C189.2 16.8 189.3 16.9 189.3 17L189.3 17zM199.7 20.5c0.4 0.2 0.6 0.6 0.7 1.2 0 0.4 0 0.6-0.1 0.7 -0.9 2.2-2.7 4.9-5.6 8.1s-5 4.8-6.4 4.9c-0.8-0.5-1.2-1.5-1.4-3 -0.2-1.5-0.2-2.4-0.2-2.7 0-0.3-0.4 0.1-1.1 1.1 -0.8 1-2 2.6-3.7 4.8 -1.7 2.2-3.2 4.1-4.7 5.9s-3 3.7-4.8 5.9c0 0-0.1 0-0.1 0.1 -0.1 0-0.3-0.1-0.4-0.2 -0.1-0.1-0.1-0.2-0.1-0.3 0.1-0.3 0.7-1.1 1.5-2.4 0.9-1.3 1.9-2.9 3.2-4.8 1.2-1.8 2.6-3.8 4-5.9 1.4-2.1 2.8-4.1 4-6 1.3-1.9 2.3-3.5 3.3-4.9 0.9-1.4 1.5-2.3 1.7-2.7V20c0.1-0.1 0.3-0.1 0.5-0.1 0.3 0 0.7 0.1 1.1 0.4 0.4 0.2 0.5 0.5 0.5 0.7 0.9-0.2 1.9-0.4 2.9-0.6 1-0.2 2.1-0.3 3.2-0.3 0.2 0 0.5 0 0.8 0.1C198.9 20.2 199.3 20.3 199.7 20.5zM197.3 23c0 0 0.1-0.2 0.2-0.4 -2.2 0-3.9 0.2-5.1 0.5 -1.2 0.3-2 0.8-2.5 1.5 -0.5 0.7-0.9 1.2-1.2 1.6s-0.6 0.9-1 1.5c0 0.1 0 0.5 0 1 0 0.5 0 1.1 0.1 1.7 0.1 0.6 0.2 1.2 0.4 1.8 0.2 0.6 0.4 1 0.7 1.4 0.6-0.3 1.4-0.9 2.2-1.7 0.8-0.8 1.6-1.7 2.4-2.8 0.8-1 1.5-2.1 2.2-3.1C196.3 24.9 196.9 23.9 197.3 23zM233.3 16.1c0.2 0 0.3 0.1 0.3 0.2 0 0.1-0.7 0.2-2 0.3 -1.3 0.1-3.1 0.1-5.2 0.2 -2.2 0-4.6 0.1-7.4 0.1 -2.8 0-5.6 0.1-8.5 0.1 -1 1.3-2.2 2.7-3.5 4.2 -1.3 1.5-2.5 2.9-3.6 4.4 -1.1 1.5-2.1 2.9-2.9 4.2 -0.8 1.4-1.3 2.7-1.6 3.9 1.2-0.1 2.2-0.4 3.1-0.9 0.9-0.5 1.5-1 2-1.4 0.4-0.4 0.8-0.7 1-0.9 0.2-0.2 0.4-0.3 0.5-0.4s0.1-0.1 0.2-0.1c0.3 0 0.4 0.1 0.4 0.4l-0.1-0.1c-0.1 0-0.3 0.2-0.7 0.7 -0.3 0.5-0.8 1-1.4 1.6 -0.6 0.6-1.3 1.1-2.1 1.6 -0.8 0.5-1.8 0.8-2.9 0.9 -0.3 0-0.6 0-0.7-0.1l-0.3-0.1c-0.1-0.1-0.3-0.3-0.6-0.7 -0.2-0.4-0.2-1 0-2 0.2-0.9 0.7-2.1 1.5-3.5 0.7-1.4 1.6-2.8 2.5-4.1 0.9-1.4 1.9-2.7 3-4 1-1.3 2-2.5 2.9-3.7 -3.3 0.1-6.5 0.2-9.3 0.2 -2.9 0-5.2 0.1-7.1 0.1 -0.7 0-1.3 0-1.8 0 -0.5 0-0.9 0-1.1-0.1h-0.1c-0.6 0-0.9-0.3-0.9-0.8 0-0.4 0.3-0.7 0.9-0.8h0.1c0.6-0.1 1.2-0.1 1.8-0.1 0.6 0 1.3 0 2 0h2.8 14c1.2-1.6 2.2-2.8 3-3.9 0.8-1 1.4-1.7 1.8-2V9.7c0.1-0.1 0.3-0.1 0.5-0.1 0.4 0 0.7 0.1 1 0.4 0.3 0.3 0.4 0.6 0.4 0.9 0 0.1 0 0.2-0.1 0.3h0.1l-0.1 0.1c-0.5 0.7-1 1.4-1.6 2.1 -0.6 0.7-1.2 1.5-1.8 2.3 2.9 0 5.6 0.1 8.2 0.1 2.6 0 4.9 0.1 6.9 0.1 2 0 3.6 0.1 4.8 0.1C232.7 16 233.3 16.1 233.3 16.1z"/></a><a xlink:href="http://omnibus-type.com/fonts/asap.php" xlink:show="new"><path fill="#FFFFFF" d="M78.1 67.2c0-0.1 0-0.2 0.1-0.3l5.2-14.3c0.1-0.2 0.4-0.3 0.9-0.3h0.6c0.5 0 0.8 0.1 0.9 0.3L90.9 67c0 0.1 0.1 0.2 0.1 0.3 0 0.2-0.3 0.4-0.9 0.4h-0.2c-0.5 0-0.8-0.1-0.9-0.3l-1.3-3.6h-6.4l-1.2 3.6c-0.1 0.2-0.4 0.3-0.9 0.3h-0.1C78.4 67.6 78.1 67.5 78.1 67.2zM81.9 62h5.2l-2.3-6.5 -0.3-1.3 -0.3 1.3L81.9 62zM92 66.4c0-0.1 0.1-0.4 0.3-0.7 0.2-0.3 0.3-0.4 0.5-0.4 0 0 0.1 0.1 0.3 0.2 0.2 0.1 0.5 0.3 0.9 0.4 0.4 0.1 0.9 0.2 1.5 0.2 0.6 0 1-0.2 1.4-0.5 0.4-0.3 0.6-0.8 0.6-1.3 0-0.6-0.2-1-0.5-1.3 -0.3-0.3-1-0.6-2-0.9 -1-0.3-1.7-0.6-2.1-1.1s-0.7-1.1-0.7-2c0-0.9 0.3-1.6 1-2.2 0.7-0.6 1.5-0.9 2.6-0.9 0.7 0 1.4 0.1 2 0.3 0.6 0.2 0.9 0.4 0.9 0.6 0 0.2-0.1 0.4-0.3 0.7 -0.2 0.3-0.3 0.4-0.4 0.4 0 0-0.1 0-0.3-0.1 -0.5-0.3-1.1-0.4-1.7-0.4 -0.6 0-1.1 0.1-1.4 0.4 -0.3 0.3-0.5 0.6-0.5 1s0.1 0.7 0.4 1c0.3 0.2 0.7 0.4 1.3 0.6 1.4 0.4 2.3 0.9 2.8 1.4 0.5 0.5 0.7 1.3 0.7 2.3 0 1-0.4 1.8-1.1 2.5 -0.7 0.7-1.6 1-2.6 1 -1 0-1.9-0.1-2.6-0.4C92.4 67 92 66.7 92 66.4zM108.6 60.5v-1c0-1.2-0.8-1.8-2.4-1.8 -1 0-2 0.2-2.9 0.7 -0.3 0.2-0.5 0.2-0.5 0.2 -0.1 0-0.3-0.1-0.5-0.4 -0.2-0.3-0.3-0.5-0.3-0.7 0-0.3 0.4-0.6 1.3-0.9 0.8-0.3 1.9-0.5 3.1-0.5 1.2 0 2.2 0.3 2.9 0.9 0.8 0.6 1.1 1.4 1.1 2.5v4.9c0 0.9 0 1.5 0.1 1.9 0.1 0.5 0.2 0.8 0.2 0.8 0 0.2-0.1 0.3-0.4 0.4 -0.3 0.1-0.5 0.1-0.6 0.1 -0.2 0-0.3 0-0.3 0 -0.1 0-0.1-0.1-0.2-0.2 -0.1-0.1-0.1-0.1-0.1-0.2 0-0.1-0.1-0.2-0.1-0.3 0-0.1-0.1-0.2-0.1-0.3 0-0.1 0-0.2-0.1-0.3 0-0.1 0-0.2-0.1-0.3 -1 1.1-2.2 1.6-3.7 1.6 -1.1 0-2-0.3-2.7-0.8s-1-1.4-1-2.6c0-1.1 0.4-2 1.2-2.6 0.8-0.6 1.7-0.9 2.7-1C106.2 60.6 107.3 60.5 108.6 60.5zM103.3 64.3c0 1.2 0.6 1.8 1.9 1.8 0.7 0 1.3-0.1 1.8-0.4 0.5-0.3 1-0.6 1.6-1.1V62c-1.8 0-3 0.1-3.5 0.3 -0.3 0.1-0.6 0.2-0.9 0.4C103.6 63 103.3 63.6 103.3 64.3zM115.8 71.6c0 0.3-0.3 0.5-0.9 0.5h-0.1c-0.6 0-0.9-0.2-0.9-0.5V59.5c0-0.9 0-1.5-0.1-1.9 -0.1-0.5-0.2-0.8-0.2-0.9 0-0.2 0.1-0.3 0.4-0.4 0.3-0.1 0.5-0.1 0.6-0.1 0.2 0 0.3 0 0.3 0 0.1 0 0.1 0.1 0.2 0.1 0.1 0.1 0.1 0.1 0.1 0.2 0 0.1 0.1 0.2 0.1 0.3 0 0.1 0.1 0.2 0.1 0.3 0 0.1 0 0.2 0.1 0.3 0 0.1 0 0.2 0.1 0.3 1-1.1 2.2-1.6 3.5-1.6 1.3 0 2.3 0.5 3.1 1.6 0.8 1.1 1.1 2.5 1.1 4.1V62c0 1.8-0.4 3.2-1.2 4.2s-1.8 1.5-3.1 1.5c-1.2 0-2.3-0.4-3.3-1.1V71.6zM118.5 66.1h0.1c0.9 0 1.6-0.4 2.1-1.1 0.5-0.7 0.7-1.7 0.7-3.1 0-1.4-0.2-2.4-0.7-3.2 -0.5-0.8-1.2-1.1-2.1-1.1 -1 0-1.9 0.5-2.8 1.5v6C116.6 65.8 117.5 66.1 118.5 66.1zM132 67.1V53c0-0.4 0.2-0.7 0.7-0.7h3.7c1.7 0 3.1 0.3 3.9 0.9 0.9 0.6 1.3 1.6 1.3 2.9 0 1.8-0.8 3-2.5 3.7v0.1c0.4 0.1 0.8 0.4 1.1 0.9 0.3 0.4 0.6 1 0.9 1.9l1.7 4.3c0 0.1 0.1 0.2 0.1 0.3 0 0.2-0.3 0.3-0.9 0.3h-0.2c-0.5 0-0.8-0.1-0.9-0.3l-1.7-4.3c-0.3-0.8-0.7-1.4-1.2-1.7 -0.5-0.3-1.2-0.4-2.1-0.4h-2v6.3c0 0.3-0.3 0.5-0.9 0.5h-0.2C132.3 67.6 132 67.4 132 67.1zM133.9 59.2h2.9c0.8 0 1.4-0.3 2-0.8 0.5-0.5 0.8-1.2 0.8-2 0-0.8-0.3-1.4-0.8-1.8 -0.5-0.4-1.2-0.6-2.2-0.6h-2.7V59.2zM145.7 66.3c-0.9-0.9-1.3-2.4-1.3-4.3 0-1.9 0.4-3.4 1.3-4.4 0.9-1 2.1-1.5 3.7-1.5 3.1 0 4.6 1.9 4.6 5.7 0 0.1-0.1 0.3-0.3 0.5 -0.2 0.2-0.3 0.3-0.5 0.3h-6.9c0.1 1.2 0.4 2.1 0.9 2.7 0.5 0.6 1.3 0.8 2.4 0.8 1 0 1.9-0.2 2.7-0.7 0.3-0.1 0.4-0.2 0.5-0.2 0.1 0 0.3 0.1 0.5 0.4s0.3 0.5 0.3 0.7c0 0.3-0.4 0.6-1.2 0.9 -0.8 0.3-1.7 0.5-2.7 0.5C147.9 67.7 146.5 67.2 145.7 66.3zM152 61c0-2.3-0.9-3.4-2.6-3.4 -1.9 0-2.9 1.1-3.1 3.4H152zM155.7 69.3c0-1.2 0.8-2.1 2.5-2.7 -0.9-0.4-1.4-1-1.4-1.8 0-0.8 0.6-1.4 1.7-1.8 -0.6-0.3-1.1-0.7-1.5-1.3 -0.3-0.6-0.5-1.2-0.5-1.9 0-1.1 0.4-2 1.1-2.7 0.8-0.7 1.8-1.1 3.2-1.1 0.5 0 1 0 1.4 0.1h3.8c0.3 0 0.4 0.2 0.4 0.7v0.3c0 0.4-0.1 0.7-0.4 0.7h-1.5c0.5 0.6 0.7 1.3 0.7 2.1 0 1.1-0.4 2-1.2 2.7 -0.8 0.7-1.8 1.1-3.2 1.1h-0.2c-1.3 0.1-1.9 0.4-1.9 0.9 0 0.3 0.3 0.5 0.8 0.7 0.5 0.2 1.1 0.3 1.8 0.4 0.7 0.1 1.4 0.2 2.2 0.4 0.7 0.2 1.3 0.5 1.8 1 0.5 0.5 0.8 1.1 0.8 1.9 0 1-0.5 1.8-1.5 2.5 -1 0.6-2.3 1-3.9 1s-2.9-0.2-3.7-0.6C156.1 71.1 155.7 70.4 155.7 69.3zM157.6 69.1c0 1 1.1 1.5 3.3 1.5 1 0 1.8-0.2 2.4-0.5 0.6-0.3 0.9-0.7 0.9-1.2 0-0.4-0.2-0.7-0.5-0.9 -0.6-0.3-1.5-0.6-3-0.7 -0.4-0.1-0.7-0.1-0.9-0.2 -0.6 0.2-1.1 0.5-1.5 0.9C157.8 68.3 157.6 68.7 157.6 69.1zM158.3 59.8c0 1.5 0.8 2.2 2.5 2.2 1.6 0 2.5-0.7 2.5-2.2 0-1.5-0.8-2.2-2.5-2.2C159.1 57.6 158.3 58.3 158.3 59.8zM168.5 64.2v-7.6c0-0.3 0.3-0.5 0.9-0.5h0.1c0.6 0 0.9 0.2 0.9 0.5V64c0 0.7 0.2 1.2 0.6 1.6 0.4 0.4 0.9 0.6 1.6 0.6 1 0 2-0.5 2.7-1.5v-8c0-0.3 0.3-0.5 0.9-0.5h0.1c0.6 0 0.9 0.2 0.9 0.5v7.7c0 0.9 0 1.5 0.1 1.9 0.1 0.5 0.2 0.8 0.2 0.8 0 0.2-0.1 0.3-0.4 0.4 -0.3 0.1-0.5 0.1-0.6 0.1 -0.2 0-0.3 0-0.3 0 -0.1 0-0.1-0.1-0.2-0.2 -0.1-0.1-0.1-0.1-0.1-0.2 0-0.1-0.1-0.2-0.1-0.3 0-0.1-0.1-0.2-0.1-0.3 0-0.1 0-0.2-0.1-0.3 0-0.1 0-0.2-0.1-0.3 -1 1.1-2.1 1.6-3.3 1.6 -1.2 0-2.1-0.3-2.7-0.9C168.8 66.1 168.5 65.3 168.5 64.2zM180.8 64.7v-13c0-0.3 0.3-0.5 0.9-0.5h0.1c0.6 0 0.9 0.2 0.9 0.5v12.9c0 1.1 0.4 1.6 1.2 1.6 0.2 0 0.5 0 0.6-0.1 0.2 0 0.3-0.1 0.3-0.1 0.1 0 0.2 0.1 0.3 0.4 0.1 0.3 0.1 0.5 0.1 0.6 0 0.4-0.5 0.7-1.6 0.7 -0.7 0-1.4-0.2-2-0.7C181.1 66.6 180.8 65.8 180.8 64.7zM193.8 60.5v-1c0-1.2-0.8-1.8-2.4-1.8 -1 0-2 0.2-2.9 0.7 -0.3 0.2-0.5 0.2-0.5 0.2 -0.1 0-0.3-0.1-0.5-0.4 -0.2-0.3-0.3-0.5-0.3-0.7 0-0.3 0.4-0.6 1.3-0.9 0.9-0.3 1.9-0.5 3.1-0.5 1.2 0 2.2 0.3 2.9 0.9 0.8 0.6 1.1 1.4 1.1 2.5v4.9c0 0.9 0 1.5 0.1 1.9 0.1 0.5 0.2 0.8 0.2 0.8 0 0.2-0.1 0.3-0.4 0.4 -0.3 0.1-0.5 0.1-0.6 0.1 -0.2 0-0.3 0-0.3 0 -0.1 0-0.1-0.1-0.2-0.2 -0.1-0.1-0.1-0.1-0.1-0.2 0-0.1-0.1-0.2-0.1-0.3 0-0.1-0.1-0.2-0.1-0.3 0-0.1 0-0.2-0.1-0.3 0-0.1 0-0.2-0.1-0.3 -1 1.1-2.2 1.6-3.7 1.6 -1.1 0-2-0.3-2.7-0.8 -0.7-0.6-1-1.4-1-2.6 0-1.1 0.4-2 1.2-2.6 0.8-0.6 1.7-0.9 2.7-1C191.4 60.6 192.5 60.5 193.8 60.5zM188.5 64.3c0 1.2 0.6 1.8 1.9 1.8 0.7 0 1.3-0.1 1.8-0.4 0.5-0.3 1-0.6 1.6-1.1V62c-1.8 0-3 0.1-3.5 0.3 -0.3 0.1-0.6 0.2-0.9 0.4C188.8 63 188.5 63.6 188.5 64.3zM199.3 67.1v-7.7c0-0.9 0-1.5-0.1-1.9 -0.1-0.5-0.2-0.8-0.2-0.9 0-0.2 0.1-0.3 0.4-0.4 0.3-0.1 0.5-0.1 0.6-0.1s0.3 0 0.3 0c0.1 0 0.1 0.1 0.2 0.1 0.1 0.1 0.1 0.1 0.1 0.2 0 0.1 0.1 0.2 0.1 0.3 0 0.1 0.1 0.2 0.1 0.3 0 0.1 0 0.2 0.1 0.3 0 0.1 0 0.2 0.1 0.3 0.8-1.1 1.6-1.6 2.5-1.6 0.4 0 0.7 0.1 0.9 0.2 0.2 0.2 0.3 0.4 0.3 0.6s0 0.5-0.1 0.8c-0.1 0.3-0.2 0.4-0.3 0.4 -0.1 0-0.2 0-0.4-0.1 -0.2-0.1-0.5-0.1-0.8-0.1s-0.6 0.1-1 0.3c-0.3 0.2-0.6 0.4-0.7 0.7l-0.3 0.3v8c0 0.3-0.3 0.5-0.9 0.5h-0.1C199.6 67.6 199.3 67.4 199.3 67.1zM109.2 93.3c0-0.1 0-0.2 0.1-0.4l4.8-14c0.1-0.3 0.5-0.5 1.2-0.5h1.1c0.7 0 1.1 0.2 1.2 0.5l4.8 14c0 0.1 0.1 0.3 0.1 0.4 0 0.3-0.4 0.5-1.1 0.5h-1c-0.7 0-1.1-0.2-1.2-0.5l-0.9-2.7h-5.1l-0.9 2.7c-0.1 0.3-0.4 0.5-1 0.5h-0.9C109.6 93.8 109.2 93.6 109.2 93.3zM114.2 87.8h3.3l-1.2-3.9 -0.3-1.4h-0.1c-0.1 0.7-0.2 1.1-0.3 1.4L114.2 87.8zM123.2 92.4c0-0.2 0.1-0.6 0.4-1 0.3-0.4 0.5-0.6 0.7-0.6 0 0 0.3 0.1 0.8 0.3s0.9 0.3 1.4 0.3c0.9 0 1.3-0.3 1.3-1 0-0.3-0.1-0.6-0.4-0.8 -0.3-0.2-0.7-0.4-1.1-0.5 -0.4-0.1-0.9-0.3-1.3-0.5 -0.4-0.2-0.8-0.5-1.1-1 -0.3-0.5-0.4-1.1-0.4-1.8 0-1.1 0.4-2 1.1-2.6 0.7-0.6 1.7-0.9 2.9-0.9 0.6 0 1.1 0.1 1.7 0.2 1 0.2 1.6 0.6 1.6 1.2 0 0.2-0.1 0.5-0.3 0.9 -0.2 0.4-0.4 0.7-0.6 0.7 0 0-0.2-0.1-0.6-0.2 -0.4-0.2-0.8-0.2-1.2-0.2 -0.8 0-1.2 0.3-1.2 0.8 0 0.3 0.1 0.5 0.4 0.7 0.3 0.2 0.7 0.3 1.1 0.5 0.4 0.2 0.9 0.3 1.3 0.6 0.4 0.2 0.8 0.6 1.1 1.1 0.3 0.5 0.4 1.1 0.4 1.8 0 1.1-0.4 2.1-1.1 2.8 -0.7 0.7-1.7 1-2.8 1s-2.1-0.1-2.8-0.4C123.6 93.2 123.2 92.9 123.2 92.4zM132.5 90.7c0-0.4 0-0.8 0.1-1.1 0.1-0.3 0.2-0.7 0.5-1.1 0.3-0.4 0.6-0.7 1-0.9 1-0.6 2.6-0.9 4.6-0.9V86c0-0.8-0.6-1.2-1.7-1.2 -0.8 0-1.6 0.2-2.3 0.5 -0.3 0.1-0.4 0.2-0.5 0.2 -0.2 0-0.5-0.2-0.7-0.7 -0.3-0.5-0.4-0.8-0.4-1.1 0-0.4 0.4-0.7 1.2-1 0.8-0.3 1.8-0.5 3-0.5 3.1 0 4.7 1.2 4.7 3.6v4.1c0 0.9 0 1.7 0.1 2.3l0.1 0.9c0 0.2-0.3 0.4-0.9 0.5 -0.6 0.1-1 0.2-1.3 0.2s-0.5 0-0.6-0.1c-0.1-0.1-0.2-0.2-0.2-0.3 -0.1-0.1-0.1-0.2-0.1-0.3 0-0.1-0.1-0.2-0.1-0.4 0-0.2-0.1-0.3-0.1-0.4 -0.3 0.5-0.7 0.9-1.4 1.2 -0.6 0.3-1.3 0.5-1.9 0.5 -1.1 0-1.9-0.3-2.5-0.9C132.7 92.5 132.5 91.7 132.5 90.7zM135.7 90.4c0 0.3 0.1 0.5 0.3 0.7 0.2 0.2 0.5 0.3 0.9 0.3 0.4 0 0.7-0.1 1.1-0.4s0.6-0.6 0.8-1v-1.2C136.7 88.8 135.7 89.3 135.7 90.4zM145 97.5V86.2c0-1.1 0-1.9-0.1-2.3 -0.1-0.4-0.1-0.7-0.1-0.8 0-0.2 0.3-0.4 0.9-0.5 0.6-0.1 1-0.2 1.3-0.2s0.5 0 0.6 0.1c0.1 0.1 0.2 0.1 0.2 0.3 0.1 0.1 0.1 0.2 0.1 0.3 0 0.1 0.1 0.2 0.1 0.4 0 0.2 0.1 0.3 0.1 0.3 0.3-0.5 0.7-0.9 1.2-1.2s1.1-0.5 1.8-0.5c1.2 0 2.2 0.5 2.9 1.6 0.8 1 1.1 2.5 1.1 4.3s-0.4 3.3-1.2 4.3c-0.8 1.1-1.9 1.6-3.4 1.6 -0.9 0-1.6-0.2-2.2-0.7v4.3c0 0.5-0.4 0.7-1.3 0.7h-0.6C145.4 98.2 145 98 145 97.5zM149.7 91.4c1.4 0 2-1.1 2-3.3s-0.6-3.3-1.8-3.3c-0.7 0-1.3 0.4-1.8 1.3v4.9C148.7 91.2 149.2 91.4 149.7 91.4zM162.7 92.9V79.3c0-0.6 0.3-0.9 0.9-0.9h4.3c1.8 0 3.1 0.3 3.9 1 0.8 0.7 1.2 1.6 1.2 2.8 0 0.7-0.2 1.4-0.7 2 -0.4 0.6-1 1-1.7 1.3l0 0.1c0.9 0.2 1.6 0.6 2.1 1.3 0.6 0.7 0.8 1.4 0.8 2.3 0 1.4-0.5 2.5-1.4 3.3s-2.3 1.1-4.1 1.1h-4.6C163 93.7 162.7 93.4 162.7 92.9zM166 84.6h1.5c0.6 0 1.1-0.2 1.5-0.5s0.5-0.7 0.5-1.2c0-1.1-0.7-1.6-2-1.6H166V84.6zM166 90.9h2.1c0.6 0 1.1-0.2 1.5-0.5 0.3-0.3 0.5-0.7 0.5-1.3 0-1.1-0.8-1.7-2.4-1.7H166V90.9zM176.4 92.4c-0.9-1-1.4-2.5-1.4-4.4 0-1.9 0.5-3.4 1.4-4.4 0.9-1 2.2-1.5 3.9-1.5 1.7 0 3 0.5 3.9 1.5 0.9 1 1.3 2.5 1.3 4.4 0 1.9-0.4 3.4-1.3 4.4 -0.9 1-2.2 1.5-3.9 1.5C178.6 93.9 177.3 93.4 176.4 92.4zM178.3 88c0 2.2 0.7 3.3 2 3.3s2-1.1 2-3.3c0-2.2-0.7-3.3-2-3.3S178.3 85.8 178.3 88zM191.9 91.4l0.6-0.1c0.2 0 0.3 0.2 0.5 0.6 0.1 0.4 0.2 0.7 0.2 0.9 0 0.7-0.7 1.1-2.1 1.1 -2.1 0-3.2-1.2-3.2-3.5V78c0-0.5 0.4-0.7 1.3-0.7h0.6c0.9 0 1.3 0.2 1.3 0.7v12.4C191.1 91 191.4 91.4 191.9 91.4zM198 93.9c-1.2 0-2.2-0.5-2.9-1.6 -0.8-1-1.1-2.5-1.1-4.3 0-1.8 0.4-3.3 1.2-4.3 0.8-1.1 1.9-1.6 3.4-1.6 0.9 0 1.6 0.2 2.2 0.7V78c0-0.5 0.4-0.7 1.3-0.7h0.6c0.9 0 1.3 0.2 1.3 0.7v11.9c0 0.9 0 1.7 0.1 2.3l0.1 0.9c0 0.2-0.3 0.4-0.9 0.5 -0.6 0.1-1 0.2-1.3 0.2 -0.3 0-0.5 0-0.6-0.1 -0.1-0.1-0.2-0.2-0.2-0.3 -0.1-0.1-0.1-0.2-0.1-0.3 0-0.1-0.1-0.2-0.1-0.4 0-0.2-0.1-0.3-0.1-0.4 -0.3 0.5-0.7 0.9-1.2 1.2C199.2 93.8 198.6 93.9 198 93.9zM199 91.3c0.7 0 1.3-0.4 1.8-1.3v-4.9c-0.5-0.3-1-0.4-1.5-0.4 -1.4 0-2 1.1-2 3.3C197.2 90.2 197.8 91.3 199 91.3z"/></a></svg>