<svg xmlns="http://www.w3.org/2000/svg" xmlns:xlink="http://www.w3.org/1999/xlink" version="1.2" baseProfile="tiny" x="0" y="0" viewBox="-116.8 50 233.6 100" xml:space="preserve"><text transform="matrix(1 0 0 1 7.1079 13.5215)" opacity="0">x</text><a xlink:href="http://www.huertatipografica.com/fonts/alegreya-ht-pro" xlink:show="new"><path fill="#FFFFFF" d="M-72.9 68.5c0.1 0.4 0.2 0.7 0.4 1 0.1 0.2 0.4 0.5 0.6 0.6 0.2 0.1 0.5 0.2 0.8 0.4 0.4 0.1 0.7 0.1 1.1 0.1v0.1l-0.2 1.2c-0.4 0-0.8 0-1.2 0s-0.7 0-1.1 0c-0.4 0-0.7 0-1 0 -0.6 0-1.1 0-1.7 0 -0.5 0-1 0.1-1.4 0.1s-1 0.1-1.3 0.1l-0.1-0.2 0.1-1.2c1.1-0.1 1.7-0.2 2.1-0.4 0.4-0.1 0.6-0.4 0.6-0.7s-0.1-0.8-0.2-1.4l-1-3.2c-0.1 0-0.4 0-0.7 0 -0.2 0-0.6 0-0.8 0 -0.2 0-0.6 0-0.8 0 -0.2 0-0.5 0-0.7 0 -0.6 0-1.2 0-1.8 0.1 -0.6 0-1.1 0.1-1.4 0.1l-1.1 3.1c-0.1 0.5-0.2 1-0.2 1.2 0 0.5 0.1 0.7 0.4 1 0.2 0.2 0.7 0.2 1.3 0.2h1.7v0.1l-0.1 1.3c-0.5 0-0.8 0-1.3-0.1 -0.4 0-0.8-0.1-1.3-0.1s-1 0-1.4 0c-0.4 0-0.7 0-1.1 0s-0.7 0-1.1 0 -0.7 0-1.1 0l0.2-1.4c0.6 0 1-0.2 1.3-0.6 0.4-0.4 0.7-0.8 1-1.7l5.8-15 1.9-0.5h0.2c0.5 1.8 1 3.6 1.5 5.5 0.2 0.8 0.5 1.7 0.7 2.5 0.2 0.8 0.5 1.8 0.8 2.6 0.2 1 0.6 1.8 0.8 2.7C-73.5 66.9-73.2 67.7-72.9 68.5zM-82.1 63.8h2.6c0.4 0 0.8 0 1.4 0s1-0.1 1.3-0.1l-2.4-7.7h-0.2L-82.1 63.8zM-69.4 71c0.5-0.1 0.7-0.2 1-0.5 0.2-0.1 0.4-0.4 0.5-0.6s0.1-0.6 0.1-0.8c0-0.4 0-0.7 0-1.2V53.4c0-1.1-0.4-1.5-1.1-1.5 -0.1 0-0.4 0-0.5 0s-0.1 0-0.2 0c0-0.1 0-0.2 0-0.2 0-0.1 0-0.1 0-0.2v-0.6c0.5 0 1.1-0.1 1.5-0.2 0.5-0.1 1-0.2 1.4-0.2 0.5-0.1 1-0.2 1.4-0.4l0.1 0.4c0 0.1-0.1 0.5-0.2 1 -0.1 0.6-0.1 1.3-0.2 2.1 -0.1 1-0.1 1.9-0.1 3.1 0 1.2-0.1 2.4-0.1 3.8 0 1.3-0.1 2.7-0.1 4.2 0 1.4 0 3 0 4.4 0 0.6 0.1 1.1 0.2 1.3s0.5 0.4 0.8 0.4c0.1 0 0.2 0 0.4 0 0.1 0 0.2 0 0.4 0s0.2 0 0.4 0v0.1l-0.2 1.3c-0.2 0-0.6 0-1 0 -0.2 0-0.6 0-0.8 0 -0.2 0-0.6 0-0.8 0 -0.4 0-0.6 0-1 0s-0.7 0.1-1 0.1c-0.4 0-0.7 0.1-1.1 0.1L-69.4 71zM-59.9 64.3v0.5c0 0.8 0.1 1.5 0.4 2.3 0.1 0.7 0.5 1.3 0.8 1.8 0.4 0.5 0.8 0.8 1.4 1.1 0.6 0.2 1.2 0.4 1.8 0.4 0.5 0 1 0 1.3-0.1 0.4-0.1 0.8-0.2 1.2-0.4 0.4-0.1 0.7-0.2 1.1-0.5h0.1l0.4 0.8c-0.5 0.4-1.1 0.7-1.5 1 -0.5 0.2-1 0.5-1.4 0.7s-1 0.4-1.4 0.4c-1 0-1.8-0.1-2.5-0.5 -0.7-0.4-1.4-0.7-2-1.3 -0.6-0.6-1-1.3-1.3-2 -0.2-0.8-0.5-1.7-0.5-2.6s0.1-2 0.5-2.9c0.4-1 0.8-1.7 1.4-2.4 0.6-0.7 1.3-1.2 2-1.7 0.8-0.4 1.7-0.6 2.5-0.6 3 0 4.4 1.4 4.4 4.3 0 0.4 0 0.7 0 0.8s0 0.4-0.1 0.6l-0.4 0.4C-51.8 64.3-59.9 64.3-59.9 64.3zM-54.5 62.9c0.2 0 0.5-0.1 0.6-0.2 0.1-0.1 0.1-0.2 0.1-0.6 0-0.8-0.2-1.4-0.6-1.8 -0.5-0.4-1.1-0.6-1.8-0.6 -1 0-1.7 0.4-2.4 1 -0.7 0.6-1.1 1.4-1.3 2.5L-54.5 62.9zM-43.3 68.1c-0.2 0-0.6 0-0.8 0 -0.2 0-0.6-0.1-0.8-0.1 -0.8 0.5-1.2 0.8-1.2 1.3 0 0.5 0.2 0.8 0.8 1.1 0.6 0.2 1.4 0.4 2.7 0.4 2.3 0.1 3.9 0.5 4.9 1s1.4 1.2 1.4 2.3c0 0.7-0.2 1.3-0.6 2 -0.4 0.6-1 1.2-1.7 1.7s-1.4 1-2.4 1.2c-0.8 0.2-1.8 0.5-2.7 0.5 -1.4 0-2.5-0.4-3.3-1.1 -0.8-0.7-1.2-1.7-1.2-2.9 0.2-0.4 0.5-0.7 0.8-1 0.4-0.4 0.7-0.6 1-0.8 0.4-0.2 0.7-0.6 1.1-0.8v-0.1c-0.5 0-0.8-0.1-1.3-0.4 -0.4-0.1-0.7-0.4-1.1-0.6 -0.4-0.2-0.5-0.6-0.7-0.8 -0.1-0.4-0.2-0.7-0.2-1.1 0.2-0.2 0.5-0.5 0.7-0.7s0.6-0.5 0.8-0.6c0.2-0.2 0.6-0.4 0.8-0.6v-0.1c-0.7-0.4-1.2-1-1.7-1.5 -0.4-0.7-0.6-1.4-0.6-2.4 0-0.7 0.1-1.4 0.5-2 0.2-0.6 0.7-1.2 1.2-1.7 0.5-0.5 1.1-0.8 1.8-1.2 0.7-0.2 1.4-0.5 2.1-0.5 0.6 0 1.1 0 1.5 0.1s1 0.1 1.3 0.1c0.4 0 0.8-0.1 1.3-0.2s1-0.2 1.3-0.2c0.5-0.1 1-0.2 1.4-0.4l0.1 0.1 -0.4 1.7c-0.2 0-0.5 0-0.8 0.1 -0.2 0-0.5 0.1-0.8 0.1 -0.4 0-0.6 0-1 0.1l-0.1 0.1c0.8 0.8 1.2 1.9 1.2 3 0 0.7-0.1 1.4-0.5 2.1 -0.4 0.6-0.7 1.2-1.2 1.7s-1.2 0.8-1.9 1.1C-41.6 67.9-42.5 68.1-43.3 68.1zM-42.6 66.7c1 0 1.7-0.2 2.1-0.8 0.5-0.6 0.8-1.3 0.8-2.4 0-1.2-0.4-2-1-2.7 -0.6-0.7-1.4-1.1-2.5-1.1 -1 0-1.7 0.2-2.1 0.8 -0.5 0.6-0.8 1.4-0.8 2.4 0 1.2 0.4 2 1 2.7C-44.4 66.4-43.5 66.7-42.6 66.7zM-42.6 77.6c0.6 0 1.1-0.1 1.7-0.2 0.5-0.1 1-0.4 1.4-0.6 0.4-0.2 0.7-0.6 1-1 0.2-0.4 0.4-0.7 0.4-1.1 0-0.2-0.1-0.6-0.2-0.7 -0.1-0.2-0.5-0.4-0.8-0.6 -0.5-0.1-1-0.4-1.8-0.5 -0.7-0.1-1.7-0.2-2.9-0.5 -0.4 0.2-0.7 0.6-1 0.8s-0.5 0.6-0.6 0.8c-0.2 0.4-0.2 0.6-0.2 1 0 0.7 0.2 1.3 0.8 1.8C-44.4 77.3-43.7 77.6-42.6 77.6zM-32.1 70.2c0.2-0.4 0.2-1 0.2-1.9v-6.5c0-0.6-0.1-1.1-0.2-1.4 -0.1-0.2-0.5-0.4-0.8-0.4 -0.1 0-0.2 0-0.5 0 -0.1 0-0.1 0-0.1 0l-0.1-0.2 0.1-1c0.5-0.1 1-0.1 1.4-0.2 0.5-0.1 0.8-0.2 1.3-0.2 0.5-0.1 1-0.2 1.3-0.4l0.2 0.1c0 0.4-0.1 0.6-0.1 1 0 0.2-0.1 0.6-0.1 1 0 0.4 0 0.7 0 1.1l0.1 0.1c0.2-0.5 0.6-1 1-1.3 0.4-0.4 0.7-0.7 1.1-1 0.4-0.2 0.7-0.5 1.1-0.6 0.4-0.1 0.7-0.2 1-0.2 0.2 0 0.5 0 0.7 0 0.1 0 0.1 0 0.2 0l0.1 0.1 -0.2 1.4c0 0.4-0.1 0.8-0.1 1.3 0 0.5-0.1 1-0.1 1.4l-1.2 0.1c0-0.8 0-1.3-0.1-1.7 -0.1-0.2-0.4-0.4-0.6-0.4 -0.5 0-1 0.1-1.4 0.5 -0.5 0.4-1 0.8-1.3 1.4 0 1.1-0.1 1.9-0.1 2.7 0 0.4 0 0.7 0 1.1 0 0.4 0 0.7 0 1 0 0.2 0 0.6 0 0.7 0 0.2 0 0.4 0 0.5 0 0.7 0.1 1.1 0.2 1.3 0.2 0.2 0.6 0.4 1.2 0.4 0.1 0 0.2 0 0.4 0s0.2 0 0.5 0c0.1 0 0.4 0 0.5 0v0.1l-0.6 1.9c-0.4 0-0.7 0-1.1 0 -0.4 0-0.6 0-1 0 -0.4 0-0.7 0-1 0 -0.5 0-0.8 0-1.2 0 -0.4 0-0.7 0-1 0 -0.4 0-0.6 0-0.8 0l0.1-1.2C-32.7 70.8-32.4 70.5-32.1 70.2zM-20.5 64.3v0.5c0 0.8 0.1 1.5 0.4 2.3 0.2 0.7 0.5 1.3 0.8 1.8 0.4 0.5 0.8 0.8 1.4 1.1 0.6 0.2 1.2 0.4 1.8 0.4 0.5 0 1 0 1.3-0.1 0.5-0.1 0.8-0.2 1.2-0.4 0.4-0.1 0.7-0.2 1.1-0.5h0.1l0.4 0.8c-0.5 0.4-1.1 0.7-1.5 1 -0.5 0.2-1 0.5-1.4 0.7 -0.5 0.2-1 0.4-1.4 0.4 -1 0-1.8-0.1-2.5-0.5 -0.7-0.4-1.4-0.7-2-1.3 -0.6-0.6-1-1.3-1.3-2 -0.2-0.8-0.5-1.7-0.5-2.6s0.1-2 0.5-2.9c0.4-1 0.8-1.7 1.4-2.4 0.6-0.7 1.3-1.2 2-1.7 0.8-0.4 1.7-0.6 2.5-0.6 3 0 4.4 1.4 4.4 4.3 0 0.4 0 0.7 0 0.8s0 0.4-0.1 0.6l-0.4 0.4C-12.4 64.3-20.5 64.3-20.5 64.3zM-15 62.9c0.2 0 0.5-0.1 0.6-0.2s0.1-0.2 0.1-0.6c0-0.8-0.2-1.4-0.6-1.8 -0.5-0.4-1.1-0.6-1.8-0.6 -1 0-1.7 0.4-2.4 1 -0.7 0.6-1.1 1.4-1.3 2.5L-15 62.9zM-3.7 69.2c0.4-0.8 0.7-1.7 1.1-2.6 0.4-1 0.8-1.9 1.1-2.7 0.4-0.8 0.6-1.7 0.8-2.3 0.2-0.6 0.4-1.1 0.4-1.2 0-0.5-0.4-0.7-1.1-0.7h-1.3v-0.1l0.1-1c0.2 0 0.6 0 1 0 0.2 0 0.6 0 1 0s0.7 0 1.1 0H2c0.2 0 0.6 0 0.8 0l-0.2 1.1c-0.5 0.1-0.8 0.2-1 0.5 -0.2 0.2-0.5 0.6-0.6 1.2l-3.8 9c-0.7 1.8-1.4 3.2-2 4.3 -0.6 1.2-1.1 2-1.5 2.7 -0.5 0.7-1 1.1-1.4 1.4 -0.5 0.2-1.1 0.4-1.7 0.4 -0.1 0-0.2-0.1-0.4-0.2 -0.1-0.1-0.2-0.4-0.5-0.5 -0.2-0.1-0.2-0.4-0.4-0.6s-0.1-0.4-0.1-0.5l0.1-0.2c1.2 0 2.3-0.5 3.2-1.4 1.1-1 1.9-2.1 2.5-3.8 -0.2-0.7-0.5-1.5-0.8-2.5 -0.4-1-0.7-1.9-1.1-3 -0.4-1-0.7-2-1.1-3 -0.4-1-0.7-1.8-1-2.5 -0.2-0.5-0.5-0.8-0.8-1.1 -0.4-0.2-0.7-0.4-1.2-0.4v-0.1l0.1-1c0.4 0 0.7 0 1 0h1.4c0.5 0 0.8 0 1.3 0 0.5 0 0.8 0 1.2-0.1 0.4 0 0.7-0.1 1.1-0.1v0.1l0 1c-0.7 0-1.2 0.1-1.4 0.2s-0.4 0.2-0.4 0.6c0 0.1 0 0.4 0.1 0.7 0.1 0.4 0.1 0.7 0.2 1.2 0.1 0.5 0.2 1 0.4 1.4 0.1 0.5 0.4 1.1 0.5 1.5C-4.8 66.3-4.5 67.7-3.7 69.2L-3.7 69.2zM11 63.3c0-1-0.2-1.8-0.7-2.4 -0.5-0.6-1.1-0.8-1.9-0.8 -0.5 0-1 0.1-1.3 0.2 -0.4 0.1-0.8 0.4-1.1 0.5 -0.4 0.2-0.7 0.5-1.1 0.7H4.7l-0.4-1.3c0.7-0.4 1.3-0.7 1.9-1.1 0.5-0.2 1.1-0.5 1.5-0.7 0.6-0.2 1-0.4 1.3-0.4 1.3 0 2.3 0.4 3 1 0.7 0.7 1.1 1.7 1.1 2.9 0 0.2 0 0.7-0.1 1.3 0 0.6-0.1 1.2-0.1 1.9 0 0.7-0.1 1.3-0.1 2 0 0.7-0.1 1.2-0.1 1.7 0 1 0.4 1.3 1.2 1.3 0.2 0 0.5 0 0.7-0.1 0.2-0.1 0.4-0.1 0.6-0.2 0.2-0.1 0.4-0.2 0.5-0.4l0.4 0.5c-0.2 0.4-0.5 0.7-0.7 1 -0.2 0.2-0.5 0.6-0.8 0.8s-0.6 0.5-1.1 0.6c-1.7 0-2.5-0.8-2.6-2.4h-0.1c-0.7 0.7-1.3 1.3-1.9 1.7s-1.1 0.6-1.3 0.6c-0.6 0-1.1-0.1-1.5-0.2 -0.5-0.1-0.8-0.5-1.2-0.7 -0.4-0.4-0.6-0.7-0.8-1.2 -0.2-0.5-0.2-1-0.2-1.4 0-0.6 0.1-1.1 0.5-1.5 0.2-0.5 0.7-0.7 1.2-0.8l5.6-1.5L11 63.3zM10.9 65.7l-4 1.2C6.2 67 6 67.5 6 68.1s0.2 1.1 0.6 1.4c0.4 0.4 0.8 0.6 1.4 0.6 0.4 0 0.8-0.1 1.3-0.4 0.5-0.2 1-0.6 1.4-1.1L10.9 65.7zM28.7 63.8l-0.1 4.4c0 0.5 0 1 0 1.3s0.1 0.6 0.2 0.7c0.1 0.1 0.4 0.2 0.6 0.4 0.2 0 0.7 0.1 1.2 0.1v0.1L30.3 72c-0.4 0-0.7 0-1.1 0 -0.4 0-0.6 0-1 0s-0.7 0-1.1 0 -0.7 0-1.2 0c-0.4 0-0.7 0-1.1 0s-0.8 0-1.2 0l0.2-1.3c0.5 0 0.8-0.1 1.1-0.2 0.2-0.1 0.5-0.2 0.7-0.4 0.1-0.1 0.2-0.4 0.4-0.7 0.1-0.4 0.1-0.6 0.1-1.1V55.9c0-0.6-0.1-1.1-0.2-1.3 -0.1-0.2-0.5-0.4-0.8-0.4 -0.1 0-0.2 0-0.4 0 -0.1 0-0.2 0-0.4 0 -0.1 0-0.2 0-0.4 0v-0.1l0.2-1.3c0.4 0 0.8 0 1.2 0 0.4 0 0.7 0 1.1 0s0.7 0 1 0c0.2 0 0.6 0 1 0s0.8 0 1.2 0c0.5 0 1 0 1.4 0 1.9 0 3.3 0.4 4.4 1.2 1.1 0.8 1.5 1.9 1.5 3.4 0 1.2-0.4 2.3-1.2 3.2 -0.7 1-1.8 1.8-3.2 2.4l3.2 5.1c0.2 0.5 0.6 0.8 0.8 1.2 0.2 0.4 0.6 0.6 0.8 0.7 0.2 0.2 0.6 0.4 1 0.5 0.4 0.1 0.7 0.1 1.1 0.1l0.1 0.1 -0.1 1 -2.3 0.6c-0.5 0-1.1-0.2-1.5-0.7 -0.6-0.5-1.1-1.2-1.5-2l-3.2-5.7h-2.4V63.8zM31.8 62.5c0.6-0.2 1.1-0.5 1.5-0.8 0.4-0.4 0.7-0.8 1.1-1.3 0.4-0.6 0.5-1.3 0.5-2.1 0-2.6-1.8-3.9-5.3-3.9 -0.2 0-0.4 0-0.4 0.1S29 54.6 29 55c0 0.8-0.1 1.5-0.1 2.1 0 0.7-0.1 1.3-0.1 1.9s0 1.2 0 1.7c0 0.5 0 1.1 0 1.5L31.8 62.5zM43.6 64.3v0.5c0 0.8 0.1 1.5 0.4 2.3 0.2 0.7 0.5 1.3 0.8 1.8 0.4 0.5 0.8 0.8 1.4 1.1 0.6 0.2 1.2 0.4 1.8 0.4 0.5 0 1 0 1.3-0.1 0.4-0.1 0.8-0.2 1.2-0.4 0.4-0.1 0.7-0.2 1.1-0.5h0.1l0.4 0.8c-0.5 0.4-1.1 0.7-1.5 1 -0.5 0.2-1 0.5-1.4 0.7 -0.5 0.2-1 0.4-1.4 0.4 -1 0-1.8-0.1-2.5-0.5 -0.7-0.4-1.4-0.7-2-1.3 -0.6-0.6-1-1.3-1.3-2 -0.2-0.8-0.5-1.7-0.5-2.6s0.1-2 0.5-2.9c0.4-1 0.8-1.7 1.4-2.4 0.6-0.7 1.3-1.2 2-1.7 0.8-0.4 1.7-0.6 2.5-0.6 3 0 4.4 1.4 4.4 4.3 0 0.4 0 0.7 0 0.8s0 0.4-0.1 0.6l-0.4 0.4C51.7 64.3 43.6 64.3 43.6 64.3zM49.1 62.9c0.2 0 0.5-0.1 0.6-0.2s0.1-0.2 0.1-0.6c0-0.8-0.2-1.4-0.6-1.8 -0.5-0.4-1.1-0.6-1.8-0.6 -1 0-1.7 0.4-2.4 1 -0.7 0.6-1.1 1.4-1.3 2.5L49.1 62.9zM60.3 68.1c-0.2 0-0.6 0-0.8 0s-0.6-0.1-0.8-0.1c-0.8 0.5-1.2 0.8-1.2 1.3 0 0.5 0.2 0.8 0.8 1.1 0.6 0.2 1.4 0.4 2.7 0.4 2.3 0.1 3.9 0.5 4.9 1 1 0.5 1.4 1.2 1.4 2.3 0 0.7-0.2 1.3-0.6 2 -0.4 0.6-1 1.2-1.7 1.7s-1.4 1-2.4 1.2c-0.8 0.2-1.8 0.5-2.7 0.5 -1.4 0-2.5-0.4-3.3-1.1 -0.8-0.7-1.2-1.7-1.2-2.9 0.2-0.4 0.5-0.7 0.8-1 0.4-0.4 0.7-0.6 1-0.8 0.4-0.2 0.7-0.6 1.1-0.8v-0.1c-0.5 0-0.8-0.1-1.3-0.4 -0.4-0.1-0.7-0.4-1.1-0.6 -0.4-0.2-0.5-0.6-0.7-0.8 -0.1-0.4-0.2-0.7-0.2-1.1 0.2-0.2 0.5-0.5 0.7-0.7s0.6-0.5 0.8-0.6c0.2-0.2 0.6-0.4 0.8-0.6v-0.1c-0.7-0.4-1.2-1-1.7-1.5 -0.4-0.7-0.6-1.4-0.6-2.4 0-0.7 0.1-1.4 0.5-2 0.2-0.6 0.7-1.2 1.2-1.7 0.5-0.5 1.1-0.8 1.8-1.2 0.7-0.2 1.4-0.5 2.1-0.5 0.6 0 1.1 0 1.5 0.1 0.5 0.1 1 0.1 1.3 0.1 0.4 0 0.8-0.1 1.3-0.2s1-0.2 1.3-0.2c0.5-0.1 1-0.2 1.4-0.4l0.1 0.1 -0.4 1.7c-0.2 0-0.5 0-0.8 0.1 -0.2 0-0.5 0.1-0.8 0.1 -0.4 0-0.6 0-1 0.1l-0.1 0.1c0.8 0.8 1.2 1.9 1.2 3 0 0.7-0.1 1.4-0.5 2.1 -0.4 0.6-0.7 1.2-1.2 1.7 -0.5 0.5-1.2 0.8-1.9 1.1C61.8 67.9 61.1 68.1 60.3 68.1zM61 66.7c1 0 1.7-0.2 2.1-0.8 0.5-0.6 0.8-1.3 0.8-2.4 0-1.2-0.4-2-1-2.7 -0.6-0.7-1.4-1.1-2.5-1.1 -1 0-1.7 0.2-2.1 0.8 -0.5 0.6-0.8 1.4-0.8 2.4 0 1.2 0.4 2 1 2.7C59.1 66.4 59.9 66.7 61 66.7zM60.9 77.6c0.6 0 1.1-0.1 1.7-0.2 0.5-0.1 1-0.4 1.4-0.6 0.4-0.2 0.7-0.6 1-1 0.2-0.4 0.4-0.7 0.4-1.1 0-0.2-0.1-0.6-0.2-0.7 -0.1-0.2-0.5-0.4-0.8-0.6 -0.5-0.1-1-0.4-1.8-0.5 -0.7-0.1-1.7-0.2-2.9-0.5 -0.4 0.2-0.7 0.6-1 0.8 -0.2 0.2-0.5 0.6-0.6 0.8 -0.2 0.4-0.2 0.6-0.2 1 0 0.7 0.2 1.3 0.8 1.8C59.1 77.3 59.9 77.6 60.9 77.6zM71.1 61.6c0-1.1-0.4-1.5-1.1-1.5 -0.1 0-0.4 0-0.5 0 -0.1 0-0.1 0-0.2 0l0.1-1.1c0.5-0.1 1-0.1 1.4-0.2 0.5-0.1 1-0.2 1.4-0.2 0.5-0.1 1-0.2 1.4-0.4l0.1 0.4c-0.1 0.2-0.2 0.7-0.2 1.3 -0.1 0.6-0.1 1.3-0.2 2.1 -0.1 0.8-0.1 1.7-0.1 2.6 0 1 0 1.8 0 2.7 0 1.9 0.8 2.9 2.4 2.9 0.7 0 1.3-0.2 1.9-0.6 0.6-0.4 1.2-0.7 1.7-1.1v-6.9c0-0.6-0.1-1-0.4-1.2 -0.2-0.2-0.6-0.4-1.2-0.4h-0.1c-0.1 0-0.1 0-0.2 0H77l0.1-1.1c0.5-0.1 1.1-0.1 1.5-0.2 0.6-0.1 1.1-0.2 1.5-0.2 0.5-0.1 1-0.2 1.4-0.4l0.1 0.4c-0.1 0.2-0.2 0.6-0.2 1.3 -0.1 0.7-0.1 1.4-0.2 2.4 0 1-0.1 1.9-0.1 3.1 0 1.2 0 2.3 0 3.4 0 1 0.4 1.3 1.2 1.3 0.2 0 0.5 0 0.7-0.1 0.2-0.1 0.4-0.1 0.6-0.2 0.2-0.1 0.4-0.2 0.5-0.4l0.4 0.5c-0.4 0.5-0.6 0.8-1 1.2 -0.2 0.2-0.6 0.6-0.8 0.8s-0.6 0.4-0.8 0.4c-1.7 0-2.5-0.8-2.6-2.4h-0.1c-1 0.7-1.8 1.3-2.5 1.8 -0.7 0.5-1.3 0.7-1.5 0.7 -1.3 0-2.3-0.2-3-0.8 -0.7-0.6-1-1.4-1-2.5L71.1 61.6zM85.3 71c0.5-0.1 0.7-0.2 1-0.5 0.2-0.1 0.4-0.4 0.5-0.6 0.1-0.2 0.1-0.6 0.1-0.8 0-0.4 0-0.7 0-1.2V53.4c0-1.1-0.4-1.5-1.1-1.5 -0.1 0-0.4 0-0.5 0 -0.1 0-0.1 0-0.2 0 0-0.1 0-0.2 0-0.2 0-0.1 0-0.1 0-0.2v-0.6c0.5 0 1.1-0.1 1.5-0.2 0.5-0.1 1-0.2 1.4-0.2 0.5-0.1 1-0.2 1.4-0.4l0.1 0.4c0 0.1-0.1 0.5-0.2 1 -0.1 0.6-0.1 1.3-0.2 2.1 -0.1 1-0.1 1.9-0.1 3.1 0 1.2-0.1 2.4-0.1 3.8 0 1.3-0.1 2.7-0.1 4.2 0 1.4 0 3 0 4.4 0 0.6 0.1 1.1 0.2 1.3 0.1 0.2 0.5 0.4 0.8 0.4 0.1 0 0.2 0 0.4 0s0.2 0 0.4 0c0.1 0 0.2 0 0.4 0v0.1L90.7 72c-0.2 0-0.6 0-1 0 -0.2 0-0.6 0-0.8 0s-0.6 0-0.8 0c-0.4 0-0.6 0-1 0s-0.7 0.1-1 0.1c-0.4 0-0.7 0.1-1.1 0.1L85.3 71zM99.9 63.3c0-1-0.2-1.8-0.7-2.4 -0.5-0.6-1.1-0.8-1.9-0.8 -0.5 0-1 0.1-1.3 0.2 -0.4 0.1-0.8 0.4-1.1 0.5 -0.4 0.2-0.7 0.5-1.1 0.7l-0.1-0.1 -0.4-1.3c0.7-0.4 1.3-0.7 1.9-1.1 0.5-0.2 1.1-0.5 1.5-0.7 0.6-0.2 1-0.4 1.3-0.4 1.3 0 2.3 0.4 3 1 0.7 0.7 1.1 1.7 1.1 2.9 0 0.2 0 0.7-0.1 1.3 0 0.6-0.1 1.2-0.1 1.9s-0.1 1.3-0.1 2 -0.1 1.2-0.1 1.7c0 1 0.4 1.3 1.2 1.3 0.2 0 0.5 0 0.7-0.1 0.2-0.1 0.4-0.1 0.6-0.2 0.2-0.1 0.4-0.2 0.5-0.4l0.4 0.5c-0.2 0.4-0.5 0.7-0.7 1 -0.2 0.2-0.5 0.6-0.8 0.8 -0.4 0.2-0.6 0.5-1.1 0.6 -1.7 0-2.5-0.8-2.6-2.4h-0.1c-0.7 0.7-1.3 1.3-1.9 1.7 -0.6 0.4-1.1 0.6-1.3 0.6 -0.6 0-1.1-0.1-1.5-0.2 -0.5-0.1-0.8-0.5-1.2-0.7 -0.4-0.4-0.6-0.7-0.8-1.2 -0.2-0.5-0.2-1-0.2-1.4 0-0.6 0.1-1.1 0.5-1.5 0.2-0.5 0.7-0.7 1.2-0.8l5.6-1.5L99.9 63.3zM99.8 65.7l-4 1.2c-0.6 0.1-0.8 0.6-0.8 1.2s0.2 1.1 0.6 1.4c0.4 0.4 0.8 0.6 1.4 0.6 0.4 0 0.8-0.1 1.3-0.4 0.5-0.2 1-0.6 1.4-1.1L99.8 65.7zM108.2 70.2c0.2-0.4 0.2-1 0.2-1.9v-6.5c0-0.6-0.1-1.1-0.2-1.4 -0.1-0.2-0.5-0.4-0.8-0.4 -0.1 0-0.2 0-0.5 0 -0.1 0-0.1 0-0.1 0l-0.1-0.2 0.1-1c0.5-0.1 1-0.1 1.4-0.2s0.8-0.2 1.3-0.2c0.5-0.1 1-0.2 1.3-0.4l0.2 0.1c0 0.4-0.1 0.6-0.1 1 0 0.2-0.1 0.6-0.1 1 0 0.4 0 0.7 0 1.1l0.1 0.1c0.2-0.5 0.6-1 1-1.3 0.4-0.4 0.7-0.7 1.1-1 0.4-0.2 0.7-0.5 1.1-0.6 0.4-0.1 0.7-0.2 1-0.2s0.5 0 0.7 0c0.1 0 0.1 0 0.2 0l0.1 0.1 -0.2 1.4c0 0.4-0.1 0.8-0.1 1.3 0 0.5-0.1 1-0.1 1.4l-1.2 0.1c0-0.8 0-1.3-0.1-1.7 -0.1-0.2-0.4-0.4-0.6-0.4 -0.5 0-1 0.1-1.4 0.5 -0.5 0.4-1 0.8-1.3 1.4 0 1.1-0.1 1.9-0.1 2.7 0 0.4 0 0.7 0 1.1 0 0.4 0 0.7 0 1 0 0.2 0 0.6 0 0.7 0 0.2 0 0.4 0 0.5 0 0.7 0.1 1.1 0.2 1.3 0.2 0.2 0.6 0.4 1.2 0.4 0.1 0 0.2 0 0.4 0 0.1 0 0.2 0 0.5 0 0.1 0 0.4 0 0.5 0v0.1l-0.2 1.3c-0.4 0-0.7 0-1.1 0 -0.4 0-0.6 0-1 0 -0.4 0-0.7 0-1 0 -0.5 0-0.8 0-1.2 0 -0.4 0-0.7 0-1 0 -0.4 0-0.6 0-0.8 0l0.1-1.2C107.7 70.8 108 70.5 108.2 70.2zM-27.9 104c0.1 0.7 0.4 1.3 0.7 1.5 0.4 0.2 1 0.5 1.8 0.6v0.1l-0.4 1.2c-0.4 0-0.8 0-1.2 0 -0.4 0-0.6 0-1 0 -0.4 0-0.6 0-0.8 0 -0.6 0-1.1 0-1.5 0 -0.5 0-1 0.1-1.3 0.1 -0.5 0-1 0.1-1.3 0.1v-0.2l0.2-1.1c1.1-0.1 1.8-0.2 2.1-0.4 0.4-0.2 0.6-0.6 0.6-1.1 0-0.1 0-0.4 0-0.5 0-0.2 0-0.4-0.1-0.6l-0.5-3.3c-0.1 0-0.4 0-0.6 0 -0.2 0-0.5 0-0.8 0 -0.2 0-0.6 0-0.8 0s-0.5 0-0.7 0c-0.6 0-1.2 0-1.8 0.1 -0.6 0-1.1 0.1-1.4 0.1l-1.4 3.2c-0.2 0.6-0.4 1.1-0.4 1.3 0 0.7 0.5 1.1 1.5 1.1h1.7v0.1l-0.2 1.2c-0.4 0-0.8 0-1.2-0.1 -0.4 0-0.8-0.1-1.3-0.1s-1 0-1.4 0c-0.4 0-0.7 0-1.1 0 -0.4 0-0.7 0-1 0 -0.4 0-0.7 0-1.1 0l0.4-1.3c0.2 0 0.5-0.1 0.7-0.1 0.2-0.1 0.5-0.2 0.6-0.4 0.2-0.1 0.4-0.4 0.6-0.7 0.2-0.2 0.4-0.6 0.6-1.1l7.4-15.1 1.7-0.5h0.2c0.2 1.8 0.5 3.6 0.8 5.3 0.2 1.5 0.6 3.3 0.8 5.1C-28.4 100.5-28.1 102.3-27.9 104zM-35.9 99.3h2.5c0.4 0 0.8 0 1.4 0 0.5 0 1-0.1 1.3-0.1l-1.4-8h-0.2L-35.9 99.3zM-21.4 105.5c0.1 0 0.1 0 0.2 0 0.1 0 0.2-0.1 0.4-0.2 0.1-0.1 0.4-0.4 0.7-0.5 0.2-0.2 0.6-0.5 1.1-1h0.4l0.4 0.7c-1.1 1.1-1.9 1.8-2.6 2.4 -0.7 0.5-1.2 0.8-1.5 0.8 -0.6 0-1-0.2-1-0.8 0 0 0-0.4 0.1-1 0.1-0.6 0.2-1.2 0.4-2s0.2-1.8 0.5-2.9c0.1-1.1 0.4-2.1 0.5-3.2 0.1-1.1 0.4-2.3 0.5-3.3 0.1-1.1 0.4-2 0.5-3 0.1-0.8 0.2-1.7 0.4-2.3s0.1-1 0.1-1.1c0-0.4-0.1-0.7-0.2-1 -0.2-0.2-0.5-0.2-1-0.2H-23l0.1-1.1c0.5 0 1 0 1.5 0s1.1 0 1.5-0.1c0.6 0 1.2 0 1.7-0.1l0.2 0.4c-0.5 2.3-1 4.5-1.4 6.9 -0.2 1-0.4 2-0.6 3.1 -0.2 1.1-0.4 2.1-0.6 3.2 -0.2 1.1-0.4 2.1-0.6 3.2C-21.2 103.4-21.3 104.4-21.4 105.5L-21.4 105.5zM-7.5 95.8c0 0.6-0.1 1.2-0.4 1.8 -0.2 0.5-0.7 1.1-1.2 1.4 -0.6 0.5-1.3 1-2.1 1.3 -1 0.5-2 0.8-3.2 1.3 -0.1 1.3 0.1 2.3 0.5 3.1 0.4 0.7 1 1.2 1.7 1.2 0.6 0 1.2-0.2 1.8-0.7s1.1-1.1 1.4-1.9h0.4l0.5 0.7c-0.6 1.1-1.3 1.9-2.1 2.6 -0.8 0.7-1.8 1-2.6 1 -1.1 0-1.9-0.5-2.5-1.3 -0.6-0.8-1-2-1-3.6 0-1.2 0.2-2.3 0.6-3.3 0.4-1.1 1-2 1.5-3 0.6-0.8 1.3-1.5 2.1-2.1 0.8-0.5 1.7-0.8 2.5-0.8 0.7 0 1.3 0.2 1.8 0.6C-7.8 94.5-7.5 95.1-7.5 95.8zM-10.9 95.2c-0.4 0-0.8 0.1-1.2 0.4 -0.4 0.2-0.7 0.6-1.1 1.1 -0.4 0.5-0.6 1-0.8 1.7 -0.2 0.6-0.5 1.3-0.6 2 1.7-0.5 3-1.1 3.7-1.7s1.1-1.3 1.1-2.1C-9.7 95.7-10 95.2-10.9 95.2zM2.9 107.2c-0.1 0.8-0.4 1.7-1 2.6 -0.5 0.8-1.1 1.5-1.9 2.3 -0.7 0.7-1.5 1.2-2.4 1.7 -0.8 0.5-1.7 0.6-2.5 0.6 -0.6 0-1.2-0.1-1.8-0.4 -0.6-0.2-1.1-0.5-1.5-0.8 -0.5-0.4-0.8-0.7-1.1-1.2 -0.2-0.5-0.4-0.8-0.4-1.3v-0.1c0.5-0.4 1.3-1 2.3-1.5 1-0.6 2-1.3 3.3-2v-0.2c-0.5-0.2-0.8-0.7-1.1-1.4s-0.4-1.4-0.4-2.4c0-1.1 0.2-2.3 0.6-3.3s0.8-2 1.5-3c0.6-0.8 1.3-1.5 2-2.1 0.7-0.6 1.5-0.8 2.3-0.8l3 0.5 0.4-0.7h0.1l1 0.5 0.2 0.2c-0.7 1.3-1.3 2.5-1.7 3.4 -0.4 1-0.6 1.9-0.7 2.6 0 0.5-0.1 1.1-0.1 1.8 0 0.7-0.1 1.3-0.1 2s-0.1 1.3-0.1 1.9C3 106.5 3 107 2.9 107.2zM-2.6 107c-0.5 0.4-1 0.7-1.5 1.1 -0.5 0.4-1.1 0.7-1.4 1 -0.5 0.4-0.8 0.6-1.1 0.8s-0.5 0.5-0.5 0.6c0 0.2 0.1 0.5 0.4 0.8 0.2 0.2 0.5 0.5 0.8 0.7s0.7 0.4 1.1 0.5c0.4 0.1 0.8 0.2 1.2 0.2 1.3 0 2.4-0.5 3.2-1.3 0.8-1 1.4-2.1 1.7-3.7l0.7-6.1H1.7c-0.5 0.8-0.8 1.5-1.2 2.1 -0.4 0.6-0.7 1.1-1.1 1.5 -0.4 0.5-0.6 0.8-1 1.1C-1.8 106.5-2.2 106.8-2.6 107zM-2.2 104.8c0.5 0 1.2-0.7 2.1-2.3 1-1.5 2-3.6 3.2-6.3 -1.2-0.6-2.3-1-3-1 -0.5 0-0.8 0.1-1.3 0.5 -0.4 0.4-0.8 0.8-1.1 1.4 -0.4 0.6-0.6 1.2-0.8 2 -0.2 0.7-0.2 1.5-0.2 2.3 0 0.5 0 0.8 0.1 1.2 0 0.4 0.1 0.7 0.2 1.1 0.1 0.2 0.2 0.5 0.4 0.7C-2.4 104.6-2.3 104.8-2.2 104.8zM8.7 102.4c0.1-0.6 0.2-1.3 0.2-1.9 0.1-0.6 0.2-1.2 0.2-1.8 0.1-0.5 0.1-1 0.2-1.4 0-0.4 0.1-0.7 0.1-0.8 0-0.5-0.1-0.8-0.2-1 -0.2-0.2-0.5-0.2-1-0.2H7.2l0.2-1.1c0.5 0 1 0 1.5 0s1.1 0 1.5-0.1c0.6 0 1.2 0 1.7-0.1l0.2 0.4c-0.2 0.6-0.4 1.3-0.6 1.9 -0.1 0.6-0.4 1.2-0.5 2 -0.2 0.7-0.4 1.4-0.5 2.3H11c0.4-1 0.8-1.8 1.3-2.6 0.5-0.8 1-1.5 1.4-2.1 0.5-0.6 1-1.1 1.4-1.4 0.5-0.4 0.8-0.5 1.2-0.5 0.6 0.5 0.8 1.2 0.8 2 0 0.1 0 0.4 0 0.5 0 0.1-0.1 0.4-0.1 0.6L16.8 97c-0.1 0-0.1 0-0.2 0s-0.1 0-0.2 0 -0.2 0-0.4 0c-0.4 0-0.8 0.1-1.3 0.5s-1 0.8-1.4 1.4c-0.5 0.6-1 1.3-1.4 2.1 -0.5 0.8-0.8 1.8-1.3 2.9l-0.5 3.3c0 0-0.1 0.1-0.2 0.1 -0.1 0.1-0.4 0.1-0.5 0.2 -0.1 0.1-0.4 0.1-0.6 0.2 -0.2 0-0.4 0.1-0.5 0.1L8 107.7C8.2 105.5 8.5 103.8 8.7 102.4zM26.3 95.8c0 0.6-0.1 1.2-0.4 1.8 -0.2 0.5-0.7 1.1-1.2 1.4 -0.6 0.5-1.3 1-2.1 1.3 -1 0.5-2 0.8-3.2 1.3 -0.1 1.3 0.1 2.3 0.5 3.1 0.4 0.7 1 1.2 1.7 1.2 0.6 0 1.2-0.2 1.8-0.7s1.1-1.1 1.4-1.9h0.4l0.5 0.7c-0.6 1.1-1.3 1.9-2.1 2.6 -0.8 0.7-1.8 1-2.6 1 -1.1 0-1.9-0.5-2.5-1.3s-1-2-1-3.6c0-1.2 0.2-2.3 0.6-3.3s1-2 1.5-3c0.6-0.8 1.3-1.5 2.1-2.1 0.8-0.5 1.7-0.8 2.5-0.8 0.7 0 1.3 0.2 1.8 0.6C26.2 94.5 26.3 95.1 26.3 95.8zM23.1 95.2c-0.4 0-0.8 0.1-1.2 0.4 -0.4 0.2-0.7 0.6-1.1 1.1 -0.4 0.5-0.6 1-0.8 1.7 -0.2 0.6-0.5 1.3-0.6 2 1.7-0.5 3-1.1 3.7-1.7s1.1-1.3 1.1-2.1C24.3 95.7 23.8 95.2 23.1 95.2zM35.9 94.2l2.4-0.6c0.4 0.2 0.6 0.5 0.7 0.8 0.2 0.4 0.2 0.8 0.2 1.3 0 1-0.5 2.4-1.3 4.2 -1 1.8-2.3 4-3.9 6.7 -1.8 2.7-3.4 4.8-4.8 5.9 -1.3 1.2-2.5 1.9-3.4 1.9 -0.6 0-1.1-0.1-1.4-0.2 -0.4-0.2-0.7-0.5-0.7-0.8 0-0.1 0-0.5 0.1-1s0.2-1 0.4-1.4h0.4c0.2 0.4 0.5 0.6 0.8 0.8 0.4 0.2 0.7 0.4 1.1 0.4s0.7 0 1.1-0.1c0.4-0.1 0.7-0.4 1.1-0.6s0.7-0.7 1.2-1.1c0.4-0.5 0.8-1.1 1.4-1.7 -0.1-2.3-0.2-4.4-0.5-6.2 -0.2-1.9-0.4-3.8-0.7-5.7 -0.1-0.5-0.2-0.7-0.4-1 -0.1-0.1-0.5-0.2-0.8-0.2 -0.1 0-0.2 0-0.4 0 -0.1 0-0.4 0-0.5 0 -0.2 0-0.5 0-0.6 0l0.1-1.1 4.4-0.7 0.4 0.2c0.2 1.7 0.4 3.4 0.5 5.3 0.1 1.9 0.1 4 0.1 6.4h0.4c1.3-2.1 2.4-3.9 3.1-5.5 0.7-1.5 1.1-2.6 1.1-3.3 0-0.5-0.1-0.8-0.4-1.3 -0.2-0.5-0.6-0.7-1.1-1.1L35.9 94.2zM49.7 105.5c0.1 0 0.1 0 0.2 0s0.2-0.1 0.4-0.2c0.1-0.1 0.4-0.2 0.6-0.5 0.2-0.2 0.6-0.6 1.1-1h0.4l0.4 0.7c-1.2 1.2-2.1 1.9-2.7 2.4 -0.6 0.5-1.1 0.7-1.4 0.7 -0.7 0-1.1-0.2-1.1-0.8 0-0.1 0-0.2 0-0.5 0-0.2 0.1-0.5 0.1-0.8s0.1-0.6 0.2-1 0.1-0.7 0.2-1.1c0.2-0.8 0.4-1.8 0.6-2.9h-0.1c-1 1.8-1.9 3.2-2.7 4.4 -0.8 1.1-1.8 2-2.7 2.7 -0.7 0-1.3-0.4-1.8-1.1 -0.4-0.7-0.6-1.7-0.6-3 0-1.2 0.2-2.4 0.6-3.6 0.4-1.2 1-2.3 1.5-3.2 0.6-1 1.3-1.7 2.1-2.3 0.8-0.6 1.7-0.8 2.5-0.8l3 0.5 0.2-0.7h0.1l1 0.5 0.2 0.4c-0.4 1.2-0.6 2.4-1 3.6 -0.2 1.1-0.6 2.3-0.8 3.6C50.1 102.6 49.8 104 49.7 105.5L49.7 105.5zM43.6 105.2c0.2 0 0.6-0.2 1.1-0.7 0.5-0.5 1-1.1 1.4-1.9 0.6-0.8 1.1-1.8 1.7-2.9s1.2-2.3 1.7-3.4c-0.5-0.2-1.1-0.5-1.5-0.7 -0.6-0.1-1.1-0.2-1.4-0.2 -0.5 0-1 0.2-1.4 0.6 -0.5 0.4-0.8 1-1.2 1.5 -0.4 0.6-0.6 1.4-0.8 2.3 -0.2 0.8-0.4 1.7-0.4 2.6 0 0.8 0.1 1.5 0.2 2.1C43.3 105 43.4 105.2 43.6 105.2zM66.7 91.2c-0.2 1.3-0.5 2.7-0.7 4.2 -0.2 1.4-0.5 2.9-0.7 4.2s-0.4 2.3-0.5 3c-0.1 0.7-0.1 1.2-0.2 1.4 0 0.4 0 0.7 0 1 0 0.5 0.1 0.8 0.2 1 0.1 0.1 0.5 0.2 0.8 0.2 0.1 0 0.4 0 0.5 0 0.1 0 0.4 0 0.5 0 0.1 0 0.4 0 0.5 0v0.1l-0.4 1.3c-0.5 0-1 0-1.3 0 -0.4 0-0.8 0-1.2 0 -0.5 0-0.8 0-1.2 0 -0.4 0-0.7 0-1.1 0 -0.4 0-0.7 0.1-1.1 0.1 -0.4 0-0.7 0.1-1.1 0.1l0.4-1.3c0.5-0.1 0.8-0.2 1.2-0.4 0.4-0.1 0.6-0.2 0.7-0.5 0.1-0.2 0.4-0.5 0.5-0.7s0.2-0.6 0.2-1.1l1.5-12.5c0.1-0.6 0.1-1.1 0-1.3 -0.1-0.2-0.4-0.4-0.8-0.4 -0.1 0-0.2 0-0.4 0 -0.1 0-0.2 0-0.4 0 -0.1 0-0.4 0-0.5 0l0 0 0 0 0.4-1.3c0 0 0.1 0 0.4 0 0.2 0 0.5 0 0.8 0 0.4 0 0.7 0 1.1 0 0.4 0 0.7 0 1.1 0 0.4 0 0.7 0 1.1 0 0.4 0 0.7-0.1 1.1-0.1 0.4 0 0.7-0.1 1.2-0.1l-0.2 1.3c-0.4 0-0.7 0.1-1 0.2 -0.2 0.1-0.5 0.1-0.7 0.2C67.3 90 67 90.1 67 90.4 66.8 90.6 66.7 90.9 66.7 91.2zM76.8 103.4l0.4 0.7c-0.4 0.5-0.8 1-1.3 1.3 -0.5 0.4-0.8 0.7-1.2 1.1 -0.4 0.4-0.7 0.6-1.1 0.7 -0.4 0.1-0.6 0.2-0.8 0.2 -0.6 0-1.1-0.1-1.3-0.5 -0.4-0.4-0.5-0.8-0.4-1.4l1.7-10.1 -0.1-0.1 -2-0.1 -0.1-0.1 0.1-0.8 2.4-0.4c0-0.4 0.1-0.8 0.1-1.3s0.1-0.8 0.1-1.2c0-0.4 0.1-0.8 0.1-1.2l2.6-1.1 0.1 0.4c-0.1 0.4-0.2 0.8-0.4 1.3 -0.1 0.4-0.2 0.8-0.4 1.4 -0.1 0.5-0.2 1.1-0.4 1.7h3.6l0.1 0.1 -0.2 1.2H75l-0.4 0.1 -1.8 9c-0.1 0.7 0.1 1.1 0.7 1.1 0.2 0 0.6-0.1 1.1-0.5s1.1-0.8 1.9-1.5L76.8 103.4zM87.6 105.5c0.1 0 0.1 0 0.2 0 0.1 0 0.2-0.1 0.4-0.2 0.1-0.1 0.4-0.2 0.6-0.5 0.2-0.2 0.6-0.6 1.1-1h0.4l0.4 0.7c-1.2 1.2-2.1 1.9-2.7 2.4s-1.1 0.7-1.4 0.7c-0.7 0-1.1-0.2-1.1-0.8 0-0.1 0-0.2 0-0.5 0-0.2 0.1-0.5 0.1-0.8s0.1-0.6 0.2-1c0.1-0.4 0.1-0.7 0.2-1.1 0.2-0.8 0.4-1.8 0.6-2.9h-0.1c-1 1.8-1.9 3.2-2.7 4.4 -0.8 1.1-1.8 2-2.7 2.7 -0.7 0-1.3-0.4-1.8-1.1 -0.4-0.7-0.6-1.7-0.6-3 0-1.2 0.2-2.4 0.6-3.6 0.4-1.2 1-2.3 1.5-3.2 0.6-1 1.3-1.7 2.1-2.3 0.8-0.6 1.7-0.8 2.5-0.8l3 0.5 0.2-0.7h0.1l1 0.5 0.2 0.4c-0.4 1.2-0.6 2.4-1 3.6 -0.2 1.1-0.6 2.3-0.8 3.6C87.9 102.6 87.7 104 87.6 105.5L87.6 105.5zM81.5 105.2c0.2 0 0.6-0.2 1.1-0.7s1-1.1 1.4-1.9c0.6-0.8 1.1-1.8 1.7-2.9s1.2-2.3 1.7-3.4c-0.5-0.2-1.1-0.5-1.5-0.7 -0.6-0.1-1.1-0.2-1.4-0.2 -0.5 0-1 0.2-1.4 0.6 -0.5 0.4-0.8 1-1.2 1.5 -0.4 0.6-0.6 1.4-0.8 2.3 -0.2 0.8-0.4 1.7-0.4 2.6 0 0.8 0.1 1.5 0.2 2.1C81.2 105 81.3 105.2 81.5 105.2zM94.8 105.5c0.1 0 0.1 0 0.2 0 0.1 0 0.2-0.1 0.4-0.2 0.1-0.1 0.4-0.4 0.7-0.5 0.2-0.2 0.6-0.5 1.1-1h0.4l0.4 0.7c-1.1 1.1-1.9 1.8-2.6 2.4 -0.7 0.5-1.2 0.8-1.5 0.8 -0.6 0-1-0.2-1-0.8 0 0 0-0.4 0.1-1 0.1-0.6 0.2-1.2 0.4-2 0.1-0.8 0.2-1.8 0.5-2.9 0.1-1.1 0.4-2.1 0.5-3.2 0.1-1.1 0.4-2.3 0.5-3.3 0.1-1.1 0.4-2 0.5-3 0.1-0.8 0.2-1.7 0.4-2.3 0.1-0.6 0.1-1 0.1-1.1 0-0.4-0.1-0.7-0.2-1 -0.2-0.2-0.5-0.2-1-0.2h-1.2l0.1-1.1c0.5 0 1 0 1.5 0s1.1 0 1.5-0.1c0.6 0 1.2 0 1.7-0.1l0.2 0.4c-0.5 2.3-1 4.5-1.4 6.9 -0.2 1-0.4 2-0.6 3.1s-0.4 2.1-0.6 3.2c-0.2 1.1-0.4 2.1-0.6 3.2C95.1 103.4 94.9 104.4 94.8 105.5L94.8 105.5zM102.7 105.5c0.1 0 0.1 0 0.2 0 0.1 0 0.2-0.1 0.4-0.2 0.1-0.1 0.4-0.4 0.7-0.5 0.2-0.2 0.6-0.5 1.1-1h0.4l0.4 0.7c-1.1 1.1-1.9 1.8-2.6 2.4 -0.7 0.5-1.2 0.8-1.5 0.8 -0.4 0-0.6-0.1-0.7-0.2 -0.1-0.1-0.2-0.5-0.2-0.7 0.2-1.7 0.5-3.2 0.7-4.6 0.1-0.6 0.2-1.2 0.2-1.8 0.1-0.6 0.1-1.2 0.2-1.7 0.1-0.5 0.1-1 0.1-1.3 0-0.4 0-0.6 0-0.7 0-0.5-0.1-0.7-0.2-1 -0.2-0.2-0.5-0.2-1-0.2h-1.2l0.2-1.1c0.5 0 1 0 1.5 0 0.6 0 1.1 0 1.5-0.1 0.6 0 1.2 0 1.7-0.1l0.2 0.4c-0.4 1.1-0.6 2.3-1 3.4 -0.2 1.1-0.6 2.3-0.8 3.6C102.9 102.6 102.7 104 102.7 105.5L102.7 105.5zM104 89.8c-0.4 0-0.7-0.1-1-0.4 -0.2-0.2-0.4-0.6-0.4-1 0-0.5 0.1-1 0.5-1.3 0.4-0.4 0.8-0.6 1.3-0.6 0.4 0 0.7 0.1 1 0.4 0.2 0.2 0.4 0.6 0.4 1 0 0.5-0.1 1-0.5 1.3C104.9 89.7 104.4 89.8 104 89.8zM113.2 95.4c-0.5 0-1 0.2-1.4 0.6 -0.5 0.4-0.8 0.8-1.2 1.4s-0.6 1.3-0.8 2.1c-0.2 0.8-0.4 1.5-0.4 2.4 0 1.2 0.2 2.3 0.6 3 0.4 0.7 0.8 1.1 1.5 1.1 0.6 0 1.2-0.2 1.8-0.7 0.6-0.5 1.1-1.1 1.4-1.9h0.4l0.5 0.7c-0.6 1.1-1.3 1.9-2.1 2.6s-1.8 1-2.6 1c-1.1 0-1.9-0.5-2.5-1.3 -0.6-0.8-1-2-1-3.6 0-1.2 0.2-2.3 0.6-3.4 0.4-1.1 0.8-2.1 1.5-3 0.6-0.8 1.3-1.5 2.1-2 0.8-0.5 1.7-0.8 2.5-0.8 0.5 0 1 0 1.4 0.1 0.5 0.1 0.8 0.2 1.1 0.5l0.1 0.4 -1 2 -0.4 0.1C114.8 95.7 114.1 95.4 113.2 95.4zM-37.7 138.8c0.2 0.7 0.5 1.2 0.8 1.5 0.4 0.4 0.8 0.5 1.5 0.6l0.1 0.2 -0.2 1.8c-0.5 0-1 0-1.3 0s-0.7 0-1.2 0 -0.8 0-1.1 0c-0.6 0-1.3 0-1.9 0 -0.6 0-1.2 0-1.5 0.1 -0.6 0-1.1 0.1-1.5 0.1l-0.1-0.2 0.1-1.8c0.5 0 0.8-0.1 1.2-0.1s0.6-0.1 0.7-0.2c0.1-0.1 0.2-0.2 0.4-0.4 0-0.1 0.1-0.2 0.1-0.5 0-0.2 0-0.5-0.1-1l-0.6-2.3c-0.4 0-0.8 0-1.4 0 -0.5 0-1 0-1.3 0 -0.5 0-1 0-1.5 0.1 -0.5 0-1 0.1-1.3 0.1l-0.7 2.3c-0.1 0.4-0.1 0.7-0.1 1 0 0.4 0.1 0.6 0.2 0.7 0.2 0.1 0.6 0.2 1.1 0.2h1.1l0.1 0.2 -0.2 1.9c-0.5 0-1 0-1.4-0.1 -0.5 0-1 0-1.4 0 -0.5 0-1 0-1.4 0 -0.4 0-0.8 0-1.2 0 -0.5 0-0.8 0-1.2 0 -0.4 0-0.8 0-1.2 0l0.2-2c0.5-0.1 0.8-0.2 1.1-0.6 0.2-0.2 0.6-0.7 0.8-1.4l5.2-15 4.8-0.5 0.4 0.1c0.5 2 1.1 3.9 1.5 5.7 0.2 0.8 0.5 1.7 0.7 2.5 0.2 0.8 0.5 1.7 0.7 2.5 0.2 0.8 0.5 1.7 0.7 2.4C-38.2 137.5-38 138.2-37.7 138.8zM-47.5 134.2h2c0.4 0 0.7 0 1.1 0s0.7 0 1.1-0.1l-1.7-6.5h-0.4L-47.5 134.2zM-34.9 141.1c0.4-0.1 0.6-0.1 0.8-0.2 0.2-0.1 0.4-0.2 0.5-0.5 0.1-0.1 0.1-0.4 0.1-0.7 0-0.2 0-0.6 0-1v-13.7c0-0.5-0.1-0.8-0.2-1.2 -0.1-0.2-0.4-0.4-0.6-0.5 -0.1 0-0.4 0-0.6 0 -0.2 0-0.5 0-0.6 0V123l0.1-1.3c0.7-0.1 1.4-0.2 2.1-0.2 0.7-0.1 1.4-0.2 2-0.2 0.7-0.1 1.3-0.2 2-0.4l0.2 0.6c-0.1 0.1-0.2 0.7-0.4 1.8 -0.1 1-0.2 2.3-0.2 3.9 -0.1 1.7-0.1 3.6-0.2 5.7 0 2.1-0.1 4.4-0.1 6.9 0 0.5 0.1 0.8 0.2 1.1 0.1 0.2 0.4 0.2 0.7 0.2 0 0 0.1 0 0.2 0 0.1 0 0.2 0 0.4 0s0.2 0 0.4 0v0.1l-0.2 1.8c-0.5 0-0.8 0-1.3 0 -0.4 0-0.7 0-1.1 0 -0.4 0-0.7 0-1.1 0 -0.4 0-0.7 0-1.2 0 -0.4 0-0.7 0.1-1.1 0.1 -0.4 0-0.8 0.1-1.2 0.1L-34.9 141.1zM-23.2 135.7v0.2c0 1.3 0.4 2.4 1.1 3.1 0.6 0.7 1.5 1.1 2.6 1.1 0.5 0 1 0 1.3-0.1 0.5-0.1 0.8-0.2 1.2-0.4 0.4-0.1 0.7-0.2 1.1-0.5l0.2 0.1 0.5 1.5c-0.6 0.4-1.2 0.8-1.8 1.1 -0.5 0.2-1.1 0.5-1.7 0.7 -0.6 0.2-1.2 0.4-1.7 0.4 -1.1 0-2-0.1-2.9-0.5 -0.8-0.4-1.5-0.7-2.1-1.3 -0.6-0.6-1.1-1.3-1.3-2.1 -0.4-0.8-0.5-1.8-0.5-2.9 0-1.1 0.1-2 0.5-3 0.4-1 0.8-1.7 1.4-2.4s1.3-1.2 2.3-1.5c0.8-0.4 1.8-0.6 2.9-0.6 3.3 0 5 1.7 5 5.1 0 0.2 0 0.5 0 0.6 0 0.2 0 0.4-0.1 0.5 0 0.2-0.1 0.4-0.1 0.5l-0.4 0.4H-23.2zM-19.2 134c0.2 0 0.4-0.1 0.5-0.1 0.1-0.1 0.1-0.2 0.1-0.5 0-1.4-0.6-2.1-1.9-2.1 -0.7 0-1.3 0.2-1.8 0.8 -0.5 0.5-0.7 1.3-0.8 2.3L-19.2 134zM-7.3 139c-0.4 0-0.6 0-1 0 -0.2 0-0.6-0.1-1-0.1 -0.5 0.4-0.7 0.7-0.7 1 0 0.7 1 1.1 2.9 1.1 1.3 0 2.4 0.1 3.3 0.2 1 0.1 1.7 0.4 2.3 0.6 0.6 0.2 1 0.6 1.2 1.1s0.4 1 0.4 1.5c0 0.7-0.2 1.4-0.7 2 -0.5 0.7-1.1 1.3-1.8 1.8s-1.5 1-2.5 1.2c-1 0.4-1.9 0.5-3 0.5 -1.7 0-2.9-0.4-3.8-1.1 -1-0.7-1.4-1.8-1.4-3.1 0.2-0.2 0.5-0.5 0.8-0.7s0.6-0.5 1-0.7c0.4-0.2 0.7-0.5 1.2-0.7v-0.1c-1-0.1-1.7-0.5-2.3-1.1 -0.6-0.6-0.8-1.2-0.8-2 0.2-0.2 0.5-0.5 0.7-0.7 0.2-0.2 0.6-0.5 0.8-0.6 0.2-0.2 0.6-0.5 1-0.6v-0.2c-0.7-0.4-1.3-1-1.7-1.7 -0.4-0.7-0.6-1.5-0.6-2.4 0-0.7 0.1-1.4 0.5-2.1 0.4-0.7 0.7-1.2 1.3-1.7 0.6-0.5 1.2-0.8 1.9-1.2s1.5-0.4 2.5-0.4c0.6 0 1.2 0 1.7 0.1 0.5 0.1 1 0.1 1.4 0.1 0.4 0 0.8-0.1 1.3-0.2 0.5-0.1 1-0.2 1.3-0.4 0.5-0.1 1.1-0.2 1.5-0.5l0.1 0.1 -0.4 2.3c-0.2 0-0.5 0.1-0.7 0.1 -0.2 0-0.5 0-0.7 0 -0.2 0-0.5 0-0.8 0l-0.1 0.1c0.7 0.8 1.2 1.8 1.2 2.9 0 0.7-0.1 1.4-0.5 2.1 -0.4 0.6-0.7 1.2-1.3 1.7s-1.2 0.8-2 1.1C-5.6 138.8-6.5 139-7.3 139zM-6.7 147.6c0.5 0 0.8 0 1.3-0.1 0.4-0.1 0.7-0.2 1.1-0.5 0.4-0.2 0.6-0.5 0.7-0.7 0.1-0.2 0.2-0.5 0.2-0.8 0-0.2 0-0.5-0.1-0.6 -0.1-0.1-0.4-0.2-0.7-0.4 -0.4-0.1-0.8-0.2-1.5-0.4 -0.6-0.1-1.5-0.2-2.6-0.4 -0.2 0.2-0.4 0.4-0.6 0.6 -0.1 0.2-0.2 0.4-0.4 0.6 -0.1 0.2-0.1 0.5-0.1 0.7 0 0.6 0.2 1.1 0.7 1.4C-8.3 147.4-7.5 147.6-6.7 147.6zM-6.8 136.9c0.7 0 1.2-0.2 1.7-0.7 0.4-0.5 0.6-1.2 0.6-2.1 0-1-0.2-1.8-0.7-2.4 -0.5-0.6-1.1-0.8-1.9-0.8 -0.7 0-1.2 0.2-1.5 0.7 -0.4 0.5-0.6 1.2-0.6 2.1s0.2 1.8 0.6 2.4C-8.1 136.7-7.5 136.9-6.8 136.9zM2 141c0.6 0 1-0.2 1.2-0.5 0.2-0.2 0.4-0.8 0.4-1.5v-5.8c0-0.7-0.1-1.2-0.2-1.4 -0.1-0.2-0.5-0.4-1-0.4 0 0-0.1 0-0.2 0 -0.1 0-0.1 0-0.2 0H1.7l-0.1-0.2 0.1-1.5c0.6-0.1 1.3-0.2 1.9-0.4 0.6-0.1 1.2-0.2 1.8-0.4 0.6-0.1 1.2-0.2 1.8-0.4l0.2 0.2 -0.1 0.8c0 0.2-0.1 0.6-0.1 1 0 0.4 0 0.6 0 1l0.1 0.1c0.6-1 1.3-1.7 2-2.1 0.7-0.5 1.4-0.7 2.1-0.7 0.1 0 0.2 0 0.4 0 0.1 0 0.2 0 0.4 0 0.1 0 0.2 0 0.2 0l0.1 0.2c-0.1 0.6-0.2 1.2-0.2 1.8 -0.1 0.5-0.1 1.1-0.2 1.8 0 0.6-0.1 1.3-0.1 1.9l-1.9 0.1c0-1 0-1.5-0.1-1.9 -0.1-0.4-0.4-0.5-0.7-0.5 -0.4 0-0.6 0.1-1 0.4 -0.4 0.2-0.7 0.6-1 1 0 1-0.1 1.8-0.1 2.6 0 0.7-0.1 1.3-0.1 1.9s0 1 0 1.1c0 0.5 0.1 0.8 0.2 1.1 0.1 0.2 0.5 0.2 0.8 0.2 0.1 0 0.2 0 0.5 0 0.1 0 0.4 0 0.5 0s0.4 0 0.5 0l0.1 0.1 -0.4 2c-0.5 0-1 0-1.4 0 -0.4 0-0.8 0-1.3 0 -0.5 0-0.8 0-1.2 0 -0.5 0-1 0-1.3 0 -0.5 0-0.8 0-1.2 0s-0.8 0-1.2 0L2 141zM17.5 135.7v0.2c0 1.3 0.4 2.4 1.1 3.1 0.6 0.7 1.5 1.1 2.6 1.1 0.5 0 1 0 1.3-0.1 0.5-0.1 0.8-0.2 1.2-0.4 0.4-0.1 0.7-0.2 1.1-0.5l0.2 0.1 0.5 1.5c-0.6 0.4-1.2 0.8-1.8 1.1 -0.5 0.2-1.1 0.5-1.7 0.7 -0.6 0.2-1.2 0.4-1.7 0.4 -1.1 0-2-0.1-2.9-0.5 -0.8-0.4-1.5-0.7-2.1-1.3s-1.1-1.3-1.3-2.1c-0.4-0.8-0.5-1.8-0.5-2.9 0-1.1 0.1-2 0.5-3s0.8-1.7 1.4-2.4c0.6-0.7 1.3-1.2 2.3-1.5 0.8-0.4 1.8-0.6 2.9-0.6 3.3 0 5 1.7 5 5.1 0 0.2 0 0.5 0 0.6 0 0.2 0 0.4-0.1 0.5 0 0.2-0.1 0.4-0.1 0.5l-0.4 0.4H17.5zM21.4 134c0.2 0 0.4-0.1 0.5-0.1 0.1-0.1 0.1-0.2 0.1-0.5 0-1.4-0.6-2.1-1.9-2.1 -0.7 0-1.3 0.2-1.8 0.8 -0.5 0.5-0.7 1.3-0.8 2.3L21.4 134zM33.9 138.8c0.2-0.7 0.6-1.5 1-2.4 0.4-0.8 0.6-1.5 0.8-2.3s0.5-1.3 0.6-1.8c0.1-0.5 0.2-0.8 0.2-1 0-0.2 0-0.4-0.1-0.5s-0.4-0.1-0.7-0.1h-1l-0.1-0.1 0.2-1.7c0.4 0 0.7 0 1.1 0 0.4 0 0.7 0 1.1 0 0.4 0 0.7 0 1.1 0h2.7l-0.2 1.8c-0.5 0.1-0.7 0.2-1 0.5 -0.2 0.2-0.4 0.5-0.6 1.1l-3.8 9.1c-0.6 1.5-1.2 2.7-1.8 3.8 -0.6 1.1-1.2 1.9-1.7 2.6 -0.6 0.7-1.2 1.2-1.8 1.5s-1.2 0.5-1.9 0.5c-0.1 0-0.4-0.1-0.6-0.2 -0.2-0.2-0.5-0.4-0.7-0.7 -0.2-0.4-0.5-0.5-0.6-0.8 -0.1-0.2-0.2-0.5-0.2-0.6l0.2-0.4c1.3-0.1 2.4-0.5 3.4-1.2 1.1-0.7 1.9-1.7 2.5-2.9 -0.2-0.7-0.6-1.5-1-2.6 -0.4-1-0.7-2-1.1-3.1 -0.4-1.1-0.7-2-1.1-3 -0.4-1-0.7-1.7-1-2.3 -0.2-0.5-0.5-0.7-0.7-1 -0.2-0.2-0.6-0.2-1.1-0.4v-0.1l0.2-1.7h2.3c0.5 0 1 0 1.5 0s1.1 0 1.4 0c0.5 0 1 0 1.5-0.1v0.1l-0.2 1.8c-0.6 0-1 0.1-1.2 0.2 -0.2 0.1-0.2 0.2-0.2 0.5 0 0.1 0 0.4 0.1 0.6 0 0.2 0.1 0.6 0.2 1 0.1 0.4 0.2 0.8 0.4 1.2 0.1 0.5 0.2 0.8 0.4 1.3 0.2 1 0.6 2.1 1 3.3h0.2V138.8zM48.5 134.2c0-0.8-0.2-1.5-0.6-2 -0.5-0.5-1.1-0.7-1.9-0.7 -0.5 0-0.8 0.1-1.3 0.2 -0.4 0.1-0.8 0.4-1.1 0.5 -0.4 0.2-0.7 0.5-1.1 0.7l-0.2-0.1 -0.5-1.8c0.7-0.4 1.5-0.8 2.1-1.1 0.6-0.2 1.2-0.6 1.8-0.8 0.6-0.2 1.1-0.4 1.4-0.4 0.8 0 1.7 0.1 2.3 0.4 0.6 0.2 1.2 0.5 1.5 0.8 0.4 0.4 0.7 0.8 0.8 1.3 0.2 0.5 0.2 1.1 0.2 1.5 0 0.2 0 0.7-0.1 1.2 0 0.6-0.1 1.1-0.2 1.8 -0.1 0.6-0.1 1.2-0.2 1.8 0 0.6-0.1 1.1-0.1 1.3 0 0.4 0.1 0.6 0.2 0.8 0.2 0.2 0.5 0.4 0.8 0.4 0.1 0 0.4 0 0.5-0.1 0.1 0 0.4-0.1 0.5-0.1 0.1-0.1 0.4-0.1 0.5-0.2l0.5 0.6c-0.2 0.5-0.6 1-1 1.3 -0.2 0.4-0.6 0.7-1 1 -0.4 0.2-0.7 0.6-1.1 0.6 -1.8 0-2.9-0.7-3-2.3l-0.2-0.1c-0.6 0.6-1.2 1.1-1.8 1.5 -0.6 0.5-1.1 0.7-1.4 0.7 -0.6 0-1.1-0.1-1.5-0.4 -0.5-0.2-1-0.5-1.3-1 -0.4-0.4-0.6-0.8-0.8-1.4 -0.2-0.5-0.4-1.1-0.4-1.7 0-0.6 0.1-1.2 0.5-1.5 0.4-0.5 0.7-0.7 1.2-0.8l5.7-1.3L48.5 134.2zM48.4 136.5l-3.1 0.8c-0.5 0.1-0.7 0.5-0.7 1 0 0.5 0.1 1 0.5 1.3 0.2 0.4 0.7 0.5 1.2 0.5 0.2 0 0.6-0.1 1.1-0.2 0.4-0.1 0.7-0.4 1.1-0.6L48.4 136.5zM64.9 142.6c-0.5 0-1 0-1.4 0 -0.5 0-1 0.1-1.4 0.1 -0.5 0-1.1 0.1-1.5 0.1l0.2-2c0.8-0.1 1.4-0.4 1.7-0.7 0.2-0.4 0.5-0.8 0.5-1.7V127c0-0.6-0.1-1-0.2-1.2s-0.4-0.4-0.7-0.4c-0.1 0-0.2 0-0.4 0 -0.1 0-0.2 0-0.4 0 -0.1 0-0.2 0-0.4 0l-0.1-0.2 0.2-1.8c0.6 0 1.2 0 1.7 0 0.5 0 1 0 1.3 0 0.5 0 0.8 0 1.1 0 0.2 0 0.6 0 1.2 0 0.5 0 1 0 1.5 0 0.6 0 1.2 0 1.9-0.1 2 0 3.6 0.4 4.6 1.2s1.5 1.9 1.5 3.4c0 1.1-0.2 1.9-0.8 2.6 -0.6 0.7-1.3 1.3-2.3 1.9 1.2 0.4 2.1 0.8 3 1.5 0.8 0.7 1.2 1.7 1.2 2.9 0 0.8-0.2 1.7-0.6 2.4 -0.4 0.7-0.8 1.3-1.5 1.9 -0.7 0.5-1.4 1-2.4 1.2 -1 0.2-2 0.4-3.2 0.4 -0.2 0-0.6 0-1 0s-0.8-0.1-1.2-0.1c-0.4 0-0.8 0-1.2-0.1C65.6 142.8 65.3 142.6 64.9 142.6zM66.9 134.4l-0.1 4.3c0 0.6 0.2 1.1 0.6 1.3 0.5 0.2 1.2 0.4 2.1 0.4 1 0 1.7-0.2 2.3-0.7 0.5-0.5 0.8-1.2 0.8-2.1 0-1.7-1-2.6-3-3.1H66.9zM67 131.8c0.5 0 0.8 0.1 1.2 0.1s0.6 0.1 1 0.1c0.4 0 0.6 0 0.7 0 0.4-0.1 0.7-0.4 1-0.6 0.2-0.2 0.5-0.6 0.7-1 0.2-0.4 0.4-1 0.4-1.5 0-1-0.4-1.8-1-2.3 -0.7-0.5-1.7-0.7-3.1-0.7 -0.2 0-0.4 0-0.4 0.1 0 0.1-0.1 0.2-0.1 0.5 0 0.4-0.1 0.8-0.1 1.3 0 0.5 0 1 0 1.4 0 0.5 0 1 0 1.3C67 131.1 67 131.5 67 131.8zM85.1 143c-1 0-1.8-0.1-2.6-0.5 -0.7-0.4-1.4-0.8-2-1.4 -0.6-0.6-1-1.3-1.3-2.1 -0.2-0.8-0.5-1.8-0.5-2.7 0-1.1 0.1-2.1 0.5-3.1 0.4-1 0.8-1.8 1.4-2.4 0.6-0.7 1.4-1.2 2.3-1.5 0.8-0.4 1.9-0.6 2.9-0.6 1 0 1.8 0.1 2.6 0.5 0.7 0.4 1.4 0.7 2 1.3 0.6 0.6 1 1.3 1.2 2.1s0.5 1.8 0.5 2.9 -0.1 2.1-0.5 3.1c-0.4 1-0.8 1.8-1.4 2.4 -0.6 0.7-1.4 1.2-2.3 1.5C87.1 142.9 86.2 143 85.1 143zM85.7 140.7c1.7 0 2.5-1.3 2.5-3.9 0-1.9-0.2-3.3-0.7-4.2 -0.5-1-1.2-1.4-2.1-1.4 -1.7 0-2.5 1.3-2.5 3.9 0 1.9 0.2 3.3 0.7 4.2C84 140.3 84.7 140.7 85.7 140.7zM93.6 141.1c0.4-0.1 0.6-0.1 0.8-0.2 0.2-0.1 0.4-0.2 0.5-0.5 0.1-0.1 0.1-0.4 0.1-0.7 0-0.2 0-0.6 0-1v-13.7c0-0.5-0.1-0.8-0.2-1.2 -0.1-0.2-0.4-0.4-0.6-0.5 -0.1 0-0.4 0-0.6 0s-0.5 0-0.6 0V123l0.1-1.3c0.7-0.1 1.4-0.2 2.1-0.2 0.7-0.1 1.4-0.2 2-0.2 0.7-0.1 1.3-0.2 2-0.4l0.2 0.6c-0.1 0.1-0.2 0.7-0.4 1.8 -0.1 1-0.2 2.3-0.2 3.9 -0.1 1.7-0.1 3.6-0.2 5.7 0 2.1-0.1 4.4-0.1 6.9 0 0.5 0.1 0.8 0.2 1.1 0.1 0.2 0.4 0.2 0.7 0.2 0 0 0.1 0 0.2 0s0.2 0 0.4 0c0.1 0 0.2 0 0.4 0v0.1l-0.2 1.8c-0.5 0-0.8 0-1.3 0 -0.4 0-0.7 0-1.1 0 -0.4 0-0.7 0-1.1 0 -0.4 0-0.7 0-1.2 0 -0.4 0-0.7 0.1-1.1 0.1 -0.4 0-0.8 0.1-1.2 0.1L93.6 141.1zM110.5 140.9c-1.9 1.4-3 2-3.4 2 -0.8 0-1.7-0.1-2.4-0.5 -0.7-0.2-1.3-0.7-1.8-1.3s-0.8-1.2-1.1-2 -0.4-1.7-0.4-2.7c0-1.1 0.2-2.1 0.6-3.1s0.8-1.8 1.5-2.4c0.7-0.7 1.4-1.2 2.4-1.5 1-0.4 1.9-0.6 3-0.6 0.2 0 0.5 0 0.7 0 0.2 0 0.5 0 0.7 0v-3.7c0-0.6-0.1-1.1-0.2-1.3 -0.1-0.2-0.5-0.4-1-0.4 -0.1 0-0.2 0-0.5 0 -0.1 0-0.1 0-0.2 0l0.1-1.8c0.7-0.1 1.4-0.2 2.1-0.4 0.7-0.1 1.3-0.2 1.9-0.4 0.6-0.1 1.3-0.2 1.9-0.4l0.2 0.5c-0.1 0.2-0.2 0.8-0.4 1.8 -0.1 1.1-0.2 2.4-0.2 3.9 -0.1 1.5-0.1 3.4-0.2 5.5 0 2-0.1 4.2-0.1 6.3 0 0.4 0.1 0.7 0.2 0.8 0.1 0.2 0.4 0.4 0.7 0.4 0.1 0 0.4 0 0.5-0.1 0.1 0 0.2-0.1 0.4-0.1 0.1-0.1 0.2-0.1 0.4-0.2l0.5 0.6c-0.2 0.5-0.6 0.8-0.8 1.3 -0.2 0.4-0.6 0.7-1 1 -0.4 0.4-0.7 0.6-1.2 0.7 -1.8 0-2.7-0.7-3-2.1L110.5 140.9zM110.5 131.8c-0.1-0.1-0.4-0.1-0.6-0.2 -0.2 0-0.5-0.1-0.7-0.1 -0.2 0-0.6-0.1-0.8-0.1 -1 0-1.7 0.4-2.1 1.1 -0.5 0.7-0.7 1.8-0.7 3.1 0 1.4 0.2 2.6 0.8 3.4 0.5 0.8 1.2 1.3 2.1 1.3 0.2 0 0.6 0 0.8-0.1s0.5-0.2 0.7-0.4c0.2-0.1 0.5-0.4 0.7-0.5v-7.5H110.5z"/></a></svg>