<svg xmlns="http://www.w3.org/2000/svg" version="1.2" baseProfile="tiny" x="0" y="0" viewBox="16.8 50 100 100" xml:space="preserve"><text transform="matrix(1 0 0 1 7.1079 13.5215)" opacity="0">x</text><path fill="#854949" d="M31.5 100c0-9.7 4-18.6 10.3-25L31.4 64.6c-19.5 19.5-19.5 51.3 0 70.8L41.8 125C35.5 118.7 31.5 109.7 31.5 100z"/><path fill="#000026" d="M91.8 125c-6.4 6.4-15.2 10.3-25 10.3 -9.7 0-18.6-4-25-10.3l-10.4 10.4c19.5 19.5 51.2 19.5 70.7 0L91.8 125z"/><path fill="#2A5DB0" d="M102.1 64.6L91.7 75c6.4 6.4 10.3 15.2 10.3 25 0 9.7-3.9 18.6-10.2 25l10.3 10.4C121.7 115.9 121.7 84.2 102.1 64.6z"/><path fill="#EBEBEB" d="M66.7 64.7c9.7 0 18.6 4 25 10.3l10.4-10.4c-19.5-19.5-51.2-19.5-70.7 0L41.8 75C48.1 68.7 56.9 64.7 66.7 64.7z"/></svg>