<svg xmlns="http://www.w3.org/2000/svg" version="1.2" baseProfile="tiny" x="0" y="0" viewBox="-50 50 100 99.9" xml:space="preserve"><text transform="matrix(1 0 0 1 7.1079 13.5215)" opacity="0">x</text><path fill="#EEEEEE" d="M-13.4 67.7L-19.1 54c-12.7 5.3-21.7 14.2-27 27l13.7 5.7C-28.8 78.1-22 71.3-13.4 67.7z"/><path fill="#444444" d="M-35 100c0-4.8 0.9-9.2 2.6-13.3L-46.1 81c-5.3 12.7-5.2 25.4 0.1 38.1l13.7-5.7C-34.1 109.2-35 104.7-35 100z"/><path fill="#68526E" d="M-32.3 113.4l-13.7 5.7c5.3 12.7 14.2 21.7 27 27l5.7-13.7C-22 128.8-28.8 122-32.3 113.4z"/><path fill="#81597A" d="M0.1 135c-4.8 0-9.3-0.9-13.4-2.6l-5.7 13.7c12.7 5.3 25.4 5.2 38.1-0.1l-5.7-13.7C9.3 134 4.8 135 0.1 135z"/><path fill="#7F9FA0" d="M32.4 113.4c-3.6 8.6-10.4 15.3-19 18.9l5.7 13.7c12.7-5.3 21.7-14.1 27-26.9L32.4 113.4z"/><path fill="#99B2B3" d="M46 81l-13.7 5.7C34 90.8 35 95.4 35 100c0 4.8-0.9 9.3-2.6 13.4l13.7 5.7C51.4 106.3 51.3 93.7 46 81z"/><path fill="#F3F2E9" d="M32.3 86.7L46 81c-5.3-12.7-14.1-21.7-26.9-27l-5.7 13.7C22 71.3 28.8 78.1 32.3 86.7z"/><path fill="#CCCCCC" d="M0.1 65c4.8 0 9.2 1 13.3 2.7L19.1 54c-12.7-5.3-25.5-5.3-38.2 0l5.7 13.7C-9.5 66-4.7 65 0.1 65z"/></svg>