<svg xmlns="http://www.w3.org/2000/svg" xmlns:xlink="http://www.w3.org/1999/xlink" version="1.2" baseProfile="tiny" x="0" y="0" viewBox="0 0 233.6 100" xml:space="preserve"><text transform="matrix(1 0 0 1 7.1079 13.5215)" opacity="0">x</text><a xlink:href="http://www.typography.com/fonts/archer/overview/" xlink:show="new"><path fill="#FFFFFF" d="M89.9 28.9h1.2l3.3-9.3H93v-2h7.6v2h-1.5l3.3 9.3h1.2v2.1h-5.2v-2h1.6l-0.8-2.2h-5l-0.8 2.2h1.6v2h-5.2V28.9zM98.6 24.8l-1.9-5.3 -1.9 5.3H98.6zM112.5 23.3c0 0.8-0.6 1.4-1.3 1.4 -0.7 0-1.1-0.4-1.3-0.8 -0.6 0.2-1.4 0.9-1.8 1.7v3.5h1.6v1.8h-5.1v-1.8h1.3v-5.2h-1.3V22h3.5v2c0.8-1.2 1.7-2.2 2.8-2.2C111.9 21.8 112.5 22.5 112.5 23.3zM113.1 26.4c0-2.3 1.9-4.6 4.5-4.6 2.5 0 4.1 1.6 4.1 3 0 0.9-0.6 1.5-1.4 1.5 -0.7 0-1.3-0.6-1.3-1.3 0-0.3 0.1-0.6 0.3-0.8 -0.2-0.2-0.7-0.6-1.6-0.6 -1 0-2.3 0.8-2.3 2.8 0 1.7 1.3 2.8 2.9 2.8 1.1 0 2-0.3 3.2-0.9l-0.2 2c-1 0.6-1.9 0.8-3.2 0.8C115.3 31.1 113.1 29.3 113.1 26.4zM123.2 17.9V16h3.6v7.4c0.8-0.8 1.8-1.5 3-1.5 1 0 1.7 0.3 2.2 1 0.4 0.5 0.6 1.2 0.6 2v4.3h1.3v1.8h-4.8v-1.8h1.2v-3.7c0-0.5-0.1-0.8-0.3-1.1 -0.2-0.3-0.6-0.4-1-0.4 -0.8 0-1.6 0.4-2.3 1v4.2h1.2v1.8h-4.8v-1.8h1.3V17.9H123.2zM137.1 27.2c0.3 1.4 1.5 2 2.9 2 1.1 0 2.2-0.3 3.2-0.9l-0.2 2c-0.9 0.6-2.1 0.8-3.4 0.8 -2.9 0-4.9-1.8-4.9-4.6 0-2.5 1.8-4.7 4.5-4.7 2.9 0 4.4 1.9 4.4 4.3 0 0.3 0 0.8-0.1 1.1H137.1zM137 25.7h4.4c0-1.2-0.8-2-2.1-2C138.3 23.6 137.3 24.2 137 25.7zM152.9 23.3c0 0.8-0.6 1.4-1.3 1.4 -0.7 0-1.1-0.4-1.3-0.8 -0.6 0.2-1.4 0.9-1.8 1.7v3.5h1.6v1.8h-5.1v-1.8h1.3v-5.2h-1.3V22h3.5v2c0.8-1.2 1.7-2.2 2.8-2.2C152.3 21.8 152.9 22.5 152.9 23.3zM158.4 28.9h1.5v-9.3h-1.5v-2.1h5.4c2.9 0 5.1 1.7 5.1 4.4 0 3.1-2.2 4.6-5.4 4.6 -0.6 0-1 0-1.3 0v2.4h1.7v2.1h-5.5V28.9zM166.5 21.9c0-1.4-1.2-2.3-2.8-2.3h-1.4v4.9c0.2 0 0.6 0 1.5 0C165.5 24.5 166.5 23.5 166.5 21.9zM178.1 23.3c0 0.8-0.6 1.4-1.3 1.4 -0.7 0-1.1-0.4-1.3-0.8 -0.6 0.2-1.4 0.9-1.8 1.7v3.5h1.6v1.8h-5.1v-1.8h1.3v-5.2h-1.3V22h3.5v2c0.8-1.2 1.7-2.2 2.8-2.2C177.5 21.8 178.1 22.5 178.1 23.3zM178.8 26.5c0-2.5 1.8-4.6 4.8-4.6 3 0 4.8 2.1 4.8 4.6 0 2.5-1.8 4.6-4.8 4.6C180.6 31.1 178.8 28.9 178.8 26.5zM186 26.5c0-1.6-1-2.8-2.5-2.8 -1.5 0-2.5 1.1-2.5 2.8 0 1.6 1 2.8 2.5 2.8C185 29.2 186 28.1 186 26.5zM194.2 28.9h1.5v-9.3h-1.5v-2.1h5.4c3.3 0 4.9 1.5 4.9 3.5 0 1.6-1 2.6-2.3 3 1.7 0.5 2.7 1.5 2.7 3.1 0 2.2-1.8 3.8-5.1 3.8h-5.6V28.9zM199.6 23.2c1.6 0 2.5-0.7 2.5-1.9 0-1.1-0.9-1.8-2.6-1.8H198v3.7H199.6zM199.9 28.9c1.6 0 2.7-0.7 2.7-1.9 0-1.2-1-1.9-2.7-1.9H198v3.9H199.9zM206.3 26.5c0-2.5 1.8-4.6 4.8-4.6 3 0 4.8 2.1 4.8 4.6 0 2.5-1.8 4.6-4.8 4.6C208.1 31.1 206.3 28.9 206.3 26.5zM213.6 26.5c0-1.6-1-2.8-2.5-2.8 -1.4 0-2.5 1.1-2.5 2.8 0 1.6 1 2.8 2.5 2.8C212.5 29.2 213.6 28.1 213.6 26.5zM217.1 29.1h1.4V17.9h-1.4V16h3.6v13.1h1.3v1.8h-4.9V29.1zM223.3 26.5c0-2.6 1.9-4.7 4.3-4.7 1.1 0 2 0.4 2.5 0.9v-4.8h-1.3V16h3.6v13.1h1.3v1.8H230v-1c-0.7 0.6-1.5 1.1-2.6 1.1C225 31.1 223.3 29.2 223.3 26.5zM230 28.3v-3.8c-0.6-0.4-1.3-0.7-2.1-0.7 -1.2 0-2.4 1-2.4 2.7 0 1.7 1.1 2.7 2.4 2.7C228.8 29.2 229.4 28.8 230 28.3zM0.4 53.8h1.2l6-10.2H6L6.4 42h6.8l-0.4 1.6h-1.5l1.3 10.2H14l-0.4 1.7H8.9l0.4-1.6h1.5L10.5 51H5.1l-1.7 2.8h1.8l-0.4 1.6H0L0.4 53.8zM10.3 49.4l-0.7-5.9L6 49.4H10.3zM17.2 48.1h-1.6l0.4-1.5h3.1l-0.6 2.5c1.1-1.7 2.1-2.6 3.1-2.6 0.7 0 1.3 0.5 1.3 1.2 0 0.7-0.6 1.2-1.2 1.2 -0.6 0-1.1-0.4-1.2-0.9 -0.6 0.3-1.9 1.5-2.3 3.4l-1 3.9h-1.8L17.2 48.1zM23.1 51.7c0-2.8 2.3-5.2 5.1-5.2 1.9 0 3.2 1.2 3.2 2.5 0 0.8-0.5 1.4-1.2 1.4 -0.6 0-1-0.4-1-1.1 0-0.3 0.1-0.6 0.4-0.8 -0.3-0.3-0.8-0.5-1.4-0.5 -1.6 0-3.3 1.4-3.3 3.6 0 1.5 1 2.5 2.5 2.5 1 0 2.1-0.4 3-1.1l0 1.6c-0.9 0.6-1.9 1-3.1 1C24.9 55.6 23.1 54.1 23.1 51.7zM35.6 42h-1.7l0.4-1.5h3.4l-1.8 7.9c0.6-1 1.7-1.9 2.8-1.9 1.3 0 2.4 0.9 2.4 2.5 0 0.4-0.1 0.9-0.2 1.4L40.2 53c-0.1 0.3-0.1 0.5-0.1 0.7 0 0.4 0.2 0.7 0.5 0.7 0.4 0 0.7-0.3 1.1-1.4l0.8 0.3c-0.5 1.6-1.3 2.3-2.4 2.3 -1.2 0-1.9-0.7-1.9-1.8 0-0.3 0.1-0.7 0.1-1l0.7-2.7c0.1-0.3 0.1-0.6 0.1-0.9 0-0.8-0.6-1.3-1.3-1.3 -1.1 0-2.1 0.9-2.6 2.7l-1.1 4.7h-1.8L35.6 42zM45.5 51.6v0.3c0 1.3 1.1 2.2 2.7 2.2 0.9 0 1.8-0.2 2.9-0.8L50.7 55c-0.9 0.4-1.7 0.6-2.9 0.6 -2.1 0-4-1.3-4-3.7 0-3 2.2-5.4 4.8-5.4 2.1 0 3.6 1.2 3.6 3.3 0 0.6-0.1 1.2-0.3 1.8H45.5zM45.7 50.3h4.6c0.1-0.2 0.1-0.5 0.1-0.8 0-0.9-0.6-1.6-1.9-1.6C47.3 48 46.2 48.9 45.7 50.3zM55.5 48.1h-1.6l0.4-1.5h3.1l-0.6 2.5c1.1-1.7 2.1-2.6 3.1-2.6 0.7 0 1.3 0.5 1.3 1.2 0 0.7-0.6 1.2-1.2 1.2 -0.6 0-1.1-0.4-1.2-0.9 -0.6 0.3-1.9 1.5-2.3 3.4l-1 3.9h-1.8L55.5 48.1zM65.6 53.8h1.5l2.3-10.1h-1.7l0.4-1.7h4.5c0.6 0 1.2 0.1 1.7 0.2 1.9 0.5 2.9 1.9 2.9 3.6 0 2.7-2.1 4.9-5.7 4.9 -0.7 0-1.5 0-1.9 0L69 53.8h1.8l-0.4 1.7h-5.2L65.6 53.8zM75.4 45.9c0-1.1-0.6-1.8-1.7-2.1 -0.4-0.1-0.8-0.1-1.2-0.1h-1.1l-1.3 5.4c0.5 0 1.1 0 1.7 0C74.2 49.1 75.4 47.7 75.4 45.9zM79.5 48.1h-1.6l0.4-1.5h3.1l-0.6 2.5c1.1-1.7 2.1-2.6 3.1-2.6 0.7 0 1.3 0.5 1.3 1.2 0 0.7-0.6 1.2-1.2 1.2 -0.6 0-1.1-0.4-1.2-0.9 -0.6 0.3-1.9 1.5-2.3 3.4l-1 3.9h-1.8L79.5 48.1zM85.3 51.7c0-2.7 2.1-5.2 5-5.2 2.5 0 4 1.8 4 3.9 0 2.7-2.1 5.2-5 5.2C86.8 55.6 85.3 53.8 85.3 51.7zM92.5 50.4c0-1.5-1-2.4-2.2-2.4 -1.7 0-3.1 1.7-3.1 3.7 0 1.5 1 2.4 2.2 2.4C91.1 54.1 92.5 52.4 92.5 50.4zM100 52.5c0-0.9 0.6-1.6 1.4-1.6 0.7 0 1.2 0.6 1.2 1.2 0 0.4-0.2 0.8-0.5 1 0.4 0.5 1.4 1 2.8 1 1.5 0 2.7-0.8 2.7-2.1 0-1.1-0.9-1.7-2.3-2.5 -1.6-0.9-3.2-2-3.2-4 0-1.9 1.8-3.7 4.6-3.7 2.5 0 4.3 1.5 4.3 2.8 0 0.9-0.6 1.6-1.3 1.6 -0.7 0-1.2-0.5-1.2-1.2 0-0.3 0.1-0.7 0.4-0.9 -0.3-0.3-1.1-0.7-2.2-0.7 -1.6 0-2.6 0.9-2.6 1.9 0 1.2 1 1.8 2.5 2.7 1.6 0.9 3 2 3 3.9 0 2.2-1.9 3.8-4.7 3.8C102.1 55.7 100 54.1 100 52.5zM113.1 51.6v0.3c0 1.3 1.1 2.2 2.7 2.2 0.9 0 1.8-0.2 2.9-0.8l-0.3 1.7c-0.9 0.4-1.7 0.6-2.9 0.6 -2.1 0-4-1.3-4-3.7 0-3 2.2-5.4 4.8-5.4 2.1 0 3.6 1.2 3.6 3.3 0 0.6-0.1 1.2-0.3 1.8H113.1zM113.3 50.3h4.6c0.1-0.2 0.1-0.5 0.1-0.8 0-0.9-0.6-1.6-1.9-1.6C114.9 48 113.8 48.9 113.3 50.3zM123.1 48.1h-1.6l0.4-1.5h3.1l-0.5 2.1c0.7-1.2 1.8-2.2 2.9-2.2 1.3 0 2.1 0.9 2.2 2.2 0.8-1.3 1.9-2.2 3-2.2 1.3 0 2.3 0.9 2.3 2.5 0 0.4-0.1 0.9-0.2 1.4l-0.8 2.6c-0.1 0.3-0.1 0.6-0.1 0.7 0 0.4 0.2 0.7 0.6 0.7 0.3 0 0.7-0.3 1.1-1.4l0.8 0.3c-0.5 1.6-1.3 2.3-2.4 2.3 -1.2 0-1.9-0.7-1.9-1.8 0-0.3 0.1-0.7 0.1-1l0.7-2.6c0.1-0.4 0.2-0.7 0.2-1 0-0.8-0.5-1.3-1.2-1.3 -1 0-2 0.9-2.5 2.8l-1.2 4.7h-1.8l1.3-5.2c0.1-0.4 0.1-0.8 0.1-1 0-0.7-0.5-1.2-1.2-1.2 -1 0-2 1-2.5 2.8l-1.2 4.7h-1.8L123.1 48.1zM138.1 53.8c0-0.3 0.1-0.7 0.1-1l1.2-4.7h-1.7l0.4-1.5h3.5l-1.6 6.2c-0.1 0.3-0.1 0.7-0.1 0.9 0 0.4 0.2 0.6 0.5 0.6 0.4 0 0.8-0.3 1.2-1.4l0.8 0.3c-0.5 1.8-1.4 2.3-2.5 2.3C138.7 55.6 138.1 54.9 138.1 53.8zM139.8 44c0-0.7 0.5-1.2 1.2-1.2 0.6 0 1.2 0.5 1.2 1.2s-0.6 1.2-1.2 1.2C140.3 45.1 139.8 44.6 139.8 44zM146.6 42h-1.7l0.4-1.5h3.4l-1.8 7.8c0.7-1 1.8-1.8 3-1.8 2 0 3.2 1.4 3.2 3.6 0 3.1-2.1 5.6-4.7 5.6 -1.3 0-2.4-0.8-2.7-2l-0.5 1.9h-1.7L146.6 42zM151.2 50.3c0-1.3-0.7-2.3-2-2.3 -1.7 0-3.2 1.9-3.2 3.9 0 1.3 0.8 2.1 2.1 2.1C149.9 54 151.2 52.2 151.2 50.3zM154.6 51.7c0-2.7 2.1-5.2 5-5.2 2.5 0 4 1.8 4 3.9 0 2.7-2.1 5.2-5 5.2C156.1 55.6 154.6 53.8 154.6 51.7zM161.8 50.4c0-1.5-1-2.4-2.2-2.4 -1.7 0-3.1 1.7-3.1 3.7 0 1.5 1 2.4 2.2 2.4C160.4 54.1 161.8 52.4 161.8 50.4zM165.4 53.8c0-0.3 0.1-0.6 0.1-0.9L168 42h-1.7l0.4-1.5h3.4l-2.9 12.4c-0.1 0.3-0.1 0.7-0.1 0.9 0 0.4 0.2 0.7 0.5 0.7 0.4 0 0.8-0.3 1.2-1.4l0.8 0.3c-0.5 1.8-1.4 2.3-2.5 2.3C166 55.6 165.4 54.9 165.4 53.8zM175.6 46.5c1.3 0 2.3 1 2.7 2l1.5-6.5h-1.6l0.4-1.5h3.4L179 52.9c-0.1 0.4-0.1 0.7-0.1 0.9 0 0.4 0.2 0.6 0.5 0.6s0.7-0.3 1.2-1.4l0.8 0.3c-0.5 1.8-1.5 2.3-2.4 2.3 -1.1 0-1.7-0.7-1.7-1.8v-0.1c-0.7 1.1-1.8 1.9-3.1 1.9 -1.8 0-3-1.4-3-3.5C171 49 173.1 46.5 175.6 46.5zM177.9 50.2c0-1.3-0.7-2.2-2-2.2 -1.7 0-3 1.9-3 3.8 0 1.3 0.7 2.2 1.9 2.2C176.5 54.1 177.9 52.2 177.9 50.2zM186.5 53.8h1.7l2.3-10.1h-1.8l0.4-1.7h5.4l-0.4 1.7h-1.7L190 53.8h1.8l-0.4 1.7h-5.4L186.5 53.8zM197.8 48.1l-1.1 4.5c-0.1 0.3-0.1 0.6-0.1 0.8 0 0.5 0.3 0.8 0.7 0.8 0.5 0 0.9-0.2 1.8-0.8l0.6 0.9c-1.1 1-2.1 1.3-3 1.3 -1.1 0-1.9-0.6-1.9-1.9 0-0.3 0.1-0.7 0.1-1.1l1.1-4.5h-1.6l0.3-1.5h1.6l0.5-2 2-0.7 -0.7 2.7h2.7l-0.4 1.5H197.8zM201.3 52.1c0-3 2.1-5.6 4.6-5.6 1.3 0 2.3 1 2.6 2.1l0.6-2h1.7l-1.6 6.3c-0.1 0.4-0.2 0.7-0.2 0.9 0 0.4 0.2 0.6 0.5 0.6 0.3 0 0.7-0.3 1.1-1.4l0.8 0.3c-0.5 1.8-1.4 2.3-2.4 2.3 -1 0-1.7-0.7-1.7-1.8v-0.1c-0.8 1-1.8 1.9-3.1 1.9C202.6 55.6 201.3 54.2 201.3 52.1zM208.2 50.2c0-1.3-0.7-2.2-2-2.2 -1.7 0-3 1.9-3 3.8 0 1.3 0.6 2.2 1.9 2.2C206.8 54.1 208.2 52.1 208.2 50.2zM213.1 53.8c0-0.3 0.1-0.6 0.1-0.9l2.5-10.9h-1.7l0.4-1.5h3.4l-2.9 12.4c-0.1 0.3-0.1 0.7-0.1 0.9 0 0.4 0.2 0.7 0.5 0.7 0.4 0 0.8-0.3 1.2-1.4l0.8 0.3c-0.5 1.8-1.4 2.3-2.5 2.3C213.8 55.6 213.1 54.9 213.1 53.8zM219.4 53.8c0-0.3 0.1-0.7 0.1-1l1.2-4.7h-1.7l0.4-1.5h3.5l-1.6 6.2c-0.1 0.3-0.1 0.7-0.1 0.9 0 0.4 0.2 0.6 0.5 0.6 0.4 0 0.8-0.3 1.2-1.4l0.8 0.3c-0.5 1.8-1.4 2.3-2.5 2.3C220.1 55.6 219.4 54.9 219.4 53.8zM221.1 44c0-0.7 0.5-1.2 1.2-1.2 0.6 0 1.2 0.5 1.2 1.2s-0.6 1.2-1.2 1.2C221.7 45.1 221.1 44.6 221.1 44zM225.1 51.7c0-2.8 2.3-5.2 5.1-5.2 1.9 0 3.2 1.2 3.2 2.5 0 0.8-0.5 1.4-1.2 1.4 -0.6 0-1-0.4-1-1.1 0-0.3 0.1-0.6 0.4-0.8 -0.3-0.3-0.8-0.5-1.4-0.5 -1.6 0-3.3 1.4-3.3 3.6 0 1.5 1 2.5 2.5 2.5 1 0 2.1-0.4 3-1.1l0 1.6c-0.9 0.6-1.9 1-3.1 1C226.9 55.6 225.1 54.1 225.1 51.7zM61.2 79.5h1.6l4.7-12.5h-1.8v-0.4h4.8v0.4h-1.8l4.7 12.5h1.6v0.4h-4.1v-0.4h1.9l-1.7-4.7h-5.9l-1.7 4.7h2v0.4h-4.1V79.5zM70.8 74.4L68 66.9l-2.8 7.5H70.8zM81.3 72.1c0 0.3-0.2 0.5-0.5 0.5 -0.3 0-0.5-0.2-0.5-0.6v-0.1c-0.9 0.1-1.7 0.9-2.3 2.1v5.6h1.7v0.4h-3.7v-0.4h1.5v-7.6h-1.5v-0.4h2v1.9c0.6-1.1 1.6-2 2.6-2C81 71.4 81.3 71.7 81.3 72.1zM82.5 75.8c0-2.6 1.9-4.4 4.1-4.4 1.8 0 3.2 1.2 3.2 2.3 0 0.4-0.2 0.7-0.6 0.7 -0.2 0-0.4-0.2-0.4-0.5 0-0.3 0.2-0.5 0.5-0.6 -0.2-0.8-1.3-1.5-2.6-1.5 -2 0-3.7 1.7-3.7 4 0 2.3 1.7 3.8 3.9 3.8 1 0 1.9-0.3 2.7-0.9l0 0.5c-0.8 0.5-1.7 0.8-2.7 0.8C84.4 80.1 82.5 78.5 82.5 75.8zM91.3 65.5v-0.4h2v8.2c0.8-0.9 2-1.8 3.4-1.8 1 0 1.7 0.4 2.1 1 0.3 0.5 0.5 1.2 0.5 1.9v5.2h1.5v0.4h-3.5v-0.4h1.5v-5.2c0-0.8-0.1-1.3-0.4-1.8 -0.3-0.5-0.9-0.8-1.7-0.8 -1.3 0-2.4 0.9-3.3 1.9v5.8h1.5v0.4h-3.5v-0.4h1.5V65.5H91.3zM102.5 75.7c0 2.6 1.5 4 3.8 4 1.1 0 2.2-0.4 3-1l0 0.5c-0.8 0.5-1.8 0.9-3 0.9 -2.5 0-4.2-1.6-4.2-4.4 0-2.5 1.8-4.3 3.9-4.3 2.4 0 3.7 1.9 3.7 3.9 0 0.1 0 0.2 0 0.3H102.5zM102.5 75.3h6.7c0-1.8-1.1-3.5-3.3-3.5C104.2 71.8 102.7 73.3 102.5 75.3zM116.8 72.1c0 0.3-0.2 0.5-0.5 0.5 -0.3 0-0.5-0.2-0.5-0.6v-0.1c-0.9 0.1-1.7 0.9-2.3 2.1v5.6h1.7v0.4h-3.7v-0.4h1.5v-7.6h-1.5v-0.4h2v1.9c0.6-1.1 1.6-2 2.6-2C116.5 71.4 116.8 71.7 116.8 72.1zM122.6 79.5h1.9V66.9h-1.9v-0.4h4.9c2.8 0 4.7 1.7 4.7 4 0 2.5-1.8 4.1-4.7 4.1 -0.8 0-2 0-2.4 0v4.9h2v0.4h-4.5V79.5zM131.7 70.6c0-2.1-1.6-3.6-4.2-3.6h-2.4v7.2c0.5 0 1.6 0 2.4 0C130.3 74.2 131.7 72.7 131.7 70.6zM139.2 72.1c0 0.3-0.2 0.5-0.5 0.5 -0.3 0-0.5-0.2-0.5-0.6v-0.1c-0.9 0.1-1.7 0.9-2.3 2.1v5.6h1.7v0.4h-3.7v-0.4h1.5v-7.6h-1.5v-0.4h2v1.9c0.6-1.1 1.6-2 2.6-2C138.9 71.4 139.2 71.7 139.2 72.1zM140.4 75.7c0-2.4 1.8-4.3 4.2-4.3 2.5 0 4.2 1.9 4.2 4.3 0 2.4-1.8 4.3-4.2 4.3C142.2 80.1 140.4 78.2 140.4 75.7zM148.4 75.7c0-2.2-1.6-3.9-3.7-3.9 -2.2 0-3.7 1.7-3.7 3.9 0 2.2 1.6 3.9 3.7 3.9C146.8 79.7 148.4 77.9 148.4 75.7zM155.1 79.5h1.9V66.9h-1.9v-0.4h9.3v2.9h-0.5v-2.5h-6.3v5.9h4.9v0.5h-4.9v6.2h6.3V77h0.5v2.9h-9.3V79.5zM166.1 79.5h1.2l2.9-3.9 -2.7-3.7h-1.2v-0.4h3.1v0.4h-1.4l2.5 3.4 2.5-3.4h-1.4v-0.4h3.1v0.4h-1.2l-2.7 3.7 2.9 3.9h1.2v0.4h-3.2v-0.4h1.5l-2.6-3.7 -2.7 3.7h1.5v0.4h-3.2V79.5zM177.3 79.1c-0.1-0.3-0.2-0.7-0.2-1.1v-6.1h-1.6v-0.4h1.6v-2.3l0.5-0.1v2.5h2.8v0.4h-2.8V78c0 0.3 0 0.7 0.1 0.9 0.2 0.5 0.6 0.7 1.1 0.7 0.6 0 1-0.2 1.5-0.5l-0.1 0.5c-0.4 0.3-0.9 0.4-1.4 0.4C178.1 80.1 177.5 79.8 177.3 79.1zM187.2 72.1c0 0.3-0.2 0.5-0.5 0.5 -0.3 0-0.5-0.2-0.5-0.6v-0.1c-0.9 0.1-1.7 0.9-2.3 2.1v5.6h1.7v0.4h-3.7v-0.4h1.5v-7.6h-1.5v-0.4h2v1.9c0.6-1.1 1.6-2 2.6-2C186.9 71.4 187.2 71.7 187.2 72.1zM188.5 77.7c0-1.5 1.3-2.5 3.1-2.5 1 0 2 0.2 2.8 0.5V74c0-0.6-0.1-1.1-0.4-1.4 -0.4-0.5-1.1-0.8-2-0.8 -1.1 0-1.8 0.4-2.2 0.8 0.2 0.1 0.2 0.3 0.2 0.6 0 0.2-0.2 0.5-0.5 0.5 -0.3 0-0.5-0.2-0.5-0.6 0-0.7 1-1.7 2.9-1.7 1.1 0 1.9 0.3 2.4 0.9 0.3 0.4 0.6 1 0.6 1.7v5.6h1.5v0.4h-2v-1.4c-0.7 0.8-1.8 1.5-3.1 1.5C189.4 80.1 188.5 79 188.5 77.7zM194.4 78.1V76c-0.9-0.3-1.8-0.4-2.8-0.4 -1.8 0-2.6 1-2.6 2.1 0 1 0.7 2 2.3 2C192.5 79.7 193.6 79 194.4 78.1zM197.3 79.5h1.6V65.5h-1.6v-0.4h2.1v14.5h1.7v0.4h-3.8V79.5zM202.4 79.5h1.7v-7.6h-1.7v-0.4h2.1v8h1.7v0.4h-3.8V79.5zM203.6 67.9c0-0.3 0.2-0.6 0.5-0.6 0.3 0 0.5 0.2 0.5 0.6 0 0.3-0.2 0.6-0.5 0.6C203.8 68.4 203.6 68.2 203.6 67.9zM215.5 80.6c0 1-0.2 1.7-0.7 2.3 -0.6 0.8-1.6 1.2-3 1.2 -1.4 0-2.4-0.5-2.9-1 -0.2-0.2-0.3-0.5-0.3-0.7 0-0.4 0.2-0.6 0.5-0.6 0.3 0 0.5 0.2 0.5 0.5 0 0.2-0.1 0.4-0.4 0.5 0.3 0.4 1.2 0.9 2.5 0.9 1.2 0 2.1-0.4 2.6-1 0.4-0.5 0.6-1.1 0.6-2v-2.2c-0.8 0.9-1.9 1.6-3.3 1.6 -2.3 0-4-1.8-4-4.3 0-2.4 1.8-4.3 4.1-4.3 1.3 0 2.4 0.6 3.2 1.3v-1.2h2v0.4h-1.5V80.6zM208.2 75.7c0 2.2 1.4 3.9 3.6 3.9 1.4 0 2.5-0.8 3.3-1.7v-4.6c-0.8-0.8-1.9-1.4-3.2-1.4C209.7 71.8 208.2 73.5 208.2 75.7zM218.2 65.5v-0.4h2v8.2c0.8-0.9 2-1.8 3.4-1.8 1 0 1.7 0.4 2.1 1 0.3 0.5 0.5 1.2 0.5 1.9v5.2h1.5v0.4h-3.5v-0.4h1.5v-5.2c0-0.8-0.1-1.3-0.4-1.8 -0.3-0.5-0.9-0.8-1.7-0.8 -1.3 0-2.4 0.9-3.3 1.9v5.8h1.5v0.4h-3.5v-0.4h1.5V65.5H218.2zM230.3 79.1c-0.1-0.3-0.2-0.7-0.2-1.1v-6.1h-1.6v-0.4h1.6v-2.3l0.5-0.1v2.5h2.8v0.4h-2.8V78c0 0.3 0 0.7 0.1 0.9 0.2 0.5 0.6 0.7 1.1 0.7s1-0.2 1.5-0.5l-0.1 0.5c-0.4 0.3-0.9 0.4-1.4 0.4C231.1 80.1 230.5 79.8 230.3 79.1z"/></a></svg>