<svg xmlns="http://www.w3.org/2000/svg" xmlns:xlink="http://www.w3.org/1999/xlink" version="1.2" baseProfile="tiny" x="0" y="0" viewBox="-116.8 50 233.6 100" xml:space="preserve"><text transform="matrix(1 0 0 1 7.1079 13.5215)" opacity="0">x</text><a xlink:href="http://www.huertatipografica.com/fonts/alegreya-ht-pro" xlink:show="new"><path fill="#121212" d="M-51.4 68c0.1 0.4 0.2 0.7 0.4 0.9 0.1 0.2 0.3 0.4 0.5 0.6 0.2 0.2 0.4 0.3 0.7 0.4 0.3 0.1 0.6 0.1 1 0.2l0.1 0.1 -0.2 1.2c-0.4 0-0.7 0-1 0 -0.3 0-0.6 0-0.9 0s-0.6 0-0.8 0c-0.5 0-1 0-1.5 0 -0.5 0-0.9 0.1-1.2 0.1 -0.4 0.1-0.8 0.1-1.2 0.1l-0.1-0.2 0.1-1.1c0.9-0.1 1.5-0.2 1.8-0.3 0.3-0.2 0.5-0.4 0.5-0.7 0-0.4-0.1-0.8-0.2-1.4l-0.9-3.1c-0.2 0-0.4 0-0.6 0 -0.2 0-0.5 0-0.7 0 -0.3 0-0.5 0-0.8 0 -0.3 0-0.5 0-0.6 0 -0.5 0-1 0-1.6 0.1 -0.6 0.1-1 0.1-1.3 0.1l-1 3c-0.2 0.5-0.2 0.9-0.2 1.1 0 0.4 0.1 0.7 0.4 0.9s0.6 0.3 1.2 0.3h1.5l0.1 0.1 -0.2 1.2c-0.4 0-0.8 0-1.2-0.1 -0.3 0-0.7-0.1-1.2-0.1 -0.4 0-0.9 0-1.3 0 -0.3 0-0.6 0-1 0 -0.3 0-0.6 0-0.9 0 -0.3 0-0.7 0-1 0l0.2-1.3c0.5-0.1 0.9-0.2 1.2-0.5 0.3-0.3 0.6-0.9 0.9-1.7l5.1-14.6 1.6-0.5h0.2c0.4 1.7 0.9 3.5 1.3 5.3 0.2 0.8 0.4 1.6 0.6 2.4 0.2 0.8 0.5 1.7 0.7 2.6 0.2 0.9 0.5 1.7 0.7 2.6C-51.9 66.4-51.6 67.2-51.4 68zM-59.5 63.4h2.3c0.3 0 0.8 0 1.3 0 0.5 0 0.9-0.1 1.2-0.1l-2.1-7.5H-57L-59.5 63.4zM-48.3 70.4c0.4-0.1 0.7-0.3 0.9-0.4 0.2-0.2 0.3-0.4 0.4-0.6 0.1-0.2 0.1-0.5 0.1-0.8 0-0.3 0-0.7 0-1.2V53.3c0-1-0.3-1.5-1-1.5 -0.1 0-0.3 0-0.4 0.1 -0.1 0-0.1 0-0.2 0.1 0-0.1 0-0.2 0-0.3 0-0.1 0-0.2 0-0.3l0.1-0.5c0.5-0.1 0.9-0.1 1.4-0.2 0.5-0.1 0.9-0.2 1.2-0.3 0.4-0.1 0.9-0.2 1.3-0.3l0.2 0.4c-0.1 0.1-0.1 0.4-0.2 1 -0.1 0.5-0.1 1.2-0.2 2.1 -0.1 0.9-0.1 1.9-0.2 3 0 1.1-0.1 2.4-0.1 3.7 0 1.3-0.1 2.7-0.1 4.1 0 1.4 0 2.8 0 4.2 0 0.6 0.1 1 0.2 1.2 0.1 0.2 0.4 0.4 0.7 0.4 0.1 0 0.2 0 0.3 0 0.1 0 0.2 0 0.3 0 0.1 0 0.2 0 0.3 0l0.1 0.1 -0.2 1.2c-0.3 0-0.5 0-0.8 0 -0.2 0-0.5 0-0.8 0 -0.3 0-0.5 0-0.8 0 -0.3 0-0.6 0-0.9 0.1 -0.3 0-0.6 0.1-0.9 0.1 -0.3 0.1-0.6 0.1-0.9 0.2L-48.3 70.4zM-39.9 63.9v0.5c0 0.8 0.1 1.5 0.3 2.2 0.2 0.7 0.4 1.2 0.8 1.7 0.3 0.5 0.7 0.8 1.2 1.1 0.5 0.3 1 0.4 1.6 0.4 0.4 0 0.8 0 1.2-0.1 0.4-0.1 0.7-0.2 1-0.3 0.3-0.1 0.7-0.3 1-0.5l0.2 0.1 0.3 0.8c-0.5 0.4-0.9 0.7-1.4 1 -0.4 0.2-0.8 0.5-1.3 0.7 -0.5 0.2-0.9 0.3-1.3 0.3 -0.8 0-1.6-0.2-2.3-0.5 -0.7-0.3-1.3-0.7-1.7-1.3 -0.5-0.6-0.9-1.2-1.1-2 -0.3-0.8-0.4-1.6-0.4-2.6 0-1 0.2-1.9 0.5-2.8 0.3-0.9 0.7-1.7 1.3-2.3 0.5-0.7 1.1-1.2 1.8-1.6 0.7-0.4 1.4-0.6 2.2-0.6 2.6 0 3.9 1.4 3.9 4.2 0 0.4 0 0.7-0.1 0.8 0 0.1-0.1 0.3-0.1 0.6l-0.3 0.3H-39.9zM-35 62.5c0.3 0 0.4-0.1 0.5-0.2 0.1-0.1 0.1-0.3 0.1-0.6 0-0.8-0.2-1.3-0.6-1.7 -0.4-0.4-0.9-0.6-1.6-0.6 -0.8 0-1.5 0.3-2.1 0.9 -0.6 0.6-1 1.4-1.1 2.5L-35 62.5zM-25.1 67.5c-0.2 0-0.5 0-0.7-0.1 -0.2 0-0.5-0.1-0.8-0.2 -0.7 0.4-1.1 0.9-1.1 1.3 0 0.4 0.3 0.8 0.8 1 0.5 0.2 1.3 0.4 2.4 0.4 2 0.1 3.5 0.4 4.3 0.9C-19.4 71.3-19 72-19 73c0 0.7-0.2 1.3-0.6 1.9 -0.4 0.6-0.9 1.2-1.5 1.6 -0.6 0.5-1.3 0.9-2.1 1.2 -0.8 0.3-1.6 0.4-2.4 0.4 -1.3 0-2.2-0.3-2.9-1 -0.7-0.7-1-1.6-1-2.8 0.2-0.3 0.5-0.6 0.8-0.9 0.3-0.3 0.6-0.6 0.9-0.8 0.3-0.3 0.6-0.6 1-0.8v-0.2c-0.4-0.1-0.8-0.2-1.1-0.3 -0.3-0.2-0.7-0.4-0.9-0.6 -0.3-0.2-0.5-0.5-0.6-0.8 -0.1-0.3-0.2-0.6-0.2-1 0.2-0.2 0.4-0.5 0.7-0.7 0.3-0.2 0.5-0.4 0.7-0.6 0.3-0.2 0.5-0.4 0.8-0.6v-0.1c-0.6-0.4-1.1-0.9-1.4-1.5 -0.3-0.7-0.5-1.4-0.5-2.3 0-0.7 0.1-1.3 0.4-1.9 0.3-0.6 0.6-1.1 1.1-1.6 0.4-0.5 1-0.8 1.6-1.1 0.6-0.3 1.2-0.4 1.9-0.4 0.5 0 1 0.1 1.4 0.2 0.4 0.1 0.8 0.2 1.2 0.2 0.3 0 0.7-0.1 1.1-0.2 0.4-0.1 0.8-0.2 1.2-0.3 0.4-0.1 0.9-0.2 1.3-0.4l0.1 0.1 -0.3 1.6c-0.2 0-0.5 0-0.7 0.1 -0.2 0-0.4 0.1-0.7 0.1 -0.3 0-0.5 0.1-0.8 0.1l-0.1 0.1c0.7 0.9 1 1.8 1 2.9 0 0.7-0.1 1.4-0.4 2 -0.3 0.6-0.6 1.2-1.1 1.6 -0.5 0.5-1 0.8-1.6 1.1C-23.7 67.4-24.3 67.5-25.1 67.5zM-24.4 66.3c0.8 0 1.4-0.3 1.9-0.8 0.5-0.6 0.7-1.3 0.7-2.3 0-1.1-0.3-2-0.8-2.7 -0.6-0.7-1.3-1-2.2-1 -0.8 0-1.4 0.3-1.9 0.8 -0.5 0.6-0.7 1.3-0.7 2.3 0 1.1 0.3 2 0.8 2.7C-26.1 65.9-25.3 66.3-24.4 66.3zM-24.5 76.8c0.5 0 1-0.1 1.5-0.2 0.5-0.2 0.9-0.4 1.2-0.6 0.4-0.3 0.6-0.6 0.9-0.9 0.2-0.3 0.3-0.7 0.3-1.1 0-0.3-0.1-0.5-0.2-0.7 -0.1-0.2-0.4-0.4-0.8-0.5 -0.4-0.2-0.9-0.3-1.6-0.4 -0.7-0.1-1.5-0.3-2.6-0.4 -0.3 0.3-0.6 0.5-0.8 0.8 -0.2 0.2-0.4 0.5-0.6 0.8 -0.2 0.3-0.2 0.6-0.2 0.9 0 0.7 0.3 1.3 0.8 1.7C-26.1 76.6-25.4 76.8-24.5 76.8zM-15.3 69.7c0.2-0.3 0.3-0.9 0.3-1.8v-6.3c0-0.6-0.1-1.1-0.2-1.3 -0.2-0.3-0.4-0.4-0.8-0.4 -0.1 0-0.3 0-0.4 0.1 -0.1 0-0.1 0-0.2 0l-0.1-0.2 0.1-0.9c0.4-0.1 0.8-0.2 1.2-0.3 0.4-0.1 0.8-0.2 1.1-0.3 0.4-0.1 0.8-0.2 1.2-0.3l0.2 0.2c-0.1 0.3-0.1 0.6-0.1 1 0 0.3-0.1 0.6-0.1 1s0 0.7 0 1l0.1 0.1c0.3-0.5 0.6-0.9 0.9-1.2 0.3-0.4 0.6-0.7 1-1 0.3-0.3 0.7-0.5 1-0.6 0.3-0.2 0.6-0.2 0.9-0.2 0.2 0 0.5 0 0.6 0.1 0.1 0 0.1 0 0.2 0.1l0.1 0.1 -0.2 1.4c-0.1 0.4-0.1 0.8-0.1 1.3 0 0.5-0.1 0.9-0.1 1.4l-1 0.1c0-0.8 0-1.3-0.1-1.6 -0.1-0.3-0.3-0.4-0.6-0.4 -0.4 0-0.8 0.2-1.2 0.5 -0.4 0.3-0.8 0.8-1.2 1.4 0 1-0.1 1.9-0.1 2.7 0 0.3 0 0.7 0 1 0 0.3 0 0.7 0 0.9 0 0.3 0 0.5 0 0.7 0 0.2 0 0.4 0 0.4 0 0.6 0.1 1.1 0.2 1.3 0.2 0.2 0.5 0.3 1 0.3 0.1 0 0.2 0 0.3 0s0.3 0 0.4 0c0.1 0 0.3 0 0.4 0l0 0.1 -0.2 1.3c-0.3 0-0.6 0-0.9 0 -0.3 0-0.6 0-0.9 0 -0.3 0-0.6 0-0.8 0 -0.4 0-0.8 0-1.1 0s-0.6 0-0.9 0c-0.3 0-0.6 0-0.8 0.1l0.1-1.1C-15.8 70.2-15.4 70-15.3 69.7zM-4.9 63.9v0.5c0 0.8 0.1 1.5 0.3 2.2 0.2 0.7 0.4 1.2 0.8 1.7 0.3 0.5 0.7 0.8 1.2 1.1 0.5 0.3 1 0.4 1.6 0.4 0.4 0 0.8 0 1.2-0.1 0.4-0.1 0.7-0.2 1-0.3 0.3-0.1 0.7-0.3 1-0.5l0.2 0.1 0.3 0.8c-0.5 0.4-0.9 0.7-1.4 1 -0.4 0.2-0.8 0.5-1.3 0.7s-0.9 0.3-1.3 0.3c-0.8 0-1.6-0.2-2.3-0.5 -0.7-0.3-1.3-0.7-1.7-1.3 -0.5-0.6-0.9-1.2-1.1-2 -0.3-0.8-0.4-1.6-0.4-2.6 0-1 0.2-1.9 0.5-2.8 0.3-0.9 0.7-1.7 1.3-2.3 0.5-0.7 1.1-1.2 1.8-1.6S-1.9 58-1.1 58c2.6 0 3.9 1.4 3.9 4.2 0 0.4 0 0.7-0.1 0.8 0 0.1-0.1 0.3-0.1 0.6l-0.3 0.3H-4.9zM-0.1 62.5c0.3 0 0.4-0.1 0.5-0.2 0.1-0.1 0.1-0.3 0.1-0.6C0.6 61 0.4 60.4 0 60c-0.4-0.4-0.9-0.6-1.6-0.6 -0.8 0-1.5 0.3-2.1 0.9 -0.6 0.6-1 1.4-1.1 2.5L-0.1 62.5zM9.9 68.6c0.3-0.8 0.6-1.6 1-2.6 0.4-0.9 0.7-1.8 1-2.7 0.3-0.8 0.6-1.6 0.8-2.2 0.2-0.6 0.3-1 0.3-1.2 0-0.5-0.3-0.7-1-0.7h-1.2l-0.1-0.1 0.2-0.9c0.3 0 0.5 0 0.8 0.1 0.2 0 0.5 0 0.8 0 0.3 0 0.6 0 1 0H15c0.3 0 0.5 0 0.8 0l-0.2 1.1c-0.4 0.1-0.7 0.2-0.9 0.5 -0.2 0.2-0.4 0.6-0.6 1.2l-3.4 8.7c-0.7 1.7-1.3 3.1-1.7 4.2s-0.9 2-1.3 2.6c-0.4 0.6-0.8 1.1-1.3 1.3 -0.4 0.2-0.9 0.4-1.5 0.3 -0.1 0-0.2-0.1-0.3-0.2 -0.1-0.1-0.2-0.3-0.4-0.5 -0.1-0.2-0.2-0.4-0.3-0.5 -0.1-0.2-0.1-0.3-0.1-0.4l0.1-0.2c1 0 2-0.4 2.9-1.3 0.9-0.9 1.6-2.1 2.2-3.7 -0.2-0.7-0.5-1.5-0.7-2.5 -0.3-0.9-0.6-1.9-0.9-2.9C7 65 6.7 64 6.3 63.1c-0.3-0.9-0.6-1.7-0.8-2.4 -0.2-0.5-0.4-0.8-0.7-1 -0.3-0.2-0.6-0.3-1.1-0.3l-0.1-0.1 0.2-0.9c0.3 0 0.6 0 0.9 0H6c0.4 0 0.8 0 1.1 0 0.4 0 0.7 0 1-0.1 0.3 0 0.7-0.1 1-0.1l0.1 0.1L9 59.1c-0.6 0-1 0.1-1.2 0.2 -0.2 0.1-0.3 0.3-0.3 0.5 0 0.1 0 0.4 0.1 0.7 0.1 0.3 0.2 0.7 0.3 1.1 0.1 0.4 0.2 0.9 0.4 1.4 0.1 0.5 0.3 1 0.4 1.5 0.3 1.2 0.7 2.5 1.2 4H9.9zM23 62.9c0-1-0.2-1.7-0.6-2.2 -0.4-0.5-1-0.8-1.7-0.8 -0.4 0-0.8 0.1-1.2 0.2 -0.4 0.2-0.7 0.3-1 0.5 -0.3 0.2-0.6 0.4-0.9 0.7l-0.1-0.1L17.2 60c0.6-0.4 1.2-0.7 1.7-1 0.5-0.2 0.9-0.5 1.4-0.7 0.5-0.2 0.9-0.3 1.2-0.3 1.2 0 2 0.3 2.7 1 0.6 0.6 1 1.6 1 2.7 0 0.3 0 0.7-0.1 1.2 -0.1 0.6-0.1 1.2-0.2 1.8 -0.1 0.7-0.1 1.3-0.2 1.9 -0.1 0.6-0.1 1.2-0.1 1.6 0 0.9 0.4 1.3 1.1 1.3 0.2 0 0.4 0 0.6-0.1 0.2-0.1 0.4-0.1 0.5-0.2 0.2-0.1 0.3-0.2 0.5-0.4l0.4 0.5c-0.2 0.3-0.4 0.7-0.7 1 -0.2 0.3-0.4 0.5-0.7 0.8 -0.3 0.2-0.6 0.4-0.9 0.5 -1.4 0-2.2-0.8-2.3-2.3l-0.1 0c-0.6 0.7-1.2 1.2-1.7 1.6 -0.5 0.4-0.9 0.6-1.2 0.6 -0.5 0-0.9-0.1-1.3-0.3 -0.4-0.2-0.8-0.4-1.1-0.7 -0.3-0.3-0.5-0.7-0.7-1.1 -0.2-0.4-0.2-0.9-0.2-1.4 0-0.6 0.1-1 0.4-1.5 0.3-0.4 0.6-0.7 1-0.8l4.9-1.5L23 62.9zM22.9 65.2l-3.5 1.2c-0.5 0.2-0.8 0.6-0.8 1.2 0 0.6 0.2 1 0.5 1.4 0.3 0.4 0.8 0.5 1.3 0.5 0.3 0 0.7-0.1 1.2-0.4 0.4-0.3 0.9-0.6 1.2-1L22.9 65.2zM38.7 63.4l-0.1 4.3c0 0.5 0 0.9 0.1 1.2 0 0.3 0.1 0.5 0.2 0.7 0.1 0.2 0.3 0.3 0.6 0.3 0.3 0 0.6 0.1 1 0.1l0.1 0.1 -0.2 1.2c-0.3 0-0.7 0-0.9 0 -0.3 0-0.6 0-0.9 0 -0.3 0-0.6 0-1 0 -0.3 0-0.7 0-1 0 -0.3 0-0.7 0-1 0 -0.3 0-0.7 0-1 0.1l0.2-1.3c0.4-0.1 0.7-0.1 1-0.2 0.3-0.1 0.5-0.2 0.6-0.4 0.1-0.2 0.2-0.4 0.3-0.6 0.1-0.3 0.1-0.6 0.1-1l0-12c0-0.6-0.1-1-0.2-1.2 -0.1-0.2-0.4-0.3-0.8-0.3 -0.1 0-0.2 0-0.3 0 -0.1 0-0.2 0-0.3 0 -0.1 0-0.2 0-0.3 0l-0.1-0.1 0.2-1.3c0.4 0 0.7 0 1.1 0.1 0.3 0 0.6 0 1 0 0.3 0 0.6 0 0.9 0 0.2 0 0.5 0 0.9 0 0.4 0 0.7 0 1.1 0 0.4 0 0.8 0 1.3-0.1 1.6 0 2.9 0.4 3.9 1.2 0.9 0.8 1.4 1.9 1.4 3.3 0 1.1-0.3 2.2-1 3.1 -0.7 1-1.6 1.7-2.8 2.3l2.9 5c0.3 0.5 0.5 0.8 0.7 1.1 0.2 0.3 0.5 0.6 0.7 0.7 0.3 0.2 0.5 0.3 0.8 0.4 0.3 0.1 0.6 0.1 1 0.1l0.1 0.1 -0.2 1 -2.2 0.3c-0.4 0-0.9-0.2-1.4-0.7 -0.5-0.5-1-1.2-1.4-2l-2.8-5.6H38.7zM41.5 62.1c0.5-0.2 1-0.5 1.4-0.8 0.3-0.3 0.7-0.8 1-1.3 0.3-0.5 0.4-1.2 0.4-2.1 0-2.5-1.6-3.8-4.8-3.8 -0.2 0-0.3 0-0.4 0.1 -0.1 0.1-0.1 0.3-0.1 0.5 0 0.8-0.1 1.5-0.1 2.1 0 0.6-0.1 1.2-0.1 1.8 0 0.6 0 1.1-0.1 1.6s0 1 0 1.5L41.5 62.1zM52 63.9v0.5c0 0.8 0.1 1.5 0.3 2.2 0.2 0.7 0.4 1.2 0.8 1.7 0.3 0.5 0.7 0.8 1.2 1.1 0.5 0.3 1 0.4 1.6 0.4 0.4 0 0.8 0 1.2-0.1 0.4-0.1 0.7-0.2 1-0.3 0.3-0.1 0.7-0.3 1-0.5l0.2 0.1 0.3 0.8c-0.5 0.4-0.9 0.7-1.4 1 -0.4 0.2-0.8 0.5-1.3 0.7 -0.5 0.2-0.9 0.3-1.3 0.3 -0.8 0-1.6-0.2-2.3-0.5 -0.7-0.3-1.3-0.7-1.7-1.3 -0.5-0.6-0.9-1.2-1.1-2 -0.3-0.8-0.4-1.6-0.4-2.6 0-1 0.2-1.9 0.5-2.8 0.3-0.9 0.7-1.7 1.3-2.3 0.5-0.7 1.1-1.2 1.8-1.6S55 58 55.8 58c2.6 0 3.9 1.4 3.9 4.2 0 0.4 0 0.7-0.1 0.8 0 0.1-0.1 0.3-0.1 0.6l-0.3 0.3H52zM56.8 62.5c0.3 0 0.4-0.1 0.5-0.2 0.1-0.1 0.1-0.3 0.1-0.6 0-0.8-0.2-1.3-0.6-1.7 -0.4-0.4-0.9-0.6-1.6-0.6 -0.8 0-1.5 0.3-2.1 0.9 -0.6 0.6-1 1.4-1.1 2.5L56.8 62.5zM66.8 67.5c-0.2 0-0.5 0-0.7-0.1 -0.2 0-0.5-0.1-0.8-0.2 -0.7 0.4-1.1 0.9-1.1 1.3 0 0.4 0.3 0.8 0.8 1 0.5 0.2 1.3 0.4 2.4 0.4 2 0.1 3.5 0.4 4.3 0.9 0.8 0.5 1.3 1.2 1.3 2.2 0 0.7-0.2 1.3-0.6 1.9 -0.4 0.6-0.9 1.2-1.5 1.6 -0.6 0.5-1.3 0.9-2.1 1.2 -0.8 0.3-1.6 0.4-2.4 0.4 -1.3 0-2.2-0.3-2.9-1 -0.7-0.7-1-1.6-1-2.8 0.2-0.3 0.5-0.6 0.8-0.9 0.3-0.3 0.6-0.6 0.9-0.8 0.3-0.3 0.6-0.6 1-0.8v-0.2c-0.4-0.1-0.8-0.2-1.1-0.3 -0.3-0.2-0.7-0.4-0.9-0.6 -0.3-0.2-0.5-0.5-0.6-0.8 -0.1-0.3-0.2-0.6-0.2-1 0.2-0.2 0.4-0.5 0.7-0.7 0.3-0.2 0.5-0.4 0.7-0.6 0.3-0.2 0.5-0.4 0.8-0.6v-0.1c-0.6-0.4-1.1-0.9-1.4-1.5 -0.3-0.7-0.5-1.4-0.5-2.3 0-0.7 0.1-1.3 0.4-1.9 0.3-0.6 0.6-1.1 1.1-1.6 0.4-0.5 1-0.8 1.6-1.1 0.6-0.3 1.2-0.4 1.9-0.4 0.5 0 1 0.1 1.4 0.2 0.4 0.1 0.8 0.2 1.2 0.2 0.3 0 0.7-0.1 1.1-0.2 0.4-0.1 0.8-0.2 1.2-0.3 0.4-0.1 0.9-0.2 1.3-0.4l0.1 0.1 -0.3 1.6c-0.2 0-0.5 0-0.7 0.1 -0.2 0-0.4 0.1-0.7 0.1 -0.3 0-0.5 0.1-0.8 0.1l-0.1 0.1c0.7 0.9 1 1.8 1 2.9 0 0.7-0.1 1.4-0.4 2 -0.3 0.6-0.6 1.2-1.1 1.6 -0.5 0.5-1 0.8-1.6 1.1C68.2 67.4 67.5 67.5 66.8 67.5zM67.4 66.3c0.8 0 1.4-0.3 1.9-0.8 0.5-0.6 0.7-1.3 0.7-2.3 0-1.1-0.3-2-0.8-2.7 -0.6-0.7-1.3-1-2.2-1 -0.8 0-1.4 0.3-1.9 0.8 -0.5 0.6-0.7 1.3-0.7 2.3 0 1.1 0.3 2 0.8 2.7C65.7 65.9 66.5 66.3 67.4 66.3zM67.3 76.8c0.5 0 1-0.1 1.5-0.2 0.5-0.2 0.9-0.4 1.2-0.6 0.4-0.3 0.6-0.6 0.9-0.9 0.2-0.3 0.3-0.7 0.3-1.1 0-0.3-0.1-0.5-0.2-0.7 -0.1-0.2-0.4-0.4-0.8-0.5 -0.4-0.2-0.9-0.3-1.6-0.4 -0.7-0.1-1.5-0.3-2.6-0.4 -0.3 0.3-0.6 0.5-0.8 0.8 -0.2 0.2-0.4 0.5-0.6 0.8 -0.2 0.3-0.2 0.6-0.2 0.9 0 0.7 0.3 1.3 0.8 1.7C65.7 76.6 66.4 76.8 67.3 76.8zM76.3 61.3c0-1-0.3-1.5-1-1.5 -0.1 0-0.3 0-0.4 0.1 -0.1 0-0.1 0-0.2 0.1l0.1-1.1c0.4-0.1 0.8-0.2 1.3-0.3 0.4-0.1 0.9-0.2 1.2-0.3 0.4-0.1 0.9-0.2 1.3-0.3l0.2 0.3c-0.1 0.2-0.2 0.7-0.2 1.3 -0.1 0.6-0.2 1.3-0.2 2.1 -0.1 0.8-0.1 1.6-0.2 2.5 0 0.9-0.1 1.8-0.1 2.6 0 1.9 0.7 2.8 2.1 2.8 0.6 0 1.2-0.2 1.7-0.6 0.5-0.4 1-0.7 1.5-1.1v-6.6c0-0.6-0.1-1-0.3-1.2 -0.2-0.2-0.5-0.3-1-0.3 0 0-0.1 0-0.2 0 -0.1 0-0.1 0-0.2 0h-0.3l0.1-1c0.5-0.1 0.9-0.2 1.4-0.2 0.5-0.1 0.9-0.2 1.3-0.3 0.5-0.1 0.9-0.2 1.3-0.3l0.2 0.3c-0.1 0.2-0.2 0.6-0.2 1.3 -0.1 0.6-0.1 1.4-0.2 2.3 -0.1 0.9-0.1 1.9-0.1 3 0 1.1 0 2.2 0 3.4 0 0.9 0.4 1.3 1.1 1.3 0.2 0 0.4 0 0.6-0.1 0.2-0.1 0.4-0.1 0.5-0.2 0.2-0.1 0.3-0.2 0.5-0.4l0.4 0.5c-0.3 0.4-0.5 0.8-0.8 1.1 -0.2 0.3-0.5 0.5-0.7 0.8 -0.3 0.2-0.5 0.4-0.7 0.4 -1.4 0-2.2-0.8-2.3-2.3l-0.1-0.1c-0.8 0.7-1.6 1.3-2.3 1.7 -0.7 0.4-1.1 0.7-1.4 0.7 -1.1 0-2-0.3-2.6-0.8 -0.6-0.6-0.9-1.4-0.9-2.5L76.3 61.3zM88.9 70.4c0.4-0.1 0.7-0.3 0.9-0.4 0.2-0.2 0.3-0.4 0.4-0.6 0.1-0.2 0.1-0.5 0.1-0.8 0-0.3 0-0.7 0-1.2V53.3c0-1-0.3-1.5-1-1.5 -0.1 0-0.3 0-0.4 0.1 -0.1 0-0.1 0-0.2 0.1 0-0.1 0-0.2 0-0.3 0-0.1 0-0.2 0-0.3l0.1-0.5c0.5-0.1 0.9-0.1 1.4-0.2 0.5-0.1 0.9-0.2 1.2-0.3 0.4-0.1 0.9-0.2 1.3-0.3l0.2 0.4c-0.1 0.1-0.1 0.4-0.2 1 -0.1 0.5-0.1 1.2-0.2 2.1 -0.1 0.9-0.1 1.9-0.2 3 0 1.1-0.1 2.4-0.1 3.7 0 1.3-0.1 2.7-0.1 4.1 0 1.4 0 2.8 0 4.2 0 0.6 0.1 1 0.2 1.2 0.1 0.2 0.4 0.4 0.7 0.4 0.1 0 0.2 0 0.3 0 0.1 0 0.2 0 0.3 0 0.1 0 0.2 0 0.3 0l0.1 0.1 -0.2 1.2c-0.3 0-0.5 0-0.8 0 -0.2 0-0.5 0-0.8 0 -0.3 0-0.5 0-0.8 0 -0.3 0-0.6 0-0.9 0.1 -0.3 0-0.6 0.1-0.9 0.1 -0.3 0.1-0.6 0.1-0.9 0.2L88.9 70.4zM102 62.9c0-1-0.2-1.7-0.6-2.2 -0.4-0.5-1-0.8-1.7-0.8 -0.4 0-0.8 0.1-1.2 0.2 -0.4 0.2-0.7 0.3-1 0.5 -0.3 0.2-0.6 0.4-0.9 0.7l-0.1-0.1L96.1 60c0.6-0.4 1.2-0.7 1.7-1 0.5-0.2 0.9-0.5 1.4-0.7 0.5-0.2 0.9-0.3 1.2-0.3 1.2 0 2 0.3 2.7 1 0.6 0.6 1 1.6 1 2.7 0 0.3 0 0.7-0.1 1.2 -0.1 0.6-0.1 1.2-0.2 1.8 -0.1 0.7-0.1 1.3-0.2 1.9 -0.1 0.6-0.1 1.2-0.1 1.6 0 0.9 0.4 1.3 1.1 1.3 0.2 0 0.4 0 0.6-0.1 0.2-0.1 0.4-0.1 0.5-0.2 0.2-0.1 0.3-0.2 0.5-0.4l0.4 0.5c-0.2 0.3-0.4 0.7-0.7 1 -0.2 0.3-0.4 0.5-0.7 0.8 -0.3 0.2-0.6 0.4-0.9 0.5 -1.4 0-2.2-0.8-2.3-2.3l-0.1 0c-0.6 0.7-1.2 1.2-1.7 1.6 -0.5 0.4-0.9 0.6-1.2 0.6 -0.5 0-0.9-0.1-1.3-0.3 -0.4-0.2-0.8-0.4-1.1-0.7 -0.3-0.3-0.5-0.7-0.7-1.1 -0.2-0.4-0.2-0.9-0.2-1.4 0-0.6 0.1-1 0.4-1.5 0.3-0.4 0.6-0.7 1-0.8l4.9-1.5L102 62.9zM101.9 65.2l-3.5 1.2c-0.5 0.2-0.8 0.6-0.8 1.2 0 0.6 0.2 1 0.5 1.4 0.3 0.4 0.8 0.5 1.3 0.5 0.3 0 0.7-0.1 1.2-0.4 0.4-0.3 0.9-0.6 1.2-1L101.9 65.2zM109.3 69.7c0.2-0.3 0.3-0.9 0.3-1.8v-6.3c0-0.6-0.1-1.1-0.2-1.3 -0.2-0.3-0.4-0.4-0.8-0.4 -0.1 0-0.3 0-0.4 0.1 -0.1 0-0.1 0-0.2 0l-0.1-0.2 0.1-0.9c0.4-0.1 0.8-0.2 1.2-0.3 0.4-0.1 0.8-0.2 1.1-0.3 0.4-0.1 0.8-0.2 1.2-0.3l0.2 0.2c-0.1 0.3-0.1 0.6-0.1 1 0 0.3-0.1 0.6-0.1 1s0 0.7 0 1l0.1 0.1c0.3-0.5 0.6-0.9 0.9-1.2 0.3-0.4 0.6-0.7 1-1 0.3-0.3 0.7-0.5 1-0.6 0.3-0.2 0.6-0.2 0.9-0.2 0.2 0 0.5 0 0.6 0.1 0.1 0 0.1 0 0.2 0.1l0.1 0.1 -0.2 1.4c-0.1 0.4-0.1 0.8-0.1 1.3 0 0.5-0.1 0.9-0.1 1.4l-1 0.1c0-0.8 0-1.3-0.1-1.6 -0.1-0.3-0.3-0.4-0.6-0.4 -0.4 0-0.8 0.2-1.2 0.5 -0.4 0.3-0.8 0.8-1.2 1.4 0 1-0.1 1.9-0.1 2.7 0 0.3 0 0.7 0 1s0 0.7 0 0.9c0 0.3 0 0.5 0 0.7 0 0.2 0 0.4 0 0.4 0 0.6 0.1 1.1 0.2 1.3 0.2 0.2 0.5 0.3 1 0.3 0.1 0 0.2 0 0.3 0 0.1 0 0.3 0 0.4 0 0.1 0 0.3 0 0.4 0l0 0.1 -0.2 1.3c-0.3 0-0.6 0-0.9 0 -0.3 0-0.6 0-0.9 0s-0.6 0-0.8 0c-0.4 0-0.8 0-1.1 0 -0.3 0-0.6 0-0.9 0 -0.3 0-0.6 0-0.8 0.1l0.1-1.1C108.8 70.2 109.1 70 109.3 69.7zM-0.6 97.4c0.2 0.6 0.4 1 0.6 1.2 0.2 0.3 0.6 0.4 1.1 0.5l0.1 0.2 -0.2 1.4c-0.3 0-0.7 0-1 0 -0.3 0-0.6 0-0.9 0 -0.3 0-0.6 0-0.9 0 -0.5 0-1 0-1.4 0 -0.5 0-0.9 0-1.2 0.1 -0.4 0-0.8 0.1-1.2 0.1l-0.1-0.2 0.1-1.5c0.4 0 0.7-0.1 0.9-0.1 0.2 0 0.4-0.1 0.5-0.2 0.1-0.1 0.2-0.2 0.2-0.3 0-0.1 0.1-0.2 0.1-0.4 0-0.2 0-0.4-0.1-0.8l-0.4-1.9c-0.3 0-0.7 0-1.1 0 -0.4 0-0.7 0-1 0 -0.4 0-0.7 0-1.1 0.1 -0.4 0-0.7 0.1-1 0.1l-0.6 1.8c-0.1 0.3-0.1 0.6-0.1 0.8 0 0.3 0.1 0.5 0.2 0.6 0.1 0.1 0.4 0.2 0.8 0.2h1l0.1 0.2 -0.2 1.5c-0.4 0-0.7 0-1.1-0.1 -0.3 0-0.7 0-1.1 0 -0.4 0-0.8 0-1.1 0 -0.3 0-0.6 0-0.9 0s-0.6 0-0.9 0c-0.3 0-0.6 0-0.9 0l0.2-1.6c0.3-0.1 0.6-0.2 0.9-0.5 0.2-0.2 0.4-0.6 0.6-1.2l4-12.4 3.6-0.4 0.2 0.1c0.4 1.6 0.8 3.2 1.2 4.8 0.2 0.7 0.3 1.4 0.5 2.1 0.2 0.7 0.3 1.4 0.5 2.1s0.4 1.4 0.5 2C-0.9 96.4-0.8 96.9-0.6 97.4zM-8 93.7h1.6c0.3 0 0.5 0 0.8 0 0.3 0 0.6 0 0.8-0.1L-6 88.2h-0.3L-8 93.7zM1.5 99.4c0.3-0.1 0.5-0.1 0.6-0.2 0.1-0.1 0.3-0.2 0.3-0.4 0.1-0.1 0.1-0.3 0.1-0.6 0-0.2 0-0.5 0-0.8V86c0-0.4 0-0.7-0.1-0.9 -0.1-0.2-0.3-0.3-0.5-0.4 -0.1 0-0.3 0-0.4 0 -0.2 0-0.3 0-0.4 0l0-0.3 0.1-1.1c0.5-0.1 1.1-0.2 1.6-0.2 0.5-0.1 1-0.2 1.5-0.2 0.5-0.1 1-0.2 1.5-0.3L6 82.9c-0.1 0.1-0.2 0.6-0.3 1.4 -0.1 0.8-0.2 1.9-0.2 3.3 -0.1 1.3-0.1 2.9-0.1 4.7 0 1.8-0.1 3.7-0.1 5.7 0 0.4 0 0.7 0.1 0.9 0.1 0.2 0.3 0.2 0.5 0.2 0 0 0.1 0 0.2 0 0.1 0 0.2 0 0.2 0 0.1 0 0.2 0 0.3 0l0 0.1 -0.2 1.5c-0.3 0-0.7 0-1 0 -0.3 0-0.6 0-0.8 0 -0.3 0-0.6 0-0.8 0 -0.3 0-0.6 0-0.9 0 -0.3 0-0.6 0.1-0.8 0.1 -0.3 0-0.6 0.1-0.9 0.1L1.5 99.4zM10.4 94.9v0.2c0 1.1 0.3 1.9 0.8 2.5 0.5 0.6 1.2 0.9 2 0.9 0.3 0 0.7 0 1-0.1 0.3-0.1 0.6-0.2 0.9-0.3 0.3-0.1 0.6-0.2 0.8-0.4l0.2 0.1 0.4 1.3c-0.4 0.3-0.9 0.6-1.3 0.9 -0.4 0.2-0.8 0.4-1.3 0.6 -0.4 0.2-0.9 0.3-1.3 0.3 -0.8 0-1.5-0.1-2.1-0.4 -0.6-0.3-1.2-0.6-1.6-1.1 -0.4-0.5-0.8-1.1-1-1.8 -0.2-0.7-0.3-1.5-0.3-2.4s0.1-1.7 0.4-2.5c0.3-0.8 0.6-1.4 1.1-2 0.5-0.6 1-1 1.7-1.3 0.7-0.3 1.4-0.5 2.1-0.5 2.5 0 3.8 1.4 3.8 4.2 0 0.2 0 0.4 0 0.5 0 0.2 0 0.3-0.1 0.4 0 0.2-0.1 0.3-0.1 0.4l-0.3 0.3H10.4zM13.5 93.4c0.2 0 0.3-0.1 0.3-0.1 0.1-0.1 0.1-0.2 0.1-0.4 0-1.2-0.5-1.8-1.4-1.8 -0.6 0-1 0.2-1.4 0.6 -0.4 0.4-0.6 1.1-0.6 1.9L13.5 93.4zM22.5 97.6c-0.2 0-0.5 0-0.7 0 -0.2 0-0.5-0.1-0.7-0.1 -0.4 0.3-0.6 0.6-0.6 0.8 0 0.6 0.7 0.9 2.2 0.9 1 0 1.8 0.1 2.5 0.2 0.7 0.1 1.2 0.3 1.7 0.5 0.4 0.2 0.7 0.5 0.9 0.9 0.2 0.4 0.3 0.8 0.3 1.3 0 0.6-0.2 1.2-0.5 1.7 -0.3 0.5-0.8 1-1.3 1.5s-1.2 0.8-1.9 1c-0.7 0.3-1.5 0.4-2.2 0.4 -1.2 0-2.2-0.3-2.9-0.9 -0.7-0.6-1.1-1.5-1.1-2.5 0.2-0.2 0.4-0.4 0.6-0.6 0.2-0.2 0.5-0.4 0.7-0.6 0.3-0.2 0.6-0.4 0.9-0.6v-0.1c-0.7-0.1-1.3-0.4-1.7-0.9 -0.4-0.4-0.6-1-0.6-1.6 0.2-0.2 0.4-0.4 0.6-0.6 0.2-0.2 0.4-0.4 0.6-0.5 0.2-0.2 0.5-0.4 0.7-0.5v-0.2c-0.5-0.3-1-0.8-1.2-1.4s-0.4-1.2-0.4-2c0-0.6 0.1-1.2 0.3-1.8 0.2-0.5 0.6-1 1-1.4 0.4-0.4 0.9-0.7 1.5-0.9 0.6-0.2 1.2-0.3 1.9-0.3 0.5 0 0.9 0 1.2 0.1 0.4 0.1 0.7 0.1 1 0.1 0.3 0 0.6-0.1 1-0.2 0.4-0.1 0.7-0.2 1-0.3 0.4-0.1 0.8-0.2 1.2-0.4l0.1 0.1 -0.3 1.9c-0.2 0-0.3 0.1-0.5 0.1 -0.2 0-0.3 0-0.5 0 -0.2 0-0.4 0-0.6 0l-0.1 0.1c0.6 0.7 0.9 1.5 0.9 2.4 0 0.6-0.1 1.2-0.4 1.8 -0.2 0.5-0.6 1-1 1.4 -0.4 0.4-0.9 0.7-1.5 0.9C23.8 97.5 23.2 97.6 22.5 97.6zM22.9 104.8c0.3 0 0.7 0 1-0.1 0.3-0.1 0.6-0.2 0.8-0.4 0.2-0.2 0.4-0.4 0.5-0.6 0.1-0.2 0.2-0.4 0.2-0.7 0-0.2 0-0.4-0.1-0.5 -0.1-0.1-0.3-0.2-0.5-0.3 -0.3-0.1-0.6-0.2-1.1-0.3 -0.5-0.1-1.2-0.2-2-0.3 -0.2 0.2-0.3 0.3-0.4 0.5 -0.1 0.2-0.2 0.3-0.3 0.5 -0.1 0.2-0.1 0.4-0.1 0.6 0 0.5 0.2 0.9 0.5 1.2C21.8 104.6 22.3 104.8 22.9 104.8zM22.9 95.9c0.5 0 0.9-0.2 1.2-0.6 0.3-0.4 0.4-1 0.4-1.8 0-0.8-0.2-1.5-0.5-1.9 -0.3-0.5-0.8-0.7-1.4-0.7 -0.5 0-0.9 0.2-1.2 0.6 -0.3 0.4-0.4 1-0.4 1.8 0 0.8 0.2 1.5 0.5 1.9C21.8 95.7 22.3 95.9 22.9 95.9zM29.6 99.3c0.4 0 0.8-0.2 0.9-0.4 0.2-0.2 0.2-0.7 0.2-1.3v-4.9c0-0.6-0.1-1-0.2-1.2 -0.1-0.2-0.4-0.3-0.8-0.3 0 0-0.1 0-0.1 0 -0.1 0-0.1 0-0.1 0h-0.1l-0.1-0.2 0.1-1.3c0.5-0.1 1-0.2 1.5-0.3s0.9-0.2 1.3-0.3c0.5-0.1 0.9-0.2 1.3-0.3l0.2 0.2L33.6 90c0 0.2-0.1 0.5-0.1 0.7 0 0.3 0 0.5 0 0.8l0.1 0.1c0.5-0.8 1-1.4 1.5-1.8 0.6-0.4 1.1-0.6 1.6-0.6 0.1 0 0.2 0 0.3 0 0.1 0 0.2 0 0.2 0 0.1 0 0.1 0 0.2 0l0.1 0.2c-0.1 0.5-0.1 1-0.2 1.5 -0.1 0.4-0.1 0.9-0.1 1.4 0 0.5-0.1 1-0.1 1.5l-1.5 0.1c0-0.8 0-1.3-0.1-1.6 -0.1-0.3-0.3-0.4-0.5-0.4 -0.2 0-0.5 0.1-0.8 0.3 -0.3 0.2-0.5 0.4-0.7 0.8 0 0.8-0.1 1.5-0.1 2.2 0 0.6-0.1 1.1-0.1 1.6 0 0.5 0 0.8 0 0.9 0 0.4 0.1 0.7 0.2 0.9 0.1 0.2 0.3 0.2 0.7 0.2 0.1 0 0.2 0 0.4 0 0.1 0 0.3 0 0.4 0 0.1 0 0.3 0 0.4 0l0.1 0.1 -0.2 1.7c-0.4 0-0.7 0-1.1 0 -0.3 0-0.6 0-1 0s-0.6 0-0.9 0c-0.3 0-0.7 0-1 0s-0.6 0-0.9 0c-0.3 0-0.6 0-0.9 0L29.6 99.3zM41.4 94.9v0.2c0 1.1 0.3 1.9 0.8 2.5s1.2 0.9 2 0.9c0.3 0 0.7 0 1-0.1 0.3-0.1 0.6-0.2 0.9-0.3 0.3-0.1 0.6-0.2 0.8-0.4l0.2 0.1 0.4 1.3c-0.4 0.3-0.9 0.6-1.3 0.9 -0.4 0.2-0.8 0.4-1.3 0.6 -0.4 0.2-0.9 0.3-1.3 0.3 -0.8 0-1.5-0.1-2.1-0.4 -0.6-0.3-1.2-0.6-1.6-1.1 -0.4-0.5-0.8-1.1-1-1.8 -0.2-0.7-0.3-1.5-0.3-2.4s0.1-1.7 0.4-2.5c0.3-0.8 0.6-1.4 1.1-2 0.5-0.6 1-1 1.7-1.3 0.7-0.3 1.4-0.5 2.1-0.5 2.5 0 3.8 1.4 3.8 4.2 0 0.2 0 0.4 0 0.5 0 0.2 0 0.3-0.1 0.4 0 0.2-0.1 0.3-0.1 0.4l-0.3 0.3H41.4zM44.4 93.4c0.2 0 0.3-0.1 0.3-0.1 0.1-0.1 0.1-0.2 0.1-0.4 0-1.2-0.5-1.8-1.4-1.8 -0.6 0-1 0.2-1.4 0.6 -0.4 0.4-0.6 1.1-0.6 1.9L44.4 93.4zM53.8 97.4c0.2-0.6 0.5-1.3 0.7-2 0.2-0.7 0.5-1.3 0.7-1.9 0.2-0.6 0.4-1.1 0.5-1.5 0.1-0.4 0.2-0.7 0.2-0.8 0-0.2 0-0.3-0.1-0.4 -0.1-0.1-0.3-0.1-0.5-0.1h-0.7l-0.1-0.1 0.2-1.4c0.3 0 0.5 0 0.8 0 0.2 0 0.5 0 0.8 0 0.3 0 0.5 0 0.8 0h2.1l-0.2 1.5c-0.3 0.1-0.6 0.2-0.7 0.4 -0.1 0.2-0.3 0.4-0.4 0.8l-2.9 7.6c-0.5 1.2-0.9 2.3-1.4 3.2 -0.4 0.9-0.9 1.6-1.3 2.2 -0.4 0.6-0.9 1-1.3 1.2 -0.4 0.3-0.9 0.4-1.4 0.4 -0.1 0-0.3-0.1-0.4-0.2 -0.2-0.2-0.4-0.3-0.6-0.6 -0.2-0.2-0.3-0.4-0.5-0.7 -0.1-0.2-0.2-0.4-0.2-0.5l0.2-0.3c1-0.1 1.8-0.4 2.6-1 0.8-0.6 1.4-1.4 1.9-2.4 -0.2-0.6-0.4-1.3-0.7-2.2 -0.3-0.8-0.6-1.7-0.9-2.5 -0.3-0.9-0.6-1.7-0.9-2.4s-0.5-1.4-0.7-1.9c-0.2-0.4-0.4-0.6-0.6-0.8 -0.2-0.2-0.5-0.2-0.8-0.3l0-0.1 0.2-1.4h1.8c0.4 0 0.8 0 1.2 0 0.4 0 0.8 0 1.1 0 0.3 0 0.7 0 1.1-0.1l0 0.1 -0.2 1.4c-0.4 0-0.7 0.1-0.9 0.2 -0.1 0.1-0.2 0.2-0.2 0.4 0 0.1 0 0.3 0.1 0.5 0 0.2 0.1 0.5 0.2 0.8 0.1 0.3 0.1 0.6 0.2 1 0.1 0.4 0.2 0.7 0.3 1.1 0.2 0.8 0.5 1.8 0.8 2.7H53.8zM64.9 93.6c0-0.7-0.2-1.2-0.5-1.6 -0.3-0.4-0.8-0.6-1.4-0.6 -0.3 0-0.7 0.1-1 0.2 -0.3 0.1-0.6 0.3-0.8 0.4 -0.3 0.2-0.6 0.4-0.8 0.6l-0.2-0.1 -0.4-1.5c0.6-0.3 1.1-0.7 1.7-0.9 0.4-0.2 0.9-0.4 1.4-0.6 0.5-0.2 0.8-0.3 1.1-0.3 0.7 0 1.2 0.1 1.7 0.3 0.5 0.2 0.9 0.4 1.2 0.7 0.3 0.3 0.5 0.7 0.7 1.1 0.1 0.4 0.2 0.9 0.2 1.3 0 0.2 0 0.5-0.1 1 0 0.5-0.1 0.9-0.2 1.4 -0.1 0.5-0.1 1-0.2 1.5 0 0.5-0.1 0.9-0.1 1.1 0 0.3 0.1 0.5 0.2 0.7 0.1 0.2 0.3 0.3 0.6 0.3 0.1 0 0.3 0 0.4-0.1 0.1 0 0.2-0.1 0.3-0.1 0.1-0.1 0.2-0.1 0.3-0.2l0.4 0.5c-0.2 0.4-0.5 0.8-0.7 1.1 -0.2 0.3-0.4 0.6-0.7 0.8 -0.3 0.3-0.5 0.4-0.8 0.5 -1.4 0-2.1-0.6-2.3-1.9L64.9 99c-0.4 0.5-0.9 0.9-1.4 1.3 -0.5 0.4-0.8 0.6-1.1 0.6 -0.4 0-0.8-0.1-1.2-0.3 -0.4-0.2-0.7-0.4-1-0.7 -0.3-0.3-0.5-0.7-0.7-1.1s-0.2-0.9-0.2-1.4 0.1-0.9 0.4-1.3c0.2-0.4 0.6-0.6 0.9-0.7l4.3-1.1L64.9 93.6zM64.9 95.5l-2.4 0.7C62.2 96.3 62 96.6 62 97c0 0.4 0.1 0.8 0.3 1.1 0.2 0.3 0.5 0.4 0.9 0.4 0.2 0 0.5-0.1 0.8-0.2 0.3-0.1 0.6-0.3 0.8-0.5L64.9 95.5zM77.5 100.7c-0.3 0-0.7 0-1.1 0 -0.4 0-0.7 0.1-1.1 0.1 -0.4 0-0.8 0.1-1.2 0.1l0.2-1.7c0.6-0.1 1.1-0.3 1.3-0.6 0.2-0.3 0.3-0.7 0.3-1.4l0-9.6c0-0.5-0.1-0.8-0.2-1 -0.1-0.2-0.3-0.3-0.6-0.3 -0.1 0-0.2 0-0.2 0 -0.1 0-0.2 0-0.2 0 -0.1 0-0.2 0-0.3 0l-0.1-0.2 0.2-1.5c0.4 0 0.9 0 1.3 0 0.3 0 0.7 0 1 0 0.3 0 0.6 0 0.8 0 0.2 0 0.5 0 0.9 0 0.4 0 0.8 0 1.2 0 0.4 0 0.9 0 1.4-0.1 1.6 0 2.7 0.3 3.5 1 0.8 0.6 1.2 1.6 1.2 2.8 0 0.9-0.2 1.6-0.7 2.2 -0.4 0.6-1 1.1-1.7 1.5 0.9 0.3 1.6 0.7 2.3 1.3s0.9 1.4 0.9 2.4c0 0.7-0.1 1.4-0.4 2 -0.3 0.6-0.7 1.1-1.2 1.6 -0.5 0.4-1.1 0.8-1.9 1 -0.7 0.2-1.5 0.3-2.4 0.3 -0.2 0-0.5 0-0.8 0 -0.3 0-0.6-0.1-0.9-0.1 -0.3 0-0.6 0-0.9-0.1C77.9 100.7 77.7 100.7 77.5 100.7zM79 93.8l-0.1 3.6c0 0.5 0.2 0.9 0.5 1.1 0.3 0.2 0.9 0.3 1.6 0.3 0.7 0 1.3-0.2 1.7-0.6 0.4-0.4 0.6-1 0.6-1.8 0-1.3-0.8-2.2-2.3-2.6L79 93.8zM79 91.6c0.3 0 0.6 0.1 0.9 0.1 0.2 0 0.5 0.1 0.7 0.1 0.2 0 0.4 0 0.5 0 0.3-0.1 0.5-0.3 0.8-0.5 0.2-0.2 0.4-0.5 0.5-0.8 0.2-0.3 0.2-0.8 0.2-1.3 0-0.8-0.3-1.4-0.8-1.8 -0.5-0.4-1.3-0.6-2.3-0.6 -0.1 0-0.3 0-0.3 0.1 -0.1 0.1-0.1 0.2-0.1 0.4 0 0.3-0.1 0.7-0.1 1.1 0 0.4 0 0.8 0 1.2 0 0.4 0 0.8 0 1.1C79 91.1 79 91.4 79 91.6zM92.8 101c-0.7 0-1.4-0.1-2-0.4 -0.6-0.3-1.1-0.6-1.5-1.1 -0.4-0.5-0.7-1.1-1-1.8C88.1 97 88 96.2 88 95.4c0-0.9 0.1-1.8 0.4-2.6 0.3-0.8 0.6-1.4 1.1-2 0.5-0.6 1.1-1 1.7-1.3 0.7-0.3 1.4-0.5 2.2-0.5 0.7 0 1.4 0.1 2 0.4 0.6 0.3 1.1 0.6 1.5 1.1 0.4 0.5 0.7 1.1 0.9 1.8s0.3 1.5 0.3 2.3c0 0.9-0.1 1.8-0.4 2.6 -0.3 0.8-0.6 1.4-1.1 2 -0.5 0.6-1 1-1.7 1.3C94.3 100.8 93.6 101 92.8 101zM93.2 99.1c1.3 0 1.9-1.1 1.9-3.3 0-1.6-0.2-2.7-0.6-3.5 -0.4-0.8-0.9-1.1-1.6-1.1 -1.3 0-1.9 1.1-1.9 3.3 0 1.6 0.2 2.7 0.6 3.5C92 98.7 92.5 99.1 93.2 99.1zM99.3 99.4c0.3-0.1 0.5-0.1 0.6-0.2 0.1-0.1 0.3-0.2 0.3-0.4 0.1-0.1 0.1-0.3 0.1-0.6 0-0.2 0-0.5 0-0.8V86c0-0.4 0-0.7-0.1-0.9 -0.1-0.2-0.3-0.3-0.5-0.4 -0.1 0-0.3 0-0.4 0 -0.2 0-0.3 0-0.4 0l0-0.3 0.1-1.1c0.5-0.1 1.1-0.2 1.6-0.2 0.5-0.1 1-0.2 1.5-0.2 0.5-0.1 1-0.2 1.5-0.3l0.2 0.5c-0.1 0.1-0.2 0.6-0.3 1.4 -0.1 0.8-0.2 1.9-0.2 3.3 -0.1 1.3-0.1 2.9-0.1 4.7 0 1.8-0.1 3.7-0.1 5.7 0 0.4 0 0.7 0.1 0.9 0.1 0.2 0.3 0.2 0.5 0.2 0 0 0.1 0 0.2 0 0.1 0 0.2 0 0.2 0 0.1 0 0.2 0 0.3 0l0 0.1 -0.2 1.5c-0.3 0-0.7 0-1 0 -0.3 0-0.6 0-0.8 0 -0.3 0-0.6 0-0.8 0 -0.3 0-0.6 0-0.9 0 -0.3 0-0.6 0.1-0.8 0.1 -0.3 0-0.6 0.1-0.9 0.1L99.3 99.4zM112.1 99.2c-1.4 1.1-2.3 1.7-2.6 1.7 -0.7 0-1.3-0.1-1.8-0.4s-1-0.6-1.3-1.1c-0.4-0.5-0.7-1-0.9-1.7 -0.2-0.7-0.3-1.4-0.3-2.2 0-0.9 0.1-1.8 0.4-2.6 0.3-0.8 0.7-1.4 1.2-2 0.5-0.6 1.1-1 1.8-1.3 0.7-0.3 1.5-0.5 2.3-0.5 0.2 0 0.4 0 0.5 0s0.4 0 0.6 0v-3.1c0-0.5-0.1-0.9-0.2-1.1 -0.1-0.2-0.4-0.3-0.7-0.3 -0.1 0-0.2 0-0.3 0 -0.1 0-0.1 0-0.2 0l0.1-1.5c0.5-0.1 1.1-0.2 1.6-0.3 0.5-0.1 1-0.2 1.4-0.3 0.5-0.1 1-0.2 1.4-0.3l0.2 0.4c-0.1 0.2-0.2 0.7-0.3 1.5 -0.1 0.9-0.2 1.9-0.2 3.3 -0.1 1.3-0.1 2.8-0.1 4.5 0 1.7-0.1 3.4-0.1 5.3 0 0.3 0.1 0.6 0.2 0.7 0.1 0.2 0.3 0.3 0.5 0.3 0.1 0 0.3 0 0.4-0.1 0.1 0 0.2-0.1 0.3-0.1 0.1-0.1 0.2-0.1 0.3-0.2l0.4 0.5c-0.2 0.4-0.4 0.7-0.7 1.1 -0.2 0.3-0.4 0.6-0.7 0.8 -0.3 0.3-0.6 0.5-0.9 0.6 -1.3 0-2.1-0.6-2.2-1.8L112.1 99.2zM112.1 91.6c-0.1-0.1-0.3-0.1-0.4-0.2 -0.1 0-0.3-0.1-0.5-0.1 -0.2 0-0.4-0.1-0.7-0.1 -0.7 0-1.3 0.3-1.7 0.9 -0.4 0.6-0.6 1.4-0.6 2.5 0 1.2 0.2 2.2 0.6 2.9 0.4 0.7 0.9 1.1 1.6 1.1 0.2 0 0.4 0 0.6-0.1 0.2-0.1 0.4-0.2 0.5-0.3 0.2-0.1 0.4-0.3 0.5-0.4V91.6z"/></a><a xlink:href="https://www.google.com/fonts/specimen/Source+Sans+Pro" xlink:show="new"><path fill="#121212" d="M-71.5 122.3c0.9 1 2.1 1.7 3.4 1.7 1.6 0 2.6-0.9 2.6-2.2 0-1.4-0.9-1.8-2.1-2.4l-1.8-0.8c-1.1-0.5-2.5-1.5-2.5-3.5 0-2 1.6-3.6 3.9-3.6 1.5 0 2.7 0.7 3.6 1.7l-0.8 1.1c-0.7-0.8-1.7-1.3-2.8-1.3 -1.4 0-2.3 0.8-2.3 2 0 1.3 1.1 1.8 2 2.2l1.8 0.8c1.4 0.7 2.5 1.6 2.5 3.6 0 2.1-1.6 3.8-4.2 3.8 -1.7 0-3.2-0.8-4.3-2L-71.5 122.3zM-58.2 115c2.2 0 4.2 1.9 4.2 5.2 0 3.3-2 5.2-4.2 5.2 -2.2 0-4.2-1.9-4.2-5.2C-62.5 116.9-60.5 115-58.2 115zM-58.2 124.1c1.6 0 2.6-1.5 2.6-3.8 0-2.3-1-3.8-2.6-3.8 -1.6 0-2.6 1.6-2.6 3.8C-60.9 122.5-59.8 124.1-58.2 124.1zM-51.8 115.3h1.6v6.1c0 1.9 0.5 2.7 1.7 2.7 0.9 0 1.6-0.5 2.4-1.7v-7.1h1.5v9.9h-1.3l-0.1-1.6H-46c-0.8 1.1-1.7 1.8-3 1.8 -1.9 0-2.8-1.3-2.8-3.9V115.3zM-41.5 115.3h1.3l0.1 1.8h0.1c0.6-1.2 1.6-2 2.6-2 0.4 0 0.7 0.1 1 0.2l-0.3 1.5c-0.3-0.1-0.5-0.2-0.9-0.2 -0.8 0-1.7 0.6-2.3 2.3v6.4h-1.5V115.3zM-31.5 115c1.2 0 2 0.6 2.7 1.2l-0.8 1.1c-0.5-0.5-1.1-0.9-1.8-0.9 -1.6 0-2.8 1.6-2.8 3.8 0 2.3 1.1 3.8 2.8 3.8 0.9 0 1.6-0.5 2.1-1l0.7 1.1c-0.8 0.8-1.9 1.3-3 1.3 -2.4 0-4.3-1.9-4.3-5.2C-35.9 116.9-33.8 115-31.5 115zM-23.6 115c2.3 0 3.6 1.8 3.6 4.7 0 0.3 0 0.7-0.1 0.9h-6.1c0.1 2.1 1.3 3.5 3 3.5 0.9 0 1.6-0.3 2.3-0.8l0.5 1.1c-0.8 0.6-1.8 1-3 1 -2.4 0-4.4-1.9-4.4-5.2C-27.7 117-25.7 115-23.6 115zM-21.4 119.5c0-2-0.8-3.1-2.2-3.1 -1.3 0-2.4 1.1-2.6 3.1H-21.4zM-13.8 122.3c0.9 1 2.1 1.7 3.4 1.7 1.6 0 2.6-0.9 2.6-2.2 0-1.4-0.9-1.8-2.1-2.4l-1.8-0.8c-1.1-0.5-2.5-1.5-2.5-3.5 0-2 1.6-3.6 3.9-3.6 1.5 0 2.7 0.7 3.6 1.7l-0.8 1.1c-0.7-0.8-1.7-1.3-2.8-1.3 -1.4 0-2.3 0.8-2.3 2 0 1.3 1.1 1.8 2 2.2l1.8 0.8c1.4 0.7 2.5 1.6 2.5 3.6 0 2.1-1.6 3.8-4.2 3.8 -1.7 0-3.2-0.8-4.3-2L-13.8 122.3zM1 118.9c0-1.3-0.4-2.5-1.9-2.5 -1.1 0-2 0.5-2.7 1.1l-0.6-1.2c0.8-0.6 2.1-1.3 3.6-1.3 2.2 0 3.2 1.6 3.2 4.1v6.1H1.3L1.2 124h0c-0.9 0.8-1.9 1.4-3 1.4 -1.5 0-2.7-1-2.7-2.8C-4.6 120.5-2.8 119.4 1 118.9zM-1.5 124.1c0.9 0 1.6-0.5 2.5-1.3V120c-3 0.4-4.1 1.2-4.1 2.5C-3 123.6-2.3 124.1-1.5 124.1zM5.5 115.3h1.3l0.1 1.4h0.1c0.9-0.9 1.8-1.7 3-1.7 1.9 0 2.8 1.3 2.8 3.9v6.3h-1.5v-6.1c0-1.9-0.5-2.7-1.7-2.7 -0.9 0-1.6 0.5-2.5 1.5v7.2H5.5V115.3zM15.4 123c0.8 0.7 1.6 1.2 2.7 1.2 1.2 0 1.8-0.7 1.8-1.6 0-1-1.1-1.5-2.1-1.9 -1.3-0.5-2.7-1.2-2.7-2.9 0-1.6 1.2-2.8 3.1-2.8 1.1 0 2.1 0.5 2.8 1.1l-0.7 1.1c-0.6-0.5-1.3-0.9-2.1-0.9 -1.1 0-1.7 0.7-1.7 1.4 0 0.9 1 1.3 2 1.7 1.3 0.5 2.8 1.1 2.8 3 0 1.6-1.2 3-3.3 3 -1.3 0-2.5-0.6-3.4-1.4L15.4 123zM27.4 111.8h3.8c2.7 0 4.5 1 4.5 3.9 0 2.8-1.9 4.2-4.5 4.2H29v5.3h-1.6V111.8zM31 118.5c2.2 0 3.2-0.9 3.2-2.8 0-1.9-1.1-2.6-3.2-2.6h-2v5.3H31zM38 115.3h1.3l0.1 1.8h0.1c0.6-1.2 1.6-2 2.6-2 0.4 0 0.7 0.1 1 0.2l-0.3 1.5c-0.3-0.1-0.5-0.2-0.9-0.2 -0.8 0-1.7 0.6-2.3 2.3v6.4H38V115.3zM47.8 115c2.2 0 4.2 1.9 4.2 5.2 0 3.3-2 5.2-4.2 5.2 -2.2 0-4.2-1.9-4.2-5.2C43.6 116.9 45.6 115 47.8 115zM47.8 124.1c1.6 0 2.6-1.5 2.6-3.8 0-2.3-1-3.8-2.6-3.8 -1.6 0-2.6 1.6-2.6 3.8C45.2 122.5 46.3 124.1 47.8 124.1zM65 125.2l-3-5.7h-2.2v5.7h-1.6v-13.4h3.9c2.5 0 4.3 1 4.3 3.8 0 2.1-1.1 3.3-2.7 3.8l3.1 5.8H65zM59.9 118.2h2.1c1.9 0 3-0.9 3-2.6 0-1.8-1-2.4-3-2.4h-2.1V118.2zM72.2 115c2.3 0 3.6 1.8 3.6 4.7 0 0.3 0 0.7-0.1 0.9h-6.1c0.1 2.1 1.3 3.5 3 3.5 0.9 0 1.6-0.3 2.3-0.8l0.5 1.1c-0.8 0.6-1.8 1-3 1 -2.4 0-4.4-1.9-4.4-5.2C68.1 117 70.1 115 72.2 115zM74.5 119.5c0-2-0.8-3.1-2.2-3.1 -1.3 0-2.4 1.1-2.6 3.1H74.5zM78.5 124.9L78.5 124.9c-0.4-0.4-0.8-0.9-0.8-1.7 0-0.8 0.5-1.5 1-1.8v-0.1c-0.6-0.5-1.2-1.5-1.2-2.7 0-2.2 1.6-3.5 3.4-3.5 0.5 0 1 0.1 1.3 0.2h3.2v1.3h-1.9c0.4 0.5 0.7 1.2 0.7 2 0 2.1-1.5 3.5-3.3 3.5 -0.4 0-1-0.1-1.4-0.3 -0.3 0.3-0.6 0.6-0.6 1.2 0 0.6 0.4 1.1 1.6 1.1h1.8c2.1 0 3.2 0.7 3.2 2.4 0 1.8-1.8 3.4-4.6 3.4 -2.2 0-3.8-1-3.8-2.7C77.2 126.3 77.7 125.5 78.5 124.9zM81.1 128.6c1.7 0 2.9-1 2.9-2 0-0.9-0.7-1.2-1.8-1.2h-1.6c-0.4 0-0.8 0-1.2-0.2 -0.7 0.5-0.9 1.1-0.9 1.7C78.5 128 79.5 128.6 81.1 128.6zM82.8 118.6c0-1.5-0.9-2.3-1.9-2.3 -1.1 0-1.9 0.9-1.9 2.3 0 1.5 0.9 2.4 1.9 2.4C82 120.9 82.8 120 82.8 118.6zM87.1 115.3h1.6v6.1c0 1.9 0.5 2.7 1.7 2.7 0.9 0 1.6-0.5 2.4-1.7v-7.1h1.5v9.9h-1.3l-0.1-1.6h-0.1c-0.8 1.1-1.7 1.8-3 1.8 -1.9 0-2.8-1.3-2.8-3.9V115.3zM97.4 110.7H99v12.7c0 0.5 0.2 0.7 0.4 0.7 0.1 0 0.2 0 0.3 0l0.2 1.3c-0.2 0.1-0.5 0.2-0.9 0.2 -1.2 0-1.6-0.8-1.6-2.2V110.7zM107.4 118.9c0-1.3-0.4-2.5-1.9-2.5 -1.1 0-2 0.5-2.7 1.1l-0.6-1.2c0.8-0.6 2.1-1.3 3.6-1.3 2.2 0 3.2 1.6 3.2 4.1v6.1h-1.3l-0.1-1.2h0c-0.9 0.8-1.9 1.4-3 1.4 -1.5 0-2.7-1-2.7-2.8C101.8 120.5 103.5 119.4 107.4 118.9zM104.9 124.1c0.9 0 1.6-0.5 2.5-1.3V120c-3 0.4-4.1 1.2-4.1 2.5C103.3 123.6 104 124.1 104.9 124.1zM111.8 115.3h1.3l0.1 1.8h0.1c0.6-1.2 1.6-2 2.6-2 0.4 0 0.7 0.1 1 0.2l-0.3 1.5c-0.3-0.1-0.5-0.2-0.9-0.2 -0.8 0-1.7 0.6-2.3 2.3v6.4h-1.5V115.3zM-55.2 146c0.9 0.8 2 1.4 3 1.4 1.1 0 1.7-0.5 1.7-1.3 0-0.8-0.7-1.1-1.8-1.6l-1.6-0.7c-1.3-0.6-2.5-1.7-2.5-3.6 0-2.2 1.8-4 4.3-4 1.4 0 2.9 0.6 3.9 1.8l-1.4 1.9c-0.8-0.7-1.6-1.1-2.5-1.1 -0.9 0-1.6 0.5-1.6 1.2 0 0.8 0.8 1.1 1.9 1.6l1.6 0.7c1.5 0.7 2.4 1.7 2.4 3.6 0 2.2-1.7 4.1-4.6 4.1 -1.6 0-3.3-0.7-4.5-1.9L-55.2 146zM-41.9 139.4c2.3 0 4.5 1.9 4.5 5.3s-2.2 5.3-4.5 5.3c-2.4 0-4.5-1.9-4.5-5.3S-44.2 139.4-41.9 139.4zM-41.9 147.6c1.1 0 1.7-1.1 1.7-2.9 0-1.8-0.6-2.9-1.7-2.9 -1.1 0-1.7 1.1-1.7 2.9C-43.6 146.4-43 147.6-41.9 147.6zM-35.6 139.6h2.7v5.9c0 1.5 0.4 1.9 1.2 1.9 0.7 0 1.1-0.3 1.6-1.1v-6.7h2.7v10.1h-2.2l-0.2-1.4h-0.1c-0.8 1-1.6 1.7-2.9 1.7 -2 0-2.9-1.6-2.9-4.1V139.6zM-24.8 139.6h2.2l0.2 1.8h0.1c0.7-1.4 1.7-2 2.6-2 0.5 0 0.8 0.1 1.1 0.2l-0.4 2.6c-0.3-0.1-0.6-0.2-1-0.2 -0.7 0-1.6 0.5-2 1.9v5.9h-2.7V139.6zM-13.3 139.4c1.1 0 2.1 0.5 2.7 1.2l-1.3 1.9c-0.4-0.4-0.9-0.6-1.3-0.6 -1.3 0-2.2 1.1-2.2 2.9 0 1.8 0.9 2.9 2.1 2.9 0.7 0 1.2-0.3 1.7-0.7l1.1 1.9c-0.9 0.9-2.1 1.3-3.1 1.3 -2.6 0-4.6-1.9-4.6-5.3S-15.9 139.4-13.3 139.4zM-5.5 139.4c2.6 0 3.9 2.1 3.9 4.9 0 0.5-0.1 1-0.1 1.3h-5.6c0.2 1.5 1.2 2.2 2.4 2.2 0.7 0 1.3-0.2 2-0.7l0.9 1.8c-1 0.7-2.2 1.1-3.3 1.1 -2.7 0-4.7-2-4.7-5.3C-9.9 141.4-7.8 139.4-5.5 139.4zM-3.9 143.6c0-1.2-0.4-2-1.6-2 -0.9 0-1.6 0.6-1.8 2H-3.9zM5.2 146c0.9 0.8 2 1.4 3 1.4 1.1 0 1.7-0.5 1.7-1.3 0-0.8-0.7-1.1-1.8-1.6l-1.6-0.7c-1.3-0.6-2.5-1.7-2.5-3.6 0-2.2 1.8-4 4.3-4 1.4 0 2.9 0.6 3.9 1.8l-1.4 1.9c-0.8-0.7-1.6-1.1-2.5-1.1 -0.9 0-1.6 0.5-1.6 1.2 0 0.8 0.8 1.1 1.9 1.6l1.6 0.7c1.5 0.7 2.4 1.7 2.4 3.6 0 2.2-1.7 4.1-4.6 4.1 -1.6 0-3.3-0.7-4.5-1.9L5.2 146zM19.4 143.2c-0.1-0.9-0.5-1.5-1.5-1.5 -0.8 0-1.6 0.3-2.5 0.9l-1-2c1.2-0.8 2.5-1.3 4-1.3 2.4 0 3.7 1.5 3.7 4.6v5.8h-2.2l-0.2-1h-0.1c-0.8 0.8-1.7 1.3-2.7 1.3 -1.7 0-2.7-1.3-2.7-3.1C14.2 144.8 15.8 143.6 19.4 143.2zM17.9 147.7c0.6 0 1-0.3 1.5-0.9V145c-2 0.3-2.6 0.9-2.6 1.7C16.8 147.4 17.2 147.7 17.9 147.7zM24.5 139.6h2.2l0.2 1.3H27c0.8-0.8 1.7-1.5 3-1.5 2 0 2.9 1.6 2.9 4.1v6.3h-2.7v-5.9c0-1.5-0.4-1.9-1.1-1.9 -0.7 0-1.1 0.3-1.7 1v6.9h-2.7V139.6zM35.6 146.7c0.8 0.7 1.6 1.1 2.4 1.1 0.8 0 1.2-0.3 1.2-0.9 0-0.7-0.9-1-1.9-1.4 -1.1-0.5-2.4-1.3-2.4-3 0-1.9 1.4-3.2 3.6-3.2 1.4 0 2.5 0.6 3.3 1.3l-1.2 1.8c-0.7-0.5-1.3-0.9-2-0.9 -0.7 0-1 0.3-1 0.8 0 0.7 0.9 0.9 1.8 1.3 1.2 0.5 2.5 1.2 2.5 3 0 1.8-1.3 3.3-3.8 3.3 -1.2 0-2.6-0.6-3.6-1.4L35.6 146.7zM47.6 136.4h4.5c2.7 0 4.8 1.1 4.8 4.3 0 3.1-2.2 4.5-4.8 4.5h-1.7v4.5h-2.8V136.4zM51.9 142.8c1.5 0 2.2-0.7 2.2-2.1s-0.8-1.9-2.2-1.9h-1.5v4H51.9zM58.7 139.6H61l0.2 1.8h0.1c0.7-1.4 1.7-2 2.6-2 0.5 0 0.8 0.1 1.1 0.2l-0.4 2.6c-0.3-0.1-0.6-0.2-1-0.2 -0.7 0-1.6 0.5-2 1.9v5.9h-2.7V139.6zM69.9 139.4c2.3 0 4.5 1.9 4.5 5.3s-2.2 5.3-4.5 5.3c-2.4 0-4.5-1.9-4.5-5.3S67.6 139.4 69.9 139.4zM69.9 147.6c1.1 0 1.7-1.1 1.7-2.9 0-1.8-0.6-2.9-1.7-2.9 -1.1 0-1.7 1.1-1.7 2.9C68.2 146.4 68.8 147.6 69.9 147.6zM80.4 136.4h4.2c2.5 0 4.5 0.8 4.5 3.3 0 1.2-0.6 2.5-2.1 2.9v0.1c1.7 0.3 2.7 1.3 2.7 3.1 0 2.7-2.1 3.9-4.7 3.9h-4.5V136.4zM84.5 141.8c1.3 0 1.9-0.6 1.9-1.6s-0.6-1.4-1.9-1.4h-1.3v3H84.5zM84.7 147.4c1.5 0 2.3-0.6 2.3-1.8 0-1.2-0.8-1.7-2.3-1.7h-1.5v3.5H84.7zM95.5 139.4c2.3 0 4.5 1.9 4.5 5.3s-2.2 5.3-4.5 5.3c-2.4 0-4.5-1.9-4.5-5.3S93.1 139.4 95.5 139.4zM95.5 147.6c1.1 0 1.7-1.1 1.7-2.9 0-1.8-0.6-2.9-1.7-2.9 -1.1 0-1.7 1.1-1.7 2.9C93.8 146.4 94.4 147.6 95.5 147.6zM101.9 135.4h2.7v11.3c0 0.6 0.3 0.8 0.5 0.8 0.1 0 0.2 0 0.3 0l0.3 2.2c-0.3 0.1-0.8 0.2-1.4 0.2 -1.9 0-2.5-1.3-2.5-3.4V135.4zM110.6 139.4c1 0 1.6 0.4 2.3 1.1l-0.1-1.6v-3.5h2.7v14.3h-2.2l-0.2-1H113c-0.7 0.7-1.6 1.2-2.5 1.2 -2.3 0-3.8-2-3.8-5.3C106.8 141.4 108.6 139.4 110.6 139.4zM111.3 147.5c0.6 0 1.1-0.2 1.5-0.9v-4.2c-0.5-0.5-1-0.7-1.5-0.7 -0.9 0-1.7 0.9-1.7 2.8C109.6 146.6 110.2 147.5 111.3 147.5z"/></a></svg>