<svg xmlns="http://www.w3.org/2000/svg" xmlns:xlink="http://www.w3.org/1999/xlink" version="1.2" baseProfile="tiny" x="0" y="0" viewBox="0 0 233.6 100" xml:space="preserve"><text transform="matrix(1 0 0 1 7.1079 13.5215)" opacity="0">x</text><a xlink:href="http://www.subtlepatterns.com/subtlesans/" xlink:show="new"><path fill="#FFFFFF" d="M2.1 40.5c0 1.7 1.5 3 3.4 3 1.9 0 3.5-1.3 3.5-3v-0.1l0-0.1c0-0.1 0-0.5-0.3-1.1 -0.5-0.8-1.8-1.5-3.5-1.8 -1.2-0.2-2.2-0.6-3-1.1 -0.7-0.5-1.2-1-1.6-1.7C0 33.6 0 32.6 0 32.4c0-0.7 0.2-1.4 0.5-2 0.3-0.6 0.7-1.2 1.2-1.6 1.1-1 2.5-1.5 4-1.5s2.9 0.5 3.9 1.5c1.1 1 1.7 2.3 1.7 3.7H9.1c0-1.7-1.5-3-3.4-3 -2 0-3.6 1.3-3.6 3v0.1c0 0.1 0 0.6 0.4 1.2 0.5 0.9 1.6 1.5 3.2 1.7C7 35.6 8.1 36 9 36.6c0.8 0.5 1.3 1 1.7 1.7 0.6 1 0.6 1.9 0.5 2.3 0 0.7-0.2 1.3-0.5 2 -0.3 0.6-0.7 1.2-1.2 1.6 -1.1 1-2.5 1.5-3.9 1.5 -1.5 0-2.9-0.5-3.9-1.5 -1.1-1-1.7-2.3-1.7-3.7H2.1zM13 27.5h2.1v12.4c0 2 1.6 3.6 3.6 3.6 2 0 3.6-1.6 3.6-3.6V27.5h2.1v12.4c0 1.5-0.6 3-1.7 4 -1.1 1.1-2.5 1.7-4 1.7 -1.5 0-3-0.6-4-1.7 -1.1-1.1-1.7-2.5-1.7-4V27.5zM26.8 45.6V27.5H32c1.3 0 2.6 0.5 3.6 1.5 1 1 1.5 2.3 1.5 3.6 0 1.4-0.5 2.6-1.5 3.6 -0.2 0.2-0.3 0.3-0.5 0.4 0.2 0.1 0.3 0.3 0.5 0.4 1 1 1.5 2.2 1.5 3.5 0 1.3-0.5 2.6-1.5 3.6 -1 1-2.3 1.5-3.6 1.5H26.8zM32 43.5c1.6 0 3-1.3 3-3 0-1.6-1.2-2.8-2.8-2.9H31l-1.3-2.1h2.5c1.6-0.1 2.8-1.3 2.8-2.9 0-1.7-1.3-3-3-3h-3.1v13.9H32zM49.2 29.6h-4.3v16h-2.1v-16h-4.3v-2.1h10.8V29.6zM51.3 45.6V27.5h2.1v16h5v2.1H51.3zM63.3 29.6v5.9h4.9v2.1h-4.9v5.9H71v2.1h-9.9V27.5H71v2.1H63.3zM83.8 40.5c0 1.7 1.5 3 3.4 3 1.9 0 3.5-1.3 3.5-3v-0.1l0-0.1c0-0.1 0-0.5-0.3-1.1 -0.5-0.8-1.8-1.5-3.5-1.8 -1.2-0.2-2.2-0.6-3-1.1 -0.7-0.5-1.2-1-1.6-1.7 -0.6-1.1-0.6-2-0.6-2.3 0-0.7 0.2-1.4 0.5-2 0.3-0.6 0.7-1.2 1.2-1.6 1.1-1 2.5-1.5 4-1.5 1.5 0 2.9 0.5 3.9 1.5 1.1 1 1.7 2.3 1.7 3.7h-2.1c0-1.7-1.5-3-3.4-3 -2 0-3.6 1.3-3.6 3v0.1c0 0.1 0 0.6 0.4 1.2 0.5 0.9 1.6 1.5 3.2 1.7 1.3 0.2 2.4 0.6 3.3 1.2 0.8 0.5 1.3 1 1.7 1.7 0.6 1 0.6 1.9 0.5 2.3 0 0.7-0.2 1.3-0.5 2 -0.3 0.6-0.7 1.2-1.2 1.6 -1.1 1-2.5 1.5-3.9 1.5 -1.5 0-2.9-0.5-3.9-1.5 -1.1-1-1.7-2.3-1.7-3.7H83.8zM102.7 40.8h-4.4l-1.2 4.8h-2.3l4.8-18.2h1.7l4.8 18.2h-2.2L102.7 40.8zM102.2 38.7l-1.7-6.4 -1.7 6.4H102.2zM118.1 45.6l-7.2-12.7v12.7h-2.1V27.5h1.5l7.4 13v-13h2.1v18.2H118.1zM124.7 40.5c0 1.7 1.5 3 3.4 3 1.9 0 3.5-1.3 3.5-3v-0.1l0-0.1c0-0.1 0-0.5-0.3-1.1 -0.5-0.8-1.8-1.5-3.5-1.8 -1.2-0.2-2.2-0.6-3-1.1 -0.7-0.5-1.2-1-1.6-1.7 -0.6-1.1-0.6-2-0.6-2.3 0-0.7 0.2-1.4 0.5-2 0.3-0.6 0.7-1.2 1.2-1.6 1.1-1 2.5-1.5 4-1.5 1.5 0 2.9 0.5 3.9 1.5 1.1 1 1.7 2.3 1.7 3.7h-2.1c0-1.7-1.5-3-3.4-3 -2 0-3.6 1.3-3.6 3v0.1c0 0.1 0 0.6 0.4 1.2 0.5 0.9 1.6 1.5 3.2 1.7 1.3 0.2 2.4 0.6 3.3 1.2 0.8 0.5 1.3 1 1.7 1.7 0.6 1 0.6 1.9 0.5 2.3 0 0.7-0.2 1.3-0.5 2 -0.3 0.6-0.7 1.2-1.2 1.6 -1.1 1-2.5 1.5-3.9 1.5 -1.5 0-2.9-0.5-3.9-1.5 -1.1-1-1.7-2.3-1.7-3.7H124.7zM147 35.6h3c1.7 0 2.9-1.3 2.9-3.1 0-2-1.7-2.9-3.3-2.9h-3.3v16h-2.1V27.5h5.5c1.5 0 2.8 0.5 3.8 1.3 1.1 0.9 1.6 2.2 1.6 3.7 0 1.5-0.5 2.7-1.4 3.7 -0.8 0.9-1.9 1.4-3.1 1.5l4.4 8h-2.4L147 35.6zM159.8 29.6v5.9h4.9v2.1h-4.9v5.9h7.7v2.1h-9.9V27.5h9.9v2.1H159.8zM175.4 45.6c-1.5 0-2.9-0.6-3.9-1.6 -1-1-1.6-2.4-1.6-3.9V33c0-1.5 0.6-2.9 1.6-3.9 1.1-1.1 2.4-1.6 3.9-1.6h1c1.5 0 2.9 0.6 3.9 1.6 1 1 1.6 2.4 1.6 3.9v0.5h-2.1V33c0-1.9-1.5-3.4-3.4-3.4h-1c-1.9 0-3.4 1.5-3.4 3.4v7.1c0 1.9 1.5 3.4 3.4 3.4h1c1.9 0 3.4-1.5 3.4-3.4v-2.5h-3v-2.1h5.1v4.6c0 1.5-0.6 2.9-1.6 3.9 -1.1 1.1-2.4 1.6-3.9 1.6H175.4zM183.8 27.5h2.1v12.4c0 2 1.6 3.6 3.6 3.6 2 0 3.6-1.6 3.6-3.6V27.5h2.1v12.4c0 1.5-0.6 3-1.7 4 -1.1 1.1-2.5 1.7-4 1.7 -1.5 0-3-0.6-4-1.7 -1.1-1.1-1.7-2.5-1.7-4V27.5zM198.4 45.6V27.5h2.1v16h5v2.1H198.4zM216 40.8h-4.4l-1.2 4.8h-2.3l4.8-18.2h1.7l4.8 18.2h-2.2L216 40.8zM215.4 38.7l-1.7-6.4 -1.7 6.4H215.4zM224.6 35.6h3c1.7 0 2.9-1.3 2.9-3.1 0-2-1.7-2.9-3.3-2.9h-3.3v16h-2.1V27.5h5.5c1.5 0 2.8 0.5 3.8 1.3 1.1 0.9 1.6 2.2 1.6 3.7 0 1.5-0.5 2.7-1.4 3.7 -0.8 0.9-1.9 1.4-3.1 1.5l4.4 8h-2.4L224.6 35.6z"/></a><a xlink:href="https://www.myfonts.com/fonts/marksimonson/proxima-nova/webfont_preview.html" xlink:show="new"><path fill="#FFFFFF" d="M47.5 69V56h5.2c2.6 0 4.1 1.8 4.1 3.9 0 2.1-1.5 3.9-4.1 3.9h-3.6V69H47.5zM55.1 59.9c0-1.5-1.1-2.5-2.6-2.5h-3.4v4.9h3.4C54.1 62.4 55.1 61.3 55.1 59.9zM58.9 69v-9.4h1.5v1.5c0.8-1 1.8-1.7 3.1-1.7v1.5c-0.2 0-0.4 0-0.6 0 -0.9 0-2.1 0.7-2.6 1.5V69H58.9zM64.7 64.2c0-2.7 1.8-4.9 4.6-4.9 2.9 0 4.6 2.2 4.6 4.9 0 2.7-1.8 4.9-4.6 4.9C66.5 69.2 64.7 67 64.7 64.2zM72.5 64.2c0-1.9-1.1-3.6-3.1-3.6 -2 0-3.1 1.7-3.1 3.6 0 1.9 1.1 3.6 3.1 3.6C71.4 67.9 72.5 66.2 72.5 64.2zM81.8 69L79 65.1 76.1 69h-1.7l3.6-4.8 -3.4-4.6h1.7l2.6 3.6 2.6-3.6h1.7l-3.4 4.6 3.6 4.8H81.8zM84.9 57.2c0-0.5 0.4-1 1-1 0.5 0 1 0.4 1 1 0 0.5-0.4 1-1 1C85.3 58.2 84.9 57.8 84.9 57.2zM85.2 69v-9.4h1.5V69H85.2zM100.9 69v-6.4c0-1.2-0.5-1.9-1.7-1.9 -1 0-2 0.7-2.5 1.4V69h-1.5v-6.4c0-1.2-0.5-1.9-1.7-1.9 -1 0-2 0.7-2.5 1.5V69h-1.5v-9.4H91v1.4c0.4-0.6 1.7-1.6 3.1-1.6 1.4 0 2.2 0.8 2.5 1.8 0.5-0.9 1.8-1.8 3.2-1.8 1.7 0 2.6 1 2.6 2.8V69H100.9zM111.1 69v-1.1c-0.8 0.9-1.8 1.3-3.1 1.3 -1.6 0-3.3-1.1-3.3-3.1 0-2.1 1.7-3.1 3.3-3.1 1.3 0 2.4 0.4 3.1 1.3v-1.7c0-1.2-1-2-2.4-2 -1.1 0-2 0.4-2.9 1.3l-0.7-1c1-1.1 2.2-1.6 3.8-1.6 2 0 3.6 0.9 3.6 3.2V69H111.1zM111.1 67v-1.8c-0.6-0.8-1.6-1.1-2.6-1.1 -1.4 0-2.3 0.9-2.3 2 0 1.2 1 2.1 2.3 2.1C109.6 68.1 110.5 67.7 111.1 67zM129.8 69l-7.6-10.3V69h-1.6V56h1.7l7.5 10.1V56h1.6v13H129.8zM133.8 64.2c0-2.7 1.8-4.9 4.6-4.9 2.9 0 4.6 2.2 4.6 4.9 0 2.7-1.8 4.9-4.6 4.9C135.6 69.2 133.8 67 133.8 64.2zM141.5 64.2c0-1.9-1.1-3.6-3.1-3.6s-3.1 1.7-3.1 3.6c0 1.9 1.1 3.6 3.1 3.6S141.5 66.2 141.5 64.2zM147.9 69l-3.9-9.4h1.6l3.1 7.7 3.1-7.7h1.6l-3.9 9.4H147.9zM160.8 69v-1.1c-0.8 0.9-1.8 1.3-3.1 1.3 -1.6 0-3.3-1.1-3.3-3.1 0-2.1 1.7-3.1 3.3-3.1 1.3 0 2.4 0.4 3.1 1.3v-1.7c0-1.2-1-2-2.4-2 -1.1 0-2 0.4-2.9 1.3l-0.7-1c1-1.1 2.2-1.6 3.8-1.6 2 0 3.6 0.9 3.6 3.2V69H160.8zM160.8 67v-1.8c-0.6-0.8-1.6-1.1-2.6-1.1 -1.4 0-2.3 0.9-2.3 2 0 1.2 1 2.1 2.3 2.1C159.3 68.1 160.3 67.7 160.8 67zM177.8 69l-3.3-5.2h-2.6V69h-1.6V56h5.2c2.4 0 4.1 1.5 4.1 3.9 0 2.3-1.6 3.6-3.4 3.8l3.5 5.3H177.8zM177.9 59.9c0-1.5-1.1-2.5-2.6-2.5h-3.4v5h3.4C176.9 62.4 177.9 61.3 177.9 59.9zM181 64.2c0-2.7 1.9-4.9 4.6-4.9 2.8 0 4.5 2.2 4.5 5v0.4h-7.6c0.1 1.8 1.3 3.2 3.4 3.2 1.1 0 2.2-0.4 2.9-1.2l0.7 1c-1 0.9-2.2 1.5-3.7 1.5C183 69.2 181 67.2 181 64.2zM185.6 60.5c-2 0-3 1.7-3.1 3.1h6.2C188.7 62.3 187.7 60.5 185.6 60.5zM192.5 71.3l0.7-1.1c0.8 0.9 1.7 1.3 3.1 1.3 1.6 0 3-0.8 3-2.7v-1.4c-0.7 1-1.8 1.7-3.2 1.7 -2.5 0-4.2-1.8-4.2-4.9 0-3 1.7-4.9 4.2-4.9 1.3 0 2.4 0.6 3.2 1.7v-1.4h1.5v9.3c0 3-2.2 3.9-4.5 3.9C194.7 72.8 193.6 72.5 192.5 71.3zM199.3 66.2v-4.1c-0.5-0.8-1.7-1.5-2.8-1.5 -1.9 0-3 1.5-3 3.6 0 2.1 1.1 3.6 3 3.6C197.6 67.8 198.8 67.1 199.3 66.2zM210 69v-1.3c-0.7 0.8-1.9 1.6-3.3 1.6 -2 0-3-1-3-3v-6.6h1.5v6.2c0 1.7 0.8 2.1 2.1 2.1 1.1 0 2.2-0.7 2.8-1.4v-6.9h1.5V69H210zM214.4 69V56h1.5v13H214.4zM224.6 69v-1.1c-0.8 0.9-1.8 1.3-3.1 1.3 -1.6 0-3.3-1.1-3.3-3.1 0-2.1 1.7-3.1 3.3-3.1 1.3 0 2.4 0.4 3.1 1.3v-1.7c0-1.2-1-2-2.4-2 -1.1 0-2 0.4-2.9 1.3l-0.7-1c1-1.1 2.2-1.6 3.8-1.6 2 0 3.6 0.9 3.6 3.2V69H224.6zM224.6 67v-1.8c-0.6-0.8-1.6-1.1-2.6-1.1 -1.4 0-2.3 0.9-2.3 2 0 1.2 1 2.1 2.3 2.1C223.1 68.1 224.1 67.7 224.6 67zM229 69v-9.4h1.5v1.5c0.8-1 1.8-1.7 3.1-1.7v1.5c-0.2 0-0.4 0-0.6 0 -0.9 0-2.1 0.7-2.6 1.5V69H229z"/></a></svg>