<svg xmlns="http://www.w3.org/2000/svg" version="1.2" baseProfile="tiny" x="0" y="0" viewBox="-50 50 100 100" xml:space="preserve"><text transform="matrix(1 0 0 1 7.1079 13.5215)" opacity="0">x</text><path fill="#302F33" d="M-35 100c0-3.8 0.6-7.5 1.7-10.9l-14.2-4.6c-6.8 21 0.3 42.8 18.2 55.8l8.7-12C-29.3 121.9-35 111.7-35 100z"/><path fill="#A8A8A8" d="M0 134.8c-7.7 0-14.8-2.3-20.6-6.5l-8.7 12c17.8 13 40.7 12.9 58.6-0.1l-8.7-12C14.7 132.4 7.7 134.8 0 134.8z"/><path fill="#F3E3CA" d="M47.5 84.5l-14.2 4.6c1.1 3.4 1.7 7.1 1.7 10.9 0 11.6-5.7 21.8-14.4 28.2l8.7 12C47.2 127.2 54.3 105.5 47.5 84.5z"/><path fill="#FF9800" d="M33.3 89.1l14.2-4.6C40.6 63.5 22 50 0 50v15C15.5 65 28.7 75.1 33.3 89.1z"/><path d="M0 65V50c-22 0-40.6 13.5-47.5 34.5l14.2 4.6C-28.7 75.1-15.5 65 0 65z"/></svg>