<svg xmlns="http://www.w3.org/2000/svg" xmlns:xlink="http://www.w3.org/1999/xlink" version="1.2" baseProfile="tiny" x="0" y="0" viewBox="-116.8 50 233.6 100" xml:space="preserve"><text transform="matrix(1 0 0 1 7.1079 13.5215)" opacity="0">x</text><a xlink:href="https://www.behance.net/gallery/6797841/Higher-Free-Font" xlink:show="new"><path fill="#FFFFFF" d="M41.8 50v5.9h4.7V50h3.6v41.2h-3.6v-33h-4.7v33h-3.6V50H41.8zM56.3 50v41.2h-3.6V50H56.3zM70.8 53.5h-8.2v34.2h4.7V58.1H65v-2.3h5.9v35.3H59V50h11.8V53.5zM77.1 50v5.9h4.7V50h3.6v41.2h-3.6v-33h-4.7v33h-3.6V50H77.1zM99.7 53.5h-8.2v2.3h8.2v2.3h-8.2v29.5h8.2v3.6H87.9V50h11.8C99.7 50 99.7 53.5 99.7 53.5zM112.6 58.9l1.7 1.7v30.6h-3.6V60.6H106v30.5h-3.6V50h11.8v7L112.6 58.9zM110.8 53.6H106v3.6h4.7L110.8 53.6 110.8 53.6z"/></a><a xlink:href="http://www.dafont.com/fat-tats.font" xlink:show="new"><path fill="#FFFFFF" d="M37.2 98.6c0 0 0.1 0 0.2 0.1l0.3-0.1c5.9 0.3 8.9 0.8 8.9 1.3 -0.2 0.3-0.4 0.4-0.7 0.4l-0.4-0.1h-0.2v0.1c0.8 0.1 1.2 0.2 1.2 0.3v0.1c0 0.5-0.3 0.8-0.6 0.8 -0.1 0.4-0.4 0.6-1 0.6v0.1l0.1 0.2v0.1c-0.1 0.3-0.4 0.4-1 0.4h-0.7c-0.6 0-1.1 0-1.6 0.1 -0.9-0.1-1.6-0.1-2.2-0.1 -0.1 0-0.2 0.1-0.2 0.1 0 0.5-0.1 0.8-0.1 1.1 0 0.2 0 0.5 0.1 0.8 -0.1 0.2-0.1 0.4-0.1 0.6 0 0 0 0.1 0.1 0.1l-0.3 3.6 0.2 0.1h2c0.1 0 0.2 0 0.3 0.1 0.1 0 0.1 0 0.1-0.1 1.7 0.1 2.6 0.2 2.6 0.4v0.1c0 0.4-1.2 0.7-3.8 0.9h-0.5c-0.1 0.1-0.3 0.1-0.6 0.1v0.1c0.1 0 0.1 0 0.2 0.1 1-0.1 1.6-0.1 1.6-0.1 0.1 0 0.2 0.1 0.3 0.1h0.1c0.3 0 0.9-0.1 1.8-0.3l0.1 0.1v0.1c-0.5 0.5-0.8 0.7-1.1 0.7v0.1c0 0.1 0.1 0.2 0.4 0.4 0 0.6-0.7 1-2 1.2 0 0.1-0.9 0.3-2.8 0.5 -0.3 2.6-0.8 4.5-1.5 5.4 -0.6 1.2-1.6 2.4-3.1 3.6 -0.1 0-0.5 0.2-1.1 0.6 -0.4 0.2-0.8 0.4-1.4 0.5 -0.8 0-1.8-0.3-3.2-0.9 -0.6-0.7-1-1.8-1.2-3.2 -0.1-0.2-0.1-0.4-0.1-0.6 0-0.9 0.4-1.7 1.1-2.2 0 0.1 0 0.1 0.1 0.1 -0.3 0.4-0.4 0.8-0.4 0.9v0.1l0.1 0.2v0.4c0 0.5 0.1 0.8 0.4 0.9 0.4 0.8 0.7 1.2 1 1.2l0.4-0.1c0.1 0.2 0.2 0.3 0.5 0.3 1.2 0 2.4-0.9 3.8-2.6 1.2-2.8 1.9-6.1 1.9-9.7v-1.4c0-0.4 0-0.9-0.1-1.5h0.1l-0.1-0.1c0 0 0-0.1 0.1-0.1l-0.1-0.1c0-1.8-0.2-2.7-0.5-2.7h-0.1c-0.1 0.1-0.3 0.1-0.4 0.1s-0.1 0-0.2-0.1c-1.7 0.2-3 0.7-3.7 1.3 -1.7 1.5-2.5 3.1-2.5 4.4l-0.2 0.7 0.1 1.4c-0.1 0.1-0.1 0.2-0.1 0.2l0.3 0.3h-0.1c0-0.2 0-0.3 0.1-0.3 0.4 1.2 1.1 1.9 2.1 1.9 0 0 0.4 0.1 1.1 0.1 0.1-0.1 0.2-0.1 0.4-0.1 0 0.1 0.1 0.1 0.1 0.1h0.1c0.1 0 0.4-0.1 0.9-0.4v0.1c-0.8 0.6-1.7 0.9-2.7 0.9h-0.1c-2.3-0.3-3.5-0.7-3.5-1.2 -1.2-0.8-1.7-1.9-1.7-3.2 0 0-0.1-0.1-0.1-0.2l0.1-0.3 -0.1-0.1c0.2-2.1 0.5-3.7 0.9-4.6 0.4-0.4 0.6-0.8 0.6-1.1v-0.1h-0.1c0 0.1-0.1 0.3-0.4 0.6h-0.1c0-0.3 0.4-0.9 1.3-1.6 0.6-0.8 1.3-1.4 2.1-1.9 0.8-0.5 1.5-0.7 2.1-0.7H31c0.1 0 0.1 0 0.1 0.1C33.1 99 35.1 98.6 37.2 98.6zM24.6 109.3l0.1 0.4v0.2h0.1l-0.1-0.4L24.6 109.3 24.6 109.3zM24.7 110.1L24.7 110.1c0 0.2 0.1 0.2 0.1 0.3h0.1v-0.3H24.7zM26.2 112.4L26.2 112.4c0 0.2 0.1 0.3 0.3 0.4h0.1v-0.1C26.6 112.7 26.5 112.6 26.2 112.4zM26.4 111.5L26.4 111.5c0 0.2 0.2 0.4 0.5 0.7H27v-0.1C26.6 111.9 26.4 111.6 26.4 111.5L26.4 111.5zM26.6 102.8L26.6 102.8 26.6 102.8c0.1 0 0.2-0.2 0.4-0.4v-0.1C27 102.3 26.9 102.5 26.6 102.8zM28.7 122.3L28.7 122.3l0.3 0.2 0.1-0.1v-0.1H28.7zM28.9 100.7L28.9 100.7l1.5-0.6c0.4 0 0.6-0.1 0.6-0.2h-0.1C30 99.9 29.3 100.3 28.9 100.7zM29.4 122.4L29.4 122.4 29.4 122.4h0.5v-0.1h-0.1L29.4 122.4zM33.9 119L33.9 119c0.5-0.5 0.8-1 0.9-1.4 -0.1-0.1-0.1-0.2-0.1-0.2l-0.4 0.6C34.1 118.4 33.9 118.7 33.9 119zM34.9 103.2v0.5H35l0.1-0.4v-0.1H34.9zM35.7 114.3c-0.1 0.7-0.3 1.4-0.4 2.1h0.1c0.1 0 0.2-0.3 0.4-0.9 -0.1 0-0.1 0-0.1-0.1 0.1-0.2 0.1-0.5 0.2-1.1H35.7zM52 109.1c0.4 0.1 0.6 0.1 0.6 0.2 0 0 0.1 0 0.2-0.1 0.8 0 1.2 0.2 1.2 0.4l-0.1 0.1c-0.2 0-0.4-0.1-0.5-0.1v0.2l0.1 0.2 0.1-0.1c0.1 0 0.2 0.2 0.2 0.4v0.1c0 0.9-0.3 3.7-0.8 8.2 -0.1 0.5-0.1 1.1-0.1 2v0.3c0 0.4 0.2 0.8 0.5 1 0.5 0 1.1-0.4 1.7-1.1 0.3-0.6 0.5-1.1 0.6-1.4H56c0-0.2 0-0.2 0.1-0.2l0.1 0.1c0 0.4-0.3 1.2-1 2.3 -0.5 0.9-1 1.5-1.3 1.6 -0.4 0.4-1.1 0.7-2.1 0.7 -0.5-0.2-1-0.5-1.3-1l-0.5-1 -1.3 1.2c-0.6 0.6-1.6 0.9-2.8 0.9 -0.9-0.1-1.9-0.7-3-1.6 -0.2 0-0.6-1-1.1-3.2 0-0.4-0.1-0.6-0.1-0.7 0-1.4 0.4-2.8 1.1-4.1 0.7-1.4 1.8-2.5 3.5-3.3 0.8-0.5 1.9-0.8 3.4-0.9h0.1c0.6 0.1 1 0.2 1.1 0.4 0-0.9 0.1-1.3 0.3-1.3C51.2 109.4 51.6 109.3 52 109.1zM42.3 116c-0.3 1-0.5 1.9-0.5 2.7v0.2c0.1 0.7 0.2 1 0.3 1 0.1-0.1 0.1-0.2 0.1-0.2l-0.3-1.1C41.9 118.2 42 117.3 42.3 116L42.3 116 42.3 116zM42.1 120.2L42.1 120.2c0 0.4 0.1 0.6 0.3 0.7 0 0.1-0.1 0.1-0.1 0.2 0.1 0.3 0.3 0.6 0.7 0.9l0 0c-0.5-0.9-0.7-1.4-0.7-1.8C42.3 120.2 42.1 120.2 42.1 120.2zM42.9 118.2l-0.1 0.3h0.1V118.2L42.9 118.2zM42.9 120.4L42.9 120.4c0.1 0.4 0.1 0.5 0.3 0.5v-0.2C43.2 120.6 43.1 120.5 42.9 120.4L42.9 120.4zM44.3 122l0.1 0.6v0.1c0 0.1 0 0.1-0.1 0.1h-0.1l-0.4-0.1c0 0.2 0.2 0.3 0.6 0.5h0.2l-0.1-0.1V123l0.2-0.3C44.5 122.2 44.4 122 44.3 122L44.3 122zM44.2 116.6c-0.1 0.2-0.2 0.7-0.3 1.5 0 0.1 0.1 0.1 0.1 0.2v0.1c0 0.1 0 0.3-0.1 0.6L44 119l-0.1 0.4v0.1c0.2 0.6 0.3 0.8 0.4 0.8h0.1v-0.1c-0.1-0.2-0.3-0.6-0.4-1.2 0.1-0.7 0.2-1.1 0.3-1.1l-0.1-0.1V116.6L44.2 116.6zM44.7 119c0 0.9 0.3 1.6 0.9 2.3 0.5 0.4 0.9 0.6 1.1 0.6h0.2c0.8 0 1.8-0.4 3-1.3l0.1-0.3v-0.7c0.2-1.9 0.4-3.3 0.4-4 0 0 0-0.1 0.1-0.2 0-0.1-0.1-0.2-0.1-0.3 0.2-2.2 0.3-3.6 0.3-4.1v-0.1c-0.1 0-0.2 0-0.2-0.1 -1.3 0.2-2.3 0.6-3.1 1.2 0 0-0.3 0.3-0.9 0.9 -0.6 0.8-1 1.8-1.3 3C44.8 116.8 44.7 117.8 44.7 119zM45.8 112.7c0 0.1 0.1 0.1 0.1 0.2H46c0.7-0.6 1.1-0.9 1.1-1H47l-0.3 0.1 -0.3-0.1C46 112.1 45.8 112.4 45.8 112.7zM48.4 122.7L48.4 122.7 48.4 122.7c0.3-0.1 0.5-0.2 0.5-0.3h-0.1C48.5 122.5 48.4 122.6 48.4 122.7zM50.2 120.1v0.4c0 0.3 0.1 0.5 0.3 0.6h0.1c0-0.8-0.1-1.3-0.1-1.6h-0.1C50.3 119.5 50.2 119.7 50.2 120.1zM50.9 111.1L50.9 111.1l-0.1 1.3h0.1C51 111.9 51 111.4 50.9 111.1L50.9 111.1zM50.9 109.8v1h0.2l0.1-0.9L50.9 109.8zM51 122.8c0.1 0.2 0.1 0.2 0.2 0.2 0.1 0 0.1 0 0.1-0.1v-0.3h-0.2C51.1 122.6 51 122.7 51 122.8zM51.5 117.4c-0.1 0.3-0.1 0.4-0.1 0.5l0.1 0.1h0.1L51.5 117.4 51.5 117.4zM51.6 111.2L51.6 111.2c0 0.1 0.1 0.2 0.1 0.2L51.6 111.2 51.6 111.2zM51.8 123.2c-0.1 0-0.1-0.1-0.2-0.1v0.1c0 0.1 0.2 0.2 0.5 0.2 0.4-0.1 0.6-0.1 0.6-0.2v-0.1l-0.4-0.1C52.3 123.1 52.1 123.1 51.8 123.2zM52.5 120.1v0.3h0.1L52.5 120.1 52.5 120.1zM52.5 120.9v0.3h0.1v-0.1C52.6 121 52.5 121 52.5 120.9L52.5 120.9zM52.6 111.1v0.2h0.1L52.6 111.1 52.6 111.1zM52.9 115.5L52.9 115.5l0.3-2.5v-0.2C53.1 112.8 53 113.7 52.9 115.5zM57.8 98.6h1.5c0.1 0 0.2 0 0.3 0.1 0.1 0 0.1-0.1 0.2-0.1v0.1l0.1-0.1c1.1 0 1.7 0.1 1.7 0.3l-0.3 2.8c0 0.1 0.1 0.1 0.1 0.2h-0.2c0 0 0 0.1 0.1 0.1 -0.1 0.8-0.3 2.1-0.4 3.9H61c0.2 0 0.4 0 0.6 0.1l0.1-0.1c0.2 0 0.3 0.1 0.4 0.1 0.5 0 0.8-0.1 0.9-0.1 0.9 0.2 1.4 0.3 1.5 0.4 0.1 0 0.1 0.1 0.1 0.1v0.2c0 0.2-0.2 0.3-0.7 0.4 -0.5 0-0.7-0.1-0.7-0.1s-0.1 0-0.1 0.1c-0.4 0-0.8-0.1-1-0.1h-1.3c-0.2 0-0.5 2.3-1.1 6.9 -0.4 2.2-0.6 4.1-0.6 5.4v0.5c0.1 1.5 0.4 2.2 0.9 2.2h0.4c0.6-0.3 1-0.9 1.2-1.5 0.4-0.9 0.7-1.7 0.8-2.5l0.1-0.1H63c0.1 0 0.1 0.1 0.1 0.2 0 0.3-0.1 0.8-0.4 1.3l0.1 0.1c0 0.9-0.6 2.2-1.7 3.9 -0.2 0.2-0.5 0.4-1.1 0.8h-0.2c-0.1 0-0.2 0-0.3-0.1l-0.4 0.1h-0.4c-0.9-0.3-1.6-0.8-1.9-1.5 -0.5-1.6-0.8-3.2-0.8-4.7 0-0.2 0.1-1.4 0.2-3.6 0 0 0-0.1-0.1-0.1l0.1-0.4c0-1.3 0.1-2.4 0.3-3.5 0-0.3 0.1-1.5 0.4-3.8l-2.5-0.4c-0.1 0-0.3 0.1-0.7 0.1 0-0.1 0-0.1-0.1-0.1h-0.3l-0.6 0.1 -0.1-0.2v0c0-0.2 0.5-0.3 1.5-0.3h2c0 0 0.1 0 0.1 0.1 0 0 0.1 0 0.1-0.1 0.4 0.1 0.6 0.1 0.7 0.1 0-0.1 0-0.2 0.1-0.2l-0.1-0.1c0.2-2 0.5-4.3 0.9-6.7C57.8 98.7 57.8 98.6 57.8 98.6zM57.2 107.4c-0.1 0-0.3 2-0.5 6.2 -0.1 0.2-0.1 0.6-0.2 1.5l0.1 0.1c-0.1 0.2-0.1 0.3-0.1 0.5v1.7c0 0.1 0 0.2-0.1 0.3 0 0.1 0.1 0.2 0.1 0.3v0.8c0 0.2 0 0.5 0.1 0.9l0.1-0.1 -0.1-0.3v-1.7c0-0.8 0.1-1.6 0.2-2.5 0-0.1 0-0.3-0.1-0.6 0.2-2.4 0.5-4.8 0.8-7L57.2 107.4zM57.3 120.9L57.3 120.9c0 0.6 0.1 0.9 0.1 1l0.1-0.1C57.5 121.2 57.4 120.9 57.3 120.9zM58.3 101.2c0 0 0 0.5-0.1 1.5l0.3-0.3L58.3 101.2 58.3 101.2zM58.8 112.5l-0.3 2.2c0 0 0 0.1 0.1 0.1l-0.1 0.4v0.6h0.1c0.2-1.2 0.3-2.2 0.3-3.1L58.8 112.5 58.8 112.5zM58.8 99.3v0.3h0.1l0.1-0.3H58.8zM59.3 100.6l-0.2 1.8c0.1 0 0.2 0 0.3 0.1L59.3 100.6 59.3 100.6zM59.1 110.2L59.1 110.2c0.1 0.6 0.1 0.9 0.1 0.9 0.1 0 0.2-0.3 0.2-0.9H59.1zM59.9 101.2c0 0.5-0.1 0.9-0.1 1.1v0.6h0.1c0.1-0.5 0.1-0.9 0.1-1.2L59.9 101.2 59.9 101.2zM60.1 99.3L60.1 99.3c0.1 0.5 0.2 0.8 0.3 0.8 0.3 0 0.4-0.2 0.4-0.7l-0.3-0.1C60.5 99.3 60.1 99.3 60.1 99.3zM79.5 98.2C79.5 98.2 79.5 98.3 79.5 98.2c0.1 0.1 0.2 0.1 0.3 0 0.3 0 0.6 0 0.8 0.1 1.2-0.1 2.2-0.1 3.2-0.1h1c1.6 0.2 4 0.3 7.3 0.5 0.4 0.1 0.6 0.3 0.6 0.4v0.1h-0.1c-0.7-0.1-1.3-0.2-1.8-0.2h-0.4v0.1c1.8 0.2 2.7 0.3 2.7 0.5 0-0.1 0.1-0.1 0.1-0.1 0 0.1 0 0.1 0.1 0.1l-0.1 0.4v0.1h0.1l0.3-0.4h0.1l-0.1 0.4v0.3c-0.1 0-0.2 0.3-0.4 0.8l0.1 0.2c-0.2 0.4-0.4 1-0.6 1.6 -0.2 0-0.4 0.1-0.6 0.2l-7.8-0.4c-0.9 2.7-1.3 4.6-1.3 5.4 -0.1 0-0.2 0.9-0.4 2.7h-0.1v-0.2l0.1-0.7 0 0h-0.1c-0.7 3.4-1.1 6.2-1.1 8.6 0 0.5 0.1 1.1 0.3 1.9h0.1l0.1-0.1c0.1 0.3 0.2 0.5 0.4 0.7l0.1-0.1 0.4 0.1c0.9-0.4 1.8-1.7 2.7-4 0-0.1 0-0.3 0.1-0.5h0.2c-0.1 1.3-0.7 3.2-1.8 5.3 -0.7 1.2-1.4 1.7-1.9 1.7 -0.2 0.3-0.6 0.4-1.2 0.4H80c-1.1-0.4-1.7-0.8-1.7-1.4 -0.4-0.7-0.7-1.4-0.8-2.1l0.1-0.8v-0.4c0-3.3 0.9-8.9 2.7-16.9h-0.1c-0.3 0-0.7 0-1.3 0.1l-0.1-0.1c0 0-0.1 0-0.1 0.1l-0.5-0.1h-0.3l-0.4 0.1v-0.1l-0.1 0.1c-3.2 0.2-5.1 1.3-5.7 3.5 0 0.3-0.1 0.6-0.1 0.8 0 1.2 0.4 2 1.1 2.3 0.9 0.7 1.6 1.1 2.3 1.1h0.3l0.4-0.1v0.2c-0.4 0.2-0.8 0.3-1.1 0.3h-1.2c-2.7-0.7-4.1-2.5-4.1-5.6 0-2 0.7-3.6 2.2-4.6 1.3-1.2 3-1.7 4.7-1.7l1.6-0.4v0.1c0.1-0.1 0.3-0.1 0.8-0.2v0.1l0.1-0.1h0.5C79.3 98.3 79.4 98.3 79.5 98.2zM70 105.1l-0.1 0.2v0.7c0 0.3 0.1 0.7 0.2 1.2h0.1l-0.1-0.5v-1.3C70.1 105.2 70.1 105.1 70 105.1zM70.1 108.1v0.2c0.2 0.4 0.3 0.7 0.4 0.7v-0.2C70.3 108.4 70.2 108.1 70.1 108.1L70.1 108.1zM70.2 104.3L70.2 104.3 70.2 104.3c0.2-0.2 0.2-0.5 0.2-0.6C70.3 103.7 70.3 103.9 70.2 104.3zM70.7 107.1v0.4h0.1L70.7 107.1 70.7 107.1zM71.2 108.9L71.2 108.9c0.4 0.6 0.7 0.8 0.9 0.8v-0.1C71.6 109.2 71.3 108.9 71.2 108.9L71.2 108.9zM72 104.1L72 104.1c0.2 0 0.3-0.1 0.4-0.2h-0.1C72.1 103.9 72 104 72 104.1zM76.1 99.9h0.3l0.5-0.1v-0.1C76.3 99.7 76.1 99.8 76.1 99.9zM77.2 102.2L77.2 102.2c0.5 0 0.9 0 1.2 0v-0.1h-0.5L77.2 102.2zM78.8 118.1v0.6l0.1 0.4h-0.1c0 0.3 0.2 0.6 0.3 0.8 -0.1 0.4-0.2 0.5-0.3 0.5 0.3 1.3 0.5 2 0.6 2h0.1v-0.2c-0.2-0.3-0.3-0.5-0.3-0.8v-3C79.1 118.4 79 118.3 78.8 118.1zM78.9 109.9c-0.1 0.3-0.1 0.4-0.1 0.4v0.1h0.1V109.9L78.9 109.9 78.9 109.9zM80.8 122.9l-0.1 0.2c0.1 0.2 0.1 0.3 0.2 0.3 0.1-0.1 0.3-0.2 0.4-0.2v-0.1C81.2 123.1 81 123.1 80.8 122.9zM80.8 122L80.8 122c0 0.1 0.1 0.2 0.3 0.3 0.1-0.1 0.2-0.1 0.2-0.1C81.3 122.1 81.1 122 80.8 122zM81.6 105.6c-0.2 1.1-0.4 1.8-0.4 1.9v0.1h0.1c0.2-1 0.3-1.6 0.3-1.7V105.6L81.6 105.6zM81.7 115.4L81.7 115.4l0.1 0.2h-0.1V115.4zM81.7 114.8L81.7 114.8l0.1 0.2h-0.1V114.8zM82 113L82 113c0 1.1-0.2 1.6-0.3 1.6v-0.1C81.8 114.1 81.9 113.6 82 113zM82.2 112L82.2 112v0.8h-0.1L82.2 112zM82.3 111.1L82.3 111.1 82.3 111.1v0.6h-0.1C82.3 111.4 82.3 111.2 82.3 111.1zM84.1 120.2L84.1 120.2c0.5-0.7 0.7-1.1 0.7-1.3C84.5 119.7 84.1 120.1 84.1 120.2zM91.6 99.6L91.6 99.6l1.1 0.3 0.1-0.2c0 0-0.1 0-0.1-0.1 -0.1 0.1-0.2 0.1-0.2 0.2L91.6 99.6C91.7 99.6 91.6 99.6 91.6 99.6zM93.1 100.8l-0.1 0.3v0.1h0.1V100.8L93.1 100.8 93.1 100.8zM95.1 109.1c0.4 0.1 0.6 0.1 0.6 0.2 0 0 0.1 0 0.2-0.1 0.8 0 1.2 0.2 1.2 0.4l-0.1 0.1c-0.2 0-0.4-0.1-0.5-0.1v0.2l0.1 0.2 0.1-0.1c0.1 0 0.2 0.2 0.2 0.4v0.1c0 0.9-0.3 3.7-0.8 8.2 -0.1 0.5-0.1 1.1-0.1 2v0.3c0 0.4 0.2 0.8 0.5 1 0.5 0 1.1-0.4 1.7-1.1 0.3-0.6 0.5-1.1 0.6-1.4H99c0-0.2 0-0.2 0.1-0.2l0.1 0.1c0 0.4-0.3 1.2-1 2.3 -0.5 0.9-1 1.5-1.3 1.6 -0.4 0.4-1.1 0.7-2.1 0.7 -0.5-0.2-1-0.5-1.3-1l-0.5-1 -1.3 1.2c-0.6 0.6-1.6 0.9-2.8 0.9 -0.9-0.1-1.9-0.7-3-1.6 -0.2 0-0.6-1-1.1-3.2 0-0.4-0.1-0.6-0.1-0.7 0-1.4 0.4-2.8 1.1-4.1 0.7-1.4 1.8-2.5 3.5-3.3 0.8-0.5 1.9-0.8 3.4-0.9h0.1c0.6 0.1 1 0.2 1.1 0.4 0-0.9 0.1-1.3 0.3-1.3C94.4 109.4 94.8 109.3 95.1 109.1zM85.6 116c-0.3 1-0.5 1.9-0.5 2.7v0.2c0.1 0.7 0.2 1 0.3 1 0.1-0.1 0.1-0.2 0.1-0.2l-0.3-1.1C85.2 118.2 85.4 117.3 85.6 116L85.6 116 85.6 116zM85.5 120.2L85.5 120.2c0 0.4 0.1 0.6 0.3 0.7 0 0.1-0.1 0.1-0.1 0.2 0.1 0.3 0.3 0.6 0.7 0.9l0 0c-0.5-0.9-0.7-1.4-0.7-1.8C85.7 120.2 85.5 120.2 85.5 120.2zM86.3 118.2l-0.1 0.3h0.1V118.2L86.3 118.2zM86.3 120.4L86.3 120.4c0.1 0.4 0.1 0.5 0.3 0.5v-0.2C86.5 120.6 86.4 120.5 86.3 120.4L86.3 120.4zM87.5 122l0.1 0.6v0.1c0 0.1 0 0.1-0.1 0.1h-0.1l-0.4-0.1c0 0.2 0.2 0.3 0.6 0.5h0.2l-0.1-0.2v-0.1l0.2-0.3C87.7 122.2 87.7 122 87.5 122L87.5 122zM87.4 116.6c-0.1 0.2-0.2 0.7-0.3 1.5 0 0.1 0.1 0.1 0.1 0.2v0.1c0 0.1 0 0.3-0.1 0.6l0.1 0.1 -0.1 0.4v0.1c0.2 0.6 0.3 0.8 0.4 0.8h0.1v-0.1c-0.1-0.2-0.3-0.6-0.4-1.2 0.1-0.7 0.2-1.1 0.3-1.1l-0.1-0.1V116.6L87.4 116.6zM87.8 119c0 0.9 0.3 1.6 0.9 2.3 0.5 0.4 0.9 0.6 1.1 0.6H90c0.8 0 1.8-0.4 3-1.3l0.1-0.3v-0.7c0.2-1.9 0.4-3.3 0.4-4 0 0 0-0.1 0.1-0.2 0-0.1-0.1-0.2-0.1-0.3 0.2-2.2 0.3-3.6 0.3-4.1v-0.1c-0.1 0-0.2 0-0.2-0.1 -1.3 0.2-2.3 0.6-3.1 1.2 0 0-0.3 0.3-0.9 0.9 -0.6 0.8-1 1.8-1.3 3C88 116.8 87.8 117.8 87.8 119zM89 112.7c0 0.1 0.1 0.1 0.1 0.2h0.1c0.7-0.6 1.1-0.9 1.1-1h-0.1l-0.3 0.1 -0.3-0.1C89.2 112.1 89 112.4 89 112.7zM91.6 122.7L91.6 122.7 91.6 122.7c0.3-0.1 0.5-0.2 0.5-0.3H92C91.8 122.5 91.6 122.6 91.6 122.7zM93.5 120.1v0.4c0 0.3 0.1 0.5 0.3 0.6h0.1c0-0.8-0.1-1.3-0.1-1.6h-0.1C93.5 119.5 93.5 119.7 93.5 120.1zM94.1 111.1L94.1 111.1l-0.1 1.3h0.1C94.2 111.8 94.2 111.3 94.1 111.1L94.1 111.1zM94.1 109.8v1h0.2l0.1-0.9L94.1 109.8zM94.3 122.8c0.1 0.2 0.1 0.2 0.2 0.2s0.1 0 0.1-0.1v-0.3h-0.2C94.3 122.6 94.3 122.7 94.3 122.8zM94.6 117.4c-0.1 0.3-0.1 0.4-0.1 0.5l0.1 0.1h0.1L94.6 117.4 94.6 117.4zM94.8 111.2L94.8 111.2c0 0.1 0.1 0.2 0.1 0.2L94.8 111.2 94.8 111.2zM94.9 123.2c-0.1 0-0.1-0.1-0.2-0.1v0.1c0 0.1 0.2 0.2 0.5 0.2 0.4-0.1 0.6-0.1 0.6-0.2v-0.1l-0.4-0.1C95.5 123.1 95.3 123.1 94.9 123.2zM95.6 120.1v0.3h0.1L95.6 120.1 95.6 120.1zM95.6 120.9v0.3h0.1v-0.1C95.8 121 95.8 121 95.6 120.9L95.6 120.9zM95.8 111.1v0.2h0.1L95.8 111.1 95.8 111.1zM96.1 115.5L96.1 115.5l0.3-2.5v-0.2C96.4 112.8 96.1 113.7 96.1 115.5zM101 98.6h1.5c0.1 0 0.2 0 0.3 0.1 0.1 0 0.1-0.1 0.2-0.1v0.1l0.1-0.1c1.1 0 1.7 0.1 1.7 0.3l-0.3 2.8c0 0.1 0.1 0.1 0.1 0.2h-0.1c0 0 0 0.1 0.1 0.1 -0.1 0.8-0.3 2.1-0.4 3.9h0.1c0.2 0 0.4 0 0.6 0.1l0.1-0.1c0.2 0 0.3 0.1 0.4 0.1 0.5 0 0.8-0.1 0.9-0.1 0.9 0.2 1.4 0.3 1.5 0.4 0.1 0 0.1 0.1 0.1 0.1v0.2c0 0.2-0.2 0.3-0.7 0.4 -0.5 0-0.7-0.1-0.7-0.1s-0.1 0-0.1 0.1c-0.4 0-0.8-0.1-1-0.1h-1.3c-0.2 0-0.5 2.3-1.1 6.9 -0.4 2.2-0.6 4.1-0.6 5.4v0.5c0.1 1.5 0.4 2.2 0.9 2.2h0.4c0.6-0.3 1-0.9 1.2-1.5 0.4-0.9 0.7-1.7 0.8-2.5l0.1-0.1h0.4c0.1 0 0.1 0.1 0.1 0.2 0 0.3-0.1 0.8-0.4 1.3l0.1 0.1c0 0.9-0.6 2.2-1.7 3.9 -0.2 0.2-0.5 0.4-1.1 0.8H103c-0.1 0-0.2 0-0.3-0.1l-0.4 0.1h-0.4c-0.9-0.3-1.6-0.8-1.9-1.5 -0.5-1.6-0.8-3.2-0.8-4.7 0-0.2 0.1-1.4 0.2-3.6 0 0 0-0.1-0.1-0.1l0.1-0.4c0-1.3 0.1-2.4 0.3-3.5 0-0.3 0.1-1.5 0.4-3.8l-2.5-0.4c-0.1 0-0.3 0.1-0.7 0.1 0-0.1 0-0.1-0.1-0.1l0 0 -0.6 0.1 -0.1-0.2v0c0-0.2 0.5-0.3 1.5-0.3h2c0 0 0.1 0 0.1 0.1 0 0 0.1 0 0.1-0.1 0.4 0.1 0.6 0.1 0.7 0.1 0-0.1 0-0.2 0.1-0.2l-0.1-0.1c0.2-2 0.5-4.3 0.9-6.7L101 98.6zM100.5 107.4c-0.1 0-0.3 2-0.5 6.2 -0.1 0.2-0.1 0.6-0.2 1.5l0.1 0.1c-0.1 0.2-0.1 0.3-0.1 0.5v1.7c0 0.1 0 0.2-0.1 0.3 0 0.1 0.1 0.2 0.1 0.3v0.8c0 0.2 0 0.5 0.1 0.9l0.1-0.1 -0.1-0.3v-1.7c0-0.8 0.1-1.6 0.2-2.5 0-0.1 0-0.3-0.1-0.6 0.2-2.4 0.5-4.8 0.8-7L100.5 107.4zM100.5 120.9L100.5 120.9c0 0.6 0.1 0.9 0.1 1l0.1-0.1C100.7 121.2 100.6 120.9 100.5 120.9zM101.5 101.2c0 0 0 0.5-0.1 1.5l0.3-0.3L101.5 101.2 101.5 101.2zM102 112.5l-0.3 2.2c0 0 0 0.1 0.1 0.1l-0.1 0.4v0.6h0.1c0.2-1.2 0.3-2.2 0.3-3.1L102 112.5 102 112.5zM102 99.3v0.3h0.1l0.1-0.3H102zM102.6 100.6l-0.2 1.8c0.1 0 0.2 0 0.3 0.1L102.6 100.6 102.6 100.6zM102.3 110.2L102.3 110.2c0.1 0.6 0.1 0.9 0.1 0.9 0.1 0 0.2-0.3 0.2-0.9H102.3zM103.3 101.2c0 0.5-0.1 0.9-0.1 1.1v0.6h0.1c0.1-0.5 0.1-0.9 0.1-1.2L103.3 101.2 103.3 101.2zM103.3 99.3L103.3 99.3c0.1 0.5 0.2 0.8 0.3 0.8 0.3 0 0.4-0.2 0.4-0.7l-0.3-0.1C103.7 99.3 103.3 99.3 103.3 99.3zM111.9 110L111.9 110c2 0 3.5 1 4.3 3.2 0.1 0.3 0.1 0.5 0.1 0.6 -0.1 0.2-0.2 0.3-0.3 0.3h-0.1c-0.1 0-0.2-0.4-0.5-1.2 -0.7-0.9-1.5-1.4-2.4-1.4h-0.2c-0.7 0-1.2 0.3-1.6 0.9v0.1c0 0.7 0.3 1.3 0.9 1.7l1.6 1.6c0.9 1.3 1.3 2.4 1.3 3.3 -0.1 1.4-0.3 2.1-0.4 2.1 -0.8 1.2-1.5 2-2.3 2.3 -1 0.3-1.7 0.5-2.1 0.5l0 0h-0.4c-1.2 0-2.3-0.6-3.4-1.9 -0.5-1.2-0.8-2.1-0.8-2.8 0-1.9 0.4-3.4 1.1-4.1 0.1 0 0.2 0.1 0.2 0.3 0 0.1-0.1 0.3-0.2 0.5 0.1 0 0.1 0.1 0.1 0.2 -0.3 0.8-0.4 1.4-0.4 1.8v0.1c0.1 0.6 0.1 0.9 0.1 0.9s0 0.1-0.1 0.2c0.6 1.9 1.5 2.8 2.7 2.8h0.4c0.6-0.1 1.1-0.3 1.4-0.6 0.3-0.4 0.5-0.8 0.5-1.3 -0.2-1.2-0.5-1.9-0.8-1.9 0-0.1-0.7-0.8-2.1-2.1 -0.5-0.6-0.7-1.4-0.8-2.4 0-0.1 0.1-0.1 0.1-0.2l-0.1-0.1c0.3-1.2 0.8-2 1.4-2.4C110.1 110.3 111.1 110 111.9 110zM109.2 111.9L109.2 111.9C109.3 112 109.3 112 109.2 111.9L109.2 111.9C109.2 111.7 109.2 111.7 109.2 111.9zM109.4 115.9L109.4 115.9l1.6 1.6v-0.1c-0.3-0.6-0.5-0.9-0.7-0.9C109.8 116.4 109.5 116.2 109.4 115.9L109.4 115.9zM109.9 115.3L109.9 115.3c0.1 0.3 0.2 0.4 0.3 0.4v-0.1C109.9 115.4 109.9 115.3 109.9 115.3zM110.2 112.5v0.2c0 0.1 0 0.1 0.1 0.1L110.2 112.5C110.4 112.5 110.2 112.5 110.2 112.5zM111.6 114.9c0.2 0.3 0.4 0.5 0.4 0.5h0.1v-0.1C111.9 115 111.8 114.9 111.6 114.9zM111.7 118.6c0 0.1 0.1 0.2 0.3 0.3h0.1c-0.1-0.2-0.1-0.3-0.2-0.3H111.7zM112.4 115.6L112.4 115.6c0.2 0.5 0.5 1 0.9 1.6v0.1c0.1 0 0.1 0 0.1-0.1v-0.1C113.4 116.9 113.1 116.4 112.4 115.6L112.4 115.6zM113.7 121.1v0.2h0.1l0.1-0.3C113.7 121 113.7 121 113.7 121.1z"/></a><a xlink:href="https://www.google.com/fonts/specimen/Roboto" xlink:show="new"><path fill="#FFFFFF" d="M-1.8 140.8h-3.1v5.3h-1.7v-13h4.3c1.4 0 2.6 0.3 3.4 1 0.8 0.7 1.2 1.6 1.2 3 0 0.8-0.2 1.5-0.6 2.1s-1 1-1.8 1.3L3 146v0.1H1L-1.8 140.8zM-4.9 139.4h2.6c0.8 0 1.5-0.2 2-0.7 0.5-0.4 0.7-1 0.7-1.7 0-0.8-0.2-1.4-0.7-1.8 -0.5-0.4-1.2-0.6-2-0.6h-2.6V139.4zM4 141.2c0-0.9 0.2-1.8 0.5-2.5 0.4-0.7 0.9-1.3 1.5-1.7 0.7-0.4 1.4-0.6 2.2-0.6 1.3 0 2.3 0.4 3.2 1.3 0.8 0.9 1.2 2.1 1.2 3.7v0.1c0 0.9-0.2 1.8-0.5 2.5 -0.4 0.7-0.9 1.3-1.5 1.7s-1.4 0.6-2.3 0.6c-1.3 0-2.3-0.4-3.2-1.3 -0.8-0.9-1.2-2.1-1.2-3.7L4 141.2 4 141.2zM5.6 141.4c0 1.1 0.2 1.9 0.7 2.5s1.1 1 2 1c0.8 0 1.5-0.3 2-1 0.5-0.6 0.7-1.6 0.7-2.7 0-1-0.2-1.9-0.7-2.5s-1.2-1-2-1 -1.5 0.3-1.9 1C5.9 139.1 5.6 140.1 5.6 141.4zM23 141.4c0 1.5-0.3 2.6-1 3.6s-1.6 1.3-2.7 1.3c-1.2 0-2.1-0.4-2.8-1.3l-0.1 1.1h-1.5v-13.7h1.7v5.1c0.7-0.8 1.6-1.2 2.7-1.2s2.1 0.4 2.7 1.3C22.7 138.5 23 139.7 23 141.4 23 141.1 23 141.4 23 141.4zM21.4 141.2c0-1.1-0.2-2-0.6-2.6s-1-0.9-1.8-0.9c-1.1 0-1.8 0.5-2.3 1.5v4.2c0.5 1 1.3 1.5 2.3 1.5 0.8 0 1.4-0.3 1.8-0.9C21.2 143.4 21.4 142.5 21.4 141.2zM24.7 141.2c0-0.9 0.2-1.8 0.5-2.5 0.4-0.7 0.9-1.3 1.5-1.7 0.7-0.4 1.4-0.6 2.2-0.6 1.3 0 2.3 0.4 3.2 1.3 0.8 0.9 1.2 2.1 1.2 3.7v0.1c0 0.9-0.2 1.8-0.5 2.5 -0.4 0.7-0.9 1.3-1.5 1.7s-1.4 0.6-2.3 0.6c-1.3 0-2.3-0.4-3.2-1.3 -0.8-0.9-1.2-2.1-1.2-3.7L24.7 141.2 24.7 141.2zM26.4 141.4c0 1.1 0.2 1.9 0.7 2.5s1.1 1 2 1c0.8 0 1.5-0.3 2-1 0.5-0.6 0.7-1.6 0.7-2.7 0-1-0.2-1.9-0.7-2.5s-1.2-1-2-1 -1.5 0.3-1.9 1C26.7 139.2 26.4 140.1 26.4 141.4zM37.9 134.1v2.3h1.8v1.3h-1.8v6c0 0.4 0.1 0.7 0.2 0.9 0.2 0.2 0.4 0.3 0.8 0.3 0.2 0 0.4 0 0.8-0.1v1.3c-0.4 0.1-0.8 0.2-1.2 0.2 -0.7 0-1.3-0.2-1.6-0.7 -0.4-0.4-0.6-1.1-0.6-1.9v-6h-1.7v-1.3h1.7v-2.3H37.9zM40.9 141.2c0-0.9 0.2-1.8 0.5-2.5 0.3-0.7 0.9-1.3 1.5-1.7 0.7-0.4 1.4-0.6 2.2-0.6 1.3 0 2.3 0.4 3.2 1.3 0.8 0.9 1.2 2.1 1.2 3.7v0.1c0 0.9-0.2 1.8-0.5 2.5 -0.4 0.7-0.9 1.3-1.5 1.7 -0.7 0.4-1.4 0.6-2.3 0.6 -1.3 0-2.3-0.4-3.2-1.3 -0.8-0.9-1.1-2.2-1.1-3.7C40.9 141.4 40.9 141.2 40.9 141.2zM42.6 141.4c0 1.1 0.2 1.9 0.7 2.5s1.1 1 2 1c0.8 0 1.5-0.3 2-1 0.5-0.6 0.7-1.6 0.7-2.7 0-1-0.2-1.9-0.7-2.5s-1.2-1-2-1 -1.5 0.3-1.9 1C42.9 139.2 42.6 140.1 42.6 141.4zM61.5 140.8h-3.1v5.3h-1.7v-13H61c1.4 0 2.6 0.3 3.4 1 0.8 0.7 1.2 1.6 1.2 3 0 0.8-0.2 1.5-0.6 2.1s-1 1-1.8 1.3l3.1 5.5v0.1h-1.9L61.5 140.8zM58.3 139.4H61c0.8 0 1.5-0.2 2-0.7 0.5-0.4 0.7-1 0.7-1.7 0-0.8-0.2-1.4-0.7-1.8 -0.5-0.4-1.2-0.6-2-0.6h-2.6v4.8H58.3zM71.6 146.2c-1.3 0-2.3-0.4-3.2-1.3 -0.8-0.8-1.2-2-1.2-3.5v-0.3c0-0.9 0.2-1.8 0.5-2.5 0.4-0.7 0.9-1.3 1.5-1.7s1.3-0.6 2.1-0.6c1.2 0 2.2 0.4 3 1.2 0.7 0.8 1 2 1 3.6v0.7h-6.5c0 0.9 0.3 1.7 0.8 2.3s1.2 0.9 2 0.9c0.6 0 1.1-0.1 1.5-0.4 0.4-0.2 0.7-0.5 1-0.9l1 0.8C74.5 145.6 73.3 146.2 71.6 146.2zM71.4 137.6c-0.7 0-1.2 0.2-1.7 0.7 -0.4 0.5-0.7 1.1-0.8 2h4.9v-0.1c0-0.8-0.3-1.5-0.7-1.9C72.6 137.9 72.1 137.6 71.4 137.6zM76.9 141.2c0-1.5 0.3-2.7 1-3.6 0.7-0.9 1.6-1.3 2.7-1.3 1.2 0 2.1 0.4 2.7 1.2l0.1-1.1h1.5v9.5c0 1.2-0.4 2.2-1.1 3 -0.7 0.7-1.7 1.1-3 1.1 -0.7 0-1.4-0.1-2-0.4 -0.7-0.3-1.2-0.7-1.5-1.2l0.8-1c0.7 0.9 1.6 1.3 2.6 1.3 0.8 0 1.4-0.2 1.9-0.7 0.4-0.4 0.7-1.1 0.7-1.9v-0.8c-0.7 0.8-1.5 1.1-2.7 1.1 -1.1 0-2-0.4-2.7-1.3C77.3 144 76.9 142.8 76.9 141.2zM78.7 141.4c0 1.1 0.2 1.9 0.7 2.5 0.4 0.6 1.1 0.9 1.8 0.9 1 0 1.8-0.5 2.3-1.4V139c-0.5-0.9-1.2-1.4-2.2-1.4 -0.8 0-1.4 0.3-1.9 0.9S78.7 140.1 78.7 141.4zM93.6 145.1c-0.6 0.7-1.6 1.1-2.8 1.1 -1 0-1.8-0.3-2.3-0.9s-0.8-1.5-0.8-2.6v-6.3h1.6v6.2c0 1.4 0.6 2.2 1.8 2.2 1.2 0 2.1-0.5 2.5-1.4v-7h1.6v9.7h-1.5L93.6 145.1zM99.5 146.1h-1.6v-13.7h1.6V146.1zM108.2 146.1c-0.1-0.2-0.2-0.5-0.2-1 -0.8 0.8-1.7 1.2-2.7 1.2 -0.9 0-1.7-0.3-2.3-0.8s-0.9-1.2-0.9-2c0-1 0.4-1.8 1.1-2.3 0.8-0.5 1.8-0.8 3.3-0.8h1.6v-0.7c0-0.6-0.2-1-0.5-1.4s-0.8-0.5-1.5-0.5c-0.6 0-1.1 0.1-1.5 0.4s-0.6 0.6-0.6 1.1h-1.6c0-0.5 0.2-0.9 0.5-1.4 0.3-0.4 0.8-0.8 1.4-1.1 0.6-0.3 1.2-0.4 1.9-0.4 1.1 0 2 0.3 2.6 0.8s0.9 1.3 1 2.3v4.5c0 0.9 0.1 1.6 0.3 2.1v0.1L108.2 146.1 108.2 146.1zM105.3 144.9c0.5 0 1-0.1 1.5-0.4 0.5-0.3 0.8-0.6 1-1v-2h-1.3c-2 0-3.1 0.6-3.1 1.7 0 0.5 0.2 0.9 0.5 1.2C104.3 144.6 104.8 144.9 105.3 144.9zM116.8 137.9c-0.2 0-0.5-0.1-0.8-0.1 -1.1 0-1.8 0.5-2.2 1.4v6.9h-1.6v-9.7h1.6v1.1c0.5-0.9 1.3-1.3 2.3-1.3 0.3 0 0.6 0 0.7 0.1V137.9z"/></a></svg>