<svg xmlns="http://www.w3.org/2000/svg" xmlns:xlink="http://www.w3.org/1999/xlink" version="1.2" baseProfile="tiny" x="0" y="0" viewBox="0 0 233.6 100" xml:space="preserve"><text transform="matrix(1 0 0 1 7.1079 13.5215)" opacity="0">x</text><a xlink:href="https://www.google.com/fonts/specimen/Buda" xlink:show="new"><path fill="#FFFFFF" d="M153.1 30.6V2.2h8.7c3 0 5.4 0.6 7 1.8s2.4 2.8 2.4 5c0 1.8-0.6 3.4-1.8 4.6 -1.2 1.2-2.6 2.1-4.2 2.5 5.3 0.3 8 2.7 8 7.1 0 1.3-0.3 2.5-0.8 3.5s-1.3 1.8-2.2 2.3c-1 0.6-2 1-3.2 1.3 -1.2 0.3-2.5 0.4-4 0.4H153.1zM155.6 15.8h5.4c1.4 0 2.6-0.2 3.6-0.5 1-0.3 1.8-0.7 2.4-1.3 0.6-0.5 1-1.1 1.3-1.8s0.4-1.3 0.4-2.1c0-1.8-0.5-3.2-1.6-4.1 -1.1-0.9-2.9-1.4-5.4-1.4h-6V15.8zM155.6 16.8v11.4h6.9c2.8 0 4.9-0.5 6.2-1.4 1.3-0.9 1.9-2.4 1.9-4.3 0-2-0.6-3.4-1.9-4.3 -1.3-0.9-3.4-1.4-6.4-1.4H155.6zM193.1 13.1v14.7c0 0.4 0 0.6 0 0.8 0 0.2 0.1 0.4 0.3 0.6 0.1 0.2 0.4 0.4 0.7 0.5 0.3 0.1 0.8 0.1 1.4 0.1v0.8H191v-3.7c-1.6 1.3-3 2.3-4.2 2.9s-2.4 1-3.8 1c-2.7 0-4-1.6-4-4.9V13.1h2.1v11.8c0 1.6 0.2 2.7 0.7 3.3 0.4 0.5 1.2 0.8 2.2 0.8 1.2 0 2.4-0.3 3.7-1 1.3-0.7 2.4-1.5 3.3-2.3V13.1H193.1zM210.1 30.6v-3.8c-0.1 0.2-0.2 0.4-0.2 0.5 -0.1 0.1-0.3 0.5-0.6 0.9 -0.3 0.5-0.7 0.9-1.1 1.2 -0.4 0.3-0.9 0.6-1.5 0.9 -0.7 0.3-1.3 0.4-2.1 0.4 -0.6 0-1.2-0.1-1.8-0.3 -0.6-0.2-1.2-0.5-1.8-1 -0.6-0.5-1.1-1-1.5-1.7 -0.4-0.7-0.8-1.5-1.1-2.6 -0.3-1-0.4-2.2-0.4-3.5 0-1.3 0.1-2.5 0.4-3.5 0.3-1 0.7-1.9 1.1-2.5 0.5-0.6 1-1.2 1.6-1.6 0.6-0.4 1.2-0.7 1.9-0.9 0.6-0.2 1.3-0.3 1.9-0.3 0.7 0 1.4 0.1 2.1 0.3 0.6 0.2 1.1 0.4 1.5 0.6 0.4 0.2 0.7 0.5 0.9 0.8 0.3 0.3 0.4 0.5 0.5 0.6 0.1 0.1 0.1 0.2 0.1 0.3V5c0-0.4 0-0.6 0-0.8 0-0.2-0.1-0.4-0.3-0.6 -0.1-0.2-0.4-0.4-0.7-0.5C208.7 3 208.3 3 207.7 3V2.2h4.5v25.6c0 0.4 0 0.6 0 0.8s0.1 0.4 0.3 0.6c0.1 0.2 0.4 0.4 0.7 0.5 0.3 0.1 0.8 0.1 1.4 0.1v0.9H210.1zM205.1 15.2c-1.7 0-3 0.6-3.8 1.9 -0.8 1.2-1.2 2.9-1.2 5.1 0 2.5 0.5 4.3 1.4 5.7 0.9 1.3 2.1 2 3.7 2 0.7 0 1.4-0.2 2.1-0.7 0.7-0.5 1.2-1 1.6-1.7 0.4-0.7 0.7-1.3 1-2 0.2-0.6 0.4-1.2 0.4-1.6v-4.7c0-0.3-0.1-0.7-0.3-1.1 -0.2-0.4-0.5-0.9-0.9-1.3 -0.4-0.4-0.9-0.8-1.6-1.1C206.6 15.3 205.9 15.2 205.1 15.2zM223.8 12.9c1.1 0 2 0.1 2.8 0.3s1.4 0.5 1.8 0.8c0.4 0.3 0.8 0.7 1 1.2 0.3 0.5 0.4 1 0.5 1.5 0.1 0.5 0.1 1 0.1 1.7v12.3h-1.9l-0.2-3.3c-0.7 1.1-1.6 1.9-2.8 2.5 -1.2 0.6-2.3 0.9-3.3 0.9 -1.3 0-2.5-0.4-3.4-1.1 -0.9-0.8-1.4-1.9-1.4-3.5 0-0.9 0.2-1.6 0.5-2.3 0.3-0.7 0.8-1.2 1.4-1.6s1.2-0.7 1.9-1c0.7-0.3 1.5-0.5 2.4-0.6 0.9-0.1 1.7-0.2 2.4-0.2 0.7 0 1.5-0.1 2.3-0.1 0-0.1 0-0.7 0-1.8 0-0.6-0.1-1.1-0.2-1.5 -0.1-0.4-0.3-0.8-0.6-1.1 -0.3-0.4-0.7-0.6-1.3-0.8 -0.6-0.2-1.3-0.3-2.1-0.3 -1.6 0-3.2 0.3-4.8 1l-0.3-1.8 0.6-0.3c0.4-0.2 1-0.4 1.9-0.6C222 13 222.9 12.9 223.8 12.9zM227.9 24.6v-3.5c-5.9 0-8.8 1.6-8.8 4.7 0 1.1 0.3 1.9 1 2.6s1.5 1 2.6 1c1.3 0 2.5-0.5 3.6-1.5C227.4 26.8 227.9 25.8 227.9 24.6z"/></a><a xlink:href="https://www.google.com/fonts/specimen/Sanchez" xlink:show="new"><path fill="#FFFFFF" d="M49.2 63.9h-1.6c-0.2 0-0.3-0.1-0.3-0.3l0.9-6.5c0-0.2 0.2-0.4 0.4-0.4h1.7c0.2 0 0.3 0.1 0.3 0.4l-0.1 0.6c-0.1 0.3 0.1 0.8 0.4 1.4 0.3 0.6 0.7 1.1 1.1 1.4 0.4 0.4 0.9 0.7 1.6 1 0.7 0.3 1.4 0.4 2.3 0.4 1.6 0 2.8-0.3 3.7-1 0.9-0.7 1.4-1.6 1.4-2.7 0-1-0.7-1.8-2.2-2.3 -0.7-0.2-1.4-0.5-2.2-0.7 -0.8-0.2-1.6-0.4-2.4-0.7 -0.8-0.3-1.5-0.6-2.2-0.9 -0.7-0.4-1.2-0.9-1.6-1.5 -0.4-0.6-0.6-1.4-0.6-2.3 0-1.7 0.7-3.1 2-4.3 1.3-1.2 3.1-1.7 5.3-1.7 2.5 0 4.3 0.7 5.2 2.2l0.2-1.7c0-0.2 0.2-0.3 0.4-0.3h1.6c0.2 0 0.3 0.1 0.3 0.3L64 50.4c-0.1 0.2-0.2 0.3-0.4 0.3h-1.7c-0.2 0-0.3-0.1-0.3-0.3l0.1-0.8c0-0.1 0-0.2 0-0.2 0-0.7-0.3-1.4-1-2.1 -0.7-0.7-1.8-1.1-3.3-1.1 -1.5 0-2.7 0.3-3.5 1 -0.9 0.7-1.3 1.4-1.3 2.3s0.4 1.6 1.2 2.1c0.8 0.5 1.7 0.9 2.8 1.1 1.1 0.3 2.2 0.6 3.3 0.9 1.1 0.3 2.1 0.9 2.8 1.6s1.2 1.7 1.2 2.8c0 1.7-0.7 3.2-2 4.4 -1.3 1.2-3.3 1.8-5.8 1.8 -1.7 0-3.1-0.3-4.1-1 -1-0.7-1.7-1.4-2.1-2.2l-0.4 2.7C49.6 63.8 49.4 63.9 49.2 63.9zM78.7 63.9h-2.4c-0.7 0-1.1-0.3-1.1-0.9 0-0.1 0-0.2 0-0.3l0.2-1.4h-0.1c-1.6 1.9-3.5 2.8-5.8 2.8 -1.2 0-2.2-0.3-2.9-0.9 -0.7-0.6-1.1-1.4-1.1-2.5 0-1.7 0.7-2.9 2.2-3.7 1.5-0.8 3.4-1.2 5.9-1.2h2.3l0.1-0.3c0.1-0.3 0.1-0.6 0.1-0.9 0-1.7-1.1-2.6-3.2-2.6 -1.1 0-2 0.1-2.5 0.3 -0.5 0.2-0.9 0.4-1.1 0.5 -0.2 0.1-0.4 0.2-0.5 0.3 -0.1 0.1-0.2 0.1-0.2 0.1 -0.2 0.1-0.3 0-0.4-0.1l-0.6-1c-0.1-0.1-0.1-0.3 0.1-0.5 0.2-0.2 0.4-0.3 0.7-0.6s0.9-0.5 1.9-0.8c0.9-0.3 2-0.4 3.1-0.4 3.4 0 5.2 1.4 5.2 4.3 0 0.4 0 0.8-0.1 1.2l-0.9 6.4h1.6c0.2 0 0.3 0.1 0.3 0.3l-0.2 1.2C79 63.8 78.9 63.9 78.7 63.9zM73.5 57.5c-1.7 0-2.9 0.1-3.6 0.4 -0.7 0.2-1.2 0.6-1.5 0.9 -0.3 0.4-0.4 0.8-0.4 1.4 0 0.6 0.2 1 0.7 1.4 0.5 0.4 1.1 0.6 1.9 0.6 1.8 0 3.4-0.8 4.9-2.4l0.3-2.2H73.5zM95.8 63.9h-2.6c-0.7 0-1.1-0.3-1.1-0.9 0-0.1 0-0.2 0-0.3l1-7.3c0-0.3 0.1-0.5 0.1-0.8 0-0.7-0.2-1.2-0.5-1.7 -0.4-0.6-1.1-0.9-2-0.9 -0.6 0-1.2 0.2-1.8 0.6 -0.6 0.4-1 0.8-1.4 1.4 -0.6 0.8-1 1.6-1.2 2.2l-0.8 5.8H87c0.2 0 0.3 0.1 0.3 0.3l-0.2 1.2c0 0.2-0.2 0.3-0.4 0.3h-5.3c-0.2 0-0.3-0.1-0.3-0.3l0.2-1.2c0-0.2 0.1-0.3 0.4-0.3h1.6l1.4-9.9h-1.6c-0.2 0-0.3-0.1-0.3-0.3l0.2-1.2c0-0.2 0.2-0.3 0.4-0.3h3.3c0.2 0 0.3 0.1 0.3 0.3l-0.5 3.3h0.1c0-0.3 0.2-0.7 0.5-1.2 0.3-0.5 0.6-1 1-1.3 0.3-0.3 0.8-0.7 1.4-0.9 0.6-0.3 1.3-0.4 2.1-0.4 1.5 0 2.6 0.4 3.3 1.3 0.6 0.7 0.8 1.5 0.8 2.6 0 0.3 0 0.6-0.1 0.9l-1 7.2h1.6c0.2 0 0.3 0.1 0.3 0.3l-0.2 1.2C96.2 63.8 96.1 63.9 95.8 63.9zM104.4 64.1c-1.8 0-3.2-0.5-4.3-1.6 -1.1-1.1-1.7-2.6-1.7-4.4 0-2.4 0.8-4.4 2.3-5.8 1.6-1.5 3.3-2.2 5.3-2.2 2 0 3.4 0.7 4.1 2.1h0l0.2-1.5c0-0.2 0.2-0.4 0.4-0.4h1.1c0.2 0 0.3 0.1 0.3 0.4l-0.7 4.7c0 0.2-0.2 0.3-0.4 0.3h-1.2c-0.2 0-0.3-0.1-0.3-0.3l0.1-0.5c0-0.1 0-0.2 0-0.3 0-0.6-0.3-1.1-0.9-1.7 -0.6-0.6-1.5-0.9-2.7-0.9 -1.2 0-2.4 0.5-3.5 1.6 -1.1 1-1.7 2.4-1.7 4.2 0 1.4 0.4 2.4 1.2 3.2 0.8 0.8 1.7 1.2 2.7 1.2 1 0 2-0.3 2.9-0.8 0.9-0.5 1.5-1 1.9-1.4 0.2-0.2 0.3-0.2 0.5-0.1l0.7 0.8c0.2 0.2 0.2 0.3 0 0.5s-0.4 0.4-0.7 0.7c-0.3 0.3-0.7 0.6-1.2 0.9C107.7 63.7 106.2 64.1 104.4 64.1zM127.2 63.9h-2.6c-0.7 0-1.1-0.3-1.1-0.9 0-0.1 0-0.2 0-0.3l1-7.3c0-0.3 0.1-0.5 0.1-0.8 0-0.7-0.1-1.3-0.4-1.7 -0.4-0.6-1.1-0.9-2.1-0.9 -1 0-2 0.5-2.9 1.6 -0.6 0.8-1.1 1.6-1.4 2.6l-0.8 5.8h1.5c0.2 0 0.3 0.1 0.3 0.3l-0.2 1.2c0 0.2-0.2 0.3-0.4 0.3h-5.3c-0.2 0-0.3-0.1-0.3-0.3l0.2-1.2c0-0.2 0.1-0.3 0.4-0.3h1.6l2.3-16.2h-1.5c-0.3 0-0.4-0.1-0.3-0.3l0.2-1.2c0-0.2 0.2-0.3 0.4-0.3h3.5c0.2 0 0.3 0.1 0.3 0.3l-0.9 6.3c-0.1 0.6-0.2 1.2-0.3 1.9s-0.2 1-0.2 1.1h0.1c0.1-0.2 0.2-0.6 0.5-1.1 0.3-0.5 0.6-0.9 0.9-1.2 0.3-0.3 0.8-0.6 1.4-0.8 0.6-0.3 1.3-0.4 2-0.4 1.5 0 2.6 0.4 3.3 1.3 0.6 0.7 0.8 1.5 0.8 2.6 0 0.3 0 0.6-0.1 0.9l-1 7.2h1.6c0.2 0 0.3 0.1 0.3 0.3l-0.2 1.2C127.6 63.8 127.5 63.9 127.2 63.9zM142.2 57.4h-10c0 0.2 0 0.5 0 0.7 0 1.2 0.4 2.2 1.1 2.9 0.7 0.8 1.6 1.2 2.8 1.2s2.1-0.2 3-0.7 1.5-1 1.8-1.4c0.2-0.2 0.3-0.2 0.5-0.1l0.7 0.7c0.2 0.2 0.2 0.3 0 0.5 -0.1 0.2-0.4 0.4-0.7 0.7 -0.3 0.3-0.7 0.6-1.2 0.9 -1.3 0.8-2.7 1.2-4.4 1.2s-3.1-0.5-4.2-1.6c-1.1-1.1-1.7-2.5-1.7-4.2 0-1.7 0.4-3.2 1.2-4.5 0.8-1.2 1.7-2.2 2.9-2.8 1.1-0.6 2.3-0.9 3.6-0.9 1.7 0 3 0.5 3.9 1.5 0.9 1 1.4 2.4 1.4 4.1C142.8 56.8 142.6 57.4 142.2 57.4zM140.6 55.2c0-0.9-0.3-1.7-0.8-2.3 -0.5-0.6-1.4-1-2.5-1s-2.1 0.3-3 0.9c-0.9 0.6-1.5 1.6-1.8 2.8h8C140.6 55.5 140.6 55.4 140.6 55.2zM155.8 63.9h-11.6c-0.2 0-0.3-0.1-0.3-0.3l0.2-1.1c0.1-0.4 0.2-0.7 0.6-0.9l10.3-9.4h-7.5l-0.3 2.1c0 0.2-0.2 0.3-0.4 0.3h-1.2c-0.2 0-0.3-0.1-0.3-0.3l0.5-3.7c0-0.2 0.2-0.3 0.4-0.3h11.6c0.2 0 0.3 0.1 0.3 0.2 0 0 0 0.1 0 0.1l-0.1 1c-0.1 0.4-0.2 0.6-0.5 0.9l-10.4 9.6h7.6l0.3-2.2c0-0.2 0.1-0.3 0.4-0.3h1.2c0.2 0 0.3 0.1 0.3 0.3l-0.5 3.7C156.2 63.8 156.1 63.9 155.8 63.9zM174.3 63.9h-6.7c-0.2 0-0.3-0.1-0.3-0.3l0.2-1.4c0-0.2 0.1-0.3 0.4-0.3h2.1l2.2-15.8h-2.1c-0.2 0-0.3-0.1-0.3-0.3l0.2-1.4c0-0.2 0.2-0.3 0.4-0.3h6.7c0.2 0 0.3 0.1 0.3 0.2 0 0 0 0.1 0 0.1l-0.2 1.4c0 0.2-0.2 0.3-0.4 0.3h-2.1l-2.2 15.8h2.1c0.2 0 0.3 0.1 0.3 0.3l-0.2 1.4C174.6 63.8 174.5 63.9 174.3 63.9zM182.1 64.1c-1.4 0-2.4-0.4-3.1-1.2 -0.5-0.6-0.8-1.4-0.8-2.4 0-0.3 0-0.7 0.1-1.1l1-7.3h-1.6c-0.3 0-0.4-0.1-0.3-0.4l0.2-1.1c0-0.2 0.2-0.4 0.4-0.4h1.6l0.4-2.8c0-0.3 0.2-0.4 0.4-0.4h1.6c0.3 0 0.4 0.1 0.3 0.4l-0.4 2.8h3.5c0.2 0 0.3 0.1 0.3 0.2 0 0 0 0.1 0 0.1l-0.1 1.1c0 0.2-0.2 0.4-0.4 0.4h-3.5l-1 7.2c0 0.3-0.1 0.5-0.1 0.8 0 1.4 0.7 2 2 2 0.6 0 1.1-0.2 1.6-0.6 0.2-0.1 0.4 0 0.5 0.1l0.6 0.9c0.1 0.2 0.1 0.3-0.2 0.5C184.2 63.8 183.2 64.1 182.1 64.1zM200.4 63.9H198c-0.7 0-1.1-0.3-1.1-0.9 0-0.1 0-0.2 0-0.3l0.2-1.4h-0.1c-1.6 1.9-3.5 2.8-5.8 2.8 -1.2 0-2.2-0.3-2.9-0.9 -0.7-0.6-1.1-1.4-1.1-2.5 0-1.7 0.7-2.9 2.2-3.7 1.5-0.8 3.4-1.2 5.9-1.2h2.3l0.1-0.3c0.1-0.3 0.1-0.6 0.1-0.9 0-1.7-1.1-2.6-3.2-2.6 -1.1 0-2 0.1-2.5 0.3 -0.5 0.2-0.9 0.4-1.1 0.5 -0.2 0.1-0.4 0.2-0.5 0.3 -0.1 0.1-0.2 0.1-0.2 0.1 -0.2 0.1-0.3 0-0.4-0.1l-0.6-1c-0.1-0.1-0.1-0.3 0.1-0.5 0.2-0.2 0.4-0.3 0.7-0.6 0.3-0.2 0.9-0.5 1.9-0.8 0.9-0.3 2-0.4 3.1-0.4 3.4 0 5.2 1.4 5.2 4.3 0 0.4 0 0.8-0.1 1.2l-0.9 6.4h1.6c0.2 0 0.3 0.1 0.3 0.3l-0.2 1.2C200.8 63.8 200.6 63.9 200.4 63.9zM195.2 57.5c-1.7 0-2.9 0.1-3.6 0.4 -0.7 0.2-1.2 0.6-1.5 0.9 -0.3 0.4-0.4 0.8-0.4 1.4 0 0.6 0.2 1 0.7 1.4 0.5 0.4 1.1 0.6 1.9 0.6 1.8 0 3.4-0.8 4.9-2.4l0.3-2.2H195.2zM208.4 63.9h-5.3c-0.2 0-0.3-0.1-0.3-0.3l0.2-1.2c0-0.2 0.1-0.3 0.4-0.3h1.6l2.3-16.2h-1.6c-0.3 0-0.4-0.1-0.3-0.3l0.2-1.2c0-0.2 0.2-0.3 0.4-0.3h3.1c0.5 0 0.7 0.2 0.7 0.5 0 0.1 0 0.1 0 0.2l-2.4 17.4h1.5c0.2 0 0.3 0.1 0.3 0.3l-0.2 1.2C208.8 63.8 208.6 63.9 208.4 63.9zM216.5 63.9h-5.3c-0.2 0-0.3-0.1-0.3-0.3l0.2-1.2c0-0.2 0.1-0.3 0.4-0.3h1.6l1.4-9.9h-1.6c-0.2 0-0.3-0.1-0.3-0.3l0.2-1.2c0-0.2 0.2-0.3 0.4-0.3h3.5c0.2 0 0.3 0.1 0.3 0.3l-1.6 11.5h1.5c0.2 0 0.3 0.1 0.3 0.3l-0.2 1.2C216.9 63.8 216.8 63.9 216.5 63.9zM216.3 45.7c0.4 0 0.8 0.1 1 0.4 0.3 0.3 0.4 0.6 0.4 1s-0.2 0.8-0.6 1.2c-0.4 0.3-0.8 0.5-1.2 0.5 -0.4 0-0.8-0.1-1-0.4 -0.2-0.3-0.4-0.6-0.4-1s0.2-0.8 0.5-1.2C215.5 45.9 215.9 45.7 216.3 45.7zM225.5 64.1c-1.8 0-3.2-0.5-4.3-1.6 -1.1-1.1-1.7-2.6-1.7-4.4 0-2.4 0.8-4.4 2.3-5.8 1.6-1.5 3.3-2.2 5.3-2.2s3.4 0.7 4.1 2.1h0l0.2-1.5c0-0.2 0.2-0.4 0.4-0.4h1.1c0.2 0 0.3 0.1 0.3 0.4l-0.7 4.7c0 0.2-0.2 0.3-0.4 0.3H231c-0.2 0-0.3-0.1-0.3-0.3l0.1-0.5c0-0.1 0-0.2 0-0.3 0-0.6-0.3-1.1-0.9-1.7 -0.6-0.6-1.5-0.9-2.7-0.9 -1.2 0-2.4 0.5-3.5 1.6 -1.1 1-1.7 2.4-1.7 4.2 0 1.4 0.4 2.4 1.2 3.2 0.8 0.8 1.7 1.2 2.7 1.2s2-0.3 2.9-0.8c0.9-0.5 1.5-1 1.9-1.4 0.2-0.2 0.3-0.2 0.5-0.1l0.7 0.8c0.2 0.2 0.2 0.3 0 0.5 -0.2 0.2-0.4 0.4-0.7 0.7 -0.3 0.3-0.7 0.6-1.2 0.9C228.7 63.7 227.2 64.1 225.5 64.1z"/></a><a xlink:href="https://www.myfonts.com/fonts/marksimonson/proxima-nova/webfont_preview.html" xlink:show="new"><path fill="#FFFFFF" d="M-0.3 93.1V76.9h6.5c3.3 0 5.1 2.2 5.1 4.9 0 2.6-1.8 4.9-5.1 4.9H1.7v6.4H-0.3zM9.2 81.8c0-1.8-1.3-3.1-3.2-3.1H1.7v6.2H6C7.9 84.8 9.2 83.6 9.2 81.8zM13.9 93.1V81.3h1.8v1.9c0.9-1.2 2.3-2.1 3.9-2.1v1.9c-0.2 0-0.4 0-0.7 0 -1.1 0-2.7 0.9-3.2 1.9v8.3H13.9zM21.2 87.2c0-3.4 2.2-6.1 5.8-6.1s5.8 2.7 5.8 6.1 -2.2 6.2-5.8 6.2S21.2 90.6 21.2 87.2zM30.9 87.2c0-2.4-1.4-4.5-3.9-4.5s-3.9 2.1-3.9 4.5c0 2.4 1.4 4.5 3.9 4.5S30.9 89.6 30.9 87.2zM42.5 93.1L39 88.3l-3.5 4.8h-2.1l4.5-6 -4.2-5.7h2.1l3.3 4.5 3.3-4.5h2.1L40.1 87l4.5 6H42.5zM46.4 78.5c0-0.7 0.6-1.2 1.2-1.2s1.2 0.6 1.2 1.2 -0.5 1.2-1.2 1.2S46.4 79.1 46.4 78.5zM46.7 93.1V81.3h1.8v11.7H46.7zM66.3 93.1v-8c0-1.5-0.6-2.4-2.2-2.4 -1.2 0-2.5 0.8-3.1 1.8v8.6h-1.8v-8c0-1.5-0.6-2.4-2.2-2.4 -1.2 0-2.5 0.9-3.1 1.8v8.6h-1.8V81.3H54V83c0.5-0.8 2.1-2 3.8-2 1.8 0 2.8 1 3.1 2.2 0.7-1.1 2.2-2.2 3.9-2.2 2.1 0 3.3 1.2 3.3 3.5v8.5H66.3zM79.1 93.1v-1.3c-0.9 1.1-2.3 1.6-3.9 1.6 -2 0-4.1-1.3-4.1-3.9 0-2.6 2.1-3.9 4.1-3.9 1.6 0 2.9 0.5 3.9 1.6v-2.1c0-1.6-1.3-2.5-3-2.5 -1.4 0-2.5 0.5-3.6 1.6L71.7 83c1.3-1.3 2.8-1.9 4.7-1.9 2.5 0 4.5 1.1 4.5 4v8.1H79.1zM79.1 90.6v-2.2c-0.7-0.9-1.9-1.4-3.2-1.4 -1.7 0-2.9 1.1-2.9 2.5 0 1.5 1.2 2.6 2.9 2.6C77.2 92 78.4 91.6 79.1 90.6zM102.4 93.1L93 80.2v12.9h-2V76.9H93l9.3 12.6V76.9h2v16.2H102.4zM107.4 87.2c0-3.4 2.2-6.1 5.8-6.1 3.6 0 5.8 2.7 5.8 6.1s-2.2 6.2-5.8 6.2C109.7 93.4 107.4 90.6 107.4 87.2zM117.1 87.2c0-2.4-1.4-4.5-3.9-4.5 -2.5 0-3.9 2.1-3.9 4.5 0 2.4 1.4 4.5 3.9 4.5C115.7 91.7 117.1 89.6 117.1 87.2zM125.1 93.1l-4.9-11.7h2l3.9 9.6 3.9-9.6h2l-4.9 11.7H125.1zM141.2 93.1v-1.3c-0.9 1.1-2.3 1.6-3.9 1.6 -2 0-4.1-1.3-4.1-3.9 0-2.6 2.1-3.9 4.1-3.9 1.6 0 2.9 0.5 3.9 1.6v-2.1c0-1.6-1.3-2.5-3-2.5 -1.4 0-2.5 0.5-3.6 1.6l-0.8-1.3c1.3-1.3 2.8-1.9 4.7-1.9 2.5 0 4.5 1.1 4.5 4v8.1H141.2zM141.2 90.6v-2.2c-0.7-0.9-1.9-1.4-3.2-1.4 -1.7 0-2.9 1.1-2.9 2.5 0 1.5 1.2 2.6 2.9 2.6C139.3 92 140.5 91.6 141.2 90.6zM162.4 93.1l-4.1-6.4h-3.3v6.4h-2V76.9h6.5c3 0 5.1 1.9 5.1 4.9 0 2.9-2 4.5-4.2 4.7l4.4 6.6H162.4zM162.6 81.8c0-1.8-1.3-3.1-3.3-3.1h-4.2v6.2h4.2C161.2 84.9 162.6 83.6 162.6 81.8zM166.4 87.2c0-3.4 2.4-6.1 5.8-6.1 3.5 0 5.6 2.8 5.6 6.3v0.5h-9.5c0.1 2.2 1.7 4.1 4.2 4.1 1.4 0 2.7-0.5 3.6-1.5l0.9 1.2c-1.2 1.2-2.8 1.8-4.7 1.8C168.9 93.4 166.4 90.9 166.4 87.2zM172.1 82.6c-2.5 0-3.7 2.1-3.8 3.9h7.7C176 84.7 174.8 82.6 172.1 82.6zM180.7 96.1l0.9-1.3c1 1.1 2.1 1.6 3.8 1.6 1.9 0 3.8-0.9 3.8-3.4v-1.8c-0.9 1.2-2.3 2.1-4 2.1 -3.1 0-5.2-2.3-5.2-6.1 0-3.8 2.1-6.1 5.2-6.1 1.6 0 3 0.8 4 2.1v-1.8h1.8v11.6c0 3.7-2.7 4.9-5.6 4.9C183.5 97.8 182.1 97.4 180.7 96.1zM189.2 89.7v-5.1c-0.7-1-2.1-1.9-3.5-1.9 -2.4 0-3.8 1.9-3.8 4.5 0 2.6 1.4 4.4 3.8 4.4C187.2 91.6 188.6 90.7 189.2 89.7zM202.6 93.1v-1.7c-0.9 1-2.4 1.9-4.2 1.9 -2.5 0-3.7-1.2-3.7-3.7v-8.3h1.8v7.7c0 2.1 1 2.7 2.6 2.7 1.4 0 2.8-0.8 3.4-1.8v-8.6h1.8v11.7H202.6zM208.1 93.1V76.9h1.8v16.2H208.1zM220.9 93.1v-1.3c-0.9 1.1-2.3 1.6-3.9 1.6 -2 0-4.1-1.3-4.1-3.9 0-2.6 2.1-3.9 4.1-3.9 1.6 0 2.9 0.5 3.9 1.6v-2.1c0-1.6-1.3-2.5-3-2.5 -1.4 0-2.5 0.5-3.6 1.6l-0.8-1.3c1.3-1.3 2.8-1.9 4.7-1.9 2.5 0 4.5 1.1 4.5 4v8.1H220.9zM220.9 90.6v-2.2c-0.7-0.9-1.9-1.4-3.2-1.4 -1.7 0-2.9 1.1-2.9 2.5 0 1.5 1.2 2.6 2.9 2.6C218.9 92 220.2 91.6 220.9 90.6zM226.4 93.1V81.3h1.8v1.9c0.9-1.2 2.3-2.1 3.9-2.1v1.9c-0.2 0-0.4 0-0.7 0 -1.1 0-2.7 0.9-3.2 1.9v8.3H226.4z"/></a></svg>