<svg xmlns="http://www.w3.org/2000/svg" xmlns:xlink="http://www.w3.org/1999/xlink" version="1.2" baseProfile="tiny" x="0" y="0" viewBox="-116.8 50 233.6 100" xml:space="preserve"><text transform="matrix(1 0 0 1 7.1079 13.5215)" opacity="0">x</text><a xlink:href="https://www.google.com/fonts/specimen/Source+Sans+Pro" xlink:show="new"><path fill="#555555" d="M-116.3 76.1c1.1 1.3 2.7 2.1 4.5 2.1 2.4 0 3.9-1.3 3.9-3.2 0-2-1.3-2.6-2.8-3.3l-2.3-1c-1.3-0.6-3-1.4-3-3.7 0-2.1 1.8-3.6 4.2-3.6 1.8 0 3.2 0.8 4.1 1.8l-0.5 0.5c-0.9-0.9-2.1-1.6-3.6-1.6 -2.1 0-3.5 1.1-3.5 2.8 0 1.9 1.6 2.6 2.6 3l2.3 1c1.6 0.7 3.2 1.6 3.2 3.9 0 2.3-1.9 3.9-4.6 3.9 -2.2 0-3.8-0.9-5-2.3L-116.3 76.1zM-100.3 67.5c2.6 0 4.8 2.1 4.8 5.7 0 3.6-2.2 5.6-4.8 5.6 -2.6 0-4.8-2.1-4.8-5.6C-105.1 69.6-102.9 67.5-100.3 67.5zM-100.3 78.2c2.3 0 4.1-2 4.1-5 0-3-1.8-5.1-4.1-5.1 -2.3 0-4.1 2.1-4.1 5.1C-104.4 76.1-102.6 78.2-100.3 78.2zM-92.3 67.7h0.7v6.9c0 2.4 0.8 3.6 2.6 3.6 1.4 0 2.3-0.7 3.7-2.3v-8.1h0.7v10.8h-0.6l-0.1-1.9h0c-1.1 1.3-2.2 2.1-3.7 2.1 -2.2 0-3.3-1.3-3.3-4.1V67.7zM-80.3 67.7h0.6l0.1 2h0c0.7-1.3 1.8-2.3 3.1-2.3 0.4 0 0.7 0 1 0.2l-0.2 0.6c-0.4-0.1-0.5-0.2-0.9-0.2 -1 0-2.2 0.8-3 2.9v7.5h-0.7V67.7zM-69.8 67.5c1.5 0 2.4 0.7 3.2 1.4l-0.5 0.5c-0.7-0.7-1.6-1.2-2.7-1.2 -2.3 0-4.1 2.1-4.1 5.1 0 3 1.6 5 4.1 5 1.2 0 2.3-0.6 3-1.3l0.4 0.5c-0.9 0.8-2 1.4-3.4 1.4 -2.8 0-4.8-2.1-4.8-5.6C-74.6 69.6-72.3 67.5-69.8 67.5zM-60.2 67.5c2.5 0 4.1 1.8 4.1 5 0 0.2 0 0.5 0 0.7h-7.9c0 2.9 1.7 5 4.2 5 1.2 0 2.2-0.4 3-1l0.3 0.6c-0.8 0.5-1.7 1-3.3 1 -2.7 0-4.9-2.1-4.9-5.6C-64.9 69.6-62.6 67.5-60.2 67.5zM-56.9 72.6c0-3-1.4-4.5-3.4-4.5 -1.9 0-3.7 1.7-3.9 4.5H-56.9zM-49.4 76.1c1.1 1.3 2.7 2.1 4.5 2.1 2.4 0 3.9-1.3 3.9-3.2 0-2-1.3-2.6-2.8-3.3l-2.3-1c-1.3-0.6-3-1.4-3-3.7 0-2.1 1.8-3.6 4.2-3.6 1.8 0 3.2 0.8 4.1 1.8l-0.5 0.5c-0.9-0.9-2.1-1.6-3.6-1.6 -2.1 0-3.5 1.1-3.5 2.8 0 1.9 1.6 2.6 2.6 3l2.3 1c1.6 0.7 3.2 1.6 3.2 3.9 0 2.3-1.9 3.9-4.6 3.9 -2.2 0-3.8-0.9-5-2.3L-49.4 76.1zM-30.8 71.8c0-1.8-0.4-3.7-2.7-3.7 -1.5 0-2.8 0.8-3.5 1.3l-0.4-0.5c0.7-0.5 2.2-1.4 3.9-1.4 2.5 0 3.3 1.9 3.3 4.1v7h-0.6l-0.1-1.4h0c-1.1 0.9-2.5 1.7-3.9 1.7 -1.7 0-3.1-0.9-3.1-2.9C-37.9 73.5-35.6 72.4-30.8 71.8zM-34.7 78.2c1.3 0 2.5-0.6 3.9-1.9v-3.9c-4.7 0.5-6.4 1.6-6.4 3.5C-37.1 77.5-36 78.2-34.7 78.2zM-26.1 67.7h0.6l0.1 1.7h0c1.1-1.1 2.3-2 3.7-2 2.2 0 3.3 1.3 3.3 4.1v7H-19v-6.9c0-2.4-0.8-3.6-2.6-3.6 -1.4 0-2.3 0.7-3.7 2.2v8.3h-0.7V67.7zM-15.2 76.8c0.9 0.8 1.9 1.4 3.5 1.4 1.8 0 2.8-1.1 2.8-2.3 0-1.4-1.4-2.1-2.7-2.5 -1.7-0.6-3.5-1.2-3.5-3.1 0-1.5 1.2-2.8 3.4-2.8 1.1 0 2.2 0.5 3 1.1l-0.4 0.5c-0.7-0.5-1.5-1-2.6-1 -1.8 0-2.6 1.1-2.6 2.1 0 1.3 1.3 1.8 2.6 2.3 1.7 0.7 3.6 1.2 3.6 3.3 0 1.6-1.3 3-3.5 3 -1.6 0-3-0.7-3.9-1.5L-15.2 76.8zM-0.7 63.6h3.9c3.3 0 5.2 1.1 5.2 4.1 0 2.8-1.9 4.2-5.2 4.2H0v6.6h-0.7V63.6zM2.9 71.3c3.2 0 4.7-1 4.7-3.6 0-2.6-1.5-3.4-4.7-3.4H0v7H2.9zM11.6 67.7h0.6l0.1 2h0c0.7-1.3 1.8-2.3 3.1-2.3 0.4 0 0.7 0 1 0.2l-0.2 0.6c-0.4-0.1-0.5-0.2-0.9-0.2 -1 0-2.2 0.8-3 2.9v7.5h-0.7V67.7zM22.1 67.5c2.6 0 4.8 2.1 4.8 5.7 0 3.6-2.2 5.6-4.8 5.6 -2.6 0-4.8-2.1-4.8-5.6C17.3 69.6 19.5 67.5 22.1 67.5zM22.1 78.2c2.3 0 4.1-2 4.1-5 0-3-1.8-5.1-4.1-5.1 -2.3 0-4.1 2.1-4.1 5.1C18 76.1 19.8 78.2 22.1 78.2zM34.7 63.6h8v0.6h-7.3v6h6.1v0.6h-6.1v7h7.5v0.6h-8.2V63.6zM47.9 72.9l-3.4-5.1h0.8l1.9 2.9c0.4 0.6 0.8 1.2 1.2 1.8h0.1c0.4-0.6 0.8-1.2 1.2-1.8l1.8-2.9h0.7l-3.4 5.2 3.7 5.6h-0.8l-2-3.1c-0.4-0.7-0.9-1.4-1.3-2h-0.1c-0.5 0.6-0.9 1.3-1.3 2l-2 3.1h-0.7L47.9 72.9zM55.1 68.4h-1.7v-0.5l1.7-0.1 0.1-3.2h0.6v3.2H59v0.6h-3.2v7.4c0 1.4 0.3 2.4 1.9 2.4 0.4 0 1-0.2 1.4-0.4l0.2 0.6c-0.6 0.2-1.3 0.4-1.7 0.4 -2 0-2.5-1.3-2.5-3.1V68.4zM61.7 67.7h0.6l0.1 2h0c0.7-1.3 1.8-2.3 3.1-2.3 0.4 0 0.7 0 1 0.2l-0.2 0.6c-0.4-0.1-0.5-0.2-0.9-0.2 -1 0-2.2 0.8-3 2.9v7.5h-0.7V67.7zM74.6 71.8c0-1.8-0.4-3.7-2.7-3.7 -1.5 0-2.8 0.8-3.5 1.3L68 68.9c0.7-0.5 2.2-1.4 3.9-1.4 2.5 0 3.3 1.9 3.3 4.1v7h-0.6l-0.1-1.4h0c-1.1 0.9-2.5 1.7-3.9 1.7 -1.7 0-3.1-0.9-3.1-2.9C67.5 73.5 69.7 72.4 74.6 71.8zM70.6 78.2c1.3 0 2.5-0.6 3.9-1.9v-3.9c-4.7 0.5-6.4 1.6-6.4 3.5C68.2 77.5 69.3 78.2 70.6 78.2zM79.3 62.2h0.7v15.3c0 0.5 0.2 0.7 0.5 0.7 0.1 0 0.2 0 0.4 0l0.1 0.6c-0.2 0-0.3 0.1-0.6 0.1 -0.7 0-1.1-0.4-1.1-1.4V62.2zM84.1 64.2c0-0.5 0.4-0.8 0.8-0.8 0.4 0 0.8 0.3 0.8 0.8 0 0.5-0.4 0.8-0.8 0.8C84.4 65 84.1 64.7 84.1 64.2zM84.5 67.7h0.7v10.8h-0.7V67.7zM90.1 78.1L90.1 78.1c-0.5-0.4-0.9-1-0.9-1.8 0-1 0.7-1.7 1.2-2v-0.1c-0.7-0.6-1.4-1.7-1.4-3 0-2.2 1.6-3.8 3.7-3.8 0.6 0 1.1 0.1 1.4 0.3h3.6v0.6h-2.6c0.8 0.6 1.3 1.7 1.3 2.9 0 2.2-1.6 3.8-3.7 3.8 -0.6 0-1.4-0.2-1.9-0.5 -0.5 0.4-0.9 0.9-0.9 1.7 0 0.8 0.5 1.5 2.1 1.5h2.4c2.4 0 3.5 0.8 3.5 2.4 0 1.8-1.9 3.6-5 3.6 -2.8 0-4.4-1.2-4.4-3C88.5 79.8 89.2 78.9 90.1 78.1zM93 83.2c2.6 0 4.2-1.5 4.2-2.9 0-1.3-0.9-1.8-2.6-1.8h-2.5c-0.1 0-0.7 0-1.3-0.2 -1.1 0.7-1.5 1.6-1.5 2.4C89.2 82.2 90.6 83.2 93 83.2zM95.7 71.3c0-1.9-1.4-3.2-3-3.2 -1.6 0-3 1.2-3 3.2 0 1.9 1.4 3.2 3 3.2S95.7 73.2 95.7 71.3zM100.3 62.2h0.7v4.8 2.4c1.2-1.2 2.3-2 3.8-2 2.2 0 3.3 1.3 3.3 4.1v7h-0.7v-6.9c0-2.4-0.8-3.6-2.6-3.6 -1.4 0-2.3 0.7-3.7 2.2v8.3h-0.7V62.2zM112.3 68.4h-1.7v-0.5l1.7-0.1 0.1-3.2h0.6v3.2h3.2v0.6H113v7.4c0 1.4 0.3 2.4 1.9 2.4 0.4 0 1-0.2 1.4-0.4l0.2 0.6c-0.6 0.2-1.3 0.4-1.7 0.4 -2 0-2.5-1.3-2.5-3.1V68.4zM-79.2 102.9c1.1 1.2 2.6 2 4.4 2 2.3 0 3.7-1.2 3.7-3 0-1.9-1.2-2.5-2.7-3.1l-2.3-1c-1.3-0.6-3-1.5-3-3.7 0-2.1 1.9-3.7 4.3-3.7 1.8 0 3.3 0.8 4.2 1.8l-0.6 0.7c-0.9-0.9-2.1-1.5-3.5-1.5 -2 0-3.3 1-3.3 2.7 0 1.7 1.5 2.4 2.6 2.9l2.3 1c1.6 0.7 3.1 1.7 3.1 4 0 2.3-1.9 4-4.8 4 -2.2 0-3.8-0.9-5-2.2L-79.2 102.9zM-63.2 94.5c2.6 0 4.9 2.1 4.9 5.7 0 3.6-2.3 5.7-4.9 5.7 -2.6 0-4.9-2.1-4.9-5.7C-68.1 96.6-65.8 94.5-63.2 94.5zM-63.2 105c2.2 0 3.8-1.9 3.8-4.8 0-2.9-1.6-4.8-3.8-4.8 -2.2 0-3.8 2-3.8 4.8C-67.1 103.1-65.4 105-63.2 105zM-55.3 94.8h1v6.8c0 2.3 0.7 3.4 2.5 3.4 1.3 0 2.2-0.7 3.5-2.2v-8h1v10.8h-0.8l-0.1-1.8h0c-1.1 1.2-2.2 2.1-3.7 2.1 -2.2 0-3.3-1.4-3.3-4.2V94.8zM-43.2 94.8h0.9l0.1 2h0.1c0.7-1.3 1.8-2.3 3.1-2.3 0.4 0 0.7 0 1.1 0.2l-0.2 0.9c-0.4-0.1-0.6-0.2-1-0.2 -1 0-2.1 0.7-3 2.8v7.4h-1V94.8zM-32.2 94.5c1.5 0 2.5 0.7 3.2 1.3l-0.6 0.7c-0.7-0.7-1.5-1.2-2.6-1.2 -2.2 0-3.9 2-3.9 4.8 0 2.8 1.6 4.8 3.9 4.8 1.2 0 2.1-0.6 2.9-1.2l0.5 0.7c-0.9 0.8-2.1 1.4-3.5 1.4 -2.8 0-4.9-2.1-4.9-5.7C-37.2 96.6-34.9 94.5-32.2 94.5zM-22.7 94.5c2.6 0 4.2 1.8 4.2 5 0 0.3 0 0.5 0 0.8h-7.8c0 2.7 1.6 4.7 4.1 4.7 1.2 0 2.1-0.4 2.9-1l0.4 0.8c-0.9 0.5-1.8 1.1-3.4 1.1 -2.8 0-5-2.1-5-5.7C-27.4 96.7-25.1 94.5-22.7 94.5zM-19.5 99.6c0-2.8-1.2-4.2-3.2-4.2 -1.9 0-3.5 1.6-3.7 4.2H-19.5zM-11.6 102.9c1.1 1.2 2.6 2 4.4 2 2.3 0 3.7-1.2 3.7-3 0-1.9-1.2-2.5-2.7-3.1l-2.3-1c-1.3-0.6-3-1.5-3-3.7 0-2.1 1.9-3.7 4.3-3.7 1.8 0 3.3 0.8 4.2 1.8L-3.6 93c-0.9-0.9-2.1-1.5-3.5-1.5 -2 0-3.3 1-3.3 2.7 0 1.7 1.5 2.4 2.6 2.9l2.3 1c1.6 0.7 3.1 1.7 3.1 4 0 2.3-1.9 4-4.8 4 -2.2 0-3.8-0.9-5-2.2L-11.6 102.9zM6.9 98.8c0-1.6-0.4-3.4-2.6-3.4 -1.5 0-2.7 0.7-3.5 1.3l-0.5-0.7c0.8-0.5 2.3-1.4 4-1.4 2.6 0 3.4 1.9 3.4 4.2v6.9H7l-0.1-1.4h0c-1.1 0.9-2.4 1.7-3.8 1.7 -1.7 0-3.2-0.9-3.2-3C-0.1 100.5 2.1 99.4 6.9 98.8zM3.2 105c1.2 0 2.3-0.6 3.7-1.8v-3.7c-4.4 0.5-6 1.6-6 3.3C0.9 104.4 2 105 3.2 105zM11.7 94.8h0.9l0.1 1.7h0.1c1.1-1.1 2.2-1.9 3.7-1.9 2.2 0 3.3 1.4 3.3 4.2v7h-1v-6.8c0-2.3-0.7-3.4-2.5-3.4 -1.3 0-2.2 0.7-3.5 2v8.2h-1V94.8zM23 103.7c0.9 0.8 1.9 1.4 3.5 1.4 1.7 0 2.6-1 2.6-2.1 0-1.4-1.4-1.9-2.6-2.4 -1.6-0.6-3.5-1.2-3.5-3.1 0-1.6 1.2-2.9 3.5-2.9 1.2 0 2.3 0.5 3.1 1.1L29 96.3c-0.7-0.5-1.5-1-2.6-1 -1.7 0-2.4 1-2.4 2 0 1.2 1.3 1.7 2.6 2.2 1.7 0.6 3.5 1.2 3.5 3.3 0 1.6-1.3 3-3.7 3 -1.6 0-3-0.7-4-1.5L23 103.7zM37.4 90.7h4.1c3.3 0 5.3 1.1 5.3 4.2 0 2.9-2 4.3-5.3 4.3h-3v6.4h-1V90.7zM41.2 98.4c3 0 4.5-1 4.5-3.5 0-2.5-1.5-3.3-4.5-3.3h-2.8v6.7H41.2zM49.8 94.8h0.9l0.1 2h0.1c0.7-1.3 1.8-2.3 3.1-2.3 0.4 0 0.7 0 1.1 0.2l-0.2 0.9c-0.4-0.1-0.6-0.2-1-0.2 -1 0-2.1 0.7-3 2.8v7.4h-1V94.8zM60.7 94.5c2.6 0 4.9 2.1 4.9 5.7 0 3.6-2.3 5.7-4.9 5.7 -2.6 0-4.9-2.1-4.9-5.7C55.8 96.6 58.1 94.5 60.7 94.5zM60.7 105c2.2 0 3.8-1.9 3.8-4.8 0-2.9-1.6-4.8-3.8-4.8s-3.8 2-3.8 4.8C56.9 103.1 58.5 105 60.7 105zM73.4 90.7h1v14h6.8v0.9h-7.9V90.7zM83.3 91.3c0-0.6 0.4-0.9 0.9-0.9 0.5 0 0.9 0.3 0.9 0.9 0 0.5-0.4 0.9-0.9 0.9C83.7 92.2 83.3 91.8 83.3 91.3zM83.7 94.8h1v10.8h-1V94.8zM89.6 105.2L89.6 105.2c-0.5-0.4-0.9-1-0.9-1.8 0-1 0.7-1.6 1.2-2v-0.1c-0.7-0.6-1.4-1.7-1.4-3 0-2.2 1.7-3.8 3.8-3.8 0.6 0 1.1 0.1 1.4 0.3h3.7v0.8h-2.5c0.7 0.6 1.2 1.6 1.2 2.7 0 2.2-1.6 3.8-3.8 3.8 -0.6 0-1.3-0.2-1.8-0.5 -0.5 0.4-0.9 0.8-0.9 1.6 0 0.8 0.5 1.4 2.1 1.4H94c2.4 0 3.6 0.8 3.6 2.5 0 1.9-2 3.7-5.1 3.7 -2.7 0-4.4-1.2-4.4-3C88 106.9 88.6 105.9 89.6 105.2zM92.5 110c2.4 0 4-1.4 4-2.7 0-1.2-0.9-1.6-2.5-1.6h-2.3c-0.2 0-0.8 0-1.4-0.2 -1 0.7-1.4 1.5-1.4 2.3C88.9 109.1 90.2 110 92.5 110zM95 98.3c0-1.8-1.3-3-2.8-3 -1.5 0-2.8 1.2-2.8 3 0 1.8 1.3 3 2.8 3C93.7 101.4 95 100.2 95 98.3zM99.9 89.4h1v4.7 2.4c1.1-1.1 2.3-2 3.7-2 2.2 0 3.3 1.4 3.3 4.2v7h-1v-6.8c0-2.3-0.7-3.4-2.5-3.4 -1.3 0-2.2 0.7-3.5 2v8.2h-1V89.4zM112 95.6h-1.7v-0.8l1.7-0.1 0.1-3.1h0.9v3.1h3.1v0.9H113v7.1c0 1.4 0.3 2.3 1.8 2.3 0.4 0 1-0.2 1.4-0.3l0.3 0.8c-0.6 0.2-1.3 0.4-1.8 0.4 -2.1 0-2.7-1.3-2.7-3.3V95.6zM-110.5 129.5c1.1 1.1 2.5 1.9 4.1 1.9 1.9 0 3.1-1 3.1-2.4 0-1.5-1.1-2-2.5-2.6l-2.1-0.9c-1.4-0.6-3-1.6-3-3.8 0-2.3 2-3.9 4.7-3.9 1.8 0 3.3 0.7 4.4 1.8l-1 1.2c-0.9-0.9-2-1.4-3.4-1.4 -1.7 0-2.8 0.8-2.8 2.2 0 1.4 1.3 2 2.5 2.5l2.1 0.9c1.7 0.7 3 1.8 3 4 0 2.3-1.9 4.2-5.1 4.2 -2.1 0-3.9-0.9-5.2-2.2L-110.5 129.5zM-94.5 121.5c2.7 0 5.1 2.1 5.1 5.8 0 3.6-2.4 5.7-5.1 5.7 -2.7 0-5.1-2.1-5.1-5.7C-99.6 123.6-97.2 121.5-94.5 121.5zM-94.5 131.4c1.9 0 3.2-1.7 3.2-4.2 0-2.5-1.3-4.2-3.2-4.2 -1.9 0-3.2 1.7-3.2 4.2C-97.7 129.7-96.4 131.4-94.5 131.4zM-86.7 121.7h1.9v6.7c0 2.1 0.6 2.9 2.1 2.9 1.1 0 1.9-0.6 3-1.9v-7.8h1.9v11h-1.5l-0.2-1.7h-0.1c-1 1.2-2.1 2-3.6 2 -2.3 0-3.4-1.5-3.4-4.3V121.7zM-74.3 121.7h1.5l0.2 2h0.1c0.7-1.4 1.9-2.3 3.1-2.3 0.5 0 0.8 0.1 1.2 0.2l-0.4 1.6c-0.4-0.1-0.6-0.2-1.1-0.2 -0.9 0-2 0.7-2.8 2.5v7h-1.9V121.7zM-62.2 121.5c1.4 0 2.5 0.6 3.2 1.3l-0.9 1.2c-0.7-0.6-1.3-1-2.2-1 -2 0-3.4 1.7-3.4 4.2 0 2.5 1.4 4.2 3.4 4.2 1 0 1.9-0.5 2.6-1.1l0.8 1.2c-1 0.9-2.3 1.4-3.6 1.4 -2.9 0-5.1-2.1-5.1-5.7C-67.5 123.6-65 121.5-62.2 121.5zM-52.7 121.5c2.8 0 4.4 2 4.4 5.1 0 0.4 0 0.7-0.1 1h-7.4c0.1 2.4 1.6 3.9 3.7 3.9 1 0 1.9-0.3 2.7-0.9l0.7 1.2c-0.9 0.6-2.1 1.1-3.6 1.1 -2.9 0-5.3-2.1-5.3-5.7C-57.6 123.7-55.2 121.5-52.7 121.5zM-50 126.4c0-2.2-1-3.5-2.7-3.5 -1.5 0-2.9 1.3-3.2 3.5H-50zM-40.9 129.5c1.1 1.1 2.5 1.9 4.1 1.9 1.9 0 3.1-1 3.1-2.4 0-1.5-1.1-2-2.5-2.6l-2.1-0.9c-1.4-0.6-3-1.6-3-3.8 0-2.3 2-3.9 4.7-3.9 1.8 0 3.3 0.7 4.4 1.8l-1 1.2c-0.9-0.9-2-1.4-3.4-1.4 -1.7 0-2.8 0.8-2.8 2.2 0 1.4 1.3 2 2.5 2.5l2.1 0.9c1.7 0.7 3 1.8 3 4 0 2.3-1.9 4.2-5.1 4.2 -2.1 0-3.9-0.9-5.2-2.2L-40.9 129.5zM-22.9 125.7c0-1.4-0.5-2.8-2.3-2.8 -1.3 0-2.4 0.6-3.3 1.2l-0.7-1.3c1-0.7 2.6-1.4 4.3-1.4 2.7 0 3.8 1.8 3.8 4.5v6.7h-1.5l-0.2-1.3h0c-1.1 0.9-2.3 1.6-3.6 1.6 -1.9 0-3.2-1.2-3.2-3.1C-29.7 127.5-27.6 126.3-22.9 125.7zM-25.9 131.5c1.1 0 1.9-0.5 3-1.5v-3c-3.7 0.5-4.9 1.4-4.9 2.8C-27.9 131-27 131.5-25.9 131.5zM-17.6 121.7h1.5l0.2 1.6h0.1c1-1 2.2-1.9 3.7-1.9 2.3 0 3.3 1.5 3.3 4.3v7h-1.9V126c0-2.1-0.6-2.9-2.1-2.9 -1.1 0-1.9 0.6-3 1.7v7.9h-1.9V121.7zM-5.5 130.2c0.9 0.8 1.9 1.3 3.2 1.3 1.4 0 2.2-0.8 2.2-1.7 0-1.1-1.3-1.6-2.5-2.1 -1.6-0.6-3.3-1.3-3.3-3.2 0-1.8 1.4-3.1 3.8-3.1 1.4 0 2.6 0.6 3.4 1.2l-0.9 1.2c-0.7-0.6-1.5-1-2.5-1 -1.4 0-2 0.7-2 1.6 0 1 1.2 1.4 2.4 1.9 1.6 0.6 3.3 1.2 3.3 3.3 0 1.8-1.4 3.3-4 3.3 -1.6 0-3-0.7-4.1-1.5L-5.5 130.2zM8.9 117.9h4.6c3.3 0 5.5 1.1 5.5 4.4 0 3.1-2.2 4.6-5.5 4.6h-2.7v5.9H8.9V117.9zM13.2 125.3c2.6 0 3.8-0.9 3.8-3 0-2.1-1.3-2.8-3.8-2.8h-2.4v5.9H13.2zM21.7 121.7h1.5l0.2 2h0.1c0.7-1.4 1.9-2.3 3.1-2.3 0.5 0 0.8 0.1 1.2 0.2l-0.4 1.6c-0.4-0.1-0.6-0.2-1.1-0.2 -0.9 0-2 0.7-2.8 2.5v7h-1.9V121.7zM33.5 121.5c2.7 0 5.1 2.1 5.1 5.8 0 3.6-2.4 5.7-5.1 5.7s-5.1-2.1-5.1-5.7C28.4 123.6 30.8 121.5 33.5 121.5zM33.5 131.4c1.9 0 3.2-1.7 3.2-4.2 0-2.5-1.3-4.2-3.2-4.2 -1.9 0-3.2 1.7-3.2 4.2C30.4 129.7 31.7 131.4 33.5 131.4zM54.3 132.7l-3.6-6.3h-2.7v6.3h-1.9v-14.8h4.6c3 0 5.2 1.1 5.2 4.2 0 2.3-1.3 3.7-3.3 4.2l3.8 6.5H54.3zM48.1 124.9h2.5c2.3 0 3.6-0.9 3.6-2.9 0-1.9-1.3-2.6-3.6-2.6h-2.5V124.9zM62.9 121.5c2.8 0 4.4 2 4.4 5.1 0 0.4 0 0.7-0.1 1h-7.4c0.1 2.4 1.6 3.9 3.7 3.9 1 0 1.9-0.3 2.7-0.9l0.7 1.2c-0.9 0.6-2.1 1.1-3.6 1.1 -2.9 0-5.3-2.1-5.3-5.7C58 123.7 60.4 121.5 62.9 121.5zM65.7 126.4c0-2.2-1-3.5-2.7-3.5 -1.5 0-2.9 1.3-3.2 3.5H65.7zM70.6 132.3L70.6 132.3c-0.5-0.4-1-1-1-1.9 0-0.9 0.6-1.6 1.2-2v-0.1c-0.7-0.6-1.4-1.6-1.4-3 0-2.4 1.9-3.9 4.1-3.9 0.6 0 1.2 0.1 1.6 0.3h3.8v1.4h-2.3c0.5 0.5 0.9 1.3 0.9 2.3 0 2.3-1.8 3.8-4 3.8 -0.5 0-1.2-0.1-1.6-0.4 -0.4 0.3-0.7 0.7-0.7 1.3 0 0.7 0.5 1.2 1.9 1.2h2.1c2.6 0 3.8 0.8 3.8 2.6 0 2-2.1 3.8-5.6 3.8 -2.7 0-4.5-1.1-4.5-3C69 133.9 69.6 133 70.6 132.3zM73.8 136.5c2.1 0 3.5-1.1 3.5-2.2 0-1-0.8-1.4-2.2-1.4h-1.9c-0.4 0-0.9 0-1.4-0.2 -0.8 0.6-1.1 1.2-1.1 1.9C70.6 135.7 71.8 136.5 73.8 136.5zM75.8 125.4c0-1.6-1-2.6-2.3-2.6 -1.3 0-2.3 0.9-2.3 2.6s1.1 2.6 2.3 2.6C74.8 128 75.8 127 75.8 125.4zM81 121.7h1.9v6.7c0 2.1 0.6 2.9 2.1 2.9 1.1 0 1.9-0.6 3-1.9v-7.8h1.9v11h-1.5L88 131H88c-1 1.2-2.1 2-3.6 2 -2.3 0-3.4-1.5-3.4-4.3V121.7zM93.4 116.6h1.9v14c0 0.6 0.2 0.8 0.5 0.8 0.1 0 0.2 0 0.4 0l0.2 1.4c-0.2 0.1-0.6 0.2-1.1 0.2 -1.4 0-2-0.9-2-2.5V116.6zM105.4 125.7c0-1.4-0.5-2.8-2.3-2.8 -1.3 0-2.4 0.6-3.3 1.2l-0.7-1.3c1-0.7 2.6-1.4 4.3-1.4 2.7 0 3.8 1.8 3.8 4.5v6.7h-1.5l-0.2-1.3h0c-1.1 0.9-2.3 1.6-3.6 1.6 -1.9 0-3.2-1.2-3.2-3.1C98.7 127.5 100.7 126.3 105.4 125.7zM102.4 131.5c1.1 0 1.9-0.5 3-1.5v-3c-3.7 0.5-4.9 1.4-4.9 2.8C100.5 131 101.3 131.5 102.4 131.5zM110.8 121.7h1.5l0.2 2h0.1c0.7-1.4 1.9-2.3 3.1-2.3 0.5 0 0.8 0.1 1.2 0.2l-0.4 1.6c-0.4-0.1-0.6-0.2-1.1-0.2 -0.9 0-2 0.7-2.8 2.5v7h-1.9V121.7z"/></a></svg>