<svg xmlns="http://www.w3.org/2000/svg" xmlns:xlink="http://www.w3.org/1999/xlink" version="1.2" baseProfile="tiny" x="0" y="0" viewBox="0 0 233.6 100" xml:space="preserve"><text transform="matrix(1 0 0 1 7.1079 13.5215)" opacity="0">x</text><a xlink:href="http://iginomarini.com/fell/the-revival-fonts/" xlink:show="new"><path fill="#FFFFFF" d="M4.1 38.2l-0.8-0.1c-0.3 0-0.6 0.1-0.9 0.1H1.2c-0.2 0-0.4 0-0.5-0.1C0.2 38 0 37.8 0 37.3c0-0.3 0-0.4 0.4-0.6 0.8-0.3 2.5-0.2 3.2-0.6 0.3-0.2 0.8-1.3 0.8-1.6l-0.2-1.4 0.4-0.8 -0.4-0.7 0.4-4 -0.1-1.8c-0.1-0.1-0.1-0.2-0.1-0.4 0-0.8 0.3-0.9 0.3-1.3 0-0.6-0.3-1.1-0.3-1.7l0.2-1.2c0-0.4 0-1.4-0.4-1.8 0-0.1 0.1-0.3 0.1-0.6 0-0.3-0.1-0.6-0.1-0.7 0-0.1-0.1-0.3-0.1-0.3l-1.1-1c-0.5 0-3-0.6-3-1.3 0-0.6 0.5-0.8 1-0.8 0.2 0 0.4 0 0.5 0.1 1 0.1 1.9 0.2 2.9 0.2 0.7 0 1.5-0.2 2.2-0.2 0.7-0.2 2.5-0.2 3.2-0.3 0.7-0.1 1.5-0.3 2.2-0.3 0.5 0 1 0.1 1 0.8 0 0.3-0.7 0.4-0.8 0.6 -0.2 0.1-0.8 0.8-1.1 0.9 -0.7 0-2.9 0.5-2.9 1.4v2.5c0 0 0.2 0.7 0.2 0.9 0.1 0.1 0.2 0.2 0.2 0.3 -0.4 0.7-0.5 1.4-0.5 2.1l0.2 1.3 -0.1 1.1c0 0.7 0.4 1.3 0.4 2 0 0.7-0.4 1.2-0.4 1.8 0 0.3 0 0.5 0.2 0.9v2.1c-0.1 0.2-0.1 0.3-0.1 0.5 0 0.9 0.2 1.5 0.5 2.3 0 0.1 1.1 0.8 1.2 0.8 0.5 0 0.7-0.2 1.1-0.2 0.3 0 0.9 0.1 1.3 0.3 0.2 0.2 0.4 0.4 0.4 0.7 0 0.3-0.1 0.7-0.3 0.9C12.3 38 12.1 38 11.9 38c-0.2 0-0.5 0-0.7 0.1l-0.7 0.2c-1 0-2.3-0.1-3.2-0.2 -0.1 0-0.9-0.3-1-0.3 0 0-0.1 0-0.1 0C5.5 37.8 4.9 38.2 4.1 38.2zM15.7 37.2c0.7-0.5 2.3-1.1 3-1.6 0.5-0.9 0.7-1.9 0.7-3v-0.5c0-0.2 0-0.4 0-0.6 0-0.1 0.1-0.5 0.1-0.7l0.2-0.3 0-0.6c0-0.1 0-0.2-0.2-0.5l0.3-1c0-0.2 0-0.3-0.1-0.4 0-0.1-0.1-0.2-0.1-0.3v-0.3l0.2-1.3 -0.2-1.2c0-0.5 0.4-1.1 0.4-1.6l-0.1-0.7c0-0.7 0.4-1.7 0.4-2.5 -0.1-0.1-0.3-0.4-0.4-0.6 0-0.6-0.2-2-1.1-2l-1.4 0.1H17c-1-0.2-1.8-0.2-1.8-1.2 0-0.8 0.2-0.7 0.9-0.9l0.4-0.2h0.6c1.6 0 3 0.3 4.5 0.3 0.4 0 0.6-0.1 0.9-0.1 1.2 0.5 1.8 1.2 2.1 2.5l0 0.2c0.2 0.9 0.2 1 1.2 1.6l0 0.4c0 0.7 0.4 1.3 0.5 2.1 0 0.1 0.1 0.8 0.1 0.9 0.3 0.7 1.1 1.8 1.5 2.5 0.6 1.3 1.1 2.6 1.7 3.9l0.5 0.8c0.3 0.5 0.2 1.2 0.8 1.2 0.7 0 0.4-0.3 0.7-0.9 0 0 0.3-0.2 0.4-0.3 0.9-1.1 1.2-2.7 1.6-4.1 0-0.1 0.5-1.1 0.6-1.3 0.3-0.9 0.5-1.6 0.9-2.3l0.1-0.3c0.5-0.9 1-2 1.6-2.5 0-0.4-0.1-0.5-0.1-0.6 0-0.2 0.2-1.1 0.2-1.2 0-0.1 0.1-0.4 0.1-0.6l0.4-0.4c0-0.2 0.1-0.7 0.1-0.8 0.3-0.6 1.5-0.9 2-0.9 0.2 0 0.5 0.1 0.7 0.2 0.3 0.1 0.5 0.1 0.7 0.1l1.6-0.3c0.8 0 1.3 0 2.2 0.2 0.3 0.1 0.5 0.2 0.5 0.6 0 1.8-4.2 1.1-4.2 2.7 0 1 0.8 1.8 0.8 2.8L41.5 23v3.5c0.1 0.1 0.1 0.2 0.1 0.4l0.1 1.8 0.4 0.7v1.1c0 0.1 0.1 0.8 0.1 0.9 0.1 0.7 0.2 3.1 0.7 3.9 0.7 1.3 3.5 0.5 3.5 2.1 0 0.9-1.1 1-1.7 1h-0.9c-1 0-2.2-0.1-2.6-0.3 -0.1 0-0.2 0-0.3 0h-0.3l-1.9 0.3L37 38.2c-0.1 0-0.3 0.1-0.4 0.2 -0.8 0-1.8-0.3-1.8-1 0-0.2 0.2-0.4 0.5-0.5 0.3 0 0.5-0.1 0.8-0.1 0.8 0 1.7-0.1 2.2-0.7 0 0 0.1-0.3 0.1-0.3s0.1-0.1 0.1-0.2l0.1-0.4c0.1-0.5 0.2-1.1 0.2-1.6 0-0.7-0.1-1.3-0.2-2l0-0.2c0-0.1 0-0.4 0-0.6 0-0.7 0-1.7-0.2-1.9 0-0.1 0-0.2 0-0.2v-0.3L38 25.4l0.1-2.1c0-0.4-0.1-1.5-0.1-1.5 0-0.4 0-1.8-0.6-1.8 -0.1 0-0.2 0.1-0.2 0.1L37 21.3c-0.3 0.1-0.3 0.5-0.3 0.9 0 0.2 0 0.4 0 0.5 -0.4 0.7-0.9 1.2-1.3 1.8 -0.2 0.2-0.4 1.3-0.5 1.6 -0.3 0.8-0.7 1.6-1.2 2.4l-0.1 0.3c0 0-0.1 0.5-0.1 0.6 -0.1 0.1-0.6 0.5-0.7 0.6l-0.2 1.2c-0.2 0.6-0.7 1.1-0.9 1.7 0 0.1-0.1 0.9-0.1 1 0 0.2-0.4 1.8-0.5 1.8l-0.4 0.5c0 0.1 0 0.2 0 0.3 0 0.4-0.1 1-0.6 1 -0.4 0-0.9-0.7-1.2-1.2 0 0-0.1-0.2-0.1-0.3 -0.4-0.7-0.5-1.6-0.7-2.5 -0.1-0.4-1.1-2-1.4-2.6 -0.5-1-1.1-2.1-1.6-3.1l-0.4-1.2c-0.7-1.5-1.4-2.7-2.2-4.1 0-0.1-0.2-0.3-0.2-0.3l-0.4-0.4c-0.2-0.3 0.1-0.7-0.4-0.7 -0.1 0-0.1 0-0.2 0.1l-0.2 2v0.8c0 0.8 0 1.5 0 2.3 0 0.7 0.1 1.5 0.1 2.3 0 0 0.1 0.2 0.2 0.8l-0.1 0.3c0 0.4-0.2 0.6-0.2 1.2v0.3l0.3 0.6c0 0.1 0 0.2 0 0.3v0.6c0 0.6 0 1.2 0.3 1.6l1.3 1.5c0 1.3 2.3 0.6 2.3 1.8 0 0.1 0 0.6-0.2 0.6h-1.6L23 38.2h-0.4c-1 0-1.7-0.3-2.9-0.3 -0.2 0-0.5 0.3-0.7 0.4 -0.6 0-1.2 0.2-1.8 0.2 -0.2 0-0.4 0.1-0.8 0.1 -0.2 0-0.4 0-0.6-0.1 -0.3-0.1-0.4-0.3-0.4-0.7C15.5 37.4 15.5 37.3 15.7 37.2zM73.7 16.5c-1.2-1-1.9-1.3-3.1-1.3 -0.1 0-0.2 0-0.2 0 -1.2 0-1.3 0-1.4 0h-1.3c-0.4 0.1-0.8 0.1-1.2 0.1 -0.9 0-1.3 0-1.5 0.2 -0.2 0.1-0.3 0.3-0.3 0.4 0 0.5-0.1 0.6-0.5 0.9 -0.1 0.1-0.2 0.8-0.2 1.1 0 0.5 0.2 1 0.2 1.6l-0.2 1.1c0 0.5 0.4 1 0.4 1.7l-0.3 2.6c0 0.2 0.2 0.5 0.4 0.7 0.7 0.1 1.5 0.3 2.2 0.3 0.2 0 0.3 0 0.4-0.2 0.3 0 0.6-0.1 1.1-0.1 1.2 0 3 0 3.7-0.5 1-0.7 0.3-3 1.6-3 0.1 0 0.3 0 0.4 0.3V23c0 0.5-0.1 1.1-0.2 1.6 -0.1 0.8-0.2 1.4-0.2 2.1 0 1.2 0.8 2.1 0.8 3.2 0 0.3 0 0.5-0.1 0.6 -0.1 0.2-0.1 0.3-0.3 0.3 -0.3 0-0.5-0.3-0.7-0.6L73 29.6c-0.5-1.1-0.9-2-2-2.7h-0.8c-0.8 0-1.7 0-2.3-0.1l-1.1-0.2c-0.6 0-1.3 0.3-2 0.3 -0.2 0.2-0.6 0.7-0.6 1.1 0.4 1.7 0.7 3.3 0.7 5 0 0.8-0.1 1-0.1 1.1 0.4 1.1 1.4 1.7 2.4 2.1 0 0 0.2 0.2 0.2 0.2 0.1 0 0.5 0.1 0.6 0.1 0.2 0 0.3 0 0.4 0 0.2 0 0.3 0 0.4 0s0.4 0 0.5 0c0.2 0 0.3 0 0.4 0 0.2 0.2 0.7 0.5 0.7 1 0 0.5-0.5 1.2-1 1.2h0c-0.2 0-0.6 0.1-0.8 0.1 -0.3 0-0.6 0-1-0.1l-0.3-0.1c-0.8-0.4-2-0.7-2.9-0.7 -0.5 0-0.7 0-1.3 0.2 -0.5 0.1-1.1 0.1-1.6 0.1 -0.6 0-1.1 0-1.7-0.1 -0.3 0.1-0.5 0.4-0.9 0.4 -0.2 0-0.3-0.1-0.4-0.1 -0.1 0-0.2 0-0.3 0h-0.7c-0.5-0.2-0.9-0.3-1-0.8 0-0.4 0.2-0.7 0.6-0.9 1.1-0.1 3.9-1 3.9-2.4 0-2.5-0.3-3.2-0.3-5.8 0-0.8 0.4-1.5 0.4-2.3 0-0.1 0-0.6 0-0.6l-0.2-0.8v-1.3c0-0.8-0.4-1.6-0.4-2.3 0-0.1 0.1-0.4 0.1-0.5 0.1-0.4 0.2-0.9 0.2-1.4 0-0.4 0-0.9-0.2-1.4 0-0.8-0.9-1.7-1.6-2 -0.8-0.3-3.2 0-3.2-1.4v-0.3c0.4-0.2 1-0.5 1.4-0.5h0.4c0.3 0 0.7 0 0.9 0.3 0.4 0.1 0.8 0.1 1.2 0.1 0.3 0 0.8-0.1 1.2-0.1 0.1-0.2 0.1-0.2 0.3-0.2 0.5 0 0.9 0.3 1.5 0.3H63c0.2 0 0.5 0 0.8-0.1 0.4 0.1 0.9 0.1 1.4 0.1 0.5 0 0.9 0 1.4-0.1 0.8-0.3 1.8-0.2 2.9-0.3 0.5-0.1 1-0.1 1.5-0.1 0.3 0 0.7 0 1.1 0.1 0.2 0.1 0.6 0.5 0.8 0.5 0.2 0 0.3-0.1 0.6-0.2 0.4-0.1 0.8-0.1 1.2-0.1 0.3 0 0.7 0 1.1 0.1 0.1 0 0.8 0.7 0.8 0.7v2.5c0.2 0.6 0.3 1.1 0.3 1.7 0 0.5 0 1.3-0.7 1.3 -0.3-0.3-0.8-1-1-1.3 0-0.1-0.4-1-0.5-1.1 0 0-0.1-0.5-0.1-0.6L73.7 16.5zM78.6 28.9c0.2-2.2 1.6-4.8 3.6-6 0.1-0.1 1-0.5 1.1-0.6 0.3-0.2 1.1-0.8 1.5-0.8 0.2 0 0.3 0.1 0.5 0.1 0.4-0.1 0.7-0.1 1.1-0.1 0.4 0 0.7 0 1.1 0.1 0 0 0.4 0.2 0.5 0.2 0.1 0 1 0.5 1.2 0.6 0 0 0.2 0.1 0.3 0.1l0.7 0.4 1.6 1.4c0.2 0.2 0.9 2.3 0.9 2.6 0 0.6-0.8 0.8-1.2 0.8h-0.1c-0.5 0-2.3 0.1-2.7 0.1C88.3 28 88.1 28 87.9 28l-1.2-0.1c-0.5 0-1 0.2-1.4 0.2 -0.3 0-0.6-0.3-0.9-0.3 0 0-0.3 0.2-0.4 0.2l-1.3-0.1c-0.4 0-0.7 0.1-1.1 0.5 -0.1 0.6-0.1 1-0.1 1.5 0 1 0.3 1.1 0.7 1.9l0.2 0.3c0.6 1.3 1.5 2.1 3 2.5 0 0.2 1.6 0.4 1.6 0.4 1.5 0 3.3-0.3 4.3-1.3h0.3c0.3 0 0.3 0 0.4 0.4 -0.2 1.3-0.4 2-1.5 2.7 -0.4 0.3-0.6 0.1-1 0.6l-1.8 0.9 -0.2 0 -1.3 0.2c-3.9 0-6.2-2.3-7.4-5.8 -0.2-0.6-0.2-1.3-0.4-2C78.4 30.4 78.6 29.2 78.6 28.9zM82.1 27h0.5l2.3-0.4 1.5 0.1c0.5 0 0.9-0.1 1.3-0.2 0.9-0.1 1.2-0.2 1.2-1.1 0-1.6-2-2.4-3.3-2.4 -0.5 0-2.5 0.8-2.7 1.1l-0.4 0.8c-0.3 0.3-0.9 0.6-0.9 1.1C81.7 26.2 81.9 27 82.1 27zM94.5 38.4c-0.1 0-0.2 0-0.3 0h-0.4l-0.2-0.2v-0.8l0.4-0.6c0.2-0.1 0.6-0.1 0.6-0.1 0.1 0 0.5 0 0.7-0.1 0.2 0.1 0.5 0.1 0.6 0.1 0.6-0.4 1-1.5 1-2.2v-1.9c0-0.8 0-1.7 0.1-2 -0.1-0.6-0.1-1.2-0.1-1.8l-0.1-1.8c-0.1-1.1-0.1-2.2-0.1-3.3 0-0.1 0-0.1 0.2-0.3 -0.1-0.4-0.1-0.6-0.1-1 0-0.3 0-0.7 0.1-1 -0.2-0.1-0.3-0.3-0.3-0.7 0-0.3 0.3-0.4 0.3-0.8 0-0.5 0-1.1-0.2-1.7 -0.2-0.8-0.1-1.2-0.2-1.7C96.2 16 95 15.6 94.7 15c-0.2-0.4-0.2-0.4-0.3-0.5 0-0.2 0.1-0.6 0.3-0.6 0.5-0.1 1.1-0.3 1.3-0.4 0.1 0 0.9-0.4 1-0.5 0.9-0.2 1.5-0.6 2.4-0.6 0.2 0 0.4 0 0.4 0.2 0.1 0.6 0.1 1.2 0.1 1.7s0 1.1-0.1 1.6c-0.2 0.5-0.2 1.1-0.2 1.6l0 0.9 -0.1 1.2c0.1 0.2 0.1 0.3 0.1 0.6 0 0.4 0 0.6-0.1 0.7l0.1 1.1c-0.1 0.4-0.3 0.7-0.5 1.2 0 0.2 0.2 0.4 0.2 0.7 0.1 0.9 0.1 1.7 0.1 2.6 -0.1 0.5-0.3 0.9-0.3 1.3v0.3c0 1 0.2 1.5 0.3 2.6 0 0.6-0.1 1-0.1 1.6 0 0.3-0.2 1.1-0.2 1.3v0c0 0.2 0.3 1.5 0.3 1.7l0.1 0.3h0c0.1 0 0.1 0.1 0.1 0.1 0.2 0.2 0 0.4 0.8 0.6 0.2 0.2 0.4 0.2 0.5 0.2 0.1 0 0.1 0 0.2 0 0.4 0.1 1.1 0.1 1.5 0.5 0.1 0.1 0.1 0.2 0.1 0.5v0.6c0 0.2 0 0.3-0.2 0.4 -0.2 0-0.4 0-0.6 0 -0.2 0-0.3 0-0.6-0.1l-0.5-0.1c-0.1 0-0.7-0.1-0.8-0.1l-0.8-0.1c0 0-0.1 0-0.1 0 -1 0-1.5 0.2-2.4 0.3 -0.5-0.1-1.2-0.1-1.7-0.1L94.5 38.4zM104.2 38.4c-0.1 0-0.2 0-0.3 0h-0.4l-0.2-0.2v-0.8l0.4-0.6c0.2-0.1 0.6-0.1 0.6-0.1 0.1 0 0.5 0 0.7-0.1 0.2 0.1 0.5 0.1 0.6 0.1 0.6-0.4 1-1.5 1-2.2v-1.9c0-0.8 0-1.7 0.1-2 -0.1-0.6-0.1-1.2-0.1-1.8l-0.1-1.8c-0.1-1.1-0.1-2.2-0.1-3.3 0-0.1 0-0.1 0.2-0.3 -0.1-0.4-0.1-0.6-0.1-1 0-0.3 0-0.7 0.1-1 -0.2-0.1-0.3-0.3-0.3-0.7 0-0.3 0.3-0.4 0.3-0.8 0-0.5 0-1.1-0.2-1.7 -0.2-0.8-0.1-1.2-0.2-1.7 -0.3-0.4-1.5-0.8-1.8-1.4 -0.2-0.4-0.2-0.4-0.3-0.5 0-0.2 0.1-0.6 0.3-0.6 0.5-0.1 1.1-0.3 1.3-0.4 0.1 0 0.9-0.4 1-0.5 0.9-0.2 1.5-0.6 2.4-0.6 0.2 0 0.4 0 0.4 0.2 0.1 0.6 0.1 1.2 0.1 1.7s0 1.1-0.1 1.6c-0.2 0.5-0.2 1.1-0.2 1.6l0 0.9 -0.1 1.2c0.1 0.2 0.1 0.3 0.1 0.6 0 0.4 0 0.6-0.1 0.7l0.1 1.1c-0.1 0.4-0.3 0.7-0.5 1.2 0 0.2 0.2 0.4 0.2 0.7 0.1 0.9 0.1 1.7 0.1 2.6 -0.1 0.5-0.3 0.9-0.3 1.3v0.3c0 1 0.2 1.5 0.3 2.6 0 0.6-0.1 1-0.1 1.6 0 0.3-0.2 1.1-0.2 1.3v0c0 0.2 0.3 1.5 0.3 1.7l0.1 0.3h0c0.1 0 0.1 0.1 0.1 0.1 0.2 0.2 0 0.4 0.8 0.6 0.2 0.2 0.4 0.2 0.5 0.2 0.1 0 0.1 0 0.2 0 0.4 0.1 1.1 0.1 1.5 0.5 0.1 0.1 0.1 0.2 0.1 0.5v0.6c0 0.2 0 0.3-0.2 0.4 -0.2 0-0.4 0-0.6 0 -0.2 0-0.3 0-0.6-0.1l-0.5-0.1c-0.1 0-0.7-0.1-0.8-0.1l-0.8-0.1c0 0-0.1 0-0.1 0 -1 0-1.5 0.2-2.4 0.3 -0.5-0.1-1.2-0.1-1.7-0.1L104.2 38.4zM123.7 36.1h1.4c0.4-0.1 1.4-0.9 1.5-1.6 0-0.2 0.1-0.5 0.1-0.8 0-0.2 0-0.4-0.1-0.7l0.2-0.4c-0.3-1.2-0.4-2.4-0.4-3.5 0-0.5 0.2-1.4 0.3-1.9 0 0 0.1-0.2 0.1-0.3 0 0 0.2-0.4 0.2-0.6 0-0.2-0.2-0.3-0.4-0.3 0.1-0.8 0.1-1.5 0.1-2.3 0-0.8 0-1.5-0.1-2.3 -0.1-0.3-0.1-0.4-0.1-0.7l0.1-1 -0.1-1.8c0-0.6-1.1-1.5-1.5-1.6h-1.2c0 0-0.2-0.2-0.3-0.2 -0.7-0.2-1.7-0.1-1.7-1.1 0-0.8 0.5-0.8 1.3-0.8 0.6 0 1.2 0 1.6 0.3 0.1 0 0.2-0.1 0.3-0.1h0.3c1.1 0 2.4 0.2 3.4 0.3l1 0.2c0.6 0 1.3-0.5 1.9-0.5 0.2 0 0.3 0.2 0.7 0.2 0.1 0 0.2-0.2 0.4-0.2 0.2 0 0.3 0 0.4 0.2h0.7c0.5 0 1-0.3 1.6-0.3 0.3 0 0.4 0 0.8 0.3l3.1 0.2c0 0 0.7 0.1 1.1 0.2 0.2 0 0.7 0.1 0.7 0.4 0.1 0.4 0.3 2.1 0.3 2.5 0.1 0.8 0.2 1.6 0.2 2.4h-0.3c-0.2 0-0.4-0.2-0.6-0.6 -0.2-0.3-0.3-0.3-0.3-0.4 -0.6-0.9-1.4-2.2-1.5-2.5 -0.6-0.2-1.2-0.1-1.5-0.6 -0.1-0.2-0.3-0.3-0.5-0.3 -0.1 0-0.2 0-0.2 0 -0.1 0-0.3 0.1-0.5 0.1 -0.4 0-0.8-0.1-1.1-0.1 -0.2 0-0.2-0.1-0.3-0.1 0 0-0.1 0-0.1-0.1 -0.5-0.1-1-0.1-1.5-0.1 -0.5 0-1 0-1.5 0.1 -0.3 0.1-0.9 0.6-1 1 -0.2 0.8-0.2 1.8-0.2 2.8v1.8c-0.2 0.2-0.2 0.5-0.2 0.9V23c0 1.1 0.1 2.1 1 3l2.8 0.1c0.2 0 0.4 0 0.6-0.1 0.1 0 0.3-0.1 0.4-0.1l0.7 0c0.2 0 0.4-0.1 0.5-0.2 0.4-0.1 1-0.6 1.3-0.8 0.3-0.6 0.7-2.8 1.3-2.8 0.2 0 0.3 0.1 0.4 0.3V24c0 0.3-0.1 0.5-0.2 0.9l-0.2 0.3 0.1 0.6c0 0.2 0.2 2.1 0.2 2.8l-0.1 0.6c0 0.4 0.2 0.7 0.2 0.9 0 0.6-0.2 1.1-0.8 1.1 -0.6 0-0.6-0.4-0.6-0.8 0-0.2 0-0.3 0-0.4l-0.5-0.8v-0.5c-0.1-0.9-4.9-1.6-5.9-1.6 -0.8 0-1.2 1.2-1.3 1.8v1.4l0.2 2.7v1.5c0.1 1.1 1.7 2.2 2.7 2.3l1.2 0.1 0.3 0.1h1.1c1.1 0 1.8 0 3-0.1l1.4-0.5c0.7-0.5 2.2-2.1 2.7-2.8 0.2-0.1 0.4-1.4 1-1.4 0.2 0 0.4 0.3 0.4 0.5l-0.3 1.1c-0.3 1.2-0.7 2.4-0.8 3.7 -0.5 0.7-1.3 0.8-2.1 0.8 -0.2 0-0.5 0-0.7 0l-0.4 0.1c-0.4 0-0.5-0.2-0.9-0.2l-1.1 0.1 -0.6-0.1 -2.7 0.2c-1.7 0-3.3-0.2-5.1-0.2l-2.2 0.2 -1.6-0.1c-0.8 0-1.6 0.4-2.2 0.4 -0.8 0-2-0.4-2-1.4C121.5 36.4 123.1 36.1 123.7 36.1zM148.9 38.1c-0.6 0.2-1.2 0.2-1.8 0.2l-0.4 0c-0.1 0-0.2 0-0.3-0.1 -0.2-0.2-0.3-0.4-0.3-0.8 0-0.2 0.2-0.5 0.3-0.6 0.3-0.1 0.4-0.1 0.7-0.1s0.4 0 0.6-0.1c1.1-0.4 1.1-1.1 1.1-1.6l-0.1-0.9c0-0.1-0.1-0.2-0.2-0.3l-0.1-0.3c0-0.2 0.3-0.3 0.3-0.6l-0.1-0.8c0-0.4 0-0.8 0.3-1.1v-1.2l-0.1-0.4 0.2-0.7v-0.5c0-1.2-0.3-2.4-1.5-3l-0.8-0.4c-0.2-0.1-0.4-0.3-0.4-0.5 0.1-0.2 0.5-0.9 0.9-0.9h0.9c0.1 0 0.5-0.3 0.6-0.4 0 0 0.2-0.1 0.2-0.1h0.8c0.1 0 0.4-0.4 0.4-0.4 0 0 0.3 0 0.4 0 0.2 0 0.9 0.2 0.9 0.5 0 0 0 0.1 0 0.1 0 0-0.1 0.4-0.1 0.4v0.2c0 0.1 0.3 0.4 0.3 0.5l0.4 0.6c0.1 0.2 0.3 0.2 0.5 0.2 0.3 0 0.6-0.4 0.8-0.5l0.5-0.8c0 0 0.1-0.1 0.1-0.1 0 0 0.3-0.1 0.4-0.2 0.1-0.1 0.6-0.7 0.7-0.8 0.1 0 0.7-0.2 0.7-0.2 0.6-0.2 0.5-0.4 1.3-0.4h0.3l0.7 0.4c0 0 0.5 0.1 0.6 0.1 0.1 0 0.5 0.1 0.5 0.1 0 0 0.3 0.2 0.4 0.3 0 0 0.1-0.1 0.2-0.1 0.3 0.1 0.7 0.5 0.8 0.7 0.2 0.3 0.8 1.1 0.8 1.1 0 0 0.2 1 0.2 1.3l-0.1 1.8 0.2 1.6c0 0.7-0.3 0.6-0.3 1 0 0.3 0.2 0.5 0.2 0.8 0 0.1 0.1 1 0.1 1.3v1.4c-0.2 0.3-0.2 0.4-0.2 0.7l0 0.9 0.1 0.7c0 0.1 0.1 0.2 0.1 0.2 0.2 0.1 0.7 0.1 1.1 0.4l0.1 0.1c0.1 0.3 0.4 0.5 0.4 0.8 0 0.2 0 0.6-0.3 0.6h-0.1c-0.4 0-0.8 0.1-1.3 0.1 -0.2 0-0.5 0-0.7-0.1 -0.4 0-0.8-0.1-1.2-0.1 -0.5 0-1 0-1.5 0.1 -0.1 0-0.3-0.1-0.5-0.1 -0.3 0-0.6-0.1-0.9-0.1H156c-0.3 0-0.4-0.3-0.4-0.8 0-0.3 0.2-0.7 0.6-0.7l1.1-0.2c0.3 0 0.3-0.4 0.4-0.5l0.1-0.2c0.3-0.5 0.2-0.6 0.3-1.2l0.1-0.4 -0.1-0.4v-1l-0.1-0.9 0.2-0.8c-0.1-0.4-0.1-0.8-0.1-1.2 0-0.4 0-0.8 0.1-1.2 0.1-0.2 0.1-0.3 0.1-0.6 0 0-0.3-0.4-0.3-0.4 -0.1-0.2-0.3-1.1-0.3-1.3 0-0.1-0.5-0.5-0.5-0.5 0 0-0.1-0.3-0.1-0.3 -0.1-0.1-0.1-0.2-0.2-0.3 -0.2-0.1-0.9-0.2-1-0.3h-0.2c-1.3 0-2.3 0.3-3.2 1.2 -0.2 0.2-0.7 0.7-0.7 0.7 0 0-0.1 0.6-0.1 0.7 -0.1 0.3-0.2 0.6-0.2 1 0 0.7 0.1 1.1 0.1 1.7 0 0.4-0.2 0.6-0.2 1.1l0.2 1.2 -0.2 0.9v0.2c0.1 0 0.1 0.4 0.1 0.4v1.1l0.1 0.4c0.1 0.1 0.5 0.5 0.6 0.5 0.1 0.1 0.7 0.2 0.9 0.3 0.4 0.2 0.5 0 0.8 0.3 0.2 0.1 0.4 0 0.4 0.3l0 0.4c0 0.2 0 0.3-0.3 0.4 -0.2 0.1-0.3 0.3-0.5 0.3 -0.2 0-0.5 0.2-0.7 0.2h-0.2c-1-0.2-2-0.4-3.1-0.4L148.9 38.1zM168.3 47.8c-1.7-0.6-3.3-1.8-3.3-3.7 0-0.5 0.2-2.2 0.6-2.7 0.3-0.5 1.6-0.6 1.6-1.4 0-1.3-1.7-1.6-1.7-2.9 0-0.5 0.1-1.4 0.4-1.8 0.3-0.4 0.8-1.1 1.2-1.4 0.4-0.3 0.9-0.3 0.9-0.8 0-0.6-0.6-1.2-1.1-1.7l-0.1-0.2c-0.2-0.2-0.2-0.2-0.2-0.2 0-0.1-0.7-1.9-0.7-2.4l0-0.6c0-0.4 0.2-0.4 0.3-0.5 0-0.2-0.2-0.3-0.2-0.8 0 0 0.1-0.2 0.2-0.3 2-4.1 3.3-4.4 7.8-4.4h0.1c0.4 0.2 1 0.3 1.4 0.6l0.4 0.4c0.4 0.3 1 0.4 1.5 0.6l0.6 0.1c0.1 0 0.2 0.1 0.2 0.1h0c0.4 0 0.7-0.6 1-0.9 0.8-0.6 1.7-1.2 2.7-1.2 0.9 0 1.5 0.7 1.5 1.5 0 0.6 0 1.7-1.2 1.7 -0.4-0.5-0.7-0.6-1-0.6h-0.7c-1 0-1.7 2.1-1.7 3.1l0.2 1.4c0 0.8-0.3 1.5-0.7 2.1 -0.3 0.4-0.5 1.1-1 1.4l-0.3 0.1c-1.7 0.7-2.2 1.1-4.2 1.1h-0.4l-2.5-0.2c-1.3 0-2.1 0.8-2.1 2.1v0.2c0.4 1.3 1 0.7 1.9 1.2 0.4-0.1 1-0.1 1.4-0.1 0.2 0 0.4 0 0.6 0.1h1.1l1 0.2h0.5c0.4 0 0.5 0 0.7 0 0.1 0 0.2 0 0.5 0 0.3 0 0.6 0.2 1 0.2h1.2c0.5 0 1.1 0.5 1.4 0.6 0.6 0.4 1.1 0.4 1.2 0.8 0.2 0.4 1.1 1.3 1.4 2.4 0 0.2 0 0.3 0 0.4 -0.3 2.6-0.6 3.1-2.5 4.6 -0.7 0.6-1.4 1.3-2.3 1.6l-1.3 0.3c-0.1 0-0.3 0.1-0.3 0.2 -1.4 0.1-1.8 0.2-3.1 0.2 -1.1 0-1.7-0.1-2.9-0.2C169 47.9 168.5 47.8 168.3 47.8zM167.6 41.6c0 0.2-0.1 0.5-0.1 0.7 0 0.3 0.1 0.6 0.2 1 0 0 0.6 1.1 0.7 1.3 0.2 0.4 0.2 0.9 0.5 1.1 0.3 0.1 0.9 0.3 1.1 0.5 0.7 0.3 2.1 0.6 2.5 0.6 0.1 0 0.1 0 0.1 0 0.4 0.1 0.7 0.1 1.1 0.1 0.4 0 0.9 0 1.3-0.1 0.9-0.2 1.9-0.3 2.2-1.2l1.1-0.5c0.1-1.1 0.3-2 0.3-3.1 0-2.1-2.3-2.6-3.9-2.6 -1.1 0-2.1-0.2-3.2-0.2 -0.2 0-0.5 0-0.8 0 -0.6 0-1.1 0.1-1.5 0.3 -0.1 0.1-0.4 0.4-0.4 0.5 -0.3 0.2-1.1 0.4-1.1 0.9L167.6 41.6zM169.9 30.9c0.5 0.7 0.8 1.8 1.9 1.8 1.6 0 2.4-0.8 3.2-2 0.3-0.4 0.8-0.6 0.8-1.1 0.1-0.5 0.2-1.2 0.3-1.7 -0.3-2.1-0.5-3.2-2.8-3.8 -0.4-0.1-0.7-0.4-1.1-0.4 -1 0-2.2 1.1-2.6 1.8 -0.2 0.5-0.5 0.7-0.7 1.2v1.9c0 0.5 0 0.9 0.2 1.4C169.3 30.5 169.4 30.4 169.9 30.9zM184.1 38.4c-0.1 0-0.2 0-0.3 0h-0.4l-0.2-0.2v-0.8l0.4-0.6c0.2-0.1 0.6-0.1 0.6-0.1 0.1 0 0.5 0 0.7-0.1 0.2 0.1 0.5 0.1 0.6 0.1 0.6-0.4 1-1.5 1-2.2v-1.9c0-0.8 0-1.7 0.1-2 -0.1-0.6-0.1-1.2-0.1-1.8l-0.1-1.8c-0.1-1.1-0.1-2.2-0.1-3.3 0-0.1 0-0.1 0.2-0.3 -0.1-0.4-0.1-0.6-0.1-1 0-0.3 0-0.7 0.1-1 -0.2-0.1-0.3-0.3-0.3-0.7 0-0.3 0.3-0.4 0.3-0.8 0-0.5 0-1.1-0.2-1.7 -0.2-0.8-0.1-1.2-0.2-1.7 -0.3-0.4-1.5-0.8-1.8-1.4 -0.2-0.4-0.2-0.4-0.3-0.5 0-0.2 0.1-0.6 0.3-0.6 0.5-0.1 1.1-0.3 1.3-0.4 0.1 0 0.9-0.4 1-0.5 0.9-0.2 1.5-0.6 2.4-0.6 0.2 0 0.4 0 0.4 0.2 0.1 0.6 0.1 1.2 0.1 1.7s0 1.1-0.1 1.6c-0.2 0.5-0.2 1.1-0.2 1.6l0 0.9 -0.1 1.2c0.1 0.2 0.1 0.3 0.1 0.6 0 0.4 0 0.6-0.1 0.7l0.1 1.1c-0.1 0.4-0.3 0.7-0.5 1.2 0 0.2 0.2 0.4 0.2 0.7 0.1 0.9 0.1 1.7 0.1 2.6 -0.1 0.5-0.3 0.9-0.3 1.3v0.3c0 1 0.2 1.5 0.3 2.6 0 0.6-0.1 1-0.1 1.6 0 0.3-0.2 1.1-0.2 1.3v0c0 0.2 0.3 1.5 0.3 1.7l0.1 0.3h0c0.1 0 0.1 0.1 0.1 0.1 0.2 0.2 0 0.4 0.8 0.6 0.2 0.2 0.4 0.2 0.5 0.2 0.1 0 0.1 0 0.2 0 0.4 0.1 1.1 0.1 1.5 0.5 0.1 0.1 0.1 0.2 0.1 0.5v0.6c0 0.2 0 0.3-0.2 0.4 -0.2 0-0.4 0-0.6 0 -0.2 0-0.3 0-0.6-0.1l-0.5-0.1c-0.1 0-0.7-0.1-0.8-0.1l-0.8-0.1c0 0-0.1 0-0.1 0 -1 0-1.5 0.2-2.4 0.3 -0.5-0.1-1.2-0.1-1.7-0.1L184.1 38.4zM194.7 38.3c-0.3 0-0.4 0.2-0.6 0.2 -0.1 0-0.2-0.1-0.4-0.2 -0.1 0-0.1-0.5-0.1-0.5 0 0 0.3-0.5 0.3-0.6l0.3-0.2h0.4c0.5 0 1 0 1.2-0.4 0.1-0.8 0.1-1.5 0.3-2.2l0.2-0.8v-1.6l0.1-1.6v-1c0-0.1-0.2-0.9-0.2-1.1v-1.6c-0.1-0.2-0.3-0.7-0.5-0.9l-0.5-0.2c-0.4-0.3-0.7-0.6-0.9-1.1 0-0.5 0.5-0.5 0.9-0.6l1.3-0.7c0.4-0.2 0.6-0.2 0.9-0.5l0.5 0c0.1 0 0.4 0 0.5 0 0.1 0 0.7 0.1 0.9 0.2 0.2 0.1 0.2 0.4 0.2 0.7V24l-0.1 0.4c-0.1 1.5-0.1 2.9-0.1 4.5l-0.1 0.6c0 0 0 0.7 0 0.8 0 0.3 0 0.9 0 0.9 0 0.1 0.1 0.4 0.1 0.4v0.4c0 0.1-0.1 1.4-0.1 1.7 0 0.4 0.2 2 0.2 2.4 0 0.3 0.4 0.4 0.5 0.4 0.1 0 1 0.1 1.2 0.1 0.2 0.2 0.3 0.4 0.3 0.7s0 0.7-0.2 0.8c-0.3 0.2-0.6 0.2-1 0.2h-0.3l-0.4-0.2h-2.1c0 0-0.4-0.1-0.5-0.1h-0.5L194.7 38.3zM195.2 15.4l0.5-0.5 0.6-0.4 0.2-0.4c0.3-0.2 0.7-0.2 0.9-0.2h0.2c0.1 0 0.5 0.2 0.6 0.2 0.2 0.1 0.9 0.2 1 0.2 0.2 0.1 0.4 1.2 0.4 1.4 0 0.6-0.1 1.1-0.5 1.5 -0.1 0-0.5 0.2-0.5 0.2 0 0.1-0.4 0.4-0.5 0.5 -0.1 0.2-0.4 0.2-0.7 0.2h-0.7c-0.3 0-0.4 0-0.7-0.2 -0.4-0.6-0.8-1-0.8-1.7L195.2 15.4zM204.7 32.8c0.1 0 0.2 1.2 0.4 1.4 0.3 0.1 0.3 0.1 0.4 0.4l0.6 0.8c0.1 0.3 0.5 0.3 0.7 0.5 0.3 0.4 0.7 0.5 1.3 0.5l0.5-0.1c0.1 0 0.9-0.1 1-0.1 0.2-0.1 0.9-0.3 1-0.4 0.1-0.1 0.8-0.8 1.1-1.1 0.2-0.2 0.2-0.2 0.2-0.5v-0.2c0-0.9-0.3-1.4-1-2 -1.1-1-2.3-1-3.7-1.3 -0.5-0.1-0.8-0.6-1.1-0.9l-1.1-0.6c-1-0.7-0.9-1.9-1.1-3l-0.2-0.6c0-0.7 0.2-1.2 0.5-1.7 0.4-0.1 0.5-0.5 0.8-0.7 0.1-0.1 0.6-0.6 0.6-0.7 0.1-0.1 0.3-0.3 0.3-0.4 0.1 0 0.7-0.3 0.9-0.4 0 0 0.2-0.1 0.3-0.1 0 0 0.2-0.2 0.3-0.2 0.2 0 0.5 0.2 0.7 0.2l1.1-0.2 1.4 0.2 1 0.4c0.2 0 0.6-0.3 0.9-0.3 0 0 0.1 0 0.1 0 0.1 0 0.1 0.1 0.2 0.1 0 0.1 0.1 0.2 0.1 0.2 0 0.4-0.3 0.6-0.3 0.9l0 0.4c0 0.2 0 0.4-0.1 0.5 -0.1 0.6 0.1 2.3-0.8 2.3l-0.2-0.3c-0.1 0-0.1-0.3-0.2-0.3 -0.2-0.2-0.6-1.1-0.7-1.4l-0.2-0.2c-0.4-0.3-0.8-0.4-1.2-0.7 -0.1-0.1-0.3-0.1-0.7-0.1 -0.7 0-2.8 0.6-2.8 1.6l0.1 0.4c0 0.1-0.1 0.5-0.2 0.7 0 0.5 0.3 0.3 0.7 0.7 0.2 0.2 0.1 0.6 0.3 0.9 0.2 0.2 0.8 0.3 1.2 0.3h1c0.4 0 0.9 0.5 1.1 0.5h1l0.5 0.4c1 0.7 1.3 1.2 1.7 2.3 0 0 0.2 0.4 0.2 0.4l-0.2 0.5c0 0.1 0.2 0.7 0.2 0.8v0.6c0 0.7-0.3 2.1-0.8 2.7 -0.1 0.1-0.8 0.9-1 1.1 0 0-0.4 0.2-0.4 0.2l-0.2 0.3 -0.4 0.1c0 0-0.5 0.1-0.6 0.1 -0.2 0.1-0.6 0.4-0.8 0.4 -0.6 0-0.7 0-1-0.1h-0.6c-0.1 0-0.7-0.2-0.7-0.2 -0.1 0-0.6-0.3-0.6-0.3 -0.1 0-0.4-0.1-0.5-0.1l-0.3-0.2c-0.6-0.2-1-0.3-1.7-1.1 0-0.1-0.1-0.2-0.1-0.4 0-0.4 0.1-0.7 0.1-0.9C203.8 34.6 204 32.8 204.7 32.8zM215.3 37l0.5-0.2c0.7-0.2 1.2-0.1 1.7-0.6 0.1-0.1 0.4-0.6 0.4-0.7v-0.3l-0.1-0.7 0.2-1.1c0-0.3-0.1-0.5-0.1-0.8 0-0.1 0.2-0.6 0.2-0.7l-0.1-1.7c0-0.7 0.1-1.3 0.2-1.8v-0.6c0 0 0.1-0.2 0.1-0.3 0-0.2-0.2-0.4-0.3-0.6 -0.1-0.4-0.2-0.7-0.2-1.1l0.2-5.3 0-0.4c-0.1-0.7-0.4-1.4-0.4-2.1l0.2-0.8c-0.2-0.1-0.4-0.9-0.5-1.1l-0.9-0.7c-0.1 0-0.2-0.1-0.2-0.1 -0.5-0.3-0.4-0.3-0.8-0.8 0-0.1 0-0.1 0-0.2 0-0.1 0-0.2 0.1-0.3 0.1-0.2 1-0.5 1-0.6 0 0 0.5-0.1 0.6-0.2 0 0 0.3-0.1 0.4-0.1 0.8-0.3 1.5-0.6 2.5-0.7 0.5 0.2 0.8 0.4 1.1 0.8V16c0 0.1 0.1 0.7 0.1 0.7l-0.3 1.5c0 0.4 0.3 0.6 0.3 1 0 0.4-0.3 0.7-0.3 1v0.1c0.2 0.6 0 1.3 0.2 2 0.2 0.6 0.4 0.9 0.8 1.2 0.6 0 0.7-0.5 1.1-0.7l0.3-0.2h1.2c0.8-0.1 1.6-0.4 2.4-0.4 0.4 0 0.7 0.3 1 0.4 0.1 0 0.4 0.1 0.5 0.2 0.6 0.2 1.6 0.9 1.9 1.7 0 0 0.1 0.5 0.1 0.6v1.2l0.2 0.6c0 0.4 0 0.6-0.1 0.8v2.3l0.2 0.5c0 0.1-0.1 0.5-0.1 0.5 0 0.1-0.1 0.8-0.1 0.9l0 0.7c0 0.2 0.2 0.6 0.3 0.7V35l0.1 0.8c0 0.5 0.2 0.4 0.6 0.7l0.3 0.1c0.5 0.1 0.6 0.1 1.1 0.3 0.1 0.3 0.2 0.3 0.2 0.3 0 0.1 0.1 0.3 0.1 0.4 0 0.2-0.1 0.3-0.3 0.4h0c-0.1 0.1-0.4 0.2-0.6 0.2h-0.5c-0.4 0-0.8-0.2-1.2-0.2l-1 0.2h-2.1l-1.3-0.2c-0.3 0-0.6 0-0.9-0.1 -0.2-0.1-0.2-0.3-0.2-0.5v-0.2c0-0.3 0.2-0.6 0.6-0.6l0.4-0.1c0.4-0.2 1 0 1.4-0.9 0.1-0.1 0.1-0.5 0.1-0.5 0-0.3 0-0.5 0.1-0.6 0 0 0.1-0.2 0.1-0.4l-0.2-0.4v-0.8c0-0.4-0.3-0.8-0.3-1.1v-0.4c0.1-0.9 0.3-2 0.3-2.9 0-0.4-0.1-1-0.3-1.5 0 0-0.1-0.2-0.1-0.2v-0.4c0-0.2-0.3-0.8-0.4-0.9 -0.1 0-0.7-0.3-0.9-0.4l-0.3-0.1c-0.1-0.2-0.8-0.5-0.9-0.7H222c-0.2 0-0.5 0.5-0.6 0.5 -0.3 0.5-0.6 0.8-0.7 1.4l0.3 3.6c0 0.1 0 0.2-0.1 0.4 -0.1 0.2-0.1 0.4-0.1 0.6l0 1 0.2 0.8c0.1 0.4 0.1 0.9 0.1 1.3 0 0.5 0 1-0.1 1.6 0.2 0.3 0.2 0.3 0.7 1.1 0.3 0.4 0.6 0.2 1 0.4 0.1 0 0.2 0.2 0.2 0.4 0 0.3-0.2 0.8-0.4 0.9 -0.3 0.1-0.5 0.3-0.8 0.3 -0.5 0-0.9 0-1.1 0H220l-1.5-0.1c-0.2-0.1-0.2-0.1-0.3-0.1 -0.6 0-1.1 0.4-1.8 0.4l-0.8 0.1c-0.2-0.3-0.4-0.8-0.4-1.3C215.1 37.2 215.3 37 215.3 37z"/></a><a xlink:href="http://www.huertatipografica.com/fonts/alegreya-ht-pro" xlink:show="new"><path fill="#FFFFFF" d="M135.6 63.3c0.1 0.4 0.3 0.8 0.5 0.9 0.2 0.2 0.5 0.3 0.9 0.3l0.1 0.1 -0.1 1.1c-0.3 0-0.6 0-0.8 0 -0.2 0-0.5 0-0.7 0s-0.5 0-0.7 0c-0.4 0-0.8 0-1.2 0 -0.4 0-0.7 0-1 0.1 -0.3 0-0.7 0-1 0.1l-0.1-0.1 0.1-1.1c0.3 0 0.5-0.1 0.7-0.1 0.2 0 0.3-0.1 0.4-0.1 0.1 0 0.2-0.1 0.2-0.2 0-0.1 0.1-0.2 0.1-0.3 0-0.1 0-0.3-0.1-0.6l-0.4-1.4c-0.2 0-0.5 0-0.9 0 -0.3 0-0.6 0-0.8 0 -0.3 0-0.6 0-0.9 0 -0.3 0-0.6 0.1-0.8 0.1l-0.5 1.4c-0.1 0.3-0.1 0.5-0.1 0.6 0 0.2 0.1 0.4 0.2 0.4 0.1 0.1 0.3 0.1 0.7 0.1h0.8l0.1 0.1 -0.1 1.2c-0.3 0-0.6 0-0.9-0.1 -0.3 0-0.6 0-0.9 0 -0.3 0-0.6 0-0.9 0 -0.2 0-0.5 0-0.8 0 -0.3 0-0.5 0-0.7 0 -0.3 0-0.5 0-0.7 0l0.2-1.3c0.3 0 0.5-0.2 0.7-0.3 0.2-0.2 0.4-0.5 0.5-0.9l3.3-9.5 3-0.3 0.2 0.1c0.3 1.2 0.6 2.5 1 3.7 0.1 0.5 0.3 1 0.4 1.6 0.1 0.5 0.3 1.1 0.4 1.6 0.2 0.5 0.3 1 0.4 1.5C135.3 62.4 135.5 62.9 135.6 63.3zM129.4 60.4h1.3c0.2 0 0.4 0 0.7 0 0.3 0 0.5 0 0.7-0.1l-1.1-4.1h-0.3L129.4 60.4zM137.4 64.7c0.2 0 0.4-0.1 0.5-0.2 0.1-0.1 0.2-0.2 0.3-0.3 0.1-0.1 0.1-0.3 0.1-0.4 0-0.2 0-0.4 0-0.6v-8.7c0-0.3 0-0.6-0.1-0.7 -0.1-0.2-0.2-0.3-0.4-0.3 -0.1 0-0.2 0-0.4 0 -0.1 0-0.3 0-0.4 0l0-0.2 0.1-0.9c0.4-0.1 0.9-0.1 1.3-0.2 0.5-0.1 0.9-0.1 1.2-0.2 0.4-0.1 0.9-0.1 1.3-0.2l0.1 0.4c-0.1 0.1-0.2 0.5-0.2 1.1 -0.1 0.6-0.1 1.5-0.2 2.5 0 1-0.1 2.2-0.1 3.6 0 1.4 0 2.8 0 4.4 0 0.3 0 0.5 0.1 0.7s0.2 0.2 0.4 0.2c0 0 0.1 0 0.2 0 0.1 0 0.1 0 0.2 0 0.1 0 0.2 0 0.3 0l0 0.1 -0.2 1.1c-0.3 0-0.5 0-0.8 0 -0.2 0-0.5 0-0.7 0 -0.2 0-0.5 0-0.6 0 -0.2 0-0.5 0-0.7 0 -0.2 0-0.5 0-0.7 0.1 -0.2 0-0.5 0-0.7 0.1L137.4 64.7zM144.8 61.3v0.2c0 0.8 0.3 1.5 0.7 1.9 0.4 0.4 1 0.7 1.7 0.7 0.3 0 0.6 0 0.8-0.1 0.3-0.1 0.5-0.1 0.7-0.2 0.2-0.1 0.5-0.2 0.7-0.3l0.1 0.1 0.3 1c-0.4 0.3-0.7 0.5-1.1 0.7 -0.3 0.2-0.7 0.3-1 0.5 -0.4 0.1-0.7 0.2-1.1 0.2 -0.7 0-1.3-0.1-1.8-0.3 -0.5-0.2-1-0.5-1.3-0.9 -0.4-0.4-0.6-0.8-0.8-1.4 -0.2-0.5-0.3-1.1-0.3-1.8 0-0.7 0.1-1.3 0.3-1.9 0.2-0.6 0.5-1.1 0.9-1.5 0.4-0.4 0.9-0.8 1.4-1 0.5-0.2 1.1-0.4 1.8-0.4 2.1 0 3.1 1.1 3.1 3.2 0 0.1 0 0.3 0 0.4 0 0.1 0 0.2-0.1 0.3 0 0.1 0 0.2-0.1 0.3l-0.2 0.2H144.8zM147.3 60.2c0.1 0 0.2-0.1 0.3-0.1 0 0 0.1-0.2 0.1-0.3 0-0.9-0.4-1.4-1.2-1.4 -0.5 0-0.9 0.2-1.2 0.5 -0.3 0.3-0.5 0.8-0.5 1.5L147.3 60.2zM154.9 63.4c-0.2 0-0.4 0-0.6 0 -0.2 0-0.4-0.1-0.6-0.1 -0.3 0.2-0.5 0.4-0.5 0.6 0 0.4 0.6 0.7 1.8 0.7 0.8 0 1.5 0.1 2.1 0.2 0.6 0.1 1 0.2 1.4 0.4 0.4 0.2 0.6 0.4 0.8 0.7 0.2 0.3 0.2 0.6 0.2 1 0 0.4-0.1 0.9-0.4 1.3 -0.3 0.4-0.6 0.8-1.1 1.1 -0.5 0.3-1 0.6-1.6 0.8 -0.6 0.2-1.2 0.3-1.9 0.3 -1 0-1.8-0.2-2.4-0.7s-0.9-1.1-0.9-1.9c0.1-0.2 0.3-0.3 0.5-0.5 0.2-0.2 0.4-0.3 0.6-0.4 0.2-0.2 0.5-0.3 0.7-0.5v-0.1c-0.6-0.1-1.1-0.3-1.4-0.7 -0.4-0.3-0.5-0.8-0.5-1.2 0.1-0.1 0.3-0.3 0.5-0.4 0.2-0.2 0.4-0.3 0.5-0.4 0.2-0.1 0.4-0.3 0.6-0.4v-0.1c-0.4-0.2-0.8-0.6-1-1 -0.2-0.4-0.4-1-0.4-1.5 0-0.5 0.1-0.9 0.3-1.4 0.2-0.4 0.5-0.8 0.8-1.1 0.3-0.3 0.8-0.5 1.2-0.7s1-0.3 1.6-0.3c0.4 0 0.7 0 1 0.1 0.3 0.1 0.6 0.1 0.9 0.1 0.2 0 0.5-0.1 0.8-0.1 0.3-0.1 0.6-0.1 0.9-0.2 0.3-0.1 0.6-0.2 1-0.3l0.1 0.1 -0.2 1.4c-0.1 0-0.3 0-0.4 0.1 -0.1 0-0.3 0-0.4 0 -0.2 0-0.3 0-0.5 0l-0.1 0.1c0.5 0.5 0.7 1.1 0.7 1.8 0 0.5-0.1 0.9-0.3 1.3 -0.2 0.4-0.5 0.8-0.8 1.1 -0.4 0.3-0.8 0.5-1.3 0.7C156 63.3 155.4 63.4 154.9 63.4zM155.3 68.9c0.3 0 0.6 0 0.8-0.1 0.3-0.1 0.5-0.2 0.7-0.3 0.2-0.1 0.3-0.3 0.5-0.4 0.1-0.2 0.2-0.3 0.2-0.5 0-0.2 0-0.3-0.1-0.4 -0.1-0.1-0.2-0.2-0.4-0.3 -0.2-0.1-0.5-0.2-0.9-0.2 -0.4-0.1-1-0.2-1.6-0.3 -0.1 0.1-0.3 0.3-0.4 0.4 -0.1 0.1-0.2 0.3-0.2 0.4 -0.1 0.2-0.1 0.3-0.1 0.5 0 0.4 0.2 0.7 0.5 0.9C154.3 68.7 154.7 68.9 155.3 68.9zM155.2 62.1c0.4 0 0.8-0.2 1-0.5 0.2-0.3 0.4-0.8 0.4-1.4 0-0.6-0.1-1.1-0.4-1.5 -0.3-0.3-0.7-0.5-1.2-0.5 -0.4 0-0.8 0.2-1 0.5 -0.2 0.3-0.3 0.8-0.3 1.4 0 0.6 0.1 1.1 0.4 1.5C154.3 61.9 154.7 62.1 155.2 62.1zM160.8 64.6c0.4 0 0.6-0.1 0.8-0.3 0.1-0.2 0.2-0.5 0.2-1v-3.7c0-0.4-0.1-0.7-0.2-0.9 -0.1-0.1-0.3-0.2-0.6-0.2 0 0-0.1 0-0.1 0 0 0-0.1 0-0.1 0h-0.1l-0.1-0.1 0.1-1c0.4-0.1 0.8-0.1 1.2-0.2 0.4-0.1 0.8-0.1 1.1-0.2 0.4-0.1 0.8-0.1 1.1-0.2l0.2 0.2 -0.1 0.6c0 0.2 0 0.4-0.1 0.6 0 0.2 0 0.4 0 0.6l0.1 0.1c0.4-0.6 0.8-1 1.3-1.4 0.5-0.3 0.9-0.5 1.3-0.5 0.1 0 0.2 0 0.2 0 0.1 0 0.1 0 0.2 0 0.1 0 0.1 0 0.2 0l0.1 0.1c-0.1 0.4-0.1 0.8-0.2 1.1 -0.1 0.3-0.1 0.7-0.1 1.1 0 0.4-0.1 0.8-0.1 1.2l-1.2 0.1c0-0.6 0-1-0.1-1.2 -0.1-0.2-0.2-0.3-0.4-0.3 -0.2 0-0.4 0.1-0.6 0.2 -0.2 0.1-0.4 0.3-0.6 0.6 0 0.6-0.1 1.2-0.1 1.7 0 0.4 0 0.8-0.1 1.2s0 0.6 0 0.7c0 0.3 0 0.5 0.1 0.7 0.1 0.1 0.3 0.2 0.6 0.2 0.1 0 0.2 0 0.3 0 0.1 0 0.2 0 0.3 0 0.1 0 0.2 0 0.3 0l0.1 0.1 -0.2 1.3c-0.3 0-0.6 0-0.9 0 -0.2 0-0.5 0-0.8 0 -0.3 0-0.5 0-0.8 0 -0.3 0-0.6 0-0.9 0 -0.3 0-0.5 0-0.8 0 -0.3 0-0.5 0-0.7 0L160.8 64.6zM170.6 61.3v0.2c0 0.8 0.3 1.5 0.7 1.9 0.4 0.4 1 0.7 1.7 0.7 0.3 0 0.6 0 0.8-0.1 0.3-0.1 0.5-0.1 0.7-0.2 0.2-0.1 0.5-0.2 0.7-0.3l0.1 0.1 0.3 1c-0.4 0.3-0.7 0.5-1.1 0.7 -0.3 0.2-0.7 0.3-1 0.5 -0.4 0.1-0.7 0.2-1.1 0.2 -0.7 0-1.3-0.1-1.8-0.3 -0.5-0.2-1-0.5-1.3-0.9 -0.4-0.4-0.6-0.8-0.8-1.4 -0.2-0.5-0.3-1.1-0.3-1.8 0-0.7 0.1-1.3 0.3-1.9 0.2-0.6 0.5-1.1 0.9-1.5 0.4-0.4 0.9-0.8 1.4-1 0.5-0.2 1.1-0.4 1.8-0.4 2.1 0 3.1 1.1 3.1 3.2 0 0.1 0 0.3 0 0.4 0 0.1 0 0.2-0.1 0.3 0 0.1 0 0.2-0.1 0.3l-0.2 0.2H170.6zM173.1 60.2c0.1 0 0.2-0.1 0.3-0.1s0.1-0.2 0.1-0.3c0-0.9-0.4-1.4-1.2-1.4 -0.5 0-0.9 0.2-1.2 0.5 -0.3 0.3-0.5 0.8-0.5 1.5L173.1 60.2zM181 63.3c0.2-0.5 0.4-1 0.6-1.5 0.2-0.5 0.4-1 0.5-1.4 0.2-0.4 0.3-0.8 0.4-1.1 0.1-0.3 0.2-0.5 0.2-0.6 0-0.1 0-0.3-0.1-0.3 -0.1-0.1-0.2-0.1-0.4-0.1h-0.6l-0.1-0.1 0.2-1.1c0.2 0 0.4 0 0.7 0 0.2 0 0.4 0 0.6 0 0.2 0 0.5 0 0.7 0h1.7l-0.2 1.1c-0.3 0.1-0.5 0.2-0.6 0.3 -0.1 0.1-0.2 0.3-0.4 0.6l-2.4 5.8c-0.4 0.9-0.8 1.8-1.1 2.4 -0.4 0.7-0.7 1.2-1.1 1.7 -0.4 0.4-0.7 0.7-1.1 0.9 -0.4 0.2-0.8 0.3-1.2 0.3 -0.1 0-0.2-0.1-0.4-0.2 -0.2-0.1-0.3-0.3-0.5-0.4 -0.2-0.2-0.3-0.3-0.4-0.5 -0.1-0.2-0.2-0.3-0.2-0.4l0.1-0.2c0.8-0.1 1.5-0.3 2.2-0.8 0.6-0.5 1.2-1.1 1.6-1.8 -0.2-0.5-0.4-1-0.6-1.6 -0.2-0.6-0.5-1.3-0.7-1.9s-0.5-1.3-0.7-1.9c-0.2-0.6-0.4-1.1-0.6-1.4 -0.1-0.3-0.3-0.5-0.5-0.6 -0.2-0.1-0.4-0.2-0.6-0.2l0-0.1 0.1-1.1h1.5c0.3 0 0.6 0 1 0 0.3 0 0.7 0 0.9 0 0.3 0 0.6 0 1-0.1l0 0.1 -0.2 1.1c-0.4 0-0.6 0.1-0.7 0.1 -0.1 0.1-0.2 0.2-0.2 0.3 0 0.1 0 0.2 0.1 0.4 0 0.2 0.1 0.4 0.1 0.6 0.1 0.2 0.1 0.5 0.2 0.8 0.1 0.3 0.2 0.5 0.2 0.8 0.2 0.6 0.4 1.3 0.6 2.1H181zM190.3 60.3c0-0.5-0.1-1-0.4-1.2 -0.3-0.3-0.7-0.4-1.2-0.4 -0.3 0-0.6 0-0.8 0.1 -0.3 0.1-0.5 0.2-0.7 0.3 -0.2 0.1-0.5 0.3-0.7 0.4l-0.2-0.1 -0.3-1.1c0.5-0.3 0.9-0.5 1.4-0.7 0.4-0.2 0.8-0.3 1.2-0.5 0.4-0.2 0.7-0.2 0.9-0.2 0.5 0 1 0.1 1.4 0.2 0.4 0.1 0.7 0.3 1 0.5 0.3 0.2 0.4 0.5 0.6 0.8 0.1 0.3 0.2 0.6 0.2 1 0 0.2 0 0.4-0.1 0.8 0 0.3-0.1 0.7-0.1 1.1 -0.1 0.4-0.1 0.8-0.1 1.1 0 0.4-0.1 0.7-0.1 0.9 0 0.2 0.1 0.4 0.2 0.5 0.1 0.1 0.3 0.2 0.5 0.2 0.1 0 0.2 0 0.3 0 0.1 0 0.2-0.1 0.3-0.1 0.1 0 0.2-0.1 0.3-0.2l0.3 0.4c-0.2 0.3-0.4 0.6-0.6 0.8 -0.2 0.2-0.4 0.4-0.6 0.6 -0.2 0.2-0.4 0.3-0.7 0.4 -1.1 0-1.8-0.5-1.9-1.4l-0.2-0.1c-0.4 0.4-0.8 0.7-1.1 1 -0.4 0.3-0.7 0.4-0.9 0.4 -0.4 0-0.7-0.1-1-0.2 -0.3-0.1-0.6-0.3-0.8-0.6 -0.2-0.2-0.4-0.5-0.5-0.9 -0.1-0.3-0.2-0.7-0.2-1.1 0-0.4 0.1-0.7 0.3-1 0.2-0.3 0.5-0.5 0.8-0.5l3.6-0.8L190.3 60.3zM190.3 61.8l-2 0.5c-0.3 0.1-0.4 0.3-0.4 0.6 0 0.3 0.1 0.6 0.3 0.8 0.2 0.2 0.4 0.3 0.7 0.3 0.2 0 0.4 0 0.6-0.1 0.2-0.1 0.5-0.2 0.7-0.4L190.3 61.8zM200.8 65.7c-0.3 0-0.6 0-0.9 0 -0.3 0-0.6 0-0.9 0.1 -0.3 0-0.6 0.1-1 0.1l0.1-1.3c0.5-0.1 0.9-0.2 1.1-0.4 0.2-0.2 0.3-0.6 0.3-1l0-7.3c0-0.3 0-0.6-0.1-0.7 -0.1-0.1-0.2-0.2-0.5-0.2 -0.1 0-0.1 0-0.2 0 -0.1 0-0.1 0-0.2 0 -0.1 0-0.1 0-0.2 0l-0.1-0.1 0.2-1.1c0.4 0 0.7 0 1 0 0.3 0 0.6 0 0.9 0 0.3 0 0.5 0 0.7 0 0.2 0 0.4 0 0.7 0 0.3 0 0.6 0 1 0 0.4 0 0.8 0 1.2-0.1 1.3 0 2.3 0.2 3 0.7 0.7 0.5 1 1.2 1 2.2 0 0.7-0.2 1.2-0.6 1.7 -0.4 0.5-0.9 0.9-1.5 1.2 0.7 0.2 1.4 0.5 1.9 1 0.5 0.4 0.8 1.1 0.8 1.8 0 0.6-0.1 1.1-0.3 1.5 -0.2 0.5-0.6 0.9-1 1.2 -0.4 0.3-0.9 0.6-1.5 0.8 -0.6 0.2-1.3 0.3-2 0.3 -0.2 0-0.4 0-0.6 0 -0.2 0-0.5 0-0.7-0.1 -0.3 0-0.5 0-0.7-0.1C201.2 65.7 201 65.7 200.8 65.7zM202 60.5l-0.1 2.7c0 0.4 0.1 0.7 0.4 0.9 0.3 0.2 0.7 0.3 1.4 0.3 0.6 0 1.1-0.2 1.4-0.5 0.3-0.3 0.5-0.8 0.5-1.4 0-1-0.6-1.7-1.9-2L202 60.5zM202.1 58.8c0.3 0 0.5 0.1 0.7 0.1 0.2 0 0.4 0 0.6 0.1 0.2 0 0.3 0 0.4 0 0.2-0.1 0.4-0.2 0.6-0.4 0.2-0.2 0.3-0.4 0.5-0.6 0.1-0.3 0.2-0.6 0.2-1 0-0.6-0.2-1.1-0.6-1.4 -0.4-0.3-1.1-0.4-2-0.4 -0.1 0-0.2 0-0.3 0.1 0 0-0.1 0.1-0.1 0.3 0 0.3 0 0.5-0.1 0.8 0 0.3 0 0.6 0 0.9 0 0.3 0 0.6 0 0.9S202.1 58.6 202.1 58.8zM213.6 66c-0.6 0-1.1-0.1-1.6-0.3 -0.5-0.2-0.9-0.5-1.3-0.9 -0.3-0.4-0.6-0.8-0.8-1.3 -0.2-0.5-0.3-1.1-0.3-1.8 0-0.7 0.1-1.4 0.3-2 0.2-0.6 0.5-1.1 0.9-1.5 0.4-0.4 0.9-0.8 1.4-1 0.6-0.2 1.2-0.3 1.8-0.3 0.6 0 1.2 0.1 1.6 0.3 0.5 0.2 0.9 0.5 1.2 0.9 0.3 0.4 0.6 0.8 0.8 1.3 0.2 0.5 0.3 1.1 0.3 1.8 0 0.7-0.1 1.4-0.3 2 -0.2 0.6-0.5 1.1-0.9 1.5 -0.4 0.4-0.9 0.8-1.4 1C214.8 65.8 214.2 66 213.6 66zM213.9 64.5c1.1 0 1.6-0.8 1.6-2.5 0-1.2-0.2-2.1-0.5-2.7 -0.3-0.6-0.8-0.9-1.4-0.9 -1.1 0-1.6 0.8-1.6 2.5 0 1.2 0.2 2.1 0.5 2.7C212.9 64.2 213.3 64.5 213.9 64.5zM219 64.7c0.2 0 0.4-0.1 0.5-0.2 0.1-0.1 0.2-0.2 0.3-0.3 0.1-0.1 0.1-0.3 0.1-0.4s0-0.4 0-0.6v-8.7c0-0.3 0-0.6-0.1-0.7 -0.1-0.2-0.2-0.3-0.4-0.3 -0.1 0-0.2 0-0.4 0 -0.1 0-0.3 0-0.4 0l0-0.2 0.1-0.9c0.4-0.1 0.9-0.1 1.3-0.2 0.5-0.1 0.9-0.1 1.2-0.2 0.4-0.1 0.9-0.1 1.3-0.2l0.1 0.4c-0.1 0.1-0.2 0.5-0.2 1.1 -0.1 0.6-0.1 1.5-0.2 2.5 0 1-0.1 2.2-0.1 3.6 0 1.4 0 2.8 0 4.4 0 0.3 0 0.5 0.1 0.7 0.1 0.1 0.2 0.2 0.4 0.2 0 0 0.1 0 0.2 0 0.1 0 0.1 0 0.2 0 0.1 0 0.2 0 0.3 0l0 0.1 -0.2 1.1c-0.3 0-0.5 0-0.8 0 -0.2 0-0.5 0-0.7 0 -0.2 0-0.5 0-0.6 0 -0.2 0-0.5 0-0.7 0 -0.2 0-0.5 0-0.7 0.1 -0.2 0-0.5 0-0.7 0.1L219 64.7zM229.7 64.6c-1.2 0.9-1.9 1.3-2.2 1.3 -0.5 0-1-0.1-1.5-0.3 -0.4-0.2-0.8-0.5-1.1-0.8 -0.3-0.4-0.5-0.8-0.7-1.3 -0.2-0.5-0.3-1.1-0.3-1.7 0-0.7 0.1-1.4 0.4-2 0.2-0.6 0.6-1.1 1-1.5 0.4-0.4 0.9-0.8 1.5-1 0.6-0.2 1.2-0.4 1.9-0.4 0.1 0 0.3 0 0.4 0 0.2 0 0.3 0 0.5 0v-2.4c0-0.4-0.1-0.7-0.2-0.8 -0.1-0.2-0.3-0.2-0.6-0.2 -0.1 0-0.2 0-0.3 0 0 0-0.1 0-0.2 0l0.1-1.1c0.4-0.1 0.9-0.1 1.3-0.2 0.4-0.1 0.8-0.1 1.2-0.2 0.4-0.1 0.8-0.1 1.2-0.2l0.2 0.3c-0.1 0.1-0.2 0.5-0.2 1.2 -0.1 0.6-0.1 1.5-0.2 2.5 0 1-0.1 2.2-0.1 3.4 0 1.3 0 2.6 0 4 0 0.2 0.1 0.4 0.2 0.6 0.1 0.1 0.3 0.2 0.4 0.2 0.1 0 0.2 0 0.3 0 0.1 0 0.2-0.1 0.3-0.1 0.1 0 0.2-0.1 0.3-0.2l0.3 0.4c-0.2 0.3-0.4 0.6-0.6 0.8 -0.2 0.2-0.4 0.4-0.6 0.6 -0.2 0.2-0.5 0.4-0.7 0.4 -1.1 0-1.7-0.4-1.9-1.3L229.7 64.6zM229.6 58.8c-0.1 0-0.2-0.1-0.4-0.2 -0.1 0-0.3-0.1-0.4-0.1 -0.2 0-0.3-0.1-0.5-0.1 -0.6 0-1.1 0.2-1.4 0.7 -0.3 0.4-0.5 1.1-0.5 1.9 0 0.9 0.2 1.7 0.5 2.2 0.3 0.5 0.8 0.8 1.3 0.8 0.2 0 0.3 0 0.5-0.1 0.2-0.1 0.3-0.1 0.4-0.2 0.2-0.1 0.3-0.2 0.4-0.3V58.8zM113.3 86.1c0.1 0.2 0.2 0.4 0.3 0.6s0.2 0.3 0.3 0.4c0.1 0.1 0.3 0.2 0.5 0.2 0.2 0.1 0.4 0.1 0.7 0.1l0 0.1 -0.1 0.8c-0.3 0-0.5 0-0.7 0 -0.2 0-0.4 0-0.7 0s-0.4 0-0.6 0c-0.4 0-0.7 0-1 0 -0.3 0-0.6 0-0.9 0.1 -0.3 0-0.6 0.1-0.9 0.1l-0.1-0.1 0.1-0.7c0.6 0 1.1-0.1 1.3-0.2 0.2-0.1 0.3-0.3 0.3-0.5 0-0.2-0.1-0.5-0.2-0.9l-0.6-2c-0.1 0-0.3 0-0.4 0 -0.2 0-0.3 0-0.5 0s-0.4 0-0.5 0c-0.2 0-0.3 0-0.5 0 -0.4 0-0.7 0-1.1 0.1 -0.4 0-0.7 0.1-0.9 0.1l-0.7 1.9c-0.1 0.3-0.2 0.6-0.2 0.7 0 0.3 0.1 0.5 0.3 0.6 0.2 0.1 0.5 0.2 0.9 0.2h1.1l0 0.1 -0.1 0.8c-0.3 0-0.6 0-0.8-0.1 -0.2 0-0.5 0-0.8-0.1 -0.3 0-0.6 0-0.9 0 -0.2 0-0.5 0-0.7 0s-0.5 0-0.7 0c-0.2 0-0.5 0-0.7 0l0.1-0.9c0.3 0 0.6-0.2 0.8-0.4 0.2-0.2 0.4-0.6 0.6-1.1l3.7-9.6 1.2-0.3h0.1c0.3 1.1 0.6 2.3 1 3.4 0.1 0.5 0.3 1 0.4 1.6 0.2 0.5 0.3 1.1 0.5 1.7 0.2 0.6 0.4 1.1 0.5 1.7C112.9 85 113.1 85.6 113.3 86.1zM107.4 83.1h1.6c0.2 0 0.5 0 0.9 0 0.3 0 0.6 0 0.8-0.1l-1.5-4.9h-0.1L107.4 83.1zM115.4 87.7c0.3-0.1 0.5-0.2 0.6-0.3 0.1-0.1 0.2-0.2 0.3-0.4 0.1-0.2 0.1-0.3 0.1-0.6 0-0.2 0-0.5 0-0.8v-9.2c0-0.7-0.2-1-0.7-1 -0.1 0-0.2 0-0.3 0 0 0-0.1 0-0.1 0 0-0.1 0-0.1 0-0.2 0 0 0-0.1 0-0.2l0-0.4c0.3 0 0.7-0.1 1-0.1 0.3-0.1 0.6-0.1 0.9-0.2 0.3-0.1 0.6-0.1 0.9-0.2l0.1 0.2c0 0.1-0.1 0.3-0.1 0.6 0 0.3-0.1 0.8-0.1 1.4 0 0.6-0.1 1.2-0.1 2 0 0.7-0.1 1.5-0.1 2.4 0 0.9 0 1.7-0.1 2.7 0 0.9 0 1.8 0 2.8 0 0.4 0 0.6 0.1 0.8 0.1 0.2 0.3 0.2 0.5 0.2 0.1 0 0.1 0 0.2 0 0.1 0 0.1 0 0.2 0 0.1 0 0.2 0 0.2 0l0 0.1 -0.2 0.8c-0.2 0-0.4 0-0.6 0 -0.2 0-0.4 0-0.5 0 -0.2 0-0.4 0-0.5 0 -0.2 0-0.4 0-0.6 0 -0.2 0-0.4 0-0.6 0.1 -0.2 0-0.4 0.1-0.7 0.1L115.4 87.7zM121.5 83.4v0.3c0 0.5 0.1 1 0.2 1.4 0.1 0.4 0.3 0.8 0.6 1.1 0.2 0.3 0.5 0.5 0.9 0.7 0.3 0.2 0.7 0.3 1.1 0.3 0.3 0 0.6 0 0.9-0.1 0.3-0.1 0.5-0.1 0.7-0.2 0.2-0.1 0.5-0.2 0.7-0.3l0.1 0 0.2 0.5c-0.3 0.2-0.7 0.4-1 0.6 -0.3 0.2-0.6 0.3-0.9 0.4 -0.3 0.1-0.6 0.2-0.9 0.2 -0.6 0-1.1-0.1-1.6-0.3 -0.5-0.2-0.9-0.5-1.2-0.8 -0.3-0.4-0.6-0.8-0.8-1.3 -0.2-0.5-0.3-1.1-0.3-1.7 0-0.6 0.1-1.2 0.3-1.8 0.2-0.6 0.5-1.1 0.9-1.5 0.4-0.4 0.8-0.8 1.3-1 0.5-0.3 1-0.4 1.6-0.4 1.9 0 2.8 0.9 2.8 2.7 0 0.3 0 0.4 0 0.5 0 0.1 0 0.2-0.1 0.4l-0.2 0.2H121.5zM125 82.5c0.2 0 0.3-0.1 0.4-0.1 0.1-0.1 0.1-0.2 0.1-0.4 0-0.5-0.1-0.9-0.4-1.1 -0.3-0.3-0.7-0.4-1.2-0.4 -0.6 0-1.1 0.2-1.5 0.6 -0.4 0.4-0.7 0.9-0.8 1.6L125 82.5zM132.1 85.8c-0.2 0-0.3 0-0.5 0 -0.2 0-0.4-0.1-0.6-0.1 -0.5 0.3-0.8 0.6-0.8 0.8 0 0.3 0.2 0.5 0.5 0.7 0.4 0.1 0.9 0.2 1.7 0.3 1.4 0.1 2.5 0.3 3.1 0.6 0.6 0.3 0.9 0.8 0.9 1.4 0 0.4-0.1 0.9-0.4 1.3 -0.3 0.4-0.6 0.8-1 1.1 -0.4 0.3-0.9 0.6-1.5 0.8 -0.6 0.2-1.1 0.3-1.7 0.3 -0.9 0-1.6-0.2-2.1-0.7 -0.5-0.4-0.7-1-0.7-1.8 0.1-0.2 0.3-0.4 0.5-0.6 0.2-0.2 0.4-0.4 0.6-0.5 0.2-0.2 0.5-0.4 0.7-0.5v-0.1c-0.3 0-0.6-0.1-0.8-0.2 -0.2-0.1-0.5-0.2-0.6-0.4 -0.2-0.2-0.3-0.3-0.4-0.6 -0.1-0.2-0.2-0.4-0.2-0.6 0.1-0.1 0.3-0.3 0.5-0.4 0.2-0.1 0.4-0.3 0.5-0.4 0.2-0.1 0.4-0.3 0.6-0.4v-0.1c-0.4-0.2-0.8-0.6-1-1 -0.2-0.4-0.4-0.9-0.4-1.5 0-0.4 0.1-0.9 0.3-1.3 0.2-0.4 0.4-0.8 0.8-1.1 0.3-0.3 0.7-0.5 1.1-0.7 0.4-0.2 0.9-0.3 1.3-0.3 0.4 0 0.7 0 1 0.1 0.3 0.1 0.6 0.1 0.8 0.1 0.2 0 0.5-0.1 0.8-0.1 0.3-0.1 0.6-0.1 0.8-0.2 0.3-0.1 0.6-0.2 0.9-0.2l0.1 0.1 -0.2 1c-0.2 0-0.3 0-0.5 0.1 -0.1 0-0.3 0-0.5 0.1 -0.2 0-0.4 0-0.6 0l-0.1 0.1c0.5 0.6 0.7 1.2 0.7 1.9 0 0.5-0.1 0.9-0.3 1.3 -0.2 0.4-0.5 0.8-0.8 1.1 -0.3 0.3-0.7 0.5-1.2 0.7C133.1 85.7 132.6 85.8 132.1 85.8zM132.5 85c0.6 0 1-0.2 1.4-0.5 0.3-0.4 0.5-0.9 0.5-1.5 0-0.7-0.2-1.3-0.6-1.8 -0.4-0.4-0.9-0.7-1.6-0.7 -0.6 0-1 0.2-1.4 0.6 -0.3 0.4-0.5 0.9-0.5 1.5 0 0.7 0.2 1.3 0.6 1.8C131.4 84.7 131.9 85 132.5 85zM132.5 91.8c0.4 0 0.7 0 1-0.1 0.3-0.1 0.6-0.2 0.9-0.4 0.3-0.2 0.5-0.4 0.6-0.6 0.1-0.2 0.2-0.5 0.2-0.7 0-0.2 0-0.3-0.2-0.5 -0.1-0.1-0.3-0.2-0.6-0.3 -0.3-0.1-0.6-0.2-1.1-0.3 -0.5-0.1-1.1-0.2-1.8-0.3 -0.2 0.2-0.4 0.4-0.6 0.5 -0.1 0.2-0.3 0.3-0.4 0.5 -0.1 0.2-0.2 0.4-0.2 0.6 0 0.5 0.2 0.8 0.5 1.1C131.3 91.7 131.8 91.8 132.5 91.8zM139.1 87.2c0.1-0.2 0.2-0.6 0.2-1.2v-4.1c0-0.4-0.1-0.7-0.2-0.9 -0.1-0.2-0.3-0.3-0.5-0.3 -0.1 0-0.2 0-0.3 0 0 0-0.1 0-0.1 0l-0.1-0.1 0.1-0.6c0.3 0 0.6-0.1 0.9-0.2 0.3-0.1 0.6-0.1 0.8-0.2 0.3-0.1 0.6-0.1 0.8-0.2l0.1 0.1c0 0.2-0.1 0.4-0.1 0.6 0 0.2 0 0.4-0.1 0.6 0 0.2 0 0.5 0 0.7l0.1 0.1c0.2-0.3 0.4-0.6 0.6-0.8 0.2-0.2 0.5-0.5 0.7-0.6 0.2-0.2 0.5-0.3 0.7-0.4s0.4-0.2 0.6-0.2c0.2 0 0.3 0 0.4 0 0 0 0.1 0 0.1 0l0.1 0.1 -0.1 0.9c0 0.3-0.1 0.5-0.1 0.9 0 0.3-0.1 0.6-0.1 0.9l-0.7 0.1c0-0.5 0-0.9-0.1-1 -0.1-0.2-0.2-0.3-0.4-0.3 -0.3 0-0.6 0.1-0.9 0.3s-0.6 0.5-0.9 0.9c0 0.6 0 1.2-0.1 1.8 0 0.2 0 0.5 0 0.7 0 0.2 0 0.4 0 0.6 0 0.2 0 0.3 0 0.5 0 0.1 0 0.2 0 0.3 0 0.4 0.1 0.7 0.2 0.9 0.1 0.1 0.4 0.2 0.7 0.2 0.1 0 0.1 0 0.2 0s0.2 0 0.3 0c0.1 0 0.2 0 0.3 0l0 0.1 -0.2 0.8c-0.2 0-0.4 0-0.7 0 -0.2 0-0.4 0-0.6 0s-0.4 0-0.6 0c-0.3 0-0.5 0-0.8 0 -0.2 0-0.4 0-0.6 0 -0.2 0-0.4 0-0.6 0l0.1-0.7C138.7 87.5 139 87.4 139.1 87.2zM146.5 83.4v0.3c0 0.5 0.1 1 0.2 1.4 0.1 0.4 0.3 0.8 0.6 1.1 0.2 0.3 0.5 0.5 0.9 0.7s0.7 0.3 1.1 0.3c0.3 0 0.6 0 0.9-0.1 0.3-0.1 0.5-0.1 0.7-0.2 0.2-0.1 0.5-0.2 0.7-0.3l0.1 0 0.2 0.5c-0.3 0.2-0.7 0.4-1 0.6 -0.3 0.2-0.6 0.3-0.9 0.4 -0.3 0.1-0.6 0.2-0.9 0.2 -0.6 0-1.1-0.1-1.6-0.3 -0.5-0.2-0.9-0.5-1.2-0.8 -0.3-0.4-0.6-0.8-0.8-1.3 -0.2-0.5-0.3-1.1-0.3-1.7 0-0.6 0.1-1.2 0.3-1.8 0.2-0.6 0.5-1.1 0.9-1.5 0.4-0.4 0.8-0.8 1.3-1 0.5-0.3 1-0.4 1.6-0.4 1.9 0 2.8 0.9 2.8 2.7 0 0.3 0 0.4 0 0.5 0 0.1 0 0.2-0.1 0.4l-0.2 0.2H146.5zM150 82.5c0.2 0 0.3-0.1 0.4-0.1 0.1-0.1 0.1-0.2 0.1-0.4 0-0.5-0.1-0.9-0.4-1.1 -0.3-0.3-0.7-0.4-1.2-0.4 -0.6 0-1.1 0.2-1.5 0.6 -0.4 0.4-0.7 0.9-0.8 1.6L150 82.5zM157.1 86.5c0.2-0.5 0.4-1.1 0.7-1.7 0.3-0.6 0.5-1.2 0.7-1.8 0.2-0.6 0.4-1 0.6-1.4 0.2-0.4 0.2-0.7 0.2-0.8 0-0.3-0.2-0.5-0.7-0.5h-0.9l0-0.1 0.1-0.6c0.2 0 0.4 0 0.6 0 0.2 0 0.4 0 0.6 0 0.2 0 0.5 0 0.7 0h1c0.2 0 0.4 0 0.5 0l-0.1 0.7c-0.3 0.1-0.5 0.2-0.6 0.3 -0.1 0.2-0.3 0.4-0.4 0.8l-2.4 5.7c-0.5 1.1-0.9 2-1.2 2.7 -0.3 0.7-0.7 1.3-1 1.7 -0.3 0.4-0.6 0.7-0.9 0.9 -0.3 0.2-0.7 0.2-1.1 0.2 0 0-0.1 0-0.2-0.1 -0.1-0.1-0.2-0.2-0.3-0.3s-0.2-0.2-0.2-0.4c-0.1-0.1-0.1-0.2-0.1-0.3l0.1-0.1c0.7 0 1.4-0.3 2.1-0.9 0.6-0.6 1.2-1.4 1.6-2.4 -0.2-0.5-0.3-1-0.5-1.6 -0.2-0.6-0.4-1.2-0.6-1.9 -0.2-0.6-0.4-1.3-0.7-1.9s-0.4-1.1-0.6-1.6c-0.1-0.3-0.3-0.5-0.5-0.7 -0.2-0.1-0.4-0.2-0.8-0.2l0-0.1 0.1-0.6c0.2 0 0.4 0 0.6 0h0.9c0.3 0 0.5 0 0.8 0 0.3 0 0.5 0 0.7 0 0.2 0 0.5 0 0.7-0.1l0 0.1 -0.1 0.6c-0.4 0-0.7 0.1-0.9 0.1 -0.1 0.1-0.2 0.2-0.2 0.4 0 0.1 0 0.2 0.1 0.4 0 0.2 0.1 0.4 0.2 0.7 0.1 0.3 0.2 0.6 0.3 0.9 0.1 0.3 0.2 0.7 0.3 1C156.4 84.7 156.7 85.5 157.1 86.5L157.1 86.5zM166.5 82.7c0-0.6-0.1-1.1-0.4-1.5 -0.3-0.3-0.7-0.5-1.2-0.5 -0.3 0-0.6 0-0.9 0.2 -0.3 0.1-0.5 0.2-0.7 0.3 -0.2 0.1-0.5 0.3-0.7 0.5l-0.1-0.1 -0.2-0.8c0.4-0.2 0.8-0.5 1.2-0.7 0.3-0.2 0.7-0.3 1-0.5 0.3-0.1 0.6-0.2 0.8-0.2 0.8 0 1.5 0.2 1.9 0.6 0.5 0.4 0.7 1 0.7 1.8 0 0.2 0 0.4-0.1 0.8 0 0.4-0.1 0.8-0.1 1.2 0 0.4-0.1 0.9-0.1 1.3s-0.1 0.8-0.1 1c0 0.6 0.3 0.9 0.8 0.9 0.2 0 0.3 0 0.4-0.1 0.1 0 0.3-0.1 0.4-0.2 0.1-0.1 0.2-0.1 0.3-0.2l0.3 0.3c-0.1 0.2-0.3 0.4-0.5 0.6 -0.1 0.2-0.3 0.3-0.5 0.5 -0.2 0.2-0.4 0.3-0.6 0.4 -1 0-1.6-0.5-1.7-1.5l-0.1 0c-0.4 0.4-0.9 0.8-1.2 1.1 -0.4 0.3-0.6 0.4-0.8 0.4 -0.3 0-0.7-0.1-1-0.2 -0.3-0.1-0.5-0.3-0.8-0.5 -0.2-0.2-0.4-0.5-0.5-0.7 -0.1-0.3-0.2-0.6-0.2-0.9 0-0.4 0.1-0.7 0.3-1 0.2-0.3 0.4-0.5 0.7-0.5l3.5-1L166.5 82.7zM166.4 84.3l-2.5 0.8c-0.4 0.1-0.5 0.4-0.5 0.8 0 0.4 0.1 0.7 0.4 0.9 0.2 0.2 0.6 0.4 0.9 0.4 0.2 0 0.5-0.1 0.8-0.3 0.3-0.2 0.6-0.4 0.9-0.6L166.4 84.3zM177.7 83.1l-0.1 2.8c0 0.3 0 0.6 0 0.8 0 0.2 0.1 0.4 0.2 0.5 0.1 0.1 0.2 0.2 0.4 0.2 0.2 0 0.4 0 0.7 0l0 0.1 -0.2 0.8c-0.2 0-0.5 0-0.7 0 -0.2 0-0.4 0-0.6 0 -0.2 0-0.5 0-0.7 0 -0.2 0-0.5 0-0.7 0s-0.5 0-0.7 0c-0.2 0-0.5 0-0.7 0l0.2-0.8c0.3 0 0.5-0.1 0.7-0.1 0.2-0.1 0.3-0.1 0.4-0.2 0.1-0.1 0.2-0.2 0.2-0.4 0-0.2 0.1-0.4 0.1-0.7l0-7.9c0-0.4 0-0.7-0.1-0.8 -0.1-0.1-0.3-0.2-0.6-0.2 -0.1 0-0.1 0-0.2 0 -0.1 0-0.1 0-0.2 0 -0.1 0-0.1 0-0.2 0l0-0.1 0.1-0.8c0.3 0 0.5 0 0.8 0 0.2 0 0.4 0 0.7 0 0.2 0 0.5 0 0.6 0 0.2 0 0.4 0 0.6 0 0.3 0 0.5 0 0.8 0 0.3 0 0.6 0 0.9 0 1.2 0 2.1 0.3 2.8 0.8 0.7 0.5 1 1.2 1 2.2 0 0.7-0.2 1.4-0.7 2.1 -0.5 0.6-1.2 1.1-2 1.5l2.1 3.3c0.2 0.3 0.4 0.5 0.5 0.7 0.2 0.2 0.3 0.4 0.5 0.5s0.4 0.2 0.6 0.3c0.2 0.1 0.4 0.1 0.7 0.1l0.1 0.1 -0.1 0.6 -1.6 0.2c-0.3 0-0.6-0.2-1-0.5s-0.7-0.8-1-1.3l-2-3.6H177.7zM179.7 82.2c0.4-0.1 0.7-0.3 1-0.5 0.2-0.2 0.5-0.5 0.7-0.8s0.3-0.8 0.3-1.4c0-1.6-1.1-2.5-3.4-2.5 -0.1 0-0.2 0-0.3 0.1 0 0.1-0.1 0.2-0.1 0.3 0 0.5 0 1-0.1 1.4 0 0.4 0 0.8-0.1 1.2 0 0.4 0 0.7 0 1.1 0 0.3 0 0.7 0 1L179.7 82.2zM187.2 83.4v0.3c0 0.5 0.1 1 0.2 1.4 0.1 0.4 0.3 0.8 0.6 1.1 0.2 0.3 0.5 0.5 0.9 0.7 0.3 0.2 0.7 0.3 1.1 0.3 0.3 0 0.6 0 0.9-0.1 0.3-0.1 0.5-0.1 0.7-0.2 0.2-0.1 0.5-0.2 0.7-0.3l0.1 0 0.2 0.5c-0.3 0.2-0.7 0.4-1 0.6 -0.3 0.2-0.6 0.3-0.9 0.4 -0.3 0.1-0.6 0.2-0.9 0.2 -0.6 0-1.1-0.1-1.6-0.3 -0.5-0.2-0.9-0.5-1.2-0.8 -0.3-0.4-0.6-0.8-0.8-1.3 -0.2-0.5-0.3-1.1-0.3-1.7 0-0.6 0.1-1.2 0.3-1.8 0.2-0.6 0.5-1.1 0.9-1.5 0.4-0.4 0.8-0.8 1.3-1 0.5-0.3 1-0.4 1.6-0.4 1.9 0 2.8 0.9 2.8 2.7 0 0.3 0 0.4 0 0.5 0 0.1 0 0.2-0.1 0.4l-0.2 0.2H187.2zM190.7 82.5c0.2 0 0.3-0.1 0.4-0.1 0.1-0.1 0.1-0.2 0.1-0.4 0-0.5-0.1-0.9-0.4-1.1 -0.3-0.3-0.7-0.4-1.2-0.4 -0.6 0-1.1 0.2-1.5 0.6 -0.4 0.4-0.7 0.9-0.8 1.6L190.7 82.5zM197.8 85.8c-0.2 0-0.3 0-0.5 0 -0.2 0-0.4-0.1-0.6-0.1 -0.5 0.3-0.8 0.6-0.8 0.8 0 0.3 0.2 0.5 0.5 0.7 0.4 0.1 0.9 0.2 1.7 0.3 1.4 0.1 2.5 0.3 3.1 0.6 0.6 0.3 0.9 0.8 0.9 1.4 0 0.4-0.1 0.9-0.4 1.3 -0.3 0.4-0.6 0.8-1 1.1 -0.4 0.3-0.9 0.6-1.5 0.8s-1.1 0.3-1.7 0.3c-0.9 0-1.6-0.2-2.1-0.7 -0.5-0.4-0.7-1-0.7-1.8 0.1-0.2 0.3-0.4 0.5-0.6 0.2-0.2 0.4-0.4 0.6-0.5 0.2-0.2 0.5-0.4 0.7-0.5v-0.1c-0.3 0-0.6-0.1-0.8-0.2 -0.2-0.1-0.5-0.2-0.6-0.4 -0.2-0.2-0.3-0.3-0.4-0.6 -0.1-0.2-0.2-0.4-0.2-0.6 0.1-0.1 0.3-0.3 0.5-0.4 0.2-0.1 0.4-0.3 0.5-0.4 0.2-0.1 0.4-0.3 0.6-0.4v-0.1c-0.4-0.2-0.8-0.6-1-1 -0.2-0.4-0.4-0.9-0.4-1.5 0-0.4 0.1-0.9 0.3-1.3 0.2-0.4 0.4-0.8 0.8-1.1 0.3-0.3 0.7-0.5 1.1-0.7 0.4-0.2 0.9-0.3 1.3-0.3 0.4 0 0.7 0 1 0.1 0.3 0.1 0.6 0.1 0.8 0.1 0.2 0 0.5-0.1 0.8-0.1 0.3-0.1 0.6-0.1 0.8-0.2 0.3-0.1 0.6-0.2 0.9-0.2l0.1 0.1 -0.2 1c-0.2 0-0.3 0-0.5 0.1 -0.1 0-0.3 0-0.5 0.1 -0.2 0-0.4 0-0.6 0l-0.1 0.1c0.5 0.6 0.7 1.2 0.7 1.9 0 0.5-0.1 0.9-0.3 1.3 -0.2 0.4-0.5 0.8-0.8 1.1 -0.3 0.3-0.7 0.5-1.2 0.7C198.8 85.7 198.3 85.8 197.8 85.8zM198.2 85c0.6 0 1-0.2 1.4-0.5 0.3-0.4 0.5-0.9 0.5-1.5 0-0.7-0.2-1.3-0.6-1.8 -0.4-0.4-0.9-0.7-1.6-0.7 -0.6 0-1 0.2-1.4 0.6 -0.3 0.4-0.5 0.9-0.5 1.5 0 0.7 0.2 1.3 0.6 1.8C197.1 84.7 197.6 85 198.2 85zM198.2 91.8c0.4 0 0.7 0 1-0.1 0.3-0.1 0.6-0.2 0.9-0.4 0.3-0.2 0.5-0.4 0.6-0.6 0.1-0.2 0.2-0.5 0.2-0.7 0-0.2 0-0.3-0.2-0.5 -0.1-0.1-0.3-0.2-0.6-0.3 -0.3-0.1-0.6-0.2-1.1-0.3 -0.5-0.1-1.1-0.2-1.8-0.3 -0.2 0.2-0.4 0.4-0.6 0.5 -0.1 0.2-0.3 0.3-0.4 0.5 -0.1 0.2-0.2 0.4-0.2 0.6 0 0.5 0.2 0.8 0.5 1.1C197 91.7 197.5 91.8 198.2 91.8zM204.6 81.7c0-0.7-0.2-1-0.7-1 -0.1 0-0.2 0-0.3 0 0 0-0.1 0-0.1 0l0.1-0.7c0.3 0 0.6-0.1 0.9-0.2 0.3-0.1 0.6-0.1 0.9-0.2 0.3-0.1 0.6-0.1 0.9-0.2l0.1 0.2c-0.1 0.2-0.1 0.4-0.2 0.8 -0.1 0.4-0.1 0.8-0.2 1.4 0 0.5-0.1 1.1-0.1 1.7 0 0.6 0 1.2 0 1.7 0 1.2 0.5 1.8 1.5 1.8 0.4 0 0.8-0.1 1.2-0.4 0.4-0.2 0.7-0.5 1-0.7v-4.3c0-0.4-0.1-0.6-0.2-0.8 -0.1-0.1-0.4-0.2-0.7-0.2 0 0-0.1 0-0.1 0 0 0-0.1 0-0.1 0h-0.2l0.1-0.7c0.3 0 0.7-0.1 1-0.2 0.3-0.1 0.7-0.1 0.9-0.2 0.3-0.1 0.6-0.1 0.9-0.2l0.1 0.2c-0.1 0.1-0.1 0.4-0.2 0.8 -0.1 0.4-0.1 0.9-0.1 1.5 0 0.6-0.1 1.2-0.1 2 0 0.7 0 1.5 0 2.2 0 0.6 0.3 0.9 0.8 0.9 0.1 0 0.3 0 0.4-0.1 0.1 0 0.3-0.1 0.4-0.2 0.1-0.1 0.2-0.1 0.3-0.2l0.3 0.3c-0.2 0.3-0.4 0.5-0.6 0.7 -0.2 0.2-0.4 0.4-0.5 0.5 -0.2 0.2-0.4 0.2-0.5 0.2 -1 0-1.6-0.5-1.7-1.5l-0.1 0c-0.6 0.5-1.1 0.8-1.6 1.1 -0.5 0.3-0.8 0.4-1 0.4 -0.8 0-1.4-0.2-1.9-0.6 -0.4-0.4-0.6-0.9-0.6-1.6L204.6 81.7zM213.7 87.7c0.3-0.1 0.5-0.2 0.6-0.3 0.1-0.1 0.2-0.2 0.3-0.4 0.1-0.2 0.1-0.3 0.1-0.6 0-0.2 0-0.5 0-0.8v-9.2c0-0.7-0.2-1-0.7-1 -0.1 0-0.2 0-0.3 0 -0.1 0-0.1 0-0.2 0 0-0.1 0-0.1 0-0.2 0 0 0-0.1 0-0.2l0-0.4c0.3 0 0.7-0.1 1-0.1 0.3-0.1 0.6-0.1 0.9-0.2 0.3-0.1 0.6-0.1 0.9-0.2l0.1 0.2c0 0.1-0.1 0.3-0.1 0.6 0 0.3-0.1 0.8-0.1 1.4 0 0.6-0.1 1.2-0.1 2 0 0.7-0.1 1.5-0.1 2.4 0 0.9 0 1.7-0.1 2.7 0 0.9 0 1.8 0 2.8 0 0.4 0 0.6 0.2 0.8 0.1 0.2 0.3 0.2 0.5 0.2 0.1 0 0.1 0 0.2 0 0.1 0 0.1 0 0.2 0 0.1 0 0.2 0 0.2 0l0 0.1 -0.1 0.8c-0.2 0-0.4 0-0.6 0 -0.2 0-0.4 0-0.5 0s-0.4 0-0.5 0c-0.2 0-0.4 0-0.6 0 -0.2 0-0.4 0-0.6 0.1 -0.2 0-0.4 0.1-0.7 0.1L213.7 87.7zM223 82.7c0-0.6-0.1-1.1-0.4-1.5 -0.3-0.3-0.7-0.5-1.2-0.5 -0.3 0-0.6 0-0.9 0.2 -0.3 0.1-0.5 0.2-0.7 0.3 -0.2 0.1-0.5 0.3-0.7 0.5l-0.1-0.1 -0.2-0.8c0.4-0.2 0.8-0.5 1.2-0.7 0.3-0.2 0.7-0.3 1-0.5 0.3-0.1 0.6-0.2 0.8-0.2 0.8 0 1.5 0.2 1.9 0.6 0.5 0.4 0.7 1 0.7 1.8 0 0.2 0 0.4-0.1 0.8 0 0.4-0.1 0.8-0.1 1.2 0 0.4-0.1 0.9-0.1 1.3s-0.1 0.8-0.1 1c0 0.6 0.3 0.9 0.8 0.9 0.2 0 0.3 0 0.4-0.1 0.1 0 0.3-0.1 0.4-0.2 0.1-0.1 0.2-0.1 0.3-0.2l0.3 0.3c-0.1 0.2-0.3 0.4-0.5 0.6 -0.1 0.2-0.3 0.3-0.5 0.5 -0.2 0.2-0.4 0.3-0.6 0.4 -1 0-1.6-0.5-1.7-1.5l-0.1 0c-0.4 0.4-0.9 0.8-1.2 1.1 -0.4 0.3-0.6 0.4-0.8 0.4 -0.3 0-0.7-0.1-1-0.2 -0.3-0.1-0.5-0.3-0.8-0.5 -0.2-0.2-0.4-0.5-0.5-0.7 -0.1-0.3-0.2-0.6-0.2-0.9 0-0.4 0.1-0.7 0.3-1 0.2-0.3 0.4-0.5 0.7-0.5l3.5-1L223 82.7zM222.9 84.3l-2.5 0.8c-0.4 0.1-0.5 0.4-0.5 0.8 0 0.4 0.1 0.7 0.4 0.9 0.2 0.2 0.6 0.4 0.9 0.4 0.2 0 0.5-0.1 0.8-0.3 0.3-0.2 0.6-0.4 0.9-0.6L222.9 84.3zM228.2 87.2c0.1-0.2 0.2-0.6 0.2-1.2v-4.1c0-0.4-0.1-0.7-0.2-0.9 -0.1-0.2-0.3-0.3-0.5-0.3 -0.1 0-0.2 0-0.3 0 0 0-0.1 0-0.1 0l-0.1-0.1 0.1-0.6c0.3 0 0.6-0.1 0.9-0.2 0.3-0.1 0.6-0.1 0.8-0.2 0.3-0.1 0.6-0.1 0.8-0.2l0.1 0.1c0 0.2-0.1 0.4-0.1 0.6 0 0.2 0 0.4-0.1 0.6 0 0.2 0 0.5 0 0.7l0.1 0.1c0.2-0.3 0.4-0.6 0.6-0.8 0.2-0.2 0.5-0.5 0.7-0.6 0.2-0.2 0.5-0.3 0.7-0.4 0.2-0.1 0.4-0.2 0.6-0.2 0.2 0 0.3 0 0.4 0 0 0 0.1 0 0.1 0l0.1 0.1 -0.1 0.9c0 0.3-0.1 0.5-0.1 0.9 0 0.3-0.1 0.6-0.1 0.9l-0.7 0.1c0-0.5 0-0.9-0.1-1 -0.1-0.2-0.2-0.3-0.4-0.3 -0.3 0-0.6 0.1-0.9 0.3 -0.3 0.2-0.6 0.5-0.9 0.9 0 0.6-0.1 1.2-0.1 1.8 0 0.2 0 0.5 0 0.7 0 0.2 0 0.4 0 0.6 0 0.2 0 0.3 0 0.5 0 0.1 0 0.2 0 0.3 0 0.4 0.1 0.7 0.2 0.9 0.1 0.1 0.4 0.2 0.7 0.2 0.1 0 0.1 0 0.2 0 0.1 0 0.2 0 0.3 0 0.1 0 0.2 0 0.3 0l0 0.1 -0.2 0.8c-0.2 0-0.5 0-0.7 0 -0.2 0-0.4 0-0.6 0s-0.4 0-0.6 0c-0.3 0-0.5 0-0.8 0 -0.2 0-0.4 0-0.6 0 -0.2 0-0.4 0-0.6 0l0.1-0.7C227.9 87.5 228.1 87.4 228.2 87.2z"/></a></svg>