<svg xmlns="http://www.w3.org/2000/svg" xmlns:xlink="http://www.w3.org/1999/xlink" version="1.2" baseProfile="tiny" x="0" y="0" viewBox="-116.8 50 233.6 100" xml:space="preserve"><text transform="matrix(1 0 0 1 7.1079 13.5215)" opacity="0">x</text><a xlink:href="http://font.ubuntu.com" xlink:show="new"><path fill="#444444" d="M-95.3 82.4c-1.8 0-3.4-0.3-4.8-0.8 -1.3-0.5-2.4-1.2-3.3-2.2 -0.9-0.9-1.5-2-1.9-3.3s-0.6-2.7-0.6-4.2V55.7h5.9v15.8c0 1.1 0.1 2 0.4 2.7 0.2 0.7 0.6 1.3 1 1.8s0.9 0.8 1.5 1c0.6 0.2 1.2 0.3 1.9 0.3 1.4 0 2.6-0.4 3.5-1.3s1.3-2.4 1.3-4.5V55.7h5.9V72c0 1.5-0.2 2.9-0.6 4.2 -0.4 1.3-1.1 2.4-2 3.3s-2 1.6-3.4 2.1C-91.8 82.1-93.5 82.4-95.3 82.4zM-60.8 71.9c0 1.6-0.2 3-0.7 4.3 -0.5 1.3-1.1 2.4-2 3.3 -0.9 0.9-2 1.6-3.2 2.1 -1.3 0.5-2.7 0.7-4.4 0.7 -0.7 0-1.4 0-2.1-0.1 -0.7-0.1-1.5-0.1-2.2-0.2s-1.4-0.2-2.1-0.4c-0.7-0.1-1.2-0.3-1.7-0.4V53.5l5.6-0.9v9.9c0.6-0.3 1.3-0.5 2-0.6 0.7-0.2 1.4-0.2 2.2-0.2 1.4 0 2.7 0.2 3.7 0.7 1.1 0.5 2 1.2 2.7 2.1 0.7 0.9 1.3 2 1.7 3.3C-61 69-60.8 70.4-60.8 71.9zM-66.5 71.8c0-3.6-1.3-5.4-4-5.4 -0.6 0-1.2 0.1-1.7 0.2 -0.6 0.2-1 0.3-1.4 0.6v10.2c0.3 0.1 0.6 0.1 1.1 0.1 0.4 0 0.9 0.1 1.4 0.1 1.5 0 2.7-0.5 3.5-1.6C-66.9 74.9-66.5 73.5-66.5 71.8zM-39.4 81.2c-1 0.3-2.2 0.5-3.7 0.8 -1.5 0.2-3.1 0.4-4.8 0.4s-3.1-0.2-4.2-0.7 -2-1.1-2.7-1.9 -1.1-1.8-1.4-2.9c-0.3-1.1-0.4-2.4-0.4-3.7V62h5.6v10.4c0 1.8 0.2 3.1 0.7 3.9s1.4 1.2 2.7 1.2c0.4 0 0.8 0 1.3-0.1 0.5 0 0.9-0.1 1.2-0.1V62h5.6v19.2H-39.4zM-34.1 62.7c1-0.3 2.2-0.5 3.7-0.8 1.5-0.2 3.1-0.4 4.8-0.4 1.7 0 3.1 0.2 4.2 0.7 1.1 0.4 2 1.1 2.7 1.9 0.7 0.8 1.1 1.8 1.4 2.9 0.3 1.1 0.4 2.3 0.4 3.7v11.2h-5.6V71.3c0-1.8-0.2-3.1-0.7-3.8 -0.5-0.8-1.4-1.1-2.7-1.1 -0.4 0-0.8 0-1.3 0.1 -0.5 0-0.9 0.1-1.2 0.1v15.3H-34V62.7H-34.1zM-12.1 57.1l5.6-0.9V62h6.8v4.7h-6.8v7c0 1.2 0.2 2.1 0.6 2.8s1.3 1.1 2.5 1.1c0.6 0 1.2-0.1 1.9-0.2 0.6-0.1 1.2-0.3 1.8-0.5l0.8 4.4c-0.7 0.3-1.4 0.5-2.3 0.7C-2 82.2-3 82.3-4.3 82.3c-1.5 0-2.8-0.2-3.8-0.6s-1.8-1-2.4-1.7c-0.6-0.7-1-1.6-1.3-2.7 -0.2-1.1-0.4-2.2-0.4-3.5V57.1H-12.1zM21.8 81.2c-1 0.3-2.2 0.5-3.7 0.8 -1.5 0.2-3.1 0.4-4.8 0.4s-3.1-0.2-4.2-0.7 -2-1.1-2.7-1.9S5.3 78 5 76.9c-0.3-1.1-0.4-2.4-0.4-3.7V62h5.6v10.4c0 1.8 0.2 3.1 0.7 3.9s1.4 1.2 2.7 1.2c0.4 0 0.8 0 1.3-0.1 0.5 0 0.9-0.1 1.2-0.1V62h5.6v19.2H21.8zM45.3 82.2c-1.4 0-2.9 0-4.3-0.1s-2.9-0.3-4.4-0.6V56.1c1.2-0.2 2.5-0.4 4-0.5 1.4-0.1 2.8-0.2 4-0.2 1.7 0 3.2 0.1 4.6 0.4 1.4 0.2 2.6 0.6 3.6 1.2 1 0.6 1.8 1.3 2.4 2.3 0.6 0.9 0.8 2.1 0.8 3.5 0 2.1-1 3.7-3 4.9 1.7 0.6 2.8 1.5 3.4 2.6 0.6 1.1 0.9 2.3 0.9 3.7 0 2.7-1 4.8-3 6.2C52.2 81.5 49.2 82.2 45.3 82.2zM42.3 66h2.9c1.8 0 3.1-0.2 3.9-0.7 0.8-0.5 1.2-1.2 1.2-2.2 0-1.1-0.4-1.8-1.2-2.2s-2-0.6-3.5-0.6c-0.5 0-1 0-1.6 0s-1.1 0-1.5 0.1V66H42.3zM42.3 70.5v6.8c0.4 0.1 0.9 0.1 1.4 0.1s1.1 0 1.7 0c1.8 0 3.2-0.3 4.3-0.8 1.1-0.5 1.6-1.4 1.6-2.8 0-1.2-0.5-2.1-1.4-2.6 -0.9-0.5-2.2-0.8-3.9-0.8h-3.7V70.5zM80.2 71.9c0 1.6-0.2 3-0.7 4.3s-1.1 2.4-2 3.3 -1.9 1.6-3.1 2.1 -2.5 0.8-4 0.8c-1.5 0-2.8-0.3-4-0.8 -1.2-0.5-2.2-1.2-3.1-2.1s-1.5-2-2-3.3 -0.7-2.7-0.7-4.3c0-1.6 0.2-3 0.7-4.3 0.5-1.3 1.2-2.4 2-3.3 0.9-0.9 1.9-1.6 3.1-2.1 1.2-0.5 2.5-0.8 3.9-0.8 1.4 0 2.7 0.3 3.9 0.8s2.2 1.2 3.1 2.1 1.5 2 2 3.3C80 68.9 80.2 70.3 80.2 71.9zM74.5 71.9c0-1.7-0.3-3.1-1-4.1 -0.7-1-1.7-1.5-3-1.5s-2.3 0.5-3 1.5 -1.1 2.4-1.1 4.1c0 1.7 0.4 3.1 1.1 4.1s1.7 1.5 3 1.5 2.3-0.5 3-1.5C74.1 75 74.5 73.6 74.5 71.9zM92.5 82.2c-1.6 0-3-0.2-4-0.5 -1-0.3-1.8-0.8-2.4-1.4s-1-1.3-1.2-2.2c-0.2-0.8-0.3-1.8-0.3-2.8V53.5l5.6-0.9v21.6c0 0.5 0 1 0.1 1.4s0.2 0.7 0.4 1c0.2 0.3 0.5 0.5 0.9 0.7s0.9 0.3 1.6 0.3L92.5 82.2zM114 81.2c-0.5 0.2-1.1 0.3-1.7 0.4 -0.7 0.1-1.3 0.3-2.1 0.4 -0.7 0.1-1.4 0.2-2.2 0.2 -0.7 0.1-1.5 0.1-2.1 0.1 -1.6 0-3.1-0.2-4.4-0.7s-2.4-1.2-3.2-2.1c-0.9-0.9-1.6-2-2-3.2 -0.5-1.3-0.7-2.7-0.7-4.3s0.2-3.1 0.6-4.4c0.4-1.3 1-2.4 1.7-3.3 0.8-0.9 1.7-1.6 2.8-2.1 1.1-0.5 2.3-0.7 3.8-0.7 0.8 0 1.5 0.1 2.1 0.2 0.6 0.2 1.2 0.4 1.9 0.6v-9l5.6-0.9v28.8H114zM101.3 71.8c0 1.7 0.4 3.1 1.2 4.2 0.8 1.1 1.9 1.6 3.5 1.6 0.5 0 1 0 1.4-0.1 0.4 0 0.8-0.1 1.1-0.1V67.1c-0.4-0.2-0.8-0.4-1.4-0.6 -0.6-0.2-1.1-0.2-1.7-0.2C102.6 66.4 101.3 68.2 101.3 71.8z"/></a><a xlink:href="http://www.huertatipografica.com/fonts/alegreya-ht-pro" xlink:show="new"><path fill="#444444" d="M-16.9 109.7c0.1 0.7 0.4 1.2 0.7 1.4 0.3 0.3 0.9 0.4 1.6 0.5l0.1 0.1 -0.3 1.1c-0.4 0-0.7 0-1.1 0 -0.3 0-0.6 0-0.9 0 -0.3 0-0.6 0-0.8 0 -0.5 0-1 0-1.5 0 -0.5 0-0.9 0.1-1.2 0.1 -0.4 0.1-0.8 0.1-1.2 0.1l-0.1-0.2 0.2-1c1-0.1 1.7-0.2 2-0.4 0.3-0.2 0.5-0.5 0.5-1 0-0.1 0-0.3 0-0.5 0-0.2 0-0.4-0.1-0.5l-0.5-3.1c-0.2 0-0.4 0-0.6 0s-0.5 0-0.7 0c-0.3 0-0.5 0-0.7 0s-0.5 0-0.6 0c-0.5 0-1.1 0-1.6 0.1 -0.5 0.1-1 0.1-1.3 0.1l-1.3 2.9c-0.3 0.5-0.4 0.9-0.4 1.3 0 0.7 0.5 1 1.4 1h1.5v0.1l-0.3 1.1c-0.4 0-0.7 0-1.1-0.1 -0.3 0-0.7-0.1-1.2-0.1 -0.4 0-0.9 0-1.3 0 -0.3 0-0.6 0-1 0 -0.4 0-0.6 0-0.9 0s-0.7 0-1 0l0.4-1.2c0.3 0 0.5-0.1 0.7-0.2 0.2-0.1 0.4-0.2 0.6-0.4 0.2-0.2 0.4-0.4 0.5-0.6 0.2-0.3 0.4-0.6 0.6-1l6.8-13.9 1.5-0.5h0.2c0.2 1.6 0.5 3.3 0.8 5 0.2 1.5 0.5 3 0.8 4.8C-17.5 106.4-17.2 108.1-16.9 109.7zM-24.5 105.3h2.3c0.4 0 0.8 0 1.3-0.1 0.5 0 0.9-0.1 1.2-0.1l-1.2-7.3h-0.2L-24.5 105.3zM-11 111c0.1 0 0.2 0 0.2-0.1 0.1 0 0.2-0.1 0.4-0.2 0.2-0.1 0.4-0.3 0.6-0.5 0.3-0.2 0.6-0.5 1-0.8h0.3l0.4 0.7c-0.9 0.9-1.7 1.7-2.4 2.2 -0.6 0.5-1.1 0.7-1.4 0.7 -0.6 0-0.8-0.3-0.8-0.8 0-0.1 0-0.3 0.1-0.8s0.2-1.1 0.3-1.9c0.1-0.8 0.3-1.6 0.4-2.6 0.2-1 0.3-2 0.5-3 0.2-1 0.3-2 0.5-3 0.2-1 0.3-1.9 0.4-2.7 0.1-0.8 0.2-1.5 0.3-2 0.1-0.5 0.1-0.9 0.1-1 0-0.4-0.1-0.7-0.3-0.8 -0.2-0.2-0.5-0.3-0.9-0.3h-1.1l0.2-1c0.4 0 0.9 0 1.4 0 0.5 0 1 0 1.4-0.1 0.5 0 1.1 0 1.6-0.1l0.2 0.3c-0.5 2.1-0.9 4.2-1.3 6.3 -0.2 0.9-0.4 1.9-0.6 2.8 -0.2 1-0.4 2-0.6 3 -0.2 1-0.3 2-0.5 3 -0.2 1-0.3 1.9-0.4 2.8L-11 111zM1.8 102.2c0 0.6-0.1 1.1-0.4 1.6 -0.2 0.5-0.6 0.9-1.1 1.4 -0.5 0.4-1.2 0.8-2 1.2 -0.8 0.4-1.8 0.8-3 1.2 -0.1 1.2 0.1 2.1 0.4 2.8 0.4 0.7 0.8 1.1 1.5 1.1 0.5 0 1.1-0.2 1.6-0.6s1-1 1.4-1.7h0.4l0.4 0.7c-0.5 1-1.2 1.8-2 2.4s-1.6 0.9-2.4 0.9c-1 0-1.8-0.4-2.3-1.2 -0.6-0.8-0.8-1.9-0.8-3.3 0-1.1 0.2-2.1 0.5-3.1 0.4-1 0.8-1.9 1.4-2.7 0.6-0.8 1.3-1.4 2-1.9s1.5-0.7 2.2-0.7 1.2 0.2 1.6 0.5C1.6 100.9 1.8 101.5 1.8 102.2zM-1.2 101.6c-0.4 0-0.7 0.1-1.1 0.4s-0.7 0.6-1 1c-0.3 0.4-0.6 0.9-0.8 1.5s-0.4 1.2-0.5 1.8c1.6-0.5 2.7-1 3.4-1.6 0.7-0.5 1-1.2 1-1.9C-0.1 102-0.5 101.6-1.2 101.6zM11.5 112.7c-0.1 0.8-0.4 1.6-0.8 2.4 -0.5 0.8-1 1.5-1.7 2.1 -0.7 0.6-1.4 1.1-2.2 1.5s-1.6 0.6-2.3 0.6c-0.6 0-1.1-0.1-1.6-0.3s-1-0.5-1.4-0.8c-0.4-0.3-0.7-0.7-1-1.1 -0.2-0.4-0.3-0.8-0.3-1.2l0.1-0.1c0.5-0.4 1.2-0.9 2-1.4 0.9-0.6 1.9-1.2 3.1-1.9v-0.2c-0.4-0.3-0.8-0.7-1-1.3 -0.2-0.6-0.4-1.3-0.4-2.2 0-1 0.2-2 0.5-3 0.4-1 0.8-1.9 1.4-2.7s1.2-1.5 1.9-2 1.4-0.7 2.1-0.7l2.8 0.4 0.3-0.7h0.1l0.8 0.4 0.2 0.2c-0.7 1.2-1.2 2.3-1.5 3.2 -0.3 0.9-0.6 1.7-0.7 2.5 -0.1 0.5-0.1 1-0.1 1.6s-0.1 1.3-0.1 1.9c0 0.6-0.1 1.2-0.1 1.8C11.6 112 11.5 112.4 11.5 112.7zM6.4 112.5c-0.4 0.3-0.9 0.6-1.4 0.9 -0.5 0.3-0.9 0.6-1.4 0.9 -0.4 0.3-0.8 0.5-1 0.8 -0.3 0.2-0.4 0.4-0.4 0.5 0 0.2 0.1 0.5 0.3 0.7 0.2 0.2 0.4 0.5 0.7 0.7 0.3 0.2 0.6 0.4 1 0.5s0.7 0.2 1.1 0.2c1.2 0 2.2-0.4 3-1.2 0.8-0.8 1.3-2 1.5-3.4l0.7-5.6 -0.2-0.1c-0.4 0.8-0.8 1.4-1.1 2 -0.3 0.5-0.7 1-0.9 1.4 -0.3 0.4-0.6 0.7-0.9 1C7.1 112 6.8 112.2 6.4 112.5zM6.8 110.3c0.4 0 1.1-0.7 1.9-2.1 0.9-1.4 1.9-3.3 3-5.8 -1.1-0.6-2-0.8-2.8-0.8 -0.4 0-0.8 0.2-1.2 0.5 -0.4 0.3-0.7 0.8-1 1.3 -0.3 0.5-0.5 1.1-0.7 1.8 -0.2 0.7-0.3 1.4-0.3 2.1 0 0.4 0 0.8 0.1 1.1 0.1 0.4 0.1 0.7 0.2 0.9 0.1 0.3 0.2 0.5 0.3 0.7C6.5 110.2 6.6 110.3 6.8 110.3zM16.9 108.1c0.1-0.6 0.2-1.2 0.3-1.7 0.1-0.6 0.2-1.1 0.2-1.6 0-0.5 0.1-0.9 0.2-1.3 0-0.4 0.1-0.6 0.1-0.7 0-0.4-0.1-0.7-0.3-0.9 -0.2-0.2-0.5-0.3-0.9-0.3h-1.1l0.2-1c0.4 0 0.9 0 1.4 0s1 0 1.4-0.1c0.5 0 1.1 0 1.6-0.1l0.2 0.3c-0.2 0.6-0.4 1.2-0.5 1.8 -0.1 0.5-0.3 1.1-0.5 1.8 -0.2 0.7-0.3 1.4-0.5 2h0.1c0.4-0.9 0.8-1.7 1.2-2.4 0.4-0.8 0.9-1.4 1.3-2s0.9-1 1.3-1.3 0.8-0.5 1.1-0.5c0.5 0.5 0.8 1.1 0.8 1.9 0 0.1 0 0.3 0 0.4 0 0.2-0.1 0.3-0.1 0.5l-0.2 0.2c-0.1 0-0.1 0-0.2-0.1 -0.1 0-0.2 0-0.2-0.1 -0.1 0-0.2 0-0.3 0 -0.4 0-0.8 0.1-1.2 0.4 -0.4 0.3-0.9 0.7-1.3 1.3 -0.4 0.5-0.9 1.2-1.3 2s-0.8 1.6-1.2 2.6l-0.4 3.1c0 0-0.1 0.1-0.2 0.2 -0.1 0.1-0.3 0.1-0.5 0.2s-0.4 0.1-0.6 0.2c-0.2 0-0.3 0.1-0.4 0.1l-0.2-0.2C16.4 111 16.7 109.5 16.9 108.1zM33.1 102.2c0 0.6-0.1 1.1-0.4 1.6 -0.2 0.5-0.6 0.9-1.1 1.4 -0.5 0.4-1.2 0.8-2 1.2 -0.8 0.4-1.8 0.8-3 1.2 -0.1 1.2 0.1 2.1 0.4 2.8 0.4 0.7 0.8 1.1 1.5 1.1 0.5 0 1.1-0.2 1.6-0.6 0.5-0.4 1-1 1.4-1.7h0.4l0.4 0.7c-0.5 1-1.2 1.8-2 2.4 -0.8 0.6-1.6 0.9-2.4 0.9 -1 0-1.8-0.4-2.3-1.2 -0.6-0.8-0.8-1.9-0.8-3.3 0-1.1 0.2-2.1 0.5-3.1 0.3-1 0.8-1.9 1.4-2.7 0.6-0.8 1.3-1.4 2-1.9 0.7-0.5 1.5-0.7 2.2-0.7s1.2 0.2 1.6 0.5C32.9 100.9 33.1 101.5 33.1 102.2zM30.1 101.6c-0.4 0-0.7 0.1-1.1 0.4 -0.4 0.3-0.7 0.6-1 1 -0.3 0.4-0.6 0.9-0.8 1.5 -0.2 0.6-0.4 1.2-0.5 1.8 1.6-0.5 2.7-1 3.4-1.6 0.7-0.5 1-1.2 1-1.9C31.2 102 30.8 101.6 30.1 101.6zM42 100.6l2.2-0.6c0.3 0.2 0.5 0.5 0.7 0.8 0.2 0.4 0.3 0.8 0.3 1.3 0 0.9-0.4 2.1-1.2 3.8 -0.8 1.7-2 3.7-3.7 6.2 -1.7 2.5-3.1 4.3-4.3 5.5 -1.2 1.1-2.3 1.7-3.2 1.7 -0.5 0-1-0.1-1.4-0.3 -0.4-0.2-0.6-0.4-0.7-0.7 0-0.1 0-0.4 0.1-0.8s0.2-0.9 0.4-1.3h0.4c0.2 0.3 0.5 0.6 0.8 0.8 0.3 0.2 0.7 0.3 1 0.3 0.4 0 0.7-0.1 1-0.2 0.3-0.1 0.7-0.3 1-0.6 0.3-0.3 0.7-0.6 1.1-1 0.4-0.4 0.8-0.9 1.3-1.6 -0.1-2.1-0.2-4-0.4-5.8 -0.2-1.7-0.4-3.5-0.6-5.3 -0.1-0.4-0.2-0.7-0.3-0.9 -0.2-0.2-0.4-0.2-0.8-0.2 -0.1 0-0.2 0-0.4 0 -0.1 0-0.3 0-0.5 0.1 -0.2 0-0.4 0-0.6 0.1l0.1-1 4-0.7 0.3 0.3c0.2 1.5 0.3 3.2 0.4 5s0.1 3.8 0.1 6h0.3c1.3-2 2.2-3.6 2.8-5 0.6-1.4 1-2.4 1-3.1 0-0.4-0.1-0.8-0.3-1.2s-0.5-0.7-1-1L42 100.6zM54.7 111c0.1 0 0.1 0 0.2-0.1 0.1 0 0.2-0.1 0.3-0.2 0.2-0.1 0.4-0.3 0.6-0.5 0.2-0.2 0.6-0.5 1-0.9h0.3l0.4 0.7c-1.1 1.1-1.9 1.8-2.5 2.2 -0.6 0.4-1 0.7-1.3 0.7 -0.7 0-1-0.3-1-0.8 0-0.1 0-0.2 0-0.4s0.1-0.5 0.1-0.7c0.1-0.3 0.1-0.6 0.2-0.9 0.1-0.3 0.1-0.7 0.2-1 0.2-0.8 0.4-1.6 0.6-2.6l-0.2-0.1c-0.9 1.7-1.7 3-2.6 4 -0.8 1-1.7 1.9-2.5 2.5 -0.7 0-1.2-0.3-1.6-1 -0.4-0.6-0.6-1.6-0.6-2.7 0-1.1 0.2-2.2 0.5-3.3 0.4-1.1 0.8-2.1 1.4-2.9 0.6-0.9 1.3-1.6 2-2.1 0.7-0.5 1.5-0.8 2.3-0.8l2.7 0.4 0.2-0.7h0.1l0.8 0.4 0.2 0.3c-0.3 1.1-0.6 2.1-0.9 3.3 -0.3 1-0.5 2.1-0.8 3.3 -0.2 1.2-0.5 2.5-0.6 3.7L54.7 111zM49.1 110.8c0.3 0 0.6-0.2 1-0.7 0.4-0.5 0.9-1 1.4-1.8s1-1.6 1.6-2.6c0.5-1 1-2.1 1.5-3.2 -0.5-0.3-0.9-0.5-1.4-0.7 -0.5-0.2-0.9-0.2-1.3-0.2 -0.4 0-0.9 0.2-1.3 0.5 -0.4 0.4-0.8 0.8-1.1 1.4 -0.3 0.6-0.6 1.3-0.8 2 -0.2 0.8-0.3 1.6-0.3 2.4s0.1 1.5 0.2 2C48.7 110.5 48.9 110.8 49.1 110.8zM70.5 97.7c-0.2 1.2-0.4 2.5-0.7 3.9 -0.2 1.4-0.4 2.6-0.6 3.8 -0.2 1.2-0.3 2.1-0.4 2.7 -0.1 0.6-0.1 1.1-0.2 1.3 0 0.4-0.1 0.7-0.1 0.8 0 0.5 0.1 0.8 0.2 0.9 0.2 0.2 0.4 0.2 0.8 0.2 0.1 0 0.3 0 0.5 0 0.2 0 0.3 0 0.5 0 0.2 0 0.3 0 0.5-0.1l0.1 0.1 -0.4 1.2c-0.4 0-0.8 0-1.2 0 -0.4 0-0.7 0-1.1 0s-0.7 0-1 0c-0.3 0-0.7 0-1 0.1 -0.4 0-0.7 0.1-1 0.1 -0.3 0.1-0.7 0.1-1 0.2l0.3-1.2c0.4-0.1 0.8-0.2 1-0.3 0.3-0.1 0.5-0.3 0.7-0.4 0.2-0.1 0.3-0.4 0.4-0.7 0.1-0.3 0.2-0.6 0.2-1l1.3-11.5c0.1-0.6 0.1-1 0-1.2 -0.1-0.2-0.4-0.3-0.7-0.3 -0.1 0-0.2 0-0.3 0 -0.1 0-0.3 0-0.4 0 -0.1 0-0.3 0-0.4 0l0 0 0 0 0.3-1.2c0 0 0.1 0 0.3 0 0.2 0 0.5 0 0.8 0s0.7 0 1 0c0.4 0 0.7 0 0.9 0 0.3 0 0.6 0 1 0 0.3 0 0.7-0.1 1-0.1s0.7-0.1 1.1-0.1l-0.3 1.2c-0.4 0.1-0.7 0.1-0.9 0.2s-0.5 0.2-0.6 0.3c-0.2 0.1-0.3 0.3-0.4 0.4C70.6 97.2 70.5 97.4 70.5 97.7zM79.9 109.2l0.3 0.7c-0.4 0.4-0.8 0.8-1.2 1.2 -0.4 0.4-0.8 0.7-1.1 1 -0.4 0.3-0.7 0.5-1 0.7 -0.3 0.2-0.6 0.3-0.8 0.3 -0.5 0-1-0.2-1.3-0.5 -0.3-0.3-0.4-0.8-0.3-1.3l1.5-9.4 -0.1-0.1 -1.9-0.1 -0.1-0.1 0.1-0.8 2.2-0.4c0.1-0.4 0.1-0.8 0.2-1.2 0.1-0.4 0.1-0.7 0.1-1 0.1-0.4 0.1-0.7 0.1-1.1l2.5-1 0.2 0.3c-0.1 0.4-0.2 0.8-0.4 1.2 -0.1 0.4-0.2 0.8-0.4 1.3 -0.1 0.5-0.3 1-0.4 1.5h3.3l0.1 0.1 -0.2 1.1h-3.2l-0.3 0.2 -1.7 8.4c-0.1 0.6 0.1 1 0.6 1 0.3 0 0.6-0.1 1-0.4 0.4-0.3 1-0.8 1.7-1.5L79.9 109.2zM89.8 111c0.1 0 0.1 0 0.2-0.1 0.1 0 0.2-0.1 0.3-0.2 0.2-0.1 0.4-0.3 0.6-0.5 0.2-0.2 0.6-0.5 1-0.9h0.3l0.4 0.7c-1.1 1.1-1.9 1.8-2.5 2.2 -0.6 0.4-1 0.7-1.3 0.7 -0.7 0-1-0.3-1-0.8 0-0.1 0-0.2 0-0.4s0.1-0.5 0.1-0.7c0.1-0.3 0.1-0.6 0.2-0.9 0.1-0.3 0.1-0.7 0.2-1 0.2-0.8 0.4-1.6 0.6-2.6l-0.2-0.1c-0.9 1.7-1.7 3-2.6 4 -0.8 1-1.7 1.9-2.5 2.5 -0.7 0-1.2-0.3-1.6-1 -0.4-0.6-0.6-1.6-0.6-2.7 0-1.1 0.2-2.2 0.5-3.3 0.4-1.1 0.8-2.1 1.4-2.9 0.6-0.9 1.3-1.6 2-2.1 0.7-0.5 1.5-0.8 2.3-0.8l2.7 0.4 0.2-0.7h0.1l0.8 0.4 0.2 0.3c-0.3 1.1-0.6 2.1-0.9 3.3 -0.3 1-0.5 2.1-0.8 3.3 -0.2 1.2-0.5 2.5-0.6 3.7L89.8 111zM84.3 110.8c0.3 0 0.6-0.2 1-0.7 0.4-0.4 0.9-1 1.4-1.8 0.5-0.8 1-1.6 1.6-2.6 0.5-1 1-2.1 1.5-3.2 -0.5-0.3-0.9-0.5-1.4-0.7 -0.5-0.2-0.9-0.2-1.3-0.2s-0.9 0.2-1.3 0.5c-0.4 0.4-0.8 0.8-1.1 1.4 -0.3 0.6-0.6 1.3-0.8 2 -0.2 0.8-0.3 1.6-0.3 2.4s0.1 1.5 0.2 2C83.8 110.5 84 110.8 84.3 110.8zM96.5 111c0.1 0 0.2 0 0.2-0.1 0.1 0 0.2-0.1 0.4-0.2 0.2-0.1 0.4-0.3 0.6-0.5 0.3-0.2 0.6-0.5 1-0.8H99l0.4 0.7c-0.9 0.9-1.7 1.7-2.4 2.2 -0.6 0.5-1.1 0.7-1.4 0.7 -0.6 0-0.8-0.3-0.8-0.8 0-0.1 0-0.3 0.1-0.8 0.1-0.5 0.2-1.1 0.3-1.9 0.1-0.8 0.3-1.6 0.4-2.6 0.2-1 0.3-2 0.5-3 0.2-1 0.3-2 0.5-3 0.2-1 0.3-1.9 0.4-2.7 0.1-0.8 0.2-1.5 0.3-2 0.1-0.5 0.1-0.9 0.1-1 0-0.4-0.1-0.7-0.3-0.8 -0.2-0.2-0.5-0.3-0.9-0.3h-1.1l0.2-1c0.4 0 0.9 0 1.4 0 0.5 0 1 0 1.4-0.1 0.5 0 1.1 0 1.6-0.1l0.2 0.3c-0.5 2.1-0.9 4.2-1.3 6.3 -0.2 0.9-0.4 1.9-0.6 2.8 -0.2 1-0.4 2-0.6 3 -0.2 1-0.3 2-0.5 3 -0.2 1-0.3 1.9-0.4 2.8L96.5 111zM103.7 111c0.1 0 0.2 0 0.2-0.1 0.1 0 0.2-0.1 0.4-0.2 0.2-0.1 0.4-0.3 0.6-0.5 0.3-0.2 0.6-0.5 1-0.8h0.3l0.4 0.7c-0.9 0.9-1.7 1.7-2.4 2.2 -0.6 0.5-1.1 0.7-1.4 0.7 -0.3 0-0.5-0.1-0.6-0.2 -0.1-0.2-0.2-0.4-0.2-0.7 0.3-1.6 0.5-3 0.7-4.3 0.1-0.5 0.2-1.1 0.3-1.6 0.1-0.6 0.2-1.1 0.2-1.5 0.1-0.5 0.1-0.9 0.2-1.2 0-0.3 0.1-0.6 0.1-0.7 0-0.4-0.1-0.7-0.3-0.9s-0.5-0.3-0.9-0.3h-1.1l0.2-1c0.4 0 0.9 0 1.4 0s1 0 1.4-0.1c0.5 0 1.1 0 1.6-0.1l0.2 0.3c-0.3 1-0.6 2.1-0.9 3.2 -0.3 1-0.5 2.1-0.7 3.3 -0.2 1.2-0.5 2.5-0.6 3.7L103.7 111zM104.9 96.4c-0.4 0-0.7-0.1-0.9-0.4 -0.2-0.2-0.3-0.5-0.3-0.8 0-0.5 0.2-0.9 0.5-1.3s0.7-0.5 1.3-0.5c0.4 0 0.6 0.1 0.8 0.4 0.2 0.2 0.3 0.5 0.3 0.8 0 0.5-0.2 0.9-0.5 1.3C105.8 96.3 105.4 96.4 104.9 96.4zM113.5 101.6c-0.4 0-0.9 0.2-1.3 0.5 -0.4 0.3-0.8 0.8-1.1 1.4 -0.3 0.6-0.6 1.2-0.8 1.9 -0.2 0.7-0.3 1.5-0.3 2.2 0 1.1 0.2 2 0.5 2.7 0.3 0.7 0.8 1 1.4 1 0.5 0 1.1-0.2 1.6-0.7 0.6-0.4 1-1 1.3-1.7h0.4l0.4 0.7c-0.5 1-1.2 1.8-2 2.4 -0.8 0.6-1.6 0.9-2.4 0.9 -1 0-1.8-0.4-2.3-1.2 -0.6-0.8-0.8-1.9-0.8-3.3 0-1.1 0.2-2.1 0.5-3.1 0.4-1 0.8-1.9 1.4-2.7 0.6-0.8 1.2-1.4 2-1.9 0.7-0.5 1.5-0.7 2.3-0.7 0.5 0 0.9 0.1 1.3 0.2s0.7 0.2 1 0.4l0.1 0.3 -0.9 1.8 -0.4 0.1C114.9 102 114.3 101.6 113.5 101.6z"/></a><a xlink:href="https://www.google.com/fonts/specimen/Source+Sans+Pro" xlink:show="new"><path fill="#444444" d="M-115.8 139.1c1.1 1.1 2.6 1.9 4.2 1.9 2 0 3.2-1 3.2-2.5s-1.1-2-2.5-2.7l-2.2-0.9c-1.4-0.6-3.1-1.7-3.1-3.9 0-2.3 2-4 4.8-4 1.8 0 3.4 0.8 4.5 1.9l-1 1.2c-0.9-0.9-2.1-1.4-3.4-1.4 -1.7 0-2.8 0.9-2.8 2.2 0 1.5 1.3 2 2.5 2.5l2.2 0.9c1.8 0.8 3.1 1.8 3.1 4 0 2.4-2 4.3-5.2 4.3 -2.1 0-4-0.9-5.3-2.2L-115.8 139.1zM-99.5 130.9c2.7 0 5.2 2.1 5.2 5.9 0 3.7-2.4 5.9-5.2 5.9 -2.8 0-5.2-2.1-5.2-5.9C-104.7 133-102.2 130.9-99.5 130.9zM-99.5 141.1c1.9 0 3.2-1.7 3.2-4.3s-1.3-4.3-3.2-4.3 -3.2 1.8-3.2 4.3C-102.7 139.3-101.4 141.1-99.5 141.1zM-91.5 131.1h1.9v6.9c0 2.1 0.6 3 2.1 3 1.2 0 2-0.6 3-1.9v-8h1.9v11.2h-1.6l-0.2-1.8h-0.1c-1 1.2-2.1 2-3.7 2 -2.4 0-3.4-1.5-3.4-4.4v-7H-91.5zM-78.8 131.1h1.6l0.2 2h0.1c0.8-1.4 1.9-2.3 3.2-2.3 0.5 0 0.8 0.1 1.2 0.2l-0.4 1.7c-0.4-0.1-0.6-0.2-1.1-0.2 -0.9 0-2.1 0.7-2.8 2.6v7.2h-1.9v-11.2H-78.8zM-66.4 130.9c1.5 0 2.5 0.6 3.3 1.3l-0.9 1.2c-0.7-0.6-1.4-1-2.3-1 -2 0-3.5 1.8-3.5 4.3 0 2.6 1.4 4.3 3.5 4.3 1.1 0 2-0.5 2.6-1.1l0.9 1.2c-1 0.9-2.3 1.5-3.6 1.5 -3 0-5.3-2.1-5.3-5.9C-71.8 133-69.3 130.9-66.4 130.9zM-56.7 130.9c2.9 0 4.5 2.1 4.5 5.3 0 0.4 0 0.8-0.1 1h-7.5c0.1 2.4 1.6 3.9 3.7 3.9 1.1 0 2-0.3 2.8-0.9l0.7 1.2c-1 0.6-2.2 1.2-3.7 1.2 -3 0-5.4-2.2-5.4-5.9C-61.8 133.1-59.3 130.9-56.7 130.9zM-53.9 135.9c0-2.3-1-3.6-2.8-3.6 -1.6 0-3 1.3-3.2 3.6H-53.9zM-44.6 139.1c1.1 1.1 2.6 1.9 4.2 1.9 2 0 3.2-1 3.2-2.5s-1.1-2-2.5-2.7l-2.2-0.9c-1.4-0.6-3.1-1.7-3.1-3.9 0-2.3 2-4 4.8-4 1.8 0 3.4 0.8 4.5 1.9l-1 1.2c-0.9-0.9-2.1-1.4-3.4-1.4 -1.7 0-2.8 0.9-2.8 2.2 0 1.5 1.3 2 2.5 2.5l2.2 0.9c1.8 0.8 3.1 1.8 3.1 4 0 2.4-2 4.3-5.2 4.3 -2.1 0-4-0.9-5.3-2.2L-44.6 139.1zM-26.2 135.3c0-1.4-0.5-2.8-2.3-2.8 -1.3 0-2.5 0.6-3.3 1.2l-0.8-1.3c1-0.7 2.6-1.5 4.4-1.5 2.7 0 3.9 1.8 3.9 4.6v6.9h-1.6l-0.2-1.3 0 0c-1.1 0.9-2.3 1.6-3.7 1.6 -1.9 0-3.3-1.2-3.3-3.2C-33.1 137-31 135.8-26.2 135.3zM-29.3 141.1c1.1 0 2-0.5 3.1-1.5v-3.1c-3.8 0.5-5 1.4-5 2.8C-31.3 140.6-30.4 141.1-29.3 141.1zM-20.8 131.1h1.6l0.2 1.6h0.1c1.1-1.1 2.2-1.9 3.8-1.9 2.4 0 3.4 1.5 3.4 4.4v7.1h-1.9v-6.9c0-2.1-0.6-3-2.1-3 -1.2 0-1.9 0.6-3.1 1.7v8.1h-2V131.1zM-8.4 139.8c1 0.8 2 1.3 3.3 1.3 1.5 0 2.2-0.8 2.2-1.8 0-1.2-1.3-1.7-2.6-2.1 -1.6-0.6-3.3-1.3-3.3-3.2 0-1.8 1.4-3.2 3.9-3.2 1.4 0 2.6 0.6 3.5 1.3l-0.9 1.2c-0.8-0.6-1.6-1-2.6-1 -1.4 0-2.1 0.8-2.1 1.6 0 1 1.2 1.5 2.5 1.9 1.6 0.6 3.4 1.3 3.4 3.4 0 1.8-1.5 3.3-4.1 3.3 -1.6 0-3.1-0.7-4.2-1.5L-8.4 139.8zM6.3 127.2H11c3.3 0 5.6 1.1 5.6 4.5 0 3.2-2.3 4.7-5.6 4.7H8.2v6H6.3V127.2zM10.7 134.8c2.7 0 3.9-1 3.9-3.1 0-2.2-1.3-2.9-3.9-2.9H8.2v6H10.7zM19.4 131.1H21l0.2 2h0c0.8-1.4 1.9-2.3 3.2-2.3 0.5 0 0.8 0.1 1.2 0.2l-0.4 1.7c-0.4-0.1-0.6-0.2-1.1-0.2 -0.9 0-2.1 0.7-2.8 2.6v7.2h-1.9C19.4 142.3 19.4 131.1 19.4 131.1zM31.5 130.9c2.7 0 5.2 2.1 5.2 5.9 0 3.7-2.4 5.9-5.2 5.9 -2.7 0-5.2-2.1-5.2-5.9C26.3 133 28.7 130.9 31.5 130.9zM31.5 141.1c1.9 0 3.2-1.7 3.2-4.3s-1.3-4.3-3.2-4.3 -3.2 1.8-3.2 4.3C28.3 139.3 29.6 141.1 31.5 141.1zM52.7 142.4l-3.6-6.4h-2.7v6.4h-1.9v-15.1h4.7c3.1 0 5.3 1.1 5.3 4.2 0 2.4-1.3 3.8-3.4 4.3l3.9 6.6L52.7 142.4 52.7 142.4zM46.3 134.4h2.5c2.4 0 3.6-1 3.6-2.9 0-2-1.3-2.7-3.6-2.7h-2.5V134.4zM61.6 130.9c2.9 0 4.5 2.1 4.5 5.3 0 0.4 0 0.8-0.1 1h-7.6c0.1 2.4 1.6 3.9 3.7 3.9 1.1 0 2-0.3 2.8-0.9l0.7 1.2c-1 0.6-2.2 1.2-3.7 1.2 -3 0-5.4-2.2-5.4-5.9C56.5 133.1 59.1 130.9 61.6 130.9zM64.5 135.9c0-2.3-1-3.6-2.8-3.6 -1.6 0-3 1.3-3.2 3.6H64.5zM69.4 142L69.4 142c-0.6-0.4-1-1-1-1.9 0-0.9 0.6-1.7 1.2-2.1v-0.1c-0.7-0.6-1.5-1.7-1.5-3 0-2.4 1.9-4 4.2-4 0.6 0 1.2 0.1 1.6 0.3h3.9v1.5h-2.3c0.5 0.5 0.9 1.4 0.9 2.3 0 2.4-1.8 3.9-4.1 3.9 -0.6 0-1.2-0.1-1.7-0.4 -0.4 0.3-0.7 0.7-0.7 1.3 0 0.7 0.5 1.2 2 1.2h2.2c2.6 0 3.9 0.8 3.9 2.7 0 2.1-2.2 3.9-5.7 3.9 -2.7 0-4.6-1.1-4.6-3C67.8 143.6 68.4 142.7 69.4 142zM72.7 146.2c2.1 0 3.6-1.1 3.6-2.3 0-1-0.8-1.4-2.3-1.4h-1.9c-0.4 0-1 0-1.5-0.2 -0.8 0.6-1.2 1.2-1.2 1.9C69.5 145.4 70.7 146.2 72.7 146.2zM74.8 134.9c0-1.6-1.1-2.6-2.4-2.6s-2.4 1-2.4 2.6 1.1 2.7 2.4 2.7C73.7 137.5 74.8 136.5 74.8 134.9zM80.1 131.1H82v6.9c0 2.1 0.6 3 2.1 3 1.2 0 2-0.6 3-1.9v-8H89v11.2h-1.6l-0.2-1.8h0.1c-1 1.2-2.1 2-3.7 2 -2.4 0-3.4-1.5-3.4-4.4v-7H80.1zM92.8 125.9h1.9v14.3c0 0.6 0.3 0.8 0.5 0.8 0.1 0 0.2 0 0.4 0l0.3 1.4c-0.3 0.1-0.6 0.2-1.1 0.2 -1.4 0-2-0.9-2-2.5C92.8 140.1 92.8 125.9 92.8 125.9zM105.1 135.3c0-1.4-0.5-2.8-2.3-2.8 -1.3 0-2.5 0.6-3.3 1.2l-0.8-1.3c1-0.7 2.6-1.5 4.4-1.5 2.7 0 3.9 1.8 3.9 4.6v6.9h-1.6l-0.2-1.3 0 0c-1.1 0.9-2.3 1.6-3.7 1.6 -1.9 0-3.3-1.2-3.3-3.2C98.2 137 100.3 135.8 105.1 135.3zM102 141.1c1.1 0 2-0.5 3.1-1.5v-3.1c-3.8 0.5-5 1.4-5 2.8C100 140.6 100.9 141.1 102 141.1zM110.5 131.1h1.6l0.2 2h0.1c0.8-1.4 1.9-2.3 3.2-2.3 0.5 0 0.8 0.1 1.2 0.2l-0.4 1.7c-0.4-0.1-0.6-0.2-1.1-0.2 -0.9 0-2.1 0.7-2.8 2.6v7.2h-1.9v-11.2H110.5z"/></a></svg>