<svg xmlns="http://www.w3.org/2000/svg" version="1.2" baseProfile="tiny" x="0" y="0" viewBox="-50 50 100 100" xml:space="preserve"><text transform="matrix(1 0 0 1 7.1079 13.5215)" opacity="0">x</text><path fill="#CCCCCC" d="M-35.1 100c0-9.7 4-18.6 10.3-25l-10.5-10.4c-19.5 19.5-19.4 51.2 0.1 70.7l10.4-10.4C-31.1 118.8-35.1 109.9-35.1 100z"/><path fill="#444444" d="M24.8 125.1c-6.4 6.4-15.2 10.3-25 10.3 -9.7 0-18.3-4.2-24.7-10.5l-10.5 10.3c19.5 19.5 51 19.8 70.5 0.3L24.8 125.1z"/><path fill="#5E95B8" d="M35.1 64.6L24.7 75C31.1 81.4 35 90.2 35 100c0 9.7-3.9 18.7-10.2 25.1l10.3 10.4C54.8 116.1 54.8 84.1 35.1 64.6z"/><path fill="#11334D" d="M0 64.7c9.7 0 18.4 4 24.8 10.3l10.4-10.4c-19.5-19.5-51-19.5-70.5 0L-24.8 75C-18.6 68.7-9.8 64.7 0 64.7z"/></svg>