<svg xmlns="http://www.w3.org/2000/svg" xmlns:xlink="http://www.w3.org/1999/xlink" version="1.2" baseProfile="tiny" x="0" y="0" viewBox="-188 347 233.6 100" xml:space="preserve"><text transform="matrix(1 0 0 1 7.1079 13.5215)" opacity="0">x</text><a xlink:href="http://www.dafont.com/decibel.font" xlink:show="new"><path fill="#333333" d="M-159.4 423.8c0.1 0 0.3 0 0.6-0.1 0.3 0 0.6-0.1 0.6-0.1 0.1 0 0.4 0 0.8-0.1 0.5 0 1-0.1 1.5-0.1 0.6 0 1.1-0.1 1.5-0.1 0.5 0 0.7-0.1 0.8-0.1 0.1 0 0.4 0 0.7 0 0.3 0 0.7-0.1 1-0.1s0.7-0.1 1-0.1c0.3 0 0.6-0.1 0.7-0.1h-4.8 -4.8c-0.1 0-0.4 0-0.9 0.1 -0.5 0-1 0.1-1.6 0.1 -0.6 0-1.1 0.1-1.6 0.1s-0.8 0.1-0.9 0.1h-0.1l-0.3-0.1 -0.4-0.4c-0.1-0.1-0.3-0.3-0.5-0.6 -0.3-0.3-0.4-0.6-0.5-0.6 0 0 0-0.3-0.1-0.6 0-0.4-0.1-0.6-0.1-0.8s0-0.4 0-0.8c0-0.4-0.1-0.7-0.1-1.1 0-0.4-0.1-0.8-0.1-1.1 0-0.4 0-0.6 0-0.8l-0.1-0.1 -0.3 0.1v-6.2c0-0.5-0.1-1.4-0.1-2.5 0-1.2-0.1-2.4-0.2-3.9 -0.1-1.4-0.2-2.9-0.3-4.5 -0.1-1.6-0.2-3.1-0.3-4.5 -0.1-1.4-0.1-2.7-0.2-3.9 -0.1-1.1-0.1-2-0.1-2.5 0-0.2 0-0.5 0-0.9 0-0.4 0-0.9 0-1.3 0-0.5 0-0.9 0-1.3 0-0.4 0-0.7 0-0.8v-4.2 -2.7l0.1-0.1c0 0.1 0 0.2 0.1 0.4 0 0.1 0.1 0.3 0.1 0.4 0 0.1 0 0.3 0.1 0.6 0 0.3 0.1 0.5 0.1 0.7 0 0.2 0 0.5 0.1 0.9 0 0.4 0.1 0.6 0.1 0.6l1.2 20.2 1.7-25.5c0 0 0-0.2 0.1-0.4 0-0.2 0.1-0.3 0.1-0.4l0.1-0.3c0-0.1 0-0.3 0.1-0.6 0-0.3 0.1-0.5 0.1-0.6 0.1 0 0.3 0 0.5-0.1 0.2 0 0.4-0.1 0.5-0.1l0.3-0.1h1.7c0.1 0 0.5 0 1.2-0.1 0.6-0.1 1-0.1 1.2-0.1s0.4 0 0.9-0.1c0.4 0 0.7-0.1 0.9-0.1 0.3 0 0.8 0 1.5-0.1 0.7 0 1.2-0.1 1.3-0.1h2.6 2.7c0 0 0.2 0 0.5 0 0.3 0 0.6 0 0.9 0 0.3 0 0.7 0 1 0 0.3 0 0.6 0 0.8 0 0.1 0 0.5 0 1 0.1 0.5 0 0.8 0.1 1 0.1s0.4 0 0.6 0c0.3 0 0.6 0.1 0.9 0.1 0.3 0 0.6 0.1 0.9 0.1 0.3 0 0.5 0 0.6 0 0.1 0 0.3 0 0.5 0.1 0.2 0 0.4 0.1 0.5 0.1 0.1 0 0.3 0 0.5 0.1 0.3 0.1 0.4 0.1 0.5 0.1 0.1 0 0.2 0 0.4 0.1 0.2 0.1 0.3 0.1 0.4 0.1 0.1 0 0.2 0 0.4 0.1 0.1 0.1 0.3 0.1 0.4 0.1 0.2 0.1 0.6 0.2 1 0.4 0.4 0.2 0.7 0.3 0.8 0.4 0.1 0.1 0.3 0.2 0.6 0.4 0.3 0.2 0.5 0.3 0.6 0.4 0.1 0 0.2 0.1 0.4 0.2s0.3 0.3 0.4 0.4c0.1 0.1 0.3 0.3 0.6 0.5 0.3 0.3 0.5 0.5 0.7 0.6l0.1 0.1c0.1 0.1 0.3 0.4 0.6 0.7 0.3 0.3 0.4 0.5 0.5 0.6 0 0.1 0.1 0.2 0.2 0.3 0.1 0.1 0.2 0.2 0.2 0.3 0 0.1 0.1 0.1 0.1 0.2 0.1 0.1 0.2 0.3 0.3 0.4 0 0.1 0.1 0.2 0.1 0.2 0.1 0.1 0.2 0.3 0.4 0.6 0.2 0.3 0.3 0.5 0.4 0.6 0.1 0.1 0.2 0.2 0.3 0.4 0.1 0.1 0.1 0.3 0.1 0.4 0.1 0.2 0.3 0.7 0.6 1.3 0.3 0.6 0.6 1.1 0.6 1.3 0.1 0.1 0.2 0.3 0.3 0.5 0.1 0.2 0.1 0.4 0.1 0.5 0.1 0.1 0.2 0.5 0.4 1.1 0.2 0.6 0.3 1.1 0.4 1.4 0 0.1 0 0.3 0.1 0.5 0.1 0.2 0.1 0.4 0.1 0.5 0 0.1 0 0.2 0.1 0.3 0 0.1 0.1 0.2 0.1 0.3 0 0.1 0 0.3 0.1 0.6 0.1 0.3 0.1 0.5 0.1 0.6v-0.4 -0.3c0-0.1 0-0.3-0.1-0.5 0-0.2-0.1-0.4-0.1-0.5 0-0.1 0-0.3-0.1-0.7 -0.1-0.4-0.1-0.6-0.1-0.8s0-0.3-0.1-0.6c-0.1-0.3-0.1-0.4-0.1-0.5 0-0.1-0.1-0.4-0.2-0.8 -0.1-0.4-0.3-0.7-0.4-0.9l-0.1-0.3c-0.1-0.2-0.1-0.3-0.1-0.4 0-0.1-0.1-0.2-0.1-0.3 0-0.1-0.1-0.2-0.1-0.3l-0.1-0.4c-0.1-0.1-0.2-0.3-0.3-0.6 -0.1-0.3-0.2-0.5-0.3-0.6 -0.1-0.1-0.2-0.3-0.3-0.5 -0.1-0.2-0.2-0.4-0.3-0.5 -0.1-0.1-0.3-0.4-0.5-0.8 -0.3-0.4-0.4-0.7-0.5-0.8 -0.1-0.1-0.2-0.3-0.4-0.6 -0.2-0.3-0.3-0.5-0.4-0.6 -0.1-0.1-0.3-0.3-0.5-0.6 -0.2-0.3-0.4-0.5-0.5-0.6l-1.2-1.2c-0.1-0.1-0.3-0.3-0.6-0.5 -0.3-0.2-0.5-0.4-0.6-0.5 -0.1-0.1-0.3-0.2-0.5-0.4 -0.2-0.2-0.4-0.3-0.6-0.4 -0.1-0.1-0.2-0.2-0.4-0.3 -0.2-0.1-0.3-0.2-0.4-0.3 -0.1-0.1-0.2-0.2-0.4-0.3l-0.3-0.1 -2.3-1.2 -0.3-0.1c-0.2-0.1-0.3-0.1-0.4-0.1 -0.1 0-0.2 0-0.4-0.1 -0.2-0.1-0.3-0.1-0.4-0.1 -0.1 0-0.3 0-0.5-0.1 -0.3-0.1-0.5-0.1-0.6-0.1 -0.2 0-0.3 0-0.4-0.1 -0.1 0-0.2 0-0.3-0.1l-18.1-1.5 0.1-0.1h3 4.7c0.1 0 0.4 0 0.8 0 0.4 0 0.9 0 1.3 0 0.5 0 0.9 0 1.4 0 0.4 0 0.8 0 1 0 0.1 0 0.5 0 1.1 0.1 0.6 0 0.9 0.1 1.1 0.1 0.1 0 0.3 0.1 0.4 0.1 0.1 0 0.2 0.1 0.3 0.1 0.1 0 0.2 0 0.3 0 0.1 0 0.3 0 0.5 0.1 0.2 0 0.4 0.1 0.5 0.1 0.1 0 0.2 0 0.4 0.1 0.2 0 0.3 0.1 0.4 0.1 0.1 0 0.2 0 0.4 0.1 0.1 0 0.3 0.1 0.4 0.1 0.1 0 0.3 0 0.6 0.1 0.3 0.1 0.5 0.1 0.6 0.1 0.1 0 0.3 0 0.5 0.1 0.2 0.1 0.4 0.1 0.5 0.1 0.1 0 0.2 0 0.4 0.1 0.2 0.1 0.3 0.1 0.4 0.1 0.1 0.1 0.4 0.2 0.8 0.4 0.4 0.1 0.6 0.2 0.7 0.2 0.2 0.1 0.6 0.3 1.1 0.5 0.5 0.2 0.8 0.4 0.9 0.5 0.1 0 0.4 0.2 0.9 0.5 0.5 0.4 0.9 0.7 1.2 0.9 0.1 0 0.2 0 0.3 0.1 0.1 0.1 0.2 0.2 0.3 0.3 0 0 0.1 0.1 0.2 0.2 0.1 0.1 0.2 0.2 0.3 0.3 0.1 0.1 0.3 0.2 0.4 0.3 0.1 0.1 0.4 0.3 0.8 0.6 0.4 0.3 0.6 0.6 0.7 0.7 0.1 0.1 0.2 0.2 0.3 0.4 0.1 0.1 0.2 0.2 0.3 0.3 0.1 0.1 0.1 0.2 0.2 0.2 0.1 0.1 0.2 0.2 0.3 0.3 0.1 0.1 0.1 0.2 0.1 0.3 0.1 0.2 0.3 0.6 0.6 1 0.3 0.4 0.5 0.7 0.5 0.8 0 0 0.1 0.2 0.2 0.4 0.1 0.2 0.2 0.5 0.4 0.7 0.1 0.3 0.3 0.5 0.4 0.8 0.1 0.3 0.2 0.5 0.3 0.6 0 0.1 0 0.2 0.1 0.4 0.1 0.1 0.1 0.3 0.1 0.4 0 0.1 0.1 0.3 0.2 0.5 0.1 0.3 0.2 0.5 0.3 0.8 0.1 0.3 0.2 0.6 0.3 0.8 0.1 0.2 0.1 0.4 0.2 0.4 0 0.1 0 0.3 0.1 0.5 0.1 0.2 0.1 0.4 0.1 0.6 0.1 0.1 0.2 0.5 0.3 1.1 0.1 0.6 0.1 0.9 0.1 1.1 0 0.1 0 0.3 0.1 0.5 0 0.2 0.1 0.4 0.1 0.5 0 0.1 0 0.4 0.1 0.7 0 0.3 0.1 0.6 0.1 0.6 0 0.1 0 0.4 0 0.8 0 0.5 0 0.9 0 1.5 0 0.5 0 1.1 0 1.6 0 0.5 0 0.9 0 1.2v0.6 0.6c0 0.2 0 0.7-0.1 1.3 0 0.6-0.1 1-0.1 1.2 0 0.2-0.1 0.4-0.1 0.5 0 0.2-0.1 0.4-0.1 0.6 0 0.1 0 0.2 0 0.3 0 0.1 0 0.2 0 0.3 0 0.1-0.1 0.3-0.1 0.4 0 0.1 0 0.4-0.1 0.8 -0.1 0.4-0.1 0.6-0.1 0.7 0 0.1 0 0.4-0.1 0.8 -0.1 0.5-0.2 0.8-0.3 0.9 0 0.1 0 0.3-0.1 0.5 -0.1 0.2-0.1 0.4-0.1 0.5 0 0.1 0 0.2-0.1 0.4 -0.1 0.2-0.1 0.3-0.1 0.4 -0.1 0.2-0.2 0.6-0.4 1.2 -0.2 0.6-0.3 0.9-0.4 1 0 0-0.1 0.2-0.2 0.4 -0.1 0.2-0.3 0.5-0.4 0.8 -0.1 0.3-0.3 0.6-0.4 0.9 -0.1 0.3-0.2 0.5-0.3 0.6 -0.1 0.1-0.2 0.2-0.3 0.4 -0.1 0.2-0.1 0.3-0.1 0.4 0 0.1-0.1 0.3-0.2 0.5 -0.1 0.2-0.2 0.4-0.3 0.5 -0.1 0.1-0.2 0.2-0.3 0.4 -0.1 0.1-0.1 0.3-0.1 0.4s0 0.2-0.1 0.3l-0.1 0.1c-0.1 0.1-0.2 0.3-0.4 0.6 -0.2 0.3-0.3 0.5-0.4 0.6 -0.1 0.1-0.2 0.2-0.4 0.4 -0.1 0.2-0.3 0.3-0.4 0.4l-1.6 1.6c-0.1 0.1-0.3 0.2-0.4 0.3 -0.1 0.1-0.2 0.2-0.3 0.3s-0.2 0.1-0.3 0.2l-0.4 0.4c-0.1 0.1-0.2 0.2-0.3 0.2 -0.1 0.1-0.3 0.2-0.5 0.4 -0.2 0.2-0.4 0.3-0.5 0.3 -0.1 0.1-0.4 0.2-0.8 0.4s-0.6 0.3-0.7 0.4c-0.1 0.1-0.3 0.2-0.7 0.3 -0.4 0.1-0.6 0.2-0.8 0.3 -0.1 0-0.3 0-0.5 0.1 -0.2 0.1-0.4 0.2-0.5 0.3 -0.1 0-0.3 0-0.5 0.1 -0.3 0.1-0.5 0.2-0.6 0.3l-0.4 0.1c-0.1 0-0.3 0-0.5 0.1 -0.2 0.1-0.4 0.1-0.5 0.1 -0.1 0-0.4 0.1-0.9 0.2 -0.4 0.1-0.7 0.2-0.9 0.2 -0.1 0-0.2 0-0.4 0.1 -0.1 0-0.3 0.1-0.4 0.1 0 0-0.2 0-0.4 0.1 -0.2 0-0.3 0.1-0.4 0.1 -0.2 0-0.7 0-1.3 0.1 -0.6 0.1-1 0.1-1.2 0.1 -0.2 0-0.6 0-1.2 0.1 -0.6 0-0.9 0.1-1 0.1h-5 -3.3L-159.4 423.8zM-166.4 411.1v0.9c0 0.3 0 0.9 0 1.6 0 0.7 0.1 1.5 0.1 2.3 0 0.8 0.1 1.6 0.1 2.3 0 0.7 0 1.2 0 1.5 0 0.1 0 0.3 0 0.5s0 0.4 0.1 0.6c0 0.2 0 0.4 0.1 0.6l1.2 1.3h0.6 1c0.2 0 0.7 0 1.5-0.1 0.7 0 1.2-0.1 1.5-0.1 -0.1 0-0.4 0-0.8 0 -0.4 0-0.8 0-1.2 0 -0.4 0-0.8 0-1.2 0 -0.4 0-0.6 0-0.8 0h-0.4l-1.2-1.2V419v-3.7c0-0.3 0-1.1 0-2.4 0-1.2 0-2.6 0-4s0-2.8 0-4c0-1.2 0-2 0-2.4v-3.8V395l-0.8 15.3V411.1zM-163.3 416.8c0 0-0.1 0-0.1 0.1 0 0.1 0 0.3 0 0.5 0 0.2 0 0.4 0 0.6 0 0.2 0.1 0.2 0.1 0.2 0.1-0.1 0.1-0.4 0.1-0.8C-163.2 417.2-163.2 416.9-163.3 416.8zM-162.8 420h1c0.1 0 0.2 0 0.4-0.1 0.2 0 0.3-0.1 0.4-0.1 0.2 0 0.7 0 1.3 0 0.6 0 1.3-0.1 2.1-0.1 0.7 0 1.4-0.1 2.1-0.1 0.6 0 1.1 0 1.3 0 0.1 0 0.4 0 0.9-0.1s0.9-0.1 1.1-0.1c0.1 0 0.4 0 0.8-0.1 0.4 0 0.6-0.1 0.7-0.1 0.1 0 0.4 0 1-0.1 0.6-0.1 1-0.1 1.3-0.1 0.1 0 0.3 0 0.5-0.1 0.2 0 0.4-0.1 0.5-0.1 0.2 0 0.6 0 1-0.1 0.4-0.1 0.7-0.1 0.8-0.1 0.2-0.1 0.6-0.2 1.4-0.3 0.7-0.1 1.2-0.2 1.4-0.3 0 0 0.3 0 0.6-0.1 0.1 0 0.3-0.1 0.5-0.1 0.1 0 0.4-0.2 1-0.5 0.6-0.3 1-0.5 1.3-0.7l0.7-0.4c0.1 0 0.2 0 0.3-0.1l0.1-0.1c0.1-0.1 0.3-0.3 0.6-0.5 0.3-0.2 0.4-0.4 0.5-0.4 0.1-0.1 0.4-0.4 0.8-0.7s0.6-0.5 0.7-0.6c0.1-0.1 0.3-0.3 0.6-0.7 0.3-0.4 0.5-0.6 0.6-0.8 0.1-0.1 0.2-0.3 0.4-0.5 0.2-0.3 0.3-0.5 0.4-0.6 0.1 0 0.2-0.2 0.3-0.4 0.1-0.2 0.2-0.3 0.3-0.4 0.1-0.1 0.2-0.2 0.3-0.4 0.1-0.1 0.1-0.3 0.1-0.4 0.1-0.1 0.2-0.4 0.4-0.9 0.2-0.5 0.3-0.7 0.4-0.8 0-0.1 0.1-0.3 0.2-0.7 0.1-0.4 0.3-0.6 0.4-0.8 0-0.1 0-0.2 0.1-0.4 0.1-0.2 0.1-0.3 0.1-0.4 0-0.1 0-0.3 0.1-0.5 0.1-0.2 0.1-0.4 0.1-0.5 0-0.1 0-0.4 0.1-0.8 0.1-0.4 0.1-0.6 0.1-0.7v-0.3 -0.1c0 0.1-0.1 0.4-0.2 0.8 -0.1 0.4-0.2 0.6-0.2 0.8 0 0.1-0.1 0.4-0.2 0.8 -0.1 0.5-0.3 0.7-0.4 0.8 0 0.1 0 0.2-0.1 0.4 -0.1 0.1-0.1 0.3-0.1 0.4 -0.1 0.2-0.3 0.6-0.5 1.1 -0.2 0.5-0.4 0.8-0.5 0.9 -0.1 0.1-0.3 0.3-0.5 0.8 -0.3 0.4-0.5 0.7-0.6 1 -0.1 0.1-0.2 0.2-0.3 0.4 -0.1 0.1-0.2 0.2-0.3 0.3 -0.1 0.1-0.2 0.3-0.4 0.5 -0.2 0.2-0.4 0.4-0.7 0.7 -0.3 0.2-0.5 0.5-0.7 0.7 -0.2 0.2-0.3 0.4-0.4 0.4 -0.1 0.1-0.2 0.2-0.4 0.3 -0.1 0.1-0.3 0.2-0.4 0.3 -0.1 0.1-0.4 0.3-0.9 0.6 -0.5 0.3-0.7 0.4-0.8 0.5 -0.1 0.1-0.3 0.2-0.7 0.4s-0.6 0.3-0.7 0.4c-0.1 0.1-0.3 0.2-0.7 0.3 -0.4 0.1-0.6 0.2-0.8 0.3l-0.4 0.1c-0.3 0.1-0.5 0.1-0.6 0.1 -0.1 0-0.2 0-0.3 0.1 -0.1 0-0.2 0.1-0.3 0.1 0 0-0.1 0-0.2 0 -0.1 0-0.2 0-0.3 0 -0.1 0-0.2 0.1-0.3 0.1 -0.2 0-0.6 0-1.2 0.1 -0.6 0-0.9 0.1-1 0.1h-3.6 -3.5c0 0-0.2 0-0.4 0 -0.2 0-0.4 0-0.7 0 -0.3 0-0.5 0-0.8 0 -0.2 0-0.4 0-0.6 0s-0.4 0-0.8-0.1c-0.4 0-0.6-0.1-0.8-0.1 -0.1 0-0.3 0-0.5-0.1 -0.2 0-0.4-0.1-0.5-0.1 -0.1 0-0.2 0-0.4-0.1 -0.1 0-0.3-0.1-0.4-0.1l-0.4-0.1c0.1 0 0.2 0 0.4-0.1s0.3-0.1 0.4-0.1h0.5c0.1 0 0.2 0 0.4-0.1h0.4 0.4c0.1 0 0.3 0 0.8 0 0.4 0 0.8 0 1.3 0.1 0.5 0 0.9 0 1.3 0.1 0.4 0 0.7 0 0.8 0h2.5 2.7c0.1 0 0.3 0 0.7-0.1s0.6-0.1 0.8-0.1c0.1 0 0.3 0 0.5 0 0.2 0 0.4 0 0.5 0 0.1 0 0.3 0 0.7-0.1 0.4-0.1 0.6-0.1 0.8-0.1 0 0 0.1 0 0.2-0.1 0.1 0 0.2 0 0.2 0 0 0 0.1 0 0.1 0 0.1 0 0.3 0 0.5-0.1 0.2-0.1 0.4-0.1 0.5-0.1 0.1 0 0.2 0 0.4-0.1 0.2-0.1 0.3-0.1 0.4-0.1 0.1 0 0.2 0 0.4-0.1 0.1-0.1 0.3-0.1 0.4-0.1 0.1 0 0.3-0.1 0.6-0.2s0.5-0.3 0.6-0.4l0.3-0.1c0.1-0.1 0.3-0.2 0.5-0.4 0.2-0.1 0.4-0.2 0.5-0.2 0.1-0.1 0.2-0.2 0.4-0.3 0.2-0.1 0.3-0.2 0.4-0.3 0.1-0.1 0.2-0.2 0.4-0.4 0.1-0.1 0.3-0.2 0.4-0.2 0.1-0.1 0.4-0.4 0.9-0.8s0.7-0.7 0.8-0.8c0-0.1 0.1-0.2 0.2-0.3 0.1-0.1 0.2-0.2 0.2-0.3 0-0.1 0.1-0.1 0.1-0.2 0.1-0.1 0.2-0.3 0.3-0.4 0-0.1 0.1-0.2 0.1-0.2 0.1-0.1 0.2-0.2 0.3-0.3 0.1-0.1 0.2-0.3 0.3-0.4 0.1-0.2 0.2-0.4 0.4-0.6 0 0 0.1-0.2 0.3-0.5 0.1-0.3 0.3-0.5 0.4-0.8 0.1-0.3 0.3-0.6 0.4-0.9 0.1-0.3 0.3-0.5 0.4-0.6 0-0.1 0-0.2 0.1-0.4 0.1-0.1 0.1-0.3 0.1-0.4 0.1-0.1 0.2-0.4 0.4-0.9 0.1-0.5 0.2-0.7 0.2-0.8s0-0.4 0.1-0.8c0.1-0.5 0.2-0.8 0.3-0.9 0-0.1 0-0.3 0.1-0.6 0.1-0.3 0.1-0.6 0.1-0.7 0-0.1 0-0.3 0-0.5 0-0.2 0-0.4 0-0.5 0-0.1 0-0.4 0.1-0.8 0-0.4 0.1-0.6 0.1-0.7v-1.7 -1.8c0-0.1 0-0.3-0.1-0.8 0-0.4-0.1-0.7-0.1-0.8 0-0.1 0-0.3 0-0.5 0-0.2 0-0.4 0-0.5 0-0.2 0-0.6-0.1-0.9 -0.1-0.4-0.1-0.6-0.1-0.7 0-0.1 0-0.4-0.1-0.9 -0.1-0.4-0.2-0.7-0.3-0.9 -0.1-0.1-0.2-0.5-0.4-1.1 -0.1-0.6-0.3-0.9-0.4-1.1 0-0.1 0-0.3-0.1-0.5 -0.1-0.2-0.2-0.4-0.3-0.5 0-0.1-0.1-0.2-0.2-0.4 -0.1-0.2-0.2-0.3-0.2-0.4 -0.1-0.1-0.2-0.3-0.3-0.5 -0.1-0.2-0.2-0.4-0.3-0.5 0-0.1-0.1-0.2-0.2-0.4 -0.1-0.2-0.3-0.3-0.4-0.4 -0.1-0.1-0.2-0.3-0.3-0.4 0-0.1-0.1-0.2-0.1-0.2l-1.2-1.2c-0.1-0.1-0.2-0.2-0.4-0.3 -0.1-0.1-0.3-0.2-0.4-0.3 -0.1-0.1-0.4-0.3-0.7-0.5 -0.3-0.2-0.5-0.4-0.6-0.4 -0.1-0.1-0.4-0.3-0.9-0.5 -0.5-0.2-0.9-0.4-1.1-0.5l-0.3-0.1c-0.2-0.1-0.3-0.1-0.4-0.1 -0.1 0-0.2 0-0.4-0.1 -0.2-0.1-0.3-0.1-0.4-0.1 -0.1 0-0.3 0-0.5-0.1 -0.2-0.1-0.4-0.1-0.5-0.1 -0.1 0-0.2 0-0.3-0.1 -0.1 0-0.2 0-0.3 0 -0.1 0-0.1 0-0.2 0 -0.1 0-0.2 0-0.4-0.1 -0.2 0-0.3-0.1-0.4-0.1 -0.1 0-0.3 0-0.6-0.1 -0.3 0-0.5-0.1-0.6-0.1h-2.8 -2.9c-0.1 0-0.4 0-0.9 0 -0.5 0-1 0-1.5 0 -0.6 0-1.1 0-1.5 0 -0.5 0-0.8 0-0.9 0h-3.4 -2.2l-0.3-0.1 0.4-0.1c0.1 0 0.2 0 0.4-0.1 0.1 0 0.2 0 0.4 0 0.1 0 0.3 0 0.4 0 0.1 0 0.4 0 0.8-0.1 0.4 0 0.6-0.1 0.7-0.1 0.1 0 0.5 0 0.9-0.1 0.5 0 0.8-0.1 0.9-0.1 0.2 0 0.6 0 1.2-0.1 0.6 0 1-0.1 1.2-0.1 0.3 0 0.8 0 1.5 0 0.7 0 1.5-0.1 2.3-0.1 0.8 0 1.5-0.1 2.3-0.1 0.7 0 1.2 0 1.5 0l-1.4-0.1h-9.2c-0.1 0-0.4 0-0.8 0.1 -0.4 0-0.6 0.1-0.8 0.1 -0.1 0-0.3 0-0.5 0 -0.3 0-0.5 0-0.8 0s-0.6 0-0.8 0c-0.3 0-0.4 0-0.5 0 -0.1 0-0.2 0-0.3 0.1 -0.1 0-0.2 0.1-0.3 0.1v0.4 0.4c0 0.1 0 0.4 0.1 0.8 0 0.4 0.1 0.6 0.1 0.7 0-0.1 0-0.2 0.1-0.4 0-0.1 0.1-0.3 0.1-0.4 0-0.1 0-0.2 0.1-0.3 0-0.1 0.1-0.2 0.1-0.3l0.1 0.3v7.1c0 0.4 0 1 0.1 1.9 0 0.9 0.1 1.8 0.2 2.9 0.1 1.1 0.1 2.2 0.2 3.4 0.1 1.2 0.1 2.4 0.2 3.5 0 1.1 0.1 2.1 0.1 3 0 0.9 0.1 1.5 0.1 1.9 0 0.1 0 0.7 0 1.8 0 1.1 0.1 2.2 0.1 3.6 0 1.3 0.1 2.7 0.1 4 0 1.3 0.1 2.4 0.1 3.1v0.7 0.7c0 0.1 0 0.4-0.1 0.9 0 0.4-0.1 0.7-0.1 0.8l-0.1-0.2c0-0.1-0.1-0.2-0.1-0.4 0-0.1-0.1-0.2-0.1-0.3 0-0.1 0-0.2 0-0.3 0-0.1 0-0.3-0.1-0.6 0-0.3-0.1-0.6-0.1-0.6 0-0.1 0-0.4-0.1-0.9 0-0.5-0.1-0.7-0.1-0.8 0-0.6-0.1-1.8-0.2-3.4 -0.1-1.6-0.2-3.4-0.3-5.2 -0.1-1.8-0.2-3.6-0.3-5.2 -0.1-1.6-0.1-2.8-0.2-3.4h-0.1l-1.4 23.1V420zM-162.3 375.8c0 0.6 0 1.4 0 2.6 0 1.1 0 2.4 0 3.8 0 1.4 0 2.9-0.1 4.5 0 1.6-0.1 3-0.1 4.5 0 1.4 0 2.7 0 3.8 0 1.1 0 2 0 2.5v1.9 1.8l0.9-16.8v-1.2 -1.4c0-0.2 0-0.8-0.1-1.7 0-0.9-0.1-1.5-0.1-1.9 0-0.1 0-0.5-0.1-1.2 0-0.6-0.1-1-0.1-1.2H-162.3zM-162.3 375.4h0.3v-0.1h-0.3V375.4zM-161.5 375.4h2.4c-0.1 0-0.5 0-1.1-0.1 -0.6 0-1-0.1-1.1-0.1h-0.1V375.4zM-130.1 401.8c-0.1 0-0.1 0-0.1 0.1 0 0.1 0 0.1 0.1 0.1 0 0 0.1 0 0.1-0.1C-130 401.8-130 401.8-130.1 401.8zM-130.1 402.1c-0.1 0-0.1 0-0.1 0.1 0 0.1 0 0.1 0.1 0.1 0 0 0.1 0 0.1-0.1C-130 402.1-130 402.1-130.1 402.1zM-124 409.5v-0.4c0 0.1 0.1 0.3 0.2 0.6s0.2 0.6 0.2 0.6 0.1 0.4 0.3 1c0.2 0.6 0.3 0.9 0.3 1l0.1 0.4c0 0.1 0 0.2 0.1 0.4 0.1 0.1 0.1 0.3 0.1 0.4 0.1 0.1 0.2 0.3 0.3 0.5 0.1 0.2 0.1 0.4 0.1 0.5 0 0.1 0 0.2 0.1 0.3 0.1 0.1 0.1 0.2 0.1 0.3 0.1 0.1 0.2 0.3 0.3 0.5 0.1 0.2 0.2 0.4 0.2 0.5 0.1 0.1 0.2 0.3 0.4 0.6 0.2 0.3 0.3 0.5 0.4 0.6 0 0.1 0.1 0.2 0.2 0.3 0.1 0.1 0.2 0.2 0.2 0.3 0.1 0.1 0.2 0.3 0.4 0.5 0.2 0.2 0.3 0.4 0.4 0.5l0.7 0.7c0.1 0.1 0.2 0.2 0.3 0.3 0.1 0.1 0.2 0.2 0.3 0.3 0.1 0.1 0.3 0.2 0.4 0.3h0.1c-0.1-0.1-0.4-0.5-0.9-0.9 -0.4-0.5-0.7-0.8-0.9-0.9 -0.1-0.1-0.2-0.2-0.3-0.4 -0.1-0.1-0.2-0.3-0.3-0.4 -0.1-0.1-0.2-0.3-0.4-0.6 -0.2-0.3-0.3-0.5-0.4-0.6 -0.1-0.1-0.2-0.2-0.3-0.4 -0.1-0.1-0.1-0.3-0.1-0.4 -0.1-0.1-0.2-0.3-0.3-0.6 -0.1-0.3-0.2-0.5-0.2-0.6 0-0.1-0.1-0.3-0.2-0.7 -0.1-0.4-0.3-0.6-0.4-0.8 0 0-0.1-0.1-0.1-0.1 0 0-0.1-0.1-0.1-0.3s0-0.3-0.1-0.5c-0.1-0.2-0.1-0.4-0.1-0.5 0-0.1-0.1-0.2-0.1-0.3 0-0.1-0.1-0.2-0.1-0.4s0-0.4-0.1-0.9c-0.1-0.4-0.1-0.7-0.1-0.9 0-0.1 0-0.3-0.1-0.5 0-0.2-0.1-0.4-0.1-0.5 0-0.1 0-0.4-0.1-0.8 0-0.4-0.1-0.6-0.1-0.7v-2.7 -2.6c0-0.1 0-0.3 0.1-0.4 0-0.1 0-0.2 0-0.3 0-0.1 0-0.2 0-0.3 0-0.1 0-0.3 0.1-0.5 0-0.2 0.1-0.4 0.1-0.5s0-0.2 0.1-0.4c0-0.1 0.1-0.3 0.1-0.4 0-0.1 0-0.3 0.1-0.6 0.1-0.3 0.1-0.5 0.1-0.6 0-0.1 0-0.3 0.1-0.5 0.1-0.2 0.1-0.4 0.1-0.5l0.1-0.4c0 0 0.1-0.1 0.1-0.3 0-0.1 0.1-0.3 0.1-0.4l0.1-0.4c0.1-0.1 0.3-0.5 0.5-1.1 0.2-0.6 0.4-1 0.6-1.2l0.1-0.3c0.1-0.2 0.2-0.3 0.3-0.4 0.1-0.1 0.2-0.2 0.4-0.4 0.1-0.2 0.2-0.3 0.2-0.4 0-0.1 0.1-0.2 0.2-0.3 0.1-0.1 0.3-0.2 0.4-0.3 0.1-0.1 0.3-0.3 0.5-0.6 0.2-0.3 0.4-0.5 0.5-0.6l0.3-0.3c0.1-0.1 0.3-0.3 0.6-0.5 0.3-0.2 0.5-0.4 0.6-0.5 0.1-0.1 0.2-0.2 0.3-0.3 0.1-0.1 0.2-0.2 0.3-0.3 0.1-0.1 0.3-0.3 0.6-0.5 0.3-0.2 0.4-0.4 0.5-0.4 0.1-0.1 0.2-0.2 0.4-0.3 0.1-0.1 0.3-0.1 0.4-0.1h0.1l0.3-0.1 0.4-0.1c0.1 0 0.2 0 0.3-0.1 0.2-0.1 0.3-0.1 0.4-0.1 0.1-0.1 0.4-0.2 0.9-0.4s0.7-0.2 0.8-0.2c0.1 0 0.3 0 0.6-0.1 0.3-0.1 0.5-0.1 0.6-0.1 0.1 0 0.3 0 0.5-0.1 0.2 0 0.4-0.1 0.5-0.1h1.6 1.5c0.1 0 0.3 0 0.7 0.1 0.4 0 0.7 0.1 0.9 0.1 0.1 0 0.6 0 1.2 0.1 0.7 0.1 1.1 0.1 1.2 0.1h0.3 0.2c0 0-0.2 0-0.4-0.1 -0.2-0.1-0.3-0.1-0.4-0.1 0 0-0.1 0-0.2-0.1 -0.1 0-0.2 0-0.2 0 0 0-0.1 0-0.1 0 -0.1 0-0.2 0-0.4-0.1 -0.1 0-0.3-0.1-0.4-0.1 -0.2 0-0.4 0-0.5-0.1 -0.1 0-0.3 0-0.4-0.1 -0.1 0-0.4 0-0.8-0.1 -0.5 0-0.8-0.1-1-0.1h-0.1 -0.1c-0.1 0-0.3 0-0.6 0 -0.3 0-0.5 0-0.8 0 -0.3 0-0.5 0-0.7 0 -0.2 0-0.3 0-0.4 0 -0.1 0-0.3 0-0.5 0.1 -0.2 0-0.4 0.1-0.5 0.1h-0.1 -0.3l0.4-0.1c0.1 0 0.2 0 0.4-0.1 0.1 0 0.3-0.1 0.4-0.1 0.1 0 0.3 0 0.5-0.1 0.2 0 0.4-0.1 0.5-0.1 0.1 0 0.4 0 0.8-0.1 0.4 0 0.6-0.1 0.7-0.1h0.9 1c0.1 0 0.3 0 0.7 0.1 0.4 0 0.6 0.1 0.8 0.1 0.1 0 0.2 0.1 0.4 0.1 0.1 0 0.3 0.1 0.5 0.1 0.1 0 0.2 0 0.4 0.1 0.1 0 0.3 0.1 0.4 0.1 0 0 0.1 0 0.1 0 0 0 0.1 0 0.2 0 0 0 0.1 0.1 0.2 0.1 0.1 0.1 0.4 0.2 0.9 0.3 0.4 0.1 0.7 0.2 0.9 0.3 0.1 0 0.2 0 0.4 0.1 0.1 0.1 0.3 0.1 0.4 0.1 0.1 0 0.2 0.1 0.4 0.2 0.2 0.1 0.3 0.2 0.4 0.2 0.1 0 0.2 0 0.4 0.1 0.1 0.1 0.3 0.2 0.4 0.3 0.1 0.1 0.4 0.2 0.7 0.4 0.3 0.2 0.5 0.3 0.5 0.4 0.1 0.1 0.2 0.2 0.4 0.4 0.2 0.1 0.3 0.3 0.4 0.4l1.6 1.6c0 0.1 0.1 0.2 0.2 0.3 0.1 0.1 0.2 0.2 0.2 0.3 0 0.1 0.1 0.1 0.1 0.2 0.1 0.1 0.2 0.2 0.3 0.3 0.1 0.1 0.2 0.2 0.3 0.3 0.1 0.1 0.2 0.3 0.4 0.4 0.1 0.1 0.2 0.3 0.4 0.7 0.2 0.4 0.3 0.6 0.4 0.8 0.1 0.1 0.2 0.3 0.3 0.7s0.2 0.6 0.3 0.8c0.1 0.1 0.2 0.3 0.3 0.7 0.1 0.4 0.2 0.6 0.3 0.8s0.2 0.4 0.3 0.6c0.1 0.3 0.1 0.5 0.1 0.6 0 0.1 0 0.3 0.1 0.8 0.1 0.4 0.2 0.7 0.3 1 0 0.1 0 0.2 0.1 0.4 0 0.1 0.1 0.3 0.1 0.4 0 0.1 0 0.2 0.1 0.4 0 0.2 0.1 0.3 0.1 0.4s0 0.2 0 0.3c0 0.1 0 0.2 0.1 0.3 0 0.1 0 0.3 0.1 0.4 0 0.1 0 0.4 0.1 1 0 0.6 0.1 0.9 0.1 1.1v0.7 0.4l-0.7 0.7c-0.1 0.1-0.2 0.2-0.4 0.4 -0.2 0.2-0.4 0.3-0.7 0.5 -0.3 0.2-0.5 0.3-0.7 0.5 -0.2 0.2-0.3 0.3-0.4 0.4h-0.4 -0.6c-0.1 0-0.4 0-0.9-0.1 -0.5-0.1-0.8-0.1-0.9-0.1 -0.1 0-0.4 0-0.9-0.1 -0.5 0-0.7-0.1-0.8-0.1h-2.2 -2.7c-0.1 0-0.5 0-1.2 0 -0.6 0-1.3 0-2 0 -0.7 0-1.4 0-2 0 -0.6 0-1 0-1.2 0h-4.2 -4c-0.1 0-0.3 0-0.5 0 -0.2 0-0.5 0-0.8 0s-0.6 0-0.8 0c-0.3 0-0.4 0-0.5 0 -0.1 0-0.2 0-0.4 0 -0.1 0-0.3 0-0.4 0l18.9-0.7h1.6 1.4c0.1 0 0.4 0 1 0.1 0.6 0 1 0.1 1.3 0.2 0.1 0 0.4 0 0.9 0.1 0.5 0.1 0.8 0.1 0.9 0.1h0.6 0.4c0.1-0.1 0.4-0.3 0.8-0.6 0.4-0.3 0.7-0.6 0.8-0.6l0.6-0.6v-1 -0.9c0-0.1 0-0.3-0.1-0.7 0-0.4-0.1-0.6-0.1-0.8 0-0.1 0-0.3-0.1-0.6 0-0.3-0.1-0.4-0.1-0.5 0-0.1 0-0.3-0.1-0.7 -0.1-0.4-0.1-0.6-0.1-0.8 0-0.1 0-0.3-0.1-0.6 -0.1-0.3-0.1-0.5-0.1-0.6 0 0 0-0.1 0-0.1 0 0 0-0.1 0-0.1 0 0-0.1-0.1-0.1-0.1 -0.1-0.1-0.3-0.5-0.5-1 -0.3-0.6-0.4-0.9-0.5-1.2l-0.1-0.3c-0.1-0.2-0.2-0.3-0.3-0.4 0-0.1-0.1-0.2-0.2-0.3 -0.1-0.1-0.2-0.2-0.3-0.4 -0.1-0.1-0.2-0.3-0.3-0.5 -0.1-0.2-0.4-0.6-0.8-1.1 -0.4-0.5-0.6-0.8-0.7-0.9l-1.3-1.3v0.1c0.1 0.1 0.2 0.3 0.4 0.5 0.2 0.2 0.3 0.4 0.4 0.5 0 0.1 0.1 0.2 0.2 0.3 0.1 0.1 0.2 0.2 0.2 0.3 0.1 0.1 0.2 0.3 0.4 0.6 0.2 0.3 0.3 0.6 0.4 0.6 0.1 0.1 0.2 0.2 0.3 0.4 0.1 0.1 0.1 0.3 0.1 0.4 0.1 0.1 0.2 0.3 0.4 0.7 0.1 0.4 0.3 0.6 0.4 0.8 0 0.1 0 0.2 0.1 0.4s0.1 0.3 0.1 0.4c0 0.1 0 0.2 0.1 0.4 0.1 0.2 0.1 0.3 0.1 0.4 0 0.1 0 0.3 0.1 0.5 0.1 0.2 0.1 0.4 0.1 0.5 0 0.1 0 0.2 0.1 0.4 0 0.1 0.1 0.3 0.1 0.4 0 0.1 0 0.4 0.1 0.7 0 0.3 0.1 0.5 0.1 0.6v0.6 0.4c0 0.1 0 0.3-0.1 0.5 0 0.2-0.1 0.4-0.1 0.5 0 0.1 0 0.3-0.1 0.5 -0.1 0.3-0.1 0.4-0.1 0.5 0 0.1 0 0.5-0.1 1 0 0.5-0.1 0.9-0.1 1 -0.1 0-0.3 0-0.6 0.1 -0.3 0-0.6 0.1-0.6 0.1 -0.1 0-0.2 0.1-0.4 0.3 -0.2 0.2-0.3 0.3-0.4 0.3l-0.3 0.1 -25.1-0.4 -0.1-0.3h2.6 -4.2v0.7 0.7l0.1 0.6c0 0 0.1 0.3 0.2 0.9 0.1 0.5 0.2 0.8 0.2 0.9 0 0.1 0 0.3 0.1 0.4 0 0.1 0 0.2 0.1 0.2 0 0.1 0 0.3 0.1 0.5 0.1 0.2 0.1 0.4 0.1 0.5 0.1 0.1 0.2 0.5 0.4 1 0.1 0.6 0.3 0.9 0.4 1 0.1 0.1 0.2 0.3 0.3 0.6 0.1 0.3 0.1 0.4 0.1 0.5 0.1 0.1 0.2 0.3 0.3 0.6 0.1 0.3 0.2 0.5 0.3 0.6 0 0.1 0.1 0.2 0.2 0.4 0.2 0.3 0.3 0.5 0.4 0.5 0.1 0.1 0.2 0.3 0.3 0.4 0 0.1 0.1 0.2 0.1 0.2l1.5 1.5c0 0 0.1 0.1 0.2 0.1 0.1 0 0.2 0.1 0.4 0.3 0.1 0.1 0.2 0.2 0.4 0.3 0.2 0.1 0.3 0.2 0.4 0.3 0.1 0.1 0.2 0.2 0.4 0.3 0.1 0.1 0.3 0.1 0.4 0.1 0.1 0 0.2 0 0.3 0.1 0.1 0.1 0.2 0.1 0.3 0.1 0.1 0 0.2 0 0.4 0.1 0.1 0.1 0.3 0.1 0.4 0.1 0.1 0 0.3 0.1 0.6 0.2 0.3 0.1 0.5 0.2 0.6 0.2 0.1 0 0.2 0 0.3 0.1 0.1 0 0.2 0.1 0.3 0.1 0.1 0 0.2 0 0.4 0.1 0.2 0 0.3 0.1 0.4 0.1 0.1 0 0.4 0 0.8 0.1 0.4 0 0.6 0.1 0.7 0.1h0.6 0.6c0.1 0 0.3 0 0.7-0.1 0.4 0 0.6-0.1 0.8-0.1 0.1 0 0.2 0 0.4-0.1 0.1 0 0.2 0 0.3 0 0.1 0 0.2 0 0.2 0 0.1 0 0.2 0 0.4-0.1 0.1 0 0.3-0.1 0.4-0.1 0.1 0 0.3 0 0.4-0.1 0.1 0 0.2 0 0.2-0.1 0.1 0 0.2 0 0.4-0.1 0.2-0.1 0.3-0.1 0.4-0.1 0.1 0 0.2 0 0.4-0.1 0.1-0.1 0.3-0.1 0.4-0.1 0.1-0.1 0.4-0.2 0.7-0.4 0.3-0.1 0.6-0.3 0.6-0.4 0.1 0 0.2-0.1 0.4-0.2 0.3-0.2 0.5-0.3 0.5-0.4 0.1-0.1 0.3-0.2 0.4-0.3 0.1 0 0.2-0.1 0.2-0.1 0.1-0.1 0.4-0.4 0.8-0.8 0.4-0.4 0.6-0.6 0.8-0.8 0 0 0.1-0.1 0.1-0.2 0-0.1 0.1-0.2 0.3-0.4 0-0.1 0-0.2 0.1-0.3l0.1-0.1c0.1-0.1 0.2-0.4 0.4-0.9 0.2-0.4 0.3-0.7 0.4-0.9 0-0.1 0-0.2 0.1-0.4 0.1-0.1 0.1-0.3 0.1-0.4 0-0.1 0-0.2 0.1-0.4 0.1-0.2 0.1-0.3 0.1-0.4 0-0.1 0-0.3 0.1-0.6 0.1-0.3 0.1-0.5 0.1-0.6l0.1-0.4v-0.3l1-1c0 0 0.1-0.1 0.1-0.1 0 0 0.1-0.1 0.1-0.1 0 0 0.1-0.1 0.1-0.1h0.7 0.6l0.4 0.4c0.1 0.1 0.2 0.3 0.4 0.5 0.2 0.2 0.3 0.4 0.4 0.5 0 0.1 0 0.4-0.1 0.8 -0.1 0.4-0.1 0.6-0.1 0.8 0 0.1 0 0.2-0.1 0.3 0 0.1-0.1 0.2-0.1 0.3 0 0 0 0.1 0 0.1 0 0 0 0.1 0 0.2 0 0.1-0.1 0.2-0.1 0.2 0 0.1 0 0.3-0.1 0.6 -0.1 0.3-0.2 0.6-0.3 0.6 0 0.1 0 0.2-0.1 0.4 -0.1 0.1-0.1 0.3-0.1 0.4 -0.1 0.2-0.3 0.7-0.6 1.3 -0.3 0.6-0.6 1-0.6 1.2l0.1-0.1 0.1-0.1c0.1-0.1 0.1-0.2 0.1-0.2 0.1-0.1 0.2-0.2 0.3-0.4l0.1-0.3c0.1-0.1 0.2-0.4 0.4-0.8 0.1-0.4 0.3-0.6 0.4-0.7 0-0.1 0-0.2 0.1-0.4 0.1-0.1 0.1-0.3 0.1-0.4 0.1-0.1 0.2-0.4 0.3-0.9 0.1-0.4 0.2-0.7 0.3-0.9v-0.2c0 0 0-0.1 0-0.1 0 0 0-0.1 0-0.1 0-0.1 0.1-0.3 0.2-0.7 0-0.2 0.1-0.4 0.1-0.6v-0.3 -0.1l-1.1-1.4h0.1c0.1 0.1 0.2 0.3 0.4 0.4 0.1 0.1 0.2 0.2 0.3 0.3 0.1 0.1 0.2 0.2 0.3 0.3l0.7 0.7v0.1c0 0.1 0 0.3-0.1 0.5s-0.1 0.5-0.1 0.6 -0.1 0.4-0.2 0.8c-0.1 0.4-0.2 0.6-0.2 0.7 0 0 0 0.1 0 0.1 0 0 0 0.1 0 0.1 0 0-0.1 0.1-0.1 0.1 -0.1 0.1-0.2 0.3-0.3 0.6 -0.1 0.3-0.2 0.6-0.3 0.6 -0.1 0.2-0.3 0.6-0.5 1 -0.2 0.4-0.4 0.7-0.4 0.8s-0.1 0.3-0.4 0.6c-0.3 0.3-0.5 0.6-0.6 0.7 -0.1 0.1-0.2 0.2-0.3 0.4 -0.1 0.1-0.2 0.3-0.3 0.4l-1 1c-0.1 0.1-0.2 0.2-0.4 0.3 -0.1 0.1-0.2 0.2-0.3 0.3 -0.1 0.1-0.2 0.1-0.2 0.2 -0.1 0.1-0.4 0.3-0.6 0.5 -0.3 0.2-0.5 0.4-0.6 0.5 -0.1 0-0.2 0.1-0.4 0.2 -0.2 0.1-0.3 0.3-0.4 0.4 0 0-0.1 0.1-0.2 0.1 -0.1 0-0.2 0.1-0.3 0.1l-0.3 0.1c-0.2 0.1-0.6 0.3-1.2 0.6 -0.6 0.3-0.9 0.4-1.1 0.5l-0.4 0.1c-0.1 0-0.2 0.1-0.3 0.1 -0.1 0-0.2 0.1-0.3 0.1 -0.1 0-0.2 0-0.4 0.1 -0.2 0.1-0.3 0.1-0.4 0.1 -0.1 0-0.4 0.1-0.9 0.2 -0.4 0.1-0.7 0.2-0.9 0.2 -0.1 0-0.2 0-0.4 0.1 -0.2 0-0.3 0.1-0.4 0.1 -0.1 0-0.2 0-0.4 0 -0.1 0-0.3 0-0.4 0 -0.2 0-0.3 0.1-0.4 0.1h-1.5 -1.7c-0.1 0-0.3 0-0.5-0.1 -0.3 0-0.5-0.1-0.6-0.1s-0.4 0-0.7-0.1c-0.3-0.1-0.6-0.1-0.6-0.1 -0.1 0-0.3 0-0.5-0.1 -0.2-0.1-0.4-0.1-0.5-0.1 -0.1 0-0.2 0-0.4-0.1 -0.2-0.1-0.3-0.1-0.4-0.1 -0.1 0-0.2 0-0.4-0.1l-0.3-0.1c-0.2-0.1-0.6-0.3-1.1-0.5 -0.5-0.2-0.8-0.4-0.8-0.5 -0.1 0-0.3-0.1-0.6-0.3 -0.3-0.2-0.5-0.4-0.7-0.5 -0.1-0.1-0.3-0.2-0.4-0.3 -0.1 0-0.2-0.1-0.2-0.1l-1.4-1.4c-0.1-0.1-0.2-0.2-0.3-0.4 -0.1-0.1-0.2-0.2-0.3-0.3 -0.1-0.1-0.1-0.2-0.2-0.2 -0.1-0.1-0.2-0.2-0.3-0.3 -0.1-0.1-0.1-0.2-0.1-0.3 -0.1-0.1-0.2-0.4-0.4-0.7 -0.2-0.3-0.3-0.5-0.4-0.6 0 0-0.1-0.2-0.2-0.4 -0.1-0.2-0.3-0.4-0.4-0.5 0-0.1 0-0.2-0.1-0.3 -0.1-0.1-0.1-0.2-0.1-0.3 -0.1-0.1-0.2-0.3-0.3-0.5 -0.1-0.2-0.1-0.4-0.1-0.5 -0.1-0.1-0.2-0.4-0.3-0.9 -0.1-0.4-0.2-0.7-0.3-0.9 0-0.1 0-0.3-0.1-0.5 -0.1-0.3-0.1-0.4-0.1-0.5 -0.1-0.1-0.2-0.4-0.2-0.8 0-0.4-0.1-0.6-0.1-0.7V409.5zM-108.5 388.9h-0.6c0 0-0.1 0.1-0.2 0.1 -0.1 0-0.2 0.1-0.4 0.1 -0.1 0-0.3 0-0.6 0.1 -0.3 0.1-0.6 0.2-0.6 0.3 -0.1 0-0.2 0-0.3 0.1 -0.1 0.1-0.2 0.1-0.3 0.1 -0.1 0-0.2 0.1-0.4 0.2 -0.2 0.1-0.3 0.2-0.4 0.2l-0.3 0.1c-0.2 0.1-0.3 0.2-0.4 0.3 -0.1 0-0.2 0-0.3 0.1l-0.1 0.1c-0.1 0.1-0.2 0.2-0.4 0.3 -0.1 0.1-0.2 0.2-0.3 0.2l-1.6 1.6c0 0-0.1 0.1-0.1 0.2 0 0.1-0.1 0.2-0.1 0.2 0 0-0.1 0.1-0.1 0.1 0 0-0.2 0.2-0.4 0.5 -0.1 0.1-0.2 0.3-0.2 0.4 -0.1 0.1-0.3 0.5-0.5 1 -0.3 0.6-0.5 0.9-0.6 1.2 0 0.1 0 0.2-0.1 0.4 -0.1 0.1-0.1 0.3-0.1 0.4 -0.1 0.1-0.2 0.4-0.3 0.9 -0.1 0.4-0.2 0.7-0.3 0.9 0 0-0.1 0.1-0.1 0.2 0 0.1-0.1 0.2-0.1 0.4 0 0.1 0 0.2-0.1 0.4 0 0.1-0.1 0.3-0.1 0.4 0 0.1 0 0.3-0.1 0.5 0 0.2-0.1 0.4-0.1 0.5v0.2h0.6c0.2 0 0.3 0 0.4-0.1 0.1 0 0.2 0 0.3-0.1 0.2 0 0.6-0.1 1.2-0.2 0.6-0.1 0.9-0.2 1.2-0.2V401c-0.1 0-0.2 0-0.4-0.1 -0.2 0-0.3-0.1-0.4-0.1l-0.1-0.1c0.1 0 0.4 0 0.9 0 0.5 0 0.9 0 1.4 0s1 0 1.4 0c0.4 0 0.7 0 0.9 0 0.2 0 0.6 0 1.3-0.1 0.7-0.1 1.4-0.2 2.2-0.3 0.8-0.1 1.5-0.2 2.2-0.3 0.7-0.1 1.1-0.2 1.3-0.2 0.1 0 0.3 0 0.6 0 0.3 0 0.6-0.1 0.9-0.1 0.3 0 0.7-0.1 1-0.1 0.3 0 0.5 0 0.7 0 0.2 0 0.5 0 0.9 0 0.4 0 0.9-0.1 1.3-0.1 0.5 0 0.9-0.1 1.3-0.1 0.4 0 0.7 0 0.9 0V399v-0.1c0-0.1 0-0.4-0.1-0.9 -0.1-0.4-0.2-0.7-0.3-0.9 0-0.1 0-0.2-0.1-0.4 -0.1-0.2-0.1-0.3-0.1-0.4 0 0 0-0.2-0.1-0.4 -0.1-0.2-0.2-0.4-0.3-0.5l-0.1-0.3c-0.1-0.1-0.2-0.3-0.4-0.5 -0.1-0.2-0.2-0.4-0.2-0.5l-0.1-0.1c-0.1-0.1-0.1-0.2-0.1-0.3 -0.1-0.1-0.2-0.3-0.3-0.4 0-0.1-0.1-0.2-0.1-0.2 0-0.1-0.2-0.3-0.5-0.6 -0.3-0.3-0.5-0.5-0.7-0.7l-0.1-0.1c0 0-0.1-0.1-0.2-0.1 -0.1 0-0.2-0.1-0.3-0.2 -0.1 0-0.2-0.1-0.3-0.2 -0.1-0.1-0.2-0.2-0.4-0.4 -0.2-0.1-0.3-0.2-0.4-0.2 -0.1 0-0.3-0.1-0.5-0.2 -0.3-0.1-0.5-0.3-0.6-0.4l-0.3-0.1c-0.2-0.1-0.3-0.1-0.4-0.1 -0.1 0-0.2 0-0.3-0.1 0 0-0.1 0-0.1-0.1 -0.1 0-0.3 0-0.6-0.1 -0.3-0.1-0.5-0.1-0.6-0.1 0 0-0.1 0-0.3-0.1 -0.1 0-0.3-0.1-0.4-0.1 -0.1 0-0.4 0-0.7-0.1 -0.3 0-0.5-0.1-0.6-0.1H-108.5zM-94.6 402.7v-0.6l-14.9-0.6h-1.6 -1.5c-0.1 0-0.4 0-0.9 0 -0.5 0-1 0.1-1.6 0.1 -0.6 0-1.2 0.1-1.7 0.1 -0.6 0-1 0.1-1.4 0.1 -0.1 0-0.3 0-0.6 0.1s-0.5 0.1-0.6 0.1L-94.6 402.7zM-117.1 420.4c-0.1 0-0.1 0-0.1 0.1 0 0.1 0 0.1 0.1 0.1 0.1 0 0.1 0 0.1-0.1C-117 420.5-117 420.4-117.1 420.4zM-117.1 409.5v-0.6l0.1 0.1c0.1 0.1 0.2 0.5 0.3 1.2 0.1 0.6 0.2 1 0.3 1.2 0 0.1 0.1 0.4 0.2 0.6 0.1 0.3 0.2 0.5 0.2 0.6l1 2c0 0.1 0.1 0.2 0.2 0.4s0.3 0.3 0.4 0.4c0.1 0.1 0.2 0.2 0.3 0.4 0.1 0.1 0.2 0.3 0.3 0.4l0.6 0.6c0.1 0 0.2 0.1 0.4 0.2 0.2 0.1 0.3 0.2 0.4 0.3 0.1 0 0.2 0 0.4 0.1 0.2 0.1 0.3 0.2 0.4 0.3l0.3 0.1c0.2 0.1 0.3 0.1 0.4 0.1 0 0 0.1 0 0.1 0 0 0 0.1 0 0.1 0 0 0 0.1 0.1 0.1 0.1 0.1 0 0.3 0 0.6 0.1 0.3 0.1 0.5 0.1 0.6 0.1 0 0 0.1 0 0.2 0 0.1 0 0.2 0 0.3 0 0.1 0 0.3 0.1 0.4 0.1h1.9 1.8c0.1 0 0.2 0 0.4-0.1 0.1 0 0.2 0 0.3 0 0.1 0 0.2 0 0.2 0 0.1 0 0.3 0 0.6-0.1s0.5-0.1 0.6-0.1c0 0 0.1 0 0.1-0.1 0 0 0.1 0 0.1 0 0 0 0.1 0 0.1 0 0.1 0 0.2 0 0.4-0.1l0.3-0.1c0.1-0.1 0.3-0.2 0.6-0.4 0.2-0.1 0.4-0.2 0.5-0.2 0.1-0.1 0.2-0.2 0.4-0.3 0.2-0.1 0.3-0.2 0.4-0.3l1.3-1.3c0 0 0.1-0.1 0.1-0.2 0-0.1 0.1-0.2 0.3-0.4 0-0.1 0-0.2 0.1-0.3l0.1-0.1c0.1-0.1 0.2-0.3 0.4-0.6s0.3-0.5 0.4-0.7c0 0 0.1-0.2 0.2-0.4 0-0.1 0.1-0.2 0.1-0.2 0.1-0.1 0.2-0.5 0.4-1 0.1-0.6 0.3-0.9 0.4-1h0.5v0.4c0 0.1 0 0.3-0.1 0.7 -0.1 0.4-0.2 0.6-0.3 0.8 0 0.1 0 0.2-0.1 0.3 0 0.1-0.1 0.2-0.1 0.3 0 0.1-0.1 0.1-0.1 0.2 0 0.1-0.1 0.3-0.2 0.5 -0.1 0.2-0.2 0.4-0.2 0.5l-0.1 0.3c-0.1 0.1-0.2 0.2-0.3 0.4l-0.1 0.3c0 0-0.1 0.1-0.1 0.2 0 0.1-0.1 0.2-0.3 0.4 -0.1 0.1-0.2 0.2-0.4 0.4 -0.1 0.2-0.3 0.3-0.4 0.4 -0.1 0.1-0.2 0.2-0.3 0.3 -0.1 0.1-0.2 0.2-0.3 0.3 -0.1 0.1-0.2 0.2-0.4 0.3s-0.3 0.2-0.4 0.3c-0.1 0.1-0.2 0.2-0.4 0.4 -0.2 0.1-0.3 0.2-0.4 0.2 -0.1 0.1-0.4 0.2-0.7 0.4 -0.3 0.1-0.6 0.3-0.6 0.4 -0.1 0-0.3 0-0.6 0.1 -0.3 0.1-0.5 0.2-0.7 0.3 -0.1 0-0.2 0-0.3 0.1 -0.1 0-0.2 0.1-0.3 0.1 -0.1 0-0.2 0-0.4 0.1 -0.2 0-0.3 0.1-0.4 0.1 -0.1 0-0.3 0-0.8 0.1 -0.4 0-0.7 0.1-0.9 0.1h-0.1 -0.1c-0.1 0-0.4 0-0.9-0.1 -0.5 0-0.7-0.1-0.8-0.1 -0.1 0-0.3 0-0.5-0.1 -0.2 0-0.4-0.1-0.5-0.1 -0.1 0-0.2 0-0.4-0.1s-0.3-0.1-0.4-0.1c-0.1 0-0.3 0-0.5-0.1 -0.2-0.1-0.4-0.1-0.5-0.1 -0.1 0-0.2 0-0.3-0.1 -0.1-0.1-0.2-0.1-0.3-0.1 -0.1-0.1-0.4-0.2-0.8-0.4 -0.4-0.1-0.6-0.3-0.7-0.4 -0.1 0-0.2 0-0.3-0.1 -0.1-0.1-0.2-0.2-0.3-0.3 -0.1-0.1-0.4-0.3-0.8-0.6 -0.4-0.3-0.6-0.6-0.7-0.7 -0.1-0.1-0.2-0.2-0.3-0.3 -0.1-0.1-0.1-0.2-0.1-0.3 -0.1-0.1-0.2-0.4-0.4-0.9 -0.2-0.4-0.3-0.7-0.4-0.9 0-0.1-0.1-0.2-0.1-0.4 -0.1-0.3-0.1-0.5-0.1-0.5 0-0.1 0-0.3-0.1-0.5 -0.1-0.2-0.1-0.4-0.1-0.5 0-0.1 0-0.2-0.1-0.3 0-0.1-0.1-0.2-0.1-0.3 0-0.1 0-0.3-0.1-0.6 0-0.3-0.1-0.4-0.1-0.5V409.5zM-117 420.7l0.1 0.1h0.1l-0.1-0.1H-117zM-116.5 420.9c-0.1 0-0.1 0-0.1 0.1 0 0.1 0 0.1 0.1 0.1 0.1 0 0.1 0 0.1-0.1C-116.4 420.9-116.4 420.9-116.5 420.9zM-116.4 421c-0.1 0-0.1 0-0.1 0.1 0 0.1 0 0.1 0.1 0.1 0.1 0 0.1 0 0.1-0.1C-116.3 421.1-116.3 421-116.4 421zM-116.2 421.2c0 0-0.1 0-0.1 0.1 0 0.1 0 0.1 0.1 0.1 0.1 0 0.1 0 0.1-0.1C-116 421.2-116.1 421.2-116.2 421.2zM-105.8 388.6c0.1-0.1 0-0.1-0.3-0.1 -0.3 0-0.4 0-0.3 0.1 0.1 0.1 0.2 0.1 0.3 0.1C-106 388.8-105.9 388.7-105.8 388.6zM-104.8 400.7c0.2 0 0.7 0 1.4 0 0.7 0 1.4 0.1 2.1 0.1 0.7 0 1.5 0.1 2.2 0.1 0.7 0 1.2 0 1.5 0h3.1v-1.6c0-0.1-0.1-0.2-0.1-0.4 0-0.1-0.1-0.2-0.1-0.3 0-0.1 0-0.2 0-0.3 0-0.1 0-0.2-0.1-0.4 0-0.1-0.1-0.3-0.1-0.4 0-0.1 0-0.3-0.1-0.6s-0.1-0.5-0.1-0.6c0 0-0.1-0.1-0.1-0.1 0 0-0.1-0.1-0.1-0.2 0-0.1 0-0.2-0.1-0.4l-0.1-0.3c0-0.2-0.2-0.6-0.4-1 -0.2-0.4-0.3-0.7-0.4-0.8 -0.1-0.1-0.2-0.3-0.4-0.6 -0.2-0.3-0.3-0.5-0.4-0.7 0-0.1-0.1-0.2-0.3-0.4 -0.2-0.2-0.3-0.3-0.4-0.4l-0.3-0.3c-0.1-0.1-0.2-0.2-0.4-0.3 -0.1-0.1-0.3-0.2-0.4-0.2 -0.1 0-0.2-0.1-0.4-0.2 -0.1-0.1-0.3-0.2-0.4-0.2 -0.1-0.1-0.3-0.2-0.7-0.4 -0.4-0.1-0.6-0.3-0.7-0.4l-0.3-0.1c-0.2-0.1-0.3-0.1-0.4-0.1 -0.1 0-0.2 0-0.3-0.1 0 0-0.1 0-0.1-0.1 -0.1 0-0.3 0-0.6-0.1 -0.3-0.1-0.5-0.1-0.6-0.1 -0.1 0-0.2 0-0.4-0.1 -0.2 0-0.3-0.1-0.4-0.1h-0.6 -0.7c0.1 0 0.2 0 0.4 0.1 0.1 0 0.3 0.1 0.4 0.1 0 0 0.1 0 0.1 0 0 0 0.1 0 0.2 0 0.1 0 0.2 0.1 0.2 0.1 0.1 0.1 0.4 0.2 0.7 0.3 0.3 0.1 0.5 0.1 0.6 0.1 0.1 0 0.4 0.1 0.8 0.4 0.5 0.2 0.8 0.4 0.9 0.5l0.1 0.1c0.1 0.1 0.2 0.1 0.2 0.1 0.1 0.1 0.3 0.2 0.4 0.3 0.1 0 0.2 0.1 0.2 0.1 0.1 0 0.3 0.2 0.6 0.6 0.3 0.3 0.6 0.6 0.6 0.6 0 0 0.1 0.1 0.1 0.2 0 0.1 0.1 0.2 0.3 0.4 0.1 0.1 0.2 0.2 0.4 0.4 0.1 0.2 0.2 0.3 0.2 0.4l0.1 0.3c0.1 0.1 0.2 0.3 0.3 0.7 0.1 0.4 0.2 0.6 0.3 0.8 0 0 0 0.1 0.1 0.1 0 0 0 0.1 0 0.1 0 0 0 0.1 0 0.1 0 0.1 0 0.3 0.1 0.5 0.1 0.2 0.1 0.4 0.1 0.5 0 0.1 0 0.3 0.1 0.4 0 0.1 0 0.2 0.1 0.2 0 0.2 0 0.4 0.1 0.5 0 0.1 0 0.3 0.1 0.4v0.7 0.6l-0.1 0.3h-0.1l-0.1-0.1h-0.1 -0.3c-0.1 0-0.4 0-0.9 0.1 -0.5 0.1-0.8 0.1-0.9 0.1 -0.1 0-0.3 0-0.5 0.1 -0.2 0-0.4 0.1-0.5 0.1 -0.2 0-0.5 0.1-0.9 0.1 -0.4 0-0.9 0.1-1.4 0.1s-1 0.1-1.4 0.1C-104.3 400.6-104.6 400.7-104.8 400.7zM-100.4 385.5c0-0.1 0-0.1-0.1-0.1 -0.1 0-0.1 0-0.1 0.1 0 0.1 0 0.1 0.1 0.1C-100.5 385.7-100.4 385.6-100.4 385.5zM-100.1 385.5c-0.1 0-0.1 0-0.1 0.1 0 0.1 0 0.1 0.1 0.1 0.1 0 0.1 0 0.1-0.1C-100 385.6-100 385.5-100.1 385.5zM-95.4 389.2c-0.1 0-0.1 0-0.1 0.1 0 0.1 0 0.1 0.1 0.1s0.1 0 0.1-0.1C-95.3 389.2-95.4 389.2-95.4 389.2zM-95.3 389.3c-0.1 0-0.1 0-0.1 0.1 0 0.1 0 0.1 0.1 0.1 0.1 0 0.1 0 0.1-0.1C-95.2 389.4-95.2 389.3-95.3 389.3zM-94.6 402.8c-0.1 0-0.1 0-0.1 0.1s0 0.1 0.1 0.1c0.1 0 0.1 0 0.1-0.1S-94.5 402.8-94.6 402.8zM-93.7 399c-0.1 0-0.1 0.1-0.1 0.2 0 0.1 0 0.2 0.1 0.2 0.1 0 0.1-0.1 0.1-0.2C-93.6 399.1-93.6 399-93.7 399zM-93.6 400.1v0.7l0.1 0.3 0.3 0.1V401c0-0.1 0-0.3-0.1-0.5 -0.1-0.2-0.1-0.4-0.1-0.5l-0.1-0.4V400.1zM-93.4 403.1l0.3-0.1c0.1 0 0.2 0 0.3-0.1 0.1-0.1 0.1-0.2 0.1-0.3l0.1-0.3h-0.9V403.1zM-86.3 404.7V403c0-0.1 0-0.3 0.1-0.7 0-0.4 0.1-0.6 0.1-0.7 0-0.1 0-0.4 0.1-0.9 0.1-0.4 0.1-0.7 0.1-0.9 0-0.1 0-0.3 0.1-0.8 0.1-0.4 0.2-0.7 0.3-1 0-0.1 0-0.3 0.1-0.5 0.1-0.2 0.1-0.4 0.1-0.5 0-0.1 0-0.2 0.1-0.4 0.1-0.2 0.1-0.3 0.1-0.4 0.1-0.1 0.2-0.3 0.3-0.7 0.1-0.4 0.2-0.6 0.3-0.8 0-0.1 0.1-0.3 0.2-0.6 0.1-0.3 0.3-0.5 0.4-0.7l0.1-0.3c0.1-0.4 0.4-0.9 0.8-1.5 0.4-0.6 0.6-0.9 0.7-1 0-0.1 0.1-0.2 0.2-0.4 0.1-0.2 0.3-0.3 0.4-0.4 0.1-0.1 0.2-0.3 0.3-0.4 0-0.1 0.1-0.2 0.1-0.2l2-2c0.1-0.1 0.2-0.2 0.4-0.3 0.1-0.1 0.2-0.2 0.3-0.3 0.1-0.1 0.4-0.3 0.7-0.5 0.3-0.2 0.5-0.3 0.6-0.3 0.1-0.1 0.4-0.3 1-0.5 0.6-0.3 1-0.5 1.3-0.6 0.1 0 0.2 0 0.4-0.1 0.1-0.1 0.3-0.1 0.4-0.1 0.1-0.1 0.4-0.2 0.6-0.3 0.3-0.1 0.5-0.1 0.6-0.1 0.1 0 0.4-0.1 0.9-0.2 0.4-0.1 0.7-0.2 0.9-0.2 0.1 0 0.2 0 0.4-0.1 0.2 0 0.3-0.1 0.4-0.1 0.2 0 0.5 0 0.6-0.1 0.1 0 0.3 0 0.5-0.1h1.7 1.6c0.1 0 0.3 0 0.5 0.1 0.3 0 0.5 0.1 0.6 0.1 0.1 0 0.2 0 0.4 0.1 0.1 0 0.3 0.1 0.4 0.1 0.1 0 0.3 0 0.6 0.1 0.2 0.1 0.4 0.1 0.5 0.1 0.1 0 0.3 0 0.6 0.1 0.3 0.1 0.5 0.2 0.7 0.3 0.1 0 0.2 0 0.4 0.1 0.1 0.1 0.3 0.1 0.4 0.1 0.1 0 0.2 0.1 0.4 0.2 0.2 0.1 0.3 0.2 0.4 0.2 0.1 0 0.2 0 0.4 0.1 0.1 0.1 0.3 0.2 0.4 0.3 0.1 0.1 0.2 0.2 0.4 0.4 0.2 0.1 0.3 0.2 0.4 0.2 0.1 0.1 0.2 0.2 0.4 0.3 0.1 0.1 0.2 0.2 0.3 0.2l1.6 1.6c0 0.1 0.1 0.2 0.2 0.4 0.1 0.1 0.3 0.3 0.4 0.4 0 0.1 0.1 0.2 0.2 0.4 0.1 0.2 0.3 0.3 0.4 0.4 0.1 0.1 0.2 0.2 0.3 0.4 0.1 0.1 0.1 0.3 0.1 0.4 0.1 0.1 0.2 0.2 0.3 0.4 0.1 0.2 0.1 0.3 0.1 0.4 0.1 0.1 0.2 0.3 0.4 0.7 0.1 0.4 0.2 0.6 0.2 0.7 0 0.1 0 0.3 0.1 0.5 0.1 0.3 0.1 0.5 0.1 0.6s0 0.4 0.1 0.8c0.1 0.4 0.1 0.6 0.1 0.7v0.3 0.3l-0.1 0.3c-0.1 0.1-0.2 0.3-0.3 0.4 -0.1 0.1-0.2 0.2-0.3 0.3 -0.1 0.1-0.1 0.1-0.2 0.2l-0.1 0.1 -0.3 0.1h-0.4 -0.6l-0.3-0.1c-0.1 0-0.2-0.1-0.4-0.2 -0.1 0-0.2-0.1-0.2-0.2 0 0-0.1-0.1-0.1-0.1 0 0-0.1-0.1-0.2-0.2 -0.1 0-0.2-0.1-0.2-0.2 0 0-0.1-0.1-0.1-0.1 0 0-0.1-0.1-0.1-0.3 0-0.1 0-0.3-0.1-0.6 -0.1-0.3-0.1-0.5-0.1-0.6 0-0.1 0-0.2-0.1-0.4 -0.1-0.2-0.1-0.3-0.1-0.4 0-0.1 0-0.2-0.1-0.4 -0.1-0.1-0.1-0.3-0.1-0.4 0-0.1-0.1-0.3-0.3-0.6 -0.1-0.3-0.2-0.4-0.2-0.5 -0.1-0.1-0.2-0.2-0.4-0.4 -0.1-0.2-0.2-0.3-0.2-0.4l-1.7-1.7c0 0-0.1-0.1-0.2-0.1 -0.1 0-0.2-0.1-0.4-0.3 -0.1 0-0.2-0.1-0.4-0.2 -0.1-0.1-0.3-0.2-0.4-0.2 -0.1 0-0.2-0.1-0.4-0.2 -0.2-0.1-0.3-0.2-0.4-0.2l-0.3-0.1c-0.2-0.1-0.3-0.1-0.4-0.1l-0.4-0.1c-0.1 0-0.2 0-0.3-0.1 -0.1 0-0.2-0.1-0.3-0.1 -0.2 0-0.3 0-0.4-0.1 -0.1 0-0.2 0-0.3-0.1 -0.1 0-0.3 0-0.6-0.1 -0.3 0-0.4-0.1-0.5-0.1h-1.3H-69c-0.1 0-0.3 0-0.5 0.1 -0.3 0-0.5 0.1-0.6 0.1 -0.1 0-0.2 0.1-0.3 0.1 -0.1 0-0.2 0.1-0.4 0.1 -0.1 0-0.2 0-0.3 0.1 -0.1 0-0.2 0.1-0.3 0.1 0 0-0.1 0-0.1 0 0 0-0.1 0-0.1 0 0 0-0.1 0.1-0.1 0.1 -0.2 0.1-0.6 0.3-1.1 0.5 -0.5 0.2-0.8 0.4-0.9 0.5 -0.1 0.1-0.4 0.2-0.7 0.4 -0.3 0.2-0.5 0.3-0.6 0.4l-1.4 1.4c-0.1 0.1-0.3 0.3-0.4 0.4 -0.1 0.1-0.2 0.2-0.3 0.3 -0.1 0.1-0.2 0.2-0.3 0.3l-0.3 0.4c-0.1 0.1-0.2 0.3-0.3 0.5 -0.1 0.2-0.2 0.4-0.3 0.5 0 0.1 0 0.2-0.1 0.3 -0.1 0.1-0.1 0.2-0.1 0.3 0 0.1-0.1 0.3-0.2 0.5 -0.1 0.2-0.1 0.4-0.1 0.5 0 0.1-0.1 0.4-0.2 0.8 -0.1 0.4-0.3 0.7-0.4 0.9 0 0-0.1 0.1-0.1 0.2 0 0.1-0.1 0.2-0.1 0.4 0 0.1 0 0.2-0.1 0.4 0 0.1-0.1 0.3-0.1 0.4s0 0.2-0.1 0.4c0 0.2-0.1 0.3-0.1 0.4 0 0.1 0 0.2 0 0.4s0 0.3 0 0.4c0 0.2-0.1 0.3-0.1 0.4v1.8 1.9c0 0.2 0 0.4 0.1 0.5 0 0.1 0 0.3 0 0.4 0 0.1 0 0.2 0 0.3s0 0.2 0.1 0.4c0 0.2 0.1 0.3 0.1 0.4 0 0.1 0 0.2 0.1 0.4s0.1 0.3 0.1 0.4c0 0.1 0 0.3 0.1 0.6 0.1 0.2 0.1 0.4 0.1 0.5s0 0.3 0.1 0.6c0.1 0.3 0.2 0.5 0.3 0.7 0 0.1 0 0.2 0.1 0.4 0.1 0.1 0.1 0.3 0.1 0.4 0 0.1 0.1 0.3 0.3 0.7 0.1 0.4 0.3 0.6 0.4 0.8 0 0.1 0.1 0.2 0.2 0.4 0.1 0.1 0.2 0.3 0.2 0.4 0.1 0.1 0.2 0.3 0.4 0.5 0.2 0.3 0.3 0.4 0.4 0.5l1 1c0.1 0 0.2 0.1 0.3 0.2 0.1 0.1 0.2 0.2 0.3 0.2 0.1 0 0.1 0.1 0.2 0.1 0.1 0 0.2 0 0.3 0.1l0.1 0.1c0.1 0.1 0.4 0.2 0.9 0.4 0.4 0.2 0.7 0.3 0.8 0.4 0.1 0 0.2 0.1 0.4 0.1 0.3 0.1 0.5 0.1 0.5 0.1 0.1 0 0.2 0 0.3 0.1 0.1 0 0.2 0.1 0.3 0.1 0 0 0.1 0 0.2 0 0.1 0 0.2 0 0.3 0 0.1 0 0.3 0.1 0.4 0.1h1.7 1.5c0.1 0 0.3 0 0.7-0.1s0.6-0.1 0.8-0.2c0.1 0 0.3 0 0.6-0.1 0.3-0.1 0.6-0.2 0.6-0.3 0.1 0 0.2 0 0.4-0.1 0.2-0.1 0.3-0.2 0.4-0.3 0.1 0 0.2-0.1 0.3-0.2 0.1-0.1 0.2-0.2 0.3-0.2 0.1-0.1 0.3-0.2 0.4-0.3 0.1 0 0.2-0.1 0.2-0.1 0.1-0.1 0.4-0.3 0.8-0.7 0.4-0.4 0.6-0.6 0.7-0.8 0.1-0.1 0.2-0.2 0.3-0.3 0.1-0.1 0.1-0.2 0.1-0.3 0.1-0.1 0.2-0.4 0.4-0.8 0.2-0.5 0.3-0.7 0.4-0.8l0.1-0.1v0.1 0.3c0 0-0.1 0.1-0.1 0.2 0 0.1-0.1 0.2-0.1 0.4l-0.1 0.4c0 0.1 0 0.2-0.1 0.3 -0.1 0.1-0.1 0.2-0.1 0.3 0 0 0 0.2-0.1 0.4 0 0.1-0.1 0.2-0.1 0.2 0 0 0 0.1-0.1 0.1 0 0-0.1 0.1-0.1 0.2l-0.2 0.2 -1.6 1.6c-0.1 0.1-0.2 0.2-0.4 0.3 -0.2 0.1-0.3 0.2-0.4 0.3 -0.1 0.1-0.3 0.2-0.7 0.4 -0.4 0.1-0.6 0.3-0.8 0.4 -0.1 0-0.2 0.1-0.4 0.1 -0.3 0.1-0.5 0.1-0.5 0.1 0 0-0.1 0.1-0.2 0.1 -0.1 0-0.2 0.1-0.4 0.1 -0.1 0-0.2 0-0.4 0.1 -0.1 0-0.3 0.1-0.4 0.1 -0.1 0-0.2 0-0.3 0 -0.1 0-0.2 0-0.3 0h-0.4H-69h-1.2c-0.1 0-0.4 0-1 0 -0.6 0-1-0.1-1.3-0.2 -0.1 0-0.2 0-0.3-0.1 -0.1 0-0.2-0.1-0.3-0.1 -0.1 0-0.2 0-0.3-0.1 -0.1-0.1-0.2-0.1-0.3-0.1 -0.1-0.1-0.2-0.2-0.4-0.3 -0.2-0.1-0.3-0.1-0.4-0.1 0 0-0.2-0.2-0.5-0.4 -0.1-0.1-0.3-0.2-0.4-0.2 -0.1-0.1-0.5-0.4-0.9-0.9 -0.5-0.5-0.8-0.9-1.1-1.1 0 0-0.1-0.1-0.1-0.2 0-0.1-0.1-0.2-0.3-0.4l-0.3-0.4c-0.1-0.1-0.2-0.3-0.3-0.4l-0.1-0.3c0-0.1-0.2-0.4-0.4-0.9 -0.2-0.4-0.3-0.7-0.4-0.9 0-0.1 0-0.2-0.1-0.4 -0.1-0.1-0.1-0.3-0.1-0.4 -0.1-0.1-0.2-0.4-0.3-0.7 -0.1-0.3-0.1-0.5-0.1-0.6 0-0.1-0.1-0.4-0.2-0.8 -0.1-0.4-0.2-0.7-0.2-0.8 0-0.1 0-0.2-0.1-0.4 0-0.2-0.1-0.3-0.1-0.4s0-0.2 0-0.3c0-0.1 0-0.2 0-0.4 0-0.1-0.1-0.3-0.1-0.5v-1.7 -1.7c0-0.1 0-0.3 0.1-0.5s0.1-0.5 0.1-0.6c0-0.1 0-0.3 0.1-0.7 0.1-0.4 0.1-0.6 0.1-0.8 0-0.1 0-0.3 0.1-0.6 0.1-0.3 0.1-0.5 0.1-0.6 0-0.1 0-0.3 0.1-0.6 0.1-0.3 0.2-0.5 0.3-0.6l0.1-0.3c0.1-0.2 0.1-0.3 0.1-0.4 0.1-0.1 0.2-0.3 0.3-0.5 0.1-0.2 0.1-0.4 0.1-0.5 0-0.1 0.1-0.2 0.2-0.4 0.1-0.2 0.2-0.3 0.2-0.4 0.1-0.1 0.2-0.3 0.4-0.5 0.1-0.2 0.2-0.4 0.2-0.5 0.1-0.1 0.3-0.4 0.5-0.6 0.2-0.3 0.4-0.5 0.4-0.6l1.4-1.4c0.1-0.1 0.3-0.2 0.6-0.4 0.3-0.2 0.5-0.3 0.6-0.4l0.1-0.1 -0.3 0.1c-0.1 0-0.2 0-0.4 0.1 -0.1 0.1-0.3 0.2-0.4 0.3 -0.1 0-0.2 0-0.3 0.1l-0.1 0.1c0 0-0.1 0.1-0.2 0.1 -0.1 0-0.2 0.1-0.3 0.2 -0.1 0.1-0.2 0.2-0.3 0.2 -0.1 0.1-0.3 0.3-0.6 0.6 -0.3 0.3-0.6 0.5-0.6 0.6 0 0-0.1 0.1-0.1 0.2 0 0.1-0.1 0.2-0.3 0.4s-0.2 0.3-0.3 0.5c-0.1 0.1-0.2 0.3-0.2 0.4 -0.1 0.1-0.3 0.5-0.5 1.1 -0.3 0.6-0.5 1-0.6 1.2 0 0.1 0 0.2-0.1 0.4 -0.1 0.1-0.1 0.3-0.1 0.4 -0.1 0.1-0.2 0.5-0.4 1 -0.1 0.6-0.3 0.9-0.4 1 0 0-0.1 0.1-0.1 0.2 0 0.1-0.1 0.2-0.1 0.4 0 0.1 0 0.4-0.1 0.8 -0.1 0.4-0.1 0.6-0.1 0.7 0 0.1 0 0.3-0.1 0.5 0 0.2-0.1 0.4-0.1 0.5 0 0.1 0 0.4-0.1 0.7 0 0.3-0.1 0.6-0.1 0.6v0.6 0.6c0 0.1 0 0.3 0.1 0.7 0 0.4 0.1 0.6 0.1 0.8 0 0.1 0 0.4 0.1 0.9 0.1 0.4 0.1 0.7 0.1 0.9 0 0.1 0 0.3 0.1 0.5 0.1 0.3 0.1 0.4 0.1 0.5 0 0.1 0.1 0.4 0.2 0.8 0.1 0.5 0.3 0.8 0.4 0.9 0 0.1 0 0.2 0.1 0.4 0.1 0.1 0.1 0.3 0.1 0.4 0.1 0.1 0.2 0.3 0.4 0.7 0.1 0.4 0.3 0.6 0.4 0.8 0 0.1 0.1 0.2 0.2 0.3 0.1 0.1 0.2 0.2 0.2 0.3 0.1 0.1 0.2 0.3 0.4 0.6 0.2 0.3 0.3 0.4 0.4 0.5 0.1 0.1 0.4 0.4 0.9 0.9 0.4 0.5 0.7 0.7 0.9 0.8 0.1 0.1 0.3 0.2 0.6 0.4 0.3 0.2 0.5 0.3 0.7 0.4 0.1 0.1 0.3 0.2 0.7 0.4 0.4 0.1 0.6 0.3 0.8 0.4 0.1 0 0.2 0 0.3 0.1 0.1 0.1 0.2 0.1 0.3 0.1 0.1 0 0.3 0 0.5 0.1s0.4 0.1 0.5 0.1c0.1 0 0.2 0 0.4 0.1s0.3 0.1 0.4 0.1c0.1 0 0.3 0 0.6 0.1 0.3 0 0.4 0.1 0.5 0.1h1.3 1.1c0.1 0 0.2 0 0.4-0.1 0.1 0 0.2 0 0.3 0 0.1 0 0.2 0 0.3 0 0.2 0 0.4 0 0.5-0.1 0.1 0 0.3 0 0.4-0.1 0.1 0 0.2 0 0.3-0.1 0.1 0 0.2-0.1 0.3-0.1 0.1 0 0.2 0 0.4-0.1 0.2-0.1 0.3-0.1 0.4-0.1 0.1 0 0.2 0 0.4-0.1 0.1-0.1 0.3-0.1 0.4-0.1 0.1 0 0.2 0 0.3-0.1 0.1-0.1 0.2-0.1 0.2-0.1 0.1 0 0.2 0 0.4-0.1 0.1-0.1 0.3-0.2 0.4-0.3 0.1 0 0.2 0 0.3-0.1l0.1-0.1c0 0 0.1-0.1 0.2-0.1 0.1 0 0.2-0.1 0.3-0.2 0.1-0.1 0.2-0.2 0.3-0.2l0.9-0.9c0-0.1 0.1-0.2 0.2-0.3 0.1-0.1 0.2-0.2 0.2-0.3s0.1-0.1 0.1-0.2l0.1-0.1c0.1-0.1 0.1-0.2 0.1-0.3 0-0.1 0-0.2 0.1-0.4 0.1-0.1 0.2-0.3 0.3-0.4 0.1-0.1 0.2-0.3 0.3-0.5 0.1-0.2 0.2-0.4 0.3-0.5v0.3 0.3c0 0 0 0.2-0.1 0.4 -0.1 0.2-0.1 0.3-0.1 0.4 0 0.1-0.1 0.3-0.2 0.6 -0.1 0.3-0.3 0.5-0.4 0.6l-0.1 0.1c-0.1 0.1-0.1 0.2-0.1 0.3 -0.1 0.1-0.2 0.3-0.3 0.4 0 0.1-0.1 0.2-0.1 0.2l-1.3 1.3c0 0-0.1 0.1-0.2 0.1 -0.1 0-0.2 0.1-0.4 0.3 -0.1 0-0.2 0-0.3 0.1l-0.1 0.1c-0.1 0.1-0.4 0.3-0.9 0.5 -0.4 0.2-0.7 0.3-0.8 0.3 -0.1 0-0.3 0-0.6 0.1 -0.3 0.1-0.5 0.2-0.7 0.3 0 0-0.1 0.1-0.2 0.1 -0.1 0-0.2 0.1-0.4 0.1 0 0-0.1 0-0.2 0 -0.1 0-0.2 0-0.3 0 -0.1 0-0.2 0.1-0.3 0.1 -0.1 0-0.4 0-0.7 0.1 -0.3 0-0.5 0.1-0.6 0.1h-4.1l0.4 0.1c0.1 0 0.4 0 0.8 0.1 0.4 0.1 0.6 0.1 0.7 0.1 0.1 0 0.4 0 0.7 0.1 0.3 0 0.5 0.1 0.6 0.1h0.8 0.9c0.1 0 0.3 0 0.6-0.1 0.3 0 0.5-0.1 0.7-0.1 0.1 0 0.4 0 0.8-0.1 0.4-0.1 0.6-0.1 0.7-0.1 0.1-0.1 0.4-0.2 0.8-0.3 0.4-0.1 0.7-0.2 0.8-0.3l1.7-0.9c0.1-0.1 0.4-0.2 0.7-0.4 0.3-0.2 0.5-0.3 0.6-0.4 0.1-0.1 0.4-0.3 0.8-0.7 0.4-0.4 0.6-0.6 0.7-0.8 0.1-0.1 0.2-0.3 0.3-0.5 0.2-0.4 0.4-0.6 0.5-0.8 0-0.1 0.1-0.2 0.2-0.4 0.1-0.1 0.2-0.3 0.2-0.4 0-0.1 0-0.2 0.1-0.3 0.1-0.1 0.1-0.2 0.1-0.3 0.1-0.1 0.2-0.4 0.4-0.7 0.1-0.3 0.2-0.6 0.2-0.6 0-0.1 0.1-0.2 0.1-0.4 0.1-0.3 0.1-0.5 0.1-0.7 0-0.1 0-0.3 0.1-0.6 0.1-0.3 0.1-0.6 0.1-0.6v0.4 0.6c0 0.1-0.1 0.3-0.1 0.4 0 0.1-0.1 0.3-0.1 0.5l-0.1 0.7v0.1 0.1l0.1-0.4c0-0.1 0-0.2 0.1-0.3s0.1-0.2 0.1-0.3c0-0.1 0-0.2 0.1-0.4 0-0.1 0.1-0.3 0.1-0.4s0-0.2 0.1-0.4c0-0.2 0.1-0.3 0.1-0.4 0-0.1 0-0.2 0.1-0.3 0 0 0-0.1 0.1-0.1h1.2l0.1 0.1v0.1c0 0.2 0 0.7-0.1 1.3 -0.1 0.6-0.1 1-0.1 1.2 0 0.1 0 0.2-0.1 0.4 0 0.2-0.1 0.3-0.1 0.4 0 0.1 0 0.2-0.1 0.3 0 0.1-0.1 0.2-0.1 0.3 0 0.1 0 0.2-0.1 0.4 -0.1 0.2-0.1 0.3-0.1 0.4s0 0.2-0.1 0.4c-0.1 0.1-0.1 0.3-0.1 0.4 -0.1 0.1-0.2 0.3-0.4 0.6 -0.1 0.3-0.2 0.4-0.2 0.5 -0.1 0.1-0.3 0.4-0.5 0.8 -0.3 0.5-0.5 0.8-0.6 0.9 -0.1 0-0.2 0.1-0.3 0.3 -0.1 0.1-0.2 0.3-0.3 0.4 -0.1 0.1-0.2 0.2-0.3 0.4 -0.1 0.1-0.2 0.3-0.3 0.4 -0.1 0.1-0.2 0.2-0.4 0.4 -0.2 0.1-0.3 0.3-0.4 0.4 -0.1 0.1-0.4 0.2-0.7 0.4 -0.3 0.2-0.5 0.3-0.6 0.4 -0.1 0.1-0.3 0.2-0.8 0.4 -0.4 0.2-0.7 0.3-1 0.4 -0.1 0-0.2 0-0.4 0.1 -0.1 0.1-0.3 0.1-0.4 0.1 -0.1 0.1-0.4 0.2-0.6 0.3 -0.3 0.1-0.5 0.1-0.6 0.1 -0.1 0-0.3 0-0.6 0.1 -0.3 0.1-0.5 0.1-0.6 0.1 -0.1 0-0.2 0.1-0.4 0.1 -0.1 0-0.3 0.1-0.5 0.1 -0.1 0-0.2 0-0.3 0 -0.1 0-0.2 0-0.3 0 -0.1 0-0.3 0.1-0.4 0.1h-1.5 -1.7c-0.1 0-0.3 0-0.6-0.1s-0.6-0.1-0.6-0.1h-0.3 -0.3c0.1 0 0.2 0 0.3 0.1 0.1 0 0.2 0.1 0.3 0.1 0.2 0 0.6 0.1 1 0.1 0.4 0 0.7 0.1 0.8 0.1h2.2 2.2c0.1 0 0.2 0 0.4-0.1 0.2 0 0.3-0.1 0.4-0.1 0.1 0 0.2 0 0.4 0 0.1 0 0.3 0 0.4 0 0.1 0 0.3 0 0.6-0.1 0.2-0.1 0.4-0.1 0.5-0.1 0.1 0 0.2 0 0.4-0.1 0.2-0.1 0.3-0.1 0.4-0.1 0.1 0 0.2 0 0.4-0.1l0.3-0.1c0.2-0.1 0.6-0.3 1.1-0.5s0.8-0.4 0.9-0.5c0.1-0.1 0.4-0.3 0.8-0.5 0.4-0.3 0.7-0.5 0.9-0.6 0.1-0.1 0.2-0.2 0.4-0.4 0.2-0.1 0.3-0.3 0.4-0.4l1.3-1.3c0-0.1 0.1-0.2 0.2-0.3l0.4-0.4 0.1-0.1c0.1-0.1 0.1-0.2 0.1-0.3s0.1-0.2 0.2-0.4c0.1-0.1 0.2-0.3 0.2-0.4 0.1-0.1 0.3-0.4 0.6-1 0.3-0.6 0.5-0.9 0.6-1 0-0.1 0.1-0.2 0.2-0.4 0.1-0.1 0.2-0.3 0.2-0.4v0.1 0.1c0 0.1 0 0.3-0.1 0.5 -0.1 0.2-0.1 0.4-0.1 0.5 0 0.1 0 0.2-0.1 0.4 -0.1 0.1-0.1 0.3-0.1 0.4 -0.1 0.1-0.2 0.3-0.3 0.6 -0.1 0.3-0.2 0.5-0.3 0.6 0 0.1-0.1 0.2-0.2 0.4 -0.1 0.1-0.2 0.3-0.2 0.4 -0.1 0.1-0.2 0.3-0.4 0.6 -0.2 0.2-0.3 0.4-0.4 0.5 -0.1 0.2-0.5 0.6-1.1 1.2 -0.6 0.6-1 0.9-1.2 1.1 -0.1 0.1-0.3 0.2-0.5 0.4s-0.4 0.3-0.6 0.4l-0.3 0.1c-0.2 0.1-0.3 0.2-0.4 0.3 -0.1 0.1-0.3 0.2-0.5 0.3 -0.2 0.1-0.4 0.2-0.5 0.3l-0.3 0.1c-0.1 0.1-0.3 0.2-0.5 0.3s-0.4 0.1-0.5 0.1c-0.1 0-0.3 0-0.5 0.1 -0.3 0.1-0.5 0.2-0.6 0.3 0 0-0.1 0-0.1 0 0 0-0.1 0-0.1 0 0 0-0.1 0.1-0.1 0.1 -0.1 0-0.3 0-0.5 0.1 -0.3 0.1-0.4 0.1-0.5 0.1 -0.1 0-0.2 0-0.4 0.1 -0.1 0-0.3 0.1-0.4 0.1 -0.1 0-0.2 0-0.3 0 -0.1 0-0.2 0-0.3 0 -0.1 0-0.2 0.1-0.3 0.1h-2 -2.1c-0.1 0-0.3 0-0.4-0.1 -0.1 0-0.2 0-0.3 0 -0.1 0-0.2 0-0.3 0 -0.2 0-0.4 0-0.5-0.1 -0.1 0-0.3 0-0.4-0.1 -0.1 0-0.3 0-0.6-0.1s-0.5-0.1-0.6-0.1c-0.1-0.1-0.4-0.2-0.8-0.3 -0.4-0.1-0.7-0.2-0.8-0.3 -0.1 0-0.3 0-0.5-0.1s-0.4-0.2-0.5-0.3c-0.1-0.1-0.3-0.2-0.6-0.3 -0.3-0.1-0.5-0.2-0.6-0.3l-0.3-0.1c-0.2-0.1-0.3-0.2-0.4-0.3 -0.1 0-0.2 0-0.3-0.1l-0.1-0.1c-0.1-0.1-0.2-0.2-0.3-0.3 -0.1-0.1-0.2-0.2-0.3-0.3 -0.1-0.1-0.3-0.2-0.4-0.4l-2.2-2.2c-0.1-0.1-0.3-0.3-0.4-0.4 -0.1-0.1-0.2-0.2-0.3-0.3 -0.1-0.1-0.2-0.2-0.3-0.3l-0.1-0.1c-0.1-0.1-0.1-0.2-0.1-0.3 -0.1-0.1-0.2-0.2-0.3-0.4l-0.1-0.3c-0.1-0.1-0.2-0.3-0.4-0.6 -0.1-0.3-0.2-0.5-0.2-0.6 -0.1-0.1-0.2-0.3-0.3-0.7 -0.1-0.4-0.2-0.6-0.3-0.8 0-0.1-0.1-0.4-0.3-0.8 -0.1-0.4-0.2-0.7-0.2-0.8 0-0.1 0-0.3-0.1-0.8 -0.1-0.4-0.2-0.7-0.3-1 0-0.1 0-0.2-0.1-0.4 0-0.1-0.1-0.3-0.1-0.4 0 0 0-0.1 0-0.2 0-0.1 0-0.2 0-0.3 0-0.1-0.1-0.3-0.1-0.4 -0.1-0.3-0.2-0.8-0.2-1.4 0-0.6-0.1-1-0.1-1.1v-1.9 -2.1c0-0.1 0-0.3 0.1-0.5 0-0.1 0-0.3 0-0.4 0-0.1 0-0.3 0-0.4 0-0.1 0-0.3 0.1-0.5 0-0.2 0.1-0.4 0.1-0.5 0-0.1 0-0.3 0.1-0.7 0.1-0.4 0.1-0.6 0.1-0.8 0-0.1 0-0.3 0.1-0.6 0.1-0.3 0.1-0.5 0.1-0.5 0-0.1 0-0.3 0.1-0.5 0.1-0.2 0.1-0.4 0.1-0.5v-0.1l-0.1 0.3c-0.1 0.1-0.2 0.4-0.3 0.6 -0.1 0.3-0.1 0.5-0.1 0.6 0 0.1 0 0.4-0.1 0.8 -0.1 0.5-0.2 0.8-0.3 0.9 0 0.1 0 0.3-0.1 0.7 -0.1 0.4-0.1 0.6-0.1 0.8 0 0.1 0 0.3-0.1 0.5 0 0.2-0.1 0.4-0.1 0.5 0 0.1 0 0.4-0.1 0.8s-0.1 0.6-0.1 0.7v1.4 1.4c0 0.1 0 0.3 0.1 0.8 0 0.4 0.1 0.7 0.1 0.8 0 0.1 0 0.3 0.1 0.5 0 0.2 0.1 0.4 0.1 0.5 0 0.1 0 0.3 0.1 0.7 0.1 0.4 0.1 0.6 0.1 0.8 0 0.1 0 0.3 0.1 0.5 0.1 0.3 0.1 0.5 0.1 0.6 0 0.1 0 0.3 0.1 0.5 0.1 0.2 0.1 0.4 0.1 0.5 0 0.1 0 0.2 0.1 0.3 0 0 0 0.1 0.1 0.1 0.1 0.1 0.2 0.3 0.4 0.7 0.1 0.4 0.2 0.6 0.2 0.7 0 0.1 0.2 0.5 0.5 1.1 0.3 0.6 0.5 1 0.6 1.2l0.1 0.3c0.1 0.2 0.2 0.3 0.3 0.4 0.1 0.1 0.2 0.2 0.3 0.4 0.1 0.2 0.2 0.3 0.3 0.4 0 0 0.1 0.1 0.1 0.2 0 0.1 0.1 0.2 0.3 0.4 0 0 0.1 0.1 0.1 0.2 0 0.1 0.1 0.2 0.2 0.3 0.1 0.1 0.2 0.2 0.2 0.3l1.9 1.9c0.1 0.1 0.2 0.2 0.3 0.3 0.1 0.1 0.2 0.2 0.3 0.3 0.1 0.1 0.4 0.2 0.7 0.4 0.3 0.2 0.5 0.3 0.6 0.4 0.1 0.1 0.3 0.2 0.8 0.4 0.4 0.2 0.7 0.3 1 0.4l0.3 0.1c0.2 0.1 0.3 0.1 0.4 0.1 0 0 0.1 0 0.1 0 0 0 0.1 0 0.1 0 0 0 0.1 0.1 0.1 0.1 0.1 0 0.3 0 0.6 0.1 0.2 0.1 0.4 0.1 0.5 0.1 0.1 0 0.5 0 1.2 0.1 0.6 0.1 1.1 0.2 1.4 0.3 0.1 0 0.3 0 0.6 0.1 0.3 0 0.4 0.1 0.5 0.1h1.5 1.6c0.1 0 0.3 0 0.6-0.1 0.3 0 0.5-0.1 0.7-0.1 0.1 0 0.3 0 0.7-0.1 0.4-0.1 0.6-0.1 0.8-0.1 0 0 0.1 0 0.2-0.1 0 0 0.1 0 0.1 0 0 0 0.1 0 0.1 0 0.1 0 0.3 0 0.6-0.1l0.4-0.1c0.1-0.1 0.4-0.2 0.8-0.3 0.4-0.1 0.6-0.2 0.7-0.3 0.1-0.1 0.4-0.2 0.8-0.4 0.5-0.2 0.8-0.3 0.9-0.4 0.1 0 0.2 0 0.4-0.1 0.1-0.1 0.2-0.2 0.3-0.3 0.1-0.1 0.2-0.2 0.4-0.3 0.2-0.1 0.3-0.2 0.4-0.3 0.1 0 0.2-0.1 0.3-0.2 0.1-0.1 0.2-0.2 0.3-0.2 0 0 0.1-0.1 0.2-0.2 0.1-0.1 0.2-0.2 0.3-0.3 0.1-0.1 0.3-0.2 0.4-0.3l1.2-1.2c0.1-0.1 0.2-0.2 0.3-0.4 0.1-0.1 0.2-0.3 0.3-0.4 0.1-0.2 0.4-0.7 0.8-1.3 0.4-0.6 0.7-1 0.8-1.3 0.1-0.1 0.2-0.3 0.3-0.5 0.1-0.2 0.2-0.4 0.3-0.5v0.1 0.1c0 0.1 0 0.2-0.1 0.4 -0.1 0.2-0.1 0.3-0.1 0.4 0 0.1-0.1 0.3-0.3 0.7 -0.2 0.4-0.3 0.6-0.4 0.8l-0.1 0.3c-0.1 0.2-0.2 0.3-0.2 0.4l-0.3 0.4c0 0.1 0 0.2-0.1 0.3 -0.1 0.1-0.2 0.2-0.3 0.3 0 0-0.1 0.1-0.1 0.2 0 0.1-0.1 0.2-0.2 0.3 -0.1 0.1-0.2 0.2-0.2 0.3l-1.7 1.7c-0.1 0-0.2 0.1-0.3 0.2 -0.1 0.1-0.2 0.2-0.3 0.2 -0.1 0-0.1 0.1-0.2 0.1 -0.1 0.1-0.2 0.2-0.3 0.3 -0.1 0.1-0.2 0.1-0.3 0.1l-0.4 0.3c0 0-0.2 0.1-0.4 0.2l-0.3 0.1 -2 1c-0.1 0-0.2 0-0.4 0.1 -0.1 0.1-0.3 0.1-0.4 0.1 -0.1 0.1-0.4 0.2-0.7 0.3 -0.3 0.1-0.5 0.1-0.6 0.1 -0.1 0-0.3 0-0.5 0.1s-0.4 0.1-0.5 0.1c-0.1 0-0.2 0.1-0.4 0.1 -0.1 0-0.3 0.1-0.5 0.1 -0.1 0-0.2 0-0.3 0 -0.1 0-0.2 0-0.3 0 -0.1 0-0.3 0.1-0.4 0.1 -0.1 0-0.5 0-0.9 0.1 -0.5 0-0.8 0.1-1.1 0.1h-0.3H-68c-0.2 0-0.5 0-1-0.1 -0.5 0-0.8-0.1-0.9-0.1 -0.1 0-0.3 0-0.5-0.1 -0.2 0-0.4-0.1-0.5-0.1 -0.1 0-0.4 0-0.8-0.1 -0.4-0.1-0.6-0.1-0.7-0.1 -0.1 0-0.3 0-0.5-0.1 -0.2-0.1-0.4-0.1-0.5-0.1 0 0-0.2-0.1-0.6-0.2 -0.3-0.1-0.6-0.2-0.6-0.2 -0.1 0-0.2 0-0.4-0.1 -0.1-0.1-0.3-0.1-0.4-0.1l-1.7-0.9 -0.3-0.1c-0.1 0-0.2-0.1-0.3-0.1 -0.1 0-0.1-0.1-0.2-0.1 -0.1 0-0.2 0-0.3-0.1l-0.1-0.1c-0.1-0.1-0.3-0.2-0.5-0.4 -0.3-0.2-0.4-0.3-0.5-0.4 -0.1-0.1-0.2-0.2-0.4-0.4 -0.2-0.1-0.3-0.3-0.4-0.4l-1.2-1.2c-0.1-0.1-0.2-0.2-0.3-0.4 -0.1-0.1-0.2-0.2-0.3-0.3 -0.1-0.1-0.1-0.2-0.2-0.2 -0.1-0.1-0.2-0.2-0.3-0.3 -0.1-0.1-0.1-0.2-0.1-0.3 -0.1-0.1-0.3-0.4-0.5-0.6 -0.2-0.3-0.3-0.5-0.3-0.6 0 0-0.1-0.2-0.3-0.4 -0.1-0.2-0.2-0.5-0.4-0.8 -0.1-0.3-0.2-0.6-0.4-0.8 -0.1-0.3-0.2-0.4-0.3-0.5 0-0.1-0.1-0.2-0.1-0.4 -0.1-0.3-0.2-0.5-0.3-0.7 0-0.1 0-0.2-0.1-0.4 -0.1-0.2-0.1-0.3-0.1-0.4 0-0.1 0-0.3-0.1-0.5 -0.1-0.2-0.1-0.4-0.1-0.5 0 0 0-0.1 0-0.1 0 0 0-0.1 0-0.2 0-0.1-0.1-0.2-0.1-0.2 0-0.1 0-0.3-0.1-0.7 -0.1-0.4-0.1-0.6-0.1-0.8 0-0.1 0-0.2-0.1-0.4 0-0.2-0.1-0.3-0.1-0.4 0-0.1 0-0.4-0.1-0.7 0-0.3-0.1-0.6-0.1-0.6V404.7zM-83.9 394.9c-0.1 0-0.1 0-0.1 0.1 0 0 0 0.1 0.1 0.1 0.1 0 0.1 0 0.1-0.1C-83.7 395-83.8 394.9-83.9 394.9zM-83.7 394.5c-0.1 0-0.1 0-0.1 0.1 0 0.1 0 0.1 0.1 0.1 0 0 0.1 0 0.1-0.1C-83.6 394.6-83.7 394.5-83.7 394.5zM-74.1 388.5c-0.1 0-0.1 0-0.1 0.1 0 0.1 0 0.1 0.1 0.1 0.1 0 0.1 0 0.1-0.1C-73.9 388.6-74 388.5-74.1 388.5zM-73.8 388.4c-0.1 0-0.1 0-0.1 0.1 0 0.1 0 0.1 0.1 0.1 0.1 0 0.1 0 0.1-0.1C-73.6 388.4-73.7 388.4-73.8 388.4zM-73.5 421.7c0-0.1 0-0.1-0.1-0.1s-0.1 0-0.1 0.1c0 0.1 0 0.1 0.1 0.1S-73.5 421.8-73.5 421.7zM-73 421.8c0-0.1 0-0.1-0.1-0.1 -0.1 0-0.1 0-0.1 0.1 0 0.1 0 0.1 0.1 0.1C-73 421.9-73 421.9-73 421.8zM-72.4 421.9c0-0.1 0-0.1-0.1-0.1 -0.1 0-0.1 0-0.1 0.1s0 0.1 0.1 0.1C-72.5 422.1-72.4 422-72.4 421.9zM-72.3 418.5c0-0.1 0-0.1-0.1-0.1 -0.1 0-0.1 0-0.1 0.1 0 0.1 0 0.1 0.1 0.1C-72.3 418.6-72.3 418.6-72.3 418.5zM-57.1 413.7c-0.1 0-0.1 0-0.1 0.1 0 0.1 0 0.1 0.1 0.1 0.1 0 0.1 0 0.1-0.1C-56.9 413.7-57 413.7-57.1 413.7zM-56.9 413.4c-0.1 0-0.1 0-0.1 0.1s0 0.1 0.1 0.1c0.1 0 0.1 0 0.1-0.1S-56.8 413.4-56.9 413.4zM-56.8 413.1c-0.1 0-0.1 0-0.1 0.1 0 0.1 0 0.1 0.1 0.1 0.1 0 0.1 0 0.1-0.1C-56.6 413.1-56.7 413.1-56.8 413.1zM-56.6 412.8c-0.1 0-0.1 0-0.1 0.1s0 0.1 0.1 0.1c0.1 0 0.1 0 0.1-0.1S-56.5 412.8-56.6 412.8zM-56.4 412.2l-0.1 0.3v0.1l0.1-0.3V412.2zM-56.2 411.9c-0.1 0-0.1 0-0.1 0.1s0 0.1 0.1 0.1c0.1 0 0.1 0 0.1-0.1S-56.1 411.9-56.2 411.9zM-47.1 378.1h-0.1c-0.1 0.1-0.3 0.3-0.6 0.5 -0.3 0.2-0.6 0.4-0.6 0.5 -0.1 0-0.2 0-0.4 0.1 -0.2 0.1-0.3 0.2-0.4 0.3h-0.1v-0.1l0.1-0.3c0.1-0.1 0.4-0.4 0.8-0.9 0.4-0.4 0.6-0.7 0.8-0.9 0.1-0.1 0.3-0.3 0.6-0.6 0.2-0.3 0.4-0.4 0.4-0.5l0.1-0.3c0-0.1 0-0.2 0.1-0.3 0 0 0-0.1 0.1-0.1v-0.3l0.3-0.2c0-0.1 0.1-0.3 0.2-0.5 0.1-0.2 0.3-0.4 0.4-0.4 0.1 0 0.2 0 0.3-0.1 0.1 0 0.2 0 0.3 0 0.1 0 0.1 0 0.2 0h0.1l0.4 0.1 0.3 0.1c0.1 0.1 0.3 0.3 0.6 0.5 0.3 0.3 0.5 0.4 0.6 0.5l-0.1 0.4c0 0.2-0.1 0.4-0.1 0.6 0 0.1-0.1 0.3-0.1 0.5 0 0.2 0 0.3 0 0.4v0.1c0.1 0.1 0.3 0.3 0.6 0.6 0.3 0.3 0.5 0.6 0.6 0.6 0 0 0.1 0.1 0.1 0.1 0 0 0.1 0.1 0.1 0.1 0 0 0.1 0.1 0.1 0.1v0.4h-0.3l-0.4-0.3 -0.9-0.9c0 0.1 0 0.2-0.1 0.4 0 0.2-0.1 0.3-0.1 0.4 0 0.1 0 0.2-0.1 0.4s-0.1 0.3-0.1 0.4c0 0 0 0.1 0 0.1 0 0 0 0.1 0 0.1 0 0.1-0.1 0.2-0.1 0.2l-0.1 0.3 -0.1-0.1v1.4h-1.6l-0.3-0.1 -0.1-0.1c0-0.1 0-0.2-0.1-0.3 -0.1-0.1-0.1-0.2-0.1-0.3 0-0.1 0-0.2-0.1-0.4 -0.1-0.2-0.1-0.3-0.1-0.4 0 0 0-0.2-0.1-0.6 0-0.3-0.1-0.6-0.1-0.6 0 0-0.1-0.1-0.1-0.2v-0.4c0 0 0-0.1 0-0.1 0 0 0-0.1 0-0.1C-47 378.2-47.1 378.1-47.1 378.1zM-46.8 413.5c0 0.1 0 0.5-0.1 1.2 -0.1 0.6-0.1 1-0.1 1.2s0 0.5-0.1 1c-0.1 0.5-0.1 0.8-0.1 1 0 0.1 0 0.2-0.1 0.4 0 0.2-0.1 0.3-0.1 0.4 0 0.1 0 0.2-0.1 0.4 0 0.1-0.1 0.3-0.1 0.4 0 0 0 0.1 0 0.1 0 0 0 0.1 0 0.2 0 0.1-0.1 0.2-0.1 0.2l-0.1 0.1 -0.1-0.1v-1 -1.4c0-0.1 0-0.5 0.1-1 0-0.5 0.1-0.9 0.1-1.1 0-0.2 0.1-0.6 0.1-1.1 0-0.5 0.1-1.1 0.1-1.7 0-0.6 0.1-1.2 0.1-1.7 0-0.5 0.1-0.9 0.1-1.1 0 0 0-0.2 0.1-0.6 0-0.3 0.1-0.7 0.1-1.1 0-0.4 0.1-0.7 0.1-1 0-0.3 0.1-0.5 0.1-0.6V406v-0.4c0-0.1 0-0.5-0.1-1.1 0-0.6-0.1-0.9-0.1-1.1 0 0.4-0.1 1.2-0.2 2.3 -0.1 1.1-0.2 2.3-0.4 3.6 -0.1 1.2-0.3 2.4-0.4 3.6 -0.1 1.1-0.2 1.9-0.2 2.3 0 0.1 0 0.4-0.1 1 0 0.6-0.1 1-0.2 1.3 0 0.1 0 0.3-0.1 0.5 0 0.2-0.1 0.4-0.1 0.5 0 0.2 0 0.6-0.1 1 -0.1 0.4-0.1 0.7-0.1 0.8 0 0-0.1 0.1-0.1 0.2 0 0.1-0.1 0.2-0.1 0.4 0 0 0 0.1 0 0.1 0 0 0 0.1 0 0.1 0 0-0.1 0.1-0.1 0.1l-0.1 0.1v-1.9 -2c0-0.1 0-0.3 0-0.8 0-0.4 0.1-0.8 0.1-1.3s0.1-0.9 0.1-1.4c0-0.5 0.1-0.8 0.1-1.1 0-0.2 0.1-0.5 0.1-1 0-0.5 0.1-0.9 0.1-1.4 0-0.5 0.1-0.9 0.1-1.3 0-0.4 0.1-0.7 0.1-0.8 0-0.3 0.1-0.9 0.3-1.7 0.1-0.8 0.3-1.6 0.4-2.4 0.1-0.8 0.3-1.6 0.4-2.4 0.1-0.8 0.2-1.3 0.3-1.6 0-0.1 0-0.4 0-0.7 0-0.3 0-0.6 0-1s0-0.7 0-1c0-0.3 0-0.6 0-0.7s0-0.4 0-0.8c0-0.4 0-0.7 0-0.8s0-0.5 0.1-1.2c0.1-0.6 0.1-1.1 0.1-1.3 0-0.1 0-0.4 0.1-1 0.1-0.6 0.1-0.9 0.1-1v-0.1 -0.1c0-0.1 0-0.3-0.1-0.7 -0.1-0.4-0.1-0.6-0.1-0.7v-0.1l0.4-0.3 0.3-0.3 0.1-0.4 0.1-0.1h1.3l1.3 1.3v8.4c0 0.4 0.2 1.2 0.3 2.2 0.2 1.1 0.3 2.2 0.5 3.4 0.2 1.2 0.3 2.3 0.5 3.4 0.1 1.1 0.3 1.8 0.4 2.2 0 0.1 0 0.3 0.1 0.8 0 0.4 0.1 0.9 0.2 1.4 0.1 0.5 0.1 1 0.2 1.5 0 0.5 0.1 0.8 0.1 1.1 0 0.2 0.1 0.4 0.1 0.8 0 0.3 0 0.6 0.1 1 0 0.3 0.1 0.7 0.1 1.2 0 0.1 0 0.4 0 0.8 0 0.4 0 0.7 0 1.2 0 0.4 0 0.8 0 1.2 0 0.4 0 0.6 0 0.7h-0.3l-0.1-0.3c0 0-0.1-0.1-0.1-0.2 0-0.1-0.1-0.2-0.1-0.4 0 0 0-0.1 0-0.2 0-0.1 0-0.2 0-0.3 0-0.1-0.1-0.2-0.1-0.3 -0.1-0.4-0.2-0.9-0.3-1.7 -0.1-0.7-0.1-1.2-0.1-1.3 0-0.3-0.1-1-0.2-1.9 -0.1-0.9-0.2-1.9-0.3-2.9 -0.1-1-0.2-2-0.3-2.9 -0.1-0.9-0.1-1.5-0.2-1.9 0-0.3-0.1-0.9-0.2-1.7 -0.1-0.8-0.1-1.6-0.2-2.5 -0.1-0.9-0.1-1.7-0.2-2.5 0-0.8-0.1-1.3-0.1-1.7 0 0.2 0 0.7 0 1.3 0 0.6 0 1.3 0 2 0 0.7 0 1.4 0 2 0 0.6 0 1.1 0 1.3v0.4 0.6c0 0.3 0.1 0.8 0.2 1.5 0.1 0.7 0.2 1.4 0.3 2.2 0.1 0.8 0.2 1.5 0.3 2.3 0.1 0.7 0.2 1.2 0.2 1.5 0 0.1 0 0.4 0.1 0.8 0 0.4 0.1 0.9 0.1 1.3 0 0.5 0.1 0.9 0.1 1.4 0 0.5 0.1 0.8 0.1 1 0 0.1 0 0.6 0 1.3 0 0.7 0 1.2 0 1.5v0.4 0.3c0 0.1 0 0.2 0 0.4 0 0.1 0 0.2 0 0.3l-0.1-0.1c0 0-0.1-0.1-0.1-0.1 0 0-0.1-0.1-0.1-0.3 0-0.1 0-0.4-0.1-0.8 -0.1-0.4-0.1-0.6-0.1-0.7 0-0.1 0-0.5-0.1-1 -0.1-0.5-0.1-0.9-0.1-1 0-0.2-0.1-0.6-0.2-1.2 -0.1-0.6-0.1-1.2-0.2-1.9 -0.1-0.6-0.1-1.3-0.2-1.8 0-0.6-0.1-1-0.1-1.2l-0.4 10.4 -0.1 0.9v-0.6l-0.3 2h-1.3l-0.1-0.1 -0.1-0.3c0 0-0.1-0.1-0.1-0.2 0-0.1-0.1-0.2-0.1-0.4 0-0.1 0-0.2-0.1-0.4s-0.1-0.3-0.1-0.4c0-0.1 0-0.3-0.1-0.5 0-0.3-0.1-0.4-0.1-0.5 0-0.1 0-0.4-0.1-0.8s-0.1-0.6-0.1-0.7c0-0.1 0-0.5-0.1-0.9 0-0.5-0.1-0.8-0.1-0.9 0 0 0-0.2 0-0.5 0-0.3 0-0.5 0-0.8s0-0.5 0-0.8c0-0.2 0-0.4 0-0.5 0-0.1 0-0.4-0.1-0.9C-46.8 413.9-46.8 413.6-46.8 413.5zM-42.8 375.5h0.1l0.3 0.1c0.1 0 0.2 0 0.3 0.1l0.1 0.1c0.1 0.1 0.3 0.3 0.5 0.5 0.2 0.2 0.4 0.4 0.5 0.5l0.1 0.1c0.1 0.1 0.1 0.2 0.1 0.3 0 0 0 0.2 0.1 0.4 0 0.1 0.1 0.2 0.1 0.2v0.3h-0.3l-0.5-0.5c-0.1-0.1-0.3-0.3-0.4-0.4 -0.1-0.1-0.2-0.3-0.3-0.4 -0.1-0.1-0.3-0.4-0.5-0.7 -0.2-0.3-0.3-0.5-0.3-0.6V375.5zM-32.3 418.6v1.7c0 0.1 0 0.2-0.1 0.4 -0.1 0.3-0.2 0.5-0.2 0.5 0 0-0.1 0.1-0.1 0.2 -0.1 0.2-0.1 0.3-0.1 0.4 0 0.1 0 0.2-0.1 0.4 -0.1 0.1-0.2 0.2-0.3 0.3l-0.3 0.4h-0.6 -0.6l-0.3-0.1 -1.1-1.1v-11.2c0 0 0-0.7-0.1-2 -0.1-1.3-0.2-2.8-0.3-4.6 -0.1-1.8-0.3-3.6-0.4-5.5 -0.1-1.9-0.2-3.4-0.3-4.6 0-0.1 0-0.4-0.1-0.8 0-0.4-0.1-0.6-0.1-0.8l-0.9-19.2 3.4-3.4h1.3l3.4 3.4c0 0.3 0 0.6 0.1 0.8 0 0.2 0 0.5 0 0.7 0 0.2 0 0.4 0 0.5 0 0.3 0 0.9 0 1.7 0 0.8 0.1 1.7 0.1 2.7s0.1 1.8 0.1 2.7c0 0.8 0 1.4 0 1.8l0.1 1 2-1c0.1 0 0.2 0 0.4-0.1 0.1-0.1 0.3-0.1 0.4-0.1 0.2-0.1 0.6-0.2 1.1-0.4 0.5-0.2 0.8-0.3 1-0.3 0.1 0 0.3 0 0.6-0.1 0.3-0.1 0.5-0.1 0.6-0.1 0.1 0 0.2 0 0.4-0.1 0.2 0 0.3-0.1 0.4-0.1 0.1 0 0.4 0 0.7-0.1 0.3 0 0.5-0.1 0.6-0.1h1.2 1.2c0.1 0 0.3 0 0.6 0.1 0.3 0 0.5 0.1 0.7 0.1 0.1 0 0.2 0 0.4 0.1 0.2 0 0.3 0.1 0.4 0.1 0.1 0 0.2 0 0.4 0.1 0.1 0 0.3 0.1 0.4 0.1 0.1 0 0.3 0 0.6 0.1 0.3 0.1 0.4 0.1 0.5 0.1 0.1 0.1 0.4 0.2 0.9 0.3 0.4 0.1 0.7 0.2 0.9 0.3 0.1 0 0.3 0 0.5 0.1 0.2 0.1 0.4 0.2 0.5 0.3 0.1 0.1 0.2 0.2 0.4 0.3 0.2 0.1 0.3 0.1 0.4 0.1 0.1 0.1 0.4 0.2 0.8 0.4 0.4 0.2 0.6 0.3 0.7 0.4 0.1 0.1 0.3 0.2 0.5 0.4 0.3 0.2 0.4 0.3 0.5 0.4 0.2 0.1 0.6 0.5 1.2 1 0.6 0.6 0.9 0.9 1.1 1.2 0.1 0.1 0.2 0.3 0.4 0.5 0.2 0.3 0.3 0.5 0.4 0.6 0.1 0.1 0.2 0.3 0.4 0.7 0.2 0.4 0.3 0.6 0.4 0.8 0.1 0.1 0.2 0.4 0.4 0.8 0.2 0.4 0.3 0.7 0.4 0.8 0.1 0.1 0.2 0.3 0.3 0.7 0.1 0.4 0.2 0.6 0.3 0.8 0.1 0.1 0.2 0.4 0.4 0.9 0.1 0.4 0.2 0.7 0.2 0.9 0 0.1 0 0.3 0.1 0.7 0.1 0.4 0.2 0.7 0.3 0.9 0 0.1 0 0.2 0.1 0.4 0 0.1 0.1 0.3 0.1 0.4s0 0.2 0.1 0.4c0 0.2 0.1 0.3 0.1 0.4 0 0.1 0 0.2 0 0.3 0 0.1 0 0.2 0.1 0.3 0 0.1 0 0.3 0.1 0.4 0 0.1 0 0.4 0.1 0.9 0 0.5 0.1 0.7 0.1 0.8v0.9 1.2c0 0.1 0 0.4-0.1 0.8 0 0.5-0.1 0.8-0.1 1 0 0.1-0.1 0.3-0.1 0.4 0 0.1-0.1 0.3-0.1 0.6 0 0.1 0 0.2-0.1 0.4 0 0.2-0.1 0.3-0.1 0.4 0 0.1 0 0.2-0.1 0.4 0 0.1-0.1 0.3-0.1 0.4s0 0.3-0.1 0.6c-0.1 0.3-0.1 0.5-0.1 0.6 0 0.1 0 0.3-0.1 0.5 -0.1 0.2-0.1 0.4-0.1 0.5s0 0.2-0.1 0.4c-0.1 0.2-0.1 0.3-0.1 0.4 0 0.1-0.1 0.4-0.3 0.7 -0.1 0.3-0.3 0.7-0.4 1.1 -0.1 0.4-0.3 0.7-0.4 1.1 -0.1 0.3-0.2 0.6-0.3 0.6 0 0.1 0 0.2-0.1 0.4 0 0.1-0.1 0.2-0.1 0.3l-0.9 1.7 -0.1 0.3c0 0.1-0.1 0.2-0.3 0.4 0 0.1 0 0.2-0.1 0.3l-0.1 0.1c-0.1 0.1-0.2 0.3-0.4 0.6 -0.2 0.3-0.3 0.5-0.4 0.6 -0.1 0.1-0.2 0.2-0.4 0.4 -0.1 0.2-0.3 0.3-0.4 0.4l-1.2 1.2c-0.1 0.1-0.2 0.2-0.4 0.4 -0.2 0.1-0.3 0.3-0.4 0.4 -0.1 0.1-0.4 0.2-0.7 0.4 -0.3 0.2-0.5 0.3-0.6 0.4 -0.1 0.1-0.3 0.2-0.7 0.4 -0.4 0.1-0.6 0.3-0.8 0.4 -0.1 0-0.2 0-0.4 0.1 -0.1 0.1-0.3 0.1-0.4 0.1 -0.1 0.1-0.4 0.2-0.7 0.3 -0.3 0.1-0.5 0.1-0.6 0.1 -0.1 0-0.3 0-0.5 0.1 -0.3 0.1-0.4 0.1-0.5 0.1 -0.1 0-0.2 0-0.4 0.1 -0.2 0-0.3 0.1-0.4 0.1 -0.1 0-0.4 0-0.7 0.1 -0.3 0-0.5 0.1-0.6 0.1H-20h-1.8c-0.1 0-0.2 0-0.4-0.1 -0.1 0-0.3-0.1-0.4-0.1 -0.1 0-0.3 0-0.4-0.1 -0.1 0-0.2 0-0.2-0.1 -0.3-0.1-0.7-0.2-1.2-0.4 -0.5-0.2-0.8-0.3-0.9-0.3 -0.1-0.1-0.4-0.3-1-0.5 -0.6-0.3-1-0.5-1.2-0.6 -0.1 0-0.3-0.1-0.6-0.3 -0.3-0.2-0.5-0.4-0.7-0.5 -0.1 0-0.2 0-0.3-0.1 -0.1-0.1-0.2-0.2-0.3-0.3 0 0-0.1-0.1-0.2-0.2 -0.1-0.1-0.2-0.2-0.3-0.3 -0.1-0.1-0.3-0.2-0.4-0.3 -0.1-0.1-0.3-0.3-0.5-0.6 -0.3-0.3-0.4-0.5-0.5-0.6 -0.1-0.1-0.2-0.3-0.4-0.5 -0.2-0.2-0.3-0.4-0.4-0.5L-32.3 418.6zM-31.6 373.9v0.7c0 0.3 0 1-0.1 2.2s-0.1 2.4-0.2 3.7c-0.1 1.3-0.1 2.6-0.2 3.7 0 1.2-0.1 1.9-0.1 2.2v0.1 0.3l1.6-1.2v-0.7 -1.2c0-0.3 0-0.8 0-1.7 0-0.8-0.1-1.7-0.1-2.7 0-1-0.1-1.9-0.1-2.7 0-0.9-0.1-1.5-0.1-1.9 0-0.1 0-0.2 0-0.4 0-0.2 0-0.4 0-0.6 0-0.2-0.1-0.4-0.1-0.7l-2.4-2.4h-1.3l-2.4 2.4v0.6 1c0 0.1 0 0.3 0.1 0.6 0 0.3 0.1 0.5 0.2 0.6v-2.6h0.1c0.1 0.1 0.2 0.2 0.4 0.3 0.2 0.1 0.3 0.2 0.4 0.3v-0.6l0.3 0.1 0.1-0.3 0.7-0.7h0.4 0.4c0 0 0.1 0 0.1 0.1 0 0 0.1 0.1 0.1 0.1 0 0 0.1 0.1 0.1 0.1l0.7 0.7 0.4-0.1v0.6h0.1c0.1-0.1 0.2-0.2 0.4-0.3 0.1-0.1 0.3-0.2 0.4-0.3V373.9zM-36.7 388.2v1.9c0 0.7 0.1 1.9 0.1 3.6s0.1 3.6 0.1 5.5c0 1.9 0.1 3.7 0.1 5.5s0.1 2.9 0.1 3.6l0.1-2.8c0-2.1 0-4 0-5.7 0-1.7 0-3.6 0.1-5.7 0-2.1 0-4.2 0.1-6.4 0-2.2 0-4.2 0-6.3 0-2 0-3.7 0.1-5.2v-0.9 -0.7l-0.3-0.3 -0.1 1.3c0 0.1 0 0.7-0.1 1.6 0 0.9-0.1 2-0.2 3.2 -0.1 1.2-0.1 2.4-0.2 3.6 0 1.2-0.1 2.1-0.1 2.8V388.2zM-33.5 389c0-0.2-0.1 0-0.1 0.7 0 0.7 0 1.4 0 2.3 0 0.8 0 1.6 0 2.3 0 0.7 0.1 0.9 0.1 0.7 0-0.2 0.1-0.6 0.1-1.2 0-0.6 0-1.2 0-1.8s0-1.2 0-1.8C-33.4 389.7-33.4 389.3-33.5 389zM-32.9 382.1c0-0.3 0-0.8 0-1.4 0-0.7 0.1-1.4 0.1-2.2 0-0.8 0.1-1.5 0.1-2.2 0-0.7 0-1.2 0-1.5v-0.3 -0.3l-0.3 0.3V382.1zM-32.2 387.6c0 0.1 0 0.3-0.1 0.6 0 0.3-0.1 0.6-0.1 0.6 0 0.2 0 0.7-0.1 1.3 0 0.6-0.1 1.1-0.1 1.3v0.6 0.7c0.1-0.1 0.2-0.3 0.4-0.6 0.1-0.3 0.3-0.6 0.4-0.6 0 0 0.1-0.2 0.2-0.4 0.1-0.2 0.3-0.3 0.4-0.4 0.1-0.1 0.3-0.3 0.5-0.6s0.3-0.5 0.3-0.6V389v-0.7c0-0.1 0-0.5-0.1-1 0-0.5-0.1-0.8-0.1-0.9h-0.1c0 0-0.1 0.1-0.2 0.1 -0.2 0.1-0.3 0.2-0.4 0.2 0 0-0.1 0.1-0.2 0.1 -0.1 0-0.2 0.1-0.3 0.2 -0.1 0.1-0.2 0.2-0.3 0.2L-32.2 387.6zM-21.5 420.9c0.1 0.1 0.4 0.2 0.8 0.2 0.4 0 0.6 0.1 0.8 0.1h0.3 0.1c0.2-0.1 0.7-0.2 1.3-0.4s1.1-0.3 1.3-0.4c0.1-0.1 0.4-0.2 0.7-0.3 0.3-0.1 0.5-0.1 0.6-0.1 0.1 0 0.3-0.1 0.7-0.4 0.4-0.2 0.7-0.4 0.9-0.5 0.1 0 0.2 0 0.4-0.1 0.1-0.1 0.3-0.2 0.4-0.3 0 0 0.1-0.1 0.2-0.1 0.1 0 0.2-0.1 0.4-0.3 0.1-0.1 0.2-0.2 0.4-0.4 0.2-0.1 0.3-0.3 0.4-0.4 0.1-0.1 0.2-0.2 0.3-0.3 0.1-0.1 0.2-0.2 0.3-0.3 0.1-0.1 0.2-0.2 0.4-0.4 0.1-0.2 0.3-0.3 0.4-0.4 0-0.1 0.1-0.2 0.2-0.3 0.1-0.1 0.2-0.2 0.2-0.3l0.2-0.4c0.1-0.1 0.2-0.2 0.3-0.4l0.1-0.3 0.9-1.7c0-0.1 0-0.2 0.1-0.4 0.1-0.1 0.1-0.2 0.1-0.3 0-0.1 0-0.2 0.1-0.4 0.1-0.2 0.1-0.3 0.1-0.4 0.1-0.1 0.2-0.4 0.3-0.9 0.1-0.5 0.1-0.7 0.1-0.8 0-0.1 0-0.4 0.1-0.9 0.1-0.4 0.1-0.7 0.1-0.9s0-0.4 0.1-0.8c0-0.4 0.1-0.7 0.1-0.8v-1.4 -1.3c0-0.1 0-0.3-0.1-0.7 0-0.4-0.1-0.6-0.1-0.8 0-0.1 0-0.3-0.1-0.6 0-0.3-0.1-0.5-0.1-0.6v3c0 0.1 0 0.4-0.1 0.8 0 0.5-0.1 0.8-0.1 1 0 0.1-0.1 0.3-0.1 0.4 0 0.1-0.1 0.3-0.1 0.6 0 0 0 0.1 0 0.2 0 0.1 0 0.2 0 0.3 0 0.1-0.1 0.3-0.1 0.4 0 0.1-0.1 0.4-0.2 0.9 -0.1 0.4-0.2 0.7-0.2 0.9 0 0.1 0 0.3-0.1 0.6 -0.1 0.3-0.2 0.5-0.3 0.7 0 0.1 0 0.2-0.1 0.4C-9 410.9-9 411-9 411.1c-0.1 0.2-0.3 0.6-0.5 1.1 -0.2 0.5-0.4 0.8-0.4 0.9 0 0.1-0.1 0.2-0.2 0.4 -0.1 0.2-0.3 0.3-0.4 0.4 0 0.1-0.1 0.2-0.3 0.4 -0.2 0.2-0.3 0.3-0.4 0.4l-0.3 0.3c0 0.1-0.1 0.2-0.2 0.2 -0.1 0.1-0.3 0.2-0.4 0.2 -0.1 0.1-0.4 0.3-0.7 0.5 -0.3 0.2-0.5 0.4-0.6 0.4l-1.7 0.9c0 0-0.2 0-0.5 0.1 -0.3 0.1-0.5 0.2-0.7 0.3 -0.1 0-0.2 0-0.4 0.1 -0.1 0-0.3 0.1-0.4 0.1h-0.7 -0.7c-0.2 0-0.3 0-0.4-0.1 -0.1 0-0.2 0-0.3-0.1h-0.1 -0.1c-0.1 0-0.2 0.1-0.3 0.1 -0.1 0-0.2 0.1-0.4 0.1h-0.6 -0.7c-0.1 0-0.2 0-0.4-0.1 -0.1 0-0.3-0.1-0.4-0.1 -0.1-0.1-0.4-0.2-0.9-0.3s-0.7-0.2-0.8-0.3c-0.1 0-0.3-0.1-0.7-0.3 -0.4-0.2-0.6-0.3-0.7-0.4 -0.1 0-0.2 0-0.4-0.1 -0.1-0.1-0.3-0.2-0.4-0.3 -0.1 0-0.2-0.1-0.3-0.1 -0.1 0-0.2-0.1-0.3-0.2 -0.1-0.1-0.2-0.2-0.3-0.2l-1.6-1.6c0 0-0.1-0.1-0.1-0.2 0-0.1-0.1-0.2-0.3-0.4l-0.3-0.4c-0.1-0.1-0.2-0.3-0.3-0.4l-0.1-0.3c0-0.1-0.1-0.2-0.2-0.4 -0.1-0.2-0.2-0.3-0.2-0.4 -0.1-0.1-0.2-0.3-0.3-0.5 -0.1-0.2-0.1-0.4-0.1-0.5 -0.1-0.1-0.2-0.4-0.3-0.9 -0.1-0.4-0.2-0.7-0.3-0.9 0-0.1 0-0.3-0.1-0.5 -0.1-0.3-0.1-0.5-0.1-0.6 0-0.1 0-0.2-0.1-0.3 0-0.1-0.1-0.2-0.1-0.3 0 0 0-0.1 0-0.2 0-0.1 0-0.2 0-0.3 0-0.1-0.1-0.3-0.1-0.4 0-0.1 0-0.4-0.1-0.8 0-0.4-0.1-0.6-0.1-0.7v-1.6 -1.5c0-0.1 0-0.3 0.1-0.7 0-0.4 0.1-0.6 0.1-0.8 0-0.1 0-0.2 0.1-0.4 0-0.2 0.1-0.3 0.1-0.4 0-0.1 0-0.4 0.1-0.8 0.1-0.4 0.1-0.6 0.1-0.7l0.1-0.4v0.3 0.3c0 0.1 0 0.3-0.1 0.5s-0.1 0.4-0.1 0.5c0 0.1 0 0.5-0.1 1 0 0.5-0.1 0.9-0.1 1v0.7 0.5c0 0.1 0 0.4 0.1 0.9 0 0.5 0.1 0.8 0.1 1 0 0.1 0 0.3 0.1 0.6s0.1 0.5 0.1 0.6c0 0.1 0 0.3 0.1 0.7 0.1 0.4 0.1 0.6 0.1 0.8 0 0.1 0 0.3 0.1 0.6 0.1 0.2 0.1 0.4 0.1 0.5 0 0.1 0.1 0.4 0.2 0.8 0.1 0.5 0.2 0.8 0.3 0.9 0 0.1 0 0.2 0.1 0.4 0.1 0.1 0.1 0.3 0.1 0.4 0 0.1 0 0.2 0.1 0.4 0.1 0.2 0.2 0.3 0.3 0.4 0.1 0.1 0.2 0.3 0.4 0.5 0.1 0.2 0.2 0.4 0.2 0.5 0.1 0.1 0.2 0.4 0.4 0.6 0.2 0.3 0.3 0.5 0.4 0.6 0.1 0.1 0.2 0.2 0.4 0.4 0.1 0.2 0.3 0.3 0.4 0.4l0.7 0.7c0.1 0 0.2 0.1 0.3 0.2 0.1 0.1 0.2 0.2 0.3 0.2 0.1 0 0.1 0.1 0.2 0.1 0 0 0.1 0.1 0.1 0.1 0 0 0.1 0.1 0.2 0.1 0 0 0.1 0.1 0.2 0.1 0.1 0 0.2 0 0.4 0.1 0.1 0.1 0.3 0.2 0.4 0.3 0.1 0 0.2 0 0.3 0.1 0.1 0.1 0.2 0.1 0.3 0.1 0.1 0 0.2 0 0.4 0.1 0.1 0.1 0.3 0.1 0.4 0.1 0.1 0 0.2 0 0.4 0.1 0.2 0.1 0.3 0.1 0.4 0.1 0.1 0 0.2 0.1 0.3 0.1 0.1 0 0.2 0.1 0.4 0.1 0.1 0 0.2 0 0.3 0 0.1 0 0.2 0 0.3 0 0.1 0 0.3 0.1 0.4 0.1h1.2 1.3c0.1 0 0.2 0 0.4-0.1 0.1 0 0.2 0 0.3 0 0.1 0 0.2 0 0.3 0 0.2 0 0.3 0 0.4-0.1 0.1 0 0.2 0 0.3-0.1 0.1 0 0.2 0 0.4-0.1 0.2-0.1 0.3-0.1 0.4-0.1 0.1-0.1 0.3-0.2 0.6-0.4 0.3-0.1 0.6-0.3 0.7-0.4l0.1-0.1c0.1-0.1 0.2-0.1 0.3-0.1 0.1-0.1 0.3-0.2 0.4-0.3 0.1 0 0.2-0.1 0.2-0.1l1.3-1.3c0-0.1 0.1-0.2 0.2-0.3 0.1-0.1 0.2-0.2 0.2-0.3 0-0.1 0.1-0.1 0.1-0.2l0.1-0.1c0.1-0.1 0.1-0.2 0.1-0.3 0.1-0.1 0.2-0.3 0.3-0.4l0.1-0.3c0.1-0.1 0.3-0.5 0.5-1 0.2-0.5 0.4-0.9 0.5-1l0.1-0.3c0.1-0.2 0.1-0.3 0.1-0.4 0-0.1 0-0.2 0.1-0.4 0.1-0.2 0.1-0.3 0.1-0.4 0-0.1 0-0.3 0.1-0.5 0.1-0.2 0.1-0.4 0.1-0.5 0-0.1 0-0.2 0.1-0.3s0.1-0.2 0.1-0.2c0-0.1 0-0.2 0.1-0.4 0-0.1 0.1-0.3 0.1-0.4 0-0.1 0-0.2 0.1-0.4 0-0.2 0.1-0.3 0.1-0.4 0-0.2 0-0.4 0.1-0.6 0-0.1 0-0.3 0.1-0.4 0-0.1 0-0.4 0.1-0.9 0-0.5 0.1-0.7 0.1-0.8v-0.9 -1c0-0.1 0-0.4-0.1-0.8 0-0.5-0.1-0.8-0.1-0.9 0-0.1 0-0.3-0.1-0.5 0-0.2-0.1-0.4-0.1-0.5 0-0.1 0-0.2-0.1-0.4s-0.1-0.3-0.1-0.4c0 0 0-0.1 0-0.1 0 0 0-0.1 0-0.2 0-0.1-0.1-0.2-0.1-0.2 0 0 0-0.2-0.1-0.4 -0.1-0.2-0.2-0.3-0.3-0.4 -0.1-0.1-0.2-0.3-0.3-0.5 -0.1-0.2-0.2-0.4-0.3-0.5l-0.3-0.4c-0.1-0.1-0.2-0.2-0.3-0.3 -0.1-0.1-0.2-0.2-0.3-0.4 -0.1-0.1-0.2-0.3-0.3-0.5l-1.6-1.6c0 0-0.1-0.1-0.2-0.1 -0.2-0.1-0.3-0.2-0.4-0.2 -0.1 0-0.2 0-0.3-0.1l-0.1-0.1c-0.1-0.1-0.4-0.2-0.9-0.4 -0.5-0.2-0.7-0.3-0.8-0.4 -0.1 0-0.3-0.1-0.4-0.1l-0.4-0.1c0 0-0.1 0-0.2-0.1 -0.1 0-0.2 0-0.2 0 0 0-0.1 0-0.1 0 -0.2 0-0.3 0-0.4-0.1 -0.1 0-0.2 0-0.3-0.1 -0.1 0-0.3 0-0.8-0.1 -0.4 0-0.7-0.1-0.8-0.1H-19h-0.3c-0.1 0-0.4 0-0.8 0.1 -0.4 0-0.6 0.1-0.8 0.1 -0.1 0-0.2 0-0.4 0.1 -0.2 0-0.3 0.1-0.4 0.1 -0.1 0-0.3 0-0.6 0.1 -0.3 0.1-0.5 0.1-0.6 0.1 -0.1 0-0.2 0-0.4 0.1 -0.1 0.1-0.3 0.1-0.4 0.1 -0.1 0.1-0.4 0.2-0.8 0.4s-0.6 0.3-0.7 0.4c-0.1 0-0.3 0.1-0.4 0.2l-0.4 0.3c-0.1 0.1-0.3 0.2-0.4 0.3 -0.1 0-0.2 0.1-0.2 0.1l-1 1c0 0.1-0.1 0.2-0.2 0.3 -0.1 0.1-0.2 0.2-0.2 0.3 0 0.1-0.1 0.1-0.1 0.2 -0.1 0.1-0.2 0.2-0.3 0.3 -0.1 0.1-0.1 0.2-0.1 0.3l-0.3 0.4h-0.1v-0.1c0-0.1 0-0.2 0.1-0.3 0 0 0-0.1 0.1-0.1 0-0.1 0-0.2 0.1-0.4 0.1-0.2 0.2-0.3 0.3-0.4 0-0.1 0.1-0.2 0.2-0.4 0.1-0.1 0.2-0.3 0.2-0.4 0.1-0.1 0.2-0.3 0.3-0.4 0-0.1 0.1-0.2 0.1-0.2 0.1-0.1 0.2-0.2 0.4-0.4 0.2-0.2 0.3-0.3 0.4-0.4 0 0 0.1-0.1 0.2-0.1 0.1 0 0.2-0.1 0.4-0.3 0.1-0.1 0.3-0.3 0.4-0.4 0.1-0.1 0.2-0.2 0.4-0.2 0.1-0.1 0.4-0.2 0.8-0.4 0.4-0.1 0.6-0.3 0.7-0.4 0.1 0 0.3 0 0.6-0.1 0.3-0.1 0.5-0.2 0.7-0.3 0 0 0.1 0 0.2-0.1 0.1 0 0.2 0 0.2 0 0 0 0.1 0 0.1 0 0.1 0 0.2 0 0.4-0.1 0.1 0 0.3-0.1 0.4-0.1 0.1 0 0.2 0 0.4-0.1 0.2 0 0.3-0.1 0.4-0.1h-0.5 -0.7c-0.1 0-0.2 0-0.4 0.1 -0.2 0-0.3 0.1-0.4 0.1 -0.1 0-0.3 0-0.6 0.1 -0.3 0.1-0.5 0.1-0.6 0.1 0 0-0.1 0.1-0.1 0.1 0 0-0.1 0.1-0.3 0.1 -0.1 0-0.2 0-0.4 0.1l-0.3 0.1c-0.1 0-0.2 0.1-0.4 0.2 -0.2 0.1-0.3 0.2-0.4 0.2l-0.3 0.1c-0.2 0.1-0.3 0.2-0.4 0.3l-0.4 0.3c-0.1 0.1-0.3 0.2-0.4 0.3 -0.1 0-0.2 0.1-0.2 0.1 -0.1 0.1-0.5 0.5-1 1 -0.5 0.5-0.9 0.8-1 1 0 0-0.1 0.1-0.1 0.2 0 0.1-0.1 0.2-0.3 0.4 0 0.1 0 0.2-0.1 0.3l-0.1 0.1c-0.1 0.1-0.2 0.3-0.4 0.7 -0.1 0.4-0.2 0.6-0.3 0.7l-0.1 0.1c0 0.1 0 0.2-0.1 0.4 -0.1 0.2-0.2 0.3-0.3 0.4l-0.1 0.3c-0.1 0.2-0.1 0.3-0.1 0.4 0 0 0 0.1 0 0.1 0 0 0 0.1 0 0.1 0 0-0.1 0.1-0.1 0.1 0 0.1 0 0.3-0.1 0.6 -0.1 0.3-0.1 0.5-0.1 0.6s0 0.2-0.1 0.4c0 0.1-0.1 0.3-0.1 0.4 0 0.1 0 0.4-0.1 0.9 -0.1 0.5-0.1 0.7-0.1 0.8 0 0.1 0 0.2 0 0.3 0 0.1 0 0.2 0 0.3 0 0.1-0.1 0.3-0.1 0.4v2.4 2.4c0 0.1 0 0.3 0.1 0.5 0 0.3 0.1 0.5 0.1 0.6 0 0.1 0 0.3 0.1 0.7 0.1 0.4 0.1 0.6 0.1 0.8s0 0.3 0.1 0.4c0 0.1 0 0.2 0.1 0.2 0.1 0.1 0.2 0.4 0.3 0.9 0.1 0.4 0.2 0.7 0.3 0.9 0 0.1 0 0.2 0.1 0.3 0.1 0.1 0.1 0.2 0.1 0.3 0 0.1 0 0.2 0.1 0.4 0.1 0.2 0.2 0.3 0.3 0.4 0 0.1 0.1 0.3 0.2 0.5 0.1 0.2 0.2 0.4 0.3 0.5 0 0.1 0.1 0.2 0.2 0.4 0.1 0.2 0.3 0.3 0.4 0.4 0.1 0.1 0.2 0.3 0.3 0.4 0 0.1 0.1 0.2 0.1 0.2 0.1 0.1 0.3 0.3 0.5 0.5s0.4 0.5 0.5 0.6l0.3 0.2c0.1 0 0.3 0.2 0.6 0.5 0.1 0.1 0.3 0.3 0.4 0.4 0.1 0.1 0.3 0.2 0.6 0.4 0.3 0.2 0.6 0.3 0.6 0.4 0.1 0.1 0.4 0.2 0.8 0.4 0.4 0.2 0.7 0.3 0.9 0.4 0.1 0 0.3 0 0.6 0.1 0.3 0.1 0.5 0.2 0.7 0.3 0 0 0.1 0.1 0.2 0.1 0.1 0 0.2 0.1 0.4 0.1 0.1 0 0.2 0 0.4 0.1 0.1 0 0.3 0.1 0.4 0.1 0.1 0 0.3 0 0.5 0.1 0.2 0 0.4 0.1 0.4 0.1 0.1 0 0.2 0 0.4 0.1 0.2 0 0.3 0.1 0.4 0.1H-21.5zM-3.2 404.2v1.7c0 0.1 0 0.4-0.1 0.8 0 0.5-0.1 0.7-0.1 0.8v0.6 0.6c0-0.1 0-0.2 0.1-0.4 0-0.1 0.1-0.3 0.1-0.4 0-0.1 0-0.2 0.1-0.4s0.1-0.3 0.1-0.4 0-0.3 0.1-0.5c0-0.3 0.1-0.4 0.1-0.5 0-0.1 0-0.5 0.1-1.1s0.1-1 0.1-1.2v-0.6 -0.4c0-0.2 0-0.6-0.1-1.2s-0.1-0.9-0.1-1c0-0.1-0.1-0.2-0.1-0.4 0-0.1-0.1-0.2-0.1-0.3 0-0.1 0-0.2 0-0.3 0-0.1 0-0.2-0.1-0.4 0-0.2-0.1-0.3-0.1-0.4 0-0.1 0-0.4-0.1-0.8 -0.1-0.4-0.1-0.6-0.1-0.7 0-0.1 0-0.3-0.1-0.5 -0.1-0.2-0.1-0.4-0.1-0.5 -0.1-0.1-0.2-0.4-0.3-0.9 -0.1-0.4-0.2-0.7-0.3-0.9 0-0.1 0-0.2-0.1-0.4 -0.1-0.1-0.1-0.3-0.1-0.4 -0.1-0.2-0.3-0.7-0.6-1.3 -0.3-0.6-0.5-1-0.6-1.2l-0.1-0.3c-0.1-0.2-0.2-0.3-0.3-0.4 0-0.1 0-0.2-0.1-0.3l-0.1-0.1c-0.1-0.1-0.2-0.3-0.4-0.6 -0.2-0.3-0.3-0.4-0.4-0.5 -0.1-0.1-0.2-0.3-0.4-0.5 -0.2-0.2-0.3-0.4-0.4-0.5l-0.9-0.9c-0.1 0-0.2-0.1-0.4-0.3 -0.2-0.2-0.3-0.3-0.4-0.4 -0.1 0-0.2-0.1-0.3-0.2 -0.1-0.1-0.2-0.2-0.3-0.2 -0.1-0.1-0.2-0.2-0.4-0.3 -0.2-0.1-0.3-0.2-0.4-0.3 -0.1-0.1-0.2-0.2-0.4-0.3 -0.1-0.1-0.3-0.1-0.4-0.1 -0.1 0-0.2-0.1-0.4-0.2 -0.2-0.1-0.3-0.2-0.4-0.2 -0.1 0-0.2 0-0.4-0.1 -0.1-0.1-0.3-0.1-0.4-0.1 -0.1-0.1-0.3-0.2-0.6-0.3 -0.3-0.1-0.6-0.1-0.6-0.1 -0.1 0-0.2 0-0.2-0.1 -0.1 0-0.2 0-0.2 0 0 0-0.1 0-0.1 0 -0.1 0-0.4 0-0.8-0.1 -0.4-0.1-0.6-0.1-0.7-0.1 -0.1 0-0.3 0-0.5-0.1 -0.2 0-0.4-0.1-0.5-0.1 -0.1 0-0.5 0-1-0.1 -0.5 0-0.9-0.1-1-0.1h-0.4 -0.4c-0.1 0-0.5 0-0.9 0.1 -0.5 0-0.8 0.1-0.9 0.1 -0.1 0-0.3 0-0.5 0.1 -0.2 0-0.4 0.1-0.5 0.1 -0.1 0-0.2 0-0.4 0.1 -0.1 0-0.3 0.1-0.4 0.1 -0.1 0-0.3 0-0.6 0.1 -0.3 0.1-0.4 0.1-0.5 0.1 -0.1 0-0.3 0-0.6 0.1 -0.3 0.1-0.5 0.2-0.7 0.3 -0.1 0-0.2 0-0.4 0.1 -0.1 0.1-0.3 0.1-0.4 0.1l-2 1 -0.1 0.1v3c0.1-0.1 0.3-0.3 0.7-0.6 0.4-0.3 0.6-0.5 0.8-0.6 0.1-0.1 0.2-0.2 0.4-0.4 0.2-0.1 0.3-0.2 0.4-0.2 0.1-0.1 0.4-0.2 0.8-0.4 0.5-0.2 0.8-0.3 0.9-0.4 0.1 0 0.2 0 0.3-0.1 0.1-0.1 0.2-0.1 0.3-0.1 0.1-0.1 0.3-0.2 0.6-0.3 0.3-0.1 0.6-0.1 0.6-0.1 0 0 0.1 0 0.2-0.1 0.1 0 0.2 0 0.2 0 0 0 0.1 0 0.1 0 0.1 0 0.2 0 0.4-0.1 0.1 0 0.3-0.1 0.4-0.1 0.2 0 0.4 0 0.5-0.1 0.1 0 0.3 0 0.4-0.1 0.1 0 0.4 0 0.7-0.1 0.3 0 0.6-0.1 0.6-0.1h0.7 0.7c0.1 0 0.3 0 0.7 0.1 0.4 0 0.6 0.1 0.8 0.1 0.1 0 0.2 0.1 0.4 0.1 0.1 0 0.3 0.1 0.5 0.1 0 0 0.1 0 0.2 0 0.1 0 0.2 0 0.3 0 0.1 0 0.2 0.1 0.3 0.1 0.1 0 0.3 0 0.5 0.1 0.2 0.1 0.4 0.1 0.5 0.1 0.1 0.1 0.4 0.2 0.7 0.3 0.3 0.1 0.5 0.1 0.6 0.1 0.1 0 0.3 0 0.5 0.1 0.2 0.1 0.4 0.2 0.5 0.2 0.1 0.1 0.3 0.2 0.5 0.3 0.1 0 0.3 0.1 0.4 0.1 0.1 0.1 0.3 0.2 0.6 0.4 0.3 0.2 0.6 0.3 0.6 0.4 0.1 0.1 0.2 0.2 0.4 0.4 0.2 0.1 0.3 0.3 0.4 0.4 0.1 0.1 0.4 0.3 0.8 0.7 0.4 0.4 0.6 0.6 0.7 0.8 0 0.1 0.1 0.2 0.2 0.3 0.1 0.1 0.2 0.2 0.2 0.3 0 0.1 0.1 0.1 0.1 0.2 0.1 0.1 0.2 0.3 0.3 0.4 0 0.1 0.1 0.2 0.1 0.2 0.1 0.1 0.3 0.4 0.5 0.6 0.2 0.3 0.3 0.5 0.3 0.6 0.1 0.1 0.3 0.4 0.5 1 0.3 0.6 0.5 1 0.6 1.3 0 0.1 0 0.2 0.1 0.4s0.1 0.3 0.1 0.4c0.1 0.2 0.2 0.6 0.4 1.1 0.2 0.5 0.3 0.8 0.3 1 0 0.1 0 0.3 0.1 0.5 0.1 0.3 0.1 0.5 0.1 0.6 0 0.1 0 0.4 0.1 0.8 0.1 0.4 0.1 0.6 0.1 0.7 0 0.1 0 0.3 0.1 0.5 0 0.2 0.1 0.4 0.1 0.5 0 0.1 0 0.4 0.1 0.8 0 0.4 0.1 0.6 0.1 0.7V404.2zM-26.6 422.2c-0.1 0-0.1 0-0.1 0.1 0 0.1 0 0.1 0.1 0.1 0.1 0 0.1 0 0.1-0.1C-26.5 422.2-26.5 422.2-26.6 422.2zM-26.3 422.4C-26.3 422.3-26.4 422.3-26.3 422.4c-0.1-0.1-0.1 0-0.1 0 0 0.1 0 0.1 0.1 0.1S-26.3 422.5-26.3 422.4zM-26 422.5c0-0.1 0-0.1-0.1-0.1 0 0-0.1 0-0.1 0.1s0 0.1 0.1 0.1C-26.1 422.7-26 422.6-26 422.5zM-25.9 422.7l0.1 0.1c0.1 0 0.2 0 0.4 0.1 0.2 0.1 0.3 0.2 0.4 0.3 0.1 0.1 0.3 0.2 0.5 0.3 0.2 0.1 0.4 0.1 0.5 0.1 0.1 0 0.2 0 0.4 0.1 0.2 0.1 0.3 0.1 0.4 0.1 0.1 0 0.3 0 0.5 0.1 0.3 0.1 0.5 0.1 0.6 0.1l0.7 0.1c0.1 0 0.4 0.1 0.9 0.2 0.5 0.1 0.8 0.2 0.9 0.2 0.1 0 0.4-0.1 0.9-0.2 0.5-0.1 0.8-0.2 0.9-0.2l0.7-0.1c0.1 0 0.3 0 0.6-0.1 0.3-0.1 0.4-0.1 0.5-0.1 0.1 0 0.2 0 0.4-0.1 0.2-0.1 0.3-0.1 0.4-0.1 0.1 0 0.3 0 0.5-0.1 0.2-0.1 0.4-0.2 0.5-0.3 0.1 0 0.2-0.1 0.4-0.2 0.2-0.1 0.3-0.2 0.4-0.2 0.1 0 0.2 0 0.4-0.1 0.1-0.1 0.3-0.2 0.4-0.3 0 0 0.2-0.1 0.5-0.3 0.1-0.1 0.3-0.2 0.4-0.2l0.3-0.3c-0.1 0-0.2 0.1-0.4 0.2 -0.2 0.1-0.3 0.2-0.4 0.2 -0.1 0-0.3 0-0.5 0.1 -0.2 0.1-0.4 0.2-0.5 0.2 -0.1 0-0.2 0-0.4 0.1 -0.1 0.1-0.3 0.1-0.4 0.1 0 0-0.1 0.1-0.1 0.1 0 0-0.1 0.1-0.3 0.1 -0.1 0-0.3 0-0.5 0.1 -0.2 0.1-0.4 0.1-0.5 0.1 -0.1 0-0.3 0-0.5 0.1 -0.3 0.1-0.4 0.1-0.5 0.1 -0.1 0-0.2 0-0.4 0.1 -0.2 0-0.3 0.1-0.4 0.1 -0.1 0-0.2 0-0.4 0 -0.1 0-0.3 0-0.4 0 -0.2 0-0.3 0.1-0.4 0.1h-1.4 -1.5c-0.1 0-0.3 0-0.5-0.1 -0.3 0-0.5-0.1-0.6-0.1 -0.1 0-0.4 0-0.8-0.1 -0.4-0.1-0.6-0.1-0.7-0.1 -0.1 0-0.3 0-0.5-0.1s-0.4-0.1-0.5-0.1c-0.1 0-0.2 0-0.4-0.1 -0.2-0.1-0.3-0.1-0.4-0.1h-0.1H-25.9zM-22.4 420.7c-0.1 0-0.1 0-0.1 0.1 0 0.1 0 0.1 0.1 0.1 0.1 0 0.1 0 0.1-0.1C-22.2 420.8-22.3 420.7-22.4 420.7zM-22.1 420.7c-0.1 0-0.1 0-0.1 0.1 0 0.1 0 0.1 0.1 0.1 0.1 0 0.1 0 0.1-0.1C-21.9 420.8-22 420.7-22.1 420.7zM-7.6 399.7c-0.1 0-0.1 0-0.1 0.1 0 0.1 0 0.1 0.1 0.1 0.1 0 0.1 0 0.1-0.1C-7.5 399.7-7.5 399.7-7.6 399.7zM-7.6 400c-0.1 0-0.1 0-0.1 0.1 0 0.1 0 0.1 0.1 0.1 0.1 0 0.1 0 0.1-0.1C-7.5 400-7.5 400-7.6 400zM-0.8 409.5v-0.4c0 0.1 0.1 0.3 0.2 0.6 0.1 0.3 0.2 0.6 0.2 0.6s0.1 0.4 0.3 1c0.2 0.6 0.3 0.9 0.3 1l0.1 0.4c0 0.1 0 0.2 0.1 0.4 0.1 0.1 0.1 0.3 0.1 0.4 0.1 0.1 0.2 0.3 0.3 0.5 0.1 0.2 0.1 0.4 0.1 0.5 0 0.1 0 0.2 0.1 0.3 0.1 0.1 0.1 0.2 0.1 0.3 0.1 0.1 0.2 0.3 0.3 0.5 0.1 0.2 0.2 0.4 0.2 0.5 0.1 0.1 0.2 0.3 0.4 0.6 0.2 0.3 0.3 0.5 0.4 0.6 0 0.1 0.1 0.2 0.2 0.3 0.1 0.1 0.2 0.2 0.2 0.3 0.1 0.1 0.2 0.3 0.4 0.5 0.2 0.2 0.3 0.4 0.4 0.5l0.7 0.7c0.1 0.1 0.2 0.2 0.3 0.3 0.1 0.1 0.2 0.2 0.3 0.3 0.1 0.1 0.3 0.2 0.4 0.3h0.1c-0.1-0.1-0.4-0.5-0.9-0.9 -0.4-0.5-0.7-0.8-0.9-0.9 -0.1-0.1-0.2-0.2-0.3-0.4 -0.1-0.1-0.2-0.3-0.3-0.4 -0.1-0.1-0.2-0.3-0.4-0.6 -0.2-0.3-0.3-0.5-0.4-0.6 -0.1-0.1-0.2-0.2-0.3-0.4 -0.1-0.1-0.1-0.3-0.1-0.4 -0.1-0.1-0.2-0.3-0.3-0.6 -0.1-0.3-0.2-0.5-0.2-0.6 0-0.1-0.1-0.3-0.2-0.7 -0.1-0.4-0.3-0.6-0.4-0.8 0 0-0.1-0.1-0.1-0.1 0 0-0.1-0.1-0.1-0.3s0-0.3-0.1-0.5c-0.1-0.2-0.1-0.4-0.1-0.5 0-0.1-0.1-0.2-0.1-0.3 0-0.1-0.1-0.2-0.1-0.4s0-0.4-0.1-0.9c-0.1-0.4-0.1-0.7-0.1-0.9 0-0.1 0-0.3-0.1-0.5 0-0.2-0.1-0.4-0.1-0.5 0-0.1 0-0.4-0.1-0.8 0-0.4-0.1-0.6-0.1-0.7v-2.7 -2.6c0-0.1 0-0.3 0.1-0.4 0-0.1 0-0.2 0-0.3 0-0.1 0-0.2 0-0.3 0-0.1 0-0.3 0.1-0.5 0-0.2 0.1-0.4 0.1-0.5s0-0.2 0.1-0.4c0-0.1 0.1-0.3 0.1-0.4 0-0.1 0-0.3 0.1-0.6 0.1-0.3 0.1-0.5 0.1-0.6 0-0.1 0-0.3 0.1-0.5 0.1-0.2 0.1-0.4 0.1-0.5l0.1-0.4c0 0 0.1-0.1 0.1-0.3 0-0.1 0.1-0.3 0.1-0.4l0.1-0.4c0.1-0.1 0.3-0.5 0.5-1.1 0.2-0.6 0.4-1 0.6-1.2l0.1-0.3c0.1-0.2 0.2-0.3 0.3-0.4 0.1-0.1 0.2-0.2 0.4-0.4 0.1-0.2 0.2-0.3 0.2-0.4 0-0.1 0.1-0.2 0.2-0.3 0.1-0.1 0.3-0.2 0.4-0.3 0.1-0.1 0.3-0.3 0.5-0.6 0.2-0.3 0.4-0.5 0.5-0.6l0.3-0.3c0.1-0.1 0.3-0.3 0.6-0.5 0.3-0.2 0.5-0.4 0.6-0.5 0.1-0.1 0.2-0.2 0.3-0.3 0.1-0.1 0.2-0.2 0.3-0.3 0.1-0.1 0.3-0.3 0.6-0.5 0.3-0.2 0.4-0.4 0.5-0.4 0.1-0.1 0.2-0.2 0.4-0.3 0.1-0.1 0.3-0.1 0.4-0.1h0.1l0.3-0.1 0.4-0.1c0.1 0 0.2 0 0.3-0.1 0.2-0.1 0.3-0.1 0.4-0.1 0.1-0.1 0.4-0.2 0.9-0.4 0.4-0.1 0.7-0.2 0.8-0.2 0.1 0 0.3 0 0.6-0.1 0.3-0.1 0.5-0.1 0.6-0.1 0.1 0 0.3 0 0.5-0.1 0.2 0 0.4-0.1 0.5-0.1h1.6 1.5c0.1 0 0.3 0 0.7 0.1 0.4 0 0.7 0.1 0.9 0.1 0.1 0 0.6 0 1.2 0.1 0.7 0.1 1.1 0.1 1.2 0.1h0.3 0.2c0 0-0.2 0-0.4-0.1 -0.2-0.1-0.3-0.1-0.4-0.1 0 0-0.1 0-0.2-0.1 -0.1 0-0.2 0-0.2 0 0 0-0.1 0-0.1 0 -0.1 0-0.2 0-0.4-0.1 -0.1 0-0.3-0.1-0.4-0.1 -0.2 0-0.4 0-0.5-0.1 -0.1 0-0.3 0-0.4-0.1 -0.1 0-0.4 0-0.8-0.1 -0.5 0-0.8-0.1-1-0.1h-0.1 -0.1c-0.1 0-0.3 0-0.6 0 -0.3 0-0.5 0-0.8 0 -0.3 0-0.5 0-0.7 0 -0.2 0-0.3 0-0.4 0 -0.1 0-0.3 0-0.5 0.1 -0.2 0-0.4 0.1-0.5 0.1h-0.1 -0.3l0.4-0.1c0.1 0 0.2 0 0.4-0.1 0.1 0 0.3-0.1 0.4-0.1 0.1 0 0.3 0 0.5-0.1 0.2 0 0.4-0.1 0.5-0.1 0.1 0 0.4 0 0.8-0.1 0.4 0 0.6-0.1 0.7-0.1h0.9 1c0.1 0 0.3 0 0.7 0.1 0.4 0 0.6 0.1 0.8 0.1 0.1 0 0.2 0.1 0.4 0.1 0.1 0 0.3 0.1 0.5 0.1 0.1 0 0.2 0 0.4 0.1 0.1 0 0.3 0.1 0.4 0.1 0 0 0.1 0 0.1 0 0 0 0.1 0 0.2 0 0 0 0.1 0.1 0.2 0.1 0.1 0.1 0.4 0.2 0.9 0.3 0.4 0.1 0.7 0.2 0.9 0.3 0.1 0 0.2 0 0.4 0.1 0.1 0.1 0.3 0.1 0.4 0.1 0.1 0 0.2 0.1 0.4 0.2 0.2 0.1 0.3 0.2 0.4 0.2 0.1 0 0.2 0 0.4 0.1 0.1 0.1 0.3 0.2 0.4 0.3 0.1 0.1 0.4 0.2 0.7 0.4 0.3 0.2 0.5 0.3 0.5 0.4 0.1 0.1 0.2 0.2 0.4 0.4 0.2 0.1 0.3 0.3 0.4 0.4l1.6 1.6c0 0.1 0.1 0.2 0.2 0.3 0.1 0.1 0.2 0.2 0.2 0.3 0 0.1 0.1 0.1 0.1 0.2 0.1 0.1 0.2 0.2 0.3 0.3 0.1 0.1 0.2 0.2 0.3 0.3 0.1 0.1 0.2 0.3 0.4 0.4 0.1 0.1 0.2 0.3 0.4 0.7 0.2 0.4 0.3 0.6 0.4 0.8 0.1 0.1 0.2 0.3 0.3 0.7 0.1 0.4 0.2 0.6 0.3 0.8 0.1 0.1 0.2 0.3 0.3 0.7 0.1 0.4 0.2 0.6 0.3 0.8 0.1 0.1 0.2 0.4 0.3 0.6 0.1 0.3 0.1 0.5 0.1 0.6 0 0.1 0 0.3 0.1 0.8 0.1 0.4 0.2 0.7 0.3 1 0 0.1 0 0.2 0.1 0.4s0.1 0.3 0.1 0.4c0 0.1 0 0.2 0.1 0.4 0 0.2 0.1 0.3 0.1 0.4s0 0.2 0 0.3c0 0.1 0 0.2 0.1 0.3 0 0.1 0 0.3 0.1 0.4 0 0.1 0 0.4 0.1 1 0 0.6 0.1 0.9 0.1 1.1v0.7 0.4l-0.7 0.7c-0.1 0.1-0.2 0.2-0.4 0.4 -0.2 0.2-0.4 0.3-0.7 0.5 -0.3 0.2-0.5 0.3-0.7 0.5s-0.3 0.3-0.4 0.4h-0.4 -0.6c-0.1 0-0.4 0-0.9-0.1 -0.5-0.1-0.8-0.1-0.9-0.1 -0.1 0-0.4 0-0.9-0.1s-0.7-0.1-0.8-0.1h-2.2 -2.7c-0.1 0-0.5 0-1.2 0 -0.6 0-1.3 0-2 0 -0.7 0-1.4 0-2 0 -0.6 0-1 0-1.2 0h-4.2 -4c-0.1 0-0.3 0-0.5 0 -0.2 0-0.5 0-0.8 0s-0.6 0-0.8 0c-0.3 0-0.4 0-0.5 0 -0.1 0-0.2 0-0.4 0 -0.1 0-0.3 0-0.4 0l18.9-0.7h1.6 1.4c0.1 0 0.4 0 1 0.1 0.6 0 1 0.1 1.3 0.2 0.1 0 0.4 0 0.9 0.1 0.5 0.1 0.8 0.1 0.9 0.1h0.6 0.4c0.1-0.1 0.4-0.3 0.8-0.6 0.4-0.3 0.7-0.6 0.8-0.6l0.6-0.6v-1 -0.9c0-0.1 0-0.3-0.1-0.7 0-0.4-0.1-0.6-0.1-0.8 0-0.1 0-0.3-0.1-0.6s-0.1-0.4-0.1-0.5c0-0.1 0-0.3-0.1-0.7 -0.1-0.4-0.1-0.6-0.1-0.8 0-0.1 0-0.3-0.1-0.6 -0.1-0.3-0.1-0.5-0.1-0.6 0 0 0-0.1 0-0.1 0 0 0-0.1 0-0.1 0 0-0.1-0.1-0.1-0.1 -0.1-0.1-0.3-0.5-0.5-1 -0.3-0.6-0.4-0.9-0.5-1.2l-0.1-0.3c-0.1-0.2-0.2-0.3-0.3-0.4 0-0.1-0.1-0.2-0.2-0.3 -0.1-0.1-0.2-0.2-0.3-0.4 -0.1-0.1-0.2-0.3-0.3-0.5 -0.1-0.2-0.4-0.6-0.8-1.1 -0.4-0.5-0.6-0.8-0.7-0.9l-1.3-1.3v0.1c0.1 0.1 0.2 0.3 0.4 0.5 0.2 0.2 0.3 0.4 0.4 0.5 0 0.1 0.1 0.2 0.2 0.3 0.1 0.1 0.2 0.2 0.2 0.3 0.1 0.1 0.2 0.3 0.4 0.6 0.2 0.3 0.3 0.6 0.4 0.6 0.1 0.1 0.2 0.2 0.3 0.4 0.1 0.1 0.1 0.3 0.1 0.4 0.1 0.1 0.2 0.3 0.4 0.7 0.1 0.4 0.3 0.6 0.4 0.8 0 0.1 0 0.2 0.1 0.4 0.1 0.1 0.1 0.3 0.1 0.4 0 0.1 0 0.2 0.1 0.4 0.1 0.2 0.1 0.3 0.1 0.4 0 0.1 0 0.3 0.1 0.5 0.1 0.2 0.1 0.4 0.1 0.5 0 0.1 0 0.2 0.1 0.4 0 0.1 0.1 0.3 0.1 0.4 0 0.1 0 0.4 0.1 0.7 0 0.3 0.1 0.5 0.1 0.6v0.6 0.4c0 0.1 0 0.3-0.1 0.5s-0.1 0.4-0.1 0.5c0 0.1 0 0.3-0.1 0.5 -0.1 0.3-0.1 0.4-0.1 0.5 0 0.1 0 0.5-0.1 1 0 0.5-0.1 0.9-0.1 1 -0.1 0-0.3 0-0.6 0.1 -0.3 0-0.6 0.1-0.6 0.1 -0.1 0-0.2 0.1-0.4 0.3 -0.2 0.2-0.3 0.3-0.4 0.3l-0.3 0.1 -25.1-0.4 -0.1-0.3h2.6H2.6v0.7 0.7l0.1 0.6c0 0 0.1 0.3 0.2 0.9 0.1 0.5 0.2 0.8 0.2 0.9 0 0.1 0 0.3 0.1 0.4 0 0.1 0 0.2 0.1 0.2 0 0.1 0 0.3 0.1 0.5 0.1 0.2 0.1 0.4 0.1 0.5 0.1 0.1 0.2 0.5 0.4 1 0.1 0.6 0.3 0.9 0.4 1 0.1 0.1 0.2 0.3 0.3 0.6 0.1 0.3 0.1 0.4 0.1 0.5 0.1 0.1 0.2 0.3 0.3 0.6 0.1 0.3 0.2 0.5 0.3 0.6 0 0.1 0.1 0.2 0.2 0.4 0.2 0.3 0.3 0.5 0.4 0.5 0.1 0.1 0.2 0.3 0.3 0.4 0 0.1 0.1 0.2 0.1 0.2l1.5 1.5c0 0 0.1 0.1 0.2 0.1 0.1 0 0.2 0.1 0.4 0.3 0.1 0.1 0.2 0.2 0.4 0.3 0.2 0.1 0.3 0.2 0.4 0.3 0.1 0.1 0.2 0.2 0.4 0.3 0.1 0.1 0.3 0.1 0.4 0.1 0.1 0 0.2 0 0.3 0.1 0.1 0.1 0.2 0.1 0.3 0.1 0.1 0 0.2 0 0.4 0.1 0.1 0.1 0.3 0.1 0.4 0.1 0.1 0 0.3 0.1 0.6 0.2 0.3 0.1 0.5 0.2 0.6 0.2 0.1 0 0.2 0 0.3 0.1 0.1 0 0.2 0.1 0.3 0.1 0.1 0 0.2 0 0.4 0.1 0.2 0 0.3 0.1 0.4 0.1 0.1 0 0.4 0 0.8 0.1 0.4 0 0.6 0.1 0.7 0.1H16h0.6c0.1 0 0.3 0 0.7-0.1 0.4 0 0.6-0.1 0.8-0.1 0.1 0 0.2 0 0.4-0.1 0.1 0 0.2 0 0.3 0 0.1 0 0.2 0 0.2 0 0.1 0 0.2 0 0.4-0.1 0.1 0 0.3-0.1 0.4-0.1 0.1 0 0.3 0 0.4-0.1 0.1 0 0.2 0 0.2-0.1 0.1 0 0.2 0 0.4-0.1 0.2-0.1 0.3-0.1 0.4-0.1 0.1 0 0.2 0 0.4-0.1 0.1-0.1 0.3-0.1 0.4-0.1 0.1-0.1 0.4-0.2 0.7-0.4 0.3-0.1 0.6-0.3 0.6-0.4 0.1 0 0.2-0.1 0.4-0.2 0.3-0.2 0.5-0.3 0.5-0.4 0.1-0.1 0.3-0.2 0.4-0.3 0.1 0 0.2-0.1 0.2-0.1 0.1-0.1 0.4-0.4 0.8-0.8 0.4-0.4 0.6-0.6 0.8-0.8 0 0 0.1-0.1 0.1-0.2 0-0.1 0.1-0.2 0.3-0.4 0-0.1 0-0.2 0.1-0.3l0.1-0.1c0.1-0.1 0.2-0.4 0.4-0.9 0.2-0.4 0.3-0.7 0.4-0.9 0-0.1 0-0.2 0.1-0.4 0.1-0.1 0.1-0.3 0.1-0.4 0-0.1 0-0.2 0.1-0.4 0.1-0.2 0.1-0.3 0.1-0.4 0-0.1 0-0.3 0.1-0.6 0.1-0.3 0.1-0.5 0.1-0.6l0.1-0.4v-0.3l1-1c0 0 0.1-0.1 0.1-0.1 0 0 0.1-0.1 0.1-0.1s0.1-0.1 0.1-0.1h0.7 0.6l0.4 0.4c0.1 0.1 0.2 0.3 0.4 0.5 0.2 0.2 0.3 0.4 0.4 0.5 0 0.1 0 0.4-0.1 0.8 -0.1 0.4-0.1 0.6-0.1 0.8 0 0.1 0 0.2-0.1 0.3s-0.1 0.2-0.1 0.3c0 0 0 0.1 0 0.1 0 0 0 0.1 0 0.2 0 0.1-0.1 0.2-0.1 0.2 0 0.1 0 0.3-0.1 0.6 -0.1 0.3-0.2 0.6-0.3 0.6 0 0.1 0 0.2-0.1 0.4 -0.1 0.1-0.1 0.3-0.1 0.4 -0.1 0.2-0.3 0.7-0.6 1.3 -0.3 0.6-0.6 1-0.6 1.2l0.1-0.1 0.1-0.1c0.1-0.1 0.1-0.2 0.1-0.2 0.1-0.1 0.2-0.2 0.3-0.4l0.1-0.3c0.1-0.1 0.2-0.4 0.4-0.8 0.1-0.4 0.3-0.6 0.4-0.7 0-0.1 0-0.2 0.1-0.4 0.1-0.1 0.1-0.3 0.1-0.4 0.1-0.1 0.2-0.4 0.3-0.9 0.1-0.4 0.2-0.7 0.3-0.9v-0.2c0 0 0-0.1 0-0.1 0 0 0-0.1 0-0.1 0-0.1 0.1-0.3 0.2-0.7 0-0.2 0.1-0.4 0.1-0.6v-0.3 -0.1l-1.1-1.4h0.1c0.1 0.1 0.2 0.3 0.4 0.4 0.1 0.1 0.2 0.2 0.3 0.3 0.1 0.1 0.2 0.2 0.3 0.3l0.7 0.7v0.1c0 0.1 0 0.3-0.1 0.5 -0.1 0.3-0.1 0.5-0.1 0.6s-0.1 0.4-0.2 0.8c-0.1 0.4-0.2 0.6-0.2 0.7 0 0 0 0.1 0 0.1 0 0 0 0.1 0 0.1 0 0-0.1 0.1-0.1 0.1 -0.1 0.1-0.2 0.3-0.3 0.6 -0.1 0.3-0.2 0.6-0.3 0.6 -0.1 0.2-0.3 0.6-0.5 1 -0.2 0.4-0.4 0.7-0.4 0.8s-0.1 0.3-0.4 0.6c-0.3 0.3-0.5 0.6-0.6 0.7 -0.1 0.1-0.2 0.2-0.3 0.4 -0.1 0.1-0.2 0.3-0.3 0.4l-1 1c-0.1 0.1-0.2 0.2-0.4 0.3 -0.1 0.1-0.2 0.2-0.3 0.3 -0.1 0.1-0.2 0.1-0.2 0.2 -0.1 0.1-0.4 0.3-0.6 0.5 -0.3 0.2-0.5 0.4-0.6 0.5 -0.1 0-0.2 0.1-0.4 0.2 -0.2 0.1-0.3 0.3-0.4 0.4 0 0-0.1 0.1-0.2 0.1 -0.1 0-0.2 0.1-0.3 0.1l-0.3 0.1c-0.2 0.1-0.6 0.3-1.2 0.6 -0.6 0.3-0.9 0.4-1.1 0.5l-0.4 0.1c-0.1 0-0.2 0.1-0.3 0.1 -0.1 0-0.2 0.1-0.3 0.1 -0.1 0-0.2 0-0.4 0.1 -0.2 0.1-0.3 0.1-0.4 0.1 -0.1 0-0.4 0.1-0.9 0.2 -0.4 0.1-0.7 0.2-0.9 0.2 -0.1 0-0.2 0-0.4 0.1 -0.2 0-0.3 0.1-0.4 0.1 -0.1 0-0.2 0-0.4 0 -0.1 0-0.3 0-0.4 0 -0.2 0-0.3 0.1-0.4 0.1h-1.5H14c-0.1 0-0.3 0-0.5-0.1 -0.3 0-0.5-0.1-0.6-0.1 -0.1 0-0.4 0-0.7-0.1 -0.3-0.1-0.6-0.1-0.6-0.1 -0.1 0-0.3 0-0.5-0.1s-0.4-0.1-0.5-0.1c-0.1 0-0.2 0-0.4-0.1 -0.2-0.1-0.3-0.1-0.4-0.1 -0.1 0-0.2 0-0.4-0.1l-0.3-0.1c-0.2-0.1-0.6-0.3-1.1-0.5 -0.5-0.2-0.8-0.4-0.8-0.5 -0.1 0-0.3-0.1-0.6-0.3 -0.3-0.2-0.5-0.4-0.7-0.5 -0.1-0.1-0.3-0.2-0.4-0.3 -0.1 0-0.2-0.1-0.2-0.1l-1.4-1.4c-0.1-0.1-0.2-0.2-0.3-0.4 -0.1-0.1-0.2-0.2-0.3-0.3 -0.1-0.1-0.1-0.2-0.2-0.2 -0.1-0.1-0.2-0.2-0.3-0.3 -0.1-0.1-0.1-0.2-0.1-0.3 -0.1-0.1-0.2-0.4-0.4-0.7 -0.2-0.3-0.3-0.5-0.4-0.6 0 0-0.1-0.2-0.2-0.4 -0.1-0.2-0.3-0.4-0.4-0.5 0-0.1 0-0.2-0.1-0.3 -0.1-0.1-0.1-0.2-0.1-0.3 -0.1-0.1-0.2-0.3-0.3-0.5 -0.1-0.2-0.1-0.4-0.1-0.5 -0.1-0.1-0.2-0.4-0.3-0.9 -0.1-0.4-0.2-0.7-0.3-0.9 0-0.1 0-0.3-0.1-0.5 -0.1-0.3-0.1-0.4-0.1-0.5 -0.1-0.1-0.2-0.4-0.2-0.8 0-0.4-0.1-0.6-0.1-0.7V409.5zM14.7 388.9h-0.6c0 0-0.1 0.1-0.2 0.1 -0.1 0-0.2 0.1-0.4 0.1 -0.1 0-0.3 0-0.6 0.1 -0.3 0.1-0.6 0.2-0.6 0.3 -0.1 0-0.2 0-0.3 0.1 -0.1 0.1-0.2 0.1-0.3 0.1 -0.1 0-0.2 0.1-0.4 0.2 -0.2 0.1-0.3 0.2-0.4 0.2l-0.3 0.1c-0.2 0.1-0.3 0.2-0.4 0.3 -0.1 0-0.2 0-0.3 0.1l-0.1 0.1c-0.1 0.1-0.2 0.2-0.4 0.3 -0.1 0.1-0.2 0.2-0.3 0.2L7.3 393c0 0-0.1 0.1-0.1 0.2 0 0.1-0.1 0.2-0.1 0.2 0 0-0.1 0.1-0.1 0.1 0 0-0.2 0.2-0.4 0.5 -0.1 0.1-0.2 0.3-0.2 0.4 -0.1 0.1-0.3 0.5-0.5 1 -0.3 0.6-0.5 0.9-0.6 1.2 0 0.1 0 0.2-0.1 0.4 -0.1 0.1-0.1 0.3-0.1 0.4 -0.1 0.1-0.2 0.4-0.3 0.9 -0.1 0.4-0.2 0.7-0.3 0.9 0 0-0.1 0.1-0.1 0.2 0 0.1-0.1 0.2-0.1 0.4 0 0.1 0 0.2-0.1 0.4 0 0.1-0.1 0.3-0.1 0.4 0 0.1 0 0.3-0.1 0.5 0 0.2-0.1 0.4-0.1 0.5v0.2h0.6c0.2 0 0.3 0 0.4-0.1 0.1 0 0.2 0 0.3-0.1 0.2 0 0.6-0.1 1.2-0.2 0.6-0.1 0.9-0.2 1.2-0.2V401c-0.1 0-0.2 0-0.4-0.1 -0.2 0-0.3-0.1-0.4-0.1l-0.1-0.1c0.1 0 0.4 0 0.9 0 0.5 0 0.9 0 1.4 0s1 0 1.4 0c0.4 0 0.7 0 0.9 0 0.2 0 0.6 0 1.3-0.1 0.7-0.1 1.4-0.2 2.2-0.3 0.8-0.1 1.5-0.2 2.2-0.3 0.7-0.1 1.1-0.2 1.3-0.2 0.1 0 0.3 0 0.6 0s0.6-0.1 0.9-0.1c0.3 0 0.7-0.1 1-0.1 0.3 0 0.5 0 0.7 0 0.2 0 0.5 0 0.9 0 0.4 0 0.9-0.1 1.3-0.1 0.5 0 0.9-0.1 1.3-0.1 0.4 0 0.7 0 0.9 0V399v-0.1c0-0.1 0-0.4-0.1-0.9 -0.1-0.4-0.2-0.7-0.3-0.9 0-0.1 0-0.2-0.1-0.4 -0.1-0.2-0.1-0.3-0.1-0.4 0 0 0-0.2-0.1-0.4 -0.1-0.2-0.2-0.4-0.3-0.5l-0.1-0.3c-0.1-0.1-0.2-0.3-0.4-0.5 -0.1-0.2-0.2-0.4-0.2-0.5l-0.1-0.1c-0.1-0.1-0.1-0.2-0.1-0.3 -0.1-0.1-0.2-0.3-0.3-0.4 0-0.1-0.1-0.2-0.1-0.2 0-0.1-0.2-0.3-0.5-0.6 -0.3-0.3-0.5-0.5-0.7-0.7l-0.1-0.1c0 0-0.1-0.1-0.2-0.1 -0.1 0-0.2-0.1-0.3-0.2 -0.1 0-0.2-0.1-0.3-0.2 -0.1-0.1-0.2-0.2-0.4-0.4 -0.2-0.1-0.3-0.2-0.4-0.2 -0.1 0-0.3-0.1-0.5-0.2 -0.3-0.1-0.5-0.3-0.6-0.4l-0.3-0.1c-0.2-0.1-0.3-0.1-0.4-0.1 -0.1 0-0.2 0-0.3-0.1 0 0-0.1 0-0.1-0.1 -0.1 0-0.3 0-0.6-0.1 -0.3-0.1-0.5-0.1-0.6-0.1 0 0-0.1 0-0.3-0.1 -0.1 0-0.3-0.1-0.4-0.1 -0.1 0-0.4 0-0.7-0.1 -0.3 0-0.5-0.1-0.6-0.1H14.7zM28.6 402.7v-0.6l-14.9-0.6h-1.6 -1.5c-0.1 0-0.4 0-0.9 0 -0.5 0-1 0.1-1.6 0.1 -0.6 0-1.2 0.1-1.7 0.1 -0.6 0-1 0.1-1.4 0.1 -0.1 0-0.3 0-0.6 0.1s-0.5 0.1-0.6 0.1L28.6 402.7zM6.1 420.4c-0.1 0-0.1 0-0.1 0.1 0 0.1 0 0.1 0.1 0.1 0.1 0 0.1 0 0.1-0.1C6.2 420.5 6.2 420.4 6.1 420.4zM6.1 409.5v-0.6l0.1 0.1c0.1 0.1 0.2 0.5 0.3 1.2 0.1 0.6 0.2 1 0.3 1.2 0 0.1 0.1 0.4 0.2 0.6s0.2 0.5 0.2 0.6l1 2c0 0.1 0.1 0.2 0.2 0.4 0.1 0.2 0.3 0.3 0.4 0.4 0.1 0.1 0.2 0.2 0.3 0.4 0.1 0.1 0.2 0.3 0.3 0.4l0.6 0.6c0.1 0 0.2 0.1 0.4 0.2 0.2 0.1 0.3 0.2 0.4 0.3 0.1 0 0.2 0 0.4 0.1 0.2 0.1 0.3 0.2 0.4 0.3l0.3 0.1c0.2 0.1 0.3 0.1 0.4 0.1s0.1 0 0.1 0c0 0 0.1 0 0.1 0 0 0 0.1 0.1 0.1 0.1 0.1 0 0.3 0 0.6 0.1s0.5 0.1 0.6 0.1c0 0 0.1 0 0.2 0 0.1 0 0.2 0 0.3 0 0.1 0 0.3 0.1 0.4 0.1h1.9 1.8c0.1 0 0.2 0 0.4-0.1 0.1 0 0.2 0 0.3 0 0.1 0 0.2 0 0.2 0 0.1 0 0.3 0 0.6-0.1s0.5-0.1 0.6-0.1c0 0 0.1 0 0.1-0.1 0 0 0.1 0 0.1 0 0 0 0.1 0 0.1 0 0.1 0 0.2 0 0.4-0.1l0.3-0.1c0.1-0.1 0.3-0.2 0.6-0.4s0.4-0.2 0.5-0.2c0.1-0.1 0.2-0.2 0.4-0.3 0.2-0.1 0.3-0.2 0.4-0.3l1.3-1.3c0 0 0.1-0.1 0.1-0.2 0-0.1 0.1-0.2 0.3-0.4 0-0.1 0-0.2 0.1-0.3l0.1-0.1c0.1-0.1 0.2-0.3 0.4-0.6 0.1-0.3 0.3-0.5 0.4-0.7 0 0 0.1-0.2 0.2-0.4 0-0.1 0.1-0.2 0.1-0.2 0.1-0.1 0.2-0.5 0.4-1 0.1-0.6 0.3-0.9 0.4-1h0.5v0.4c0 0.1 0 0.3-0.1 0.7 -0.1 0.4-0.2 0.6-0.3 0.8 0 0.1 0 0.2-0.1 0.3 0 0.1-0.1 0.2-0.1 0.3 0 0.1-0.1 0.1-0.1 0.2 0 0.1-0.1 0.3-0.2 0.5 -0.1 0.2-0.2 0.4-0.2 0.5l-0.1 0.3c-0.1 0.1-0.2 0.2-0.3 0.4l-0.1 0.3c0 0-0.1 0.1-0.1 0.2 0 0.1-0.1 0.2-0.3 0.4 -0.1 0.1-0.2 0.2-0.4 0.4 -0.1 0.2-0.3 0.3-0.4 0.4 -0.1 0.1-0.2 0.2-0.3 0.3 -0.1 0.1-0.2 0.2-0.3 0.3 -0.1 0.1-0.2 0.2-0.4 0.3 -0.1 0.1-0.3 0.2-0.4 0.3 -0.1 0.1-0.2 0.2-0.4 0.4 -0.2 0.1-0.3 0.2-0.4 0.2 -0.1 0.1-0.4 0.2-0.7 0.4 -0.3 0.1-0.6 0.3-0.6 0.4 -0.1 0-0.3 0-0.6 0.1 -0.3 0.1-0.5 0.2-0.7 0.3 -0.1 0-0.2 0-0.3 0.1 -0.1 0-0.2 0.1-0.3 0.1 -0.1 0-0.2 0-0.4 0.1 -0.2 0-0.3 0.1-0.4 0.1 -0.1 0-0.3 0-0.8 0.1 -0.4 0-0.7 0.1-0.9 0.1h-0.1 -0.1c-0.1 0-0.4 0-0.9-0.1 -0.5 0-0.7-0.1-0.8-0.1 -0.1 0-0.3 0-0.5-0.1 -0.2 0-0.4-0.1-0.5-0.1 -0.1 0-0.2 0-0.4-0.1 -0.1 0-0.3-0.1-0.4-0.1 -0.1 0-0.3 0-0.5-0.1 -0.2-0.1-0.4-0.1-0.5-0.1 -0.1 0-0.2 0-0.3-0.1 -0.1-0.1-0.2-0.1-0.3-0.1 -0.1-0.1-0.4-0.2-0.8-0.4 -0.4-0.1-0.6-0.3-0.7-0.4 -0.1 0-0.2 0-0.3-0.1 -0.1-0.1-0.2-0.2-0.3-0.3 -0.1-0.1-0.4-0.3-0.8-0.6 -0.4-0.3-0.6-0.6-0.7-0.7 -0.1-0.1-0.2-0.2-0.3-0.3 -0.1-0.1-0.1-0.2-0.1-0.3 -0.1-0.1-0.2-0.4-0.4-0.9 -0.2-0.4-0.3-0.7-0.4-0.9 0-0.1-0.1-0.2-0.1-0.4 -0.1-0.3-0.1-0.5-0.1-0.5 0-0.1 0-0.3-0.1-0.5 -0.1-0.2-0.1-0.4-0.1-0.5 0-0.1 0-0.2-0.1-0.3 0-0.1-0.1-0.2-0.1-0.3 0-0.1 0-0.3-0.1-0.6 0-0.3-0.1-0.4-0.1-0.5V409.5zM6.2 420.7l0.1 0.1h0.1l-0.1-0.1H6.2zM6.6 420.9c-0.1 0-0.1 0-0.1 0.1 0 0.1 0 0.1 0.1 0.1 0.1 0 0.1 0 0.1-0.1C6.8 420.9 6.7 420.9 6.6 420.9zM6.8 421c-0.1 0-0.1 0-0.1 0.1 0 0.1 0 0.1 0.1 0.1 0.1 0 0.1 0 0.1-0.1C6.9 421.1 6.9 421 6.8 421zM7 421.2c0 0-0.1 0-0.1 0.1 0 0.1 0 0.1 0.1 0.1 0.1 0 0.1 0 0.1-0.1C7.2 421.2 7.1 421.2 7 421.2zM17.4 388.6c0.1-0.1 0-0.1-0.3-0.1s-0.4 0-0.3 0.1c0.1 0.1 0.2 0.1 0.3 0.1S17.3 388.7 17.4 388.6zM18.4 400.7c0.2 0 0.7 0 1.4 0 0.7 0 1.4 0.1 2.1 0.1s1.5 0.1 2.2 0.1c0.7 0 1.2 0 1.5 0h3.1v-1.6c0-0.1-0.1-0.2-0.1-0.4 0-0.1-0.1-0.2-0.1-0.3 0-0.1 0-0.2 0-0.3 0-0.1 0-0.2-0.1-0.4 0-0.1-0.1-0.3-0.1-0.4 0-0.1 0-0.3-0.1-0.6 -0.1-0.3-0.1-0.5-0.1-0.6 0 0-0.1-0.1-0.1-0.1 0 0-0.1-0.1-0.1-0.2 0-0.1 0-0.2-0.1-0.4l-0.1-0.3c0-0.2-0.2-0.6-0.4-1 -0.2-0.4-0.3-0.7-0.4-0.8 -0.1-0.1-0.2-0.3-0.4-0.6 -0.2-0.3-0.3-0.5-0.4-0.7 0-0.1-0.1-0.2-0.3-0.4 -0.2-0.2-0.3-0.3-0.4-0.4l-0.3-0.3c-0.1-0.1-0.2-0.2-0.4-0.3 -0.1-0.1-0.3-0.2-0.4-0.2 -0.1 0-0.2-0.1-0.4-0.2 -0.1-0.1-0.3-0.2-0.4-0.2 -0.1-0.1-0.3-0.2-0.7-0.4 -0.4-0.1-0.6-0.3-0.7-0.4l-0.3-0.1c-0.2-0.1-0.3-0.1-0.4-0.1 -0.1 0-0.2 0-0.3-0.1 0 0-0.1 0-0.1-0.1 -0.1 0-0.3 0-0.6-0.1 -0.3-0.1-0.5-0.1-0.6-0.1 -0.1 0-0.2 0-0.4-0.1 -0.2 0-0.3-0.1-0.4-0.1h-0.6 -0.7c0.1 0 0.2 0 0.4 0.1 0.1 0 0.3 0.1 0.4 0.1 0 0 0.1 0 0.1 0 0 0 0.1 0 0.2 0 0.1 0 0.2 0.1 0.2 0.1 0.1 0.1 0.4 0.2 0.7 0.3 0.3 0.1 0.5 0.1 0.6 0.1 0.1 0 0.4 0.1 0.8 0.4 0.5 0.2 0.8 0.4 0.9 0.5l0.1 0.1c0.1 0.1 0.2 0.1 0.2 0.1 0.1 0.1 0.3 0.2 0.4 0.3 0.1 0 0.2 0.1 0.2 0.1 0.1 0 0.3 0.2 0.6 0.6 0.3 0.3 0.6 0.6 0.6 0.6 0 0 0.1 0.1 0.1 0.2 0 0.1 0.1 0.2 0.3 0.4 0.1 0.1 0.2 0.2 0.4 0.4 0.1 0.2 0.2 0.3 0.2 0.4l0.1 0.3c0.1 0.1 0.2 0.3 0.3 0.7 0.1 0.4 0.2 0.6 0.3 0.8 0 0 0 0.1 0.1 0.1 0 0 0 0.1 0 0.1 0 0 0 0.1 0 0.1 0 0.1 0 0.3 0.1 0.5 0.1 0.2 0.1 0.4 0.1 0.5 0 0.1 0 0.3 0.1 0.4 0 0.1 0 0.2 0.1 0.2 0 0.2 0 0.4 0.1 0.5 0 0.1 0 0.3 0.1 0.4v0.7 0.6l-0.1 0.3h-0.1l-0.1-0.1h-0.1 -0.3c-0.1 0-0.4 0-0.9 0.1 -0.5 0.1-0.8 0.1-0.9 0.1 -0.1 0-0.3 0-0.5 0.1 -0.2 0-0.4 0.1-0.5 0.1 -0.2 0-0.5 0.1-0.9 0.1 -0.4 0-0.9 0.1-1.4 0.1 -0.5 0-1 0.1-1.4 0.1C18.9 400.6 18.6 400.7 18.4 400.7zM22.8 385.5c0-0.1 0-0.1-0.1-0.1 -0.1 0-0.1 0-0.1 0.1 0 0.1 0 0.1 0.1 0.1C22.7 385.7 22.8 385.6 22.8 385.5zM23.1 385.5c-0.1 0-0.1 0-0.1 0.1 0 0.1 0 0.1 0.1 0.1 0.1 0 0.1 0 0.1-0.1C23.2 385.6 23.2 385.5 23.1 385.5zM27.7 389.2c-0.1 0-0.1 0-0.1 0.1 0 0.1 0 0.1 0.1 0.1 0.1 0 0.1 0 0.1-0.1C27.9 389.2 27.8 389.2 27.7 389.2zM27.9 389.3c-0.1 0-0.1 0-0.1 0.1 0 0.1 0 0.1 0.1 0.1 0.1 0 0.1 0 0.1-0.1C28 389.4 28 389.3 27.9 389.3zM28.6 402.8c-0.1 0-0.1 0-0.1 0.1s0 0.1 0.1 0.1c0.1 0 0.1 0 0.1-0.1S28.7 402.8 28.6 402.8zM29.5 399c-0.1 0-0.1 0.1-0.1 0.2 0 0.1 0 0.2 0.1 0.2 0.1 0 0.1-0.1 0.1-0.2C29.6 399.1 29.6 399 29.5 399zM29.6 400.1v0.7l0.1 0.3 0.3 0.1V401c0-0.1 0-0.3-0.1-0.5 -0.1-0.2-0.1-0.4-0.1-0.5l-0.1-0.4V400.1zM29.8 403.1l0.3-0.1c0.1 0 0.2 0 0.3-0.1 0.1-0.1 0.1-0.2 0.1-0.3l0.1-0.3h-0.9V403.1zM39 422.5l0.1-0.3v-11.6c0-0.4-0.1-1.1-0.2-2 -0.1-0.9-0.2-1.9-0.3-3.1 -0.1-1.2-0.3-2.4-0.4-3.6 -0.1-1.3-0.3-2.5-0.4-3.6 -0.1-1.2-0.2-2.2-0.3-3.1 -0.1-0.9-0.2-1.6-0.2-2 0-0.2-0.1-0.7-0.2-1.5 -0.1-0.8-0.1-1.7-0.2-2.7 -0.1-1-0.1-1.9-0.2-2.8 0-0.9-0.1-1.6-0.1-2.1 0-0.1 0-0.3 0-0.6 0-0.3 0-0.6 0-0.9 0-0.3 0-0.7 0-1 0-0.3 0-0.5 0-0.7V380v-0.7c0-0.1 0-0.3 0.1-0.6 0-0.3 0.1-0.5 0.1-0.6l0.1 0.1 0.1 0.4c0 0.1 0 0.5 0.1 1 0.1 0.5 0.1 0.8 0.1 0.9 0 0.5 0.1 1.2 0.2 2.2 0.1 1 0.2 1.9 0.3 3 0.1 1 0.2 1.9 0.3 2.8 0.1 0.9 0.1 1.4 0.1 1.7 0 0.7 0.1 1.9 0.2 3.6 0.1 1.7 0.2 3.6 0.3 5.5 0.1 1.9 0.2 3.7 0.4 5.5 0.1 1.7 0.2 2.9 0.2 3.6l0.1 0.7 0.1-9.2c0-0.4-0.1-1.1-0.2-2.1 -0.1-1-0.2-2.1-0.3-3.2 -0.1-1.1-0.2-2.2-0.3-3.2 -0.1-1-0.1-1.7-0.2-2.1 0-0.2 0-0.6-0.1-1.1 0-0.6-0.1-1.2-0.1-1.8 0-0.7-0.1-1.3-0.1-1.9 0-0.6-0.1-1.1-0.1-1.4 0-0.1 0-0.4 0-0.7 0-0.3 0-0.6 0-1 0-0.4 0-0.7 0-1 0-0.3 0-0.5 0-0.7v-1.3 -1c0-0.1 0-0.2 0.1-0.4 0-0.1 0.1-0.3 0.1-0.4l0.1 0.3c0 0.1 0 0.2 0.1 0.3 0 0.1 0 0.2 0 0.3 0 0.1 0 0.1 0 0.2 0 0.1 0 0.3 0.1 0.5 0 0.2 0.1 0.4 0.1 0.5 0 0.3 0 0.7 0.1 1.3 0.1 0.6 0.1 0.9 0.1 1 0 0.4 0.1 1 0.2 2s0.1 1.9 0.2 3c0.1 1 0.1 2 0.2 3 0.1 0.9 0.1 1.6 0.2 1.9l0.4-14.5 0.3-0.9v1.3l0.1-2.5h1.3l0.1 0.1c0 0 0 0.1 0.1 0.2 0 0.1 0 0.2 0 0.2 0 0 0 0.1 0 0.1 0 0.1 0 0.2 0.1 0.4 0 0.2 0.1 0.3 0.1 0.4 0 0.1 0 0.3 0.1 0.6 0 0.3 0.1 0.4 0.1 0.5 0 0.2 0 0.5 0 0.8 0 0.4 0.1 0.7 0.1 1.2 0 0.4 0.1 0.8 0.1 1.1 0 0.3 0 0.5 0 0.6 0 0.2 0 0.7 0 1.3 0 0.6 0.1 1.2 0.1 1.9 0 0.7 0.1 1.3 0.1 1.9 0 0.6 0 1 0 1.3l0.1 0.1c0-0.2 0-0.5 0.1-0.9 0-0.4 0.1-0.9 0.1-1.4 0-0.5 0.1-1 0.1-1.4 0-0.4 0.1-0.7 0.1-0.9 0-0.1 0-0.5 0.1-1.1 0.1-0.6 0.1-1 0.1-1.3 0-0.1 0-0.3 0.1-0.5 0-0.2 0.1-0.4 0.1-0.5 0-0.2 0-0.3 0.1-0.4 0-0.1 0-0.2 0.1-0.3l0.1-0.3 0.1 0.4v1.2 1.7c0 0.2 0 0.6 0 1.2 0 0.5 0 1.1-0.1 1.7 0 0.6 0 1.2-0.1 1.7 0 0.5 0 0.9 0 1 0 0.4-0.1 1.1-0.2 2.1 -0.1 1-0.2 2-0.3 3.1 -0.1 1.1-0.2 2.1-0.3 3.1 -0.1 1-0.1 1.7-0.2 2.1v1.4 1.6c0 0.1 0 0.4 0.1 0.8 0 0.4 0.1 0.7 0.1 0.8 0-0.7 0.1-1.9 0.3-3.6 0.1-1.7 0.2-3.6 0.4-5.5 0.1-2 0.2-3.8 0.4-5.5 0.1-1.7 0.2-2.9 0.3-3.6 0 0 0-0.3 0-0.6 0-0.4 0.1-0.8 0.1-1.2 0-0.5 0.1-0.9 0.1-1.4 0-0.5 0.1-0.8 0.1-1 0-0.1 0-0.3 0.1-0.6 0-0.3 0.1-0.5 0.1-0.6 0-0.1 0-0.2 0.1-0.4 0-0.2 0.1-0.3 0.1-0.4 0-0.1 0-0.3 0.1-0.4 0-0.1 0-0.2 0.1-0.2h0.3c0 0.2 0 0.6 0 1.1 0 0.5 0 1 0 1.5 0 0.6 0 1.1 0 1.6 0 0.5 0 0.9 0 1 0 0.3 0 0.9-0.1 1.7s-0.1 1.6-0.2 2.5c-0.1 0.9-0.1 1.7-0.2 2.5 0 0.8-0.1 1.4-0.1 1.7 -0.1 0.6-0.2 1.6-0.4 3.2 -0.1 1.5-0.3 3.2-0.5 4.9 -0.2 1.7-0.3 3.4-0.5 4.9 -0.2 1.5-0.3 2.6-0.3 3.2 0 0.2 0 0.5 0 1 0 0.5 0 0.9 0 1.5 0 0.5 0 1 0 1.5 0 0.5 0 0.8 0 0.9 0 0.2 0 0.7-0.1 1.3 0 0.6-0.1 1.1-0.1 1.3 0 0.1 0 0.3 0 0.6 0 0.3-0.1 0.6-0.1 1s-0.1 0.7-0.1 1c0 0.3 0 0.5 0 0.7 0 0.1 0 0.3 0 0.5 0 0.3-0.1 0.5-0.1 0.8s-0.1 0.6-0.1 0.9c0 0.3 0 0.5 0 0.5v0.4 0.4c0 0.1 0 0.4 0.1 0.9 0.1 0.5 0.1 0.8 0.1 0.9v0.1l-0.7 0.7c0 0.1 0 0.2-0.1 0.3 -0.1 0.1-0.1 0.2-0.1 0.3h-1.3l-0.6-0.6c-0.1-0.1-0.2-0.2-0.4-0.4 -0.1-0.2-0.3-0.3-0.4-0.4L39 422.5z"/></a></svg>