<svg xmlns="http://www.w3.org/2000/svg" viewBox="0 0 100 100" version="1.1"><text transform="matrix(1 0 0 1 7.1079 13.5215)" opacity="0">x</text><defs><radialGradient cx="50%" cy="0%" fx="50%" fy="0%" r="100%" id="radialGradient-1"><stop stop-color="#C96DD8" offset="0%"/><stop stop-color="#3023AE" offset="100%"/></radialGradient><radialGradient cx="50%" cy="0%" fx="50%" fy="0%" r="100%" id="radialGradient-2"><stop stop-color="#5CEDD1" offset="0%"/><stop stop-color="#15B2DC" offset="100%"/></radialGradient><radialGradient cx="50%" cy="0%" fx="50%" fy="0%" r="100%" id="radialGradient-3"><stop stop-color="#B4EC51" offset="0%"/><stop stop-color="#49A025" offset="100%"/></radialGradient><radialGradient cx="50%" cy="0%" fx="50%" fy="0%" r="100%" id="radialGradient-4"><stop stop-color="#FBDA61" offset="0%"/><stop stop-color="#F76B1C" offset="100%"/></radialGradient></defs><g id="Page-1" stroke="none" stroke-width="1" fill="none" fill-rule="evenodd"><g id="Artboard-1"><path d="M77.5 100C89.9264069 100 100 89.9264069 100 77.5 100 65.0735931 89.9264069 55 77.5 55 65.0735931 55 55 65.0735931 55 77.5 55 89.9264069 65.0735931 100 77.5 100Z" id="violet" fill="url(#radialGradient-1)"/><path d="M22.5 100C34.9264069 100 45 89.9264069 45 77.5 45 65.0735931 34.9264069 55 22.5 55 10.0735931 55 0 65.0735931 0 77.5 0 89.9264069 10.0735931 100 22.5 100Z" id="blue" fill="url(#radialGradient-2)"/><path d="M77.5 45C89.9264069 45 100 34.9264069 100 22.5 100 10.0735931 89.9264069 0 77.5 0 65.0735931 0 55 10.0735931 55 22.5 55 34.9264069 65.0735931 45 77.5 45Z" id="green" fill="url(#radialGradient-3)"/><circle id="orange" fill="url(#radialGradient-4)" cx="22.5" cy="22.5" r="22.5"/></g></g></svg>