<svg xmlns="http://www.w3.org/2000/svg" xmlns:xlink="http://www.w3.org/1999/xlink" version="1.2" baseProfile="tiny" x="0" y="0" viewBox="0 0 233.6 100" xml:space="preserve"><text transform="matrix(1 0 0 1 7.1079 13.5215)" opacity="0">x</text><a xlink:href="http://www.dafont.com/sinner.font" xlink:show="new"><path fill="#FFFFFF" d="M132.8 27.1H115V23h13.7v-2.7H115v-11h17.9v4.2h-13.7v2.7h13.7V27.1zM134.7 27.1v-4.2h6.9v-9.5h-6.9V9.2h17.9v4.2h-6.8v9.5h6.8v4.2H134.7zM154.4 9.2h4.2v1.2l9.5 9.5V9.2h4.2v17.9h-4.2v-1.3l-9.5-9.5v10.8h-4.2V9.2zM174.1 9.2h4.2v1.2l9.5 9.5V9.2h4.2v17.9h-4.2v-1.3l-9.5-9.5v10.8h-4.2V9.2zM193.8 27.1V9.2h17.9v4.2H198v2.7h13.7v4.2H198v2.7h13.7v4.2H193.8zM213.5 9.2h17.9v11h-4.3l5.5 5.6 -2.9 2.9 -8.5-8.5h-3.4v6.9h-4.2V9.2zM217.7 13.4v2.7h9.5v-2.7H217.7z"/></a><a xlink:href="https://www.myfonts.com/fonts/decade-typefoundry/american-brewery/" xlink:show="new"><path fill="#FFFFFF" d="M15.9 49.6h-4.2c-0.8-1.8-1.4-3.1-2-4.5C9 45.7 8 46.4 7.3 47c-0.4-0.6-1.1-1.1-1.9-1.5l-1 2.7 0.7 1.3H0.6l1.2-1.3L3.1 45C2 44.9 0.9 45.1 0 45.7c1-1.6 2.4-2.3 3.8-2.6L6 37.4l-0.4-0.8h5.5l-0.9 1.4 4.3 9.9L15.9 49.6zM9.3 44.2c-0.5-1.3-1.1-2.6-1.8-4.3l-1.3 3.4c1 0.3 1.9 0.7 2.5 1.3L9.3 44.2zM24.9 47.6l-5.1-6.9v7.1l0.9 1.7h-4.4l0.9-1.7v-9.9l-1-1.4h5.2l4.3 5.8 4.4-5.8h4l-0.7 0.8v10.4l0.9 1.7h-5.3l0.9-1.7v-7.1L24.9 47.6zM49.6 41.4c-2-2.6-6-2.7-8-1.3 -1.2 0.9-1.7 2-1.7 3.2 1.2-0.9 2.7-2 3.3-2.5 1.1 1.8 4.6 2.8 7 1.4 -2.4 3.6-6.5 2.6-8.5 0.9l-1.5 1.2c0.3 0.7 0.8 1.3 1.4 1.8 1.9 1.4 6 1.3 8-1.3v2.9c-2.8 2.2-7.6 2.5-10.7 0.6 -3.3-2.1-3.6-6.4-1.1-9.2 2.3-2.6 6.6-3.2 9.9-1.5l1.8-1.3V41.4zM52.1 36.6c2 0 4.4 0 6.4 0 6.9-0.2 8.2 6 3.5 8.1l4.6 4.9h-5.8l0.5-1.7 -2.4-2.6c-0.8 0-1.9 0-2.5 0v2.5l0.9 1.7h-5.3l0.9-1.7v-9.5L52.1 36.6zM56.4 43.2h2.1c4.1 0 3.9-4.5 0-4.5h-2.1V43.2zM67.8 38.3l-0.9-1.7h5.3l-0.9 1.7v9.5l0.9 1.7h-5.3l0.9-1.7V38.3zM87.3 41.4c-2-2.6-6-2.7-8-1.3 -2.2 1.6-2.2 4.3 0 6 1.9 1.4 6 1.3 8-1.3v2.9c-2.8 2.2-7.6 2.5-10.7 0.6 -3.3-2.1-3.6-6.4-1.1-9.2 2.3-2.6 6.6-3.2 9.9-1.5l1.8-1.3V41.4zM103.7 49.6h-4.2L98 46c-1.3 0.4-2.1 1.4-2.6 2.6 -0.5-1.1-1.2-2-2.3-2.5l-0.8 2.2 0.7 1.3h-4.4l1.2-1.3 4.2-10.9 -0.4-0.8h5.4l-0.9 1.4 4.3 9.9L103.7 49.6zM97.1 44.1l-1.8-4.2 -1.6 4.3c0.6 0.3 1.1 0.6 1.6 1C95.9 44.7 96.5 44.4 97.1 44.1zM107.8 41.9v6l0.9 1.7h-4.4l0.9-1.7v-9.6l-1.2-1.7h4.1l6.2 8.4v-6.7l-0.9-1.7h4.4l-0.9 1.7v10.3l0.6 1h-4L107.8 41.9zM133.2 49.6h-7.6l0.9-1.7v-9.5l-0.9-1.7h7.1c4.2-0.1 5.7 3.1 3.6 5C140.6 43.2 140.3 49.7 133.2 49.6zM130 41.2h2.8c2.2 0 2.1-2.5 0-2.5H130V41.2zM133.2 47.5c3.6 0 3.8-4.2 0-4.2H130v4.2H133.2zM140.4 36.6c2 0 4.4 0 6.4 0 6.9-0.2 8.2 6 3.5 8.1l4.6 4.9h-5.8l0.5-1.7 -2.4-2.6c-0.8 0-1.9 0-2.5 0v2.5l0.9 1.7h-5.3l0.9-1.7v-9.5L140.4 36.6zM144.8 43.2h2.1c4.1 0 3.9-4.5 0-4.5h-2.1V43.2zM168.2 41.4c-2-2.6-6-2.7-8-1.3 -1.2 0.9-1.7 2-1.7 3.2 1.2-0.9 2.7-2 3.3-2.5 1.1 1.8 4.6 2.8 7 1.4 -2.4 3.6-6.5 2.6-8.5 0.9l-1.5 1.2c0.3 0.7 0.8 1.3 1.4 1.8 1.9 1.4 6 1.3 8-1.3v2.9c-2.8 2.2-7.6 2.5-10.7 0.6 -3.3-2.1-3.6-6.4-1.1-9.2 2.3-2.6 6.6-3.2 9.9-1.5l1.8-1.3V41.4zM171 38.3l-1.4-1.7h5.7l-0.9 1.5 2.8 7.9 2.1-6.8 -1.3-2.6h5.3l-1 1.9 2.6 7.4 2.5-8.1 -0.7-1.3h4.4l-1.2 1.3c-1.2 3.5-2.2 6.9-3.4 10.4l0.9 1.4h-6.2l0.9-1.4 -1.8-5c-0.5 1.7-1 3.3-1.6 5l0.9 1.4h-6.2l0.9-1.4L171 38.3zM204.1 41.4c-2-2.6-6-2.7-8-1.3 -1.2 0.9-1.7 2-1.7 3.2 1.2-0.9 2.7-2 3.3-2.5 1.1 1.8 4.6 2.8 7 1.4 -2.4 3.6-6.5 2.6-8.5 0.9l-1.5 1.2c0.3 0.7 0.8 1.3 1.4 1.8 1.9 1.4 6 1.3 8-1.3v2.9c-2.8 2.2-7.6 2.5-10.7 0.6 -3.3-2.1-3.6-6.4-1.1-9.2 2.3-2.6 6.6-3.2 9.9-1.5l1.8-1.3V41.4zM206.7 36.6c2 0 4.4 0 6.4 0 6.9-0.2 8.2 6 3.5 8.1l4.6 4.9h-5.8l0.5-1.7 -2.4-2.6c-0.8 0-1.9 0-2.5 0v2.5l0.9 1.7h-5.3l0.9-1.7v-9.5L206.7 36.6zM211 43.2h2.1c4.1 0 3.9-4.5 0-4.5H211V43.2zM228.6 47.8l0.9 1.7h-5.3l0.9-1.7v-5l-5.1-6.3h5.9l-0.8 1.7 2 2.6 2.2-2.5 -0.8-1.8h5l-5 6.3V47.8z"/></a><a xlink:href="http://www.huertatipografica.com/fonts/alegreya-ht-pro" xlink:show="new"><path fill="#FFFFFF" d="M141.4 67.2c0.1 0.2 0.1 0.3 0.2 0.5 0.1 0.1 0.2 0.2 0.3 0.3 0.1 0.1 0.2 0.1 0.4 0.2 0.1 0 0.3 0.1 0.5 0.1l0 0.1 -0.1 0.6c-0.2 0-0.4 0-0.6 0 -0.2 0-0.3 0-0.5 0s-0.3 0-0.4 0c-0.3 0-0.5 0-0.8 0 -0.3 0-0.5 0-0.7 0.1 -0.2 0-0.5 0.1-0.7 0.1l0-0.1 0.1-0.6c0.5 0 0.8-0.1 1-0.2 0.2-0.1 0.3-0.2 0.3-0.4 0-0.2 0-0.4-0.1-0.7l-0.5-1.6c-0.1 0-0.2 0-0.3 0 -0.1 0-0.3 0-0.4 0s-0.3 0-0.4 0 -0.3 0-0.4 0c-0.3 0-0.6 0-0.9 0s-0.5 0.1-0.7 0.1l-0.5 1.5c-0.1 0.3-0.1 0.4-0.1 0.6 0 0.2 0.1 0.4 0.2 0.5 0.1 0.1 0.4 0.1 0.7 0.1h0.8l0 0.1 -0.1 0.6c-0.2 0-0.4 0-0.6 0 -0.2 0-0.4 0-0.6 0 -0.2 0-0.5 0-0.7 0 -0.2 0-0.4 0-0.5 0 -0.2 0-0.4 0-0.5 0 -0.2 0-0.4 0-0.5 0l0.1-0.7c0.3 0 0.5-0.1 0.6-0.3 0.2-0.2 0.3-0.4 0.5-0.8l2.8-7.3 0.9-0.2h0.1c0.2 0.9 0.5 1.8 0.7 2.6 0.1 0.4 0.2 0.8 0.3 1.2 0.1 0.4 0.3 0.8 0.4 1.3 0.1 0.4 0.3 0.9 0.4 1.3C141.2 66.4 141.3 66.8 141.4 67.2zM137 64.9h1.3c0.2 0 0.4 0 0.7 0 0.3 0 0.5 0 0.6-0.1l-1.1-3.8h-0.1L137 64.9zM143.1 68.4c0.2-0.1 0.4-0.1 0.5-0.2 0.1-0.1 0.2-0.2 0.2-0.3 0-0.1 0.1-0.3 0.1-0.4 0-0.2 0-0.4 0-0.6v-7c0-0.5-0.2-0.8-0.5-0.8 -0.1 0-0.1 0-0.2 0 0 0-0.1 0-0.1 0 0 0 0-0.1 0-0.1s0-0.1 0-0.1l0-0.3c0.2 0 0.5-0.1 0.8-0.1 0.3 0 0.5-0.1 0.7-0.1 0.2 0 0.5-0.1 0.7-0.2l0.1 0.2c0 0.1-0.1 0.2-0.1 0.5 0 0.3-0.1 0.6-0.1 1.1 0 0.4-0.1 0.9-0.1 1.5 0 0.6 0 1.2-0.1 1.8 0 0.7 0 1.3 0 2 0 0.7 0 1.4 0 2.1 0 0.3 0 0.5 0.1 0.6 0.1 0.1 0.2 0.2 0.4 0.2 0 0 0.1 0 0.2 0 0.1 0 0.1 0 0.2 0 0.1 0 0.1 0 0.2 0l0 0.1 -0.1 0.6c-0.1 0-0.3 0-0.4 0 -0.1 0-0.3 0-0.4 0 -0.1 0-0.3 0-0.4 0 -0.2 0-0.3 0-0.5 0 -0.2 0-0.3 0-0.5 0.1 -0.2 0-0.3 0.1-0.5 0.1L143.1 68.4zM147.7 65.1v0.2c0 0.4 0.1 0.8 0.2 1.1 0.1 0.3 0.2 0.6 0.4 0.8 0.2 0.2 0.4 0.4 0.7 0.5s0.6 0.2 0.9 0.2c0.2 0 0.4 0 0.7-0.1 0.2 0 0.4-0.1 0.6-0.2 0.2-0.1 0.4-0.1 0.5-0.2l0.1 0 0.2 0.4c-0.3 0.2-0.5 0.3-0.8 0.5 -0.2 0.1-0.5 0.2-0.7 0.3 -0.3 0.1-0.5 0.2-0.7 0.2 -0.4 0-0.9-0.1-1.2-0.2 -0.4-0.2-0.7-0.4-1-0.6 -0.3-0.3-0.5-0.6-0.6-1 -0.1-0.4-0.2-0.8-0.2-1.3 0-0.5 0.1-1 0.3-1.4 0.2-0.4 0.4-0.8 0.7-1.2 0.3-0.3 0.6-0.6 1-0.8 0.4-0.2 0.8-0.3 1.2-0.3 1.4 0 2.1 0.7 2.1 2.1 0 0.2 0 0.3 0 0.4 0 0.1 0 0.2-0.1 0.3l-0.2 0.2H147.7zM150.4 64.4c0.1 0 0.2-0.1 0.3-0.1 0 0 0.1-0.1 0.1-0.3 0-0.4-0.1-0.7-0.3-0.9 -0.2-0.2-0.5-0.3-0.9-0.3 -0.4 0-0.8 0.2-1.2 0.5 -0.3 0.3-0.5 0.7-0.6 1.2L150.4 64.4zM155.9 66.9c-0.1 0-0.3 0-0.4 0s-0.3 0-0.4-0.1c-0.4 0.2-0.6 0.4-0.6 0.6 0 0.2 0.1 0.4 0.4 0.5 0.3 0.1 0.7 0.2 1.3 0.2 1.1 0.1 1.9 0.2 2.4 0.4 0.5 0.2 0.7 0.6 0.7 1.1 0 0.3-0.1 0.7-0.3 1 -0.2 0.3-0.5 0.6-0.8 0.8 -0.3 0.2-0.7 0.4-1.1 0.6 -0.4 0.1-0.9 0.2-1.3 0.2 -0.7 0-1.2-0.2-1.6-0.5 -0.4-0.3-0.6-0.8-0.6-1.4 0.1-0.2 0.3-0.3 0.4-0.5 0.2-0.1 0.3-0.3 0.5-0.4 0.2-0.1 0.3-0.3 0.5-0.4V69c-0.2 0-0.4-0.1-0.6-0.2 -0.2-0.1-0.4-0.2-0.5-0.3 -0.1-0.1-0.2-0.3-0.3-0.4 -0.1-0.2-0.1-0.3-0.1-0.5 0.1-0.1 0.2-0.2 0.4-0.3 0.1-0.1 0.3-0.2 0.4-0.3 0.1-0.1 0.3-0.2 0.4-0.3v-0.1c-0.3-0.2-0.6-0.4-0.8-0.8 -0.2-0.3-0.3-0.7-0.3-1.1 0-0.3 0.1-0.7 0.2-1 0.1-0.3 0.3-0.6 0.6-0.8 0.2-0.2 0.5-0.4 0.9-0.6 0.3-0.1 0.7-0.2 1-0.2 0.3 0 0.5 0 0.8 0.1 0.2 0.1 0.4 0.1 0.6 0.1 0.2 0 0.4-0.1 0.6-0.1 0.2 0 0.4-0.1 0.6-0.1 0.2-0.1 0.5-0.1 0.7-0.2l0 0.1 -0.2 0.8c-0.1 0-0.3 0-0.4 0 -0.1 0-0.2 0-0.4 0.1 -0.1 0-0.3 0-0.5 0l-0.1 0.1c0.4 0.4 0.6 0.9 0.6 1.4 0 0.4-0.1 0.7-0.2 1 -0.1 0.3-0.3 0.6-0.6 0.8 -0.3 0.2-0.6 0.4-0.9 0.5C156.6 66.9 156.3 66.9 155.9 66.9zM156.2 66.3c0.4 0 0.8-0.1 1-0.4 0.3-0.3 0.4-0.7 0.4-1.1 0-0.6-0.2-1-0.5-1.3 -0.3-0.3-0.7-0.5-1.2-0.5 -0.4 0-0.8 0.1-1 0.4 -0.3 0.3-0.4 0.7-0.4 1.2 0 0.6 0.2 1 0.5 1.3C155.3 66.1 155.7 66.3 156.2 66.3zM156.2 71.6c0.3 0 0.5 0 0.8-0.1 0.3-0.1 0.5-0.2 0.7-0.3 0.2-0.1 0.4-0.3 0.5-0.5 0.1-0.2 0.2-0.3 0.2-0.5 0-0.1 0-0.3-0.1-0.4 -0.1-0.1-0.2-0.2-0.4-0.3 -0.2-0.1-0.5-0.2-0.9-0.2 -0.4-0.1-0.8-0.1-1.4-0.2 -0.2 0.1-0.3 0.3-0.4 0.4 -0.1 0.1-0.2 0.3-0.3 0.4 -0.1 0.2-0.1 0.3-0.1 0.5 0 0.4 0.1 0.7 0.4 0.9C155.3 71.5 155.7 71.6 156.2 71.6zM161.2 68c0.1-0.2 0.1-0.5 0.1-0.9v-3.2c0-0.3 0-0.5-0.1-0.7 -0.1-0.1-0.2-0.2-0.4-0.2 -0.1 0-0.1 0-0.2 0 0 0-0.1 0-0.1 0l-0.1-0.1 0-0.4c0.2 0 0.4-0.1 0.7-0.1 0.2 0 0.4-0.1 0.6-0.1 0.2 0 0.4-0.1 0.6-0.2l0.1 0.1c0 0.2-0.1 0.3-0.1 0.5 0 0.1 0 0.3-0.1 0.5 0 0.2 0 0.3 0 0.5l0.1 0c0.1-0.2 0.3-0.4 0.5-0.6 0.2-0.2 0.4-0.3 0.5-0.5 0.2-0.1 0.4-0.2 0.5-0.3 0.2-0.1 0.3-0.1 0.5-0.1 0.1 0 0.2 0 0.3 0 0 0 0.1 0 0.1 0l0 0.1 -0.1 0.7c0 0.2-0.1 0.4-0.1 0.7 0 0.2 0 0.5-0.1 0.7l-0.6 0c0-0.4 0-0.7-0.1-0.8 -0.1-0.1-0.2-0.2-0.3-0.2 -0.2 0-0.4 0.1-0.7 0.3 -0.2 0.2-0.5 0.4-0.7 0.7 0 0.5 0 0.9-0.1 1.3 0 0.2 0 0.3 0 0.5 0 0.2 0 0.3 0 0.5 0 0.1 0 0.3 0 0.4s0 0.2 0 0.2c0 0.3 0 0.5 0.1 0.7s0.3 0.2 0.6 0.2c0 0 0.1 0 0.2 0 0.1 0 0.1 0 0.2 0 0.1 0 0.2 0 0.2 0l0 0.1 -0.1 0.6c-0.2 0-0.3 0-0.5 0 -0.2 0-0.3 0-0.5 0s-0.3 0-0.5 0c-0.2 0-0.4 0-0.6 0 -0.2 0-0.3 0-0.5 0 -0.2 0-0.3 0-0.4 0l0.1-0.6C160.9 68.3 161.1 68.2 161.2 68zM166.9 65.1v0.2c0 0.4 0.1 0.8 0.2 1.1 0.1 0.3 0.2 0.6 0.4 0.8 0.2 0.2 0.4 0.4 0.7 0.5s0.6 0.2 0.9 0.2c0.2 0 0.4 0 0.7-0.1 0.2 0 0.4-0.1 0.6-0.2 0.2-0.1 0.4-0.1 0.5-0.2l0.1 0L171 68c-0.3 0.2-0.5 0.3-0.8 0.5 -0.2 0.1-0.5 0.2-0.7 0.3 -0.3 0.1-0.5 0.2-0.7 0.2 -0.4 0-0.9-0.1-1.2-0.2 -0.4-0.2-0.7-0.4-1-0.6 -0.3-0.3-0.5-0.6-0.6-1 -0.1-0.4-0.2-0.8-0.2-1.3 0-0.5 0.1-1 0.3-1.4 0.2-0.4 0.4-0.8 0.7-1.2 0.3-0.3 0.6-0.6 1-0.8 0.4-0.2 0.8-0.3 1.2-0.3 1.4 0 2.1 0.7 2.1 2.1 0 0.2 0 0.3 0 0.4s0 0.2-0.1 0.3l-0.2 0.2H166.9zM169.6 64.4c0.1 0 0.2-0.1 0.3-0.1 0 0 0.1-0.1 0.1-0.3 0-0.4-0.1-0.7-0.3-0.9 -0.2-0.2-0.5-0.3-0.9-0.3 -0.4 0-0.8 0.2-1.2 0.5 -0.3 0.3-0.5 0.7-0.6 1.2L169.6 64.4zM175 67.5c0.2-0.4 0.3-0.8 0.5-1.3 0.2-0.5 0.4-0.9 0.5-1.3 0.2-0.4 0.3-0.8 0.4-1.1 0.1-0.3 0.2-0.5 0.2-0.6 0-0.2-0.2-0.4-0.5-0.4h-0.7l0-0.1 0.1-0.5c0.1 0 0.3 0 0.5 0 0.1 0 0.3 0 0.5 0 0.2 0 0.3 0 0.5 0h0.8c0.1 0 0.3 0 0.4 0l-0.1 0.5c-0.2 0-0.4 0.1-0.5 0.2 -0.1 0.1-0.2 0.3-0.3 0.6l-1.9 4.4c-0.4 0.9-0.7 1.6-1 2.1 -0.3 0.5-0.5 1-0.7 1.3 -0.2 0.3-0.5 0.5-0.7 0.7 -0.2 0.1-0.5 0.2-0.8 0.2 0 0-0.1 0-0.2-0.1 -0.1-0.1-0.1-0.1-0.2-0.2s-0.1-0.2-0.2-0.3c-0.1-0.1-0.1-0.2-0.1-0.2l0.1-0.1c0.6 0 1.1-0.2 1.6-0.7 0.5-0.4 0.9-1.1 1.2-1.9 -0.1-0.4-0.3-0.8-0.4-1.2 -0.2-0.5-0.3-0.9-0.5-1.4 -0.2-0.5-0.3-1-0.5-1.4 -0.2-0.5-0.3-0.9-0.5-1.2 -0.1-0.2-0.2-0.4-0.4-0.5 -0.1-0.1-0.3-0.2-0.6-0.2l0-0.1 0.1-0.5c0.2 0 0.3 0 0.5 0h0.7c0.2 0 0.4 0 0.6 0 0.2 0 0.4 0 0.6 0 0.2 0 0.4 0 0.5-0.1l0 0.1 -0.1 0.4c-0.3 0-0.6 0.1-0.7 0.1 -0.1 0-0.2 0.1-0.2 0.3 0 0.1 0 0.2 0.1 0.3 0 0.2 0.1 0.3 0.1 0.6 0.1 0.2 0.1 0.5 0.2 0.7 0.1 0.3 0.2 0.5 0.2 0.8C174.5 66.1 174.7 66.8 175 67.5L175 67.5zM182.2 64.6c0-0.5-0.1-0.9-0.3-1.1 -0.2-0.3-0.5-0.4-0.9-0.4 -0.2 0-0.5 0-0.7 0.1 -0.2 0.1-0.4 0.2-0.5 0.2 -0.2 0.1-0.4 0.2-0.5 0.4l-0.1 0 -0.2-0.6c0.3-0.2 0.6-0.3 0.9-0.5 0.2-0.1 0.5-0.2 0.8-0.3 0.3-0.1 0.5-0.2 0.6-0.2 0.6 0 1.1 0.2 1.5 0.5 0.3 0.3 0.5 0.8 0.5 1.4 0 0.1 0 0.3 0 0.6 0 0.3-0.1 0.6-0.1 0.9 0 0.3-0.1 0.7-0.1 1 0 0.3 0 0.6 0 0.8 0 0.4 0.2 0.7 0.6 0.7 0.1 0 0.2 0 0.3-0.1 0.1 0 0.2-0.1 0.3-0.1 0.1 0 0.2-0.1 0.3-0.2l0.2 0.2c-0.1 0.2-0.2 0.3-0.4 0.5 -0.1 0.1-0.2 0.3-0.4 0.4 -0.1 0.1-0.3 0.2-0.5 0.3 -0.8 0-1.2-0.4-1.3-1.2l-0.1 0c-0.3 0.3-0.7 0.6-0.9 0.8 -0.3 0.2-0.5 0.3-0.6 0.3 -0.3 0-0.5 0-0.7-0.1 -0.2-0.1-0.4-0.2-0.6-0.4 -0.2-0.2-0.3-0.3-0.4-0.6 -0.1-0.2-0.1-0.5-0.1-0.7 0-0.3 0.1-0.5 0.2-0.7 0.1-0.2 0.3-0.3 0.6-0.4l2.7-0.7L182.2 64.6zM182.2 65.8l-1.9 0.6c-0.3 0.1-0.4 0.3-0.4 0.6 0 0.3 0.1 0.5 0.3 0.7 0.2 0.2 0.4 0.3 0.7 0.3 0.2 0 0.4-0.1 0.6-0.2 0.2-0.1 0.5-0.3 0.7-0.5L182.2 65.8zM190.8 64.9l0 2.1c0 0.3 0 0.5 0 0.6 0 0.2 0.1 0.3 0.1 0.4 0.1 0.1 0.2 0.1 0.3 0.2 0.1 0 0.3 0 0.6 0l0 0.1 -0.1 0.6c-0.2 0-0.4 0-0.5 0 -0.1 0-0.3 0-0.5 0 -0.2 0-0.4 0-0.5 0 -0.2 0-0.4 0-0.6 0 -0.2 0-0.4 0-0.5 0 -0.2 0-0.4 0-0.6 0l0.1-0.6c0.2 0 0.4-0.1 0.5-0.1s0.3-0.1 0.3-0.2c0.1-0.1 0.1-0.2 0.2-0.3 0-0.1 0-0.3 0-0.5l0-6c0-0.3 0-0.5-0.1-0.6 -0.1-0.1-0.2-0.2-0.4-0.2 0 0-0.1 0-0.2 0 -0.1 0-0.1 0-0.2 0 -0.1 0-0.1 0-0.2 0l0-0.1 0.1-0.6c0.2 0 0.4 0 0.6 0 0.2 0 0.3 0 0.5 0s0.3 0 0.5 0c0.1 0 0.3 0 0.5 0 0.2 0 0.4 0 0.6 0 0.2 0 0.5 0 0.7 0 0.9 0 1.6 0.2 2.1 0.6 0.5 0.4 0.8 1 0.8 1.7 0 0.6-0.2 1.1-0.6 1.6 -0.4 0.5-0.9 0.9-1.6 1.2l1.6 2.5c0.1 0.2 0.3 0.4 0.4 0.6s0.3 0.3 0.4 0.4c0.1 0.1 0.3 0.2 0.4 0.2s0.3 0.1 0.5 0.1l0.1 0.1 -0.1 0.5 -1.2 0.2c-0.2 0-0.5-0.1-0.8-0.4s-0.5-0.6-0.8-1l-1.5-2.8H190.8zM192.3 64.2c0.3-0.1 0.5-0.2 0.8-0.4 0.2-0.2 0.4-0.4 0.5-0.6 0.2-0.3 0.2-0.6 0.2-1 0-1.3-0.9-1.9-2.6-1.9 -0.1 0-0.2 0-0.2 0.1s0 0.1-0.1 0.3c0 0.4 0 0.7-0.1 1.1 0 0.3 0 0.6 0 0.9 0 0.3 0 0.6 0 0.8 0 0.3 0 0.5 0 0.8L192.3 64.2zM198.1 65.1v0.2c0 0.4 0.1 0.8 0.2 1.1 0.1 0.3 0.2 0.6 0.4 0.8 0.2 0.2 0.4 0.4 0.7 0.5s0.6 0.2 0.9 0.2c0.2 0 0.4 0 0.7-0.1 0.2 0 0.4-0.1 0.6-0.2 0.2-0.1 0.4-0.1 0.5-0.2l0.1 0 0.2 0.4c-0.3 0.2-0.5 0.3-0.8 0.5 -0.2 0.1-0.5 0.2-0.7 0.3 -0.3 0.1-0.5 0.2-0.7 0.2 -0.4 0-0.9-0.1-1.2-0.2 -0.4-0.2-0.7-0.4-1-0.6 -0.3-0.3-0.5-0.6-0.6-1 -0.1-0.4-0.2-0.8-0.2-1.3 0-0.5 0.1-1 0.3-1.4 0.2-0.4 0.4-0.8 0.7-1.2 0.3-0.3 0.6-0.6 1-0.8 0.4-0.2 0.8-0.3 1.2-0.3 1.4 0 2.1 0.7 2.1 2.1 0 0.2 0 0.3 0 0.4s0 0.2-0.1 0.3l-0.2 0.2H198.1zM200.7 64.4c0.1 0 0.2-0.1 0.3-0.1 0 0 0.1-0.1 0.1-0.3 0-0.4-0.1-0.7-0.3-0.9 -0.2-0.2-0.5-0.3-0.9-0.3 -0.4 0-0.8 0.2-1.2 0.5 -0.3 0.3-0.5 0.7-0.6 1.2L200.7 64.4zM206.2 66.9c-0.1 0-0.3 0-0.4 0 -0.1 0-0.3 0-0.4-0.1 -0.4 0.2-0.6 0.4-0.6 0.6 0 0.2 0.1 0.4 0.4 0.5 0.3 0.1 0.7 0.2 1.3 0.2 1.1 0.1 1.9 0.2 2.4 0.4 0.5 0.2 0.7 0.6 0.7 1.1 0 0.3-0.1 0.7-0.3 1 -0.2 0.3-0.5 0.6-0.8 0.8 -0.3 0.2-0.7 0.4-1.1 0.6 -0.4 0.1-0.9 0.2-1.3 0.2 -0.7 0-1.2-0.2-1.6-0.5 -0.4-0.3-0.6-0.8-0.6-1.4 0.1-0.2 0.3-0.3 0.4-0.5 0.2-0.1 0.3-0.3 0.5-0.4 0.2-0.1 0.3-0.3 0.5-0.4V69c-0.2 0-0.4-0.1-0.6-0.2 -0.2-0.1-0.4-0.2-0.5-0.3 -0.1-0.1-0.2-0.3-0.3-0.4 -0.1-0.2-0.1-0.3-0.1-0.5 0.1-0.1 0.2-0.2 0.4-0.3 0.1-0.1 0.3-0.2 0.4-0.3 0.1-0.1 0.3-0.2 0.4-0.3v-0.1c-0.3-0.2-0.6-0.4-0.8-0.8 -0.2-0.3-0.3-0.7-0.3-1.1 0-0.3 0.1-0.7 0.2-1 0.1-0.3 0.3-0.6 0.6-0.8 0.2-0.2 0.5-0.4 0.9-0.6 0.3-0.1 0.7-0.2 1-0.2 0.3 0 0.5 0 0.8 0.1 0.2 0.1 0.4 0.1 0.6 0.1 0.2 0 0.4-0.1 0.6-0.1 0.2 0 0.4-0.1 0.6-0.1 0.2-0.1 0.5-0.1 0.7-0.2l0 0.1 -0.2 0.8c-0.1 0-0.3 0-0.4 0 -0.1 0-0.2 0-0.4 0.1 -0.1 0-0.3 0-0.5 0l-0.1 0.1c0.4 0.4 0.6 0.9 0.6 1.4 0 0.4-0.1 0.7-0.2 1 -0.1 0.3-0.3 0.6-0.6 0.8 -0.3 0.2-0.6 0.4-0.9 0.5C207 66.9 206.6 66.9 206.2 66.9zM206.5 66.3c0.4 0 0.8-0.1 1-0.4 0.3-0.3 0.4-0.7 0.4-1.1 0-0.6-0.2-1-0.5-1.3 -0.3-0.3-0.7-0.5-1.2-0.5 -0.4 0-0.8 0.1-1 0.4 -0.3 0.3-0.4 0.7-0.4 1.2 0 0.6 0.2 1 0.5 1.3C205.6 66.1 206 66.3 206.5 66.3zM206.5 71.6c0.3 0 0.5 0 0.8-0.1 0.3-0.1 0.5-0.2 0.7-0.3 0.2-0.1 0.4-0.3 0.5-0.5 0.1-0.2 0.2-0.3 0.2-0.5 0-0.1 0-0.3-0.1-0.4 -0.1-0.1-0.2-0.2-0.4-0.3 -0.2-0.1-0.5-0.2-0.9-0.2 -0.4-0.1-0.8-0.1-1.4-0.2 -0.2 0.1-0.3 0.3-0.4 0.4 -0.1 0.1-0.2 0.3-0.3 0.4 -0.1 0.2-0.1 0.3-0.1 0.5 0 0.4 0.1 0.7 0.4 0.9C205.6 71.5 206 71.6 206.5 71.6zM211.4 63.8c0-0.5-0.2-0.8-0.5-0.8 -0.1 0-0.1 0-0.2 0 0 0-0.1 0-0.1 0l0.1-0.5c0.2 0 0.5-0.1 0.7-0.1 0.2 0 0.5-0.1 0.7-0.1 0.2 0 0.5-0.1 0.7-0.2l0.1 0.2c0 0.1-0.1 0.3-0.1 0.6 0 0.3-0.1 0.7-0.1 1 0 0.4-0.1 0.8-0.1 1.3 0 0.5 0 0.9 0 1.3 0 0.9 0.4 1.4 1.1 1.4 0.3 0 0.6-0.1 0.9-0.3 0.3-0.2 0.6-0.4 0.8-0.5v-3.3c0-0.3-0.1-0.5-0.2-0.6 -0.1-0.1-0.3-0.2-0.6-0.2 0 0 0 0-0.1 0 0 0-0.1 0-0.1 0h-0.1l0.1-0.5c0.2 0 0.5-0.1 0.8-0.1 0.3 0 0.5-0.1 0.7-0.1 0.2 0 0.5-0.1 0.7-0.2l0.1 0.2c0 0.1-0.1 0.3-0.1 0.6 0 0.3-0.1 0.7-0.1 1.2 0 0.4-0.1 0.9-0.1 1.5 0 0.6 0 1.1 0 1.7 0 0.4 0.2 0.7 0.6 0.7 0.1 0 0.2 0 0.3-0.1 0.1 0 0.2-0.1 0.3-0.1 0.1 0 0.2-0.1 0.3-0.2l0.2 0.2c-0.2 0.2-0.3 0.4-0.4 0.6 -0.1 0.1-0.3 0.3-0.4 0.4 -0.1 0.1-0.3 0.2-0.4 0.2 -0.8 0-1.2-0.4-1.3-1.2l-0.1 0c-0.5 0.4-0.9 0.6-1.2 0.9 -0.4 0.2-0.6 0.3-0.8 0.3 -0.6 0-1.1-0.1-1.4-0.4 -0.3-0.3-0.5-0.7-0.5-1.2L211.4 63.8zM218.4 68.4c0.2-0.1 0.4-0.1 0.5-0.2 0.1-0.1 0.2-0.2 0.2-0.3 0-0.1 0.1-0.3 0.1-0.4 0-0.2 0-0.4 0-0.6v-7c0-0.5-0.2-0.8-0.5-0.8 -0.1 0-0.1 0-0.2 0 0 0-0.1 0-0.1 0 0 0 0-0.1 0-0.1s0-0.1 0-0.1l0-0.3c0.2 0 0.5-0.1 0.8-0.1 0.3 0 0.5-0.1 0.7-0.1 0.2 0 0.5-0.1 0.7-0.2l0.1 0.2c0 0.1-0.1 0.2-0.1 0.5 0 0.3-0.1 0.6-0.1 1.1 0 0.4-0.1 0.9-0.1 1.5 0 0.6 0 1.2-0.1 1.8 0 0.7 0 1.3 0 2 0 0.7 0 1.4 0 2.1 0 0.3 0 0.5 0.1 0.6 0.1 0.1 0.2 0.2 0.4 0.2 0 0 0.1 0 0.2 0s0.1 0 0.2 0c0.1 0 0.1 0 0.2 0l0 0.1 -0.1 0.6c-0.1 0-0.3 0-0.4 0 -0.1 0-0.3 0-0.4 0s-0.3 0-0.4 0c-0.2 0-0.3 0-0.5 0 -0.2 0-0.3 0-0.5 0.1 -0.2 0-0.3 0.1-0.5 0.1L218.4 68.4zM225.5 64.6c0-0.5-0.1-0.9-0.3-1.1 -0.2-0.3-0.5-0.4-0.9-0.4 -0.2 0-0.5 0-0.7 0.1 -0.2 0.1-0.4 0.2-0.5 0.2 -0.2 0.1-0.4 0.2-0.5 0.4l-0.1 0 -0.2-0.6c0.3-0.2 0.6-0.3 0.9-0.5 0.2-0.1 0.5-0.2 0.8-0.3 0.3-0.1 0.5-0.2 0.6-0.2 0.6 0 1.1 0.2 1.5 0.5 0.3 0.3 0.5 0.8 0.5 1.4 0 0.1 0 0.3 0 0.6 0 0.3-0.1 0.6-0.1 0.9 0 0.3-0.1 0.7-0.1 1 0 0.3 0 0.6 0 0.8 0 0.4 0.2 0.7 0.6 0.7 0.1 0 0.2 0 0.3-0.1 0.1 0 0.2-0.1 0.3-0.1 0.1 0 0.2-0.1 0.3-0.2l0.2 0.2c-0.1 0.2-0.2 0.3-0.4 0.5 -0.1 0.1-0.2 0.3-0.4 0.4 -0.1 0.1-0.3 0.2-0.5 0.3 -0.8 0-1.2-0.4-1.3-1.2l-0.1 0c-0.3 0.3-0.7 0.6-0.9 0.8 -0.3 0.2-0.5 0.3-0.6 0.3 -0.3 0-0.5 0-0.7-0.1 -0.2-0.1-0.4-0.2-0.6-0.4 -0.2-0.2-0.3-0.3-0.4-0.6 -0.1-0.2-0.1-0.5-0.1-0.7 0-0.3 0.1-0.5 0.2-0.7 0.1-0.2 0.3-0.3 0.6-0.4l2.7-0.7L225.5 64.6zM225.5 65.8l-1.9 0.6c-0.3 0.1-0.4 0.3-0.4 0.6 0 0.3 0.1 0.5 0.3 0.7 0.2 0.2 0.4 0.3 0.7 0.3 0.2 0 0.4-0.1 0.6-0.2 0.2-0.1 0.5-0.3 0.7-0.5L225.5 65.8zM229.5 68c0.1-0.2 0.1-0.5 0.1-0.9v-3.2c0-0.3 0-0.5-0.1-0.7 -0.1-0.1-0.2-0.2-0.4-0.2 -0.1 0-0.1 0-0.2 0 0 0-0.1 0-0.1 0l-0.1-0.1 0-0.4c0.2 0 0.4-0.1 0.7-0.1 0.2 0 0.4-0.1 0.6-0.1 0.2 0 0.4-0.1 0.6-0.2l0.1 0.1c0 0.2-0.1 0.3-0.1 0.5 0 0.1 0 0.3-0.1 0.5 0 0.2 0 0.3 0 0.5l0.1 0c0.1-0.2 0.3-0.4 0.5-0.6 0.2-0.2 0.4-0.3 0.5-0.5 0.2-0.1 0.4-0.2 0.5-0.3 0.2-0.1 0.3-0.1 0.5-0.1 0.1 0 0.2 0 0.3 0 0 0 0.1 0 0.1 0l0 0.1 -0.1 0.7c0 0.2-0.1 0.4-0.1 0.7 0 0.2 0 0.5-0.1 0.7l-0.6 0c0-0.4 0-0.7-0.1-0.8 -0.1-0.1-0.2-0.2-0.3-0.2 -0.2 0-0.4 0.1-0.7 0.3 -0.2 0.2-0.5 0.4-0.7 0.7 0 0.5 0 0.9-0.1 1.3 0 0.2 0 0.3 0 0.5 0 0.2 0 0.3 0 0.5 0 0.1 0 0.3 0 0.4s0 0.2 0 0.2c0 0.3 0 0.5 0.1 0.7s0.3 0.2 0.6 0.2c0 0 0.1 0 0.2 0 0.1 0 0.1 0 0.2 0 0.1 0 0.2 0 0.2 0l0 0.1 -0.1 0.6c-0.2 0-0.3 0-0.5 0 -0.2 0-0.3 0-0.5 0s-0.3 0-0.5 0c-0.2 0-0.4 0-0.6 0 -0.2 0-0.3 0-0.5 0 -0.2 0-0.3 0-0.4 0l0.1-0.6C229.2 68.3 229.4 68.2 229.5 68z"/></a><a xlink:href="http://www.huertatipografica.com/fonts/alegreya-sans-ht" xlink:show="new"><path fill="#FFFFFF" d="M118.2 88l-0.2-0.9 -0.5-1.6 -2.1 0 -1.9 0L113 87l-0.2 1h-1.1l3.4-9.2h1.3l3.1 9.2H118.2zM115.7 80h-0.1l-1.7 4.5 1.6 0 1.7 0L115.7 80zM122.1 88H121l0.1-2.8L121 78l1.1-0.1 -0.1 7.2L122.1 88zM125 84.7c0 0.8 0.2 1.4 0.5 1.8 0.3 0.4 0.8 0.7 1.5 0.7 0.7 0 1.3-0.2 1.9-0.6l0.1 0.1 -0.1 1c-0.7 0.4-1.4 0.5-2 0.5 -0.9 0-1.7-0.3-2.2-0.9 -0.5-0.6-0.8-1.4-0.8-2.5 0-1.1 0.3-1.9 0.8-2.5 0.6-0.6 1.3-0.9 2.3-0.9 0.7 0 1.3 0.2 1.7 0.7 0.4 0.4 0.6 1 0.6 1.8l0 0.7 -0.2 0.2L125 84.7 125 84.7zM125.7 82.6c-0.3 0.3-0.5 0.7-0.6 1.3l3.2-0.1 0-0.2c0-0.5-0.1-0.9-0.4-1.1 -0.2-0.3-0.6-0.4-1-0.4C126.4 82.2 126 82.3 125.7 82.6zM135.3 82.3L135.3 82.3c0.2 0.4 0.3 0.8 0.3 1.3 0 0.7-0.2 1.3-0.7 1.7 -0.5 0.4-1.1 0.6-1.9 0.6 -0.3 0-0.6 0-0.9-0.1 -0.3 0.2-0.4 0.4-0.4 0.6 0 0.2 0.1 0.3 0.4 0.4s0.7 0.2 1.2 0.3c0.6 0.1 1 0.2 1.4 0.3 0.4 0.1 0.7 0.3 0.9 0.5s0.4 0.5 0.4 0.9c0 0.4-0.1 0.8-0.4 1.1 -0.3 0.3-0.6 0.6-1.1 0.8 -0.5 0.2-1 0.3-1.6 0.3 -0.8 0-1.4-0.2-1.8-0.5 -0.4-0.3-0.6-0.8-0.6-1.4 0.2-0.5 0.7-0.9 1.3-1.2v-0.1c-0.7-0.2-1.1-0.6-1.1-1.1 0.2-0.3 0.5-0.6 0.9-0.9v-0.1c-0.6-0.4-0.9-1-0.9-1.8 0-0.7 0.2-1.3 0.7-1.7 0.5-0.4 1.1-0.6 1.9-0.6 0.5 0 0.9 0.1 1.3 0.3 0.7-0.1 1.4-0.3 2.1-0.5l0.1 0.1V82C136.4 82.1 135.9 82.2 135.3 82.3zM134.7 88.3c-0.2-0.1-0.4-0.2-0.6-0.3 -0.3-0.1-0.6-0.1-1.1-0.2l-0.4-0.1c-0.7 0.4-1.1 0.9-1.1 1.3 0 0.3 0.1 0.5 0.4 0.7 0.3 0.2 0.7 0.3 1.1 0.3 0.6 0 1-0.1 1.4-0.3 0.4-0.2 0.6-0.5 0.6-0.8C135 88.6 134.9 88.4 134.7 88.3zM134.2 84.7c0.3-0.3 0.4-0.6 0.4-1.1 0-0.5-0.1-0.8-0.4-1.1 -0.2-0.2-0.6-0.4-1.1-0.4 -0.5 0-0.9 0.1-1.1 0.4 -0.3 0.3-0.4 0.6-0.4 1.1 0 0.5 0.1 0.8 0.4 1.1 0.3 0.3 0.6 0.4 1.1 0.4C133.6 85.1 133.9 85 134.2 84.7zM141.2 81.5v1.1l-0.1 0c-0.2 0-0.3-0.1-0.5-0.1 -0.6 0-1.2 0.5-1.7 1.6l0 1 0.1 2.9h-1.1l0.1-2.8 -0.1-3.7 1.1-0.1 0 1.3h0.1c0.5-0.9 1.1-1.3 1.8-1.3C140.9 81.4 141.1 81.4 141.2 81.5zM142.9 84.7c0 0.8 0.2 1.4 0.5 1.8 0.3 0.4 0.8 0.7 1.5 0.7 0.7 0 1.3-0.2 1.9-0.6l0.1 0.1 -0.1 1c-0.7 0.4-1.4 0.5-2 0.5 -0.9 0-1.7-0.3-2.2-0.9 -0.5-0.6-0.8-1.4-0.8-2.5 0-1.1 0.3-1.9 0.8-2.5 0.6-0.6 1.3-0.9 2.3-0.9 0.7 0 1.3 0.2 1.7 0.7 0.4 0.4 0.6 1 0.6 1.8l0 0.7 -0.2 0.2L142.9 84.7 142.9 84.7zM143.6 82.6c-0.3 0.3-0.5 0.7-0.6 1.3l3.2-0.1 0-0.2c0-0.5-0.1-0.9-0.4-1.1 -0.2-0.3-0.6-0.4-1-0.4C144.3 82.2 143.9 82.3 143.6 82.6zM150.7 86.7h0.1l1.6-4.4 0.2-0.9h1l-2.3 6.3c-0.3 0.9-0.7 1.5-1.2 2 -0.5 0.5-1.2 0.8-2.1 1h-0.1c-0.2-0.2-0.4-0.5-0.5-0.7l0-0.1c0.7-0.1 1.3-0.3 1.7-0.6 0.4-0.3 0.8-0.7 1.1-1.2l-2.4-6.5 1.1-0.1 0.2 0.8L150.7 86.7zM158.3 81.8c0.4 0.3 0.5 0.7 0.5 1.3 0 0.2 0 0.8-0.1 1.8 -0.1 1-0.1 1.6-0.1 1.8 0 0.2 0 0.4 0.1 0.4 0.1 0.1 0.2 0.1 0.3 0.1 0.1 0 0.3 0 0.5-0.1l0.1 0.1 -0.1 0.6c-0.3 0.2-0.6 0.3-0.8 0.3 -0.3 0-0.5-0.1-0.7-0.3 -0.2-0.2-0.3-0.4-0.3-0.7h-0.1c-0.5 0.5-1 0.9-1.5 1.1 -0.6 0-1.1-0.2-1.5-0.5 -0.4-0.3-0.5-0.8-0.5-1.3 0-0.8 0.4-1.3 1.3-1.5l2.3-0.5 0-0.9c0-0.4-0.1-0.7-0.3-0.9 -0.2-0.2-0.5-0.3-0.8-0.3 -0.6 0-1.3 0.3-2 0.9l-0.1-0.1 -0.1-0.8c0.8-0.6 1.6-0.9 2.5-0.9C157.5 81.3 158 81.5 158.3 81.8zM155.3 85.7c-0.1 0.1-0.1 0.3-0.1 0.5 0 0.3 0.1 0.6 0.3 0.7 0.2 0.2 0.4 0.3 0.7 0.3 0.5 0 1.1-0.3 1.6-1l0-1.2 -2.1 0.5C155.5 85.5 155.4 85.6 155.3 85.7zM168.4 79.2l-0.2 1.1 -0.2 0.1c-0.6-0.4-1.2-0.7-1.8-0.7 -0.4 0-0.7 0.1-0.9 0.2 -0.3 0.1-0.5 0.3-0.6 0.6 -0.1 0.2-0.2 0.5-0.2 0.7 0 0.3 0.1 0.5 0.2 0.7 0.2 0.2 0.4 0.4 0.6 0.5 0.2 0.1 0.6 0.3 1 0.5 0.5 0.2 0.9 0.5 1.2 0.7 0.3 0.2 0.6 0.5 0.8 0.8 0.2 0.3 0.3 0.7 0.3 1.1 0 0.5-0.1 0.9-0.4 1.3 -0.3 0.4-0.6 0.7-1.1 1 -0.5 0.2-1 0.4-1.6 0.4 -0.9 0-1.7-0.2-2.5-0.6l0.1-1.2 0.2-0.1c0.3 0.3 0.7 0.6 1.1 0.7 0.4 0.2 0.8 0.2 1.2 0.2 0.4 0 0.7-0.1 1-0.2 0.3-0.1 0.5-0.3 0.6-0.6 0.1-0.2 0.2-0.5 0.2-0.8 0-0.4-0.2-0.7-0.5-1 -0.3-0.2-0.8-0.5-1.4-0.8 -0.5-0.2-0.9-0.5-1.2-0.7 -0.3-0.2-0.6-0.4-0.8-0.8 -0.2-0.3-0.3-0.7-0.3-1.1 0-0.5 0.1-0.9 0.4-1.3 0.3-0.4 0.6-0.7 1.1-0.9 0.5-0.2 1-0.3 1.6-0.3C167 78.7 167.7 78.9 168.4 79.2zM173.8 81.8c0.4 0.3 0.5 0.7 0.5 1.3 0 0.2 0 0.8-0.1 1.8 -0.1 1-0.1 1.6-0.1 1.8 0 0.2 0 0.4 0.1 0.4 0.1 0.1 0.2 0.1 0.3 0.1 0.1 0 0.3 0 0.5-0.1l0.1 0.1 -0.1 0.6c-0.3 0.2-0.6 0.3-0.8 0.3 -0.3 0-0.5-0.1-0.7-0.3 -0.2-0.2-0.3-0.4-0.3-0.7h-0.1c-0.5 0.5-1 0.9-1.5 1.1 -0.6 0-1.1-0.2-1.5-0.5 -0.4-0.3-0.5-0.8-0.5-1.3 0-0.8 0.4-1.3 1.3-1.5l2.3-0.5 0-0.9c0-0.4-0.1-0.7-0.3-0.9 -0.2-0.2-0.5-0.3-0.8-0.3 -0.6 0-1.3 0.3-2 0.9L170 83l-0.1-0.8c0.8-0.6 1.6-0.9 2.5-0.9C172.9 81.3 173.4 81.5 173.8 81.8zM170.8 85.7c-0.1 0.1-0.1 0.3-0.1 0.5 0 0.3 0.1 0.6 0.3 0.7s0.4 0.3 0.7 0.3c0.5 0 1.1-0.3 1.6-1l0-1.2 -2.1 0.5C171 85.5 170.8 85.6 170.8 85.7zM180.6 82.6c-0.2-0.2-0.5-0.3-0.8-0.3 -0.6 0-1.3 0.3-1.9 1l0 1.8 0.1 2.9h-1.1l0.1-2.8 -0.1-3.7 1.1-0.1 0 1h0.1c0.6-0.5 1.2-0.9 1.8-1 0.7 0 1.3 0.2 1.7 0.5 0.4 0.3 0.6 0.8 0.5 1.4l0 1.9L182 88h-1.1l0.1-4.5C180.9 83.2 180.8 82.9 180.6 82.6zM187.6 81.7l-0.2 0.9 -0.2 0c-0.5-0.3-0.9-0.5-1.4-0.5 -0.3 0-0.6 0.1-0.8 0.3 -0.2 0.2-0.3 0.4-0.3 0.7s0.1 0.5 0.3 0.6c0.2 0.2 0.5 0.3 1 0.5 0.4 0.2 0.7 0.3 0.9 0.5 0.2 0.1 0.4 0.3 0.6 0.6 0.2 0.2 0.2 0.5 0.2 0.8 0 0.4-0.1 0.7-0.3 1 -0.2 0.3-0.4 0.6-0.8 0.7 -0.4 0.2-0.8 0.3-1.3 0.3 -0.7 0-1.3-0.2-1.9-0.5l0.1-1 0.1-0.1c0.3 0.2 0.6 0.4 0.9 0.5s0.6 0.2 0.9 0.2c0.4 0 0.6-0.1 0.9-0.3 0.2-0.2 0.3-0.4 0.3-0.7 0-0.3-0.1-0.5-0.3-0.6 -0.2-0.2-0.5-0.3-1-0.5 -0.4-0.2-0.7-0.3-0.9-0.5 -0.2-0.1-0.4-0.3-0.6-0.6 -0.2-0.2-0.2-0.5-0.2-0.9 0-0.6 0.2-1 0.6-1.4 0.4-0.4 1-0.5 1.7-0.5C186.5 81.3 187 81.5 187.6 81.7zM198.2 87.7l0 0.1c-0.3 0.1-0.7 0.2-1.1 0.3l-0.2-0.1c-0.8-1.2-1.5-2.3-2.1-3.4h-1.7v0.5l0.1 2.9H192l0.1-2.8 -0.1-6.4 2.8 0c0.9 0 1.6 0.2 2.1 0.7 0.5 0.5 0.7 1.1 0.7 1.9 0 0.6-0.2 1.2-0.5 1.7 -0.3 0.5-0.8 0.9-1.4 1.2C196.4 85.3 197.2 86.5 198.2 87.7zM194.9 83.7c1.1-0.3 1.6-1 1.6-2.1 0-1.1-0.6-1.7-1.9-1.8l-1.4 0 0 3.8L194.9 83.7zM199.8 84.7c0 0.8 0.2 1.4 0.5 1.8 0.3 0.4 0.8 0.7 1.5 0.7 0.7 0 1.3-0.2 1.9-0.6l0.1 0.1 -0.1 1c-0.7 0.4-1.4 0.5-2 0.5 -0.9 0-1.7-0.3-2.2-0.9 -0.5-0.6-0.8-1.4-0.8-2.5 0-1.1 0.3-1.9 0.8-2.5 0.6-0.6 1.3-0.9 2.3-0.9 0.7 0 1.3 0.2 1.7 0.7 0.4 0.4 0.6 1 0.6 1.8l0 0.7 -0.2 0.2L199.8 84.7 199.8 84.7zM200.5 82.6c-0.3 0.3-0.5 0.7-0.6 1.3l3.2-0.1 0-0.2c0-0.5-0.1-0.9-0.4-1.1 -0.2-0.3-0.6-0.4-1-0.4C201.2 82.2 200.8 82.3 200.5 82.6zM210.1 82.3L210.1 82.3c0.2 0.4 0.3 0.8 0.3 1.3 0 0.7-0.2 1.3-0.7 1.7 -0.5 0.4-1.1 0.6-1.9 0.6 -0.3 0-0.6 0-0.9-0.1 -0.3 0.2-0.4 0.4-0.4 0.6 0 0.2 0.1 0.3 0.4 0.4 0.2 0.1 0.7 0.2 1.2 0.3 0.6 0.1 1 0.2 1.4 0.3 0.4 0.1 0.7 0.3 0.9 0.5s0.4 0.5 0.4 0.9c0 0.4-0.1 0.8-0.4 1.1 -0.3 0.3-0.6 0.6-1.1 0.8 -0.5 0.2-1 0.3-1.6 0.3 -0.8 0-1.4-0.2-1.8-0.5 -0.4-0.3-0.6-0.8-0.6-1.4 0.2-0.5 0.7-0.9 1.3-1.2v-0.1c-0.7-0.2-1.1-0.6-1.1-1.1 0.2-0.3 0.5-0.6 0.9-0.9v-0.1c-0.6-0.4-0.9-1-0.9-1.8 0-0.7 0.2-1.3 0.7-1.7 0.5-0.4 1.1-0.6 1.9-0.6 0.5 0 0.9 0.1 1.3 0.3 0.7-0.1 1.4-0.3 2.1-0.5l0.1 0.1V82C211.1 82.1 210.7 82.2 210.1 82.3zM209.5 88.3c-0.2-0.1-0.4-0.2-0.6-0.3 -0.3-0.1-0.6-0.1-1.1-0.2l-0.4-0.1c-0.7 0.4-1.1 0.9-1.1 1.3 0 0.3 0.1 0.5 0.4 0.7 0.3 0.2 0.7 0.3 1.1 0.3 0.6 0 1-0.1 1.4-0.3 0.4-0.2 0.6-0.5 0.6-0.8C209.8 88.6 209.7 88.4 209.5 88.3zM209 84.7c0.3-0.3 0.4-0.6 0.4-1.1 0-0.5-0.1-0.8-0.4-1.1 -0.2-0.2-0.6-0.4-1.1-0.4 -0.5 0-0.9 0.1-1.1 0.4 -0.3 0.3-0.4 0.6-0.4 1.1 0 0.5 0.1 0.8 0.4 1.1 0.3 0.3 0.6 0.4 1.1 0.4C208.4 85.1 208.7 85 209 84.7zM217.6 87c0.1 0.1 0.2 0.1 0.3 0.1 0.2 0 0.3 0 0.5-0.1l0.1 0.1 -0.1 0.6c-0.3 0.2-0.6 0.3-0.8 0.3 -0.6-0.1-0.9-0.4-1-1h-0.1c-0.6 0.5-1.2 0.9-1.8 1 -0.7 0-1.2-0.2-1.6-0.5 -0.4-0.3-0.5-0.8-0.5-1.4l0-1.8 0-2.8 1.1-0.1 -0.1 4.5c0 0.4 0.1 0.7 0.3 0.9 0.2 0.2 0.5 0.3 0.8 0.3 0.6 0 1.2-0.3 1.8-0.9v-4.7l1.1-0.1 -0.1 5.2C217.5 86.8 217.5 87 217.6 87zM221.1 88H220l0.1-2.8L220 78l1.1-0.1 -0.1 7.2L221.1 88zM227.1 81.8c0.4 0.3 0.5 0.7 0.5 1.3 0 0.2 0 0.8-0.1 1.8 -0.1 1-0.1 1.6-0.1 1.8 0 0.2 0 0.4 0.1 0.4 0.1 0.1 0.2 0.1 0.3 0.1 0.1 0 0.3 0 0.5-0.1l0.1 0.1 -0.1 0.6c-0.3 0.2-0.6 0.3-0.8 0.3 -0.3 0-0.5-0.1-0.7-0.3 -0.2-0.2-0.3-0.4-0.3-0.7h-0.1c-0.5 0.5-1 0.9-1.5 1.1 -0.6 0-1.1-0.2-1.5-0.5 -0.4-0.3-0.5-0.8-0.5-1.3 0-0.8 0.4-1.3 1.3-1.5l2.3-0.5 0-0.9c0-0.4-0.1-0.7-0.3-0.9 -0.2-0.2-0.5-0.3-0.8-0.3 -0.6 0-1.3 0.3-2 0.9l-0.1-0.1 -0.1-0.8c0.8-0.6 1.6-0.9 2.5-0.9C226.3 81.3 226.8 81.5 227.1 81.8zM224.1 85.7c-0.1 0.1-0.1 0.3-0.1 0.5 0 0.3 0.1 0.6 0.3 0.7s0.4 0.3 0.7 0.3c0.5 0 1.1-0.3 1.6-1l0-1.2 -2.1 0.5C224.3 85.5 224.2 85.6 224.1 85.7zM233.5 81.5v1.1l-0.1 0c-0.2 0-0.3-0.1-0.5-0.1 -0.6 0-1.2 0.5-1.7 1.6l0 1 0.1 2.9h-1.1l0.1-2.8 -0.1-3.7 1.1-0.1 0 1.3h0.1c0.5-0.9 1.1-1.3 1.8-1.3C233.2 81.4 233.4 81.4 233.5 81.5z"/></a></svg>