<svg xmlns="http://www.w3.org/2000/svg" xmlns:xlink="http://www.w3.org/1999/xlink" version="1.2" baseProfile="tiny" x="0" y="0" viewBox="0 0 233.6 100" xml:space="preserve"><text transform="matrix(1 0 0 1 7.1079 13.5215)" opacity="0">x</text><a xlink:href="https://www.google.com/fonts/specimen/Source+Sans+Pro" xlink:show="new"><path fill="#343434" d="M37.9 23.4c1.3 1.5 3.2 2.5 5.4 2.5 2.8 0 4.5-1.5 4.5-3.6 0-2.3-1.5-3-3.3-3.8l-2.8-1.2c-1.6-0.7-3.7-1.8-3.7-4.5 0-2.6 2.3-4.5 5.3-4.5 2.2 0 4 1 5.1 2.2l-0.7 0.9c-1-1.1-2.5-1.9-4.3-1.9 -2.4 0-4 1.3-4 3.3 0 2.1 1.8 2.9 3.1 3.5l2.8 1.2c2 0.9 3.8 2 3.8 4.8S46.8 27 43.3 27c-2.6 0-4.7-1.1-6.1-2.7L37.9 23.4zM57.5 13.1c3.2 0 6 2.5 6 7 0 4.4-2.8 6.9-6 6.9 -3.2 0-5.9-2.5-5.9-6.9C51.6 15.6 54.3 13.1 57.5 13.1zM57.5 25.9c2.7 0 4.7-2.4 4.7-5.8 0-3.5-2-5.9-4.7-5.9 -2.7 0-4.7 2.4-4.7 5.9C52.8 23.5 54.8 25.9 57.5 25.9zM67.2 13.4h1.2v8.3c0 2.8 0.9 4.1 3 4.1 1.6 0 2.7-0.8 4.3-2.7v-9.8h1.2v13.2h-1l-0.1-2.2h-0.1C74.4 26 73.1 27 71.2 27c-2.7 0-4-1.7-4-5.1V13.4zM82 13.4h1l0.1 2.5h0.1c0.9-1.6 2.2-2.8 3.8-2.8 0.5 0 0.9 0.1 1.3 0.3l-0.3 1.1c-0.4-0.2-0.7-0.2-1.2-0.2 -1.2 0-2.6 0.9-3.6 3.4v9H82V13.4zM95.4 13.1c1.8 0 3 0.8 3.9 1.6l-0.7 0.9c-0.9-0.8-1.8-1.4-3.1-1.4 -2.7 0-4.8 2.4-4.8 5.9 0 3.5 1.9 5.8 4.8 5.8 1.4 0 2.6-0.7 3.5-1.5l0.6 0.8c-1.1 1-2.5 1.8-4.2 1.8 -3.4 0-6-2.5-6-6.9C89.4 15.6 92.2 13.1 95.4 13.1zM107.1 13.1c3.1 0 5.1 2.2 5.1 6.1 0 0.3 0 0.7-0.1 1h-9.5c0.1 3.3 2 5.7 5 5.7 1.4 0 2.6-0.5 3.6-1.2l0.5 0.9c-1 0.6-2.2 1.3-4.2 1.3 -3.4 0-6.1-2.6-6.1-6.9C101.3 15.7 104.1 13.1 107.1 13.1zM111 19.3c0-3.4-1.5-5.1-3.9-5.1 -2.3 0-4.3 2-4.6 5.1H111zM120.6 23.4c1.3 1.5 3.2 2.5 5.3 2.5 2.8 0 4.5-1.5 4.5-3.6 0-2.3-1.5-3-3.3-3.8l-2.8-1.2c-1.6-0.7-3.7-1.8-3.7-4.5 0-2.6 2.3-4.5 5.3-4.5 2.2 0 4 1 5.1 2.2l-0.7 0.9c-1-1.1-2.5-1.9-4.3-1.9 -2.4 0-4 1.3-4 3.3 0 2.1 1.8 2.9 3.1 3.5l2.8 1.2c2 0.9 3.8 2 3.8 4.8S129.5 27 126 27c-2.6 0-4.7-1.1-6.1-2.7L120.6 23.4zM143.2 18.4c0.1-2-0.5-4.2-3.1-4.2 -1.8 0-3.3 0.9-4.2 1.5l-0.6-0.9c0.9-0.7 2.8-1.7 4.9-1.7 3.1 0 4.2 2.3 4.2 5.1v8.5h-1l-0.1-1.7h-0.1c-1.4 1.1-3 2-4.7 2 -2.1 0-3.9-1.1-3.9-3.6C134.6 20.4 137.3 19 143.2 18.4zM138.7 25.9c1.5 0 2.9-0.7 4.5-2.2v-4.5c-5.4 0.6-7.3 1.9-7.3 4C135.9 25.2 137.2 25.9 138.7 25.9zM149.1 13.4h1l0.1 2h0.1c1.4-1.4 2.7-2.4 4.6-2.4 2.7 0 4 1.7 4 5.1v8.5h-1.2v-8.3c0-2.8-0.9-4.1-3-4.1 -1.6 0-2.7 0.8-4.3 2.5v10h-1.2V13.4zM162.9 24.3c1.1 0.9 2.3 1.7 4.2 1.7 2.1 0 3.1-1.2 3.1-2.6 0-1.7-1.7-2.4-3.2-2.9 -2-0.7-4.2-1.5-4.2-3.8 0-1.9 1.5-3.5 4.3-3.5 1.4 0 2.8 0.6 3.8 1.4l-0.7 0.9c-0.9-0.7-1.8-1.2-3.2-1.2 -2 0-3 1.2-3 2.4 0 1.5 1.5 2.1 3.1 2.7 2.1 0.8 4.3 1.5 4.3 4.1 0 2-1.6 3.7-4.5 3.7 -2 0-3.7-0.8-4.9-1.8L162.9 24.3zM180.5 8.5h1.3v17.1h8.4v1.1h-9.6V8.5zM192.7 9.1c0-0.7 0.5-1.1 1.1-1.1 0.6 0 1.1 0.4 1.1 1.1 0 0.6-0.5 1.1-1.1 1.1C193.2 10.2 192.7 9.8 192.7 9.1zM193.1 13.4h1.2v13.2h-1.2V13.4zM200.3 26.2V26c-0.7-0.4-1.2-1.1-1.2-2.1 0-1.2 0.9-2 1.4-2.4v-0.1c-0.8-0.7-1.7-2-1.7-3.6 0-2.7 2.1-4.7 4.7-4.7 0.7 0 1.3 0.2 1.7 0.3h4.5v1h-3.1c0.9 0.7 1.5 1.9 1.5 3.3 0 2.7-2 4.7-4.6 4.7 -0.7 0-1.6-0.2-2.2-0.6 -0.6 0.5-1.1 1-1.1 1.9 0 1 0.6 1.7 2.5 1.7h2.8c3 0 4.4 0.9 4.4 3 0 2.3-2.5 4.5-6.3 4.5 -3.3 0-5.4-1.4-5.4-3.7C198.4 28.2 199.1 27 200.3 26.2zM203.9 32c3 0 4.9-1.7 4.9-3.3 0-1.5-1.1-2-3.1-2h-2.8c-0.3 0-1-0.1-1.7-0.2 -1.2 0.8-1.7 1.8-1.7 2.8C199.5 30.9 201.1 32 203.9 32zM207 17.7c0-2.2-1.5-3.7-3.4-3.7 -1.9 0-3.4 1.4-3.4 3.7 0 2.2 1.6 3.7 3.4 3.7C205.4 21.5 207 20 207 17.7zM212.9 6.8h1.2v5.7 2.9c1.4-1.4 2.8-2.4 4.6-2.4 2.7 0 4 1.7 4 5.1v8.5h-1.2v-8.3c0-2.8-0.9-4.1-3-4.1 -1.6 0-2.7 0.8-4.3 2.5v10h-1.2V6.8zM227.8 14.5h-2.1v-0.9l2.1-0.1 0.2-3.8h1v3.8h3.8v1H229v8.6c0 1.7 0.4 2.8 2.2 2.8 0.5 0 1.2-0.2 1.7-0.4l0.3 1c-0.8 0.3-1.6 0.5-2.2 0.5 -2.6 0-3.3-1.6-3.3-4V14.5zM1.4 55.8c1.3 1.4 3.1 2.3 5 2.3 2.4 0 3.8-1.2 3.8-3 0-1.8-1.3-2.4-3-3.2l-2.6-1.1c-1.7-0.7-3.7-2-3.7-4.7 0-2.8 2.4-4.8 5.7-4.8 2.2 0 4.1 0.9 5.3 2.2L10.7 45c-1.1-1-2.5-1.7-4.1-1.7 -2 0-3.4 1-3.4 2.6 0 1.7 1.6 2.4 3 3l2.6 1.1c2.1 0.9 3.7 2.2 3.7 4.8 0 2.9-2.4 5.2-6.2 5.2 -2.5 0-4.7-1-6.3-2.7L1.4 55.8zM21 46c3.3 0 6.2 2.6 6.2 7.1 0 4.4-2.9 7-6.2 7 -3.3 0-6.2-2.6-6.2-7C14.8 48.6 17.7 46 21 46zM21 58.2c2.3 0 3.9-2.1 3.9-5.1 0-3.1-1.5-5.2-3.9-5.2 -2.3 0-3.9 2.1-3.9 5.2C17.1 56.1 18.7 58.2 21 58.2zM30.5 46.3h2.3v8.2c0 2.5 0.7 3.6 2.5 3.6 1.4 0 2.3-0.7 3.6-2.3v-9.5h2.3v13.4h-1.9l-0.2-2.1H39c-1.2 1.5-2.6 2.4-4.4 2.4 -2.8 0-4.1-1.8-4.1-5.2V46.3zM45.7 46.3h1.9l0.2 2.4h0.1c0.9-1.7 2.3-2.8 3.8-2.8 0.6 0 1 0.1 1.4 0.3l-0.4 2c-0.4-0.1-0.7-0.2-1.3-0.2 -1.1 0-2.5 0.8-3.4 3.1v8.6h-2.3V46.3zM60.4 46c1.8 0 3 0.7 3.9 1.6l-1.1 1.5c-0.8-0.7-1.6-1.2-2.7-1.2 -2.4 0-4.2 2.1-4.2 5.2 0 3.1 1.7 5.1 4.1 5.1 1.3 0 2.3-0.6 3.1-1.4l1 1.5c-1.2 1.1-2.8 1.7-4.4 1.7 -3.6 0-6.3-2.6-6.3-7C54 48.6 57 46 60.4 46zM72 46c3.4 0 5.3 2.5 5.3 6.3 0 0.5 0 0.9-0.1 1.2h-9c0.2 2.9 1.9 4.7 4.5 4.7 1.3 0 2.3-0.4 3.3-1l0.8 1.5c-1.2 0.7-2.6 1.4-4.4 1.4 -3.6 0-6.4-2.6-6.4-7C66 48.7 68.9 46 72 46zM75.4 52.1c0-2.7-1.2-4.2-3.3-4.2 -1.9 0-3.6 1.5-3.9 4.2H75.4zM86.5 55.8c1.3 1.4 3.1 2.3 5 2.3 2.4 0 3.8-1.2 3.8-3 0-1.8-1.3-2.4-3-3.2l-2.6-1.1c-1.7-0.7-3.7-2-3.7-4.7 0-2.8 2.4-4.8 5.7-4.8 2.2 0 4.1 0.9 5.3 2.2L95.7 45c-1.1-1-2.5-1.7-4.1-1.7 -2 0-3.4 1-3.4 2.6 0 1.7 1.6 2.4 3 3l2.6 1.1c2.1 0.9 3.7 2.2 3.7 4.8 0 2.9-2.4 5.2-6.2 5.2 -2.5 0-4.7-1-6.3-2.7L86.5 55.8zM108.4 51.3c0-1.7-0.6-3.4-2.8-3.4 -1.6 0-3 0.7-4 1.4l-0.9-1.6C102 47 103.9 46 106 46c3.3 0 4.7 2.2 4.7 5.5v8.2h-1.9l-0.2-1.6h-0.1c-1.3 1-2.8 1.9-4.4 1.9 -2.3 0-3.9-1.4-3.9-3.8C100.2 53.4 102.7 51.9 108.4 51.3zM104.7 58.3c1.3 0 2.4-0.6 3.7-1.8v-3.7c-4.5 0.6-6 1.7-6 3.4C102.4 57.6 103.4 58.3 104.7 58.3zM114.9 46.3h1.9l0.2 1.9h0.1c1.3-1.3 2.6-2.3 4.5-2.3 2.8 0 4.1 1.8 4.1 5.2v8.5h-2.3v-8.2c0-2.5-0.8-3.6-2.5-3.6 -1.4 0-2.3 0.7-3.7 2.1v9.7h-2.3V46.3zM129.7 56.7c1.2 0.9 2.3 1.6 3.9 1.6 1.8 0 2.6-0.9 2.6-2.1 0-1.4-1.6-2-3.1-2.5 -1.9-0.7-4-1.6-4-3.9 0-2.2 1.7-3.8 4.6-3.8 1.7 0 3.1 0.7 4.2 1.5l-1.1 1.4c-0.9-0.7-1.9-1.2-3.1-1.2 -1.7 0-2.5 0.9-2.5 1.9 0 1.2 1.5 1.7 3 2.3 1.9 0.7 4.1 1.5 4.1 4.1 0 2.2-1.7 4-4.9 4 -1.9 0-3.7-0.8-5-1.8L129.7 56.7zM157.2 59.7l-4.4-7.6h-3.3v7.6h-2.3V41.7h5.7c3.7 0 6.3 1.3 6.3 5.1 0 2.8-1.6 4.5-4.1 5.1l4.6 7.9H157.2zM149.6 50.2h3c2.8 0 4.4-1.2 4.4-3.5 0-2.4-1.5-3.2-4.4-3.2h-3V50.2zM167.8 46c3.4 0 5.3 2.5 5.3 6.3 0 0.5 0 0.9-0.1 1.2h-9c0.2 2.9 1.9 4.7 4.5 4.7 1.3 0 2.3-0.4 3.3-1l0.8 1.5c-1.2 0.7-2.6 1.4-4.4 1.4 -3.6 0-6.4-2.6-6.4-7C161.8 48.7 164.7 46 167.8 46zM171.1 52.1c0-2.7-1.2-4.2-3.3-4.2 -1.9 0-3.6 1.5-3.9 4.2H171.1zM177.1 59.3v-0.1c-0.7-0.4-1.2-1.1-1.2-2.2 0-1.1 0.8-2 1.5-2.5v-0.1c-0.9-0.7-1.7-2-1.7-3.6 0-2.9 2.3-4.8 5-4.8 0.7 0 1.4 0.1 1.9 0.3h4.7v1.7h-2.8c0.6 0.6 1.1 1.6 1.1 2.8 0 2.9-2.2 4.7-4.9 4.7 -0.7 0-1.4-0.2-2-0.5 -0.5 0.4-0.9 0.9-0.9 1.6 0 0.9 0.6 1.5 2.4 1.5h2.6c3.1 0 4.7 1 4.7 3.2 0 2.5-2.6 4.6-6.8 4.6 -3.3 0-5.5-1.3-5.5-3.6C175.1 61.2 175.9 60.1 177.1 59.3zM181 64.4c2.6 0 4.2-1.3 4.2-2.7 0-1.2-1-1.7-2.7-1.7h-2.3c-0.5 0-1.2-0.1-1.7-0.2 -1 0.7-1.4 1.5-1.4 2.3C177.1 63.4 178.6 64.4 181 64.4zM183.5 50.8c0-2-1.3-3.1-2.8-3.1 -1.6 0-2.8 1.2-2.8 3.1s1.3 3.2 2.8 3.2C182.2 54 183.5 52.7 183.5 50.8zM189.9 46.3h2.3v8.2c0 2.5 0.7 3.6 2.5 3.6 1.4 0 2.3-0.7 3.6-2.3v-9.5h2.3v13.4h-1.9l-0.2-2.1h-0.1c-1.2 1.5-2.6 2.4-4.4 2.4 -2.8 0-4.1-1.8-4.1-5.2V46.3zM205.1 40.1h2.3v17.1c0 0.7 0.3 1 0.6 1 0.1 0 0.2 0 0.5-0.1l0.3 1.7c-0.3 0.1-0.7 0.2-1.3 0.2 -1.7 0-2.4-1.1-2.4-3V40.1zM219.7 51.3c0-1.7-0.6-3.4-2.8-3.4 -1.6 0-3 0.7-4 1.4l-0.9-1.6c1.2-0.8 3.1-1.7 5.3-1.7 3.3 0 4.7 2.2 4.7 5.5v8.2h-1.9l-0.2-1.6h-0.1c-1.3 1-2.8 1.9-4.4 1.9 -2.3 0-3.9-1.4-3.9-3.8C211.4 53.4 214 51.9 219.7 51.3zM216 58.3c1.3 0 2.4-0.6 3.7-1.8v-3.7c-4.5 0.6-6 1.7-6 3.4C213.7 57.6 214.7 58.3 216 58.3zM226.2 46.3h1.9l0.2 2.4h0.1c0.9-1.7 2.3-2.8 3.8-2.8 0.6 0 1 0.1 1.4 0.3l-0.4 2c-0.4-0.1-0.7-0.2-1.3-0.2 -1.1 0-2.5 0.8-3.4 3.1v8.6h-2.3V46.3zM28.3 87.8c1.3 1.1 2.9 1.9 4.4 1.9 1.7 0 2.5-0.7 2.5-1.7 0-1.1-1-1.5-2.6-2.2l-2.3-1c-1.9-0.7-3.6-2.3-3.6-4.9 0-3 2.7-5.3 6.4-5.3 2.1 0 4.2 0.8 5.8 2.4l-2 2.6c-1.2-0.9-2.3-1.4-3.8-1.4 -1.4 0-2.3 0.6-2.3 1.6 0 1.1 1.2 1.5 2.8 2.1l2.3 0.9c2.2 0.9 3.6 2.3 3.6 4.9 0 3-2.5 5.6-6.8 5.6 -2.3 0-4.8-0.9-6.7-2.6L28.3 87.8zM48 78.8c3.4 0 6.6 2.6 6.6 7.2 0 4.6-3.2 7.2-6.6 7.2 -3.5 0-6.7-2.6-6.7-7.2C41.3 81.5 44.5 78.8 48 78.8zM48 89.9c1.7 0 2.5-1.5 2.5-3.9 0-2.4-0.9-3.9-2.5-3.9 -1.7 0-2.5 1.5-2.5 3.9C45.5 88.4 46.3 89.9 48 89.9zM57.3 79.2h4.1v8c0 2 0.5 2.6 1.7 2.6 1 0 1.6-0.4 2.4-1.5v-9h4.1v13.7h-3.3l-0.3-1.9h-0.1c-1.2 1.4-2.4 2.2-4.3 2.2 -3 0-4.2-2.1-4.2-5.5V79.2zM73.1 79.2h3.3l0.3 2.4h0.1c1-1.8 2.5-2.7 3.9-2.7 0.8 0 1.2 0.1 1.6 0.3l-0.7 3.5c-0.5-0.1-0.9-0.2-1.5-0.2 -1 0-2.3 0.7-3 2.5v7.9h-4.1V79.2zM90.1 78.8c1.7 0 3.1 0.6 4 1.6l-1.8 2.5c-0.7-0.6-1.3-0.8-1.9-0.8 -2 0-3.2 1.5-3.2 3.9 0 2.4 1.3 3.9 3.1 3.9 1 0 1.8-0.5 2.5-1l1.6 2.6c-1.3 1.2-3.1 1.7-4.6 1.7C86 93.2 83 90.6 83 86 83 81.5 86.3 78.8 90.1 78.8zM101.6 78.8c3.9 0 5.8 2.8 5.8 6.6 0 0.7-0.1 1.4-0.2 1.7H99c0.4 2.1 1.7 3 3.6 3 1 0 2-0.3 3-0.9l1.4 2.5c-1.4 1-3.2 1.5-4.9 1.5 -3.9 0-6.9-2.6-6.9-7.2C95.1 81.6 98.3 78.8 101.6 78.8zM103.9 84.6c0-1.6-0.7-2.7-2.3-2.7 -1.3 0-2.4 0.9-2.6 2.7H103.9zM117.4 87.8c1.3 1.1 2.9 1.9 4.4 1.9 1.7 0 2.5-0.7 2.5-1.7 0-1.1-1-1.5-2.6-2.2l-2.3-1c-1.9-0.7-3.6-2.3-3.6-4.9 0-3 2.7-5.3 6.4-5.3 2.1 0 4.2 0.8 5.8 2.4l-2 2.6c-1.2-0.9-2.3-1.4-3.8-1.4 -1.4 0-2.3 0.6-2.3 1.6 0 1.1 1.2 1.5 2.8 2.1l2.3 0.9c2.2 0.9 3.6 2.3 3.6 4.9 0 3-2.5 5.6-6.8 5.6 -2.3 0-4.8-0.9-6.7-2.6L117.4 87.8zM138.4 84c-0.1-1.2-0.7-2-2.2-2 -1.2 0-2.3 0.5-3.6 1.2l-1.4-2.7c1.7-1 3.7-1.8 5.8-1.8 3.5 0 5.4 2 5.4 6.2v7.8h-3.3l-0.3-1.4h-0.1c-1.2 1-2.5 1.7-4 1.7 -2.5 0-4.1-1.8-4.1-4.1C130.7 86.2 133 84.6 138.4 84zM136.1 90c0.9 0 1.5-0.4 2.3-1.2v-2.4c-2.9 0.4-3.8 1.2-3.8 2.3C134.6 89.6 135.2 90 136.1 90zM145.9 79.2h3.3l0.3 1.7h0.1c1.2-1.1 2.5-2.1 4.4-2.1 3 0 4.2 2.1 4.2 5.5v8.5h-4.1v-8c0-2-0.5-2.6-1.7-2.6 -1 0-1.7 0.5-2.5 1.3v9.2h-4.1V79.2zM162.3 88.7c1.2 0.9 2.4 1.4 3.5 1.4 1.2 0 1.7-0.4 1.7-1.2 0-0.9-1.4-1.3-2.8-1.9 -1.7-0.6-3.6-1.8-3.6-4 0-2.5 2.1-4.3 5.2-4.3 2.1 0 3.6 0.9 4.8 1.7l-1.8 2.4c-1-0.7-1.9-1.2-2.9-1.2 -1 0-1.5 0.4-1.5 1.1 0 0.9 1.3 1.2 2.7 1.7 1.7 0.6 3.7 1.6 3.7 4.1 0 2.5-2 4.4-5.6 4.4 -1.8 0-3.9-0.8-5.2-1.9L162.3 88.7zM180 74.9h6.1c3.8 0 6.6 1 6.6 4.5 0 1.6-0.9 3.3-3 3.9v0.1c2.6 0.5 3.9 1.8 3.9 4.2 0 3.7-3.1 5.3-7 5.3H180V74.9zM185.9 82.1c2 0 2.9-0.9 2.9-2.2S187.9 78 186 78H184v4.1H185.9zM186.3 89.7c2.2 0 3.4-0.8 3.4-2.5 0-1.6-1.1-2.3-3.4-2.3H184v4.7H186.3zM202.2 78.8c3.4 0 6.6 2.6 6.6 7.2 0 4.6-3.2 7.2-6.6 7.2 -3.5 0-6.7-2.6-6.7-7.2C195.5 81.5 198.7 78.8 202.2 78.8zM202.2 89.9c1.7 0 2.5-1.5 2.5-3.9 0-2.4-0.9-3.9-2.5-3.9 -1.7 0-2.5 1.5-2.5 3.9C199.7 88.4 200.5 89.9 202.2 89.9zM211.6 73.5h4.1v15.3c0 0.9 0.4 1.1 0.7 1.1 0.2 0 0.3 0 0.5-0.1l0.5 3c-0.4 0.2-1.1 0.3-2 0.3 -2.8 0-3.7-1.8-3.7-4.6V73.5zM224.5 78.8c1.5 0 2.4 0.6 3.4 1.4l-0.2-2.1v-4.7h4.1v19.3h-3.3l-0.3-1.4H228c-1 1-2.3 1.7-3.6 1.7 -3.4 0-5.6-2.7-5.6-7.2C218.8 81.5 221.6 78.8 224.5 78.8zM225.4 89.9c0.9 0 1.6-0.3 2.2-1.2V83c-0.7-0.7-1.5-0.9-2.3-0.9 -1.3 0-2.5 1.2-2.5 3.8C223 88.6 223.9 89.9 225.4 89.9z"/></a></svg>