<svg xmlns="http://www.w3.org/2000/svg" version="1.2" baseProfile="tiny" x="0" y="0" viewBox="-50 50 100 100" xml:space="preserve"><text transform="matrix(1 0 0 1 7.1079 13.5215)" opacity="0">x</text><path fill="#F2F2F2" d="M-35.3 100c0-9.7 4-18.6 10.3-25l-10.4-10.4c-19.5 19.5-19.5 51.3 0 70.8L-25 125C-31.3 118.7-35.3 109.7-35.3 100z"/><path fill="#343434" d="M25 125c-6.4 6.4-15.2 10.3-25 10.3 -9.7 0-18.6-4-25-10.3l-10.4 10.4c19.5 19.5 51.2 19.5 70.7 0L25 125z"/><path fill="#D52027" d="M35.3 64.6L24.9 75c6.4 6.4 10.3 15.2 10.3 25 0 9.7-3.9 18.6-10.2 25l10.3 10.4C54.9 115.9 54.9 84.2 35.3 64.6z"/><path fill="#FFFFFF" d="M-0.1 64.7c9.7 0 18.6 4 25 10.3l10.4-10.4c-19.5-19.5-51.2-19.5-70.7 0L-25 75C-18.7 68.7-9.9 64.7-0.1 64.7z"/></svg>