<svg xmlns="http://www.w3.org/2000/svg" xmlns:xlink="http://www.w3.org/1999/xlink" version="1.2" baseProfile="tiny" x="0" y="0" viewBox="-116.8 50 233.6 100" xml:space="preserve"><text transform="matrix(1 0 0 1 7.1079 13.5215)" opacity="0">x</text><a xlink:href="https://www.google.com/fonts/specimen/Source+Sans+Pro" xlink:show="new"><path fill="#4B4D52" d="M-87.7 75.7c1 0.8 2.2 1.3 3.2 1.3 1.1 0 1.5-0.4 1.5-1 0-0.6-0.7-0.9-1.8-1.3l-1.7-0.7c-1.5-0.6-2.7-1.8-2.7-3.8 0-2.3 2.1-4.2 5-4.2 1.5 0 3.3 0.6 4.5 1.8l-1.8 2.3c-0.9-0.6-1.7-1-2.7-1 -0.9 0-1.4 0.3-1.4 0.9 0 0.6 0.8 0.9 2 1.4l1.6 0.6c1.7 0.7 2.6 1.8 2.6 3.7 0 2.3-1.9 4.3-5.3 4.3 -1.7 0-3.7-0.6-5.1-1.9L-87.7 75.7zM-72.8 69.2c2.7 0 5.2 2 5.2 5.5 0 3.5-2.5 5.5-5.2 5.5 -2.7 0-5.2-2-5.2-5.5C-78 71.2-75.5 69.2-72.8 69.2zM-72.8 77.3c1.1 0 1.5-1 1.5-2.6s-0.4-2.6-1.5-2.6 -1.5 1-1.5 2.6S-73.9 77.3-72.8 77.3zM-65.8 69.4h3.6v6c0 1.3 0.3 1.7 1 1.7 0.7 0 1-0.3 1.5-0.9v-6.7h3.6v10.4H-59l-0.3-1.4h-0.1c-0.8 1-1.8 1.6-3.2 1.6 -2.3 0-3.3-1.7-3.3-4.3V69.4zM-53.7 69.4h2.9l0.3 1.8h0.1c0.8-1.4 1.9-2 3-2 0.6 0 1 0.1 1.3 0.2l-0.6 3.1c-0.4-0.1-0.7-0.2-1.2-0.2 -0.8 0-1.7 0.5-2.2 1.8v5.8h-3.6V69.4zM-40.1 69.2c1.3 0 2.3 0.5 3 1.2l-1.6 2.2c-0.5-0.4-0.8-0.5-1.2-0.5 -1.3 0-2.1 1-2.1 2.6s0.9 2.6 2 2.6c0.7 0 1.2-0.3 1.7-0.7l1.4 2.3c-1 0.9-2.4 1.3-3.5 1.3 -3 0-5.3-2-5.3-5.5C-45.7 71.2-43.1 69.2-40.1 69.2zM-31.5 69.2c3.1 0 4.5 2.3 4.5 5 0 0.6-0.1 1.2-0.1 1.4H-33c0.3 1.3 1.3 1.8 2.4 1.8 0.7 0 1.4-0.2 2.1-0.6l1.2 2.1c-1.1 0.8-2.6 1.2-3.8 1.2 -3 0-5.4-2-5.4-5.5C-36.5 71.3-34 69.2-31.5 69.2zM-30 73.5c0-0.9-0.3-1.6-1.4-1.6 -0.8 0-1.5 0.4-1.7 1.6H-30zM-19.1 75.7c1 0.8 2.2 1.3 3.2 1.3 1.1 0 1.5-0.4 1.5-1 0-0.6-0.7-0.9-1.8-1.3l-1.7-0.7c-1.5-0.6-2.7-1.8-2.7-3.8 0-2.3 2.1-4.2 5-4.2 1.5 0 3.3 0.6 4.5 1.8l-1.8 2.3c-0.9-0.6-1.7-1-2.7-1 -0.9 0-1.4 0.3-1.4 0.9 0 0.6 0.8 0.9 2 1.4l1.6 0.6c1.7 0.7 2.6 1.8 2.6 3.7 0 2.3-1.9 4.3-5.3 4.3 -1.7 0-3.7-0.6-5.1-1.9L-19.1 75.7zM-3.5 73.1C-3.5 72.4-4 72-4.9 72c-0.8 0-1.5 0.3-2.6 0.9l-1.3-2.3c1.5-0.9 3-1.4 4.6-1.4 2.7 0 4.3 1.5 4.3 4.9v5.8h-2.9l-0.3-1h-0.1C-4 79.6-4.9 80.1-6 80.1c-2 0-3.1-1.5-3.1-3.2C-9.1 74.7-7.5 73.5-3.5 73.1zM-4.8 77.4c0.6 0 0.9-0.3 1.3-0.7v-1.4c-1.7 0.3-2.3 0.8-2.3 1.4C-5.7 77.1-5.4 77.4-4.8 77.4zM2.5 69.4h2.9l0.3 1.3h0.1c0.8-0.8 1.9-1.5 3.3-1.5 2.3 0 3.3 1.7 3.3 4.3v6.4H8.7v-6c0-1.3-0.3-1.7-1-1.7 -0.7 0-1 0.3-1.6 0.8v6.8H2.5V69.4zM15.4 76.5c1 0.7 1.8 1 2.5 1 0.8 0 1-0.2 1-0.6 0-0.5-1-0.8-2-1.2 -1.2-0.5-2.6-1.4-2.6-3.1 0-2 1.7-3.4 4.1-3.4 1.7 0 2.9 0.7 3.8 1.4l-1.6 2.1c-0.8-0.5-1.5-0.9-2.1-0.9 -0.6 0-0.9 0.2-0.9 0.6 0 0.5 0.9 0.8 2 1.1 1.3 0.5 2.7 1.3 2.7 3.1 0 2-1.5 3.5-4.5 3.5 -1.3 0-3-0.6-4-1.5L15.4 76.5zM28.8 66.3H34c2.9 0 5.4 1.1 5.4 4.5 0 3.3-2.6 4.8-5.4 4.8h-1.7v4.3h-3.6V66.3zM33.8 72.7c1.4 0 2.1-0.7 2.1-1.9s-0.8-1.7-2.1-1.7h-1.5v3.6H33.8zM41.4 69.4h2.9l0.3 1.8h0.1c0.8-1.4 1.9-2 3-2 0.6 0 1 0.1 1.3 0.2l-0.6 3.1c-0.4-0.1-0.7-0.2-1.2-0.2 -0.8 0-1.7 0.5-2.2 1.8v5.8h-3.6V69.4zM54.5 69.2c2.7 0 5.2 2 5.2 5.5 0 3.5-2.5 5.5-5.2 5.5 -2.7 0-5.2-2-5.2-5.5C49.3 71.2 51.8 69.2 54.5 69.2zM54.5 77.3c1.1 0 1.5-1 1.5-2.6s-0.4-2.6-1.5-2.6c-1.1 0-1.5 1-1.5 2.6S53.4 77.3 54.5 77.3zM66.2 66.3h4.9c2.8 0 5.1 0.7 5.1 3.4 0 1.2-0.7 2.5-2.3 2.9v0.1c1.9 0.4 2.9 1.4 2.9 3.2 0 2.8-2.4 4-5.3 4h-5.3V66.3zM71 71.7c1.2 0 1.7-0.6 1.7-1.4s-0.5-1.2-1.7-1.2h-1.2v2.6H71zM71.3 77.1c1.4 0 2.1-0.5 2.1-1.5s-0.7-1.4-2.1-1.4h-1.5v3H71.3zM78.7 65.4h3.6v11c0 0.7 0.3 0.9 0.6 0.9 0.1 0 0.2 0 0.4 0l0.4 2.6c-0.4 0.2-1 0.3-1.8 0.3 -2.4 0-3.2-1.6-3.2-3.9V65.4zM90.3 73.1c-0.1-0.8-0.5-1.1-1.5-1.1 -0.8 0-1.5 0.3-2.6 0.9l-1.3-2.3c1.5-0.9 3-1.4 4.6-1.4 2.7 0 4.3 1.5 4.3 4.9v5.8h-2.9l-0.3-1h-0.1c-0.8 0.8-1.8 1.3-2.9 1.3 -2 0-3.1-1.5-3.1-3.2C84.6 74.7 86.3 73.5 90.3 73.1zM89 77.4c0.6 0 0.9-0.3 1.3-0.7v-1.4C88.6 75.5 88 76 88 76.6 88 77.1 88.4 77.4 89 77.4zM101.3 69.2c1.3 0 2.3 0.5 3 1.2l-1.6 2.2c-0.5-0.4-0.8-0.5-1.2-0.5 -1.3 0-2.1 1-2.1 2.6s0.9 2.6 2 2.6c0.7 0 1.2-0.3 1.7-0.7l1.4 2.3c-1 0.9-2.4 1.3-3.5 1.3 -3 0-5.3-2-5.3-5.5C95.7 71.2 98.3 69.2 101.3 69.2zM106.1 65.4h3.5v7.7h0.1l2.9-3.6h3.9l-3.7 4.3 3.9 6.1h-3.9l-2.1-3.7 -1.1 1.2v2.5h-3.5V65.4zM-115.4 101.5c1 0.9 2.3 1.5 3.6 1.5 1.5 0 2.4-0.7 2.4-1.8 0-1.1-0.9-1.5-2.1-2l-1.9-0.8c-1.4-0.6-2.8-1.6-2.8-3.6 0-2.2 1.9-3.8 4.6-3.8 1.6 0 3.2 0.7 4.2 1.7l-1.3 1.5c-0.9-0.7-1.8-1.2-3-1.2 -1.3 0-2.1 0.6-2.1 1.6 0 1.1 1 1.5 2.2 1.9l1.8 0.8c1.6 0.7 2.8 1.7 2.8 3.7 0 2.2-1.8 4-4.9 4 -1.8 0-3.6-0.7-4.9-2L-115.4 101.5zM-100.5 94.4c2.6 0 4.9 2 4.9 5.4 0 3.4-2.3 5.4-4.9 5.4 -2.5 0-4.9-2-4.9-5.4C-105.4 96.4-103.1 94.4-100.5 94.4zM-100.5 103.2c1.5 0 2.4-1.4 2.4-3.4 0-2.1-0.9-3.4-2.4-3.4s-2.4 1.4-2.4 3.4C-102.9 101.9-102 103.2-100.5 103.2zM-93.4 94.7h2.4v6.1c0 1.7 0.5 2.3 1.6 2.3 0.9 0 1.5-0.4 2.3-1.4v-7h2.4v10.2h-2l-0.2-1.5h-0.1c-0.9 1.1-1.9 1.8-3.3 1.8 -2.2 0-3.2-1.5-3.2-4.1V94.7zM-81.7 94.7h2l0.2 1.8h0.1c0.7-1.3 1.8-2.1 2.9-2.1 0.5 0 0.9 0.1 1.2 0.2l-0.4 2.1c-0.4-0.1-0.6-0.2-1.1-0.2 -0.8 0-1.8 0.6-2.4 2.1v6.3h-2.4V94.7zM-69.6 94.4c1.3 0 2.3 0.5 3 1.2l-1.1 1.5c-0.5-0.5-1.1-0.8-1.7-0.8 -1.6 0-2.8 1.4-2.8 3.4 0 2 1.1 3.4 2.7 3.4 0.8 0 1.5-0.4 2.1-0.9l1 1.5c-1 0.9-2.2 1.3-3.4 1.3 -2.8 0-4.9-2-4.9-5.4C-74.8 96.4-72.4 94.4-69.6 94.4zM-60.9 94.4c2.8 0 4.2 2 4.2 4.9 0 0.5 0 0.9-0.1 1.1h-6.5c0.2 1.9 1.4 2.9 3 2.9 0.9 0 1.6-0.3 2.4-0.8l0.8 1.5c-1 0.6-2.2 1.1-3.5 1.1 -2.8 0-5-2-5-5.4C-65.6 96.5-63.3 94.4-60.9 94.4zM-58.8 98.9c0-1.6-0.7-2.6-2.1-2.6 -1.2 0-2.3 0.9-2.5 2.6H-58.8zM-49.5 101.5c1 0.9 2.3 1.5 3.6 1.5 1.5 0 2.4-0.7 2.4-1.8 0-1.1-0.9-1.5-2.1-2l-1.9-0.8c-1.4-0.6-2.8-1.6-2.8-3.6 0-2.2 1.9-3.8 4.6-3.8 1.6 0 3.2 0.7 4.2 1.7l-1.3 1.5c-0.9-0.7-1.8-1.2-3-1.2 -1.3 0-2.1 0.6-2.1 1.6 0 1.1 1 1.5 2.2 1.9l1.8 0.8c1.6 0.7 2.8 1.7 2.8 3.7 0 2.2-1.8 4-4.9 4 -1.8 0-3.6-0.7-4.9-2L-49.5 101.5zM-33.2 98.4c0-1.1-0.5-2-1.9-2 -1 0-2 0.5-2.9 1l-0.9-1.6c1.1-0.7 2.6-1.3 4.2-1.3 2.6 0 3.8 1.6 3.8 4.4v6.1h-2l-0.2-1.1H-33c-0.9 0.8-2 1.4-3.2 1.4 -1.8 0-3-1.2-3-3C-39.2 100-37.4 98.8-33.2 98.4zM-35.4 103.3c0.8 0 1.5-0.4 2.2-1.1v-2.3c-2.8 0.4-3.7 1.1-3.7 2.1C-36.9 102.9-36.3 103.3-35.4 103.3zM-27.9 94.7h2l0.2 1.4h0.1c0.9-0.9 2-1.6 3.4-1.6 2.2 0 3.2 1.5 3.2 4.1v6.4h-2.4v-6.1c0-1.7-0.5-2.3-1.6-2.3 -0.9 0-1.5 0.4-2.3 1.3v7.2h-2.4V94.7zM-16.1 102.2c0.9 0.7 1.8 1.1 2.8 1.1 1.1 0 1.6-0.5 1.6-1.2 0-0.9-1.1-1.2-2.2-1.6 -1.4-0.5-2.9-1.3-2.9-3 0-1.8 1.4-3.1 3.7-3.1 1.4 0 2.6 0.6 3.4 1.2l-1.1 1.5c-0.7-0.5-1.4-0.9-2.3-0.9 -1 0-1.5 0.5-1.5 1.1 0 0.8 1 1.1 2.1 1.5 1.4 0.5 2.9 1.2 2.9 3.1 0 1.8-1.4 3.2-4 3.2 -1.4 0-2.9-0.6-3.9-1.4L-16.1 102.2zM-2.7 91.3h4.6c3 0 5.2 1 5.2 4.2 0 3-2.3 4.4-5.2 4.4h-2.2v5h-2.4V91.3zM1.6 98c2 0 3-0.8 3-2.5 0-1.7-1-2.3-3-2.3h-2V98H1.6zM9.3 94.7h2l0.2 1.8h0.1c0.7-1.3 1.8-2.1 2.9-2.1 0.5 0 0.9 0.1 1.2 0.2l-0.4 2.1c-0.4-0.1-0.6-0.2-1.1-0.2 -0.8 0-1.8 0.6-2.4 2.1v6.3H9.3V94.7zM21.1 94.4c2.6 0 4.9 2 4.9 5.4 0 3.4-2.3 5.4-4.9 5.4 -2.5 0-4.9-2-4.9-5.4C16.3 96.4 18.6 94.4 21.1 94.4zM21.1 103.2c1.5 0 2.4-1.4 2.4-3.4 0-2.1-0.9-3.4-2.4-3.4s-2.4 1.4-2.4 3.4C18.7 101.9 19.6 103.2 21.1 103.2zM33.3 101.5c1 0.9 2.3 1.5 3.6 1.5 1.5 0 2.4-0.7 2.4-1.8 0-1.1-0.9-1.5-2.1-2l-1.9-0.8c-1.4-0.6-2.8-1.6-2.8-3.6 0-2.2 1.9-3.8 4.6-3.8 1.6 0 3.2 0.7 4.2 1.7L40 94.3c-0.9-0.7-1.8-1.2-3-1.2 -1.3 0-2.1 0.6-2.1 1.6 0 1.1 1 1.5 2.2 1.9l1.8 0.8c1.6 0.7 2.8 1.7 2.8 3.7 0 2.2-1.8 4-4.9 4 -1.8 0-3.6-0.7-4.9-2L33.3 101.5zM48 94.4c2.8 0 4.2 2 4.2 4.9 0 0.5 0 0.9-0.1 1.1h-6.5c0.2 1.9 1.4 2.9 3 2.9 0.9 0 1.6-0.3 2.4-0.8l0.8 1.5c-1 0.6-2.2 1.1-3.5 1.1 -2.8 0-5-2-5-5.4C43.3 96.5 45.6 94.4 48 94.4zM50.2 98.9c0-1.6-0.7-2.6-2.1-2.6 -1.2 0-2.3 0.9-2.5 2.6H50.2zM54.6 94.7h2l0.2 1.4h0.1c0.9-0.9 1.9-1.6 3.1-1.6 1.5 0 2.4 0.7 2.8 1.8 1-1 2-1.8 3.3-1.8 2.2 0 3.2 1.5 3.2 4.1v6.4h-2.4v-6.1c0-1.7-0.5-2.3-1.6-2.3 -0.6 0-1.4 0.4-2.1 1.3v7.2h-2.4v-6.1c0-1.7-0.5-2.3-1.6-2.3 -0.6 0-1.4 0.4-2.1 1.3v7.2h-2.4V94.7zM71.9 91.5c0-0.8 0.6-1.4 1.5-1.4 0.9 0 1.5 0.6 1.5 1.4 0 0.8-0.6 1.4-1.5 1.4C72.5 92.9 71.9 92.3 71.9 91.5zM72.1 94.7h2.4v10.2h-2.4V94.7zM77.6 90.2H80V94l-0.1 1.7c0.9-0.8 1.9-1.3 3-1.3 2.6 0 4 2 4 5.2 0 3.5-2.1 5.6-4.4 5.6 -0.9 0-1.9-0.5-2.8-1.3h-0.1l-0.2 1h-1.9V90.2zM82.1 103.2c1.4 0 2.4-1.2 2.4-3.5 0-2-0.7-3.3-2.2-3.3 -0.8 0-1.5 0.4-2.3 1.1v4.8C80.7 103 81.5 103.2 82.1 103.2zM93.6 94.4c2.6 0 4.9 2 4.9 5.4 0 3.4-2.3 5.4-4.9 5.4 -2.5 0-4.9-2-4.9-5.4C88.7 96.4 91 94.4 93.6 94.4zM93.6 103.2c1.5 0 2.4-1.4 2.4-3.4 0-2.1-0.9-3.4-2.4-3.4s-2.4 1.4-2.4 3.4C91.2 101.9 92.1 103.2 93.6 103.2zM100.8 90.2h2.4v12.2c0 0.6 0.3 0.8 0.5 0.8 0.1 0 0.2 0 0.4 0l0.3 1.8c-0.3 0.1-0.7 0.2-1.3 0.2 -1.7 0-2.3-1.1-2.3-2.9V90.2zM110.2 94.4c1.2 0 1.9 0.4 2.7 1.1l-0.1-1.6v-3.7h2.4v14.7h-2l-0.2-1.1H113c-0.8 0.8-1.8 1.4-2.9 1.4 -2.6 0-4.2-2-4.2-5.4C105.9 96.5 108 94.4 110.2 94.4zM110.7 103.2c0.8 0 1.5-0.4 2.1-1.1v-4.8c-0.7-0.6-1.4-0.9-2.1-0.9 -1.3 0-2.4 1.2-2.4 3.4C108.3 102 109.2 103.2 110.7 103.2zM-93.4 127c1 1 2.3 1.7 3.8 1.7 1.8 0 2.9-0.9 2.9-2.2 0-1.4-1-1.8-2.3-2.4l-2-0.9c-1.3-0.5-2.8-1.5-2.8-3.5 0-2.1 1.8-3.6 4.3-3.6 1.6 0 3.1 0.7 4 1.7l-0.9 1.1c-0.8-0.8-1.9-1.3-3.1-1.3 -1.5 0-2.6 0.8-2.6 2 0 1.3 1.2 1.8 2.3 2.3l2 0.8c1.6 0.7 2.8 1.6 2.8 3.7 0 2.2-1.8 3.9-4.7 3.9 -1.9 0-3.6-0.8-4.8-2L-93.4 127zM-78.6 119.6c2.5 0 4.7 1.9 4.7 5.3 0 3.4-2.2 5.3-4.7 5.3s-4.7-1.9-4.7-5.3C-83.3 121.5-81.1 119.6-78.6 119.6zM-78.6 128.8c1.8 0 2.9-1.6 2.9-3.9 0-2.3-1.2-3.9-2.9-3.9 -1.7 0-2.9 1.6-2.9 3.9C-81.5 127.2-80.3 128.8-78.6 128.8zM-71.4 119.8h1.7v6.2c0 1.9 0.6 2.7 1.9 2.7 1 0 1.8-0.5 2.7-1.7v-7.2h1.7V130h-1.4l-0.1-1.6h-0.1c-0.9 1.1-1.9 1.8-3.3 1.8 -2.1 0-3.1-1.4-3.1-4V119.8zM-59.9 119.8h1.4l0.1 1.8h0.1c0.7-1.3 1.7-2.1 2.9-2.1 0.4 0 0.8 0.1 1.1 0.2l-0.3 1.5c-0.3-0.1-0.6-0.2-1-0.2 -0.9 0-1.9 0.6-2.6 2.3v6.5h-1.7V119.8zM-48.7 119.6c1.3 0 2.3 0.6 3 1.2l-0.9 1.1c-0.6-0.5-1.2-0.9-2-0.9 -1.8 0-3.2 1.6-3.2 3.9 0 2.3 1.3 3.9 3.1 3.9 1 0 1.8-0.5 2.4-1l0.8 1.1c-0.9 0.8-2.1 1.3-3.3 1.3 -2.7 0-4.8-1.9-4.8-5.3C-53.6 121.5-51.3 119.6-48.7 119.6zM-40 119.6c2.6 0 4 1.9 4 4.8 0 0.4 0 0.7-0.1 0.9h-6.8c0.1 2.2 1.4 3.6 3.4 3.6 1 0 1.8-0.3 2.5-0.8l0.6 1.1c-0.9 0.6-2 1-3.3 1 -2.7 0-4.9-2-4.9-5.3S-42.3 119.6-40 119.6zM-37.4 124.1c0-2.1-0.9-3.2-2.5-3.2 -1.4 0-2.7 1.2-2.9 3.2H-37.4zM-29 127c1 1 2.3 1.7 3.8 1.7 1.8 0 2.9-0.9 2.9-2.2 0-1.4-1-1.8-2.3-2.4l-2-0.9c-1.3-0.5-2.8-1.5-2.8-3.5 0-2.1 1.8-3.6 4.3-3.6 1.6 0 3.1 0.7 4 1.7l-0.9 1.1c-0.8-0.8-1.9-1.3-3.1-1.3 -1.5 0-2.6 0.8-2.6 2 0 1.3 1.2 1.8 2.3 2.3l2 0.8c1.6 0.7 2.8 1.6 2.8 3.7 0 2.2-1.8 3.9-4.7 3.9 -1.9 0-3.6-0.8-4.8-2L-29 127zM-12.4 123.5c0-1.3-0.4-2.5-2.1-2.5 -1.2 0-2.2 0.5-3 1.1l-0.7-1.2c0.9-0.6 2.4-1.3 4-1.3 2.5 0 3.5 1.6 3.5 4.2v6.2h-1.4l-0.1-1.2h0c-1 0.8-2.1 1.5-3.4 1.5 -1.7 0-3-1.1-3-2.9C-18.7 125.1-16.7 124-12.4 123.5zM-15.2 128.8c1 0 1.8-0.5 2.8-1.4v-2.8c-3.4 0.4-4.5 1.3-4.5 2.5C-17 128.4-16.2 128.8-15.2 128.8zM-7.5 119.8h1.4l0.1 1.5h0.1c1-1 2-1.7 3.4-1.7 2.1 0 3.1 1.4 3.1 4v6.4h-1.7v-6.2c0-1.9-0.6-2.7-1.9-2.7 -1 0-1.8 0.5-2.8 1.6v7.3h-1.7V119.8zM3.7 127.7c0.9 0.7 1.8 1.2 3 1.2 1.3 0 2-0.7 2-1.6 0-1-1.2-1.5-2.3-1.9 -1.4-0.5-3-1.2-3-2.9 0-1.6 1.3-2.9 3.5-2.9 1.3 0 2.4 0.5 3.2 1.1l-0.8 1.1c-0.7-0.5-1.4-0.9-2.3-0.9 -1.3 0-1.9 0.7-1.9 1.5 0 0.9 1.1 1.3 2.3 1.8 1.5 0.5 3.1 1.1 3.1 3.1 0 1.6-1.3 3-3.7 3 -1.4 0-2.8-0.6-3.8-1.4L3.7 127.7zM17 116.3h4.2c3 0 5 1 5 4 0 2.9-2.1 4.2-5 4.2h-2.5v5.4H17V116.3zM21 123.1c2.4 0 3.5-0.9 3.5-2.8 0-2-1.2-2.6-3.5-2.6h-2.2v5.4H21zM28.8 119.8h1.4l0.1 1.8h0.1c0.7-1.3 1.7-2.1 2.9-2.1 0.4 0 0.8 0.1 1.1 0.2l-0.3 1.5c-0.3-0.1-0.6-0.2-1-0.2 -0.9 0-1.9 0.6-2.6 2.3v6.5h-1.7V119.8zM39.8 119.6c2.5 0 4.7 1.9 4.7 5.3 0 3.4-2.2 5.3-4.7 5.3s-4.7-1.9-4.7-5.3C35.1 121.5 37.3 119.6 39.8 119.6zM39.8 128.8c1.8 0 2.9-1.6 2.9-3.9 0-2.3-1.2-3.9-2.9-3.9 -1.7 0-2.9 1.6-2.9 3.9C36.9 127.2 38.1 128.8 39.8 128.8zM59 130l-3.3-5.8h-2.5v5.8h-1.8v-13.7h4.3c2.8 0 4.8 1 4.8 3.8 0 2.1-1.2 3.4-3.1 3.9l3.5 6H59zM53.2 122.8h2.3c2.1 0 3.3-0.9 3.3-2.7 0-1.8-1.2-2.4-3.3-2.4h-2.3V122.8zM67 119.6c2.6 0 4 1.9 4 4.8 0 0.4 0 0.7-0.1 0.9h-6.8c0.1 2.2 1.4 3.6 3.4 3.6 1 0 1.8-0.3 2.5-0.8l0.6 1.1c-0.9 0.6-2 1-3.3 1 -2.7 0-4.9-2-4.9-5.3S64.7 119.6 67 119.6zM69.5 124.1c0-2.1-0.9-3.2-2.5-3.2 -1.4 0-2.7 1.2-2.9 3.2H69.5zM74 129.6L74 129.6c-0.5-0.4-0.9-0.9-0.9-1.7 0-0.9 0.6-1.5 1.1-1.9v-0.1c-0.7-0.5-1.3-1.5-1.3-2.7 0-2.2 1.8-3.6 3.8-3.6 0.6 0 1.1 0.1 1.4 0.3h3.5v1.3h-2.1c0.5 0.5 0.8 1.2 0.8 2.1 0 2.2-1.6 3.5-3.7 3.5 -0.5 0-1.1-0.1-1.5-0.4 -0.4 0.3-0.6 0.6-0.6 1.2 0 0.6 0.4 1.1 1.8 1.1h2c2.4 0 3.5 0.7 3.5 2.4 0 1.9-2 3.5-5.1 3.5 -2.5 0-4.2-1-4.2-2.7C72.6 131.1 73.1 130.2 74 129.6zM77 133.5c1.9 0 3.2-1 3.2-2.1 0-0.9-0.7-1.3-2-1.3h-1.8c-0.4 0-0.9 0-1.3-0.2 -0.7 0.5-1 1.1-1 1.7C74.1 132.8 75.2 133.5 77 133.5zM78.9 123.2c0-1.5-1-2.4-2.1-2.4 -1.2 0-2.1 0.9-2.1 2.4 0 1.5 1 2.4 2.1 2.4C77.9 125.6 78.9 124.7 78.9 123.2zM83.7 119.8h1.7v6.2c0 1.9 0.6 2.7 1.9 2.7 1 0 1.8-0.5 2.7-1.7v-7.2h1.7V130h-1.4l-0.1-1.6h-0.1c-0.9 1.1-1.9 1.8-3.3 1.8 -2.1 0-3.1-1.4-3.1-4V119.8zM95.2 115.1h1.7V128c0 0.5 0.2 0.8 0.5 0.8 0.1 0 0.2 0 0.4 0l0.2 1.3c-0.2 0.1-0.5 0.2-1 0.2 -1.3 0-1.8-0.8-1.8-2.3V115.1zM106.3 123.5c0-1.3-0.4-2.5-2.1-2.5 -1.2 0-2.2 0.5-3 1.1l-0.7-1.2c0.9-0.6 2.4-1.3 4-1.3 2.5 0 3.5 1.6 3.5 4.2v6.2h-1.4l-0.1-1.2h0c-1 0.8-2.1 1.5-3.4 1.5 -1.7 0-3-1.1-3-2.9C100 125.1 101.9 124 106.3 123.5zM103.5 128.8c1 0 1.8-0.5 2.8-1.4v-2.8c-3.4 0.4-4.5 1.3-4.5 2.5C101.7 128.4 102.5 128.8 103.5 128.8zM111.2 119.8h1.4l0.1 1.8h0.1c0.7-1.3 1.7-2.1 2.9-2.1 0.4 0 0.8 0.1 1.1 0.2l-0.3 1.5c-0.3-0.1-0.6-0.2-1-0.2 -0.9 0-1.9 0.6-2.6 2.3v6.5h-1.7V119.8z"/></a></svg>