<svg xmlns="http://www.w3.org/2000/svg" version="1.2" baseProfile="tiny" x="0" y="0" viewBox="-50 50 100 100" xml:space="preserve"><text transform="matrix(1 0 0 1 7.1079 13.5215)" opacity="0">x</text><path fill="#4B4D52" d="M-13.1 67.6L-18.8 54c-12.6 5.3-22.1 14.2-27.4 27l13.6 5.7C-28.9 78-21.6 71.1-13.1 67.6z"/><path fill="#EBEBEB" d="M-35.1 100c0-4.8 0.8-9.2 2.5-13.3L-46.2 81c-5.3 12.6-5.1 25.4 0.2 38l13.6-5.7C-34.1 109.3-35.1 104.8-35.1 100z"/><path fill="#FFFFFF" d="M-32.4 113.3L-46 119c5.3 12.6 14.2 21.7 27 27l5.7-13.6C-22 128.8-28.9 122-32.4 113.3z"/><path fill="#E3FF33" d="M0.1 135c-4.8 0-9.3-0.9-13.4-2.6L-19 146c12.6 5.3 25.5 5.3 38.1 0l-5.7-13.6C9.3 134 4.7 135 0.1 135z"/><path fill="#B2FD5E" d="M32.5 113.3c-3.6 8.6-10.4 15.5-19.1 19.1l5.7 13.6c12.6-5.3 21.8-14.3 27.1-27.1L32.5 113.3z"/><path fill="#68FA9D" d="M46.1 80.9l-13.6 5.7c1.7 4.2 2.7 8.7 2.7 13.4s-1 9.2-2.7 13.3l13.7 5.6C51.4 106.2 51.3 93.6 46.1 80.9z"/><path fill="#34F8CB" d="M32.5 86.6l13.6-5.7c-5.3-12.6-14.2-21.7-27-27l-5.7 13.6C22.1 71.1 28.9 78 32.5 86.6z"/><path fill="#00FDFF" d="M0.1 65c4.8 0 9.2 0.8 13.3 2.5l5.7-13.6C6.5 48.6-6.2 48.7-18.8 54l5.7 13.6C-9.3 65.9-4.7 65 0.1 65z"/></svg>