<svg xmlns="http://www.w3.org/2000/svg" version="1.2" baseProfile="tiny" x="0" y="0" viewBox="-50 50.1 100 99.8" xml:space="preserve"><text transform="matrix(1 0 0 1 7.1079 13.5215)" opacity="0">x</text><path fill="#E1D2BD" d="M0 65.1v-15c-11 0-20.4 3-29.3 9.5l8.8 12.1C-14.8 67.6-7.7 65.1 0 65.1z"/><path fill="#806144" d="M-20.5 71.7l-8.8-12.1c-8.9 6.5-14.7 14.6-18.1 25l14.2 4.6C-30.9 82.1-26.4 75.9-20.5 71.7z"/><path fill="#524D47" d="M-34.9 100c0-3.8 0.6-7.4 1.7-10.8l-14.2-4.6c-3.4 10.5-3.4 20.4 0 30.8l14.2-4.6C-34.3 107.4-34.9 103.8-34.9 100z"/><path fill="#2E2B31" d="M-33.2 110.8l-14.2 4.6c3.4 10.5 9.2 18.5 18.1 24.9l8.8-12.1C-26.4 124-30.9 117.9-33.2 110.8z"/><path fill="#3D0A09" d="M-29.3 140.4c8.9 6.5 18.3 9.5 29.3 9.5v-15c-7.7 0-14.8-2.5-20.5-6.7L-29.3 140.4z"/><path fill="#93272B" d="M0 134.9v15c11 0 20.4-3 29.3-9.5l-8.8-12.1C14.8 132.4 7.7 134.9 0 134.9z"/><path fill="#F4D459" d="M33.2 110.8c-2.3 7.1-6.8 13.2-12.7 17.5l8.8 12.1c8.9-6.5 14.7-14.5 18.1-24.9L33.2 110.8z"/><path fill="#8ACFB2" d="M47.4 84.6l-14.2 4.6c1.1 3.4 1.7 7 1.7 10.8 0 3.8-0.6 7.4-1.7 10.8l14.2 4.7C50.9 105 50.9 95.1 47.4 84.6z"/><path fill="#D8F1E4" d="M33.2 89.2l14.2-4.6c-3.4-10.5-9.2-18.5-18.1-25l-8.8 12.1C26.4 76 30.9 82.1 33.2 89.2z"/><path fill="#FFFFFF" d="M29.3 59.6C20.4 53.2 11 50.1 0 50.1v15c7.7 0 14.8 2.4 20.5 6.6L29.3 59.6z"/></svg>