<svg xmlns="http://www.w3.org/2000/svg" xmlns:xlink="http://www.w3.org/1999/xlink" version="1.2" baseProfile="tiny" x="0" y="0" viewBox="0 0 233.6 100" xml:space="preserve"><text transform="matrix(1 0 0 1 7.1079 13.5215)" opacity="0">x</text><a xlink:href="https://www.google.com/fonts/specimen/Raleway" xlink:show="new"><path fill="#FFFFFF" d="M21.2 17.9V0.5h7.6c0.8 0 1.5 0.2 2.2 0.5 0.7 0.3 1.2 0.8 1.7 1.3 0.5 0.5 0.8 1.1 1.1 1.8 0.3 0.7 0.4 1.4 0.4 2.1 0 0.6-0.1 1.2-0.2 1.7 -0.2 0.5-0.4 1-0.7 1.5 -0.3 0.5-0.7 0.9-1.1 1.2 -0.4 0.3-0.9 0.6-1.4 0.7l4.1 6.6h-3.1l-3.8-6h-4v6H21.2zM24 9.4h4.8c0.4 0 0.7-0.1 1.1-0.3 0.3-0.2 0.6-0.4 0.8-0.7s0.4-0.6 0.5-1c0.1-0.4 0.2-0.8 0.2-1.2s-0.1-0.9-0.2-1.2c-0.2-0.4-0.4-0.7-0.6-1 -0.3-0.3-0.5-0.5-0.9-0.7 -0.3-0.2-0.7-0.3-1-0.3H24V9.4zM40.4 18.1c-0.6 0-1.2-0.1-1.7-0.3 -0.5-0.2-1-0.5-1.4-0.8 -0.4-0.4-0.7-0.8-0.9-1.3 -0.2-0.5-0.3-1-0.3-1.6 0-0.6 0.1-1.2 0.4-1.6 0.3-0.5 0.6-0.9 1.1-1.3 0.5-0.4 1.1-0.6 1.7-0.8 0.7-0.2 1.4-0.3 2.2-0.3 0.6 0 1.2 0.1 1.8 0.2s1.1 0.2 1.6 0.4V9.8c0-0.9-0.3-1.7-0.8-2.2 -0.5-0.5-1.3-0.8-2.3-0.8 -0.7 0-1.4 0.1-2 0.4 -0.7 0.3-1.3 0.6-2 1.1l-0.8-1.7c1.6-1.1 3.4-1.7 5.1-1.7 1.8 0 3.1 0.4 4.1 1.3s1.5 2.2 1.5 3.9v4.6c0 0.3 0.1 0.5 0.2 0.7 0.1 0.1 0.3 0.2 0.6 0.2v2.3c-0.3 0-0.5 0.1-0.7 0.1 -0.2 0-0.4 0-0.6 0 -0.5 0-0.9-0.2-1.2-0.4 -0.3-0.2-0.4-0.6-0.5-1l-0.1-0.8c-0.6 0.8-1.3 1.3-2.1 1.7C42.2 17.9 41.3 18.1 40.4 18.1zM41.1 16.1c0.7 0 1.3-0.1 1.8-0.4 0.6-0.2 1-0.6 1.4-1 0.3-0.3 0.5-0.6 0.5-0.9v-1.7c-0.5-0.2-0.9-0.3-1.5-0.4 -0.5-0.1-1-0.1-1.5-0.1 -1 0-1.8 0.2-2.4 0.6 -0.6 0.4-0.9 1-0.9 1.7 0 0.6 0.2 1.2 0.7 1.6C39.8 15.9 40.4 16.1 41.1 16.1zM50.8 0h2.7v14.1c0 0.5 0.1 0.8 0.4 1.1 0.2 0.3 0.6 0.4 1 0.4 0.2 0 0.4 0 0.6-0.1 0.2-0.1 0.5-0.1 0.7-0.2l0.4 2.2c-0.4 0.2-0.9 0.3-1.4 0.4 -0.5 0.1-1 0.2-1.4 0.2 -0.9 0-1.7-0.3-2.2-0.8 -0.5-0.5-0.8-1.2-0.8-2.2V0zM63.9 18.1c-1 0-1.9-0.2-2.7-0.5 -0.8-0.4-1.5-0.8-2.1-1.4 -0.6-0.6-1-1.3-1.3-2.1 -0.3-0.8-0.5-1.6-0.5-2.5 0-0.9 0.2-1.8 0.5-2.6 0.3-0.8 0.8-1.5 1.3-2.1 0.6-0.6 1.3-1.1 2.1-1.4C62 5 62.9 4.8 64 4.8c1 0 1.9 0.2 2.7 0.5 0.8 0.4 1.5 0.8 2.1 1.4s1 1.3 1.3 2.1c0.3 0.8 0.5 1.6 0.5 2.5 0 0.2 0 0.4 0 0.6 0 0.2 0 0.3 0 0.4H60.2c0 0.6 0.2 1.1 0.4 1.5 0.2 0.5 0.5 0.9 0.9 1.2 0.4 0.3 0.8 0.6 1.2 0.8 0.4 0.2 0.9 0.3 1.4 0.3 0.4 0 0.7 0 1.1-0.1 0.4-0.1 0.7-0.2 1-0.4 0.3-0.2 0.6-0.4 0.8-0.6 0.2-0.2 0.4-0.5 0.5-0.8l2.3 0.7c-0.4 1-1.2 1.7-2.2 2.4C66.5 17.8 65.3 18.1 63.9 18.1zM67.8 10.5c0-0.5-0.2-1-0.4-1.5 -0.2-0.5-0.5-0.8-0.8-1.2 -0.3-0.3-0.7-0.6-1.2-0.7 -0.5-0.2-0.9-0.3-1.4-0.3 -0.5 0-1 0.1-1.4 0.3 -0.4 0.2-0.8 0.4-1.2 0.7C61 8.2 60.7 8.6 60.5 9c-0.2 0.5-0.3 1-0.4 1.5H67.8zM88.3 5.1h2.6l-5.4 12.8h-2.2l-2.4-5.9 -2.4 5.9h-2.2L70.9 5.1h2.5l4.1 10.2 1.9-4.7 -2.2-5.4h2.2l1.5 4 1.5-4h2.2l-2.2 5.4 1.9 4.7L88.3 5.1zM95.8 18.1c-0.6 0-1.2-0.1-1.7-0.3 -0.5-0.2-1-0.5-1.4-0.8 -0.4-0.4-0.7-0.8-0.9-1.3 -0.2-0.5-0.3-1-0.3-1.6 0-0.6 0.1-1.2 0.4-1.6 0.3-0.5 0.6-0.9 1.1-1.3 0.5-0.4 1.1-0.6 1.7-0.8 0.7-0.2 1.4-0.3 2.2-0.3 0.6 0 1.2 0.1 1.8 0.2 0.6 0.1 1.1 0.2 1.6 0.4V9.8c0-0.9-0.3-1.7-0.8-2.2 -0.5-0.5-1.3-0.8-2.3-0.8 -0.7 0-1.4 0.1-2 0.4 -0.7 0.3-1.3 0.6-2 1.1l-0.8-1.7c1.6-1.1 3.4-1.7 5.1-1.7 1.8 0 3.1 0.4 4.1 1.3 1 0.9 1.5 2.2 1.5 3.9v4.6c0 0.3 0.1 0.5 0.2 0.7 0.1 0.1 0.3 0.2 0.6 0.2v2.3c-0.3 0-0.5 0.1-0.7 0.1 -0.2 0-0.4 0-0.6 0 -0.5 0-0.9-0.2-1.2-0.4 -0.3-0.2-0.4-0.6-0.5-1l-0.1-0.8c-0.6 0.8-1.3 1.3-2.1 1.7C97.6 17.9 96.7 18.1 95.8 18.1zM96.5 16.1c0.7 0 1.3-0.1 1.8-0.4 0.6-0.2 1-0.6 1.4-1 0.3-0.3 0.5-0.6 0.5-0.9v-1.7c-0.5-0.2-0.9-0.3-1.5-0.4 -0.5-0.1-1-0.1-1.5-0.1 -1 0-1.8 0.2-2.4 0.6 -0.6 0.4-0.9 1-0.9 1.7 0 0.6 0.2 1.2 0.7 1.6C95.2 15.9 95.8 16.1 96.5 16.1zM106.1 20.9c0.2 0 0.4 0.1 0.6 0.1 0.2 0 0.4 0 0.5 0 0.2 0 0.4 0 0.6-0.1 0.2 0 0.3-0.2 0.5-0.4 0.2-0.2 0.3-0.5 0.5-0.9s0.4-1 0.7-1.8l-5.2-12.8h2.8l4 10.4 3.5-10.4h2.5l-5.9 15.8c-0.3 0.9-0.8 1.5-1.5 2 -0.7 0.4-1.4 0.6-2.3 0.6 -0.5 0-0.9-0.1-1.4-0.2V20.9zM135.1 4.6c-0.2-0.2-0.4-0.4-0.7-0.6 -0.3-0.2-0.7-0.4-1.1-0.6 -0.4-0.2-0.9-0.3-1.4-0.4 -0.5-0.1-1-0.2-1.6-0.2 -1.1 0-1.9 0.2-2.4 0.6 -0.6 0.4-0.8 1-0.8 1.8 0 0.4 0.1 0.8 0.3 1 0.2 0.3 0.4 0.5 0.8 0.7 0.4 0.2 0.8 0.4 1.3 0.5 0.5 0.2 1.2 0.3 1.9 0.5 0.8 0.2 1.6 0.5 2.3 0.7 0.7 0.2 1.3 0.6 1.8 0.9 0.5 0.4 0.9 0.8 1.2 1.4 0.3 0.5 0.4 1.2 0.4 2 0 0.9-0.2 1.7-0.5 2.3 -0.3 0.6-0.8 1.2-1.4 1.6 -0.6 0.4-1.3 0.7-2 0.9 -0.8 0.2-1.6 0.3-2.4 0.3 -1.3 0-2.6-0.2-3.8-0.6 -1.2-0.4-2.4-1-3.4-1.7l1.3-2.3c0.2 0.2 0.5 0.4 0.9 0.7 0.4 0.3 0.9 0.5 1.4 0.7 0.5 0.2 1.1 0.4 1.7 0.6 0.6 0.2 1.3 0.2 2 0.2 1 0 1.9-0.2 2.4-0.6 0.6-0.4 0.9-0.9 0.9-1.7 0-0.4-0.1-0.8-0.3-1.1 -0.2-0.3-0.5-0.6-0.9-0.8 -0.4-0.2-0.9-0.4-1.5-0.6 -0.6-0.2-1.3-0.4-2-0.6 -0.9-0.2-1.6-0.5-2.3-0.7 -0.6-0.3-1.2-0.6-1.6-0.9 -0.4-0.4-0.7-0.8-1-1.3 -0.2-0.5-0.3-1.1-0.3-1.7 0-0.8 0.2-1.6 0.5-2.3 0.3-0.7 0.8-1.2 1.3-1.7 0.6-0.4 1.2-0.8 2-1 0.8-0.2 1.6-0.3 2.5-0.3 1.2 0 2.3 0.2 3.3 0.6 1 0.4 1.9 0.8 2.6 1.4L135.1 4.6zM145.3 18.1c-1 0-1.9-0.2-2.7-0.5 -0.8-0.4-1.5-0.8-2.1-1.4 -0.6-0.6-1-1.3-1.3-2.1 -0.3-0.8-0.5-1.6-0.5-2.5 0-0.9 0.2-1.8 0.5-2.6 0.3-0.8 0.8-1.5 1.3-2.1 0.6-0.6 1.3-1.1 2.1-1.4 0.8-0.4 1.7-0.5 2.7-0.5 1 0 1.9 0.2 2.7 0.5 0.8 0.4 1.5 0.8 2.1 1.4 0.6 0.6 1 1.3 1.3 2.1 0.3 0.8 0.5 1.6 0.5 2.5 0 0.2 0 0.4 0 0.6 0 0.2 0 0.3 0 0.4h-10.3c0 0.6 0.2 1.1 0.4 1.5 0.2 0.5 0.5 0.9 0.9 1.2 0.4 0.3 0.8 0.6 1.2 0.8 0.4 0.2 0.9 0.3 1.4 0.3 0.4 0 0.7 0 1.1-0.1 0.4-0.1 0.7-0.2 1-0.4 0.3-0.2 0.6-0.4 0.8-0.6 0.2-0.2 0.4-0.5 0.5-0.8l2.3 0.7c-0.4 1-1.2 1.7-2.2 2.4C147.8 17.8 146.6 18.1 145.3 18.1zM149.2 10.5c0-0.5-0.2-1-0.4-1.5 -0.2-0.5-0.5-0.8-0.8-1.2 -0.3-0.3-0.7-0.6-1.2-0.7 -0.5-0.2-0.9-0.3-1.4-0.3 -0.5 0-1 0.1-1.4 0.3 -0.4 0.2-0.8 0.4-1.2 0.7 -0.3 0.3-0.6 0.7-0.8 1.2 -0.2 0.5-0.3 1-0.4 1.5H149.2zM173.6 17.9h-2.7v-7.2c0-1.2-0.2-2.1-0.6-2.6 -0.4-0.6-1-0.8-1.7-0.8 -0.8 0-1.5 0.3-2.1 0.8 -0.6 0.6-1.1 1.3-1.4 2.2v7.6h-2.7v-7.2c0-1.2-0.2-2.1-0.6-2.6 -0.4-0.5-1-0.8-1.7-0.8s-1.4 0.3-2.1 0.8c-0.6 0.6-1.1 1.3-1.4 2.2v7.6H154V5.1h2.4v2.6c0.5-0.9 1.2-1.6 2-2.1 0.8-0.5 1.8-0.7 2.8-0.7 1.1 0 1.9 0.3 2.5 0.8 0.6 0.6 1 1.2 1.2 2.1 0.5-0.9 1.2-1.7 2-2.2 0.8-0.5 1.7-0.7 2.8-0.7 0.8 0 1.4 0.1 1.9 0.4 0.5 0.3 0.9 0.7 1.2 1.1 0.3 0.5 0.5 1 0.6 1.7 0.1 0.6 0.2 1.3 0.2 2V17.9zM176.6 3V0h2.7v3H176.6zM176.6 17.9V5.1h2.7v12.8H176.6zM189.4 18.1c-1 0-1.9-0.2-2.7-0.7 -0.8-0.5-1.4-1.1-1.9-1.9v2.3h-2.4V0h2.7v7.5c0.5-0.8 1.1-1.5 1.9-1.9 0.8-0.5 1.7-0.7 2.7-0.7 0.8 0 1.6 0.2 2.3 0.6 0.7 0.4 1.3 0.9 1.8 1.5 0.5 0.6 0.9 1.3 1.2 2.1 0.3 0.8 0.4 1.7 0.4 2.5 0 0.9-0.2 1.8-0.5 2.6 -0.3 0.8-0.7 1.5-1.3 2.1 -0.5 0.6-1.2 1.1-1.9 1.4C191 17.9 190.3 18.1 189.4 18.1zM188.7 15.8c0.6 0 1.1-0.1 1.6-0.4 0.5-0.2 0.9-0.6 1.3-0.9s0.6-0.8 0.8-1.4c0.2-0.5 0.3-1.1 0.3-1.6 0-0.6-0.1-1.1-0.3-1.7 -0.2-0.5-0.4-1-0.8-1.4 -0.3-0.4-0.7-0.7-1.2-1 -0.5-0.2-1-0.4-1.5-0.4 -0.4 0-0.8 0.1-1.2 0.2 -0.4 0.1-0.7 0.3-1 0.6 -0.3 0.3-0.6 0.5-0.9 0.9 -0.3 0.3-0.5 0.7-0.6 1.1v3.4c0.1 0.4 0.3 0.7 0.5 1 0.2 0.3 0.5 0.6 0.9 0.8 0.3 0.2 0.7 0.4 1.1 0.5C188 15.8 188.3 15.8 188.7 15.8zM203.6 18.1c-1 0-1.9-0.2-2.7-0.5 -0.8-0.4-1.5-0.8-2.1-1.4 -0.6-0.6-1-1.3-1.3-2.1 -0.3-0.8-0.5-1.7-0.5-2.5 0-0.9 0.2-1.7 0.5-2.5 0.3-0.8 0.8-1.5 1.3-2.1 0.6-0.6 1.3-1.1 2.1-1.4 0.8-0.4 1.7-0.5 2.7-0.5 1 0 1.9 0.2 2.7 0.5 0.8 0.4 1.5 0.8 2.1 1.4 0.6 0.6 1 1.3 1.3 2.1 0.3 0.8 0.5 1.7 0.5 2.5 0 0.9-0.2 1.7-0.5 2.5 -0.3 0.8-0.8 1.5-1.3 2.1 -0.6 0.6-1.3 1.1-2.1 1.4C205.5 17.9 204.6 18.1 203.6 18.1zM199.8 11.5c0 0.6 0.1 1.2 0.3 1.7 0.2 0.5 0.5 1 0.8 1.4 0.3 0.4 0.7 0.7 1.2 0.9 0.5 0.2 1 0.3 1.5 0.3 0.5 0 1-0.1 1.5-0.3 0.5-0.2 0.9-0.5 1.2-0.9 0.3-0.4 0.6-0.8 0.8-1.4 0.2-0.5 0.3-1.1 0.3-1.7 0-0.6-0.1-1.2-0.3-1.7 -0.2-0.5-0.5-1-0.8-1.4 -0.3-0.4-0.7-0.7-1.2-0.9 -0.5-0.2-1-0.3-1.5-0.3 -0.5 0-1 0.1-1.5 0.3 -0.5 0.2-0.9 0.5-1.2 0.9 -0.3 0.4-0.6 0.9-0.8 1.4C199.9 10.3 199.8 10.9 199.8 11.5zM212.6 0h2.7v14.1c0 0.5 0.1 0.8 0.4 1.1 0.2 0.3 0.6 0.4 1 0.4 0.2 0 0.4 0 0.6-0.1s0.5-0.1 0.7-0.2l0.4 2.2c-0.4 0.2-0.9 0.3-1.4 0.4 -0.5 0.1-1 0.2-1.4 0.2 -0.9 0-1.7-0.3-2.2-0.8 -0.5-0.5-0.8-1.2-0.8-2.2V0zM225.1 18.1c-0.9 0-1.7-0.2-2.4-0.5 -0.7-0.4-1.4-0.8-1.9-1.4 -0.5-0.6-1-1.3-1.3-2.1 -0.3-0.8-0.5-1.7-0.5-2.6 0-0.9 0.1-1.8 0.4-2.6 0.3-0.8 0.7-1.5 1.2-2.1 0.5-0.6 1.1-1.1 1.8-1.4 0.7-0.4 1.5-0.5 2.3-0.5 1 0 1.9 0.2 2.7 0.7 0.8 0.5 1.4 1.1 1.8 1.9V0h2.7v14.7c0 0.6 0.3 0.8 0.8 0.9v2.3c-0.3 0-0.5 0.1-0.7 0.1 -0.2 0-0.4 0-0.6 0 -1-0.1-1.6-0.6-1.7-1.4l0-1.1c-0.5 0.8-1.1 1.5-2 1.9C226.9 17.9 226 18.1 225.1 18.1zM225.7 15.8c0.3 0 0.7-0.1 1.1-0.2 0.4-0.1 0.7-0.3 1.1-0.5 0.3-0.2 0.6-0.5 0.9-0.8 0.2-0.3 0.4-0.6 0.5-1V9.9c-0.1-0.4-0.4-0.8-0.6-1.1 -0.3-0.3-0.6-0.6-0.9-0.9 -0.3-0.3-0.7-0.4-1.1-0.6 -0.4-0.1-0.8-0.2-1.1-0.2 -0.6 0-1.1 0.1-1.6 0.4 -0.5 0.2-0.9 0.6-1.2 1 -0.3 0.4-0.6 0.9-0.8 1.4 -0.2 0.5-0.3 1.1-0.3 1.6 0 0.6 0.1 1.1 0.3 1.7 0.2 0.5 0.5 1 0.8 1.4 0.4 0.4 0.8 0.7 1.3 0.9C224.6 15.7 225.2 15.8 225.7 15.8zM58.9 44.3V28.7h6.7c0.7 0 1.3 0.1 1.9 0.4 0.6 0.3 1.1 0.7 1.5 1.1 0.4 0.5 0.7 1 1 1.6 0.2 0.6 0.4 1.2 0.4 1.8 0 0.5-0.1 1.1-0.2 1.6 -0.2 0.5-0.4 1-0.7 1.4 -0.3 0.4-0.6 0.8-1 1.1 -0.4 0.3-0.9 0.5-1.4 0.6l3.8 6h-2.2L65 38.7h-4.1v5.6H58.9zM60.9 36.9h4.7c0.4 0 0.8-0.1 1.1-0.3 0.3-0.2 0.6-0.4 0.8-0.7 0.2-0.3 0.4-0.6 0.6-1 0.1-0.4 0.2-0.8 0.2-1.2 0-0.4-0.1-0.9-0.2-1.2 -0.2-0.4-0.4-0.7-0.6-1s-0.6-0.5-0.9-0.7c-0.3-0.2-0.7-0.3-1.1-0.3h-4.6V36.9zM76.1 44.5c-0.6 0-1.1-0.1-1.6-0.3 -0.5-0.2-0.9-0.4-1.3-0.7 -0.4-0.3-0.6-0.7-0.8-1.1 -0.2-0.4-0.3-0.9-0.3-1.4 0-0.5 0.1-1 0.4-1.5 0.2-0.4 0.6-0.8 1-1.1 0.4-0.3 0.9-0.6 1.5-0.7 0.6-0.2 1.2-0.3 1.9-0.3 0.6 0 1.1 0.1 1.7 0.2 0.6 0.1 1.1 0.2 1.5 0.4V37c0-0.9-0.3-1.7-0.8-2.2S78.1 34 77.1 34c-1.2 0-2.4 0.4-3.7 1.3l-0.6-1.3c0.7-0.5 1.5-0.9 2.2-1.1 0.7-0.2 1.5-0.4 2.3-0.4 1.5 0 2.6 0.4 3.5 1.2 0.9 0.8 1.3 1.9 1.3 3.4v4.7c0 0.5 0.2 0.7 0.6 0.7v1.7c-0.1 0-0.3 0.1-0.4 0.1 -0.1 0-0.3 0-0.4 0 -0.3 0-0.6-0.1-0.9-0.3 -0.3-0.2-0.5-0.5-0.5-0.9l0-0.8c-0.3 0.4-0.6 0.7-0.9 0.9 -0.3 0.3-0.7 0.5-1.1 0.7 -0.4 0.2-0.8 0.3-1.2 0.4S76.5 44.5 76.1 44.5zM76.5 43.1c0.6 0 1.2-0.1 1.8-0.4 0.6-0.3 1-0.6 1.4-1 0.3-0.3 0.4-0.6 0.4-0.9v-1.7c-0.5-0.2-0.9-0.3-1.4-0.4 -0.5-0.1-1-0.1-1.5-0.1 -1 0-1.8 0.2-2.4 0.6s-0.9 1-0.9 1.7c0 0.3 0.1 0.6 0.2 0.8 0.1 0.3 0.3 0.5 0.5 0.7 0.2 0.2 0.5 0.4 0.8 0.5C75.8 43 76.1 43.1 76.5 43.1zM85.3 28.2h1.9v13.1c0 0.4 0.1 0.8 0.3 1s0.5 0.4 1 0.4c0.2 0 0.4 0 0.6-0.1 0.2-0.1 0.4-0.1 0.6-0.2L90 44c-0.3 0.1-0.7 0.2-1.1 0.3 -0.4 0.1-0.8 0.1-1.2 0.1 -0.7 0-1.3-0.2-1.8-0.6 -0.4-0.4-0.6-1-0.6-1.8V28.2zM96.5 44.5c-0.9 0-1.7-0.2-2.4-0.5s-1.3-0.7-1.9-1.3c-0.5-0.5-0.9-1.2-1.2-1.9 -0.3-0.7-0.4-1.5-0.4-2.3 0-0.8 0.1-1.6 0.4-2.3s0.7-1.4 1.2-1.9c0.5-0.5 1.1-1 1.9-1.3 0.7-0.3 1.5-0.5 2.4-0.5 0.9 0 1.7 0.2 2.4 0.5 0.7 0.3 1.3 0.8 1.8 1.3 0.5 0.5 0.9 1.2 1.2 1.9 0.3 0.7 0.4 1.5 0.4 2.2 0 0.2 0 0.3 0 0.4 0 0.1 0 0.2 0 0.3h-9.5c0 0.6 0.2 1.1 0.4 1.6 0.2 0.5 0.5 0.9 0.9 1.2 0.4 0.3 0.8 0.6 1.2 0.8 0.4 0.2 0.9 0.3 1.4 0.3 0.4 0 0.7 0 1-0.1 0.3-0.1 0.7-0.2 0.9-0.4 0.3-0.2 0.6-0.4 0.8-0.6 0.2-0.2 0.4-0.5 0.5-0.8l1.7 0.5c-0.2 0.4-0.5 0.8-0.8 1.2 -0.3 0.4-0.7 0.7-1.1 0.9 -0.4 0.3-0.9 0.5-1.4 0.6C97.6 44.4 97.1 44.5 96.5 44.5zM100.5 37.8c0-0.5-0.2-1-0.4-1.5 -0.2-0.5-0.5-0.9-0.9-1.2 -0.3-0.3-0.7-0.6-1.2-0.8 -0.5-0.2-0.9-0.3-1.5-0.3 -0.5 0-1 0.1-1.5 0.3 -0.5 0.2-0.9 0.4-1.2 0.8 -0.3 0.3-0.6 0.7-0.8 1.2 -0.2 0.5-0.3 1-0.4 1.5H100.5zM118.5 32.8h1.9l-4.9 11.5h-1.6l-2.3-5.6 -2.3 5.6h-1.6l-4.9-11.5h1.9l4 9.6 1.9-4.8 -2-4.8h1.6l1.4 3.7 1.4-3.7h1.6l-2 4.8 1.9 4.8L118.5 32.8zM125 44.5c-0.6 0-1.1-0.1-1.6-0.3 -0.5-0.2-0.9-0.4-1.3-0.7s-0.6-0.7-0.8-1.1c-0.2-0.4-0.3-0.9-0.3-1.4 0-0.5 0.1-1 0.4-1.5 0.2-0.4 0.6-0.8 1-1.1 0.4-0.3 0.9-0.6 1.5-0.7 0.6-0.2 1.2-0.3 1.9-0.3 0.6 0 1.1 0.1 1.7 0.2 0.6 0.1 1.1 0.2 1.5 0.4V37c0-0.9-0.3-1.7-0.8-2.2 -0.5-0.5-1.3-0.8-2.2-0.8 -1.2 0-2.4 0.4-3.7 1.3l-0.6-1.3c0.7-0.5 1.5-0.9 2.2-1.1 0.7-0.2 1.5-0.4 2.3-0.4 1.5 0 2.6 0.4 3.5 1.2 0.9 0.8 1.3 1.9 1.3 3.4v4.7c0 0.5 0.2 0.7 0.6 0.7v1.7c-0.1 0-0.3 0.1-0.4 0.1 -0.1 0-0.3 0-0.4 0 -0.3 0-0.6-0.1-0.9-0.3 -0.3-0.2-0.5-0.5-0.5-0.9l0-0.8c-0.3 0.4-0.6 0.7-0.9 0.9 -0.3 0.3-0.7 0.5-1.1 0.7 -0.4 0.2-0.8 0.3-1.2 0.4S125.4 44.5 125 44.5zM125.5 43.1c0.6 0 1.2-0.1 1.8-0.4 0.6-0.3 1-0.6 1.4-1 0.3-0.3 0.4-0.6 0.4-0.9v-1.7c-0.5-0.2-0.9-0.3-1.4-0.4 -0.5-0.1-1-0.1-1.5-0.1 -1 0-1.8 0.2-2.4 0.6 -0.6 0.4-0.9 1-0.9 1.7 0 0.3 0.1 0.6 0.2 0.8s0.3 0.5 0.5 0.7c0.2 0.2 0.5 0.4 0.8 0.5C124.7 43 125.1 43.1 125.5 43.1zM134.3 47.5c0.4 0 0.7 0.1 1.1 0.1 0.1 0 0.3 0 0.4-0.1 0.1-0.1 0.2-0.2 0.4-0.4 0.1-0.2 0.3-0.5 0.5-1 0.2-0.4 0.4-1 0.7-1.7l-4.9-11.5h2l3.9 9.8 3.6-9.8h1.8l-5.6 14.5c-0.3 0.7-0.6 1.2-1.1 1.5 -0.5 0.3-1.1 0.5-1.8 0.5 -0.2 0-0.3 0-0.5 0 -0.2 0-0.3 0-0.5-0.1V47.5zM164.5 44.3V32.2l-5.2 9.3h-1.1l-5.2-9.3v12.1h-2V28.7h2.1l5.7 10.2 5.7-10.2h2.1v15.6H164.5zM175.1 44.5c-0.9 0-1.7-0.2-2.4-0.5 -0.7-0.3-1.3-0.7-1.9-1.3 -0.5-0.5-0.9-1.2-1.2-1.9 -0.3-0.7-0.4-1.5-0.4-2.3 0-0.8 0.1-1.6 0.4-2.3s0.7-1.4 1.2-1.9c0.5-0.5 1.1-1 1.9-1.3 0.7-0.3 1.5-0.5 2.4-0.5 0.9 0 1.7 0.2 2.4 0.5 0.7 0.3 1.3 0.8 1.8 1.3 0.5 0.5 0.9 1.2 1.2 1.9 0.3 0.7 0.4 1.5 0.4 2.2 0 0.2 0 0.3 0 0.4 0 0.1 0 0.2 0 0.3h-9.5c0 0.6 0.2 1.1 0.4 1.6 0.2 0.5 0.5 0.9 0.9 1.2 0.4 0.3 0.8 0.6 1.2 0.8 0.4 0.2 0.9 0.3 1.4 0.3 0.4 0 0.7 0 1-0.1 0.3-0.1 0.7-0.2 0.9-0.4 0.3-0.2 0.6-0.4 0.8-0.6 0.2-0.2 0.4-0.5 0.5-0.8l1.7 0.5c-0.2 0.4-0.5 0.8-0.8 1.2 -0.3 0.4-0.7 0.7-1.1 0.9 -0.4 0.3-0.9 0.5-1.4 0.6C176.2 44.4 175.6 44.5 175.1 44.5zM179 37.8c0-0.5-0.2-1-0.4-1.5 -0.2-0.5-0.5-0.9-0.9-1.2 -0.3-0.3-0.7-0.6-1.2-0.8 -0.5-0.2-0.9-0.3-1.5-0.3s-1 0.1-1.5 0.3c-0.5 0.2-0.9 0.4-1.2 0.8 -0.3 0.3-0.6 0.7-0.8 1.2 -0.2 0.5-0.3 1-0.4 1.5H179zM187.7 44.5c-0.8 0-1.5-0.2-2.2-0.5 -0.7-0.3-1.3-0.8-1.7-1.3 -0.5-0.5-0.9-1.2-1.1-1.9 -0.3-0.7-0.4-1.5-0.4-2.3 0-0.8 0.1-1.6 0.4-2.3 0.3-0.7 0.6-1.4 1.1-1.9 0.5-0.5 1-1 1.7-1.3 0.6-0.3 1.3-0.5 2.1-0.5 0.9 0 1.8 0.2 2.5 0.7 0.7 0.5 1.3 1.1 1.7 1.8v-6.9h1.9v13.7c0 0.5 0.2 0.7 0.6 0.7v1.7c-0.2 0-0.3 0.1-0.4 0.1 -0.1 0-0.2 0-0.3 0 -0.4 0-0.8-0.1-1.1-0.3 -0.3-0.2-0.4-0.5-0.4-0.8l0-1.1c-0.5 0.7-1.1 1.3-1.8 1.8C189.3 44.3 188.5 44.5 187.7 44.5zM188.2 42.8c0.4 0 0.7-0.1 1.1-0.2s0.7-0.3 1.1-0.6c0.3-0.2 0.6-0.5 0.9-0.8 0.2-0.3 0.4-0.7 0.5-1V37c-0.1-0.4-0.3-0.7-0.6-1 -0.3-0.3-0.6-0.6-0.9-0.9 -0.3-0.2-0.7-0.4-1.1-0.6 -0.4-0.1-0.7-0.2-1.1-0.2 -0.6 0-1.1 0.1-1.6 0.4s-0.9 0.6-1.2 1c-0.3 0.4-0.6 0.9-0.8 1.4 -0.2 0.5-0.3 1.1-0.3 1.6 0 0.6 0.1 1.1 0.3 1.6 0.2 0.5 0.5 1 0.8 1.4 0.4 0.4 0.8 0.7 1.2 0.9C187.1 42.7 187.6 42.8 188.2 42.8zM196.8 30.6v-2.4h1.9v2.4H196.8zM196.8 44.3V32.8h1.9v11.5H196.8zM205.4 44.5c-1.2 0-2.1-0.4-2.7-1.2 -0.6-0.8-0.9-2-0.9-3.6v-6.9h1.9v6.5c0 2.3 0.8 3.5 2.4 3.5 0.8 0 1.5-0.3 2.2-0.8 0.7-0.5 1.2-1.2 1.6-2.1v-7.2h1.9v9.1c0 0.5 0.2 0.7 0.6 0.7v1.7c-0.2 0-0.3 0.1-0.4 0.1 -0.1 0-0.2 0-0.3 0 -0.4 0-0.8-0.1-1-0.3 -0.2-0.2-0.4-0.5-0.4-0.8l-0.1-1.4c-0.5 0.9-1.2 1.5-2 2C207.3 44.3 206.4 44.5 205.4 44.5zM232.4 44.3h-1.9v-6.4c0-1.2-0.2-2.1-0.6-2.7 -0.4-0.6-1-0.9-1.7-0.9 -0.8 0-1.5 0.3-2.1 0.8 -0.6 0.6-1.1 1.3-1.3 2.2v6.9h-1.9v-6.4c0-1.2-0.2-2.1-0.6-2.7 -0.4-0.6-1-0.8-1.7-0.8 -0.8 0-1.5 0.3-2.1 0.8 -0.6 0.6-1.1 1.3-1.3 2.2v6.9h-1.9V32.8h1.8v2.5c0.5-0.9 1.1-1.5 1.8-2s1.6-0.7 2.5-0.7c1 0 1.7 0.3 2.3 0.8 0.6 0.5 0.9 1.2 1 2 1-1.9 2.5-2.8 4.4-2.8 0.7 0 1.2 0.1 1.7 0.4 0.4 0.2 0.8 0.6 1.1 1 0.3 0.4 0.5 0.9 0.6 1.5 0.1 0.6 0.2 1.2 0.2 1.9V44.3z"/></a><a xlink:href="https://www.google.com/fonts/specimen/Roboto" xlink:show="new"><path fill="#FFFFFF" d="M122.6 59.9h-2.9v4.9h-1.6V52.7h4c1.4 0 2.4 0.3 3.2 0.9 0.7 0.6 1.1 1.5 1.1 2.7 0 0.8-0.2 1.4-0.6 2 -0.4 0.6-1 1-1.7 1.3l2.9 5.2v0.1h-1.7L122.6 59.9zM119.8 58.6h2.5c0.8 0 1.4-0.2 1.9-0.6 0.5-0.4 0.7-1 0.7-1.7 0-0.8-0.2-1.3-0.7-1.7 -0.4-0.4-1.1-0.6-1.9-0.6h-2.5V58.6zM128.1 60.3c0-0.9 0.2-1.7 0.5-2.4 0.3-0.7 0.8-1.3 1.5-1.6 0.6-0.4 1.3-0.6 2.1-0.6 1.2 0 2.2 0.4 3 1.3 0.8 0.9 1.1 2 1.1 3.4v0.1c0 0.9-0.2 1.7-0.5 2.4 -0.3 0.7-0.8 1.2-1.4 1.6 -0.6 0.4-1.3 0.6-2.2 0.6 -1.2 0-2.2-0.4-3-1.3 -0.8-0.9-1.1-2-1.1-3.4V60.3zM129.6 60.4c0 1 0.2 1.8 0.7 2.4 0.5 0.6 1.1 0.9 1.9 0.9 0.8 0 1.4-0.3 1.9-0.9 0.5-0.6 0.7-1.5 0.7-2.6 0-1-0.2-1.8-0.7-2.4 -0.5-0.6-1.1-0.9-1.9-0.9 -0.8 0-1.4 0.3-1.8 0.9C129.8 58.4 129.6 59.3 129.6 60.4zM145.9 60.4c0 1.4-0.3 2.5-1 3.3 -0.6 0.8-1.5 1.3-2.6 1.3 -1.1 0-2-0.4-2.7-1.2l-0.1 1h-1.4V52h1.5v4.8c0.6-0.8 1.5-1.2 2.6-1.2 1.1 0 2 0.4 2.6 1.2 0.6 0.8 0.9 2 0.9 3.4V60.4zM144.4 60.3c0-1.1-0.2-1.9-0.6-2.4 -0.4-0.6-1-0.9-1.8-0.9 -1 0-1.8 0.5-2.2 1.4v3.9c0.5 0.9 1.2 1.4 2.2 1.4 0.7 0 1.3-0.3 1.7-0.9C144.1 62.3 144.4 61.4 144.4 60.3zM147.4 60.3c0-0.9 0.2-1.7 0.5-2.4 0.3-0.7 0.8-1.3 1.5-1.6 0.6-0.4 1.3-0.6 2.1-0.6 1.2 0 2.2 0.4 3 1.3 0.8 0.9 1.1 2 1.1 3.4v0.1c0 0.9-0.2 1.7-0.5 2.4 -0.3 0.7-0.8 1.2-1.4 1.6 -0.6 0.4-1.3 0.6-2.2 0.6 -1.2 0-2.2-0.4-3-1.3 -0.8-0.9-1.1-2-1.1-3.4V60.3zM149 60.4c0 1 0.2 1.8 0.7 2.4 0.5 0.6 1.1 0.9 1.9 0.9 0.8 0 1.4-0.3 1.9-0.9 0.5-0.6 0.7-1.5 0.7-2.6 0-1-0.2-1.8-0.7-2.4 -0.5-0.6-1.1-0.9-1.9-0.9 -0.8 0-1.4 0.3-1.8 0.9C149.2 58.4 149 59.3 149 60.4zM159.7 53.6v2.2h1.7V57h-1.7v5.6c0 0.4 0.1 0.6 0.2 0.8 0.2 0.2 0.4 0.3 0.8 0.3 0.2 0 0.4 0 0.7-0.1v1.2c-0.4 0.1-0.8 0.2-1.2 0.2 -0.7 0-1.2-0.2-1.6-0.6 -0.4-0.4-0.5-1-0.5-1.8V57h-1.6v-1.2h1.6v-2.2H159.7zM162.6 60.3c0-0.9 0.2-1.7 0.5-2.4 0.3-0.7 0.8-1.3 1.5-1.6 0.6-0.4 1.3-0.6 2.1-0.6 1.2 0 2.2 0.4 3 1.3 0.8 0.9 1.1 2 1.1 3.4v0.1c0 0.9-0.2 1.7-0.5 2.4 -0.3 0.7-0.8 1.2-1.4 1.6 -0.6 0.4-1.3 0.6-2.2 0.6 -1.2 0-2.2-0.4-3-1.3 -0.8-0.9-1.1-2-1.1-3.4V60.3zM164.2 60.4c0 1 0.2 1.8 0.7 2.4 0.5 0.6 1.1 0.9 1.9 0.9 0.8 0 1.4-0.3 1.9-0.9 0.5-0.6 0.7-1.5 0.7-2.6 0-1-0.2-1.8-0.7-2.4 -0.5-0.6-1.1-0.9-1.9-0.9 -0.8 0-1.4 0.3-1.8 0.9C164.4 58.4 164.2 59.3 164.2 60.4zM181.8 59.9h-2.9v4.9h-1.6V52.7h4c1.4 0 2.4 0.3 3.2 0.9 0.7 0.6 1.1 1.5 1.1 2.7 0 0.8-0.2 1.4-0.6 2 -0.4 0.6-1 1-1.7 1.3l2.9 5.2v0.1h-1.7L181.8 59.9zM178.9 58.6h2.5c0.8 0 1.4-0.2 1.9-0.6 0.5-0.4 0.7-1 0.7-1.7 0-0.8-0.2-1.3-0.7-1.7 -0.4-0.4-1.1-0.6-1.9-0.6h-2.5V58.6zM191.4 65c-1.2 0-2.2-0.4-3-1.2 -0.8-0.8-1.2-1.9-1.2-3.2v-0.3c0-0.9 0.2-1.7 0.5-2.4 0.3-0.7 0.8-1.3 1.4-1.7 0.6-0.4 1.3-0.6 2-0.6 1.2 0 2.1 0.4 2.7 1.2 0.7 0.8 1 1.9 1 3.3v0.6h-6.1c0 0.9 0.3 1.6 0.8 2.2 0.5 0.5 1.1 0.8 1.9 0.8 0.5 0 1-0.1 1.4-0.3 0.4-0.2 0.7-0.5 1-0.9l0.9 0.7C194 64.4 192.9 65 191.4 65zM191.2 56.9c-0.6 0-1.1 0.2-1.6 0.7s-0.7 1.1-0.8 1.9h4.5v-0.1c0-0.8-0.3-1.4-0.6-1.8C192.3 57.1 191.8 56.9 191.2 56.9zM196.3 60.3c0-1.4 0.3-2.5 1-3.4 0.7-0.8 1.5-1.3 2.6-1.3 1.1 0 2 0.4 2.6 1.2l0.1-1h1.4v8.8c0 1.2-0.3 2.1-1 2.8 -0.7 0.7-1.6 1-2.8 1 -0.7 0-1.3-0.1-1.9-0.4 -0.6-0.3-1.1-0.7-1.4-1.1l0.8-0.9c0.7 0.8 1.5 1.2 2.4 1.2 0.8 0 1.3-0.2 1.8-0.6 0.4-0.4 0.6-1 0.6-1.8V64c-0.6 0.7-1.5 1.1-2.5 1.1 -1.1 0-1.9-0.4-2.6-1.3C196.6 62.9 196.3 61.7 196.3 60.3zM197.9 60.4c0 1 0.2 1.8 0.6 2.4 0.4 0.6 1 0.9 1.8 0.9 1 0 1.7-0.4 2.2-1.3v-4.1c-0.5-0.9-1.2-1.3-2.1-1.3 -0.8 0-1.3 0.3-1.8 0.9C198.1 58.4 197.9 59.3 197.9 60.4zM211.9 64c-0.6 0.7-1.5 1.1-2.7 1.1 -1 0-1.7-0.3-2.2-0.8 -0.5-0.6-0.8-1.4-0.8-2.5v-5.9h1.5v5.8c0 1.4 0.6 2.1 1.7 2.1 1.2 0 2-0.4 2.4-1.3v-6.6h1.5v9.1h-1.5L211.9 64zM217.4 64.9h-1.5V52h1.5V64.9zM225.5 64.9c-0.1-0.2-0.2-0.5-0.2-1 -0.7 0.7-1.6 1.1-2.6 1.1 -0.9 0-1.6-0.3-2.2-0.8 -0.6-0.5-0.9-1.1-0.9-1.9 0-0.9 0.4-1.7 1.1-2.2 0.7-0.5 1.7-0.8 3-0.8h1.5v-0.7c0-0.5-0.2-1-0.5-1.3 -0.3-0.3-0.8-0.5-1.4-0.5 -0.6 0-1 0.1-1.4 0.4 -0.4 0.3-0.6 0.6-0.6 1h-1.6c0-0.5 0.2-0.9 0.5-1.3 0.3-0.4 0.8-0.8 1.3-1 0.5-0.2 1.2-0.4 1.8-0.4 1 0 1.9 0.3 2.5 0.8 0.6 0.5 0.9 1.2 0.9 2.2v4.2c0 0.8 0.1 1.5 0.3 2v0.1H225.5zM222.9 63.7c0.5 0 0.9-0.1 1.4-0.4 0.4-0.3 0.7-0.6 0.9-1v-1.9H224c-1.9 0-2.8 0.6-2.8 1.7 0 0.5 0.2 0.9 0.5 1.1C222 63.5 222.4 63.7 222.9 63.7zM233.6 57.2c-0.2 0-0.5-0.1-0.8-0.1 -1 0-1.7 0.4-2.1 1.3v6.4h-1.5v-9.1h1.5l0 1c0.5-0.8 1.2-1.2 2.2-1.2 0.3 0 0.5 0 0.7 0.1V57.2z"/></a><a xlink:href="http://font.ubuntu.com" xlink:show="new"><path fill="#FFFFFF" d="M98 82.7c-0.5 0-1-0.1-1.4-0.2 -0.4-0.2-0.7-0.4-0.9-0.7 -0.2-0.3-0.4-0.6-0.5-1 -0.1-0.4-0.2-0.9-0.2-1.4v-6h1.2v5.8c0 0.5 0 0.8 0.1 1.2 0.1 0.3 0.2 0.6 0.4 0.7 0.2 0.2 0.3 0.3 0.6 0.4 0.2 0.1 0.5 0.1 0.7 0.1 0.3 0 0.5 0 0.7-0.1 0.2-0.1 0.4-0.2 0.6-0.4 0.2-0.2 0.3-0.4 0.4-0.7 0.1-0.3 0.1-0.7 0.1-1.2v-5.8h1.2v6c0 0.5-0.1 1-0.2 1.4 -0.1 0.4-0.3 0.8-0.5 1 -0.2 0.3-0.5 0.5-0.9 0.7C99 82.6 98.5 82.7 98 82.7zM103.9 75.9c0.1-0.1 0.4-0.2 0.6-0.3 0.3-0.1 0.6-0.1 0.9-0.1 0.5 0 0.9 0.1 1.2 0.3 0.4 0.2 0.7 0.4 0.9 0.7 0.2 0.3 0.4 0.7 0.6 1.1 0.1 0.4 0.2 0.9 0.2 1.4 0 0.5-0.1 1-0.2 1.5 -0.2 0.4-0.4 0.8-0.7 1.1 -0.3 0.3-0.6 0.5-1 0.7 -0.4 0.2-0.8 0.2-1.3 0.2 -0.5 0-1 0-1.4-0.1 -0.4-0.1-0.8-0.2-1-0.2v-9.8l1.2-0.2V75.9zM103.9 81.4c0.2 0 0.4 0.1 0.6 0.1 0.2 0 0.4 0 0.5 0 0.7 0 1.2-0.2 1.6-0.6 0.4-0.4 0.6-1 0.6-1.9 0-0.4 0-0.7-0.1-1 -0.1-0.3-0.2-0.6-0.3-0.8s-0.3-0.4-0.6-0.5c-0.2-0.1-0.5-0.2-0.8-0.2 -0.3 0-0.6 0.1-0.8 0.2 -0.3 0.1-0.5 0.2-0.6 0.4V81.4zM115.3 82.3c-0.3 0.1-0.6 0.1-1 0.2s-0.9 0.1-1.5 0.1c-0.5 0-0.9-0.1-1.3-0.2 -0.3-0.2-0.6-0.4-0.8-0.6 -0.2-0.3-0.4-0.6-0.5-1 -0.1-0.4-0.1-0.8-0.1-1.3v-3.8h1.2v3.6c0 0.8 0.1 1.4 0.4 1.8 0.2 0.4 0.7 0.5 1.3 0.5 0.1 0 0.3 0 0.4 0 0.1 0 0.3 0 0.4 0 0.1 0 0.2 0 0.3 0 0.1 0 0.1 0 0.2 0v-5.8h1.2V82.3zM117.4 75.9c0.4-0.1 0.9-0.2 1.3-0.2s0.8-0.1 1.2-0.1c0.9 0 1.6 0.2 2.1 0.7 0.5 0.5 0.7 1.2 0.7 2.3v4h-1.2v-3.8c0-0.4 0-0.8-0.1-1.1s-0.2-0.5-0.3-0.6c-0.1-0.2-0.3-0.3-0.5-0.3 -0.2-0.1-0.4-0.1-0.7-0.1 -0.2 0-0.4 0-0.6 0 -0.2 0-0.4 0.1-0.6 0.1v5.8h-1.2V75.9zM127.3 75.7h2.9v1h-2.9v3.2c0 0.3 0 0.6 0.1 0.8 0 0.2 0.1 0.4 0.2 0.5 0.1 0.1 0.3 0.2 0.4 0.3 0.2 0 0.4 0.1 0.6 0.1 0.4 0 0.6 0 0.9-0.1 0.2-0.1 0.4-0.1 0.6-0.2l0.2 1c-0.1 0.1-0.4 0.1-0.7 0.2 -0.3 0.1-0.7 0.1-1.1 0.1 -0.5 0-0.9-0.1-1.2-0.2 -0.3-0.1-0.6-0.3-0.8-0.5 -0.2-0.2-0.3-0.5-0.4-0.9 -0.1-0.3-0.1-0.8-0.1-1.2v-3.2h-1.4v-1h1.4v-1.9l1.2-0.2V75.7zM137.3 82.3c-0.3 0.1-0.6 0.1-1.1 0.2 -0.4 0.1-0.9 0.1-1.5 0.1 -0.5 0-0.9-0.1-1.3-0.2 -0.3-0.2-0.6-0.4-0.8-0.6 -0.2-0.3-0.4-0.6-0.5-1 -0.1-0.4-0.1-0.8-0.1-1.3v-3.8h1.2v3.6c0 0.8 0.1 1.4 0.4 1.8 0.2 0.4 0.7 0.5 1.3 0.5 0.1 0 0.3 0 0.4 0 0.1 0 0.3 0 0.4 0 0.1 0 0.2 0 0.3 0 0.1 0 0.1 0 0.2 0v-5.8h1.2V82.3zM149.4 77.9l1.4-4.5h1.1c0.2 1.4 0.3 2.9 0.4 4.4 0.1 1.5 0.2 3.1 0.2 4.7h-1.2c0-0.5 0-1.1 0-1.7 0-0.6 0-1.3 0-1.9 0-0.7 0-1.3 0-2 0-0.7 0-1.3-0.1-2l-1.3 4.1h-1.1l-1.4-4.1c0 0.6 0 1.3 0 2 0 0.7 0 1.3 0 2 0 0.7 0 1.3 0 1.9 0 0.6 0 1.2 0 1.7h-1.2c0-0.7 0.1-1.5 0.1-2.3 0-0.8 0.1-1.6 0.1-2.3 0.1-0.8 0.1-1.5 0.2-2.3 0.1-0.8 0.2-1.5 0.2-2.2h1.1L149.4 77.9zM159.8 79.1c0 0.5-0.1 1-0.2 1.5 -0.2 0.4-0.4 0.8-0.6 1.1 -0.3 0.3-0.6 0.6-1 0.7 -0.4 0.2-0.8 0.3-1.2 0.3 -0.4 0-0.8-0.1-1.2-0.3 -0.4-0.2-0.7-0.4-1-0.7 -0.3-0.3-0.5-0.7-0.6-1.1 -0.2-0.4-0.2-0.9-0.2-1.5 0-0.5 0.1-1 0.2-1.5 0.2-0.4 0.4-0.8 0.6-1.1s0.6-0.5 1-0.7c0.4-0.2 0.8-0.3 1.2-0.3 0.5 0 0.9 0.1 1.2 0.3 0.4 0.2 0.7 0.4 1 0.7s0.5 0.7 0.6 1.1C159.8 78.1 159.8 78.5 159.8 79.1zM158.6 79.1c0-0.8-0.2-1.4-0.5-1.8 -0.3-0.4-0.8-0.7-1.4-0.7 -0.6 0-1 0.2-1.3 0.7 -0.3 0.4-0.5 1.1-0.5 1.8 0 0.8 0.2 1.4 0.5 1.8 0.3 0.4 0.8 0.7 1.3 0.7 0.6 0 1-0.2 1.4-0.7C158.4 80.4 158.6 79.8 158.6 79.1zM161.5 75.9c0.4-0.1 0.9-0.2 1.3-0.2 0.4-0.1 0.8-0.1 1.2-0.1 0.9 0 1.6 0.2 2.1 0.7 0.5 0.5 0.7 1.2 0.7 2.3v4h-1.2v-3.8c0-0.4 0-0.8-0.1-1.1 -0.1-0.3-0.2-0.5-0.3-0.6 -0.1-0.2-0.3-0.3-0.5-0.3 -0.2-0.1-0.4-0.1-0.7-0.1 -0.2 0-0.4 0-0.6 0 -0.2 0-0.4 0.1-0.6 0.1v5.8h-1.2V75.9zM174.5 79.1c0 0.5-0.1 1-0.2 1.5 -0.2 0.4-0.4 0.8-0.6 1.1 -0.3 0.3-0.6 0.6-1 0.7 -0.4 0.2-0.8 0.3-1.2 0.3 -0.4 0-0.8-0.1-1.2-0.3 -0.4-0.2-0.7-0.4-1-0.7 -0.3-0.3-0.5-0.7-0.6-1.1 -0.2-0.4-0.2-0.9-0.2-1.5 0-0.5 0.1-1 0.2-1.5 0.2-0.4 0.4-0.8 0.6-1.1 0.3-0.3 0.6-0.5 1-0.7 0.4-0.2 0.8-0.3 1.2-0.3 0.5 0 0.9 0.1 1.2 0.3 0.4 0.2 0.7 0.4 1 0.7s0.5 0.7 0.6 1.1C174.4 78.1 174.5 78.5 174.5 79.1zM173.3 79.1c0-0.8-0.2-1.4-0.5-1.8 -0.3-0.4-0.8-0.7-1.4-0.7 -0.6 0-1 0.2-1.3 0.7 -0.3 0.4-0.5 1.1-0.5 1.8 0 0.8 0.2 1.4 0.5 1.8 0.3 0.4 0.8 0.7 1.3 0.7 0.6 0 1-0.2 1.4-0.7C173.1 80.4 173.3 79.8 173.3 79.1zM188.8 76.2c0 0.6-0.1 1.1-0.4 1.5 -0.3 0.4-0.7 0.8-1.2 1 0.1 0.2 0.3 0.5 0.5 0.8 0.2 0.3 0.4 0.6 0.6 1 0.2 0.3 0.4 0.7 0.6 1 0.2 0.4 0.4 0.7 0.5 1.1H188c-0.3-0.7-0.6-1.4-1-2 -0.3-0.6-0.7-1.2-1-1.6 -0.1 0-0.1 0-0.3 0 -0.1 0-0.2 0-0.2 0h-1v3.6h-1.2v-9c0.1 0 0.3-0.1 0.5-0.1 0.2 0 0.4-0.1 0.6-0.1 0.2 0 0.4 0 0.6 0 0.2 0 0.4 0 0.5 0 1.1 0 1.9 0.2 2.5 0.7C188.5 74.5 188.8 75.2 188.8 76.2zM185.6 74.4c-0.2 0-0.4 0-0.7 0s-0.4 0-0.4 0v3.5h0.8c0.4 0 0.7 0 0.9-0.1 0.3 0 0.5-0.1 0.7-0.3 0.2-0.1 0.4-0.3 0.5-0.5 0.1-0.2 0.2-0.5 0.2-0.9 0-0.4-0.1-0.6-0.2-0.9 -0.1-0.2-0.2-0.4-0.4-0.5 -0.2-0.1-0.4-0.2-0.6-0.3S185.8 74.4 185.6 74.4zM193.6 75.5c0.9 0 1.6 0.3 2.1 0.9 0.5 0.6 0.7 1.4 0.7 2.6v0.4h-4.9c0 0.7 0.3 1.2 0.7 1.6 0.4 0.4 1 0.6 1.8 0.6 0.4 0 0.8 0 1.1-0.1 0.3-0.1 0.5-0.1 0.7-0.2l0.2 1c-0.1 0.1-0.4 0.2-0.8 0.2 -0.4 0.1-0.8 0.1-1.3 0.1 -0.6 0-1.1-0.1-1.6-0.3s-0.8-0.4-1.1-0.7c-0.3-0.3-0.5-0.7-0.7-1.1 -0.1-0.4-0.2-0.9-0.2-1.4 0-0.6 0.1-1.1 0.3-1.6 0.2-0.5 0.4-0.8 0.7-1.1 0.3-0.3 0.6-0.5 1-0.7S193.2 75.5 193.6 75.5zM195.2 78.4c0-0.6-0.2-1-0.5-1.4 -0.3-0.3-0.7-0.5-1.2-0.5 -0.3 0-0.5 0.1-0.8 0.2 -0.2 0.1-0.4 0.2-0.6 0.4 -0.2 0.2-0.3 0.4-0.4 0.6 -0.1 0.2-0.2 0.5-0.2 0.7H195.2zM202.2 81.9c-0.1 0.1-0.3 0.2-0.6 0.2 -0.3 0.1-0.6 0.1-1 0.1 -0.4 0-0.8-0.1-1.1-0.2 -0.3-0.1-0.7-0.3-0.9-0.6 -0.3-0.3-0.5-0.6-0.6-1 -0.2-0.4-0.2-0.9-0.2-1.5 0-0.5 0.1-1 0.2-1.4 0.1-0.4 0.3-0.8 0.6-1.1 0.3-0.3 0.6-0.5 1-0.7 0.4-0.2 0.8-0.3 1.3-0.3 0.6 0 1.1 0 1.5 0.1 0.4 0.1 0.8 0.2 1.1 0.2V82c0 1.1-0.3 1.8-0.8 2.3 -0.5 0.5-1.3 0.7-2.4 0.7 -0.4 0-0.8 0-1.2-0.1 -0.4-0.1-0.7-0.2-0.9-0.2l0.2-1.1c0.3 0.1 0.5 0.2 0.9 0.3 0.3 0.1 0.7 0.1 1.1 0.1 0.7 0 1.2-0.1 1.5-0.4 0.3-0.3 0.5-0.7 0.5-1.4V81.9zM202.2 76.7c-0.1 0-0.3-0.1-0.5-0.1s-0.5-0.1-0.8-0.1c-0.6 0-1.1 0.2-1.4 0.6 -0.3 0.4-0.5 1-0.5 1.7 0 0.4 0 0.7 0.1 1 0.1 0.3 0.2 0.5 0.4 0.7 0.2 0.2 0.3 0.3 0.6 0.4 0.2 0.1 0.4 0.1 0.7 0.1 0.3 0 0.6 0 0.9-0.1 0.3-0.1 0.5-0.2 0.7-0.3V76.7zM210.8 82.3c-0.3 0.1-0.6 0.1-1.1 0.2 -0.4 0.1-0.9 0.1-1.5 0.1 -0.5 0-1-0.1-1.3-0.2 -0.3-0.2-0.6-0.4-0.8-0.6 -0.2-0.3-0.4-0.6-0.5-1 -0.1-0.4-0.1-0.8-0.1-1.3v-3.8h1.2v3.6c0 0.8 0.1 1.4 0.4 1.8 0.2 0.4 0.7 0.5 1.3 0.5 0.1 0 0.3 0 0.4 0 0.1 0 0.3 0 0.4 0 0.1 0 0.2 0 0.3 0 0.1 0 0.1 0 0.2 0v-5.8h1.2V82.3zM216.8 82.6c-0.4 0-0.8-0.1-1.1-0.2 -0.3-0.1-0.5-0.3-0.7-0.5 -0.2-0.2-0.3-0.5-0.4-0.9 -0.1-0.3-0.1-0.8-0.1-1.2v-6.4h-2v-1h3.2v7.5c0 0.3 0 0.6 0.1 0.8 0 0.2 0.1 0.4 0.2 0.5 0.1 0.1 0.2 0.2 0.3 0.3 0.1 0 0.3 0.1 0.5 0.1 0.3 0 0.5 0 0.8-0.1 0.2-0.1 0.4-0.1 0.6-0.2l0.2 1c-0.1 0-0.1 0.1-0.2 0.1 -0.1 0-0.2 0.1-0.4 0.1 -0.1 0-0.3 0.1-0.5 0.1C217.1 82.6 217 82.6 216.8 82.6zM222.8 75.5c0.5 0 0.9 0.1 1.3 0.2 0.3 0.1 0.6 0.3 0.8 0.5 0.2 0.2 0.4 0.5 0.5 0.8 0.1 0.3 0.1 0.7 0.1 1.1v4.3c-0.3 0-0.7 0.1-1.1 0.2 -0.5 0.1-0.9 0.1-1.4 0.1 -0.4 0-0.7 0-1.1-0.1 -0.4-0.1-0.7-0.2-0.9-0.3 -0.3-0.2-0.5-0.4-0.7-0.7 -0.2-0.3-0.2-0.6-0.2-1.1 0-0.4 0.1-0.7 0.3-1 0.2-0.3 0.4-0.5 0.7-0.7 0.3-0.2 0.6-0.3 0.9-0.4 0.3-0.1 0.7-0.1 1.1-0.1 0.5 0 1 0.1 1.4 0.2v-0.3c0-0.2 0-0.4-0.1-0.6 0-0.2-0.1-0.4-0.2-0.5 -0.1-0.2-0.3-0.3-0.5-0.4 -0.2-0.1-0.5-0.1-0.8-0.1 -0.4 0-0.8 0-1.1 0.1 -0.3 0.1-0.6 0.1-0.7 0.2l-0.1-1c0.2-0.1 0.4-0.1 0.8-0.2C221.9 75.5 222.4 75.5 222.8 75.5zM222.9 81.6c0.3 0 0.6 0 0.8 0 0.2 0 0.4 0 0.6-0.1v-2c-0.2 0-0.3-0.1-0.6-0.1 -0.2 0-0.5 0-0.7 0 -0.2 0-0.4 0-0.7 0.1 -0.2 0-0.4 0.1-0.6 0.2 -0.2 0.1-0.3 0.2-0.4 0.3 -0.1 0.1-0.2 0.3-0.2 0.5 0 0.4 0.1 0.7 0.4 0.9C222 81.5 222.4 81.6 222.9 81.6zM228.1 82.5V76c1-0.3 2-0.5 3-0.5 0.3 0 0.6 0 0.9 0 0.3 0 0.6 0.1 0.9 0.2l-0.2 1.1c-0.3-0.1-0.6-0.1-0.8-0.2 -0.2 0-0.5 0-0.8 0 -0.6 0-1.2 0.1-1.8 0.2v5.7H228.1z"/></a><a xlink:href="https://www.google.com/fonts/specimen/Source+Code+Pro" xlink:show="new"><path fill="#FFFFFF" d="M80.9 95.7c0.3 0.3 0.7 0.6 1.1 0.8 0.4 0.2 0.9 0.3 1.4 0.3 0.7 0 1.2-0.1 1.6-0.4 0.4-0.3 0.6-0.7 0.6-1.2 0-0.3 0-0.5-0.1-0.6 -0.1-0.2-0.2-0.3-0.3-0.4 -0.1-0.1-0.3-0.2-0.5-0.3 -0.2-0.1-0.4-0.2-0.6-0.3L82.8 93c-0.2-0.1-0.4-0.2-0.6-0.3 -0.2-0.1-0.4-0.2-0.6-0.4 -0.2-0.2-0.3-0.3-0.4-0.6 -0.1-0.2-0.2-0.5-0.2-0.8 0-0.3 0.1-0.6 0.2-0.8s0.3-0.4 0.5-0.6c0.2-0.2 0.5-0.3 0.8-0.4 0.3-0.1 0.6-0.1 1-0.1 0.5 0 1 0.1 1.4 0.3 0.4 0.2 0.7 0.4 1 0.7l-0.3 0.4c-0.3-0.3-0.5-0.5-0.9-0.6 -0.3-0.2-0.7-0.2-1.2-0.2 -0.6 0-1 0.1-1.4 0.4 -0.3 0.3-0.5 0.6-0.5 1.1 0 0.2 0 0.4 0.1 0.6 0.1 0.2 0.2 0.3 0.4 0.4 0.2 0.1 0.3 0.2 0.5 0.3 0.2 0.1 0.3 0.2 0.5 0.2l1.2 0.5c0.2 0.1 0.5 0.2 0.7 0.3 0.2 0.1 0.4 0.3 0.6 0.4 0.2 0.2 0.3 0.4 0.4 0.6 0.1 0.2 0.1 0.5 0.1 0.8 0 0.3-0.1 0.6-0.2 0.9 -0.1 0.3-0.3 0.5-0.5 0.7 -0.2 0.2-0.5 0.3-0.9 0.5s-0.7 0.2-1.1 0.2c-0.6 0-1.2-0.1-1.6-0.3 -0.5-0.2-0.9-0.5-1.2-0.9L80.9 95.7zM87.8 94.2c0-0.5 0.1-0.9 0.2-1.3 0.2-0.4 0.4-0.7 0.6-1 0.3-0.3 0.6-0.5 0.9-0.6 0.3-0.1 0.7-0.2 1.1-0.2s0.7 0.1 1.1 0.2c0.3 0.1 0.7 0.3 0.9 0.6 0.3 0.3 0.5 0.6 0.6 1 0.2 0.4 0.2 0.8 0.2 1.3s-0.1 0.9-0.2 1.3c-0.2 0.4-0.4 0.7-0.6 1 -0.3 0.3-0.6 0.5-0.9 0.6 -0.3 0.1-0.7 0.2-1.1 0.2s-0.7-0.1-1.1-0.2 -0.7-0.3-0.9-0.6 -0.5-0.6-0.6-1C87.9 95.2 87.8 94.7 87.8 94.2zM88.4 94.2c0 0.4 0.1 0.7 0.2 1.1 0.1 0.3 0.3 0.6 0.5 0.8 0.2 0.2 0.4 0.4 0.7 0.5 0.3 0.1 0.6 0.2 0.9 0.2 0.3 0 0.6-0.1 0.9-0.2 0.3-0.1 0.5-0.3 0.7-0.5 0.2-0.2 0.4-0.5 0.5-0.8 0.1-0.3 0.2-0.7 0.2-1.1 0-0.4-0.1-0.7-0.2-1.1 -0.1-0.3-0.3-0.6-0.5-0.8 -0.2-0.2-0.4-0.4-0.7-0.5 -0.3-0.1-0.6-0.2-0.9-0.2 -0.3 0-0.6 0.1-0.9 0.2 -0.3 0.1-0.5 0.3-0.7 0.5 -0.2 0.2-0.4 0.5-0.5 0.8C88.4 93.5 88.4 93.9 88.4 94.2zM100.4 97.2h-0.5L99.9 96h0c-0.3 0.4-0.7 0.7-1 0.9 -0.4 0.2-0.8 0.4-1.3 0.4 -0.7 0-1.2-0.2-1.6-0.6 -0.3-0.4-0.5-1-0.5-1.8v-3.7h0.5v3.6c0 0.7 0.1 1.2 0.4 1.5 0.3 0.3 0.7 0.5 1.3 0.5 0.2 0 0.4 0 0.6-0.1 0.2-0.1 0.4-0.1 0.6-0.2 0.2-0.1 0.4-0.2 0.5-0.4 0.2-0.2 0.4-0.4 0.6-0.6v-4.2h0.5V97.2zM103.7 91.3h0.5l0.1 1.4h0c0.3-0.5 0.7-0.8 1.2-1.1 0.5-0.3 1-0.4 1.6-0.4 0.2 0 0.4 0 0.6 0 0.2 0 0.4 0.1 0.6 0.2l-0.1 0.5c-0.2-0.1-0.4-0.1-0.6-0.2 -0.2 0-0.3 0-0.6 0 -0.5 0-1 0.1-1.4 0.4 -0.4 0.3-0.9 0.8-1.3 1.4v3.7h-0.6V91.3zM110.1 94.2c0-0.5 0.1-0.9 0.3-1.3 0.2-0.4 0.4-0.7 0.7-1 0.3-0.3 0.6-0.5 1-0.6 0.4-0.1 0.8-0.2 1.2-0.2 0.5 0 0.9 0.1 1.2 0.3 0.3 0.2 0.6 0.4 0.9 0.6l-0.3 0.4c-0.3-0.2-0.5-0.4-0.8-0.6 -0.3-0.1-0.6-0.2-1-0.2 -0.4 0-0.8 0.1-1.1 0.2 -0.3 0.1-0.6 0.3-0.8 0.5 -0.2 0.2-0.4 0.5-0.5 0.8 -0.1 0.3-0.2 0.7-0.2 1.1 0 0.4 0.1 0.7 0.2 1.1 0.1 0.3 0.3 0.6 0.5 0.8 0.2 0.2 0.5 0.4 0.8 0.5 0.3 0.1 0.7 0.2 1.1 0.2 0.4 0 0.8-0.1 1.1-0.2 0.3-0.2 0.6-0.4 0.9-0.6l0.3 0.4c-0.3 0.3-0.6 0.5-1 0.7s-0.8 0.3-1.3 0.3c-0.5 0-0.9-0.1-1.3-0.2s-0.7-0.3-1-0.6c-0.3-0.3-0.5-0.6-0.7-1C110.2 95.2 110.1 94.7 110.1 94.2zM117.3 94.2c0-0.5 0.1-0.9 0.3-1.3 0.2-0.4 0.4-0.7 0.7-1 0.3-0.3 0.6-0.5 0.9-0.6 0.4-0.1 0.7-0.2 1.1-0.2 0.4 0 0.8 0.1 1.1 0.2 0.3 0.1 0.6 0.3 0.8 0.5 0.2 0.2 0.4 0.5 0.5 0.8 0.1 0.3 0.2 0.7 0.2 1.1 0 0.1 0 0.1 0 0.2 0 0.1 0 0.1 0 0.2h-5c0 0.4 0.1 0.7 0.2 1 0.1 0.3 0.3 0.6 0.5 0.8 0.2 0.2 0.5 0.4 0.8 0.5s0.7 0.2 1 0.2c0.4 0 0.7-0.1 1.1-0.2 0.3-0.1 0.6-0.3 0.9-0.5l0.2 0.4c-0.3 0.2-0.6 0.3-0.9 0.5 -0.4 0.1-0.8 0.2-1.3 0.2 -0.4 0-0.8-0.1-1.2-0.2 -0.4-0.1-0.7-0.3-1-0.6s-0.5-0.6-0.7-1C117.4 95.2 117.3 94.7 117.3 94.2zM122.3 93.9c0-0.8-0.2-1.3-0.6-1.7 -0.4-0.4-0.9-0.6-1.5-0.6 -0.3 0-0.6 0.1-0.8 0.2 -0.3 0.1-0.5 0.3-0.7 0.5 -0.2 0.2-0.4 0.4-0.5 0.7 -0.1 0.3-0.2 0.6-0.3 0.9H122.3zM131.9 93.1c0-0.6 0.1-1.2 0.3-1.7 0.2-0.5 0.4-1 0.7-1.3 0.3-0.4 0.7-0.6 1.1-0.8 0.4-0.2 0.9-0.3 1.4-0.3 0.5 0 0.9 0.1 1.2 0.3 0.4 0.2 0.6 0.4 0.9 0.7l-0.3 0.4c-0.2-0.2-0.5-0.4-0.8-0.6 -0.3-0.2-0.6-0.2-1-0.2 -0.4 0-0.8 0.1-1.2 0.3 -0.4 0.2-0.7 0.4-0.9 0.7 -0.2 0.3-0.4 0.7-0.6 1.1 -0.1 0.4-0.2 1-0.2 1.5 0 0.6 0.1 1.1 0.2 1.5 0.1 0.5 0.3 0.8 0.6 1.2 0.2 0.3 0.5 0.6 0.9 0.7 0.4 0.2 0.7 0.3 1.2 0.3 0.4 0 0.8-0.1 1.1-0.2 0.3-0.2 0.6-0.4 0.9-0.7l0.3 0.4c-0.3 0.4-0.7 0.6-1 0.8 -0.4 0.2-0.8 0.3-1.4 0.3 -0.5 0-1-0.1-1.4-0.3 -0.4-0.2-0.8-0.5-1.1-0.8 -0.3-0.4-0.5-0.8-0.7-1.3C132 94.3 131.9 93.8 131.9 93.1zM139.2 94.2c0-0.5 0.1-0.9 0.2-1.3 0.2-0.4 0.4-0.7 0.6-1 0.3-0.3 0.6-0.5 0.9-0.6 0.3-0.1 0.7-0.2 1.1-0.2s0.7 0.1 1.1 0.2c0.3 0.1 0.7 0.3 0.9 0.6 0.3 0.3 0.5 0.6 0.6 1 0.2 0.4 0.2 0.8 0.2 1.3s-0.1 0.9-0.2 1.3c-0.2 0.4-0.4 0.7-0.6 1 -0.3 0.3-0.6 0.5-0.9 0.6 -0.3 0.1-0.7 0.2-1.1 0.2s-0.7-0.1-1.1-0.2c-0.3-0.1-0.7-0.3-0.9-0.6s-0.5-0.6-0.6-1C139.3 95.2 139.2 94.7 139.2 94.2zM139.8 94.2c0 0.4 0.1 0.7 0.2 1.1 0.1 0.3 0.3 0.6 0.5 0.8 0.2 0.2 0.4 0.4 0.7 0.5 0.3 0.1 0.6 0.2 0.9 0.2 0.3 0 0.6-0.1 0.9-0.2 0.3-0.1 0.5-0.3 0.7-0.5 0.2-0.2 0.4-0.5 0.5-0.8 0.1-0.3 0.2-0.7 0.2-1.1 0-0.4-0.1-0.7-0.2-1.1 -0.1-0.3-0.3-0.6-0.5-0.8 -0.2-0.2-0.4-0.4-0.7-0.5s-0.6-0.2-0.9-0.2c-0.3 0-0.6 0.1-0.9 0.2 -0.3 0.1-0.5 0.3-0.7 0.5 -0.2 0.2-0.4 0.5-0.5 0.8C139.8 93.5 139.8 93.9 139.8 94.2zM146.6 94.2c0-0.5 0.1-0.9 0.2-1.3 0.2-0.4 0.4-0.7 0.6-1 0.3-0.3 0.6-0.5 0.9-0.6 0.3-0.1 0.7-0.2 1-0.2 0.4 0 0.7 0.1 1 0.2s0.6 0.4 0.9 0.6l0-1.2v-2.4h0.6v8.8h-0.5l-0.1-0.9h0c-0.3 0.3-0.6 0.5-0.9 0.7 -0.4 0.2-0.7 0.3-1.2 0.3 -0.4 0-0.7-0.1-1.1-0.2 -0.3-0.1-0.6-0.3-0.8-0.6 -0.2-0.3-0.4-0.6-0.5-1S146.6 94.7 146.6 94.2zM147.1 94.2c0 0.4 0 0.7 0.1 1.1 0.1 0.3 0.2 0.6 0.4 0.8s0.4 0.4 0.7 0.5c0.3 0.1 0.6 0.2 0.9 0.2 0.3 0 0.7-0.1 1-0.3 0.3-0.2 0.7-0.5 1-0.8v-3.3c-0.3-0.3-0.7-0.5-1-0.7 -0.3-0.1-0.6-0.2-0.9-0.2 -0.3 0-0.6 0.1-0.9 0.2 -0.3 0.1-0.5 0.3-0.7 0.6 -0.2 0.2-0.4 0.5-0.5 0.8C147.2 93.5 147.1 93.9 147.1 94.2zM154 94.2c0-0.5 0.1-0.9 0.3-1.3 0.2-0.4 0.4-0.7 0.7-1 0.3-0.3 0.6-0.5 0.9-0.6 0.4-0.1 0.7-0.2 1.1-0.2 0.4 0 0.8 0.1 1.1 0.2 0.3 0.1 0.6 0.3 0.8 0.5 0.2 0.2 0.4 0.5 0.5 0.8 0.1 0.3 0.2 0.7 0.2 1.1 0 0.1 0 0.1 0 0.2 0 0.1 0 0.1 0 0.2h-5c0 0.4 0.1 0.7 0.2 1 0.1 0.3 0.3 0.6 0.5 0.8 0.2 0.2 0.5 0.4 0.8 0.5 0.3 0.1 0.7 0.2 1 0.2 0.4 0 0.7-0.1 1.1-0.2 0.3-0.1 0.6-0.3 0.9-0.5l0.2 0.4c-0.3 0.2-0.6 0.3-0.9 0.5 -0.4 0.1-0.8 0.2-1.3 0.2 -0.4 0-0.8-0.1-1.2-0.2 -0.4-0.1-0.7-0.3-1-0.6 -0.3-0.3-0.5-0.6-0.7-1S154 94.7 154 94.2zM159.1 93.9c0-0.8-0.2-1.3-0.6-1.7 -0.4-0.4-0.9-0.6-1.5-0.6 -0.3 0-0.6 0.1-0.8 0.2 -0.3 0.1-0.5 0.3-0.7 0.5 -0.2 0.2-0.4 0.4-0.5 0.7 -0.1 0.3-0.2 0.6-0.3 0.9H159.1zM169.2 89.1h2.2c0.4 0 0.9 0 1.2 0.1s0.7 0.2 0.9 0.4c0.2 0.2 0.4 0.4 0.6 0.7 0.1 0.3 0.2 0.6 0.2 1.1 0 0.8-0.3 1.4-0.8 1.8 -0.5 0.4-1.2 0.6-2.1 0.6h-1.6v3.5h-0.6V89.1zM171.3 93.2c0.8 0 1.4-0.1 1.8-0.4 0.4-0.3 0.6-0.8 0.6-1.4 0-0.3-0.1-0.6-0.2-0.9 -0.1-0.2-0.3-0.4-0.5-0.5 -0.2-0.1-0.5-0.2-0.8-0.3 -0.3-0.1-0.7-0.1-1.1-0.1h-1.5v3.6H171.3zM177.1 91.3h0.5l0.1 1.4h0c0.3-0.5 0.7-0.8 1.2-1.1 0.5-0.3 1-0.4 1.6-0.4 0.2 0 0.4 0 0.6 0 0.2 0 0.4 0.1 0.6 0.2l-0.1 0.5c-0.2-0.1-0.4-0.1-0.6-0.2 -0.2 0-0.3 0-0.6 0 -0.5 0-1 0.1-1.4 0.4 -0.4 0.3-0.9 0.8-1.3 1.4v3.7h-0.6V91.3zM183.3 94.2c0-0.5 0.1-0.9 0.2-1.3 0.2-0.4 0.4-0.7 0.6-1 0.3-0.3 0.6-0.5 0.9-0.6 0.3-0.1 0.7-0.2 1.1-0.2s0.7 0.1 1.1 0.2c0.3 0.1 0.7 0.3 0.9 0.6 0.3 0.3 0.5 0.6 0.6 1 0.2 0.4 0.2 0.8 0.2 1.3s-0.1 0.9-0.2 1.3c-0.2 0.4-0.4 0.7-0.6 1 -0.3 0.3-0.6 0.5-0.9 0.6 -0.3 0.1-0.7 0.2-1.1 0.2s-0.7-0.1-1.1-0.2c-0.3-0.1-0.7-0.3-0.9-0.6s-0.5-0.6-0.6-1C183.3 95.2 183.3 94.7 183.3 94.2zM183.8 94.2c0 0.4 0.1 0.7 0.2 1.1 0.1 0.3 0.3 0.6 0.5 0.8 0.2 0.2 0.4 0.4 0.7 0.5 0.3 0.1 0.6 0.2 0.9 0.2 0.3 0 0.6-0.1 0.9-0.2 0.3-0.1 0.5-0.3 0.7-0.5 0.2-0.2 0.4-0.5 0.5-0.8 0.1-0.3 0.2-0.7 0.2-1.1 0-0.4-0.1-0.7-0.2-1.1 -0.1-0.3-0.3-0.6-0.5-0.8 -0.2-0.2-0.4-0.4-0.7-0.5s-0.6-0.2-0.9-0.2c-0.3 0-0.6 0.1-0.9 0.2 -0.3 0.1-0.5 0.3-0.7 0.5 -0.2 0.2-0.4 0.5-0.5 0.8C183.9 93.5 183.8 93.9 183.8 94.2zM199 89.1h0.5v7.6h4.2v0.5H199V89.1zM205.7 91.3h3.5v5.9h-0.5v-5.4h-2.9V91.3zM208.7 89.9c-0.2 0-0.3-0.1-0.4-0.2 -0.1-0.1-0.2-0.2-0.2-0.4 0-0.2 0.1-0.3 0.2-0.4 0.1-0.1 0.2-0.2 0.4-0.2 0.2 0 0.3 0.1 0.4 0.2 0.1 0.1 0.2 0.2 0.2 0.4 0 0.2-0.1 0.3-0.2 0.4C209.1 89.8 208.9 89.9 208.7 89.9zM212.9 98.3c0-0.2 0.1-0.5 0.3-0.7 0.2-0.2 0.4-0.5 0.7-0.7v0c-0.1-0.1-0.3-0.2-0.4-0.3 -0.1-0.2-0.2-0.4-0.2-0.6 0-0.2 0.1-0.4 0.2-0.6 0.1-0.2 0.3-0.4 0.5-0.5v0c-0.2-0.2-0.4-0.4-0.5-0.6 -0.1-0.2-0.2-0.6-0.2-0.9 0-0.3 0.1-0.6 0.2-0.8s0.3-0.5 0.5-0.7c0.2-0.2 0.4-0.3 0.7-0.4 0.3-0.1 0.5-0.2 0.8-0.2 0.3 0 0.6 0 0.8 0.1h2.4v0.5h-1.8c0.2 0.2 0.4 0.4 0.5 0.6 0.1 0.3 0.2 0.5 0.2 0.9 0 0.3-0.1 0.6-0.2 0.8 -0.1 0.2-0.3 0.5-0.5 0.6 -0.2 0.2-0.4 0.3-0.7 0.4 -0.3 0.1-0.5 0.2-0.8 0.2 -0.2 0-0.4 0-0.6-0.1 -0.2 0-0.4-0.1-0.6-0.2 -0.2 0.1-0.3 0.2-0.4 0.4 -0.1 0.1-0.2 0.3-0.2 0.5 0 0.3 0.1 0.5 0.4 0.6 0.2 0.1 0.6 0.2 1 0.2h1.5c0.8 0 1.3 0.1 1.6 0.3 0.3 0.2 0.5 0.5 0.5 1 0 0.3-0.1 0.5-0.2 0.7s-0.4 0.5-0.6 0.6c-0.3 0.2-0.6 0.3-1 0.5s-0.8 0.2-1.3 0.2c-0.9 0-1.6-0.2-2.1-0.5C213.1 99.2 212.9 98.8 212.9 98.3zM213.4 98.3c0 0.4 0.2 0.7 0.5 0.9 0.4 0.2 0.9 0.4 1.7 0.4 0.4 0 0.8 0 1.1-0.1 0.3-0.1 0.6-0.2 0.8-0.3s0.4-0.3 0.5-0.5 0.2-0.4 0.2-0.6c0-0.3-0.1-0.6-0.4-0.7 -0.3-0.1-0.6-0.2-1.2-0.2h-1.4c-0.1 0-0.3 0-0.5 0 -0.2 0-0.3 0-0.4-0.1 -0.4 0.2-0.6 0.4-0.7 0.6C213.4 97.9 213.4 98.1 213.4 98.3zM215.4 94.9c0.2 0 0.4 0 0.6-0.1 0.2-0.1 0.4-0.2 0.5-0.3 0.2-0.1 0.3-0.3 0.4-0.5 0.1-0.2 0.1-0.4 0.1-0.7 0-0.2 0-0.5-0.1-0.7 -0.1-0.2-0.2-0.4-0.4-0.5 -0.2-0.1-0.3-0.3-0.5-0.3 -0.2-0.1-0.4-0.1-0.6-0.1 -0.2 0-0.4 0-0.6 0.1 -0.2 0.1-0.4 0.2-0.5 0.3s-0.3 0.3-0.3 0.5c-0.1 0.2-0.1 0.4-0.1 0.7 0 0.2 0 0.5 0.1 0.7 0.1 0.2 0.2 0.4 0.3 0.5s0.3 0.3 0.5 0.3C215 94.8 215.2 94.9 215.4 94.9zM220.5 88.4h0.6v2.5l0 1.5c0.4-0.4 0.7-0.7 1.1-0.9 0.4-0.2 0.8-0.4 1.3-0.4 1.4 0 2.1 0.8 2.1 2.4v3.7h-0.6v-3.6c0-0.7-0.1-1.2-0.4-1.5 -0.3-0.3-0.7-0.5-1.3-0.5 -0.2 0-0.4 0-0.6 0.1 -0.2 0.1-0.4 0.1-0.5 0.2 -0.2 0.1-0.4 0.2-0.5 0.4 -0.2 0.2-0.4 0.4-0.6 0.6v4.2h-0.6V88.4zM229.3 91.8h-1.8v-0.4l1.8 0 0.1-1.7h0.5v1.7h3.1v0.5h-3.1V95c0 0.3 0 0.5 0.1 0.8 0 0.2 0.1 0.4 0.3 0.6 0.1 0.2 0.3 0.3 0.5 0.4 0.2 0.1 0.5 0.1 0.8 0.1 0.3 0 0.6 0 0.8-0.1 0.3-0.1 0.5-0.1 0.7-0.2l0.1 0.4c-0.3 0.1-0.6 0.2-0.9 0.3 -0.3 0.1-0.6 0.1-0.9 0.1 -0.4 0-0.7-0.1-1-0.2 -0.3-0.1-0.5-0.3-0.6-0.5 -0.2-0.2-0.3-0.5-0.3-0.7 -0.1-0.3-0.1-0.6-0.1-1V91.8z"/></a></svg>