<svg viewBox="0 0 1028 75" xmlns="http://www.w3.org/2000/svg">
    <g fill="#FFFFFF" fill-rule="evenodd">
        <g class="fill" fill-opacity="0.25">
            <path d="M31.2,25.536 C31.2,28.032 32.544,28.8 35.04,28.8 L44.16,28.8 C46.656,28.8 48,28.032 48,25.536 C47.904,10.656 38.4,0 24,0 C9.6,0 0,10.656 0,26.496 L0,48.096 C0,63.936 9.6,74.496 24,74.496 C38.4,74.496 48,63.936 48,48.096 L48,38.688 C48,36.192 46.656,34.848 44.16,34.848 L25.44,34.848 C22.944,34.848 21.6,36.192 21.6,38.688 L21.6,47.808 C21.6,50.304 22.944,51.648 25.44,51.648 L29.568,51.648 C30.24,51.648 30.624,52.032 30.432,52.704 C29.28,55.872 27.072,57.6 24,57.6 C19.68,57.6 16.8,53.856 16.8,48.096 L16.8,26.496 C16.8,20.736 19.68,16.896 24,16.896 C28.32,16.896 31.2,20.736 31.2,25.536 Z"></path>
            <path d="M92.776,62.496 C93.352,62.496 93.736,62.784 93.928,63.264 L96.136,70.08 C96.904,72.192 98.248,73.248 100.552,73.248 L110.632,73.248 C113.416,73.248 114.664,71.52 113.8,68.832 L92.392,4.416 C91.624,2.208 90.28,1.248 88.072,1.248 L83.752,1.248 C81.544,1.248 80.2,2.208 79.432,4.416 L57.928,68.832 C57.064,71.52 58.312,73.248 61.096,73.248 L71.368,73.248 C73.576,73.248 74.92,72.288 75.688,70.176 L78.088,63.264 C78.28,62.784 78.664,62.496 79.24,62.496 L92.776,62.496 Z M85.384,39.84 C85.768,38.976 86.344,38.976 86.632,39.84 L88.264,44.64 C88.456,45.312 88.168,45.696 87.496,45.696 L84.52,45.696 C83.848,45.696 83.56,45.312 83.752,44.64 L85.384,39.84 Z"></path>
            <path d="M167.888,31.104 C168.656,28.608 169.232,25.824 169.232,22.848 C169.232,9.888 160.592,1.248 147.632,1.248 L129.872,1.248 C127.376,1.248 126.032,2.592 126.032,5.088 L126.032,69.408 C126.032,71.904 127.376,73.248 129.872,73.248 L150.032,73.248 C164.432,73.248 174.032,63.648 174.032,49.248 C174.032,42.528 171.824,37.248 168.272,33.12 C167.696,32.448 167.6,31.968 167.888,31.104 Z M143.792,56.448 C143.216,56.448 142.832,56.064 142.832,55.488 L142.832,43.008 C142.832,42.336 143.216,42.048 143.792,42.048 L150.032,42.048 C154.352,42.048 157.232,44.928 157.232,49.248 C157.232,53.568 154.352,56.448 150.032,56.448 L143.792,56.448 Z M143.792,25.248 C143.216,25.248 142.832,24.864 142.832,24.288 L142.832,19.008 C142.832,18.336 143.216,18.048 143.792,18.048 L147.632,18.048 C150.512,18.048 152.432,19.968 152.432,22.848 C152.432,23.52 152.336,24 152.24,24.48 C152.048,25.056 151.664,25.248 151.088,25.248 L143.792,25.248 Z"></path>
            <path d="M237.912,25.248 C237.912,10.848 228.312,1.248 213.912,1.248 L193.752,1.248 C191.256,1.248 189.912,2.592 189.912,5.088 L189.912,69.408 C189.912,71.904 191.256,73.248 193.752,73.248 L202.872,73.248 C205.368,73.248 206.712,71.904 206.712,69.408 L206.712,50.208 C206.712,49.632 207.096,49.248 207.672,49.248 L210.648,49.248 C211.512,49.248 211.992,49.632 212.28,50.4 L219.096,70.176 C219.864,72.288 221.208,73.248 223.416,73.248 L233.304,73.248 C236.088,73.248 237.336,71.52 236.472,68.832 L228.888,46.08 C228.6,45.312 228.792,44.736 229.464,44.16 C234.648,40.032 237.912,33.408 237.912,25.248 Z M207.672,32.448 C207.096,32.448 206.712,32.064 206.712,31.488 L206.712,19.008 C206.712,18.336 207.096,18.048 207.672,18.048 L213.912,18.048 C218.232,18.048 221.112,20.928 221.112,25.248 C221.112,29.568 218.232,32.448 213.912,32.448 L207.672,32.448 Z"></path>
            <path d="M257.152,1.248 C254.656,1.248 253.312,2.592 253.312,5.088 L253.312,69.408 C253.312,71.904 254.656,73.248 257.152,73.248 L266.272,73.248 C268.768,73.248 270.112,71.904 270.112,69.408 L270.112,5.088 C270.112,2.592 268.768,1.248 266.272,1.248 L257.152,1.248 Z"></path>
            <path d="M322.472,46.848 C324.968,46.848 326.312,45.504 326.312,43.008 L326.312,33.888 C326.312,31.392 324.968,30.048 322.472,30.048 L308.072,30.048 C307.496,30.048 307.112,29.664 307.112,29.088 L307.112,19.008 C307.112,18.336 307.4,18.048 308.072,18.048 L327.272,18.048 C329.768,18.048 331.112,16.704 331.112,14.208 L331.112,5.088 C331.112,2.592 329.768,1.248 327.272,1.248 L294.152,1.248 C291.656,1.248 290.312,2.592 290.312,5.088 L290.312,69.408 C290.312,71.904 291.656,73.248 294.152,73.248 L327.272,73.248 C329.768,73.248 331.112,71.904 331.112,69.408 L331.112,60.288 C331.112,57.792 329.768,56.448 327.272,56.448 L308.072,56.448 C307.496,56.448 307.112,56.064 307.112,55.488 L307.112,47.808 C307.112,47.136 307.496,46.848 308.072,46.848 L322.472,46.848 Z"></path>
            <path d="M352.752,1.248 C350.256,1.248 348.912,2.592 348.912,5.088 L348.912,69.408 C348.912,71.904 350.256,73.248 352.752,73.248 L383.472,73.248 C385.968,73.248 387.312,71.904 387.312,69.408 L387.312,60.288 C387.312,57.792 385.968,56.448 383.472,56.448 L366.672,56.448 C366,56.448 365.712,56.16 365.712,55.488 L365.712,5.088 C365.712,2.592 364.368,1.248 361.872,1.248 L352.752,1.248 Z"></path>
            <path d="M408.952,1.248 C406.456,1.248 405.112,2.592 405.112,5.088 L405.112,69.408 C405.112,71.904 406.456,73.248 408.952,73.248 L439.672,73.248 C442.168,73.248 443.512,71.904 443.512,69.408 L443.512,60.288 C443.512,57.792 442.168,56.448 439.672,56.448 L422.872,56.448 C422.2,56.448 421.912,56.16 421.912,55.488 L421.912,5.088 C421.912,2.592 420.568,1.248 418.072,1.248 L408.952,1.248 Z"></path>
            <path d="M493.472,46.848 C495.968,46.848 497.312,45.504 497.312,43.008 L497.312,33.888 C497.312,31.392 495.968,30.048 493.472,30.048 L479.072,30.048 C478.496,30.048 478.112,29.664 478.112,29.088 L478.112,19.008 C478.112,18.336 478.4,18.048 479.072,18.048 L498.272,18.048 C500.768,18.048 502.112,16.704 502.112,14.208 L502.112,5.088 C502.112,2.592 500.768,1.248 498.272,1.248 L465.152,1.248 C462.656,1.248 461.312,2.592 461.312,5.088 L461.312,69.408 C461.312,71.904 462.656,73.248 465.152,73.248 L498.272,73.248 C500.768,73.248 502.112,71.904 502.112,69.408 L502.112,60.288 C502.112,57.792 500.768,56.448 498.272,56.448 L479.072,56.448 C478.496,56.448 478.112,56.064 478.112,55.488 L478.112,47.808 C478.112,47.136 478.496,46.848 479.072,46.848 L493.472,46.848 Z"></path>
            <path d="M523.752,1.248 C521.256,1.248 519.912,2.592 519.912,5.088 L519.912,69.408 C519.912,71.904 521.256,73.248 523.752,73.248 L532.872,73.248 C535.368,73.248 536.712,71.904 536.712,69.408 L536.712,5.088 C536.712,2.592 535.368,1.248 532.872,1.248 L523.752,1.248 Z"></path>
            <path d="M582.064,19.968 C582.064,22.464 583.408,23.328 585.904,23.328 L595.12,23.328 C597.616,23.328 598.96,22.464 598.96,19.968 C598.864,8.928 589.552,0 577.36,0 C565.072,0 555.76,8.928 555.76,20.928 L555.76,22.176 C555.76,34.176 565.072,43.2 577.36,43.2 C580.624,43.2 583.312,46.08 583.312,50.016 L583.312,51.168 C583.312,54.72 580.624,57.6 577.36,57.6 C573.904,57.6 571.312,54.72 571.312,52.128 C571.312,49.632 569.968,48.768 567.472,48.768 L558.352,48.768 C555.856,48.768 554.512,49.632 554.512,52.128 C554.608,64.416 564.4,74.496 577.36,74.496 C591.184,74.496 600.112,63.36 600.112,51.168 L600.112,50.016 C600.112,36.576 590.32,26.496 577.36,26.496 C574.672,26.496 572.464,24.48 572.464,22.176 L572.464,20.928 C572.464,18.528 574.672,16.896 577.36,16.896 C579.952,16.896 582.064,18.528 582.064,19.968 Z"></path>
            <path d="M640.088,56.928 C641.144,58.752 642.584,59.616 644.696,59.616 L647.288,59.616 C649.4,59.616 650.84,58.752 651.896,56.928 L658.04,45.888 C658.52,45.12 659.192,45.216 659.192,46.176 L659.192,69.408 C659.192,71.904 660.536,73.248 663.032,73.248 L672.152,73.248 C674.648,73.248 675.992,71.904 675.992,69.408 L675.992,5.088 C675.992,2.592 674.648,1.248 672.152,1.248 L667.064,1.248 C664.952,1.248 663.512,2.112 662.456,3.936 L646.712,31.968 C646.328,32.64 645.752,32.64 645.368,31.968 L629.528,3.936 C628.472,2.016 627.032,1.248 624.92,1.248 L619.832,1.248 C617.336,1.248 615.992,2.592 615.992,5.088 L615.992,69.408 C615.992,71.904 617.336,73.248 619.832,73.248 L628.952,73.248 C631.448,73.248 632.792,71.904 632.792,69.408 L632.792,46.272 C632.792,45.312 633.56,45.216 633.944,45.984 L640.088,56.928 Z"></path>
            <path d="M745.152,5.856 C746.688,3.168 745.536,1.248 742.464,1.248 L731.712,1.248 C729.6,1.248 728.16,2.016 727.104,3.936 L718.464,19.008 C718.08,19.68 717.504,19.68 717.12,19.008 L708.576,3.936 C707.52,2.016 706.08,1.248 703.968,1.248 L693.12,1.248 C690.048,1.248 688.896,3.168 690.432,5.856 L709.632,39.552 C709.824,39.936 709.92,40.32 709.92,40.8 L709.92,69.408 C709.92,71.904 711.264,73.248 713.76,73.248 L722.88,73.248 C725.376,73.248 726.72,71.904 726.72,69.408 L726.72,39.168 C726.72,38.688 726.816,38.304 727.008,37.92 L745.152,5.856 Z"></path>
            <path d="M753.84,57.6 C749.232,57.6 745.392,61.248 745.392,66.048 C745.392,70.56 749.232,74.496 753.84,74.496 C758.544,74.496 762.192,70.56 762.192,66.048 C762.192,61.248 758.544,57.6 753.84,57.6 Z"></path>
            <path d="M796.792,46.176 C796.792,45.216 797.464,45.12 797.944,45.888 L811.768,70.56 C812.824,72.384 814.264,73.248 816.376,73.248 L821.752,73.248 C824.248,73.248 825.592,71.904 825.592,69.408 L825.592,5.088 C825.592,2.592 824.248,1.248 821.752,1.248 L812.632,1.248 C810.136,1.248 808.792,2.592 808.792,5.088 L808.792,28.32 C808.792,29.28 808.12,29.376 807.64,28.608 L793.816,3.936 C792.76,2.112 791.32,1.248 789.208,1.248 L783.832,1.248 C781.336,1.248 779.992,2.592 779.992,5.088 L779.992,69.408 C779.992,71.904 781.336,73.248 783.832,73.248 L792.952,73.248 C795.448,73.248 796.792,71.904 796.792,69.408 L796.792,46.176 Z"></path>
            <path d="M873.728,62.496 C874.304,62.496 874.688,62.784 874.88,63.264 L877.088,70.08 C877.856,72.192 879.2,73.248 881.504,73.248 L891.584,73.248 C894.368,73.248 895.616,71.52 894.752,68.832 L873.344,4.416 C872.576,2.208 871.232,1.248 869.024,1.248 L864.704,1.248 C862.496,1.248 861.152,2.208 860.384,4.416 L838.88,68.832 C838.016,71.52 839.264,73.248 842.048,73.248 L852.32,73.248 C854.528,73.248 855.872,72.288 856.64,70.176 L859.04,63.264 C859.232,62.784 859.616,62.496 860.192,62.496 L873.728,62.496 Z M866.336,39.84 C866.72,38.976 867.296,38.976 867.584,39.84 L869.216,44.64 C869.408,45.312 869.12,45.696 868.448,45.696 L865.472,45.696 C864.8,45.696 864.512,45.312 864.704,44.64 L866.336,39.84 Z"></path>
            <path d="M931.08,56.928 C932.136,58.752 933.576,59.616 935.688,59.616 L938.28,59.616 C940.392,59.616 941.832,58.752 942.888,56.928 L949.032,45.888 C949.512,45.12 950.184,45.216 950.184,46.176 L950.184,69.408 C950.184,71.904 951.528,73.248 954.024,73.248 L963.144,73.248 C965.64,73.248 966.984,71.904 966.984,69.408 L966.984,5.088 C966.984,2.592 965.64,1.248 963.144,1.248 L958.056,1.248 C955.944,1.248 954.504,2.112 953.448,3.936 L937.704,31.968 C937.32,32.64 936.744,32.64 936.36,31.968 L920.52,3.936 C919.464,2.016 918.024,1.248 915.912,1.248 L910.824,1.248 C908.328,1.248 906.984,2.592 906.984,5.088 L906.984,69.408 C906.984,71.904 908.328,73.248 910.824,73.248 L919.944,73.248 C922.44,73.248 923.784,71.904 923.784,69.408 L923.784,46.272 C923.784,45.312 924.552,45.216 924.936,45.984 L931.08,56.928 Z"></path>
            <path d="M1019.344,46.848 C1021.84,46.848 1023.184,45.504 1023.184,43.008 L1023.184,33.888 C1023.184,31.392 1021.84,30.048 1019.344,30.048 L1004.944,30.048 C1004.368,30.048 1003.984,29.664 1003.984,29.088 L1003.984,19.008 C1003.984,18.336 1004.272,18.048 1004.944,18.048 L1024.144,18.048 C1026.64,18.048 1027.984,16.704 1027.984,14.208 L1027.984,5.088 C1027.984,2.592 1026.64,1.248 1024.144,1.248 L991.024,1.248 C988.528,1.248 987.184,2.592 987.184,5.088 L987.184,69.408 C987.184,71.904 988.528,73.248 991.024,73.248 L1024.144,73.248 C1026.64,73.248 1027.984,71.904 1027.984,69.408 L1027.984,60.288 C1027.984,57.792 1026.64,56.448 1024.144,56.448 L1004.944,56.448 C1004.368,56.448 1003.984,56.064 1003.984,55.488 L1003.984,47.808 C1003.984,47.136 1004.368,46.848 1004.944,46.848 L1019.344,46.848 Z"></path>
		</g>
		<g class="stroke">
            <path d="M31.2,25.536 C31.2,28.032 32.544,28.8 35.04,28.8 L44.16,28.8 C46.656,28.8 48,28.032 48,25.536 C47.904,10.656 38.4,0 24,0 C9.6,0 0,10.656 0,26.496 L0,48.096 C0,63.936 9.6,74.496 24,74.496 C38.4,74.496 48,63.936 48,48.096 L48,38.688 C48,36.192 46.656,34.848 44.16,34.848 L25.44,34.848 C22.944,34.848 21.6,36.192 21.6,38.688 L21.6,47.808 C21.6,50.304 22.944,51.648 25.44,51.648 L29.568,51.648 C30.24,51.648 30.624,52.032 30.432,52.704 C29.28,55.872 27.072,57.6 24,57.6 C19.68,57.6 16.8,53.856 16.8,48.096 L16.8,26.496 C16.8,20.736 19.68,16.896 24,16.896 C28.32,16.896 31.2,20.736 31.2,25.536 Z M2.4,26.496 C2.4,12.096 11.04,2.496 24,2.496 C36.48,2.496 45.024,11.424 45.6,25.056 C45.6,26.016 45.12,26.496 44.16,26.496 L42.24,26.496 C41.28,26.496 40.8,26.016 40.8,25.056 C40.224,14.304 33.696,7.2 24,7.2 C13.92,7.2 7.2,14.976 7.2,26.496 L7.2,48.096 C7.2,59.616 13.92,67.296 24,67.296 C28.032,67.296 31.68,65.952 34.464,63.84 C35.232,63.264 35.808,63.264 36.48,63.936 L37.824,65.184 C38.496,65.856 38.496,66.624 37.728,67.2 C34.08,70.272 29.472,72 24,72 C11.04,72 2.4,62.496 2.4,48.096 L2.4,26.496 Z M24,14.4 C22.08,14.4 20.448,14.88 19.008,15.84 C18.24,16.32 17.664,16.32 16.992,15.648 L15.552,14.304 C14.784,13.632 14.784,12.864 15.648,12.288 C18.048,10.56 20.736,9.696 24,9.696 C32.256,9.696 37.824,15.744 38.4,25.056 C38.4,26.016 37.92,26.496 36.96,26.496 L35.04,26.496 C34.08,26.496 33.6,26.016 33.504,25.056 C33.024,18.624 29.376,14.4 24,14.4 Z M24,60.096 C28.32,60.096 31.488,57.312 32.832,52.992 C33.024,52.128 33.504,51.648 34.368,51.648 L36.48,51.648 C37.536,51.648 38.016,52.224 37.824,53.184 C36.192,60.288 31.2,64.8 24,64.8 C15.36,64.8 9.6,58.176 9.6,48.096 L9.6,26.496 C9.6,22.56 10.464,19.2 12.096,16.512 C12.576,15.648 13.344,15.552 14.112,16.32 L15.456,17.664 C16.032,18.24 16.128,18.816 15.744,19.68 C14.88,21.6 14.4,23.808 14.4,26.496 L14.4,48.096 C14.4,55.296 18.24,60.096 24,60.096 Z M24,38.688 C24,37.728 24.48,37.248 25.44,37.248 L44.16,37.248 C45.12,37.248 45.6,37.728 45.6,38.688 L45.6,40.608 C45.6,41.568 45.12,42.048 44.16,42.048 L25.44,42.048 C24.48,42.048 24,41.568 24,40.608 L24,38.688 Z M25.44,49.248 C24.48,49.248 24,48.768 24,47.808 L24,45.888 C24,44.928 24.48,44.448 25.44,44.448 L44.16,44.448 C45.12,44.448 45.6,44.928 45.6,45.888 L45.6,48.096 C45.6,54.048 44.064,59.232 41.376,63.168 C40.896,64.032 40.128,64.032 39.36,63.36 L37.92,62.016 C37.248,61.344 37.248,60.672 37.728,60 C39.36,57.408 40.32,54.336 40.704,50.784 C40.8,49.824 40.224,49.248 39.264,49.248 L25.44,49.248 Z"></path>
            <path d="M92.776,62.496 C93.352,62.496 93.736,62.784 93.928,63.264 L96.136,70.08 C96.904,72.192 98.248,73.248 100.552,73.248 L110.632,73.248 C113.416,73.248 114.664,71.52 113.8,68.832 L92.392,4.416 C91.624,2.208 90.28,1.248 88.072,1.248 L83.752,1.248 C81.544,1.248 80.2,2.208 79.432,4.416 L57.928,68.832 C57.064,71.52 58.312,73.248 61.096,73.248 L71.368,73.248 C73.576,73.248 74.92,72.288 75.688,70.176 L78.088,63.264 C78.28,62.784 78.664,62.496 79.24,62.496 L92.776,62.496 Z M96.616,62.304 C96.424,61.536 96.52,60.96 96.904,60.384 L98.632,57.696 C99.016,57.024 99.592,57.12 99.88,57.888 L103.912,69.216 C104.296,70.176 103.816,70.848 102.76,70.848 L100.648,70.848 C99.784,70.848 99.304,70.464 99.016,69.696 L96.616,62.304 Z M85.384,39.84 C85.768,38.976 86.344,38.976 86.632,39.84 L88.264,44.64 C88.456,45.312 88.168,45.696 87.496,45.696 L84.52,45.696 C83.848,45.696 83.56,45.312 83.752,44.64 L85.384,39.84 Z M96.136,55.296 C97,55.296 97.192,55.776 96.808,56.448 L94.888,59.232 C94.408,59.808 93.928,60.096 93.064,60.096 L77.416,60.096 C76.552,60.096 76.072,60.48 75.784,61.248 L73,69.696 C72.712,70.464 72.232,70.848 71.368,70.848 L69.064,70.848 C68.008,70.848 67.528,70.176 67.912,69.216 L81.544,28.32 C81.832,27.456 82.408,27.456 82.792,28.32 L84.328,32.928 C84.52,33.6 84.52,34.176 84.328,34.848 L78.184,53.664 C77.8,54.624 78.28,55.296 79.336,55.296 L96.136,55.296 Z M83.08,21.792 C82.6,20.448 81.64,20.448 81.16,21.792 L65.224,69.696 C64.936,70.464 64.456,70.848 63.592,70.848 L61.576,70.848 C60.52,70.848 60.04,70.176 60.424,69.216 L81.352,5.472 C81.64,4.608 82.216,4.608 82.6,5.472 L95.56,44.064 C95.944,45.024 95.464,45.696 94.408,45.696 L92.296,45.696 C91.432,45.696 90.952,45.312 90.664,44.544 L83.08,21.792 Z M97.48,48.096 C98.536,48.096 99.016,47.424 98.632,46.464 L85.192,5.28 C84.808,4.32 85.288,3.648 86.344,3.648 L88.36,3.648 C89.224,3.648 89.704,4.032 89.992,4.8 L111.4,69.216 C111.784,70.176 111.304,70.848 110.248,70.848 L108.136,70.848 C107.272,70.848 106.792,70.464 106.504,69.696 L101.224,54.048 C100.936,53.28 100.456,52.896 99.592,52.896 L82.12,52.896 C81.448,52.896 81.16,52.416 81.352,51.744 L82.312,49.248 C82.6,48.48 83.08,48.096 83.944,48.096 L97.48,48.096 Z"></path>
            <path d="M167.888,31.104 C168.656,28.608 169.232,25.824 169.232,22.848 C169.232,9.888 160.592,1.248 147.632,1.248 L129.872,1.248 C127.376,1.248 126.032,2.592 126.032,5.088 L126.032,69.408 C126.032,71.904 127.376,73.248 129.872,73.248 L150.032,73.248 C164.432,73.248 174.032,63.648 174.032,49.248 C174.032,42.528 171.824,37.248 168.272,33.12 C167.696,32.448 167.6,31.968 167.888,31.104 Z M129.872,70.848 C128.912,70.848 128.432,70.368 128.432,69.408 L128.432,12.288 C128.432,11.328 128.912,10.848 129.872,10.848 L147.632,10.848 C154.832,10.848 159.632,15.648 159.632,22.848 C159.632,26.976 158,30.336 155.408,32.352 C154.832,32.832 154.256,32.928 153.584,32.832 C152.432,32.64 151.28,32.448 150.032,32.448 L139.856,32.448 C138.512,32.448 138.224,31.584 139.088,30.72 L141.584,28.32 C142.16,27.84 142.64,27.648 143.408,27.648 L150.032,27.648 C150.032,27.648 150.8,27.648 151.856,27.744 C152.72,27.84 153.392,27.648 153.776,26.976 C154.352,25.824 154.832,24.288 154.832,22.848 C154.832,18.528 151.952,15.648 147.632,15.648 L134.672,15.648 C133.712,15.648 133.232,16.128 133.232,17.088 L133.232,33.408 C133.232,34.368 133.712,34.848 134.672,34.848 L150.032,34.848 C151.568,34.848 152.912,35.04 154.064,35.328 C154.832,35.52 155.408,35.52 155.984,35.04 C159.824,32.448 162.032,28.224 162.032,22.848 C162.032,14.208 156.272,8.448 147.632,8.448 L129.872,8.448 C128.912,8.448 128.432,7.968 128.432,7.008 L128.432,5.088 C128.432,4.128 128.912,3.648 129.872,3.648 L147.632,3.648 C159.152,3.648 166.832,11.328 166.832,22.848 C166.832,28.992 164.624,33.888 160.976,37.248 C160.208,37.92 160.208,38.496 160.88,39.264 C163.088,41.664 164.432,45.12 164.432,49.248 C164.432,57.888 158.672,63.648 150.032,63.648 L139.856,63.648 C138.512,63.648 138.224,62.784 139.088,61.92 L141.584,59.52 C142.16,59.04 142.64,58.848 143.408,58.848 L150.032,58.848 C155.792,58.848 159.632,55.008 159.632,49.248 C159.632,43.488 155.792,39.648 150.032,39.648 L134.672,39.648 C133.712,39.648 133.232,40.128 133.232,41.088 L133.232,64.608 C133.232,65.568 133.712,66.048 134.672,66.048 L150.032,66.048 C153.968,66.048 157.712,64.896 160.496,62.976 C161.264,62.496 161.84,62.496 162.512,63.168 L163.856,64.512 C164.528,65.184 164.528,65.952 163.76,66.528 C160.208,69.312 155.408,70.848 150.032,70.848 L129.872,70.848 Z M137.36,28.992 C136.496,29.952 135.632,29.568 135.632,28.32 L135.632,19.488 C135.632,18.528 136.112,18.048 137.072,18.048 L138.992,18.048 C139.952,18.048 140.432,18.528 140.432,19.488 L140.432,24.864 C140.432,25.632 140.24,26.112 139.664,26.688 L137.36,28.992 Z M143.792,25.248 C143.216,25.248 142.832,24.864 142.832,24.288 L142.832,19.008 C142.832,18.336 143.216,18.048 143.792,18.048 L147.632,18.048 C150.512,18.048 152.432,19.968 152.432,22.848 C152.432,23.52 152.336,24 152.24,24.48 C152.048,25.056 151.664,25.248 151.088,25.248 L143.792,25.248 Z M171.632,49.248 C171.632,54.432 170.192,59.136 167.504,62.88 C167.024,63.552 166.256,63.552 165.584,62.784 L164.144,61.248 C163.472,60.576 163.472,60 163.952,59.232 C165.776,56.64 166.832,53.28 166.832,49.248 C166.832,45.408 165.872,42.24 164.144,39.552 C163.76,38.784 163.76,38.208 164.24,37.536 C164.72,36.96 165.104,36.48 165.488,35.904 C166.064,34.944 166.832,34.848 167.504,35.712 C170.096,39.264 171.632,43.872 171.632,49.248 Z M137.36,60.192 C136.496,61.056 135.632,60.768 135.632,59.424 L135.632,43.488 C135.632,42.528 136.112,42.048 137.072,42.048 L138.992,42.048 C139.952,42.048 140.432,42.528 140.432,43.488 L140.432,56.16 C140.432,56.928 140.24,57.408 139.664,57.984 L137.36,60.192 Z M143.792,56.448 C143.216,56.448 142.832,56.064 142.832,55.488 L142.832,43.008 C142.832,42.336 143.216,42.048 143.792,42.048 L150.032,42.048 C154.352,42.048 157.232,44.928 157.232,49.248 C157.232,53.568 154.352,56.448 150.032,56.448 L143.792,56.448 Z"></path>
            <path d="M237.912,25.248 C237.912,10.848 228.312,1.248 213.912,1.248 L193.752,1.248 C191.256,1.248 189.912,2.592 189.912,5.088 L189.912,69.408 C189.912,71.904 191.256,73.248 193.752,73.248 L202.872,73.248 C205.368,73.248 206.712,71.904 206.712,69.408 L206.712,50.208 C206.712,49.632 207.096,49.248 207.672,49.248 L210.648,49.248 C211.512,49.248 211.992,49.632 212.28,50.4 L219.096,70.176 C219.864,72.288 221.208,73.248 223.416,73.248 L233.304,73.248 C236.088,73.248 237.336,71.52 236.472,68.832 L228.888,46.08 C228.6,45.312 228.792,44.736 229.464,44.16 C234.648,40.032 237.912,33.408 237.912,25.248 Z M204.312,69.408 C204.312,70.368 203.832,70.848 202.872,70.848 L200.952,70.848 C199.992,70.848 199.512,70.368 199.512,69.408 L199.512,50.688 C199.512,49.728 199.992,49.248 200.952,49.248 L202.872,49.248 C203.832,49.248 204.312,49.728 204.312,50.688 L204.312,69.408 Z M207.672,32.448 C207.096,32.448 206.712,32.064 206.712,31.488 L206.712,19.008 C206.712,18.336 207.096,18.048 207.672,18.048 L213.912,18.048 C218.232,18.048 221.112,20.928 221.112,25.248 C221.112,29.568 218.232,32.448 213.912,32.448 L207.672,32.448 Z M204.312,32.064 C204.312,32.832 204.12,33.312 203.544,33.888 L200.664,36.768 C200.088,37.44 199.512,37.152 199.512,36.288 L199.512,19.488 C199.512,18.528 199.992,18.048 200.952,18.048 L202.872,18.048 C203.832,18.048 204.312,18.528 204.312,19.488 L204.312,32.064 Z M226.584,38.496 C226.296,37.728 226.488,37.248 226.968,36.576 C229.368,33.6 230.712,29.664 230.712,25.248 C230.712,21.312 229.56,17.856 227.736,15.072 C227.16,14.4 227.256,13.728 227.928,13.056 L229.464,11.712 C230.136,11.04 230.904,11.04 231.48,11.808 C233.976,15.264 235.512,19.872 235.512,25.248 C235.512,32.256 233.016,38.016 228.792,41.76 C228.216,42.24 227.64,42.048 227.448,41.376 L226.584,38.496 Z M226.68,69.792 C226.968,70.464 226.584,70.848 225.912,70.848 L223.128,70.848 C222.264,70.848 221.784,70.464 221.496,69.696 L214.296,48 C214.008,47.232 213.528,46.848 212.664,46.848 L198.552,46.848 C197.592,46.848 197.112,47.328 197.112,48.288 L197.112,69.408 C197.112,70.368 196.632,70.848 195.672,70.848 L193.752,70.848 C192.792,70.848 192.312,70.368 192.312,69.408 L192.312,12.288 C192.312,11.328 192.792,10.848 193.752,10.848 L213.912,10.848 C222.552,10.848 228.312,16.608 228.312,25.248 C228.312,28.512 227.352,31.2 226.008,33.408 C225.816,33.792 225.624,33.984 225.336,34.368 C225.24,34.464 225.144,34.656 224.952,34.848 C224.76,35.232 224.568,35.424 224.28,35.712 L224.184,35.808 C223.608,36.384 223.416,36.96 223.704,37.728 L234.168,69.792 C234.456,70.464 234.072,70.848 233.4,70.848 L230.712,70.848 C229.848,70.848 229.368,70.464 229.08,69.696 L219.48,40.224 C219.192,39.36 218.52,39.072 217.656,39.264 C216.504,39.552 215.256,39.648 213.912,39.648 L202.872,39.648 C202.008,39.648 201.72,39.072 202.392,38.496 L205.464,35.52 C206.04,35.04 206.52,34.848 207.288,34.848 L213.912,34.848 C219.672,34.848 223.512,31.008 223.512,25.248 C223.512,19.488 219.672,15.648 213.912,15.648 L198.552,15.648 C197.592,15.648 197.112,16.128 197.112,17.088 L197.112,40.608 C197.112,41.568 197.592,42.048 198.552,42.048 L213.912,42.048 C214.776,42.048 215.64,41.856 216.408,41.856 C216.984,41.76 217.368,42.048 217.56,42.528 L226.68,69.792 Z M193.752,8.448 C192.792,8.448 192.312,7.968 192.312,7.008 L192.312,5.088 C192.312,4.128 192.792,3.648 193.752,3.648 L213.912,3.648 C219.288,3.648 223.896,5.184 227.544,7.68 C228.312,8.256 228.408,9.024 227.736,9.696 L226.104,11.328 C225.432,12 224.76,12 224.088,11.52 C221.304,9.6 217.848,8.448 213.912,8.448 L193.752,8.448 Z"></path>
            <path d="M257.152,1.248 C254.656,1.248 253.312,2.592 253.312,5.088 L253.312,69.408 C253.312,71.904 254.656,73.248 257.152,73.248 L266.272,73.248 C268.768,73.248 270.112,71.904 270.112,69.408 L270.112,5.088 C270.112,2.592 268.768,1.248 266.272,1.248 L257.152,1.248 Z M262.912,5.088 C262.912,4.128 263.392,3.648 264.352,3.648 L266.272,3.648 C267.232,3.648 267.712,4.128 267.712,5.088 L267.712,69.408 C267.712,70.368 267.232,70.848 266.272,70.848 L264.352,70.848 C263.392,70.848 262.912,70.368 262.912,69.408 L262.912,5.088 Z M255.712,5.088 C255.712,4.128 256.192,3.648 257.152,3.648 L259.072,3.648 C260.032,3.648 260.512,4.128 260.512,5.088 L260.512,69.408 C260.512,70.368 260.032,70.848 259.072,70.848 L257.152,70.848 C256.192,70.848 255.712,70.368 255.712,69.408 L255.712,5.088 Z"></path>
            <path d="M322.472,46.848 C324.968,46.848 326.312,45.504 326.312,43.008 L326.312,33.888 C326.312,31.392 324.968,30.048 322.472,30.048 L308.072,30.048 C307.496,30.048 307.112,29.664 307.112,29.088 L307.112,19.008 C307.112,18.336 307.4,18.048 308.072,18.048 L327.272,18.048 C329.768,18.048 331.112,16.704 331.112,14.208 L331.112,5.088 C331.112,2.592 329.768,1.248 327.272,1.248 L294.152,1.248 C291.656,1.248 290.312,2.592 290.312,5.088 L290.312,69.408 C290.312,71.904 291.656,73.248 294.152,73.248 L327.272,73.248 C329.768,73.248 331.112,71.904 331.112,69.408 L331.112,60.288 C331.112,57.792 329.768,56.448 327.272,56.448 L308.072,56.448 C307.496,56.448 307.112,56.064 307.112,55.488 L307.112,47.808 C307.112,47.136 307.496,46.848 308.072,46.848 L322.472,46.848 Z M328.712,62.208 C328.712,63.168 328.232,63.648 327.272,63.648 L303.272,63.648 C302.408,63.648 302.12,63.072 302.792,62.496 L305.864,59.52 C306.44,59.04 306.92,58.848 307.688,58.848 L327.272,58.848 C328.232,58.848 328.712,59.328 328.712,60.288 L328.712,62.208 Z M304.712,56.16 C304.712,56.928 304.52,57.408 303.944,57.984 L301.064,60.768 C300.488,61.344 299.912,61.152 299.912,60.288 L299.912,48.288 C299.912,47.328 300.392,46.848 301.352,46.848 L303.272,46.848 C304.232,46.848 304.712,47.328 304.712,48.288 L304.712,56.16 Z M323.912,35.808 C323.912,36.768 323.432,37.248 322.472,37.248 L303.272,37.248 C302.408,37.248 302.12,36.672 302.792,36.096 L305.864,33.12 C306.44,32.64 306.92,32.448 307.688,32.448 L322.472,32.448 C323.432,32.448 323.912,32.928 323.912,33.888 L323.912,35.808 Z M304.712,29.76 C304.712,30.528 304.52,31.008 303.944,31.584 L301.064,34.464 C300.488,35.04 299.912,34.848 299.912,33.984 L299.912,19.488 C299.912,18.528 300.392,18.048 301.352,18.048 L303.272,18.048 C304.232,18.048 304.712,18.528 304.712,19.488 L304.712,29.76 Z M294.152,70.848 C293.192,70.848 292.712,70.368 292.712,69.408 L292.712,12.288 C292.712,11.328 293.192,10.848 294.152,10.848 L327.272,10.848 C328.232,10.848 328.712,11.328 328.712,12.288 L328.712,14.208 C328.712,15.168 328.232,15.648 327.272,15.648 L298.952,15.648 C297.992,15.648 297.512,16.128 297.512,17.088 L297.512,38.208 C297.512,39.168 297.992,39.648 298.952,39.648 L322.472,39.648 C323.432,39.648 323.912,40.128 323.912,41.088 L323.912,43.008 C323.912,43.968 323.432,44.448 322.472,44.448 L298.952,44.448 C297.992,44.448 297.512,44.928 297.512,45.888 L297.512,64.608 C297.512,65.568 297.992,66.048 298.952,66.048 L327.272,66.048 C328.232,66.048 328.712,66.528 328.712,67.488 L328.712,69.408 C328.712,70.368 328.232,70.848 327.272,70.848 L294.152,70.848 Z M292.712,5.088 C292.712,4.128 293.192,3.648 294.152,3.648 L327.272,3.648 C328.232,3.648 328.712,4.128 328.712,5.088 L328.712,7.008 C328.712,7.968 328.232,8.448 327.272,8.448 L294.152,8.448 C293.192,8.448 292.712,7.968 292.712,7.008 L292.712,5.088 Z"></path>
            <path d="M352.752,1.248 C350.256,1.248 348.912,2.592 348.912,5.088 L348.912,69.408 C348.912,71.904 350.256,73.248 352.752,73.248 L383.472,73.248 C385.968,73.248 387.312,71.904 387.312,69.408 L387.312,60.288 C387.312,57.792 385.968,56.448 383.472,56.448 L366.672,56.448 C366,56.448 365.712,56.16 365.712,55.488 L365.712,5.088 C365.712,2.592 364.368,1.248 361.872,1.248 L352.752,1.248 Z M384.912,62.208 C384.912,63.168 384.432,63.648 383.472,63.648 L361.872,63.648 C361.008,63.648 360.72,63.072 361.392,62.496 L364.272,59.616 C364.848,59.04 365.328,58.848 366.096,58.848 L383.472,58.848 C384.432,58.848 384.912,59.328 384.912,60.288 L384.912,62.208 Z M358.512,5.088 C358.512,4.128 358.992,3.648 359.952,3.648 L361.872,3.648 C362.832,3.648 363.312,4.128 363.312,5.088 L363.312,55.872 C363.312,56.64 363.12,57.12 362.64,57.696 L359.664,60.672 C359.088,61.344 358.512,61.056 358.512,60.192 L358.512,5.088 Z M351.312,5.088 C351.312,4.128 351.792,3.648 352.752,3.648 L354.672,3.648 C355.632,3.648 356.112,4.128 356.112,5.088 L356.112,64.608 C356.112,65.568 356.592,66.048 357.552,66.048 L383.472,66.048 C384.432,66.048 384.912,66.528 384.912,67.488 L384.912,69.408 C384.912,70.368 384.432,70.848 383.472,70.848 L352.752,70.848 C351.792,70.848 351.312,70.368 351.312,69.408 L351.312,5.088 Z"></path>
            <path d="M408.952,1.248 C406.456,1.248 405.112,2.592 405.112,5.088 L405.112,69.408 C405.112,71.904 406.456,73.248 408.952,73.248 L439.672,73.248 C442.168,73.248 443.512,71.904 443.512,69.408 L443.512,60.288 C443.512,57.792 442.168,56.448 439.672,56.448 L422.872,56.448 C422.2,56.448 421.912,56.16 421.912,55.488 L421.912,5.088 C421.912,2.592 420.568,1.248 418.072,1.248 L408.952,1.248 Z M441.112,62.208 C441.112,63.168 440.632,63.648 439.672,63.648 L418.072,63.648 C417.208,63.648 416.92,63.072 417.592,62.496 L420.472,59.616 C421.048,59.04 421.528,58.848 422.296,58.848 L439.672,58.848 C440.632,58.848 441.112,59.328 441.112,60.288 L441.112,62.208 Z M414.712,5.088 C414.712,4.128 415.192,3.648 416.152,3.648 L418.072,3.648 C419.032,3.648 419.512,4.128 419.512,5.088 L419.512,55.872 C419.512,56.64 419.32,57.12 418.84,57.696 L415.864,60.672 C415.288,61.344 414.712,61.056 414.712,60.192 L414.712,5.088 Z M407.512,5.088 C407.512,4.128 407.992,3.648 408.952,3.648 L410.872,3.648 C411.832,3.648 412.312,4.128 412.312,5.088 L412.312,64.608 C412.312,65.568 412.792,66.048 413.752,66.048 L439.672,66.048 C440.632,66.048 441.112,66.528 441.112,67.488 L441.112,69.408 C441.112,70.368 440.632,70.848 439.672,70.848 L408.952,70.848 C407.992,70.848 407.512,70.368 407.512,69.408 L407.512,5.088 Z"></path>
            <path d="M493.472,46.848 C495.968,46.848 497.312,45.504 497.312,43.008 L497.312,33.888 C497.312,31.392 495.968,30.048 493.472,30.048 L479.072,30.048 C478.496,30.048 478.112,29.664 478.112,29.088 L478.112,19.008 C478.112,18.336 478.4,18.048 479.072,18.048 L498.272,18.048 C500.768,18.048 502.112,16.704 502.112,14.208 L502.112,5.088 C502.112,2.592 500.768,1.248 498.272,1.248 L465.152,1.248 C462.656,1.248 461.312,2.592 461.312,5.088 L461.312,69.408 C461.312,71.904 462.656,73.248 465.152,73.248 L498.272,73.248 C500.768,73.248 502.112,71.904 502.112,69.408 L502.112,60.288 C502.112,57.792 500.768,56.448 498.272,56.448 L479.072,56.448 C478.496,56.448 478.112,56.064 478.112,55.488 L478.112,47.808 C478.112,47.136 478.496,46.848 479.072,46.848 L493.472,46.848 Z M499.712,62.208 C499.712,63.168 499.232,63.648 498.272,63.648 L474.272,63.648 C473.408,63.648 473.12,63.072 473.792,62.496 L476.864,59.52 C477.44,59.04 477.92,58.848 478.688,58.848 L498.272,58.848 C499.232,58.848 499.712,59.328 499.712,60.288 L499.712,62.208 Z M475.712,56.16 C475.712,56.928 475.52,57.408 474.944,57.984 L472.064,60.768 C471.488,61.344 470.912,61.152 470.912,60.288 L470.912,48.288 C470.912,47.328 471.392,46.848 472.352,46.848 L474.272,46.848 C475.232,46.848 475.712,47.328 475.712,48.288 L475.712,56.16 Z M494.912,35.808 C494.912,36.768 494.432,37.248 493.472,37.248 L474.272,37.248 C473.408,37.248 473.12,36.672 473.792,36.096 L476.864,33.12 C477.44,32.64 477.92,32.448 478.688,32.448 L493.472,32.448 C494.432,32.448 494.912,32.928 494.912,33.888 L494.912,35.808 Z M475.712,29.76 C475.712,30.528 475.52,31.008 474.944,31.584 L472.064,34.464 C471.488,35.04 470.912,34.848 470.912,33.984 L470.912,19.488 C470.912,18.528 471.392,18.048 472.352,18.048 L474.272,18.048 C475.232,18.048 475.712,18.528 475.712,19.488 L475.712,29.76 Z M465.152,70.848 C464.192,70.848 463.712,70.368 463.712,69.408 L463.712,12.288 C463.712,11.328 464.192,10.848 465.152,10.848 L498.272,10.848 C499.232,10.848 499.712,11.328 499.712,12.288 L499.712,14.208 C499.712,15.168 499.232,15.648 498.272,15.648 L469.952,15.648 C468.992,15.648 468.512,16.128 468.512,17.088 L468.512,38.208 C468.512,39.168 468.992,39.648 469.952,39.648 L493.472,39.648 C494.432,39.648 494.912,40.128 494.912,41.088 L494.912,43.008 C494.912,43.968 494.432,44.448 493.472,44.448 L469.952,44.448 C468.992,44.448 468.512,44.928 468.512,45.888 L468.512,64.608 C468.512,65.568 468.992,66.048 469.952,66.048 L498.272,66.048 C499.232,66.048 499.712,66.528 499.712,67.488 L499.712,69.408 C499.712,70.368 499.232,70.848 498.272,70.848 L465.152,70.848 Z M463.712,5.088 C463.712,4.128 464.192,3.648 465.152,3.648 L498.272,3.648 C499.232,3.648 499.712,4.128 499.712,5.088 L499.712,7.008 C499.712,7.968 499.232,8.448 498.272,8.448 L465.152,8.448 C464.192,8.448 463.712,7.968 463.712,7.008 L463.712,5.088 Z"></path>
            <path d="M523.752,1.248 C521.256,1.248 519.912,2.592 519.912,5.088 L519.912,69.408 C519.912,71.904 521.256,73.248 523.752,73.248 L532.872,73.248 C535.368,73.248 536.712,71.904 536.712,69.408 L536.712,5.088 C536.712,2.592 535.368,1.248 532.872,1.248 L523.752,1.248 Z M529.512,5.088 C529.512,4.128 529.992,3.648 530.952,3.648 L532.872,3.648 C533.832,3.648 534.312,4.128 534.312,5.088 L534.312,69.408 C534.312,70.368 533.832,70.848 532.872,70.848 L530.952,70.848 C529.992,70.848 529.512,70.368 529.512,69.408 L529.512,5.088 Z M522.312,5.088 C522.312,4.128 522.792,3.648 523.752,3.648 L525.672,3.648 C526.632,3.648 527.112,4.128 527.112,5.088 L527.112,69.408 C527.112,70.368 526.632,70.848 525.672,70.848 L523.752,70.848 C522.792,70.848 522.312,70.368 522.312,69.408 L522.312,5.088 Z"></path>
            <path d="M582.064,19.968 C582.064,22.464 583.408,23.328 585.904,23.328 L595.12,23.328 C597.616,23.328 598.96,22.464 598.96,19.968 C598.864,8.928 589.552,0 577.36,0 C565.072,0 555.76,8.928 555.76,20.928 L555.76,22.176 C555.76,34.176 565.072,43.2 577.36,43.2 C580.624,43.2 583.312,46.08 583.312,50.016 L583.312,51.168 C583.312,54.72 580.624,57.6 577.36,57.6 C573.904,57.6 571.312,54.72 571.312,52.128 C571.312,49.632 569.968,48.768 567.472,48.768 L558.352,48.768 C555.856,48.768 554.512,49.632 554.512,52.128 C554.608,64.416 564.4,74.496 577.36,74.496 C591.184,74.496 600.112,63.36 600.112,51.168 L600.112,50.016 C600.112,36.576 590.32,26.496 577.36,26.496 C574.672,26.496 572.464,24.48 572.464,22.176 L572.464,20.928 C572.464,18.528 574.672,16.896 577.36,16.896 C579.952,16.896 582.064,18.528 582.064,19.968 Z M560.272,51.168 C561.232,51.168 561.712,51.648 561.808,52.608 C562.384,60.96 568.912,67.296 577.36,67.296 C580.144,67.296 583.504,66.24 585.808,64.8 C586.576,64.224 587.152,64.224 587.824,64.896 L589.36,66.432 C590.128,67.104 590.128,67.872 589.264,68.448 C586.096,70.56 581.296,72 577.36,72 C566.32,72 557.68,63.84 556.912,52.608 C556.912,51.648 557.392,51.168 558.352,51.168 L560.272,51.168 Z M570.16,22.176 C570.16,25.92 573.232,28.8 577.36,28.8 C588.88,28.8 597.712,38.016 597.712,50.016 L597.712,51.168 C597.712,56.16 595.792,60.768 593.104,64.416 C592.528,65.184 591.76,65.184 590.992,64.512 L589.552,63.168 C588.88,62.496 588.88,61.824 589.36,61.152 C591.376,57.984 592.912,53.952 592.912,51.168 L592.912,50.016 C592.912,40.608 586.192,33.696 577.36,33.696 C570.544,33.696 565.264,28.608 565.264,22.176 L565.264,20.928 C565.264,19.2 565.84,16.992 566.8,15.264 C567.28,14.4 568.048,14.4 568.816,15.072 L570.448,16.704 C571.024,17.28 571.024,17.856 570.736,18.72 C570.352,19.584 570.16,20.352 570.16,20.928 L570.16,22.176 Z M577.36,14.4 C576.016,14.4 574.768,14.688 573.808,15.168 C573.232,15.456 572.752,15.36 572.08,14.784 L570.64,13.44 C569.872,12.768 569.872,11.904 570.832,11.424 C572.752,10.368 575.248,9.696 577.36,9.696 C583.504,9.696 588.4,13.728 589.168,19.488 C589.264,20.352 588.688,20.928 587.824,20.928 L585.616,20.928 C585.04,20.928 584.56,20.544 584.464,19.872 C584.176,16.896 581.104,14.4 577.36,14.4 Z M567.856,51.168 C568.528,51.168 568.912,51.552 568.912,52.224 C569.2,56.544 572.656,60.096 577.36,60.096 C582.064,60.096 585.712,56.16 585.712,51.168 L585.712,50.016 C585.712,44.64 582.064,40.896 577.36,40.896 C566.224,40.896 558.064,32.736 558.064,22.176 L558.064,20.928 C558.064,10.368 566.224,2.496 577.36,2.496 C587.824,2.496 595.696,9.6 596.368,19.488 C596.464,20.448 595.984,20.928 595.024,20.928 L593.2,20.928 C592.24,20.928 591.76,20.448 591.664,19.488 C590.992,12.48 584.944,7.2 577.36,7.2 C569.104,7.2 562.96,13.248 562.96,20.928 L562.96,22.176 C562.96,30.048 569.104,36 577.36,36 C584.752,36 590.512,42.048 590.512,50.016 L590.512,51.168 C590.512,58.848 584.752,64.8 577.36,64.8 C570.352,64.8 564.88,59.616 564.208,52.608 C564.112,51.648 564.592,51.168 565.552,51.168 L567.856,51.168 Z"></path>
            <path d="M640.088,56.928 C641.144,58.752 642.584,59.616 644.696,59.616 L647.288,59.616 C649.4,59.616 650.84,58.752 651.896,56.928 L658.04,45.888 C658.52,45.12 659.192,45.216 659.192,46.176 L659.192,69.408 C659.192,71.904 660.536,73.248 663.032,73.248 L672.152,73.248 C674.648,73.248 675.992,71.904 675.992,69.408 L675.992,5.088 C675.992,2.592 674.648,1.248 672.152,1.248 L667.064,1.248 C664.952,1.248 663.512,2.112 662.456,3.936 L646.712,31.968 C646.328,32.64 645.752,32.64 645.368,31.968 L629.528,3.936 C628.472,2.016 627.032,1.248 624.92,1.248 L619.832,1.248 C617.336,1.248 615.992,2.592 615.992,5.088 L615.992,69.408 C615.992,71.904 617.336,73.248 619.832,73.248 L628.952,73.248 C631.448,73.248 632.792,71.904 632.792,69.408 L632.792,46.272 C632.792,45.312 633.56,45.216 633.944,45.984 L640.088,56.928 Z M661.592,40.128 C661.592,39.456 661.688,38.976 662.072,38.304 L665.24,32.832 C665.72,31.968 666.392,32.16 666.392,33.12 L666.392,69.408 C666.392,70.368 665.912,70.848 664.952,70.848 L663.032,70.848 C662.072,70.848 661.592,70.368 661.592,69.408 L661.592,40.128 Z M627.032,70.848 C626.072,70.848 625.592,70.368 625.592,69.408 L625.592,33.12 C625.592,32.16 626.264,31.968 626.744,32.832 L629.912,38.304 C630.296,38.976 630.392,39.456 630.392,40.128 L630.392,69.408 C630.392,70.368 629.912,70.848 628.952,70.848 L627.032,70.848 Z M668.792,25.152 C668.792,23.712 667.736,23.424 667.064,24.672 L649.496,56.256 C649.112,56.928 648.536,57.216 647.768,57.216 L645.368,57.216 C644.216,57.216 643.736,56.448 644.312,55.488 L672.44,5.664 C672.92,4.896 673.592,4.992 673.592,5.952 L673.592,69.408 C673.592,70.368 673.112,70.848 672.152,70.848 L670.232,70.848 C669.272,70.848 668.792,70.368 668.792,69.408 L668.792,25.152 Z M644.024,34.656 C644.408,35.328 644.408,35.904 644.024,36.576 L642.584,38.976 C642.2,39.648 641.624,39.648 641.24,38.976 L622.232,5.376 C621.656,4.416 622.136,3.648 623.288,3.648 L625.592,3.648 C626.36,3.648 626.936,3.936 627.32,4.608 L644.024,34.656 Z M642.584,53.568 C642.2,54.24 641.624,54.24 641.24,53.568 L624.92,24.672 C624.248,23.424 623.192,23.712 623.192,25.152 L623.192,69.408 C623.192,70.368 622.712,70.848 621.752,70.848 L619.832,70.848 C618.872,70.848 618.392,70.368 618.392,69.408 L618.392,5.952 C618.392,4.992 619.064,4.896 619.544,5.664 L640.952,43.488 C641.528,44.448 642.296,44.448 642.872,43.488 L664.664,4.608 C665.048,3.936 665.624,3.648 666.392,3.648 L668.696,3.648 C669.848,3.648 670.328,4.416 669.752,5.376 L642.584,53.568 Z"></path>
            <path d="M745.152,5.856 C746.688,3.168 745.536,1.248 742.464,1.248 L731.712,1.248 C729.6,1.248 728.16,2.016 727.104,3.936 L718.464,19.008 C718.08,19.68 717.504,19.68 717.12,19.008 L708.576,3.936 C707.52,2.016 706.08,1.248 703.968,1.248 L693.12,1.248 C690.048,1.248 688.896,3.168 690.432,5.856 L709.632,39.552 C709.824,39.936 709.92,40.32 709.92,40.8 L709.92,69.408 C709.92,71.904 711.264,73.248 713.76,73.248 L722.88,73.248 C725.376,73.248 726.72,71.904 726.72,69.408 L726.72,39.168 C726.72,38.688 726.816,38.304 727.008,37.92 L745.152,5.856 Z M734.016,3.648 C734.784,3.648 735.072,4.128 734.688,4.8 L722.784,26.208 C722.4,26.88 721.824,26.88 721.44,26.208 L719.808,23.328 C719.424,22.656 719.424,22.08 719.808,21.408 L729.216,4.608 C729.6,3.936 730.176,3.648 730.944,3.648 L734.016,3.648 Z M737.664,4.608 C738.048,3.936 738.624,3.648 739.392,3.648 L742.368,3.648 C743.136,3.648 743.424,4.128 743.04,4.8 L724.8,37.152 C724.416,37.824 724.32,38.304 724.32,38.976 L724.32,69.408 C724.32,70.368 723.84,70.848 722.88,70.848 L720.96,70.848 C720,70.848 719.52,70.368 719.52,69.408 L719.52,38.976 C719.52,38.304 719.424,37.824 719.04,37.152 L700.896,4.8 C700.512,4.128 700.8,3.648 701.568,3.648 L704.64,3.648 C705.408,3.648 705.984,3.936 706.368,4.608 L721.152,30.528 C721.728,31.488 722.496,31.488 723.072,30.528 L737.664,4.608 Z M717.12,69.408 C717.12,70.368 716.64,70.848 715.68,70.848 L713.76,70.848 C712.8,70.848 712.32,70.368 712.32,69.408 L712.32,40.608 C712.32,39.936 712.224,39.456 711.84,38.784 L692.544,4.8 C692.16,4.128 692.448,3.648 693.216,3.648 L696.192,3.648 C696.96,3.648 697.536,3.936 697.92,4.608 L716.832,37.92 C717.024,38.304 717.12,38.688 717.12,39.168 L717.12,69.408 Z"></path>
            <path d="M753.84,57.6 C749.232,57.6 745.392,61.248 745.392,66.048 C745.392,70.56 749.232,74.496 753.84,74.496 C758.544,74.496 762.192,70.56 762.192,66.048 C762.192,61.248 758.544,57.6 753.84,57.6 Z M754.992,61.248 C754.992,60.576 755.472,60.192 756.048,60.48 C758.352,61.44 759.792,63.552 759.792,66.048 C759.792,68.544 758.352,70.656 756.048,71.616 C755.472,71.904 754.992,71.52 754.992,70.848 L754.992,61.248 Z M747.792,66.048 C747.792,63.552 749.232,61.44 751.44,60.48 C752.112,60.192 752.592,60.576 752.592,61.248 L752.592,70.848 C752.592,71.52 752.112,71.904 751.536,71.616 C749.232,70.656 747.792,68.544 747.792,66.048 Z"></path>
            <path d="M796.792,46.176 C796.792,45.216 797.464,45.12 797.944,45.888 L811.768,70.56 C812.824,72.384 814.264,73.248 816.376,73.248 L821.752,73.248 C824.248,73.248 825.592,71.904 825.592,69.408 L825.592,5.088 C825.592,2.592 824.248,1.248 821.752,1.248 L812.632,1.248 C810.136,1.248 808.792,2.592 808.792,5.088 L808.792,28.32 C808.792,29.28 808.12,29.376 807.64,28.608 L793.816,3.936 C792.76,2.112 791.32,1.248 789.208,1.248 L783.832,1.248 C781.336,1.248 779.992,2.592 779.992,5.088 L779.992,69.408 C779.992,71.904 781.336,73.248 783.832,73.248 L792.952,73.248 C795.448,73.248 796.792,71.904 796.792,69.408 L796.792,46.176 Z M794.392,69.408 C794.392,70.368 793.912,70.848 792.952,70.848 L791.032,70.848 C790.072,70.848 789.592,70.368 789.592,69.408 L789.592,33.12 C789.592,32.16 790.264,31.968 790.744,32.832 L793.912,38.304 C794.296,38.976 794.392,39.456 794.392,40.128 L794.392,69.408 Z M787.192,69.408 C787.192,70.368 786.712,70.848 785.752,70.848 L783.832,70.848 C782.872,70.848 782.392,70.368 782.392,69.408 L782.392,5.952 C782.392,4.992 783.064,4.896 783.544,5.664 L819.352,69.12 C819.928,70.08 819.448,70.848 818.296,70.848 L815.992,70.848 C815.224,70.848 814.648,70.56 814.264,69.888 L788.92,24.672 C788.248,23.424 787.192,23.712 787.192,25.152 L787.192,69.408 Z M811.192,5.088 C811.192,4.128 811.672,3.648 812.632,3.648 L814.552,3.648 C815.512,3.648 815.992,4.128 815.992,5.088 L815.992,41.184 C815.992,42.144 815.32,42.336 814.84,41.472 L811.672,36 C811.288,35.328 811.192,34.848 811.192,34.176 L811.192,5.088 Z M789.592,3.648 C790.36,3.648 790.936,3.936 791.32,4.608 L816.664,49.824 C817.336,51.072 818.392,50.784 818.392,49.344 L818.392,5.088 C818.392,4.128 818.872,3.648 819.832,3.648 L821.752,3.648 C822.712,3.648 823.192,4.128 823.192,5.088 L823.192,68.544 C823.192,69.504 822.52,69.6 822.04,68.832 L786.232,5.376 C785.656,4.416 786.136,3.648 787.288,3.648 L789.592,3.648 Z"></path>
            <path d="M873.728,62.496 C874.304,62.496 874.688,62.784 874.88,63.264 L877.088,70.08 C877.856,72.192 879.2,73.248 881.504,73.248 L891.584,73.248 C894.368,73.248 895.616,71.52 894.752,68.832 L873.344,4.416 C872.576,2.208 871.232,1.248 869.024,1.248 L864.704,1.248 C862.496,1.248 861.152,2.208 860.384,4.416 L838.88,68.832 C838.016,71.52 839.264,73.248 842.048,73.248 L852.32,73.248 C854.528,73.248 855.872,72.288 856.64,70.176 L859.04,63.264 C859.232,62.784 859.616,62.496 860.192,62.496 L873.728,62.496 Z M877.568,62.304 C877.376,61.536 877.472,60.96 877.856,60.384 L879.584,57.696 C879.968,57.024 880.544,57.12 880.832,57.888 L884.864,69.216 C885.248,70.176 884.768,70.848 883.712,70.848 L881.6,70.848 C880.736,70.848 880.256,70.464 879.968,69.696 L877.568,62.304 Z M866.336,39.84 C866.72,38.976 867.296,38.976 867.584,39.84 L869.216,44.64 C869.408,45.312 869.12,45.696 868.448,45.696 L865.472,45.696 C864.8,45.696 864.512,45.312 864.704,44.64 L866.336,39.84 Z M877.088,55.296 C877.952,55.296 878.144,55.776 877.76,56.448 L875.84,59.232 C875.36,59.808 874.88,60.096 874.016,60.096 L858.368,60.096 C857.504,60.096 857.024,60.48 856.736,61.248 L853.952,69.696 C853.664,70.464 853.184,70.848 852.32,70.848 L850.016,70.848 C848.96,70.848 848.48,70.176 848.864,69.216 L862.496,28.32 C862.784,27.456 863.36,27.456 863.744,28.32 L865.28,32.928 C865.472,33.6 865.472,34.176 865.28,34.848 L859.136,53.664 C858.752,54.624 859.232,55.296 860.288,55.296 L877.088,55.296 Z M864.032,21.792 C863.552,20.448 862.592,20.448 862.112,21.792 L846.176,69.696 C845.888,70.464 845.408,70.848 844.544,70.848 L842.528,70.848 C841.472,70.848 840.992,70.176 841.376,69.216 L862.304,5.472 C862.592,4.608 863.168,4.608 863.552,5.472 L876.512,44.064 C876.896,45.024 876.416,45.696 875.36,45.696 L873.248,45.696 C872.384,45.696 871.904,45.312 871.616,44.544 L864.032,21.792 Z M878.432,48.096 C879.488,48.096 879.968,47.424 879.584,46.464 L866.144,5.28 C865.76,4.32 866.24,3.648 867.296,3.648 L869.312,3.648 C870.176,3.648 870.656,4.032 870.944,4.8 L892.352,69.216 C892.736,70.176 892.256,70.848 891.2,70.848 L889.088,70.848 C888.224,70.848 887.744,70.464 887.456,69.696 L882.176,54.048 C881.888,53.28 881.408,52.896 880.544,52.896 L863.072,52.896 C862.4,52.896 862.112,52.416 862.304,51.744 L863.264,49.248 C863.552,48.48 864.032,48.096 864.896,48.096 L878.432,48.096 Z"></path>
            <path d="M931.08,56.928 C932.136,58.752 933.576,59.616 935.688,59.616 L938.28,59.616 C940.392,59.616 941.832,58.752 942.888,56.928 L949.032,45.888 C949.512,45.12 950.184,45.216 950.184,46.176 L950.184,69.408 C950.184,71.904 951.528,73.248 954.024,73.248 L963.144,73.248 C965.64,73.248 966.984,71.904 966.984,69.408 L966.984,5.088 C966.984,2.592 965.64,1.248 963.144,1.248 L958.056,1.248 C955.944,1.248 954.504,2.112 953.448,3.936 L937.704,31.968 C937.32,32.64 936.744,32.64 936.36,31.968 L920.52,3.936 C919.464,2.016 918.024,1.248 915.912,1.248 L910.824,1.248 C908.328,1.248 906.984,2.592 906.984,5.088 L906.984,69.408 C906.984,71.904 908.328,73.248 910.824,73.248 L919.944,73.248 C922.44,73.248 923.784,71.904 923.784,69.408 L923.784,46.272 C923.784,45.312 924.552,45.216 924.936,45.984 L931.08,56.928 Z M952.584,40.128 C952.584,39.456 952.68,38.976 953.064,38.304 L956.232,32.832 C956.712,31.968 957.384,32.16 957.384,33.12 L957.384,69.408 C957.384,70.368 956.904,70.848 955.944,70.848 L954.024,70.848 C953.064,70.848 952.584,70.368 952.584,69.408 L952.584,40.128 Z M918.024,70.848 C917.064,70.848 916.584,70.368 916.584,69.408 L916.584,33.12 C916.584,32.16 917.256,31.968 917.736,32.832 L920.904,38.304 C921.288,38.976 921.384,39.456 921.384,40.128 L921.384,69.408 C921.384,70.368 920.904,70.848 919.944,70.848 L918.024,70.848 Z M959.784,25.152 C959.784,23.712 958.728,23.424 958.056,24.672 L940.488,56.256 C940.104,56.928 939.528,57.216 938.76,57.216 L936.36,57.216 C935.208,57.216 934.728,56.448 935.304,55.488 L963.432,5.664 C963.912,4.896 964.584,4.992 964.584,5.952 L964.584,69.408 C964.584,70.368 964.104,70.848 963.144,70.848 L961.224,70.848 C960.264,70.848 959.784,70.368 959.784,69.408 L959.784,25.152 Z M935.016,34.656 C935.4,35.328 935.4,35.904 935.016,36.576 L933.576,38.976 C933.192,39.648 932.616,39.648 932.232,38.976 L913.224,5.376 C912.648,4.416 913.128,3.648 914.28,3.648 L916.584,3.648 C917.352,3.648 917.928,3.936 918.312,4.608 L935.016,34.656 Z M933.576,53.568 C933.192,54.24 932.616,54.24 932.232,53.568 L915.912,24.672 C915.24,23.424 914.184,23.712 914.184,25.152 L914.184,69.408 C914.184,70.368 913.704,70.848 912.744,70.848 L910.824,70.848 C909.864,70.848 909.384,70.368 909.384,69.408 L909.384,5.952 C909.384,4.992 910.056,4.896 910.536,5.664 L931.944,43.488 C932.52,44.448 933.288,44.448 933.864,43.488 L955.656,4.608 C956.04,3.936 956.616,3.648 957.384,3.648 L959.688,3.648 C960.84,3.648 961.32,4.416 960.744,5.376 L933.576,53.568 Z"></path>
            <path d="M1019.344,46.848 C1021.84,46.848 1023.184,45.504 1023.184,43.008 L1023.184,33.888 C1023.184,31.392 1021.84,30.048 1019.344,30.048 L1004.944,30.048 C1004.368,30.048 1003.984,29.664 1003.984,29.088 L1003.984,19.008 C1003.984,18.336 1004.272,18.048 1004.944,18.048 L1024.144,18.048 C1026.64,18.048 1027.984,16.704 1027.984,14.208 L1027.984,5.088 C1027.984,2.592 1026.64,1.248 1024.144,1.248 L991.024,1.248 C988.528,1.248 987.184,2.592 987.184,5.088 L987.184,69.408 C987.184,71.904 988.528,73.248 991.024,73.248 L1024.144,73.248 C1026.64,73.248 1027.984,71.904 1027.984,69.408 L1027.984,60.288 C1027.984,57.792 1026.64,56.448 1024.144,56.448 L1004.944,56.448 C1004.368,56.448 1003.984,56.064 1003.984,55.488 L1003.984,47.808 C1003.984,47.136 1004.368,46.848 1004.944,46.848 L1019.344,46.848 Z M1025.584,62.208 C1025.584,63.168 1025.104,63.648 1024.144,63.648 L1000.144,63.648 C999.28,63.648 998.992,63.072 999.664,62.496 L1002.736,59.52 C1003.312,59.04 1003.792,58.848 1004.56,58.848 L1024.144,58.848 C1025.104,58.848 1025.584,59.328 1025.584,60.288 L1025.584,62.208 Z M1001.584,56.16 C1001.584,56.928 1001.392,57.408 1000.816,57.984 L997.936,60.768 C997.36,61.344 996.784,61.152 996.784,60.288 L996.784,48.288 C996.784,47.328 997.264,46.848 998.224,46.848 L1000.144,46.848 C1001.104,46.848 1001.584,47.328 1001.584,48.288 L1001.584,56.16 Z M1020.784,35.808 C1020.784,36.768 1020.304,37.248 1019.344,37.248 L1000.144,37.248 C999.28,37.248 998.992,36.672 999.664,36.096 L1002.736,33.12 C1003.312,32.64 1003.792,32.448 1004.56,32.448 L1019.344,32.448 C1020.304,32.448 1020.784,32.928 1020.784,33.888 L1020.784,35.808 Z M1001.584,29.76 C1001.584,30.528 1001.392,31.008 1000.816,31.584 L997.936,34.464 C997.36,35.04 996.784,34.848 996.784,33.984 L996.784,19.488 C996.784,18.528 997.264,18.048 998.224,18.048 L1000.144,18.048 C1001.104,18.048 1001.584,18.528 1001.584,19.488 L1001.584,29.76 Z M991.024,70.848 C990.064,70.848 989.584,70.368 989.584,69.408 L989.584,12.288 C989.584,11.328 990.064,10.848 991.024,10.848 L1024.144,10.848 C1025.104,10.848 1025.584,11.328 1025.584,12.288 L1025.584,14.208 C1025.584,15.168 1025.104,15.648 1024.144,15.648 L995.824,15.648 C994.864,15.648 994.384,16.128 994.384,17.088 L994.384,38.208 C994.384,39.168 994.864,39.648 995.824,39.648 L1019.344,39.648 C1020.304,39.648 1020.784,40.128 1020.784,41.088 L1020.784,43.008 C1020.784,43.968 1020.304,44.448 1019.344,44.448 L995.824,44.448 C994.864,44.448 994.384,44.928 994.384,45.888 L994.384,64.608 C994.384,65.568 994.864,66.048 995.824,66.048 L1024.144,66.048 C1025.104,66.048 1025.584,66.528 1025.584,67.488 L1025.584,69.408 C1025.584,70.368 1025.104,70.848 1024.144,70.848 L991.024,70.848 Z M989.584,5.088 C989.584,4.128 990.064,3.648 991.024,3.648 L1024.144,3.648 C1025.104,3.648 1025.584,4.128 1025.584,5.088 L1025.584,7.008 C1025.584,7.968 1025.104,8.448 1024.144,8.448 L991.024,8.448 C990.064,8.448 989.584,7.968 989.584,7.008 L989.584,5.088 Z"></path>
        </g>
    </g>
</svg>
