<svg xmlns="https://www.w3.org/2000/svg" version="1.2" baseProfile="tiny" x="0" y="0" viewBox="-40 45 80 80" width="80" height="80" xml:space="preserve"><text transform="matrix(1 0 0 1 7.1079 13.5215)" opacity="0">x</text><path fill="#FFFFFF" d="M22.2 78.2c-3.8-3.8-9.9-3.8-13.7 0L-6.8 93.6c-0.9 0.9-0.9 2.5 0 3.4 0.9 0.9 2.5 0.9 3.4 0l15.3-15.3c1.9-1.9 4.9-1.9 6.8 0 1.9 1.9 1.9 4.9 0 6.8l-15 15.1c1.9 1.9 4.9 1.9 6.9 0l11.7-11.7C25.9 88.1 25.9 82 22.2 78.2zM17.1 83.3c-0.9-0.9-2.5-0.9-3.4 0L-1.7 98.7c-1.9 1.9-4.9 1.9-6.8 0 -0.9-0.9-2.5-0.9-3.4 0 -0.9 0.9-0.9 2.5 0 3.4 3.8 3.8 9.9 3.8 13.7 0l15.3-15.3C18 85.8 18 84.3 17.1 83.3zM11.9 68C8.1 64.1 2 64.1-1.7 68L-17 83.3c-0.9 0.9-0.9 2.5 0 3.4s2.5 0.9 3.4 0L1.7 71.4c1.9-1.9 4.9-1.9 6.8 0 0.9 0.9 2.5 0.9 3.4 0C12.9 70.4 12.9 68.9 11.9 68zM6.7 73.1c-0.9-0.9-2.5-0.9-3.4 0L-12 88.4c-1.9 1.9-4.9 1.9-6.8 0 -1.9-1.9-1.9-4.9 0-6.8l15.1-15.1c-1.9-1.9-4.9-1.9-6.8 0l-11.7 11.7c-3.8 3.8-3.8 9.9 0 13.7 3.8 3.8 9.9 3.8 13.7 0L6.8 76.5C7.8 75.5 7.8 74 6.7 73.1z"/></svg>