<svg width="100px" height="100px" viewBox="0 0 100 100" xmlns="http://www.w3.org/2000/svg" xmlns:xlink="http://www.w3.org/1999/xlink">
    <path d="M100.056805,34.25 C99.6568047,31.65 96.7568047,30.25 94.7568047,28.95 C91.1568047,26.55 87.6568047,24.25 84.0568047,21.85 C75.5568047,16.15 66.9568047,10.45 58.4568047,4.75 C56.4568047,3.45 54.4568047,2.05 52.4568047,0.75 C51.0568047,-0.25 49.1568047,-0.25 47.6568047,0.75 C41.9568047,4.55 36.1568047,8.45 30.4568047,12.25 L5.25680473,29.05 C3.05680473,30.45 0.156804734,31.85 0.0568047337,34.85 C-0.0431952663,38.15 0.0568047337,41.55 0.0568047337,44.85 L0.0568047337,60.85 C0.0568047337,63.75 -0.543195266,67.15 2.15680473,68.95 C8.55680473,73.35 15.0568047,77.55 21.5568047,81.85 C29.5568047,87.15 37.5568047,92.55 45.5568047,97.85 C47.7568047,99.35 49.9568047,100.95 52.6568047,99.15 C54.9568047,97.65 57.1568047,96.15 59.4568047,94.65 C68.3568047,88.75 77.2568047,82.75 86.1568047,76.85 L96.0568047,70.25 C96.6568047,69.85 97.3568047,69.45 97.9568047,68.95 C99.3568047,67.95 99.9568047,66.55 99.9568047,64.85 L99.9568047,37.35 C100.056805,36.25 100.156805,35.25 100.056805,34.25 C100.056805,34.15 100.056805,34.45 100.056805,34.25 Z M54.3568047,12.35 L88.0568047,34.85 L73.0568047,44.95 L54.3568047,32.45 L54.3568047,12.35 Z M45.7568047,12.35 L45.7568047,32.35 L27.1568047,44.85 L12.0568047,34.85 L45.7568047,12.35 L45.7568047,12.35 Z M8.65680473,42.85 L19.3568047,50.05 L8.65680473,57.25 L8.65680473,42.85 Z M45.7568047,87.75 L12.0568047,65.25 L27.0568047,55.15 L45.6568047,67.65 L45.6568047,87.75 L45.7568047,87.75 Z M50.0568047,60.25 L34.8568047,50.05 L50.0568047,39.85 L65.2568047,50.05 L50.0568047,60.25 Z M54.3568047,87.75 L54.3568047,67.75 L72.9568047,55.25 L87.9568047,65.35 L54.3568047,87.75 L54.3568047,87.75 Z M91.4568047,57.25 L80.7568047,50.05 L91.5568047,42.85 L91.4568047,57.25 L91.4568047,57.25 Z" stroke="none" fill="#000000" fill-rule="nonzero"></path>
</svg>