<svg width="100px" height="100px" viewBox="0 0 100 100" xmlns="http://www.w3.org/2000/svg" xmlns:xlink="http://www.w3.org/1999/xlink">
    <path d="M50,0 C77.6142375,0 100,22.3857625 100,50 C100,77.6142375 77.6142375,100 50,100 C22.3857625,100 0,77.6142375 0,50 C0,22.3857625 22.3857625,0 50,0 Z M50,8 C26.8040405,8 8,26.8040405 8,50 C8,60.6142992 11.9373965,70.3089703 18.4312811,77.7031047 C24.6187161,71.326437 36.6597724,67 50.5,67 C63.9488023,67 75.6987614,71.0851794 82.0306343,77.1666483 C88.2492936,69.84319 92,60.3596072 92,50 C92,26.8040405 73.1959595,8 50,8 Z M50,22 C58.836556,22 66,30.0588745 66,40 C66,49.9411255 58.836556,58 50,58 C41.163444,58 34,49.9411255 34,40 C34,30.0588745 41.163444,22 50,22 Z" stroke="none" fill="#9B8D77" fill-rule="evenodd"></path>
</svg>