<svg width="100px" height="100px" viewBox="0 0 100 100" xmlns="http://www.w3.org/2000/svg" xmlns:xlink="http://www.w3.org/1999/xlink">
    <path d="M84.6542232,18.3183878 C78.2805614,15.3938809 71.4457728,13.239233 64.2995758,12.0051767 C64.1694349,11.9813598 64.0394349,12.0408795 63.9723927,12.1599218 C63.0933786,13.7233175 62.1197167,15.7628949 61.4378857,17.3659935 C53.7516887,16.2152893 46.1049283,16.2152893 38.576337,17.3659935 C37.8943651,15.7272611 36.8853511,13.7233175 36.0023934,12.1599218 C35.9353511,12.0448514 35.8053511,11.9853316 35.6752103,12.0051767 C28.5329569,13.2352894 21.6981683,15.3899372 15.3205629,18.3183878 C15.2653516,18.3421906 15.2180277,18.3819089 15.1866192,18.4334582 C2.22246458,37.8016268 -1.32895928,56.693739 0.41325054,75.3516259 C0.421133638,75.4428935 0.472374482,75.5302174 0.543325184,75.5857104 C9.09670385,81.8671187 17.3821121,85.6804989 25.5136612,88.2081045 C25.643802,88.2478228 25.7816894,88.2002171 25.8645063,88.093034 C27.7880273,85.4662735 29.5026752,82.6965553 30.972816,79.7838793 C31.0595766,79.6133159 30.9767597,79.4109216 30.7994357,79.3434568 C28.0797175,78.3117667 25.4899992,77.0538794 22.9988725,75.6254287 C22.8018303,75.5103583 22.7860556,75.2285273 22.9673232,75.0935977 C23.4915486,74.7007808 24.0159148,74.2920485 24.5164781,73.8793724 C24.6070415,73.8040203 24.7332387,73.7881048 24.8397176,73.8357104 C41.205351,81.3076821 58.923097,81.3076821 75.0956319,73.8357104 C75.2021107,73.7841611 75.3283079,73.8000766 75.4228149,73.8754287 C75.9235192,74.2881048 76.4477445,74.7007808 76.9759135,75.0935977 C77.1571811,75.2285273 77.1453501,75.5103583 76.9483079,75.6254287 C74.4571812,77.0816259 71.8674629,78.3117667 69.143801,79.3395131 C68.9664771,79.4069779 68.8876038,79.6133159 68.9743644,79.7838793 C70.4760545,82.6924708 72.1907023,85.462189 74.0787305,88.0890904 C74.1576037,88.2002171 74.2994347,88.2478228 74.4295755,88.2081045 C82.6005613,85.6804989 90.8859132,81.8671187 99.4392932,75.5857104 C99.5142228,75.5302174 99.5615468,75.4468372 99.5694341,75.3555696 C101.654504,53.7850067 96.0770398,35.047824 84.7842232,18.4374019 C84.7566175,18.3819089 84.7094344,18.3421906 84.6542232,18.3183878 Z M33.4167596,63.9909219 C28.4895766,63.9909219 24.4297176,59.4674009 24.4297176,53.9120489 C24.4297176,48.356697 28.4108442,43.8331759 33.4167596,43.8331759 C38.4619708,43.8331759 42.482534,48.3964153 42.4036608,53.9120489 C42.4036608,59.4674009 38.4225341,63.9909219 33.4167596,63.9909219 Z M66.644787,63.9909219 C61.7177448,63.9909219 57.6578858,59.4674009 57.6578858,53.9120489 C57.6578858,48.356697 61.6388716,43.8331759 66.644787,43.8331759 C71.690139,43.8331759 75.7105614,48.3964153 75.631829,53.9120489 C75.631829,59.4674009 71.690139,63.9909219 66.644787,63.9909219 Z" stroke="none" fill="#5865F2" fill-rule="nonzero"></path>
</svg>