<svg width="100px" height="100px" viewBox="0 0 100 100" xmlns="http://www.w3.org/2000/svg" xmlns:xlink="http://www.w3.org/1999/xlink">
    <path d="M49.9969306,1 C22.3879681,1 0,23.3848987 0,51.0030694 C0,73.0902394 14.3247391,91.8287293 34.1958257,98.4432167 C36.6973603,98.9005525 37.6089626,97.3566605 37.6089626,96.0306937 C37.6089626,94.8459177 37.5659914,91.6998158 37.5414365,87.5285451 C23.6341314,90.5488029 20.6998158,80.825046 20.6998158,80.825046 C18.4254144,75.048496 15.1473297,73.5138122 15.1473297,73.5138122 C10.6077348,70.4106814 15.4910988,70.4720688 15.4910988,70.4720688 C20.509515,70.8281154 23.1491713,75.6255371 23.1491713,75.6255371 C27.6089626,83.2651934 34.849601,81.058318 37.7010436,79.781461 C38.15531,76.5494168 39.4444444,74.3456108 40.8747698,73.0963781 C29.7728668,71.834868 18.1000614,67.543892 18.1000614,48.3848987 C18.1000614,42.9275629 20.0491099,38.4647023 23.247391,34.9686924 C22.7317373,33.704113 21.0159607,28.62124 23.7354205,21.7366483 C23.7354205,21.7366483 27.9343155,20.3922652 37.4861878,26.8624923 C41.4732965,25.7513812 45.7519951,25.198895 50.0030694,25.1774095 C54.2480049,25.198895 58.5267035,25.7513812 62.5199509,26.8624923 C72.0656845,20.3922652 76.2553714,21.7366483 76.2553714,21.7366483 C78.9840393,28.62124 77.2682627,33.704113 76.752609,34.9686924 C79.9570289,38.4647023 81.8937999,42.9275629 81.8937999,48.3848987 C81.8937999,67.5930018 70.2025783,71.8195212 59.0638428,73.0564764 C60.859423,74.6003683 62.4585635,77.6513198 62.4585635,82.3167587 C62.4585635,88.9987723 62.3971762,94.3916513 62.3971762,96.0306937 C62.3971762,97.368938 63.2965009,98.9251074 65.834868,98.437078 C85.684469,91.8103131 100,73.0841007 100,51.0030694 C100,23.3848987 77.6120319,1 49.9969306,1" stroke="none" fill="#181717" fill-rule="evenodd"></path>
</svg>