<svg width="100px" height="100px" viewBox="0 0 100 100" version="1.1" xmlns="http://www.w3.org/2000/svg" xmlns:xlink="http://www.w3.org/1999/xlink">
    <title>instagram</title>
    <defs>
        <linearGradient x1="1.18418121%" y1="98.6848373%" x2="91.5413361%" y2="8.39088821%" id="instagram-gradient">
            <stop stop-color="#FFD521" offset="0%"></stop>
            <stop stop-color="#FFD521" offset="5%"></stop>
            <stop stop-color="#F50000" offset="50.1119%"></stop>
            <stop stop-color="#B900B4" offset="95%"></stop>
            <stop stop-color="#B900B4" offset="100%"></stop>
        </linearGradient>
    </defs>
    <path d="M52.0737603,0.000510610939 C52.2385121,0.000597333653 52.4012995,0.000695504542 52.5621594,0.000805427521 L53.958846,0.00212024655 C61.1408571,0.0109124439 64.1358058,0.0488821339 67.0086748,0.149640123 L67.3674416,0.162564326 L67.9070669,0.183208874 C68.7504338,0.216518253 69.6194368,0.255466837 70.6149361,0.300888574 C75.9368531,0.543623881 79.5715315,1.38893024 82.7518999,2.62503449 C86.0398419,3.90262007 88.8282216,5.61228642 91.6080668,8.39193317 C94.3877136,11.1717784 96.0973799,13.9601581 97.375164,17.2481001 C98.6110698,20.4284685 99.4563761,24.0631469 99.6991114,29.3850639 C99.7445332,30.3805632 99.7834817,31.2495662 99.8167911,32.0929344 L99.8307237,32.4531024 C99.9507884,35.6259183 99.9917415,38.6378454 99.9988292,46.9611616 L99.9994894,47.926408 C99.9995761,48.0911622 99.9996514,48.2578806 99.9997155,48.4266002 L99.9997155,51.5735754 C99.9996514,51.7422925 99.9995761,51.9090086 99.9994894,52.0737603 L99.9988292,53.0389929 C99.9917415,61.3621905 99.9507884,64.37409 99.8307237,67.5468995 L99.8167911,67.9070669 C99.7834817,68.7504338 99.7445332,69.6194368 99.6991114,70.6149361 C99.4563761,75.9368531 98.6110698,79.5715315 97.375164,82.7518999 C96.0973799,86.0398419 94.3877136,88.8282216 91.6080668,91.6080668 C88.8282216,94.3877136 86.0398419,96.0973799 82.7518999,97.375164 C79.5715315,98.6110698 75.9368531,99.4563761 70.6149361,99.6991114 C69.6194368,99.7445332 68.7504338,99.7834817 67.9070669,99.8167911 L67.5468995,99.8307237 C64.37409,99.9507884 61.3621905,99.9917415 53.0389929,99.9988292 L52.0737603,99.9994894 C51.9090086,99.9995761 51.7422925,99.9996514 51.5735754,99.9997155 L48.4266002,99.9997155 C48.2578806,99.9996514 48.0911622,99.9995761 47.926408,99.9994894 L46.9611616,99.9988292 C38.6378454,99.9917415 35.6259183,99.9507884 32.4531024,99.8307237 L32.0929344,99.8167911 C31.2495662,99.7834817 30.3805632,99.7445332 29.3850639,99.6991114 C24.0631469,99.4563761 20.4284685,98.6110698 17.2481001,97.375164 C13.9601581,96.0973799 11.1717784,94.3877136 8.39193317,91.6080668 C5.61228642,88.8282216 3.90262007,86.0398419 2.62503449,82.7518999 C1.38893024,79.5715315 0.543623881,75.9368531 0.300888574,70.6149361 C0.255466837,69.6194368 0.216518253,68.7504338 0.183208874,67.9070669 L0.162564326,67.3674416 L0.149640123,67.0086748 C0.0488821339,64.1358058 0.0109124439,61.1408571 0.00212024655,53.958846 L0.000805427521,52.5621594 C0.000695504542,52.4012995 0.000597333653,52.2385121 0.000510610939,52.0737603 L0.000510610939,47.926408 C0.000597333653,47.7616539 0.000695504542,47.5988642 0.000805427521,47.438002 L0.00212024655,46.0412955 C0.0114619562,38.410301 0.0537423197,35.5061894 0.169276252,32.4531024 L0.183208874,32.0929344 C0.216518253,31.2495662 0.255466837,30.3805632 0.300888574,29.3850639 C0.543623881,24.0631469 1.38893024,20.4284685 2.62503449,17.2481001 C3.90262007,13.9601581 5.61228642,11.1717784 8.39193317,8.39193317 C11.1717784,5.61228642 13.9601581,3.90262007 17.2481001,2.62503449 C20.4284685,1.38893024 24.0631469,0.543623881 29.3850639,0.300888574 C30.3805632,0.255466837 31.2495662,0.216518253 32.0929344,0.183208874 L32.4531024,0.169276252 C35.5061894,0.0537423197 38.410301,0.0114619562 46.0412955,0.00212024655 L47.438002,0.000805427521 C47.5988642,0.000695504542 47.7616539,0.000597333653 47.926408,0.000510610939 Z M52.064769,9.0004691 L47.9353991,9.0004691 C47.7715325,9.0005491 47.6096629,9.00063979 47.4497523,9.00074151 L46.5134901,9.00148687 C36.3142373,9.01134875 34.5658913,9.07377926 29.7912768,9.2916242 C24.9152567,9.51396532 22.2672136,10.3286867 20.5049618,11.0135768 C18.1705785,11.9208079 16.5046083,13.0045224 14.7546646,14.7546646 C13.0045224,16.5046083 11.9208079,18.1705785 11.0135768,20.5049618 C10.3286867,22.2672136 9.51396532,24.9152567 9.2916242,29.7912768 C9.07377926,34.5658913 9.01134875,36.3142373 9.00148687,46.5134901 L9.00074151,47.4497523 C9.00063979,47.6096629 9.0005491,47.7715325 9.0004691,47.9353991 L9.0004691,52.064769 C9.0005491,52.2286332 9.00063979,52.3905003 9.00074151,52.5504086 L9.00148687,53.4866572 C9.01134875,63.6857627 9.07377926,65.4341087 9.2916242,70.2087232 C9.51396532,75.0847433 10.3286867,77.7327864 11.0135768,79.4950382 C11.9208079,81.8294215 13.0047209,83.4953917 14.7546646,85.2453354 C16.5046083,86.9954776 18.1705785,88.0791921 20.5049618,88.9864232 C22.2672136,89.6713133 24.9152567,90.4860347 29.7912768,90.7083758 C30.7888448,90.7538956 31.6542861,90.7926297 32.4923203,90.8255164 L32.8501051,90.8392554 C32.9095581,90.8414865 32.9689475,90.8436884 33.0283115,90.8458615 L33.3844971,90.8585573 C33.5033278,90.8626758 33.6223624,90.8666818 33.7419063,90.8705781 L34.1023709,90.8819403 C36.8218932,90.9647283 39.9537791,90.9933348 46.9756443,90.9989199 L47.9352501,90.9995309 C48.0991281,90.9996109 48.2650034,90.9996802 48.4329142,90.9997392 L51.5672621,90.9997392 C51.7351706,90.9996802 51.9010437,90.9996109 52.0649196,90.9995309 L53.0245133,90.9989199 C60.0462938,90.9933348 63.178218,90.9647283 65.8977229,90.8819403 L66.2581849,90.8705781 C66.4972707,90.8627855 66.7343189,90.854554 66.9717721,90.8458615 L67.3285607,90.8324744 L67.6877883,90.8183794 C68.47008,90.7870617 69.282445,90.7506442 70.2087232,90.7083758 C75.0847433,90.4860347 77.7327864,89.6713133 79.4950382,88.9864232 C81.8294215,88.0791921 83.4953917,86.9954776 85.2453354,85.2453354 C86.9954776,83.4953917 88.0791921,81.8294215 88.9864232,79.4950382 C89.6713133,77.7327864 90.4860347,75.0847433 90.7083758,70.2087232 C90.7538956,69.2110426 90.7926297,68.3454957 90.8255164,67.5073724 L90.8392554,67.1495504 C90.8414865,67.0900915 90.8436884,67.0306962 90.8458615,66.9713263 L90.8585573,66.6151069 C90.9594608,63.7034887 90.9928384,60.6697019 90.9989199,53.024295 L90.9995309,52.064769 C90.9996109,51.9009048 90.9996802,51.7350436 90.9997392,51.5671472 L90.9997392,48.4330281 C90.9996802,48.2651293 90.9996109,48.0992656 90.9995309,47.9353991 L90.9989199,46.975859 C90.9928384,39.3303412 90.9594608,36.2965233 90.8585573,33.3848964 L90.8458615,33.0286761 C90.8393421,32.850566 90.8325635,32.6722271 90.8255164,32.4926289 L90.8110614,32.1314485 C90.7814244,31.4045086 90.7473928,30.6464316 90.7083758,29.7912768 C90.4860347,24.9152567 89.6713133,22.2672136 88.9864232,20.5049618 C88.0791921,18.1705785 86.9954776,16.5046083 85.2453354,14.7546646 C83.4953917,13.0045224 81.8294215,11.9208079 79.4950382,11.0135768 C77.7327864,10.3286867 75.0847433,9.51396532 70.2087232,9.2916242 C65.4341087,9.07377926 63.6857627,9.01134875 53.4866572,9.00148687 L52.5504086,9.00074151 C52.3905003,9.00063979 52.2286332,9.0005491 52.064769,9.0004691 Z M50.0000966,25 C63.8072075,25 75,36.1927925 75,50.0000966 C75,63.8072075 63.8072075,75 50.0000966,75 C36.1927925,75 25,63.8072075 25,50.0000966 C25,36.1927925 36.1927925,25 50.0000966,25 Z M50.0000953,34 C41.1634027,34 34,41.1634027 34,50.0000953 C34,58.8365973 41.1634027,66 50.0000953,66 C58.8365973,66 66,58.8365973 66,50.0000953 C66,41.1634027 58.8365973,34 50.0000953,34 Z M76.9999008,17 C80.3136402,17 83,19.6863598 83,23.0000992 C83,26.3138387 80.3136402,29 76.9999008,29 C73.6863598,29 71,26.3138387 71,23.0000992 C71,19.6863598 73.6863598,17 76.9999008,17 Z" stroke="none" fill="url(#instagram-gradient)" fill-rule="nonzero"></path>
</svg>