<svg width="100px" height="100px" viewBox="0 0 100 100" xmlns="http://www.w3.org/2000/svg" xmlns:xlink="http://www.w3.org/1999/xlink">
    <g stroke="none" fill="#F5C8BF" fill-rule="nonzero">
        <path d="M50,0 C77.6142375,0 100,22.3857625 100,50 C100,77.6142375 77.6142375,100 50,100 C22.3857625,100 0,77.6142375 0,50 C0,22.3857625 22.3857625,0 50,0 Z M56.6512029,15 C41.6010357,15 32.4738375,23.9444444 32.4738375,34.0555556 C32.4738375,38.5277778 34.124501,41.6388889 37.7171216,43.5833333 C24.8031071,45.0416667 21.8901715,51.8472222 21.8901715,57 C21.8901715,64.84 28.333119,66.4976 35.1196903,67.305792 L35.5442433,67.3552462 C35.6858733,67.3713944 35.8275974,67.3872222 35.9693602,67.4027778 C37.8142194,67.6944444 39.7561765,67.7916667 41.6010357,68.0833333 C46.2617327,68.7638889 49.9514511,69.8333333 49.9514511,73.7222222 C49.9514511,78.5833333 43.5429928,81.2083333 33.7361096,81.2083333 C25.57989,81.2083333 22.3756608,78 21.5017801,73.7222222 C21.2104866,72.0694444 21.3075844,70.3194444 21.5017801,68.4722222 L18.6859424,68.4722222 C16.4526918,70.2222222 15.3846154,72.5555556 15.3846154,74.8888889 C15.3846154,79.9444444 18.9772359,85 31.7941526,85 C51.310821,85 60.2438235,75.375 60.2438235,65.9444444 C60.2438235,58.6527778 55.3889308,54.0833333 46.1646348,54.0833333 C44.1255799,54.0833333 41.9894271,54.2777778 40.0474701,54.5694444 C33.5419139,55.3472222 28.1044341,56.6111111 28.1044341,53.0138889 C28.1044341,49.7083333 33.2506203,46.5972222 42.4749164,46.5 C44.4168734,46.5 46.3588305,47.0833333 49.4659618,47.0833333 C64.2248355,47.0833333 71.3129787,39.4027778 73.5462294,30.3611111 C73.9346208,28.7083333 74.3230122,27.25 74.6143058,25.9861111 C75.8765778,21.5138889 76.7504585,20.0555556 78.6924156,20.0555556 C80.7314705,20.0555556 81.2169598,22.1944444 80.1488834,25.0138889 L83.2560147,25.0138889 C84.0327975,24.1388889 84.6153846,22.6805556 84.6153846,21.2222222 C84.6153846,18.7916667 82.9647211,16.3611111 79.2750027,16.3611111 C76.0707735,16.3611111 73.2549358,17.7222222 71.798468,22.1944444 C69.5652174,18.4027778 65.2929119,15 56.6512029,15 Z M57.6389947,18.0769231 C61.8145468,18.0769231 63.0769231,20.9832273 63.0769231,23.1145171 C63.0769231,26.7958357 61.1348058,28.5396183 58.4158416,32.6084442 C55.0171363,37.9366686 55.988195,43.8461538 48.802361,43.8461538 C45.1123382,43.8461538 43.4615385,41.6179873 43.4615385,39.2929439 C43.4615385,35.5147484 45.5007616,34.1584731 48.6081493,29.5083864 C52.2981721,23.7926547 51.6184311,18.0769231 57.6389947,18.0769231 Z" fill-opacity="0.5"></path>
        <path d="M74.2259927,27.5921544 C79.6717604,33.4769432 83,41.3497956 83,50 C83,68.2253967 68.2253967,83 50,83 C48.7204396,83 47.4578885,82.9271745 46.2162654,82.7854422 C55.7636452,79.399188 60.2438235,72.6230562 60.2438235,65.9444444 C60.2438235,58.6527778 55.3889308,54.0833333 46.1646348,54.0833333 C44.1255799,54.0833333 41.9894271,54.2777778 40.0474701,54.5694444 C33.5419139,55.3472222 28.1044341,56.6111111 28.1044341,53.0138889 C28.1044341,49.7083333 33.2506203,46.5972222 42.4749164,46.5 C44.4168734,46.5 46.3588305,47.0833333 49.4659618,47.0833333 C64.2248355,47.0833333 71.3129787,39.4027778 73.5462294,30.3611111 C73.7620024,29.4429012 73.9777754,28.5847051 74.1768992,27.7865226 Z M32.4738375,34.0555556 C32.4738375,38.5277778 34.124501,41.6388889 37.7171216,43.5833333 C24.8031071,45.0416667 21.8901715,51.8472222 21.8901715,57 C21.8901715,64.84 28.333119,66.4976 35.1196903,67.305792 L35.5442433,67.3552462 C35.6858733,67.3713944 35.8275974,67.3872222 35.9693602,67.4027778 C37.8142194,67.6944444 39.7561765,67.7916667 41.6010357,68.0833333 C46.2617327,68.7638889 49.9514511,69.8333333 49.9514511,73.7222222 C49.9514511,77.7296508 45.5961914,80.2173934 38.5720778,80.9675705 C25.9788504,76.3186479 17,64.2078854 17,50 C17,33.8156366 28.6507287,20.3524467 44.0226376,17.5399787 C36.6543682,20.9039457 32.4738375,27.2125665 32.4738375,34.0555556 Z M57.6389947,18.0769231 C57.9803428,18.0769231 58.3022224,18.0963457 58.6055352,18.1331798 C59.291048,18.3179369 59.9683271,18.5243238 60.6359893,18.7515075 C62.4541025,19.7380934 63.0769231,21.6174903 63.0769231,23.1145171 C63.0769231,26.7958357 61.1348058,28.5396183 58.4158416,32.6084442 C55.0171363,37.9366686 55.988195,43.8461538 48.802361,43.8461538 C45.1123382,43.8461538 43.4615385,41.6179873 43.4615385,39.2929439 C43.4615385,35.5147484 45.5007616,34.1584731 48.6081493,29.5083864 C52.2981721,23.7926547 51.6184311,18.0769231 57.6389947,18.0769231 Z"></path>
    </g>
</svg>