<svg width="100px" height="100px" viewBox="0 0 100 100" xmlns="http://www.w3.org/2000/svg" xmlns:xlink="http://www.w3.org/1999/xlink">
    <path d="M89.76234,29.2285697 C89.8232785,30.110146 89.8232785,30.9917223 89.8232785,31.8814237 C89.8232785,58.9909098 69.185456,90.2563983 31.4483039,90.2563983 L31.4483039,90.240148 C20.3006297,90.2563983 9.38452163,87.0632234 0,81.0425043 C1.62096283,81.2375074 3.25005078,81.3350089 4.8832013,81.3390715 C14.1214706,81.3471966 23.0956734,78.2474606 30.3635994,72.539559 C21.5843998,72.3729939 13.885842,66.6488419 11.1964249,58.2921488 C14.2717855,58.8852831 17.440585,58.7634062 20.4590697,57.9387058 C10.8876701,56.0049256 4.00162503,47.5954192 4.00162503,37.8290166 C4.00162503,37.7396402 4.00162503,37.6543264 4.00162503,37.5690125 C6.85354459,39.1574749 10.0467195,40.0390511 13.3130205,40.1365527 C4.29819216,34.111771 1.51939874,22.1190836 6.9632338,12.7426871 C17.3796466,25.5600749 32.7483242,33.3520717 49.2463945,34.176772 C47.5929311,27.0510357 49.8517164,19.584044 55.1817997,14.5749033 C63.4450538,6.8072819 76.4411944,7.20541312 84.2088158,15.4646047 C88.8035751,14.558653 93.2073939,12.8726892 97.2374568,10.4839018 C95.7058704,15.2330385 92.5005078,19.2671641 88.2185659,21.8306416 C92.285192,21.3512591 96.258379,20.2624921 100,18.6009037 C97.245582,22.7284682 93.7761528,26.3238368 89.76234,29.2285697 Z" stroke="none" fill="#1D9BF0" fill-rule="nonzero"></path>
</svg>