<svg viewBox="0 0 150 150" version="1.1" xmlns="http://www.w3.org/2000/svg" xmlns:xlink="http://www.w3.org/1999/xlink">
	<rect fill="#3177BC" x="0" y="0" width="150" height="150"></rect>
	<path d="M75.5902985,35 C89.2490407,35.2608556 100.488468,41.449034 107.167559,53.2506177 C110.527513,59.4102244 111.57576,65.8778114 111.798396,73.009597 L111.798396,81.3937122 L61.593891,81.3937122 C61.8237631,102.098896 92.0579698,101.393881 105.082198,92.2657891 L105.082198,109.119363 C97.4569022,113.701962 80.1654762,117.783629 66.770187,112.533121 C55.3600722,108.247371 47.2338441,96.3177713 47.2895032,84.8334444 C46.9184426,69.9353596 54.692163,60.0836995 66.770187,54.4806838 C64.2098685,57.6588182 62.2618002,61.1597753 61.2413834,67.2080638 L89.5904165,67.2080638 C89.5904165,67.2080638 91.248501,50.2672902 73.5476096,50.2672902 C56.8498807,50.8572766 44.8089628,60.5660783 38,70.5086483 C40.3525245,52.0075646 52.966731,35.2226364 75.5902985,35 Z" fill="#FFFFFF"></path>
</svg>