<svg viewBox="0 0 150 150" version="1.1" xmlns="http://www.w3.org/2000/svg" xmlns:xlink="http://www.w3.org/1999/xlink">
	<g id="skype">
		<rect class="background" fill="#00AFF0" x="0" y="0" width="150" height="150"></rect>
		<path d="M112.168422,81.6621269 C112.143083,81.8027556 112.125346,81.9446512 112.098741,82.08528 L111.961913,81.2795154 C112.036662,81.4049411 112.098741,81.5354344 112.168422,81.6621269 C112.581439,79.4146013 112.798084,77.1138649 112.798084,74.8143955 C112.798084,69.715021 111.799746,64.7676776 109.827144,60.1104601 C107.924222,55.6116082 105.201599,51.5713833 101.730224,48.1025418 C98.2639168,44.6337003 94.2211577,41.9110777 89.7248397,40.0081559 C85.068889,38.038087 80.1215457,37.0397498 75.0221712,37.0397498 C72.6188138,37.0397498 70.2116557,37.2652625 67.8691108,37.715021 C67.864043,37.716288 67.8577085,37.716288 67.8513738,37.7175548 C67.9831341,37.7872358 68.1161612,37.8493151 68.2453876,37.9215299 L67.4510254,37.7973712 C67.5840526,37.7720327 67.7183466,37.7441603 67.8513738,37.7175548 C64.6371842,36.0084726 61.0226463,35.0962864 57.3637659,35.0962864 C51.390213,35.0962864 45.773933,37.4223612 41.5500039,41.6475572 C37.3273418,45.8714863 35,51.4877663 35,57.4613192 C35,61.2633621 35.9780663,65.0007919 37.8138412,68.3036662 C37.8379127,68.1668383 37.8543828,68.0287434 37.8809882,67.8919155 L38.0178162,68.6837438 C37.9468683,68.5595851 37.884789,68.4303588 37.8138412,68.3036662 C37.4413651,70.4435031 37.2449917,72.6302162 37.2449917,74.8143955 C37.2449917,79.9150368 38.2433289,84.8611133 40.2159316,89.5195978 C42.1163196,94.0197166 44.840209,98.0574072 48.3077837,101.526249 C51.779159,104.99509 55.8168501,107.721514 60.3182358,109.619368 C64.9741864,111.593238 69.9227967,112.592842 75.0221712,112.592842 C77.2418244,112.592842 79.4665453,112.390134 81.6380553,112.004989 C81.5113627,111.934041 81.3821363,111.869427 81.25291,111.794679 L82.0599414,111.936574 C81.9205796,111.96318 81.7799509,111.97965 81.6380553,112.004989 C84.984005,113.897775 88.7721118,114.903714 92.6400349,114.903714 C98.6123208,114.903714 104.226067,112.581439 108.449996,108.354977 C112.675192,104.133582 115,98.5160344 115,92.5424816 C115,88.7277695 114.016866,84.9776704 112.168422,81.6621269 L112.168422,81.6621269 L112.168422,81.6621269 Z M75.1729353,97.9497192 C61.7523953,97.9497192 55.7484362,91.3515718 55.7484362,86.4067623 C55.7484362,83.8703777 57.6209518,82.0928815 60.2016786,82.0928815 C65.9446512,82.0928815 64.4572809,90.3392984 75.1729353,90.3392984 C80.658722,90.3392984 83.6879405,87.360757 83.6879405,84.3125347 C83.6879405,82.4792937 82.7833558,80.4471455 79.1713517,79.556497 L67.2343812,76.5766886 C57.6209518,74.1657297 55.8763956,68.968802 55.8763956,64.083538 C55.8763956,53.9405337 65.4264787,50.1321562 74.3950431,50.1321562 C82.6566632,50.1321562 92.3955182,54.6981551 92.3955182,60.7831974 C92.3955182,63.3905298 90.1378573,64.9070394 87.5583974,64.9070394 C82.6566632,64.9070394 83.5587141,58.1226543 73.685565,58.1226543 C68.7863647,58.1226543 66.0726106,60.3410405 66.0726106,63.5159554 C66.0726106,66.6845356 69.9418006,67.696809 73.3016866,68.4620319 L82.1372238,70.4232323 C91.8152665,72.5795392 94.2693008,78.2300262 94.2693008,83.5523795 C94.2693008,91.7949956 87.9422757,97.9497192 75.1729353,97.9497192 L75.1729353,97.9497192 L75.1729353,97.9497192 Z" class="icon" fill="#FFFFFF"></path>
	</g>
</svg>