<svg viewBox="0 0 100 100" version="1.1" xmlns="http://www.w3.org/2000/svg" xmlns:xlink="http://www.w3.org/1999/xlink">
	<path d="M80.6216216,40.8108108 C80.6216216,23.8216216 66.8,10 49.8108108,10 C32.8216216,10 19,23.8216216 19,40.8108108 C19,49.9686486 23.0205405,58.2010811 29.3837838,63.8497297 L23.9437838,77.6886486 C23.7405405,78.2064865 23.8162162,78.7945946 24.1448649,79.2443243 C24.4735135,79.6918919 25.0043243,79.9632432 25.5643243,79.9102703 L33.2745946,79.3935135 L30.8389189,87.7318919 C30.6951351,88.2237838 30.7924324,88.8194595 31.1016216,89.2291892 C31.4086486,89.6345946 31.8875676,90 32.3956757,90 L32.4097297,90 L66.8864865,89.5859459 C67.4010811,89.5816216 67.8821622,89.2064865 68.1848649,88.7913514 C68.4864865,88.3740541 68.5740541,87.8389189 68.4183784,87.3491892 L65.8908108,79.3578378 L74.0648649,79.8951351 C74.6302703,79.9254054 75.172973,79.6702703 75.4983784,79.2075676 C75.8237838,78.7427027 75.8821622,78.1437838 75.6551351,77.6237838 L69.7794595,64.2475676 C76.4075676,58.5913514 80.6216216,50.1859459 80.6216216,40.8108108 L80.6216216,40.8108108 Z M22.2432432,40.8108108 C22.2432432,25.6097297 34.6097297,13.2432432 49.8108108,13.2432432 C65.0118919,13.2432432 77.3783784,25.6097297 77.3783784,40.8108108 C77.3783784,49.7059459 73.1394595,57.6259459 66.5805405,62.6702703 C66.0951351,63.0443243 65.6,63.4021622 65.0951351,63.7394595 C64.9275676,63.8518919 64.7556757,63.9589189 64.5848649,64.067027 C64.1762162,64.3286486 63.7621622,64.5772973 63.3437838,64.8140541 C63.0659459,64.9718919 62.7837838,65.1232432 62.5016216,65.2724324 C62.1362162,65.4627027 61.7664865,65.6443243 61.3945946,65.8183784 C61.1286486,65.9416216 60.8637838,66.0659459 60.5924324,66.1816216 C60.1232432,66.3827027 59.6497297,66.5664865 59.1708108,66.7416216 C58.8875676,66.8443243 58.6010811,66.9383784 58.3135135,67.0324324 C57.9232432,67.1589189 57.5297297,67.2767568 57.1340541,67.3848649 C56.8064865,67.4745946 56.4767568,67.5578378 56.1448649,67.6367568 C55.7037838,67.7405405 55.2583784,67.8356757 54.8108108,67.9167568 C54.6,67.9556757 54.3891892,67.9956757 54.1762162,68.0302703 C53.5675676,68.1264865 52.9524324,68.2021622 52.3340541,68.2583784 C52.1740541,68.2735135 52.0108108,68.2832432 51.8508108,68.2951351 C51.1740541,68.3437838 50.4951351,68.3783784 49.8108108,68.3783784 C49.0767568,68.3783784 48.3459459,68.3416216 47.6172973,68.2832432 C47.52,68.2756757 47.4227027,68.2691892 47.3254054,68.2605405 C46.6021622,68.1935135 45.8821622,68.1016216 45.1675676,67.9783784 C45.1081081,67.9686486 45.0497297,67.9567568 44.9913514,67.947027 C42.7578378,67.5491892 40.5827027,66.8745946 38.5178378,65.9481081 C38.4140541,65.9005405 38.3091892,65.8551351 38.2064865,65.8064865 C37.6118919,65.5308108 37.0291892,65.2324324 36.4551351,64.9145946 C36.2843243,64.8194595 36.1167568,64.7210811 35.9481081,64.6227027 C35.4464865,64.3297297 34.9535135,64.0248649 34.4702703,63.7016216 C34.2464865,63.5502703 34.0302703,63.3924324 33.8118919,63.2356757 C33.4724324,62.9935135 33.1394595,62.7427027 32.8108108,62.4854054 C26.3827027,57.4356757 22.2432432,49.6 22.2432432,40.8108108 L22.2432432,40.8108108 Z M27.9005405,76.4821622 L32.0324324,65.9740541 C32.1556757,66.0616216 32.2875676,66.1351351 32.4118919,66.2205405 C32.8875676,66.5481081 33.3708108,66.8659459 33.8659459,67.1654054 C34.0421622,67.2724324 34.2216216,67.3697297 34.3989189,67.4724324 C34.8702703,67.7459459 35.3481081,68.0054054 35.8345946,68.2551351 C35.9686486,68.3232432 36.0994595,68.3935135 36.2335135,68.4594595 C36.5805405,68.6302703 36.9340541,68.7924324 37.2886486,68.9513514 L34.4843243,76.0281081 L27.9005405,76.4821622 L27.9005405,76.4821622 Z M34.5664865,86.4854054 L36.7675676,78.9816216 C36.8032432,78.9189189 36.8497297,78.8648649 36.8767568,78.7956757 L40.3156757,70.1178378 C41.0951351,70.3708108 41.8886486,70.5913514 42.692973,70.7827027 C42.7383784,70.7935135 42.7827027,70.8032432 42.827027,70.812973 C44.2594595,71.147027 45.7286486,71.3794595 47.2291892,71.5059459 C47.3697297,71.5178378 47.5113514,71.5286486 47.6518919,71.5372973 C48.3654054,71.587027 49.0843243,71.6216216 49.8108108,71.6216216 C50.4972973,71.6216216 51.1762162,71.5913514 51.8518919,71.547027 C52.0572973,71.532973 52.2627027,71.5178378 52.467027,71.4994595 C52.9945946,71.4540541 53.52,71.3956757 54.04,71.3243243 C54.2962162,71.2897297 54.5535135,71.252973 54.8086486,71.2108108 C55.2962162,71.1308108 55.7816216,71.0410811 56.2637838,70.9372973 C56.5805405,70.8691892 56.8951351,70.7956757 57.2097297,70.7189189 C57.5135135,70.6432432 57.8151351,70.5610811 58.1156757,70.4756757 C58.2886486,70.427027 58.4659459,70.387027 58.6389189,70.3362162 L62.0702703,78.5535135 C62.1459459,78.7340541 62.2562162,78.8875676 62.3827027,79.0237838 L64.6627027,86.2356757 L34.5664865,86.4854054 L34.5664865,86.4854054 Z M67.132973,66.2864865 L71.6108108,76.4832432 L64.5275676,76.0172973 L61.6951351,69.2345946 C61.9059459,69.1459459 62.1135135,69.0497297 62.3221622,68.9567568 C62.8378378,68.7264865 63.3459459,68.4832432 63.8486486,68.2237838 C64.1437838,68.0713514 64.44,67.9178378 64.7286486,67.7567568 C65.0032432,67.6021622 65.2767568,67.4475676 65.5481081,67.2843243 C65.9913514,67.0205405 66.427027,66.7459459 66.8562162,66.4594595 C66.947027,66.4010811 67.0432432,66.3491892 67.132973,66.2864865 L67.132973,66.2864865 Z M49.8108108,62.4324324 C61.7318919,62.4324324 71.4324324,52.732973 71.4324324,40.8108108 C71.4324324,28.8886486 61.7318919,19.1891892 49.8108108,19.1891892 C37.8886486,19.1891892 28.1891892,28.8886486 28.1891892,40.8108108 C28.1891892,52.732973 37.8897297,62.4324324 49.8108108,62.4324324 L49.8108108,62.4324324 Z M49.8108108,21.3513514 C60.5416216,21.3513514 69.2702703,30.0810811 69.2702703,40.8108108 C69.2702703,51.5405405 60.5416216,60.2702703 49.8108108,60.2702703 C39.0810811,60.2702703 30.3513514,51.5405405 30.3513514,40.8108108 C30.3513514,30.0810811 39.0810811,21.3513514 49.8108108,21.3513514 L49.8108108,21.3513514 Z" fill="#FFFFFF"></path>
</svg>