<svg viewBox="0 0 150 100" width="150" height="100" xmlns="http://www.w3.org/2000/svg" xmlns:xlink="http://www.w3.org/1999/xlink">
	<rect fill="#E8E6E8" x="0" y="0" width="150" height="16"></rect>
	<circle fill="#FC645F" cx="10" cy="8" r="3"></circle>
	<circle fill="#FDBD41" cx="21" cy="8" r="3"></circle>
	<circle fill="#35CC4B" cx="32" cy="8" r="3"></circle>
	<rect fill="#1C2B34" x="0" y="16" width="50" height="84"></rect>
	<rect fill="#52504E" x="50" y="16" width="100" height="84"></rect>
	<path d="M72,38 L100,38 L100,78 L72,78 C70.8954305,78 70,77.1045695 70,76 L70,40 C70,38.8954305 70.8954305,38 72,38 Z" fill="#AD8C54"></path>
	<circle fill="#FFFFFF" cx="85" cy="58" r="7"></circle>
	<path d="M100,38 L128,38 C129.104569,38 130,38.8954305 130,40 L130,72 L100,72 L100,38 Z" fill="#FFFFFF"></path>
	<path d="M100,72 L130,72 L130,76 C130,77.1045695 129.104569,78 128,78 L100,78 L100,72 Z" fill="#DFB72C"></path>
	<rect fill="#DFB72C" x="102" y="40" width="26" height="4" rx="1"></rect>
	<rect fill="#DFB72C" x="102" y="46" width="26" height="4" rx="1"></rect>
	<rect fill="#DFB72C" x="102" y="52" width="26" height="4" rx="1"></rect>
	<rect fill="#3B5998" x="107" y="59" width="16" height="4" rx="2"></rect>
	<rect fill="#00ACED" x="107" y="65" width="16" height="4" rx="2"></rect>
</svg>