<svg viewBox="0 0 150 100" width="150" height="100" xmlns="http://www.w3.org/2000/svg" xmlns:xlink="http://www.w3.org/1999/xlink">
	<defs>
		<linearGradient x1="0%" y1="0%" x2="100%" y2="100%" id="gradient-005-1">
			<stop stop-color="#B4ED50" offset="0%"></stop>
			<stop stop-color="#07F7BF" offset="100%"></stop>
		</linearGradient>
		<linearGradient x1="0%" y1="0%" x2="100%" y2="100%" id="gradient-005-2">
			<stop stop-color="#C96DD8" offset="0%"></stop>
			<stop stop-color="#3023AE" offset="100%"></stop>
		</linearGradient>
	</defs>
	<rect fill="#E8E6E8" x="0" y="0" width="150" height="16"></rect>
	<circle fill="#FC645F" cx="10" cy="8" r="3"></circle>
	<circle fill="#FDBD41" cx="21" cy="8" r="3"></circle>
	<circle fill="#35CC4B" cx="32" cy="8" r="3"></circle>
	<rect fill="#1C2B34" x="0" y="16" width="50" height="84"></rect>
	<path d="M150,16 L150,93.9926375 C150,97.3104122 147.312319,100 144.006935,100 L50,100 L50,16 L150,16 Z" fill="#121212"></path>
	<rect fill="#121212" x="50" y="16" width="100" height="84"></rect>
	<rect fill="url(#gradient-005-1)" x="72" y="46" width="24" height="24" rx="2"></rect>
	<rect fill="#FFFFFF" x="79" y="53" width="10" height="10" rx="1"></rect>
	<rect fill="url(#gradient-005-2)" x="104" y="46" width="24" height="24" rx="2"></rect>
	<rect fill="#FFFFFF" x="111" y="53" width="10" height="10" rx="1"></rect>
</svg>