<svg viewBox="0 0 150 100" xmlns="http://www.w3.org/2000/svg" xmlns:xlink="http://www.w3.org/1999/xlink">
    <defs>
        <linearGradient x1="0%" y1="14.72%" x2="100%" y2="85.28%" id="gradient-006-1">
            <stop stop-color="#F5515F" offset="0%"></stop>
            <stop stop-color="#05ABE0" offset="100%"></stop>
        </linearGradient>
        <linearGradient x1="0%" y1="0%" x2="100%" y2="100%" id="gradient-006-2">
            <stop stop-color="#F5C8BF" offset="0%"></stop>
            <stop stop-color="#F58DBF" offset="100%"></stop>
        </linearGradient>
        <linearGradient x1="0%" y1="0%" x2="100%" y2="100%" id="gradient-006-3">
            <stop stop-color="#FCD000" offset="0%"></stop>
            <stop stop-color="#FC9A00" offset="100%"></stop>
        </linearGradient>
        <linearGradient x1="0%" y1="0%" x2="98.4235491%" y2="98.4235491%" id="gradient-006-4">
            <stop stop-color="#41ADC4" offset="0%"></stop>
            <stop stop-color="#4183C4" offset="100%"></stop>
        </linearGradient>
        <linearGradient x1="0%" y1="46.875%" x2="100%" y2="53.125%" id="gradient-006-5">
            <stop stop-color="#F5825F" offset="0%"></stop>
            <stop stop-color="#F5005F" offset="100%"></stop>
        </linearGradient>
        <linearGradient x1="0%" y1="46.875%" x2="99.6253189%" y2="53.1015824%" id="gradient-006-6">
            <stop stop-color="#05C8E0" offset="0%"></stop>
            <stop stop-color="#057FE0" offset="100%"></stop>
        </linearGradient>
        <radialGradient cx="56.3183594%" cy="71.9555664%" fx="56.3183594%" fy="71.9555664%" r="117.666543%" gradientTransform="translate(0.563184,0.719556),scale(1,0.75),rotate(-79.423090),translate(-0.563184,-0.719556)" id="gradient-006-7">
            <stop stop-color="#C44D6E" offset="0%"></stop>
            <stop stop-color="#494F6D" offset="100%"></stop>
        </radialGradient>
    </defs>
    <g id="006" stroke="none" stroke-width="1" fill="none" fill-rule="evenodd">
        <rect fill="#E8E6E8" x="0" y="0" width="150" height="16"></rect>
        <circle fill="#FC645F" cx="10" cy="8" r="3"></circle>
        <circle fill="#FDBD41" cx="21" cy="8" r="3"></circle>
        <circle fill="#35CC4B" cx="32" cy="8" r="3"></circle>
        <rect fill="#1C2B34" x="0" y="16" width="50" height="84"></rect>
        <rect fill="url(#gradient-006-1)" x="50" y="16" width="100" height="84"></rect>
        <path d="M100,38 L128,38 C129.104569,38 130,38.8954305 130,40 L130,76 C130,77.1045695 129.104569,78 128,78 L92,78 L100,38 Z" fill="#FFFFFF"></path>
        <circle fill="url(#gradient-006-2)" cx="108" cy="63" r="2"></circle>
        <circle fill="url(#gradient-006-3)" cx="113.5" cy="63" r="2"></circle>
        <circle fill="url(#gradient-006-4)" cx="119" cy="63" r="2"></circle>
        <rect fill="#343434" x="103" y="52" width="22" height="3" rx="1.5"></rect>
        <rect fill="url(#gradient-006-5)" x="105" y="57" width="8" height="2" rx="1"></rect>
        <rect fill="url(#gradient-006-6)" x="114" y="57" width="8" height="2" rx="1"></rect>
        <path d="M72,38 L100,38 L92,78 L72,78 C70.8954305,78 70,77.1045695 70,76 L70,40 C70,38.8954305 70.8954305,38 72,38 Z" fill="url(#gradient-006-7)"></path>
    </g>
</svg>