<svg viewBox="0 0 150 100" xmlns="http://www.w3.org/2000/svg" xmlns:xlink="http://www.w3.org/1999/xlink">
	<defs>
	<linearGradient x1="100%" y1="85.28%" x2="0%" y2="14.72%" id="gradient-007">
		<stop stop-color="#CD908B" offset="0%"></stop>
		<stop stop-color="#725767" offset="50%"></stop>
		<stop stop-color="#3F4159" offset="100%"></stop>
	</linearGradient>
	</defs>
	<rect fill="#E8E6E8" x="0" y="0" width="150" height="16"></rect>
	<circle fill="#FC645F" cx="10" cy="8" r="3"></circle>
	<circle fill="#FDBD41" cx="21" cy="8" r="3"></circle>
	<circle fill="#35CC4B" cx="32" cy="8" r="3"></circle>
	<rect fill="#1C2B34" x="0" y="16" width="50" height="84"></rect>
	<path d="M150,16 L150,93.9926375 C150,97.3104122 147.312319,100 144.006935,100 L50,100 L50,16 L150,16 Z" fill="url(#gradient-007)"></path>
	<rect fill="url(#gradient-007)" x="50" y="16" width="100" height="84"></rect>
	<path d="M70,44 L130,44 L130,76 C130,77.1045695 129.104569,78 128,78 L72,78 C70.8954305,78 70,77.1045695 70,76 L70,44 Z" fill="#FFFFFF"></path>
	<rect fill="#725767" x="90" y="69" width="20" height="6" rx="1"></rect>
	<path d="M72,38 L84,38 L84,44 L70,44 L70,40 C70,38.8954305 70.8954305,38 72,38 Z" fill="#725767"></path>
	<path d="M84,38 L128,38 C129.104569,38 130,38.8954305 130,40 L130,44 L84,44 L84,38 Z" fill="#F3E3E2"></path>
	<rect fill="#EBEBEB" x="73" y="47" width="8" height="8" rx="1"></rect>
	<rect fill="#EBEBEB" x="83" y="52" width="8" height="3" rx="1"></rect>
	<rect fill="#EBEBEB" x="73" y="57" width="14" height="3" rx="1.5"></rect>
	<rect fill="#EBEBEB" x="89" y="57" width="14" height="3" rx="1.5"></rect>
	<rect fill="#EBEBEB" x="105" y="57" width="14" height="3" rx="1.5"></rect>
	<rect fill="#EBEBEB" x="73" y="62" width="14" height="3" rx="1.5"></rect>
	<rect fill="#EBEBEB" x="89" y="62" width="14" height="3" rx="1.5"></rect>
	<rect fill="#CC908C" x="83" y="47" width="3" height="3" rx="1"></rect>
	<rect fill="#343434" x="88" y="47" width="14" height="3" rx="1.5"></rect>
</svg>