<svg viewBox="0 0 150 100" width="150" height="100" xmlns="http://www.w3.org/2000/svg" xmlns:xlink="http://www.w3.org/1999/xlink">
	<rect fill="#E8E6E8" x="0" y="0" width="150" height="16"></rect>
	<circle fill="#FC645F" cx="10" cy="8" r="3"></circle>
	<circle fill="#FDBD41" cx="21" cy="8" r="3"></circle>
	<circle fill="#35CC4B" cx="32" cy="8" r="3"></circle>
	<rect fill="#1C2B34" x="0" y="16" width="50" height="84"></rect>
	<rect fill="#3FE2D9" x="50" y="16" width="100" height="84"></rect>
	<rect fill="#FFFFFF" x="74" y="42" width="52" height="14" rx="1"></rect>
	<rect fill="#43CB9D" x="90" y="45" width="20" height="8" rx="4"></rect>
	<rect fill="#FFFFFF" x="74" y="60" width="52" height="14" rx="1"></rect>
	<rect fill="#CED6E4" x="77" y="63" width="14" height="8" rx="4"></rect>
	<circle fill="#FFFFFF" cx="81" cy="67" r="2.5"></circle>
	<rect fill="#CAE7F4" x="93" y="63" width="14" height="8" rx="4"></rect>
	<circle fill="#FFFFFF" cx="97" cy="67" r="2.5"></circle>
	<rect fill="#F2D1DA" x="109" y="63" width="14" height="8" rx="4"></rect>
	<circle fill="#FFFFFF" cx="113" cy="67" r="2.5"></circle>
</svg>