<svg xmlns="http://www.w3.org/2000/svg" version="1.2" baseProfile="tiny" x="0" y="0" viewBox="0 0 57.3 66.3" xml:space="preserve"><text transform="matrix(1 0 0 1 7.1079 13.5215)" opacity="0">x</text><path fill="#FFFFFF" d="M21.3 49.8c0 0-5.8-1-6.7-2.6 -0.8-1.6-1.5-1.9-1.3-0.8 0.3 1.1 1.6 4.5 7.4 5 -1.5 0.3-5.2 0.5-7.3-3.1 -2.1-3.7-2.7-2.4-2.4-2.4 0.4 0 2.3-2.1 3.5 0.1 1.2 2.2 4.2 2.9 7 3.9L21.3 49.8zM6.7 57.8c0 0 1.3 1.7 2.6 2.1 1.3 0.4 4.6 2.5 5.6 2.5 1.1 0 2.9-0.6 4 2.5 0 0-0.4-1.4-2.3-1.7 -1.8-0.3-4.6-1.1-6.3-1.9C8.7 60.5 7.8 60 7.8 60s1.9 3.2 5.1 3.9c3.2 0.6 3.4 1.4 3.4 1.4s0.2-0.3-2.2-0.3c-2.5 0-4.5-1.5-5.1-2.2 0 1 0.8 2.9 2 3.7 -1.2-0.1-3.2-2.8-3.4-5C7.3 60.5 6.3 59.2 6.7 57.8zM53.4 36.9c0.5-0.8 0.9-1.6 1.3-2.6C53.9 36 53.3 37 53.4 36.9zM2.1 51.7c-0.9 1.6-3.2 7.7 5.1 6.3 0 0-5.9 0.3-4.7-3.3 1.2-3.7 2.5-7.7 2.9-8.2 0.5-0.4 0.5-0.5 1-1.8 0.5-1.3 2.2-0.7 3.5-0.7s4.3-0.4 5.5 0.7c1.2 1.2 5.7 2.6 10.4 2.4 0.1 0-3.4-0.3-5.7-1.2 -2.3-0.9-4.4-2.9-7.2-3 -2.8-0.1-7.5-3.3-9.3-6.5C1.9 33.3 0 27 5.9 16.5 8.7 11.6 21.2 0.5 36.3 3c19.8 3.3 21.9 21.8 18.4 31.3 2.3-5.5 6.1-18.3-4.4-28 -14-12.9-39-3.8-46.3 10.1 -7.4 13.9-2.3 21-0.9 22.2 0 0 0.5 0.5 0.1 2.4 -0.4 1.9 0.9 4.7 0.7 6.2C3.7 48.6 3 50.1 2.1 51.7zM3.9 39.8c0 0.1 0.1 0.1 0.1 0.2 0.3 0.3 1.3 1.2 1.4 1.9 0.1 0.9-0.9 3.4-1.1 4.1C4.1 46.6 4 44 4.1 43.3c0.1-0.7 0.3-0.8 0-0.8 -0.2 0 0.6-0.2 0.6-0.2s0.1-1.2-0.7-2.3C3.9 39.9 3.9 39.8 3.9 39.8L3.9 39.8 3.9 39.8zM5.5 57.6c0 0 2.8-0.2 4.5-1.2C9.6 56.9 8.5 58 5.5 57.6z"/><path fill="#FFFFFF" d="M51.9 18.9c1.8 8.5-2.4 17.4-10.8 21.6 -5.5 2.7-11.8 2.9-17.1 0.8 5.5 3.7 13 4.4 19.4 1.3C52.4 38 56 27.6 51.9 18.9z"/><path fill="#FFFFFF" d="M28.1 37.4c-5.4-1.2-9.6-4.5-12.1-8.8 1.6 5.5 6.2 10.1 12.4 11.4 8.7 1.9 17.3-3.2 19.7-11.4C44.3 35.4 36.2 39.1 28.1 37.4z"/><path fill="#FFFFFF" d="M21.8 29.6c-3.4-3.2-4.9-7.6-4.6-11.9 -1.5 4.8-0.3 10.2 3.6 14 5.5 5.3 14.3 5.4 20 0.4C34.7 35.3 26.9 34.5 21.8 29.6z"/><path fill="#FFFFFF" d="M21.1 18.4c-0.9-4.5 0.3-9 3.1-12.3 -4 3.1-6.2 8.3-5.1 13.5 1.5 7.3 8.7 12.2 16.3 11.1C28.4 30.1 22.5 25.3 21.1 18.4z"/></svg>