<svg xmlns="http://www.w3.org/2000/svg" version="1.1" x="0" y="0" viewBox="0 0 101.1 108.4" xml:space="preserve"><text transform="matrix(1 0 0 1 7.1079 13.5215)" opacity="0">x</text><path fill-rule="evenodd" clip-rule="evenodd" fill="#FFFFFF" d="M49.1 46.1l-1.1 0.9 9 10.7 1.1-0.9 3.1 3.7c0.5 0.4 1.2 0.8 1.9 1 4.3 0.3 7.7 3.9 7.7 8.3 0 4.6-3.7 8.3-8.3 8.3 -4.6 0-8.3-3.7-8.3-8.3 0-0.3 0-0.5 0-0.8 -0.1-0.7-0.3-1.3-0.5-1.8l-3.3-3.9 1.1-0.9 -9-10.7 -1.1 0.9L15.9 22l0 0 12.2-0.9 0 0 16.3-1.2 9.7-11.6L6.2 7.4 0 0.7 70.5 0l3.5 2.6 -24.1 24.6 -15.5 1.4L49.1 46.1zM62.5 73.7c2.2 0 4-1.8 4-4 0-2.2-1.8-4-4-4 -2.2 0-4 1.8-4 4C58.5 72 60.3 73.7 62.5 73.7z"/><path fill-rule="evenodd" clip-rule="evenodd" fill="#A82030" d="M62.4 97.4c4.9 0 9.4-1.3 13.4-3.5l-9.6-11.4 8.1-6.8 9.6 11.4v0l0.8 0.9 6.2 7.4 0 0 0.3 0.3c-7.1 7.8-17.3 12.7-28.7 12.7 -21.4 0-38.7-17.4-38.7-38.8 0-9.4 3.4-18 8.9-24.8l7.4 8.8c-3.2 4.5-5.1 10.1-5.1 16C34.8 85 47.2 97.4 62.4 97.4zM90.1 69.7c0-15.3-12.4-27.7-27.7-27.7 -4.3 0-8.3 1-11.9 2.7l-7.4-8.8c5.7-3.2 12.2-5.1 19.2-5.1 21.4 0 38.7 17.4 38.8 38.8 0 5.3-1.1 10.4-3 15l-8.5-10.1C89.9 73 90.1 71.4 90.1 69.7z"/></svg>