<svg xmlns="http://www.w3.org/2000/svg" version="1.1" x="0" y="0" viewBox="0 0 800 174" xml:space="preserve"><text transform="matrix(1 0 0 1 7.1079 13.5215)" opacity="0">x</text><path fill="#F4D459" d="M703.2 0H563.7l-8.1 6h155.7L703.2 0zM717.8 11H548.8L521 31.5h224L717.8 11zM563.7 174h139.5l8-6H555.5L563.7 174zM548.8 163h169.1L745 142.5H521L548.8 163z"/><path fill="#8ACFB2" d="M493 87c0-35.3-28.4-63.9-63.5-63.9S366 51.7 366 87s28.4 63.9 63.5 63.9S493 122.3 493 87zM361 87c0-29 17.9-53.8 43.1-64H289v128h115.1C378.9 140.8 361 116 361 87zM781 45.9v-1l-2-2.6c-2.4-4-5-7.5-7.9-10.4l-1-1.3c-3.6-4.8-8.4-7.3-13.1-7.6v0h-0.4c-0.4 0-0.8 0-1.3 0h-3.3c-0.2 0-0.4 0-0.6 0s-0.4 0-0.6 0H454.9C480.1 33.2 498 58 498 87c0 29-17.9 53.8-43.1 64H757v0c4.8-0.3 9.5-2.9 13.1-7.6l1-1.3c2.9-2.9 5.6-6.4 7.9-10.3l2-2.6v-1c5.6-11.1 9-25.5 9-41.1C790 71.3 786.6 57 781 45.9z"/><path fill="#F4D459" d="M789.5 116h-76.1c-1.9 0-3.4 0.9-3.4 2v14c0 1.1 1.5 2 3.4 2h69.5c1.8 0 3.2-0.9 3.2-2l6.9-14C793 116.9 791.4 116 789.5 116zM713.4 58h76.1c1.9 0 3.5-0.9 3.5-2l-6.9-14c0-1.1-1.4-2-3.2-2h-69.5c-1.9 0-3.4 0.9-3.4 2v14C710 57.1 711.5 58 713.4 58zM796.6 78h-75.2c-1.9 0-3.4 0.9-3.4 2v14c0 1.1 1.5 2 3.4 2h75.2c1.9 0 3.4-0.9 3.4-2V80C800 78.9 798.5 78 796.6 78z"/><path fill="#D8F1E4" d="M523.3 57l0.3 0.3 18.3-18.3h59.9l17.1 17.9C617.7 59.1 617 61.6 617 64.4c0 8.3 6.7 15.1 15 15.1s15-6.8 15-15.1 -6.7-15.1-15-15.1c-2.7 0-5.2 0.7-7.3 1.9L606 31.6v-0.7h-68v0.9l-0.1-0.1 -17.2 17.3h-34c1.7 2.6 3.2 5.2 4.5 8H523.3zM632 55.3c5 0 9 4 9 9s-4 9-9 9 -9-4-9-9S627 55.3 632 55.3zM312 72v29h50.4C361.5 96.5 361 91.8 361 87c0-5.1 0.6-10.2 1.6-15H312zM557.3 101c4.4 6.4 11.8 10.7 20.2 10.7 13.5 0 24.5-11 24.5-24.6s-11-24.6-24.5-24.6c-7.9 0-15 3.8-19.4 9.7h-61.7C497.4 76.8 498 81.9 498 87c0 4.8-0.5 9.5-1.4 14H557.3zM577.5 71.4c8.6 0 15.5 7 15.5 15.6s-6.9 15.6-15.5 15.6S562 95.6 562 87 568.9 71.4 577.5 71.4zM657 80.5c-12.1 0-22 9.9-22 22.1 0 6.3 2.6 12 6.8 16l-15.4 15.4h-85.2L524 116.7v-0.7h-32.4c-1.3 2.8-2.7 5.4-4.4 8h32.7l18.2 18.3 0.3-0.3H630v-0.4l18.5-18.5c2.6 1.1 5.5 1.7 8.5 1.7 12.2 0 22-9.9 22-22.1S669.2 80.5 657 80.5zM657 116.6c-7.7 0-13.9-6.3-13.9-14S649.3 88.6 657 88.6s13.9 6.3 13.9 14S664.7 116.6 657 116.6z"/><ellipse fill="#93272B" cx="429.5" cy="87" rx="51.5" ry="51.8"/><ellipse fill="#3D0A09" cx="429.5" cy="87" rx="39.5" ry="39.7"/><polygon fill="#524D47" points="339 87 275 4 275 78 122 78 122 96 275 96 275 170 "/><polygon fill="#806144" points="97 73 97 78 75 78 75 78.2 70 70 15 70 15 72 13 72 13 102 15 102 15 104 70 104 75 95.8 75 96 97 96 97 101 124 101 124 73 "/><rect x="9" y="76" fill="#8ACFB2" width="4" height="22"/><path fill="#7E2827" d="M9 76c-5 0-9 4.9-9 11s4 11 9 11V76z"/></svg>