<svg viewBox="0 0 150 100" width="150" height="100" xmlns="http://www.w3.org/2000/svg" xmlns:xlink="http://www.w3.org/1999/xlink">
	<rect fill="#1C2B34" x="0" y="16" width="50" height="84"></rect>
	<rect fill="#1E3647" x="50" y="16" width="100" height="84"></rect>
	<rect fill="#E8E6E8" x="0" y="0" width="150" height="16"></rect>
	<circle fill="#FC645F" cx="10" cy="8" r="3"></circle>
	<circle fill="#FDBD41" cx="21" cy="8" r="3"></circle>
	<circle fill="#35CC4B" cx="32" cy="8" r="3"></circle>
	<path d="M88.4999483,50.7692308 L93.6,50.7692308 C93.8209139,50.7692308 94,50.5901447 94,50.3692308 L94,28.1692308 C94,27.9483169 93.8209139,27.7692308 93.6,27.7692308 L84.9999638,27.7692308 C84.9999879,27.7628233 85,27.7564131 85,27.75 C85,24.9885763 82.7614237,22.75 80,22.75 C77.2385763,22.75 75,24.9885763 75,27.75 C75,27.7564131 75.0000121,27.7628233 75.0000362,27.7692308 L66.4,27.7692308 L66.4,27.7692308 C66.1790861,27.7692308 66,27.9483169 66,28.1692308 L66,50.3692308 C66,50.5901447 66.1790861,50.7692308 66.4,50.7692308 L71.5000517,50.7692308 C71.5104037,52.693379 73.0734177,54.25 75,54.25 C76.9265823,54.25 78.4895963,52.693379 78.4999483,50.7692308 L81.5000517,50.7692308 C81.5104037,52.693379 83.0734177,54.25 85,54.25 C86.9265823,54.25 88.4895963,52.693379 88.4999483,50.7692308 Z" fill="#5FB67D"></path>
	<path d="M89.3840886,51.7692308 C88.9221919,53.7641721 87.1339943,55.25 85,55.25 C82.8660057,55.25 81.0778081,53.7641721 80.6159114,51.7692308 L79.3840886,51.7692308 C78.9221919,53.7641721 77.1339943,55.25 75,55.25 C72.8660057,55.25 71.0778081,53.7641721 70.6159114,51.7692308 L66.4,51.7692308 C65.6268014,51.7692308 65,51.1424294 65,50.3692308 L65,28.1692308 C65,27.3960321 65.6268014,26.7692308 66.4,26.7692308 L74.0797643,26.7692308 C74.547895,23.9220614 77.0202915,21.75 80,21.75 C82.9797085,21.75 85.452105,23.9220614 85.9202357,26.7692308 L93.6,26.7692308 C94.3731986,26.7692308 95,27.3960321 95,28.1692308 L95,50.3692308 C95,51.1424294 94.3731986,51.7692308 93.6,51.7692308 L89.3840886,51.7692308 Z" stroke-opacity="0.2" stroke="#FFFFFF" stroke-width="2" fill="none"></path>
	<circle fill="#FFFFFF" cx="75" cy="50.75" r="1.5"></circle>
	<circle fill="#FFFFFF" cx="85" cy="50.75" r="1.5"></circle>
	<circle fill="#BDE3CA" cx="80" cy="27.75" r="3"></circle>
	<path d="M116.500052,50.7692308 L106.4,50.7692308 C106.179086,50.7692308 106,50.5901447 106,50.3692308 L106,28.1692308 C106,27.9483169 106.179086,27.7692308 106.4,27.7692308 L106.4,27.7692308 L115.000036,27.7692308 C115.000012,27.7628233 115,27.7564131 115,27.75 C115,24.9885763 117.238576,22.75 120,22.75 C122.761424,22.75 125,24.9885763 125,27.75 C125,27.7564131 124.999988,27.7628233 124.999964,27.7692308 L133.6,27.7692308 C133.820914,27.7692308 134,27.9483169 134,28.1692308 L134,50.3692308 C134,50.5901447 133.820914,50.7692308 133.6,50.7692308 L123.499948,50.7692308 C123.489596,52.693379 121.926582,54.25 120,54.25 C118.073418,54.25 116.510404,52.693379 116.500052,50.7692308 Z" fill="#E1C55E"></path>
	<path d="M115.615911,51.7692308 L106.4,51.7692308 C105.626801,51.7692308 105,51.1424294 105,50.3692308 L105,28.1692308 C105,27.3960321 105.626801,26.7692308 106.4,26.7692308 L114.079764,26.7692308 C114.547895,23.9220614 117.020291,21.75 120,21.75 C122.979709,21.75 125.452105,23.9220614 125.920236,26.7692308 L133.6,26.7692308 C134.373199,26.7692308 135,27.3960321 135,28.1692308 L135,50.3692308 C135,51.1424294 134.373199,51.7692308 133.6,51.7692308 L124.384089,51.7692308 C123.922192,53.7641721 122.133994,55.25 120,55.25 C117.866006,55.25 116.077808,53.7641721 115.615911,51.7692308 Z" stroke-opacity="0.2" stroke="#FFFFFF" stroke-width="2" fill="none"></path>
	<circle fill="#FFFFFF" cx="120" cy="50.75" r="1.5"></circle>
	<circle fill="#EEE5C6" cx="120" cy="27.75" r="3"></circle>
	<path d="M96.5000517,87.7692308 L86.4,87.7692308 C86.1790861,87.7692308 86,87.5901447 86,87.3692308 L86,65.1692308 C86,64.9483169 86.1790861,64.7692308 86.4,64.7692308 L86.4,64.7692308 L95.0000362,64.7692308 C95.0000121,64.7628233 95,64.7564131 95,64.75 C95,61.9885763 97.2385763,59.75 100,59.75 C102.761424,59.75 105,61.9885763 105,64.75 C105,64.7564131 104.999988,64.7628233 104.999964,64.7692308 L113.6,64.7692308 C113.820914,64.7692308 114,64.9483169 114,65.1692308 L114,87.3692308 C114,87.5901447 113.820914,87.7692308 113.6,87.7692308 L103.499948,87.7692308 C103.489596,89.693379 101.926582,91.25 100,91.25 C98.0734177,91.25 96.5104037,89.693379 96.5000517,87.7692308 Z" fill="#C46465"></path>
	<path d="M95.6159114,88.7692308 L86.4,88.7692308 C85.6268014,88.7692308 85,88.1424294 85,87.3692308 L85,65.1692308 C85,64.3960321 85.6268014,63.7692308 86.4,63.7692308 L94.0797643,63.7692308 C94.547895,60.9220614 97.0202915,58.75 100,58.75 C102.979709,58.75 105.452105,60.9220614 105.920236,63.7692308 L113.6,63.7692308 C114.373199,63.7692308 115,64.3960321 115,65.1692308 L115,87.3692308 C115,88.1424294 114.373199,88.7692308 113.6,88.7692308 L104.384089,88.7692308 C103.922192,90.7641721 102.133994,92.25 100,92.25 C97.8660057,92.25 96.0778081,90.7641721 95.6159114,88.7692308 Z" stroke-opacity="0.2" stroke="#FFFFFF" stroke-width="2" fill="none"></path>
	<circle fill="#FFFFFF" cx="100" cy="87.75" r="1.5"></circle>
	<circle fill="#F4B6BA" cx="100" cy="64.75" r="3"></circle>
</svg>