<svg viewBox="0 0 373 373" version="1.1" xmlns="https://www.w3.org/2000/svg" xmlns:xlink="https://www.w3.org/1999/xlink">
	<path d="M167.617448,371.806707 C138.934308,369.059577 109.894438,358.758717 84.9480441,342.482667 C64.0437121,328.843837 59.3230421,323.237137 59.3230421,312.048077 C59.3230421,289.572837 84.0349571,250.207937 126.315538,205.332237 C150.327998,179.845927 183.775758,149.972227 187.393038,150.781187 C194.423938,152.353567 250.643518,207.191717 271.689588,233.006387 C304.970358,273.827867 320.270538,307.251737 312.497588,322.153207 C306.588888,333.480737 269.925348,355.620107 242.989838,364.125627 C220.789998,371.135737 191.634458,374.106927 167.617448,371.806707 L167.617448,371.806707 L167.617448,371.806707 Z M31.0893421,288.680267 C13.7183021,262.030727 4.94188165,235.794587 0.704571654,197.848327 C-0.694598366,185.318327 -0.193208346,178.151317 3.88172165,152.433177 C8.96054205,120.379137 27.2147321,83.296796 49.1488521,60.475561 C58.4907621,50.755829 59.3250921,50.519018 70.7122621,54.355079 C84.5406191,59.013515 99.3081981,69.212536 122.210628,89.921689 L135.573168,102.004562 L128.276268,110.968872 C94.4038181,152.581497 58.6465921,211.565967 45.1707821,248.058177 C37.8447921,267.896797 34.8899421,287.810987 38.0421021,296.101807 C40.1702821,301.699327 38.2154921,299.612737 31.0893421,288.680267 L31.0893421,288.680267 L31.0893421,288.680267 Z M336.004768,293.212817 C337.720818,284.835627 335.550368,269.450247 330.463468,253.932797 C319.446798,220.326817 282.623828,157.808587 248.810648,115.302257 L238.166328,101.921342 L249.682188,91.347251 C264.718498,77.540614 275.158208,69.273416 286.422438,62.252738 C295.311248,56.712582 308.013528,51.80818 313.473568,51.80818 C316.839828,51.80818 328.690798,64.106906 338.257778,77.528791 C353.075028,98.316502 363.975598,123.515767 369.498228,149.748477 C373.066558,166.698277 373.363928,202.979737 370.073088,219.887827 C367.372408,233.763647 361.669948,251.762667 356.106988,263.969777 C351.938758,273.116347 341.571778,290.880217 337.028688,296.660517 C334.692998,299.632267 334.691078,299.625787 336.004758,293.212817 L336.004768,293.212817 L336.004768,293.212817 Z M170.688508,45.462279 C155.087038,37.539608 131.018908,29.035115 117.723578,26.74707 C113.062608,25.944946 105.111648,25.497596 100.054778,25.752956 C89.0851651,26.306896 89.5751161,25.733256 107.172608,17.4192908 C121.802838,10.5072098 134.006468,6.44259481 150.573048,2.96407281 C169.209248,-0.949012985 204.238638,-0.994935985 222.578118,2.86967281 C242.386298,7.04377781 265.711088,15.7237578 278.854348,23.812059 L282.760678,26.215986 L273.798208,25.763402 C255.988188,24.864036 230.032458,32.059281 202.165518,45.620861 C193.760138,49.711384 186.447638,52.978372 185.915518,52.880831 C185.383408,52.783291 178.531258,49.444941 170.688508,45.462276 L170.688508,45.462279 L170.688508,45.462279 Z" fill="#000000"></path>
</svg>