<svg viewBox="0 0 100 100" version="1.1" xmlns="http://www.w3.org/2000/svg" xmlns:xlink="http://www.w3.org/1999/xlink">
	<path d="M50.4035285,28.3291139 C38.5554272,28.3291139 28.8339082,37.9493671 28.8339082,49.8987342 C28.8339082,61.8481013 38.5554272,71.3670886 50.4035285,71.3670886 C62.2516298,71.3670886 71.9731487,61.6455696 71.9731487,49.7974684 C71.9731487,37.9493671 62.2516298,28.3291139 50.4035285,28.3291139 L50.4035285,28.3291139 Z M50.4035285,68.835443 C39.9731487,68.835443 31.3655538,60.3291139 31.3655538,49.7974684 C31.3655538,39.2658228 39.9731487,30.8607595 50.4035285,30.8607595 C60.8339082,30.8607595 69.4415032,39.3670886 69.4415032,49.7974684 C69.4415032,60.2278481 60.8339082,68.835443 50.4035285,68.835443 L50.4035285,68.835443 Z M50.4035285,40.9873418 C45.542769,40.9873418 41.4921361,44.9367089 41.4921361,49.8987342 C41.4921361,54.8607595 45.4415032,58.8101266 50.4035285,58.8101266 C55.3655538,58.8101266 59.3149209,54.8607595 59.3149209,49.8987342 C59.3149209,44.9367089 55.264288,40.9873418 50.4035285,40.9873418 L50.4035285,40.9873418 Z M50.4035285,56.1772152 C46.9604905,56.1772152 44.0237817,53.3417722 44.0237817,49.7974684 C44.0237817,46.2531646 46.8592247,43.4177215 50.4035285,43.4177215 C53.9478323,43.4177215 56.7832753,46.2531646 56.7832753,49.7974684 C56.7832753,53.3417722 53.8465665,56.1772152 50.4035285,56.1772152 L50.4035285,56.1772152 Z M88.6820095,44.2278481 C89.5934019,43.6202532 89.9984652,42.4050633 89.6946677,41.3924051 L87.264288,34 C86.9604905,32.8860759 85.9478323,32.278481 84.8339082,32.278481 L78.1503639,32.4810127 L75.7199842,29.1392405 L77.9478323,22.8607595 C78.3528956,21.8481013 77.9478323,20.6329114 77.0364399,19.9240506 L70.7579589,15.3670886 C69.8465665,14.6582278 68.6313766,14.7594937 67.7199842,15.3670886 L62.4541614,19.4177215 L58.6060601,18.2025316 L56.6820095,11.8227848 C56.378212,10.7088608 55.3655538,10 54.2516298,10 L46.4541614,10 C45.3402374,10 44.3275791,10.7088608 44.0237817,11.8227848 L42.099731,18.2025316 L38.2516298,19.4177215 L32.985807,15.3670886 C32.0744146,14.6582278 30.8592247,14.6582278 29.9478323,15.3670886 L23.6693513,19.9240506 C22.7579589,20.6329114 22.3528956,21.7468354 22.7579589,22.8607595 L24.985807,29.1392405 L22.6566931,32.3797468 L15.9731487,32.1772152 C14.8592247,32.1772152 13.8465665,32.8860759 13.542769,33.8987342 L11.1123893,41.2911392 C10.8085918,42.4050633 11.1123893,43.5189873 12.1250475,44.1265823 L17.5934019,47.8734177 L17.5934019,51.9240506 L12.1250475,55.8734177 C11.2136551,56.4810127 10.8085918,57.6962025 11.1123893,58.7088608 L13.542769,66.1012658 C13.8465665,67.2151899 14.8592247,67.8227848 15.9731487,67.8227848 L22.6566931,67.6202532 L24.985807,70.8607595 L22.7579589,77.1392405 C22.3528956,78.1518987 22.7579589,79.3670886 23.6693513,80.0759494 L29.9478323,84.6329114 C30.8592247,85.3417722 32.0744146,85.2405063 32.985807,84.6329114 L38.2516298,80.5822785 L42.099731,81.7974684 L44.0237817,88.1772152 C44.3275791,89.2911392 45.3402374,90 46.4541614,90 L54.2516298,90 C55.3655538,90 56.378212,89.2911392 56.6820095,88.1772152 L58.6060601,81.7974684 L62.4541614,80.5822785 L67.7199842,84.6329114 C68.6313766,85.3417722 69.8465665,85.3417722 70.7579589,84.6329114 L77.0364399,80.0759494 C77.9478323,79.3670886 78.3528956,78.2531646 77.9478323,77.1392405 L75.7199842,70.8607595 L78.0490981,67.6202532 L84.7326424,67.8227848 C85.8465665,67.8227848 86.8592247,67.1139241 87.1630222,66.1012658 L89.5934019,58.7088608 C89.8971994,57.5949367 89.5934019,56.4810127 88.5807437,55.8734177 L83.1123893,52.1265823 L83.1123893,48.0759494 L88.6820095,44.2278481 L88.6820095,44.2278481 Z M79.1630222,55.4683544 L84.2263133,58.9113924 L83.0111234,62.6582278 L76.9351741,62.4556962 C76.1250475,62.4556962 75.3149209,62.8607595 74.8085918,63.4683544 L70.8592247,69.0379747 C70.3528956,69.7468354 70.2516298,70.556962 70.5554272,71.3670886 L72.5807437,77.1392405 L69.3402374,79.4683544 L64.4794779,75.721519 C63.7706171,75.2151899 62.9604905,75.0126582 62.1503639,75.3164557 L55.7706171,77.3417722 C54.9604905,77.6455696 54.3528956,78.2531646 54.1503639,79.0632911 L52.4288449,84.9367089 L48.378212,84.9367089 L46.6566931,79.0632911 C46.4541614,78.2531646 45.8465665,77.6455696 45.0364399,77.3417722 L38.6566931,75.3164557 C37.8465665,75.0126582 37.0364399,75.2151899 36.3275791,75.721519 L31.4668196,79.4683544 L28.2263133,77.1392405 L30.2516298,71.3670886 C30.5554272,70.556962 30.4541614,69.7468354 29.9478323,69.0379747 L26.099731,63.5696203 C25.5934019,62.8607595 24.8845412,62.4556962 23.9731487,62.556962 L17.8971994,62.7594937 L16.5807437,58.9113924 L21.6440348,55.4683544 C22.3528956,54.9620253 22.7579589,54.2531646 22.7579589,53.3417722 L22.7579589,46.6582278 C22.7579589,45.8481013 22.3528956,45.0379747 21.6440348,44.5316456 L16.5807437,41.0886076 L17.7959336,37.3417722 L23.8718829,37.5443038 C24.6820095,37.5443038 25.4921361,37.1392405 25.9984652,36.5316456 L29.9478323,31.164557 C30.4541614,30.4556962 30.5554272,29.6455696 30.2516298,28.835443 L28.2263133,23.0632911 L31.4668196,20.7341772 L36.3275791,24.4810127 C37.0364399,24.9873418 37.8465665,25.1898734 38.6566931,24.8860759 L45.0364399,22.8607595 C45.8465665,22.556962 46.4541614,21.9493671 46.6566931,21.1392405 L48.378212,15.2658228 L52.4288449,15.2658228 L54.1503639,21.1392405 C54.3528956,21.9493671 54.9604905,22.556962 55.7706171,22.8607595 L62.1503639,24.8860759 C62.9604905,25.1898734 63.7706171,24.9873418 64.4794779,24.4810127 L69.3402374,20.7341772 L72.5807437,23.0632911 L70.5554272,28.835443 C70.2516298,29.6455696 70.3528956,30.4556962 70.8592247,31.164557 L74.8085918,36.5316456 C75.3149209,37.2405063 76.1250475,37.5443038 76.9351741,37.5443038 L83.0111234,37.3417722 L84.2263133,41.0886076 L79.1630222,44.5316456 C78.4541614,45.0379747 78.0490981,45.7468354 78.0490981,46.6582278 L78.0490981,53.3417722 C78.0490981,54.2531646 78.4541614,54.9620253 79.1630222,55.4683544 L79.1630222,55.4683544 Z" fill="#000000"></path>
</svg>