<svg viewBox="0 0 100 100" version="1.1" xmlns="http://www.w3.org/2000/svg" xmlns:xlink="http://www.w3.org/1999/xlink">
    <rect fill="#040303" x="0" y="0" width="100" height="100" rx="6"></rect>
    <rect fill="#D46A32" x="10" y="30" width="36" height="36" rx="2"></rect>
    <rect fill="#FFFFFF" x="10" y="10" width="36" height="10" rx="5"></rect>
    <rect fill="#FFFFFF" x="54" y="10" width="36" height="10" rx="5"></rect>
    <rect fill="#B39F8A" x="54" y="30" width="36" height="5" rx="2.5"></rect>
    <rect fill="#B39F8A" x="60" y="61" width="30" height="5" rx="2.5"></rect>
    <rect fill="#B39F8A" x="37" y="76" width="53" height="5" rx="2.5"></rect>
    <rect fill="#FFFFFF" x="10" y="76" width="22" height="5" rx="2.5"></rect>
    <rect fill="#FFFFFF" x="10" y="85" width="16" height="5" rx="2.5"></rect>
    <rect fill="#B39F8A" x="65" y="85" width="25" height="5" rx="2.5"></rect>
    <rect fill="#FFFFFF" x="54" y="41" width="22" height="5" rx="2.5"></rect>
    <rect fill="#FFFFFF" x="79" y="41" width="11" height="5" rx="2.5"></rect>
    <rect fill="#FFFFFF" x="54" y="50" width="12" height="5" rx="2.5"></rect>
    <rect fill="#FFFFFF" x="74" y="50" width="16" height="5" rx="2.5"></rect>
</svg>