<svg viewBox="0 0 100 100" version="1.1" xmlns="http://www.w3.org/2000/svg" xmlns:xlink="http://www.w3.org/1999/xlink">
    <path d="M0,50 L100,50 L100,93.9936839 C100,97.3108807 97.312319,100 94.0069352,100 L5.99306484,100 C2.68318653,100 0,97.3117828 0,93.9936839 L0,50 L0,50 Z" fill="#EAE5DF"></path>
    <rect fill="#5B2450" x="5" y="55" width="27" height="5" rx="2.5"></rect>
    <rect fill="#5B2450" x="5" y="61" width="27" height="1" rx="0.5"></rect>
    <rect fill="#5B2450" x="5" y="65" width="27" height="8" rx="4"></rect>
    <rect fill="#5B2450" x="5" y="76" width="27" height="5" rx="2.5"></rect>
    <rect fill="#5B2450" x="25" y="90" width="50" height="5" rx="2.5"></rect>
    <path d="M0,6.00631606 C0,2.6891193 2.68768095,0 5.99306484,0 L94.0069352,0 C97.3168135,0 100,2.68821716 100,6.00631606 L100,50 L0,50 L0,6.00631606 L0,6.00631606 Z" fill="#2F3823"></path>
    <rect fill="#FFFFFF" x="50" y="5" width="45" height="8" rx="4"></rect>
    <rect fill="#FFFFFF" x="70" y="16" width="25" height="3" rx="1.5"></rect>
    <rect fill="#777065" x="5" y="40" width="68" height="3" rx="1.5"></rect>
    <circle fill="#2A4F73" cx="53" cy="31" r="6"></circle>
    <circle fill="#F6F8F8" cx="39.5" cy="32.5" r="4.5"></circle>
    <circle fill="#AA5895" cx="50" cy="79" r="8"></circle>
</svg>