<svg viewBox="0 0 100 100" version="1.1" xmlns="http://www.w3.org/2000/svg" xmlns:xlink="http://www.w3.org/1999/xlink">
    <path d="M5.99306484,0 L94.0069352,0 C97.3168135,0 100,2.67804027 100,6.00333095 L100,16 L0,16 L0,6.00333095 C0,2.68778282 2.68768095,0 5.99306484,0 Z" fill="#E8E6E8"></path>
    <circle fill="#FC645F" cx="10" cy="8" r="3"></circle>
    <circle fill="#FDBD41" cx="21" cy="8" r="3"></circle>
    <circle fill="#35CC4B" cx="32" cy="8" r="3"></circle>
    <path d="M100,16 L100,93.9926375 C100,97.3104122 97.312319,100 94.0069352,100 L5.99306484,100 C2.68318653,100 0,97.3120937 0,93.9926375 L0,16 L100,16 Z" fill="#6AB2D4"></path>
    <rect fill="#5489A2" x="19" y="16" width="62" height="84"></rect>
    <rect fill="#423C33" x="0" y="32" width="100" height="6"></rect>
    <rect fill="#FFFFFF" x="42" y="21" width="16" height="6" rx="3"></rect>
    <rect fill="#40484B" x="24" y="42" width="14" height="14" rx="3"></rect>
    <rect fill="#40484B" x="24" y="61" width="14" height="14" rx="3"></rect>
    <rect fill="#40484B" x="24" y="80" width="14" height="14" rx="3"></rect>
    <rect fill="#40484B" x="43" y="80" width="14" height="14" rx="3"></rect>
    <rect fill="#40484B" x="62" y="80" width="14" height="14" rx="3"></rect>
    <rect fill="#40484B" x="43" y="42" width="14" height="14" rx="3"></rect>
    <rect fill="#40484B" x="62" y="42" width="14" height="14" rx="3"></rect>
    <rect fill="#40484B" x="43" y="61" width="14" height="14" rx="3"></rect>
    <rect fill="#40484B" x="62" y="61" width="14" height="14" rx="3"></rect>
    <circle fill="#BA125C" cx="9.5" cy="78.5" r="6.5"></circle>
    <circle fill="#BA125C" cx="90.5" cy="78.5" r="6.5"></circle>
</svg>