<svg viewBox="0 0 100 100" version="1.1" xmlns="http://www.w3.org/2000/svg" xmlns:xlink="http://www.w3.org/1999/xlink">
    <g stroke-width="1" fill="none" fill-rule="evenodd" stroke="#000000" stroke-linecap="round" stroke-linejoin="round">
        <path d="M19.0029745,30.17898 C19.0030748,28.9755626 19.9769785,28 21.1914463,28 L78.8117098,28 C80.0202691,28 81,28.9689499 81,30.17898 L81,68 L18.9998219,68 L19.0029745,30.17898 Z"></path>
        <path d="M13,68.2171741 C13,68.100597 13.1023676,68.0060842 13.2151489,68.006075 L87.7848511,68 C87.9036745,67.9999903 88,68.1066251 88,68.2115849 L88,68.3661903 C88,69.5346358 87.1553188,70.9371883 86.1300514,71.4898768 L86.5899499,71.2419604 C85.5572057,71.7986793 83.7784197,72.2499891 82.596369,72.2499891 L18.3936327,72.2499891 C17.220783,72.2499891 15.4278941,71.7946488 14.4057519,71.2419604 L14.8642485,71.4898768 C13.8346525,70.9331579 13,69.5317369 13,68.3503358 L13,68.2171741 Z"></path>
        <rect x="24" y="33" width="52" height="30"></rect>
    </g>
</svg>