<svg viewBox="0 0 512 422" version="1.1" xmlns="http://www.w3.org/2000/svg" xmlns:xlink="http://www.w3.org/1999/xlink">
    <g fill="none" fill-rule="evenodd">
        <path d="M306,358 L311.255248,400.041987 C311.666563,403.332507 314.129037,407.652018 316.743583,409.680764 L323.139838,414.643911 C328.375584,418.706567 327.256655,422 320.629007,422 L191.390982,422 C184.768542,422 183.643351,418.70419 188.870961,414.643911 L195.261015,409.680764 C197.878284,407.647934 200.333285,403.333724 200.744752,400.041987 L206,358 L306,358 Z" fill="#7C7D81"></path>
        <rect fill="#D4D5D7" x="0" y="0" width="512" height="358" rx="12"></rect>
        <path d="M0,12.0030363 C0,5.37394241 5.38226184,0 11.995401,0 L500.004599,0 C506.629476,0 512,5.37845728 512,12.0030363 L512,308 L0,308 L0,12.0030363 L0,12.0030363 Z" fill="#2D2D2D"></path>
        <rect fill="#FFFFFF" x="24" y="24" width="466" height="260"></rect>
    </g>
</svg>