<svg viewBox="0 0 100 100" version="1.1" xmlns="http://www.w3.org/2000/svg" xmlns:xlink="http://www.w3.org/1999/xlink">
    <path d="M5.99306484,0 L94.0069352,0 C97.3168135,0 100,2.67804027 100,6.00333095 L100,16 L0,16 L0,6.00333095 C0,2.68778282 2.68768095,0 5.99306484,0 Z" fill="#E8E6E8"></path>
    <circle fill="#FC645F" cx="10" cy="8" r="3"></circle>
    <circle fill="#FDBD41" cx="21" cy="8" r="3"></circle>
    <circle fill="#35CC4B" cx="32" cy="8" r="3"></circle>
    <path d="M0,16 L100,16 L100,93.9926375 C100,97.3104122 97.312319,100 94.0069352,100 L5.99306484,100 C2.68318653,100 0,97.3120937 0,93.9926375 L0,16 L0,16 Z" fill="#433039"></path>
    <rect fill="#DDD0CA" x="8" y="30" width="25" height="6" rx="3"></rect>
    <rect fill="#BFAEA6" x="8" y="40" width="13" height="3" rx="1.5"></rect>
    <rect fill="#DDD0CA" x="8" y="50" width="18" height="3" rx="1.5"></rect>
    <rect fill="#BFAEA6" x="8" y="57" width="13" height="3" rx="1.5"></rect>
    <rect fill="#BFAEA6" x="8" y="64" width="16" height="3" rx="1.5"></rect>
    <rect fill="#BFAEA6" x="8" y="71" width="16" height="3" rx="1.5"></rect>
    <path d="M10,86 C11.1045695,86 12,85.1045695 12,84 C12,82.8954305 11.1045695,82 10,82 C8.8954305,82 8,82.8954305 8,84 C8,85.1045695 8.8954305,86 10,86 L10,86 Z" fill="#BFAEA6"></path>
    <path d="M16,86 C17.1045695,86 18,85.1045695 18,84 C18,82.8954305 17.1045695,82 16,82 C14.8954305,82 14,82.8954305 14,84 C14,85.1045695 14.8954305,86 16,86 L16,86 Z" fill="#BFAEA6"></path>
    <path d="M22,86 C23.1045695,86 24,85.1045695 24,84 C24,82.8954305 23.1045695,82 22,82 C20.8954305,82 20,82.8954305 20,84 C20,85.1045695 20.8954305,86 22,86 L22,86 Z" fill="#BFAEA6"></path>
    <path d="M28,86 C29.1045695,86 30,85.1045695 30,84 C30,82.8954305 29.1045695,82 28,82 C26.8954305,82 26,82.8954305 26,84 C26,85.1045695 26.8954305,86 28,86 L28,86 Z" fill="#BFAEA6"></path>
    <rect fill="#70494A" x="40" y="30" width="22" height="22" rx="2"></rect>
    <rect fill="#70494A" x="40" y="60" width="22" height="22" rx="2"></rect>
    <rect fill="#70494A" x="70" y="30" width="22" height="22" rx="2"></rect>
    <rect fill="#70494A" x="70" y="60" width="22" height="22" rx="2"></rect>
</svg>