<svg viewBox="0 0 100 100" version="1.1" xmlns="http://www.w3.org/2000/svg" xmlns:xlink="http://www.w3.org/1999/xlink">
	<g fill="none" stroke="#000000" stroke-width="3" stroke-linecap="square" stroke-linejoin="round">
		<path d="M56.4853926,20.7027964 C67.8452786,23.2060711 76.7892914,32.147968 79.295643,43.5066992" class="curve-2"></path>
		<path d="M20.7000008,43.5099983 C23.2099991,32.1300011 32.1800003,23.1800003 43.5600014,20.6900005" class="curve-1"></path>
		<path d="M43.4569929,79.2843828 C32.1362116,76.7661005 23.2249765,67.8509778 20.712343,56.5280699" class="curve-4"></path>
		<path d="M79.2877142,56.5283274 C76.7689768,67.8782668 67.8210393,76.8088649 56.4616336,79.3023899" class="curve-3"></path>
		<path d="M53.002848,26 L46.997152,26 C45.3418707,26 44,24.6583772 44,23.002848 L44,16.997152 C44,15.3418707 45.3416228,14 46.997152,14 L53.002848,14 C54.6581293,14 56,15.3416228 56,16.997152 L56,23.002848 C56,24.6581293 54.6583772,26 53.002848,26 L53.002848,26 Z" class="point-1"></path>
		<path d="M56,76.997152 L56,83.002848 C56,84.6581293 54.6583772,86 53.002848,86 L46.997152,86 C45.3418707,86 44,84.6583772 44,83.002848 L44,76.997152 C44,75.3418707 45.3416228,74 46.997152,74 L53.002848,74 C54.6581293,74 56,75.3416228 56,76.997152 L56,76.997152 Z" class="point-3"></path>
		<path d="M76.997152,44 L83.002848,44 C84.6581293,44 86,45.3416228 86,46.997152 L86,53.002848 C86,54.6581293 84.6583772,56 83.002848,56 L76.997152,56 C75.3418707,56 74,54.6583772 74,53.002848 L74,46.997152 C74,45.3399963 75.3416228,44 76.997152,44 L76.997152,44 Z" class="point-2"></path>
		<path d="M23.002848,44 C24.6581293,44 26,45.3416228 26,46.997152 L26,53.002848 C26,54.6581293 24.6583772,56 23.002848,56 L16.997152,56 C15.3418707,56 14,54.6583772 14,53.002848 L14,46.997152 C14,45.3418707 15.3416228,44 16.997152,44 L23.002848,44 L23.002848,44 Z" class="point-4"></path>
		<circle class="end-1" cx="20.5" cy="20.5" r="3.5"></circle>
		<circle class="end-2" cx="79.5" cy="20.5" r="3.5"></circle>
		<path d="M43,20.5 L25,20.5" class="handle-1"></path>
		<path d="M57,20.5 L75,20.5" class="handle-2"></path>
	</g>
</svg>