<svg viewBox="0 0 100 100" version="1.1" xmlns="http://www.w3.org/2000/svg" xmlns:xlink="http://www.w3.org/1999/xlink">
    <path d="M100,12 L100,94.0033234 C100,97.3151964 97.312319,100 94.0069352,100 L5.99306484,100 C2.68318653,100 0,97.3182852 0,94.0033234 L0,12 L100,12 Z" fill="#A6B3A5"></path>
    <rect fill="#BE6065" x="87" y="55" width="6" height="38" rx="3"></rect>
    <path d="M5.99306484,0 L94.0069352,0 C97.3168135,0 100,2.69303423 100,6 L100,12 L0,12 L0,6 C0,2.6862915 2.68768095,0 5.99306484,0 Z" fill="#332012"></path>
    <circle fill="#585499" cx="50.5" cy="10.5" r="5.5"></circle>
    <rect fill="#462B18" x="6" y="22" width="47" height="32" rx="3"></rect>
    <rect fill="#E9D28B" x="6" y="61" width="47" height="5" rx="3"></rect>
    <rect fill="#E9D28B" x="6" y="70" width="47" height="5" rx="3"></rect>
    <rect fill="#E9D28B" x="6" y="79" width="47" height="5" rx="3"></rect>
    <rect fill="#E9D28B" x="6" y="88" width="47" height="5" rx="3"></rect>
    <circle fill="#F3C45D" cx="75" cy="6" r="2"></circle>
    <circle fill="#F3C45D" cx="83" cy="6" r="2"></circle>
    <circle fill="#C6C6C6" cx="91" cy="6" r="2"></circle>
    <circle fill="#4A3D5C" cx="71.5" cy="47.5" r="9.5"></circle>
</svg>