<svg viewBox="0 0 100 100" version="1.1" xmlns="http://www.w3.org/2000/svg" xmlns:xlink="http://www.w3.org/1999/xlink">
    <g>
        <path d="M5.99306484,0 L94.0069352,0 C97.3168135,0 100,2.67804027 100,6.00333095 L100,16 L0,16 L0,6.00333095 C0,2.68778282 2.68768095,0 5.99306484,0 Z" fill="#E8E6E8"></path>
        <path d="M0,31 L100,31 L100,93.9974073 C100,97.3125477 97.312319,100 94.0069352,100 L5.99306484,100 C2.68318653,100 0,97.3162953 0,93.9974073 L0,31 L0,31 Z" fill="#F2F2F2"></path>
        <circle fill="#343434" cx="77" cy="62" r="13"></circle>
        <rect fill="#C1C1C1" x="10" y="41" width="43" height="14" rx="2"></rect>
        <rect fill="#C1C1C1" x="10" y="70" width="43" height="14" rx="2"></rect>
        <rect fill="#C1C1C1" x="10" y="85" width="43" height="5" rx="2"></rect>
        <rect fill="#C1C1C1" x="10" y="56" width="43" height="5" rx="2"></rect>
        <rect fill="#FFFFFF" x="0" y="16" width="100" height="15"></rect>
        <rect fill="#343434" x="58" y="23" width="4" height="2" rx="1"></rect>
        <rect fill="#343434" x="65" y="23" width="4" height="2" rx="1"></rect>
        <rect fill="#343434" x="72" y="23" width="4" height="2" rx="1"></rect>
        <rect fill="#343434" x="79" y="23" width="4" height="2" rx="1"></rect>
        <rect fill="#343434" x="86" y="23" width="4" height="2" rx="1"></rect>
        <rect fill="#D00A29" x="10" y="19" width="9" height="9" rx="2"></rect>
        <rect fill="#343434" x="22" y="21" width="18" height="5" rx="2.5"></rect>
        <rect fill="#343434" x="41" y="21" width="9" height="5" rx="2.5"></rect>
        <circle fill="#FC645F" cx="10" cy="8" r="3"></circle>
        <circle fill="#FDBD41" cx="21" cy="8" r="3"></circle>
        <circle fill="#35CC4B" cx="32" cy="8" r="3"></circle>
    </g>
</svg>