<svg width="452px" height="452px" viewBox="0 0 452 452" version="1.1" xmlns="http://www.w3.org/2000/svg" xmlns:xlink="http://www.w3.org/1999/xlink">
    <g fill="none" fill-rule="evenodd">
        <g class="sketch">
            <rect class="rect" fill="#495453" opacity="0.25" x="51" y="51" width="350" height="350"></rect>
            <path d="M1,51 L401,51" class="line-top" stroke="#495453" stroke-linecap="round" stroke-linejoin="round"></path>
            <path d="M51,51 L51,451" class="line-left" stroke="#495453" stroke-linecap="round" stroke-linejoin="round"></path>
            <path d="M51,401 L451,401" class="line-bottom" stroke="#495453" stroke-linecap="round" stroke-linejoin="round"></path>
            <path d="M401,401 L401,1" class="line-right" stroke="#495453" stroke-linecap="round" stroke-linejoin="round"></path>
            <path d="M226,401 C322.649831,401 401,322.649831 401,226 C401,129.350169 322.649831,51 226,51 C129.350169,51 51,129.350169 51,226 C51,322.649831 129.350169,401 226,401 L226,401 Z" class="circle" stroke="#495453"></path>
        </g>
        <g class="logo">
            <circle class="logo-clear" fill="#F5C8BF" opacity="0.25" cx="226" cy="226" r="175"></circle>
            <circle class="logo-bg" fill="#F5C8BF" opacity="0.5" cx="226.097222" cy="226.097222" r="98.875"></circle>
            <path d="M290.355218,150.947113 C273.073039,136.155819 250.628407,127.222222 226.097222,127.222222 C171.490068,127.222222 127.222222,171.490068 127.222222,226.097222 C127.222222,280.704377 171.490068,324.972222 226.097222,324.972222 C280.704377,324.972222 324.972222,280.704377 324.972222,226.097222 L247.284722,226.097222" class="logo-letter" stroke="#FFFFFF" stroke-width="38.8888889" stroke-linecap="round" stroke-linejoin="round"></path>
        </g>
    </g>
</svg>