<svg viewBox="0 0 100 100" version="1.1" xmlns="http://www.w3.org/2000/svg" xmlns:xlink="http://www.w3.org/1999/xlink">
    <path d="M5.99306484,0 L94.0069352,0 C97.3168135,0 100,2.67804027 100,6.00333095 L100,16 L0,16 L0,6.00333095 C0,2.68778282 2.68768095,0 5.99306484,0 Z" fill="#E8E6E8"></path>
    <circle fill="#FC645F" cx="10" cy="8" r="3"></circle>
    <circle fill="#FDBD41" cx="21" cy="8" r="3"></circle>
    <circle fill="#35CC4B" cx="32" cy="8" r="3"></circle>
    <path d="M100,16 L100,93.9926375 C100,97.3104122 97.312319,100 94.0069352,100 L5.99306484,100 C2.68318653,100 0,97.3120937 0,93.9926375 L0,16 L100,16 Z" fill="#B3A28A"></path>
    <rect fill="#FFFFFF" x="35" y="22" width="30" height="9" rx="3"></rect>
    <rect fill="#F1F1F1" x="20" y="26" width="8" height="3" rx="1.5"></rect>
    <rect fill="#F1F1F1" x="41" y="34" width="19" height="3" rx="1.5"></rect>
    <rect fill="#A38074" x="26" y="42" width="48" height="32" rx="3"></rect>
    <rect fill="#242424" x="26" y="78" width="48" height="6" rx="3"></rect>
    <rect fill="#423C33" x="0" y="88" width="100" height="6"></rect>
    <rect fill="#F1F1F1" x="73" y="32" width="8" height="3" rx="1.5"></rect>
    <rect fill="#F1F1F1" x="20" y="32" width="8" height="3" rx="1.5"></rect>
    <rect fill="#F1F1F1" x="73" y="26" width="8" height="3" rx="1.5"></rect>
</svg>