<svg viewBox="0 0 100 100" version="1.1" xmlns="http://www.w3.org/2000/svg" xmlns:xlink="http://www.w3.org/1999/xlink">
    <path d="M5.99306484,0 L94.0069352,0 C97.3168135,0 100,2.67804027 100,6.00333095 L100,16 L0,16 L0,6.00333095 C0,2.68778282 2.68768095,0 5.99306484,0 Z" fill="#E8E6E8"></path>
    <circle fill="#FC645F" cx="10" cy="8" r="3"></circle>
    <circle fill="#FDBD41" cx="21" cy="8" r="3"></circle>
    <circle fill="#35CC4B" cx="32" cy="8" r="3"></circle>
    <path d="M100,16 L100,93.9926375 C100,97.3104122 97.312319,100 94.0069352,100 L5.99306484,100 C2.68318653,100 0,97.3120937 0,93.9926375 L0,16 L100,16 Z" fill="#F1F1F1"></path>
    <rect fill="#493A6D" x="10" y="50" width="80" height="16" rx="2"></rect>
    <rect fill="#493A6D" x="10" y="74" width="80" height="16" rx="2"></rect>
    <rect fill="#27353C" x="10" y="26" width="30" height="8" rx="4"></rect>
    <rect fill="#531010" x="10" y="36" width="30" height="3" rx="1.5"></rect>
    <rect fill="#531010" x="10" y="44" width="22" height="4" rx="2"></rect>
    <rect fill="#531010" x="10" y="68" width="18" height="4" rx="2"></rect>
    <rect fill="#531010" x="55" y="38" width="8" height="3" rx="1.5"></rect>
    <rect fill="#531010" x="69" y="38" width="8" height="3" rx="1.5"></rect>
    <rect fill="#531010" x="82" y="38" width="8" height="3" rx="1.5"></rect>
    <circle fill="#5B6F82" cx="64" cy="30" r="2"></circle>
    <circle fill="#637AA5" cx="70" cy="30" r="2"></circle>
    <circle fill="#579F38" cx="76" cy="30" r="2"></circle>
    <circle fill="#3793C0" cx="82" cy="30" r="2"></circle>
    <circle fill="#BD3D40" cx="88" cy="30" r="2"></circle>
</svg>