<svg viewBox="0 0 100 100" version="1.1" xmlns="http://www.w3.org/2000/svg" xmlns:xlink="http://www.w3.org/1999/xlink">
    <path d="M5.99306484,0 L94.0069352,0 C97.3168135,0 100,2.67804027 100,6.00333095 L100,16 L0,16 L0,6.00333095 C0,2.68778282 2.68768095,0 5.99306484,0 Z" fill="#E8E6E8"></path>
    <circle fill="#FC645F" cx="10" cy="8" r="3"></circle>
    <circle fill="#FDBD41" cx="21" cy="8" r="3"></circle>
    <circle fill="#35CC4B" cx="32" cy="8" r="3"></circle>
    <path d="M0,16 L100,16 L100,93.9926375 C100,97.3104122 97.312319,100 94.0069352,100 L5.99306484,100 C2.68318653,100 0,97.3120937 0,93.9926375 L0,16 L0,16 Z" fill="#FFFFFF"></path>
    <path d="M5,64.9998075 C5,64.4476291 5.43788135,64 6.00292933,64 L12,64 L14,62 L16,64 L21.9970707,64 C22.5509732,64 23,64.4437166 23,64.9998075 L23,68.0001925 C23,68.5523709 22.5550537,69 22.0066023,69 L5.99339768,69 C5.44475929,69 5,68.5562834 5,68.0001925 L5,64.9998075 Z" fill="#EEEEEE"></path>
    <circle fill="#444349" cx="14" cy="55" r="6"></circle>
    <path d="M29,64.9998075 C29,64.4476291 29.4378814,64 30.0029293,64 L36,64 L38,62 L40,64 L45.9970707,64 C46.5509732,64 47,64.4437166 47,64.9998075 L47,68.0001925 C47,68.5523709 46.5550537,69 46.0066023,69 L29.9933977,69 C29.4447593,69 29,68.5562834 29,68.0001925 L29,64.9998075 Z" fill="#EEEEEE"></path>
    <circle fill="#FDBF54" cx="38" cy="55" r="6"></circle>
    <path d="M53,64.9998075 C53,64.4476291 53.4378814,64 54.0029293,64 L60,64 L62,62 L64,64 L69.9970707,64 C70.5509732,64 71,64.4437166 71,64.9998075 L71,68.0001925 C71,68.5523709 70.5550537,69 70.0066023,69 L53.9933977,69 C53.4447593,69 53,68.5562834 53,68.0001925 L53,64.9998075 Z" fill="#EEEEEE"></path>
    <circle fill="#9F745D" cx="62" cy="55" r="6"></circle>
    <path d="M77,64.9998075 C77,64.4476291 77.4378814,64 78.0029293,64 L84,64 L86,62 L88,64 L93.9970707,64 C94.5509732,64 95,64.4437166 95,64.9998075 L95,68.0001925 C95,68.5523709 94.5550537,69 94.0066023,69 L77.9933977,69 C77.4447593,69 77,68.5562834 77,68.0001925 L77,64.9998075 Z" fill="#EEEEEE"></path>
    <circle fill="#3B5A76" cx="86" cy="55" r="6"></circle>
    <path d="M5,88.9998075 C5,88.4476291 5.43788135,88 6.00292933,88 L12,88 L14,86 L16,88 L21.9970707,88 C22.5509732,88 23,88.4437166 23,88.9998075 L23,92.0001925 C23,92.5523709 22.5550537,93 22.0066023,93 L5.99339768,93 C5.44475929,93 5,92.5562834 5,92.0001925 L5,88.9998075 Z" fill="#EEEEEE"></path>
    <circle fill="#37ABE0" cx="14" cy="79" r="6"></circle>
    <path d="M29,88.9998075 C29,88.4476291 29.4378814,88 30.0029293,88 L36,88 L38,86 L40,88 L45.9970707,88 C46.5509732,88 47,88.4437166 47,88.9998075 L47,92.0001925 C47,92.5523709 46.5550537,93 46.0066023,93 L29.9933977,93 C29.4447593,93 29,92.5562834 29,92.0001925 L29,88.9998075 Z" fill="#EEEEEE"></path>
    <circle fill="#3C5B96" cx="38" cy="79" r="6"></circle>
    <path d="M53,88.9998075 C53,88.4476291 53.4378814,88 54.0029293,88 L60,88 L62,86 L64,88 L69.9970707,88 C70.5509732,88 71,88.4437166 71,88.9998075 L71,92.0001925 C71,92.5523709 70.5550537,93 70.0066023,93 L53.9933977,93 C53.4447593,93 53,92.5562834 53,92.0001925 L53,88.9998075 Z" fill="#EEEEEE"></path>
    <circle fill="#0D6798" cx="62" cy="79" r="6"></circle>
    <path d="M77,88.9998075 C77,88.4476291 77.4378814,88 78.0029293,88 L84,88 L86,86 L88,88 L93.9970707,88 C94.5509732,88 95,88.4437166 95,88.9998075 L95,92.0001925 C95,92.5523709 94.5550537,93 94.0066023,93 L77.9933977,93 C77.4447593,93 77,92.5562834 77,92.0001925 L77,88.9998075 Z" fill="#EEEEEE"></path>
    <circle fill="#4484C3" cx="86" cy="79" r="6"></circle>
    <rect fill="#DDDDDD" x="66" y="23" width="21" height="10" rx="5"></rect>
    <circle fill="#D52027" cx="19" cy="28" r="5"></circle>
    <circle fill="#D44C27" cx="32" cy="28" r="5"></circle>
    <circle fill="#D56527" cx="45" cy="28" r="5"></circle>
    <circle fill="#D3862A" cx="58" cy="28" r="5"></circle>
    <rect fill="#555555" x="28" y="37" width="45" height="4" rx="2"></rect>
</svg>