<svg viewBox="0 0 100 100" version="1.1" xmlns="http://www.w3.org/2000/svg" xmlns:xlink="http://www.w3.org/1999/xlink">
    <path d="M5.99306484,0 L94.0069352,0 C97.3168135,0 100,2.67804027 100,6.00333095 L100,16 L0,16 L0,6.00333095 C0,2.68778282 2.68768095,0 5.99306484,0 Z" fill="#E8E6E8"></path>
    <circle fill="#FC645F" cx="10" cy="8" r="3"></circle>
    <circle fill="#FDBD41" cx="21" cy="8" r="3"></circle>
    <circle fill="#35CC4B" cx="32" cy="8" r="3"></circle>
    <path d="M100,16 L100,93.9926375 C100,97.3104122 97.312319,100 94.0069352,100 L5.99306484,100 C2.68318653,100 0,97.3120937 0,93.9926375 L0,16 L100,16 Z" fill="#CFCFCF"></path>
    <rect fill="#212B25" x="0" y="16" width="100" height="16"></rect>
    <rect fill="#3C4941" x="10" y="41" width="80" height="59"></rect>
    <rect fill="#66624A" x="15" y="70" width="10" height="10" rx="3"></rect>
    <rect fill="#66624A" x="30" y="70" width="10" height="10" rx="3"></rect>
    <rect fill="#66624A" x="45" y="70" width="10" height="10" rx="3"></rect>
    <rect fill="#66624A" x="60" y="70" width="10" height="10" rx="3"></rect>
    <rect fill="#66624A" x="75" y="70" width="10" height="10" rx="3"></rect>
    <rect fill="#66624A" x="15" y="85" width="10" height="10" rx="3"></rect>
    <rect fill="#66624A" x="30" y="85" width="10" height="10" rx="3"></rect>
    <rect fill="#66624A" x="45" y="85" width="10" height="10" rx="3"></rect>
    <rect fill="#66624A" x="60" y="85" width="10" height="10" rx="3"></rect>
    <rect fill="#66624A" x="75" y="85" width="10" height="10" rx="3"></rect>
    <rect fill="#F1F1F1" x="15" y="46" width="70" height="19" rx="2"></rect>
    <rect fill="#0C110E" x="0" y="32" width="100" height="9"></rect>
    <rect fill="#DED7CE" x="10" y="19" width="51" height="6" rx="3.5"></rect>
    <rect fill="#DDDDDD" x="10" y="27" width="22" height="3" rx="1.5"></rect>
    <rect fill="#999999" x="10" y="35" width="10" height="3" rx="1.5"></rect>
    <rect fill="#999999" x="22" y="35" width="10" height="3" rx="1.5"></rect>
    <rect fill="#999999" x="34" y="35" width="10" height="3" rx="1.5"></rect>
    <rect fill="#999999" x="46" y="35" width="10" height="3" rx="1.5"></rect>
</svg>