<svg viewBox="0 0 100 100" version="1.1" xmlns="http://www.w3.org/2000/svg" xmlns:xlink="http://www.w3.org/1999/xlink">
    <path d="M5.99306484,0 L94.0069352,0 C97.3168135,0 100,2.67804027 100,6.00333095 L100,16 L0,16 L0,6.00333095 C0,2.68778282 2.68768095,0 5.99306484,0 Z" fill="#E8E6E8"></path>
    <path d="M100,16 L100,93.9974073 C100,97.3125477 97.312319,100 94.0069352,100 L5.99306484,100 C2.68318653,100 0,97.3162953 0,93.9974073 L0,16 L100,16 Z" fill="#121517"></path>
    <circle fill="#FC645F" cx="10" cy="8" r="3"></circle>
    <circle fill="#FDBD41" cx="21" cy="8" r="3"></circle>
    <circle fill="#35CC4B" cx="32" cy="8" r="3"></circle>
    <rect fill="#FFFFFF" x="36" y="21" width="24" height="7" rx="3.5"></rect>
    <rect fill="#B4AF35" x="35" y="30" width="6" height="3" rx="1.5"></rect>
    <rect fill="#B4AF35" x="44" y="30" width="6" height="3" rx="1.5"></rect>
    <rect fill="#B4AF35" x="53" y="30" width="6" height="3" rx="1.5"></rect>
    <rect fill="#B4AF35" x="62" y="30" width="6" height="3" rx="1.5"></rect>
    <rect fill="#B4AF35" x="71" y="30" width="6" height="3" rx="1.5"></rect>
    <rect fill="#A82030" x="63" y="21" width="13" height="7" rx="3.5"></rect>
    <circle fill="#A82030" cx="27" cy="27" r="4"></circle>
    <rect fill="#282B2E" x="0" y="37" width="100" height="18"></rect>
    <rect fill="#282B2E" x="0" y="60" width="100" height="8"></rect>
    <rect fill="#494F55" x="10" y="62" width="37" height="4" rx="2"></rect>
    <rect fill="#494F55" x="53" y="62" width="37" height="4" rx="2"></rect>
    <rect fill="#282B2E" x="0" y="73" width="100" height="18"></rect>
    <rect fill="#FFFFFF" x="32" y="76" width="37" height="3" rx="2"></rect>
    <rect fill="#777F87" x="10" y="40" width="80" height="2" rx="1"></rect>
    <rect fill="#777F87" x="10" y="45" width="70" height="2" rx="1"></rect>
    <rect fill="#777F87" x="10" y="50" width="75" height="2" rx="1"></rect>
    <circle fill="#777F87" cx="32" cy="85" r="3"></circle>
    <circle fill="#777F87" cx="41" cy="85" r="3"></circle>
    <circle fill="#777F87" cx="50" cy="85" r="3"></circle>
    <circle fill="#777F87" cx="59" cy="85" r="3"></circle>
    <circle fill="#777F87" cx="68" cy="85" r="3"></circle>
</svg>