<svg viewBox="0 0 100 100" version="1.1" xmlns="http://www.w3.org/2000/svg" xmlns:xlink="http://www.w3.org/1999/xlink">
    <path d="M5.99306484,0 L94.0069352,0 C97.3168135,0 100,2.67804027 100,6.00333095 L100,16 L0,16 L0,6.00333095 C0,2.68778282 2.68768095,0 5.99306484,0 Z" fill="#E8E6E8"></path>
    <circle fill="#FC645F" cx="10" cy="8" r="3"></circle>
    <circle fill="#FDBD41" cx="21" cy="8" r="3"></circle>
    <circle fill="#35CC4B" cx="32" cy="8" r="3"></circle>
    <path d="M100,16 L100,93.9926375 C100,97.3104122 97.312319,100 94.0069352,100 L5.99306484,100 C2.68318653,100 0,97.3120937 0,93.9926375 L0,16 L100,16 Z" fill="#FFFFFF"></path>
    <rect fill="#F3F3F3" x="0" y="16" width="100" height="12"></rect>
    <rect fill="#343434" x="10" y="19.5" width="17" height="2" rx="1"></rect>
    <circle fill="#343434" cx="89" cy="20.5" r="1"></circle>
    <rect fill="#D34836" x="10" y="23.5" width="7" height="2" rx="1"></rect>
    <rect fill="#D34836" x="18" y="23.5" width="7" height="2" rx="1"></rect>
    <rect fill="#D34836" x="10" y="32" width="40" height="8" rx="4"></rect>
    <rect fill="#D7D7D7" x="10" y="47" width="24" height="2" rx="1"></rect>
    <rect fill="#D7D7D7" x="38" y="47" width="24" height="2" rx="1"></rect>
    <rect fill="#D7D7D7" x="66" y="47" width="24" height="2" rx="1"></rect>
    <rect fill="#D34836" x="10" y="43" width="24" height="2" rx="1"></rect>
    <rect fill="#D34836" x="38" y="43" width="24" height="2" rx="1"></rect>
    <rect fill="#D34836" x="66" y="43" width="24" height="2" rx="1"></rect>
    <rect fill="#D7D7D7" x="10" y="51" width="24" height="2" rx="1"></rect>
    <rect fill="#D7D7D7" x="38" y="51" width="24" height="2" rx="1"></rect>
    <rect fill="#D7D7D7" x="66" y="51" width="24" height="2" rx="1"></rect>
    <rect fill="#D34836" x="10" y="57" width="28" height="6" rx="3"></rect>
    <rect fill="#D7D7D7" x="10" y="66" width="74" height="2" rx="1"></rect>
    <rect fill="#D7D7D7" x="10" y="70" width="79" height="2" rx="1"></rect>
    <rect fill="#D7D7D7" x="10" y="74" width="71" height="2" rx="1"></rect>
    <rect fill="#D7D7D7" x="10" y="78" width="74" height="2" rx="1"></rect>
    <rect fill="#D34836" x="10" y="84" width="28" height="6" rx="3"></rect>
</svg>