<svg viewBox="0 0 100 100" version="1.1" xmlns="http://www.w3.org/2000/svg" xmlns:xlink="http://www.w3.org/1999/xlink">
	<rect fill="#222222" x="0" y="0" width="100" height="100" rx="6"></rect>
	<rect fill="#D6DDBF" x="32" y="74" width="18" height="18" rx="2"></rect>
	<path d="M32,87 L42.9972399,87 C44.1033337,87 45,87.8938998 45,89.0048815 L45,92 L34.0027601,92 C32.8966663,92 32,91.1061002 32,89.9951185 L32,87 Z" fill="#ABB098"></path>
	<rect fill="#2F4B49" x="32" y="42" width="60" height="24" rx="2"></rect>
	<path d="M32,61 L56.0029953,61 C57.1059106,61 58,61.8938998 58,63.0048815 L58,66 L33.9970047,66 C32.8940894,66 32,65.1061002 32,63.9951185 L32,61 Z" fill="#253C3A"></path>
	<rect fill="#647E98" x="58" y="74" width="34" height="18" rx="2"></rect>
	<path d="M58,87 L82.0029953,87 C83.1059106,87 84,87.8938998 84,89.0048815 L84,92 L59.9970047,92 C58.8940894,92 58,91.1061002 58,89.9951185 L58,87 Z" fill="#506479"></path>
	<rect fill="#79BA3C" x="8" y="42" width="16" height="50" rx="2"></rect>
	<path d="M8,43.9940603 C8,42.8927712 8.89451376,42 9.99406028,42 L22.0059397,42 C23.1072288,42 24,42.8945138 24,43.9940603 L24,58 L8,58 L8,43.9940603 Z" fill="#D8D8D8"></path>
	<rect fill="#656565" x="8" y="28" width="60" height="8" rx="4"></rect>
	<circle fill="#FFFFFF" cx="12" cy="12" r="4"></circle>
	<circle fill="#FFFFFF" cx="88" cy="12" r="4"></circle>
</svg>
