<svg height="100" viewBox="0 0 100 100" width="100" xmlns="http://www.w3.org/2000/svg"><g fill="none" fill-rule="evenodd"><rect fill="#fff" height="100" rx="6" width="100"/><path d="m31 73h69v21c0 3.3137085-2.6862915 6-6 6h-63z" fill="#a0a7b1"/><path d="m31 29h69v40h-69z" fill="#263646"/><path d="m0 15h32v85h-26c-3.3137085 0-6-2.6862915-6-6z" fill="#d34836"/><path d="m6 0h88c3.3137085-0 6 2.6862915 6 6v10h-100v-10c-0-3.3137085 2.6862915-6 6-6z" fill="#e8e6e8"/><circle cx="10" cy="8" fill="#fc645f" r="3"/><circle cx="21" cy="8" fill="#fdbd41" r="3"/><circle cx="32" cy="8" fill="#35cc4b" r="3"/><rect fill="#fff" height="5" rx="2.5" width="24" x="4" y="20"/><rect fill="#31313b" height="5" rx="2.5" width="24" x="36" y="20"/><g fill="#fff"><path d="m15.5 29h15.5v5h-15.5c-1.3807119 0-2.5-1.1192881-2.5-2.5s1.1192881-2.5 2.5-2.5z"/><path d="m15.5 35h15.5v5h-15.5c-1.3807119 0-2.5-1.1192881-2.5-2.5s1.1192881-2.5 2.5-2.5z"/><path d="m15.5 41h15.5v5h-15.5c-1.3807119 0-2.5-1.1192881-2.5-2.5s1.1192881-2.5 2.5-2.5z"/><path d="m15.5 47h15.5v5h-15.5c-1.3807119 0-2.5-1.1192881-2.5-2.5s1.1192881-2.5 2.5-2.5z"/></g></g></svg>