<svg height="100" viewBox="0 0 100 100" width="100" xmlns="http://www.w3.org/2000/svg"><g fill="none" fill-rule="evenodd"><path d="m6 0h88c3.3137085-0 6 2.6862915 6 6v10h-100v-10c-0-3.3137085 2.6862915-6 6-6z" fill="#e8e6e8"/><circle cx="10" cy="8" fill="#fc645f" r="3"/><circle cx="21" cy="8" fill="#fdbd41" r="3"/><circle cx="32" cy="8" fill="#35cc4b" r="3"/><path d="m0 16h100v13h-100z" fill="#44434a"/><rect fill="#fff" height="5" rx="2.5" width="28" x="8" y="20"/><circle cx="89.5" cy="22.5" fill="#fff" r="2.5"/><path d="m0 29h100v65c0 3.3137085-2.6862915 6-6 6h-88c-3.3137085 0-6-2.6862915-6-6z" fill="#d2d3cc"/><g fill="#737375"><rect height="5" rx="2.5" width="11" x="8" y="35"/><rect height="5" rx="2.5" width="12" x="23" y="35"/><rect height="5" rx="2.5" width="18" x="39" y="35"/><rect height="5" rx="2.5" width="12" x="61" y="35"/><rect height="5" rx="2.5" width="11" x="77" y="35"/></g><rect fill="#8f908c" height="18" rx="3" width="18" x="8" y="44"/><circle cx="17" cy="53" fill="#454442" r="4"/><rect fill="#47333c" height="18" rx="3" width="18" x="30" y="44"/><circle cx="39" cy="53" fill="#6b5b63" r="4"/><rect fill="#fff" height="18" rx="3" width="18" x="52" y="44"/><circle cx="61" cy="53" fill="#999" r="4"/><rect fill="#4b4d51" height="18" rx="3" width="18" x="74" y="44"/><circle cx="83" cy="53" fill="#35f7cb" r="4"/><rect fill="#756b64" height="18" rx="3" width="18" x="8" y="66"/><circle cx="17" cy="75" fill="#76272d" r="4"/><rect fill="#fff" height="18" rx="3" width="18" x="30" y="66"/><circle cx="39" cy="75" fill="#d00829" r="4"/><rect fill="#11334d" height="18" rx="3" width="18" x="52" y="66"/><circle cx="61" cy="75" fill="#6295b8" r="4"/><rect fill="#1a1e20" height="18" rx="3" width="18" x="74" y="66"/><circle cx="83" cy="75" fill="#a2202f" r="4"/><rect fill="#110b04" height="18" rx="3" width="18" x="8" y="88"/><circle cx="17" cy="97" fill="#fbb951" r="4"/><rect fill="#2a4554" height="18" rx="3" width="18" x="30" y="88"/><circle cx="39" cy="97" fill="#aac2e8" r="4"/><rect fill="#70b1d8" height="18" rx="3" width="18" x="52" y="88"/><circle cx="61" cy="97" fill="#4e2126" r="4"/><rect fill="#bdbbbf" height="18" rx="3" width="18" x="74" y="88"/><circle cx="83" cy="97" fill="#29353d" r="4"/></g></svg>