<svg height="100" viewBox="0 0 100 100" width="100" xmlns="http://www.w3.org/2000/svg"><g fill="none" fill-rule="evenodd"><path d="m6 0h88c3.3137085-0 6 2.6862915 6 6v10h-100v-10c-0-3.3137085 2.6862915-6 6-6z" fill="#e8e6e8"/><circle cx="10" cy="8" fill="#fc645f" r="3"/><circle cx="21" cy="8" fill="#fdbd41" r="3"/><circle cx="32" cy="8" fill="#35cc4b" r="3"/><path d="m0 16h100v68l-100 8z" fill="#f1faf4"/><path d="m0 92 100-8v10c0 3.3137085-2.6862915 6-6 6h-88c-3.3137085 0-6-2.6862915-6-6z" fill="#a6ada7"/><circle cx="50" cy="25" fill="#f4dbd3" r="5"/><rect fill="#f4dbd3" fill-opacity=".5" height="27" rx="3" width="27" x="36" y="39"/><g fill="#abb2ac"><rect height="8" rx="4" width="64" x="18" y="44"/><rect height="4" rx="2" width="32" x="34" y="56"/></g></g></svg>