<svg height="100" viewBox="0 0 100 100" width="100" xmlns="http://www.w3.org/2000/svg"><g fill="none" fill-rule="evenodd"><path d="m6 0h88c3.3137085-0 6 2.6862915 6 6v10h-100v-10c-0-3.3137085 2.6862915-6 6-6z" fill="#e8e6e8"/><circle cx="10" cy="8" fill="#fc645f" r="3"/><circle cx="21" cy="8" fill="#fdbd41" r="3"/><circle cx="32" cy="8" fill="#35cc4b" r="3"/><path d="m0 16h100v78c0 3.3137085-2.6862915 6-6 6h-88c-3.3137085 0-6-2.6862915-6-6z" fill="#f3f3f3"/><g fill="#000"><rect height="10" rx="5" width="68" x="7" y="23"/><rect height="10" rx="5" width="43" x="7" y="37"/><rect height="5" rx="2.5" width="61" x="7" y="51"/><rect height="8" rx="4" width="48" x="7" y="60"/></g><rect fill="#fcd002" height="8" rx="4" width="25" x="7" y="73"/><rect fill="#eb4c89" height="8" rx="4" width="25" x="36" y="73"/><rect fill="#4083c4" height="8" rx="4" width="19" x="65" y="73"/><rect fill="#cd486b" height="8" rx="4" width="29" x="7" y="85"/><rect fill="#2caae1" height="8" rx="4" width="24" x="40" y="85"/><rect fill="#02ab6c" height="8" rx="4" width="25" x="68" y="85"/></g></svg>