<svg height="100" viewBox="0 0 100 100" width="100" xmlns="http://www.w3.org/2000/svg" xmlns:xlink="http://www.w3.org/1999/xlink"><linearGradient id="a" x1="-7.136674%" x2="100%" y1="35.764382%" y2="62.5%"><stop offset="0" stop-color="#3023ae"/><stop offset=".25" stop-color="#456ede"/><stop offset=".5" stop-color="#53a0fe"/><stop offset=".75" stop-color="#6eb5cb"/><stop offset="1" stop-color="#b4ed50"/></linearGradient><linearGradient id="b" x1="50%" x2="50%" y1="-0%" y2="177.251519%"><stop offset="0" stop-color="#f8f5da"/><stop offset=".327883364" stop-color="#a3c4d0"/><stop offset="1" stop-color="#3e4f53"/></linearGradient><g fill="none" fill-rule="evenodd"><path d="m6 0h88c3.3137085-0 6 2.6862915 6 6v10h-100v-10c-0-3.3137085 2.6862915-6 6-6z" fill="#e8e6e8"/><circle cx="10" cy="8" fill="#fc645f" r="3"/><circle cx="21" cy="8" fill="#fdbd41" r="3"/><circle cx="32" cy="8" fill="#35cc4b" r="3"/><path d="m0 16h50v17h-50z" fill="#f8dbd5"/><g fill="#253237"><rect height="4" rx="2" width="44" x="3" y="19"/><rect height="4" rx="2" width="44" x="3" y="19"/><rect height="4" rx="2" width="44" x="3" y="26"/></g><path d="m50 16h50v31h-50z" fill="#f3f3f3"/><rect fill="#253237" height="4" rx="2" width="23" x="53" y="19"/><rect fill="#f5cd15" height="4" rx="2" width="14" x="53" y="26"/><rect fill="#cd486b" height="4" rx="2" width="16" x="81" y="26"/><rect fill="#4969ed" height="4" rx="2" width="8" x="70" y="26"/><rect fill="#6464ff" height="4" rx="2" width="16" x="53" y="33"/><rect fill="#1d9bf0" height="4" rx="2" width="10" x="72" y="33"/><rect fill="#eb4c89" height="4" rx="2" width="11" x="85" y="33"/><rect fill="#02ab6c" height="4" rx="2" width="12" x="53" y="40"/><rect fill="#34465d" height="4" rx="2" width="11" x="68" y="40"/><rect fill="#e60122" height="4" rx="2" width="13" x="82" y="40"/><path d="m0 33h50v67h-44c-3.3137085 0-6-2.6862915-6-6z" fill="#253237"/><path d="m50 47h50v38h-50z" fill="#8f9eb8"/><path d="m50 85h50v4h-50z" fill="#576a8a"/><rect fill="#b35b17" height="11" rx="2" width="20" x="53" y="57"/><rect fill="#3175d9" height="11" rx="2" width="20" x="53" y="71"/><rect fill="#acc3db" height="11" rx="2" width="20" x="77" y="71"/><rect fill="#b37e59" height="11" rx="2" width="20" x="77" y="57"/><rect fill="#253237" height="4" rx="2" width="34" x="53" y="50"/><path d="m50 89h50v5c0 3.3137085-2.6862915 6-6 6h-44z" fill="#c46466"/><rect fill="#fff" height="4" rx="2" width="34" x="53" y="92"/><rect fill="#f2d6d8" height="11" rx="2" width="20" x="53" y="99"/><path d="m95 99c.5193052 0 .9923835.1979206 1.3479173.5224442-.721402.3077691-1.5148317.4775558-2.3479173.4775558l-16.7323937-.0000725c.3458198-.5977614.9921413-.9999275 1.7323937-.9999275z" fill="#1e3647"/><rect fill="#73d1c8" height="4" rx="2" width="44" x="3" y="36"/><rect fill="#73d1c8" height="4" rx="2" width="42" x="3" y="43"/><rect fill="url(#a)" fill-rule="nonzero" height="22" rx="2" width="44" x="3" y="50"/><path d="m45 82c1.1045695 0 2 .8954305 2 2v16h-41c-1.09305779 0-2.11784809-.2922879-3.00047568-.8029684l.00047568-15.1970316c0-1.1045695.8954305-2 2-2z" fill="url(#b)" fill-rule="nonzero"/><rect fill="#fcd002" height="8" rx="2" width="8" x="14" y="57"/><circle cx="18" cy="61" fill="#fff" r="2"/><rect fill="#4083c4" height="8" rx="2" width="8" x="26" y="57"/><circle cx="30" cy="61" fill="#fff" r="2"/><rect fill="#73d1c8" height="4" rx="2" width="33" x="3" y="75"/><rect fill="#fef440" height="8" rx="2" width="8" x="21" y="88"/><rect fill="#fef440" height="8" rx="2" width="8" x="21" y="98"/><circle cx="25" cy="92" fill="#fff" r="3"/><circle cx="25" cy="92" fill="#9f355a" r="2"/></g></svg>