<svg viewBox="0 0 85 85" xmlns="http://www.w3.org/2000/svg">
    <g class="stroke" fill="none" stroke="#FFFFFF" stroke-width="5" stroke-linecap="round" stroke-linejoin="round">
        <path d="M71.1,71.1 C67.5,74.7 63.2,77.6 58.5,79.6 C53.8,81.6 48.5,82.7 43.1,82.7 C37.7,82.7 32.4,81.6 27.7,79.6 C23,77.6 18.7,74.7 15.1,71.1 C11.5,67.5 8.6,63.2 6.6,58.5 C4.6,53.8 3.5,48.5 3.5,43.1 C3.5,37.7 4.6,32.4 6.6,27.7 C8.6,23 11.5,18.7 15.1,15.1 C18.7,11.5 23,8.6 27.7,6.6 C32.4,4.6 37.7,3.5 43.1,3.5 C48.5,3.5 53.8,4.6 58.5,6.6 C63.2,8.6 67.5,11.5 71.1,15.1 C74.7,18.7 77.6,23 79.6,27.7 C81.6,32.4 82.7,37.7 82.7,43.1 C82.7,43.1 82.7,55.3 74,58 C63.3,61.1 57.9,52.8 57.9,44 L57.9,28.2"></path>
        <circle cx="43" cy="43" r="14.8999996"></circle>
    </g>
</svg>
