<svg viewBox="0 0 85 85" xmlns="http://www.w3.org/2000/svg">
    <path class="fill" d="M42.2,9.8 C37.9,9.8 33.4,10.4 28.9,11.6 C26.2,8.3 20.3,6.1 15.4,6.1 L14.2,6.1 C12.2,10.8 11.9,16 13.6,20.4 C9.9,24.4 8,29.1 8,34.7 C8,45.4 11.3,52.7 18.2,56.8 C20.9,58.5 24.1,59.7 27.9,60.4 C29.9,60.9 31.6,61.1 33.1,61.2 C30.1,63.2 28.6,66.4 28.6,70.9 L28.6,81.9 C28.6,83.3 27.5,84.4 26.1,84.4 C24.7,84.4 23.6,83.3 23.6,81.9 L23.6,70.7 C23.6,68.3 23.9,66.3 24.5,64.6 C21.1,63.8 18.1,62.5 15.5,60.9 C7.2,55.9 3,47 3,34.5 C3,28.7 4.7,23.5 8,19.1 C6.9,14.3 7.4,9 9.6,4.1 C10.3,2.4 11.9,1.2 13.8,1.1 C14.3,1 14.9,1 15.4,1 C20,1 26.1,2.6 30.4,6 C34.3,5.1 38.3,4.7 42.2,4.7 C46.1000008,4.7 50.1000008,5.1 54.0000008,6 C58.3000008,2.6 64.4000008,1 69.0000008,1 C69.5000008,1 70.1000008,1 70.6000008,1.1 C72.5000008,1.2 74.1000008,2.4 74.8000008,4.1 C77.0000008,9 77.5000008,14.3 76.4000008,19.1 C79.7000008,23.5 81.4000008,28.7 81.4000008,34.5 C81.4000008,47 77.2000008,55.9 68.9000008,60.9 C66.3000008,62.5 63.3000008,63.8 59.9000008,64.6 C60.5000008,66.3 60.8000008,68.3 60.8000008,70.7 L60.8000008,81.9 C60.8000008,83.3 59.7000008,84.4 58.3000008,84.4 C56.9000008,84.4 55.8000008,83.3 55.8000008,81.9 L55.8000008,70.9 C55.8000008,66.4 54.3000008,63.2 51.3000008,61.2 C52.8000008,61.1 54.5000008,60.9 56.5000008,60.4 C60.3000008,59.7 63.5000008,58.5 66.2000008,56.8 C73.1000008,52.7 76.4000008,45.4 76.4000008,34.7 C76.4000008,29.1 74.5000008,24.4 70.8000008,20.4 C72.5000008,16 72.2000008,10.8 70.2000008,6.1 L69.0000008,6.1 C64.1000008,6.1 58.2000008,8.3 55.5000008,11.6 C51.0000008,10.4 46.5000008,9.8 42.2000008,9.8" fill="#FFFFFF" fill-rule="evenodd"></path>
</svg>
