<svg viewBox="0 0 85 85" xmlns="http://www.w3.org/2000/svg">
    <g class="stroke" fill="none" stroke="#FFFFFF" stroke-width="5" stroke-linecap="round" stroke-linejoin="round">
        <path d="M63.3,2.8 L63.3,51 L63.3,52.3 L63.3,55 L63.3,57.7 L63.3,60.4 C63.3,63.4 62.7,66.3 61.6,68.9 C60.5,71.5 58.9,73.9 56.9,75.8 C54.9,77.8 52.6,79.4 50,80.5 C47.4,81.6 44.5,82.2 41.5,82.2 L41.5,82.2 L41.5,82.2 L41.5,82.2 L41.5,82.2 C38.5,82.2 35.6,81.6 33,80.5 C30.4,79.4 28,77.8 26.1,75.8 C24.1,73.8 22.5,71.5 21.4,68.9"></path>
        <circle cx="41.5" cy="24.5" r="21"></circle>
    </g>
</svg>
