<svg viewBox="0 0 85 85" xmlns="http://www.w3.org/2000/svg">
    <g class="fill" fill="#FFFFFF" fill-rule="evenodd">
        <path d="M42.5,85 C19.0278981,85 0,65.9721019 0,42.5 C0,19.0278981 19.0278981,0 42.5,0 C65.9721019,0 85,19.0278981 85,42.5 C85,65.9721019 65.9721019,85 42.5,85 Z M42.5,80 C63.2106781,80 80,63.2106781 80,42.5 C80,21.7893219 63.2106781,5 42.5,5 C21.7893219,5 5,21.7893219 5,42.5 C5,63.2106781 21.7893219,80 42.5,80 Z"></path>
        <path d="M57.1875,29.3190448 L57.1875,44.5183594 C57.1875,44.5183594 57.328125,48.0367195 53.671875,48.2743382 C52.1780419,48.371422 51.0824469,48.6765655 50.3099685,49.0270724 C48.1499361,49.8992627 46.640625,51.8871661 46.640625,54.1851832 C46.640625,57.28134 49.3125,59.3923556 52.7601305,59.3923561 C56.207761,59.3923566 60,58.0666399 60,53.5253613 L60,20.0688293 C60,18.6714192 58.8908789,17.7668844 57.5227087,18.0527685 L34.055985,24.5383187 C33.1446195,24.7287518 32.546875,25.600489 32.546875,26.5340746 L32.546875,51.1260033 C32.546875,51.1260033 32.6875,54.6443634 29.03125,54.8819821 C27.5374169,54.9790659 26.4418219,55.2842094 25.6693435,55.6347163 C23.5093111,56.5069066 22,58.49481 22,60.792827 C22,63.8889839 24.671875,65.9999995 28.1195055,66 C31.567136,66.0000005 35.359375,64.6742838 35.359375,60.1330052 L35.359375,35.7730434 L57.1875,29.3190448 Z M27.546875,26.5340746 C27.546875,23.3656521 29.6356423,20.4575586 32.8304214,19.6895898 L56.3442103,13.1910321 L56.5000279,13.1584735 C60.975695,12.2232665 65,15.50046 65,20.0688293 L65,53.5253613 C65,60.8151591 59.5133298,64.3923571 52.7601297,64.3923561 C46.6651445,64.3923552 41.640625,60.2098061 41.640625,54.1851832 C41.640625,49.861358 44.353086,46.0836108 48.3405046,44.4306137 C49.4693192,43.931129 50.7563935,43.5819568 52.1875,43.3967783 L52.1875,36.0113908 L40.359375,39.5086542 L40.359375,60.1330052 C40.359375,67.422803 34.8727048,71.000001 28.1195047,71 C22.0245195,70.9999991 17,66.81745 17,60.792827 C17,56.4690019 19.712461,52.6912547 23.6998796,51.0382576 C24.8286942,50.5387728 26.1157685,50.1896007 27.546875,50.0044221 L27.546875,26.5340746 Z"></path>
    </g>
</svg>
