<svg viewBox="0 0 85 85" xmlns="http://www.w3.org/2000/svg">
    <g class="stroke" fill="none" stroke-width="5" stroke="#FFFFFF" stroke-linecap="round" stroke-linejoin="round">
        <path d="M77.4,82.2 L77.4,49.7 C77.2,43.5 75,38.1 70.5,33.7 C65.9,29.1 60.4,26.8 53.9,26.8 C47.4,26.8 41.9,29.1 37.3,33.7 C32.8,38.2 30.6,43.5 30.4,49.7"></path>
        <path d="M30.4,82.2 L30.4,28.5"></path>
        <path d="M12.4,82.2 L12.4,28.5"></path>
        <path d="M12.5,2.8 C11.2,2.8 10,3.4 9.1,4.2 C8.2,5.1 7.7,6.2 7.7,7.6 C7.7,9 8.3,10.1 9.1,11 C9.9,11.8 11.1,12.4 12.5,12.4 C13.9,12.4 15,11.8 15.9,11 C16.7,10.2 17.3,9 17.3,7.6 C17.3,6.4 16.8,5.2 15.9,4.2 C15,3.3 13.9,2.8 12.5,2.8 Z"></path>
    </g>
</svg>
