<svg viewBox="0 0 85 85" xmlns="http://www.w3.org/2000/svg">
    <g class="stroke" fill="none" stroke-width="5" stroke="#FFFFFF" stroke-linecap="round" stroke-linejoin="round">
		<path d="M3.63,9 L3.63,62.6949153"></path>
		<path d="M29.54,21.3050847 L29.54,75"></path>
		<path d="M81.37,21.3050847 L81.37,75"></path>
		<path d="M3.62676056,9 L29.5422535,21.3050847"></path>
		<path d="M3.62676056,62.6949153 L29.5422535,75"></path>
		<path d="M55.4577465,9 L81.3732394,21.3050847"></path>
		<path d="M29.5422535,50.3898305 L81.3732394,75"></path>
		<path d="M38.7658691,35.7102051 L55.4577465,9"></path>
		<path d="M81.3732394,21.3050847 L55.4577465,62.6949153"></path>
		<path d="M29.5422535,21.3050847 L55.4577465,62.6949153"></path>
        <!-- <path d="M3.62676056,9 L3.62676056,62.6949153"></path>
        <path d="M29.5422535,21.3050847 L29.5422535,75"></path>
        <path d="M55.4577465,9 L55.4577465,62.6949153"></path>
        <path d="M81.3732394,21.3050847 L81.3732394,75"></path>
        <path d="M3.62676056,9 L29.5422535,21.3050847"></path>
        <path d="M3.62676056,62.6949153 L29.5422535,75"></path>
        <path d="M55.4577465,9 L81.3732394,21.3050847"></path>
        <path d="M29.5422535,50.3898305 L81.3732394,75"></path>
        <path d="M29.5422535,50.3898305 L55.4577465,9"></path>
        <path d="M29.5422535,50.3898305 L3.62676056,9"></path>
        <path d="M81.3732394,21.3050847 L55.4577465,62.6949153"></path>
        <path d="M29.5422535,21.3050847 L55.4577465,62.6949153"></path> -->
    </g>
</svg>
