<svg viewBox="0 0 85 85" xmlns="http://www.w3.org/2000/svg">
    <g class="stroke" fill="none" stroke-width="5" stroke="#FFFFFF" stroke-linecap="round" stroke-linejoin="round">
        <path d="M63.1,38.4 L43,38.4 L23.9,38.4 C20.8,38.4 19.1,39.7 17.1,41.8 C15.1,43.9 10.8,49.8 10.8,49.8 C10.8,49.8 15,55.7 17.1,57.8 C19.2,59.9 20.9,61.2 23.9,61.2 L43,61.2 L63.1,61.2 C66.2,61.2 68.9,59.9 70.9,57.8 C72.9,55.7 74.2,52.9 74.2,49.8 C74.2,46.7 73,43.9 70.9,41.8 C68.8,39.7 66.1,38.4 63.1,38.4 Z"></path>
        <path d="M18.4,38.4 L42.5,38.4 L65.6,38.4 C68.7,38.4 70.4,37.1 72.4,35 C74.4,32.9 78.7,27 78.7,27 C78.7,27 74.5,21.1 72.4,19 C70.3,16.9 68.6,15.6 65.6,15.6 L42.5,15.6 L18.4,15.6 C15.3,15.6 12.6,16.9 10.6,19 C8.6,21.1 7.3,23.9 7.3,27 C7.3,30.1 8.5,32.9 10.6,35 C12.7,37.1 15.4,38.4 18.4,38.4 Z"></path>
        <path d="M43,2.5 L43,15"></path>
        <path d="M43,62 L43,82.7"></path>
    </g>
</svg>
