<svg viewBox="0 0 85 85" xmlns="http://www.w3.org/2000/svg">
    <path class="stroke" d="M58.8260756,30.7161645 C58.221595,29.1042163 74.5425704,14.5966826 65.0723748,2.80931147 C62.8559461,0.089148907 55.2999389,16.0071373 44.6207822,23.2609041 C38.6767232,27.2907746 24.9751636,35.7535026 24.9751636,40.4886004 L24.9751636,70.9141224 C24.9751636,76.5559411 46.8372109,82.5 63.3596799,82.5 C69.4044856,82.5 78.2702006,44.4177241 78.2702006,38.3729184 C78.1694538,32.2273659 59.4305562,32.3281127 58.8260756,30.7161645 Z M11.273604,71.0148692 L11.273604,71.0148692 C13.7922731,71.0148692 15.8072083,68.9999339 15.8072083,66.4812649 L15.8072083,44.8207111 C15.8072083,42.3020421 13.7922731,40.2871068 11.273604,40.2871068 L11.273604,40.2871068 C8.75493501,40.2871068 6.73999977,42.3020421 6.73999977,44.8207111 L6.73999977,66.4812649 C6.73999977,68.9999339 8.75493501,71.0148692 11.273604,71.0148692 Z" fill="none" stroke-width="5" stroke="#FFFFFF"></path>
</svg>
