<svg viewBox="0 0 85 85" xmlns="http://www.w3.org/2000/svg">
    <path class="stroke" d="M15.1311721,43.2538953 C13.9237238,39.9334125 13.3199997,36.4116883 13.3199997,32.588102 C13.3199997,24.2365847 16.137379,17.1931364 21.8727584,11.2565156 C27.5075171,5.42051555 34.4503447,2.40189483 42.5,2.50251552 C50.5496553,2.40189483 57.3918622,5.31989486 63.1272416,11.2565156 C68.7620003,17.1931364 71.6800003,24.3372054 71.6800003,32.588102 C71.5793796,40.6377573 69.0638623,47.3793436 64.0328278,52.9134816 C61.2154485,56.1333437 57.8949657,58.0451368 54.0713794,58.8501023 C50.4490346,59.5544471 46.9273104,59.1519644 43.6068276,57.5420333 C36.3621379,54.2215505 32.8404137,48.4861712 33.2428965,40.2352745 C30.123655,28.4626537 31.129862,22.7272743 36.0602758,22.6266537 L33.2428965,38.8265849 L25.1932412,82.4959646" fill="none" stroke-width="5" stroke="#FFFFFF" stroke-linecap="round" stroke-linejoin="round"></path>
</svg>
