<svg viewBox="0 0 85 85" xmlns="http://www.w3.org/2000/svg">
    <g class="stroke" fill="none" fill-rule="evenodd" stroke="#FFFFFF" stroke-width="5">
        <circle cx="71" cy="15.5" r="7.5"></circle>
        <polyline stroke-linecap="round" stroke-linejoin="round" points="44 27 49 9 63.5 13.5"></polyline>
        <ellipse cx="42.5" cy="51.5" rx="34" ry="24.5"></ellipse>
        <path d="M17.3,35.9 C15.6,34.3 13.6,33.5 11.3,33.5 C8.9,33.5 6.9,34.3 5.3,36 C3.6,37.7 2.8,39.7 2.8,42.1 C2.8,44.4 3.6,46.4 5.3,48.1 C6.5,49.3 7.9,50 9.5,50.4"></path>
        <path d="M67.7,35.9 C69.4,34.3 71.4,33.5 73.7,33.5 C76.1,33.5 78.1,34.3 79.7,36 C81.4,37.7 82.2,39.7 82.2,42.1 C82.2,44.4 81.4,46.4 79.7,48.1 C78.5,49.3 77.1,50 75.5,50.4"></path>
    </g>
</svg>
