<svg viewBox="0 0 85 85" xmlns="http://www.w3.org/2000/svg">
    <g class="stroke" fill="none" stroke-width="5" stroke="#FFFFFF" stroke-linecap="round">
        <path d="M23.4,3 C17.8,3 12.9,5 9,9 C5,13 3,17.8 3,23.4 C3,28 4.3,31.9 6.9,35.4 C6.5,37.8 6.2,40.2 6.2,42.7 C6.2,52.6 9.7,61.1 16.7,68.1 C23.8,75.2 32.3,78.7 42.2,78.7 C44.6,78.7 47.1,78.5 49.4,78 C53,80.9 57.2,82.4 62,82.4 C67.6,82.4 72.5,80.4 76.4,76.4 C80.4,72.4 82.4,67.6 82.4,62 C82.4,57 80.8,52.6 77.7,48.9 C78,46.9 78.2,44.9 78.2,42.7 C78.2,32.8 74.7,24.3 67.6,17.2 C60.6,10.2 52.1,6.7 42.2,6.7 C40,6.7 38,6.9 35.9,7.2 C32.3,4.4 28.2,3 23.4,3"></path>
        <path d="M47.9,27.9 C46,26.3 43.7,25.5 41,25.6 C38.2,25.5 35.8,26.4 33.9,28.2 C31.8,30 30.9,32.1 30.9,34.6 C30.9,37 31.9,39.2 33.9,40.9 C34.5,41.4 35.1,41.8 35.7,42.2 C37.3,43.1 39.1,43.5 41.1,43.5 C45.3,43.4 48.3,44.2 50.3,46 C52.3,47.8 53.3,49.9 53.3,52.4 C53.2,54.8 52.2,57 50.3,58.7 C49.7,59.2 49.1,59.6 48.5,60 C46.8,60.9 45.1,61.3 43.1,61.3 C40.3,61.3 37.9,60.4 35.9,58.7 C35.3,58.2 34.8,57.7 34.4,57.1" stroke-linejoin="bevel"></path>
    </g>
</svg>
