<svg viewBox="0 0 85 85" xmlns="http://www.w3.org/2000/svg">
    <path class="fill" d="M42.4001601,77.6820748 C42.5901405,77.6912228 42.779908,77.6965414 42.9732923,77.6965414 C47.4177257,77.6965414 50.2691326,75.6807926 53.0322508,73.7267396 C54.9329051,72.3830489 56.7286766,71.1153079 58.843564,70.7627912 C59.8772868,70.591745 60.9059037,70.5047328 61.9002688,70.5047328 C63.6026457,70.5047328 64.9408051,70.7198169 66.1342985,70.9534097 C66.8072076,71.0855237 67.3382164,71.1523253 67.7994453,71.1523253 C68.3374747,71.1523253 68.6576543,70.9121374 68.8076388,70.3987863 C68.9816633,69.8071454 69.1084587,69.2444377 69.2333394,68.6719438 C69.5769208,67.0984897 69.8003019,66.3477164 70.3761998,66.2594276 C77.4256826,65.1701787 79.4410059,63.687779 79.8879809,62.6421426 C79.9528678,62.4936473 79.9898852,62.3406844 79.9988205,62.1887853 C80.0207331,61.7839336 79.735018,61.4269493 79.3348467,61.3612114 C68.4970326,59.5752261 63.6434926,48.5063721 63.4241536,47.9972759 C62.7614562,46.652947 62.631257,45.4875357 63.0375979,44.5316773 C63.7802869,42.7801565 66.2042913,42.0108744 67.8109334,41.5009272 C68.2051479,41.3758338 68.5774498,41.2577609 68.8684835,41.1433047 C71.6788308,40.0332068 72.2517502,38.9050258 72.2374964,38.1546779 C72.2221788,37.3577392 71.5094867,36.5952649 70.3983251,36.1999867 C70.0149606,36.0400033 69.553519,35.9519273 69.0980342,35.9519273 C68.8001927,35.9519273 68.3623657,35.9908594 67.9681512,36.1748829 C66.6229713,36.8050304 65.3971408,37.145208 64.3291663,37.1858421 C62.9259073,37.1320179 62.3042695,36.5337819 62.2268307,36.4548539 C62.2629972,35.7915184 62.306397,35.0990369 62.3510732,34.3863447 L62.3644761,34.1638145 C62.6876341,29.0460465 63.0884437,22.676706 61.4677604,19.0421887 C56.608689,8.14735927 46.2880555,7.30000019 43.0603045,7.30063842 C43.0603045,7.30063842 41.8051154,7.31404129 41.7272511,7.31404129 C38.6867148,7.31404129 28.3882066,8.1601239 23.5319009,19.0487838 C21.9116431,22.6813864 22.311389,29.0451956 22.6341215,34.1670057 C22.6839036,34.9571367 22.732622,35.7228021 22.7719796,36.4559177 C22.689435,36.541228 22.0137602,37.1917989 20.4658354,37.1917989 C19.3453131,37.1917989 18.0469369,36.8499194 16.606235,36.1748829 C16.3586011,36.059363 16.0641635,36.0000074 15.72973,36.0000074 C14.5098563,36.0000074 13.0017146,36.7865217 12.7868432,37.9151283 C12.6613243,38.5774001 12.9276797,39.8770528 16.1303268,41.1433047 C16.4239135,41.2592501 16.7962153,41.3766848 17.1889406,41.5009272 C18.7938808,42.0100235 21.2185234,42.7801565 21.9618507,44.5321027 C22.3675534,45.4879612 22.2377796,46.6544362 21.5574245,48.0366335 C21.3557433,48.5067976 16.4977356,59.5788427 5.66481465,61.3627006 C5.2650688,61.4278002 4.97850273,61.78521 5.00126633,62.1896362 C5.00998883,62.3389825 5.0461553,62.4898179 5.10976573,62.6404406 C5.5595064,63.6937358 7.57653161,65.1780502 14.6234616,66.2664482 C15.2280798,66.3592045 15.4516737,67.2465595 15.7667475,68.6891761 C15.8888625,69.2497563 16.0158706,69.8292708 16.1915971,70.4275067 C16.3934911,71.1180735 16.858762,71.2110426 17.2880793,71.2110426 C17.6986751,71.2110426 18.2392574,71.1057344 18.8657883,70.9827684 C19.8969581,70.7812999 21.3093651,70.5047328 23.0993925,70.5047328 C24.0931194,70.5047328 25.1215236,70.591745 26.1546081,70.7627912 C28.2718357,71.1153079 30.0686709,72.3853891 31.9727291,73.7309945 C34.7305287,75.6807926 37.5823611,77.6965414 42.0255181,77.6965414 C42.1521007,77.6965414 42.2786833,77.6916482 42.4001601,77.6820748 Z M69.0980342,30.9519273 C70.1514443,30.9519273 71.2177606,31.1465747 72.1908201,31.5315585 C75.0158054,32.5785416 77.1762588,34.9205772 77.2365945,38.0597135 C77.3035508,41.5844137 74.8350484,44.1624261 70.698429,45.7964004 C70.3084411,45.9497728 70.0262793,46.0436448 69.3235652,46.2666323 C68.8523119,46.4162078 68.5495771,46.5154931 68.2973688,46.6064457 C68.444555,46.8966473 68.6157626,47.2139764 68.8110334,47.5528971 C69.472254,48.7005412 70.2732731,49.8631574 71.2075485,50.9624975 C73.7142619,53.9120887 76.6886295,55.8576996 80.1453549,56.4273411 C83.065366,56.9070239 85.1511983,59.5087073 84.9901923,62.4823954 C84.9461647,63.2308656 84.7680175,63.9613972 84.4855426,64.6074482 C83.157918,67.7132431 79.803058,69.5193688 73.8967071,70.7137951 C73.8041322,71.0984827 73.7146524,71.4349996 73.6069922,71.8010011 C72.8333436,74.4489642 70.5563609,76.1523253 67.7994453,76.1523253 C66.978448,76.1523253 66.1518883,76.0523182 65.1739108,75.8603085 C63.9078423,75.6125111 63.0030569,75.5047328 61.9002688,75.5047328 C61.1840303,75.5047328 60.4281785,75.5685765 59.6656394,75.6947474 C58.9049692,75.8215385 58.0867975,76.2766732 55.919232,77.8090599 C50.948919,81.3240219 47.9885015,82.6965414 42.9732923,82.6965414 C42.7968528,82.6965414 42.6208803,82.6935551 42.4428215,82.6877548 C42.303949,82.6936164 42.1645665,82.6965414 42.0255181,82.6965414 C37.0122608,82.6965414 34.0517684,81.3243523 29.0870746,77.8142527 C28.4091628,77.3351699 28.1195555,77.1332584 27.7752862,76.903133 C26.6213109,76.1317629 25.902296,75.7896126 25.3378849,75.6956365 C24.5704366,75.5685713 23.814961,75.5047328 23.0993925,75.5047328 C22.2243935,75.5047328 21.4337412,75.5911513 20.4747374,75.7658735 C20.2912094,75.7993107 20.1472466,75.8269371 19.8287414,75.8891644 C18.5696785,76.1362741 18.0948891,76.2110426 17.2880793,76.2110426 C14.6977295,76.2110426 12.2757664,74.8517608 11.3942809,71.8366757 C11.2811933,71.4516849 11.1939487,71.1217739 11.0987829,70.7201104 C5.19584022,69.5254563 1.8392256,67.7136267 0.503673359,64.5856689 C0.222782879,63.9205503 0.0524714654,63.2122552 0.00916788918,62.4706223 C-0.157305413,59.5129985 1.93558732,56.9041463 4.85240536,56.4291429 C8.30836908,55.8600491 11.2822924,53.9151065 13.7890796,50.9676822 C14.7222856,49.8704395 15.5220922,48.7108285 16.1815561,47.5677415 C16.3807323,47.2224977 16.5545187,46.9002399 16.7027992,46.6072448 C16.434452,46.51131 16.1048986,46.4025826 15.6808122,46.2680593 C14.9647874,46.041538 14.6905218,45.9504831 14.2919206,45.7930641 C9.66335751,43.9630383 7.14925246,40.8095908 7.87506936,36.9799932 C8.5918595,33.2150707 12.2412456,31.0000074 15.72973,31.0000074 C16.3139907,31.0000074 16.892254,31.0649862 17.4569971,31.2020689 C17.1095099,24.1488486 17.3819271,20.5624795 18.9654776,17.0121743 C21.6600669,10.9704488 25.9778087,6.87006537 31.2909442,4.5241694 C34.9076537,2.92729231 38.5188347,2.31404129 41.7272511,2.31404129 C41.7319759,2.31404129 42.0203567,2.31123464 42.3402105,2.30792858 C42.8504798,2.30259388 42.8504798,2.30259388 43.0593159,2.30063852 C46.3685824,2.29998417 50.0099341,2.90691923 53.6591067,4.50601976 C59.0011488,6.84695106 63.3338551,10.9510027 66.0343236,17.0058929 C67.6108068,20.5412879 67.887708,24.1145716 67.5472672,31.0939752 C68.0670879,30.9936494 68.5837118,30.9519273 69.0980342,30.9519273 Z" fill="#FFFFFF" fill-rule="nonzero"></path>
</svg>
