<svg viewBox="0 0 85 85" xmlns="http://www.w3.org/2000/svg">
    <g class="stroke" fill="none" stroke-width="5" stroke="#FFFFFF" stroke-linecap="round" stroke-linejoin="round">
        <path d="M70.3,39.7 C68.7,39.7 67.1,40 65.7,40.6 C64.8,29.9 55.8,21.5 44.8,21.5 L41.4,21.5 C40.1,21.5 39,22.6 39,23.9 L39,24.2 L39,24.3 L39,29 L39,43.9 L39,61.2 L39,61.6 C39,61.7 39.1,61.9 39.1,62 L39.1,62 C39.1,62.1 39.2,62.2 39.2,62.3 C39.4,62.7 39.7,63.2 40.4,63.5 C40.7,63.6 41,63.7 41.4,63.7 L70.3,63.7 C76.9,63.7 82.2,58.4 82.2,51.8 C82.2,45.1 76.9,39.7 70.3,39.7 Z"></path>
        <path d="M30,23.3 L30,63.3"></path>
        <path d="M20.9,39.1 L20.9,63.3"></path>
        <path d="M11.9,35.8 L11.9,61.9"></path>
        <path d="M2.8,46.4 L2.8,57.9"></path>
    </g>
</svg>
