<svg viewBox="0 0 85 85" xmlns="http://www.w3.org/2000/svg">
    <g class="stroke" fill="none" stroke="#FFFFFF" stroke-width="5">
        <circle stroke-linecap="round" stroke-linejoin="round" cx="65.3999977" cy="27.1999989" r="16.7999992"></circle>
        <circle stroke-linecap="round" stroke-linejoin="round" cx="65.4000015" cy="27.2000008" r="6.5"></circle>
        <path d="M32.1,46.2 C30,46.2 27.9,46.7 26.1,47.5 L32.7,52.9 C35.6,55.4 36.1,59.7 33.7,62.7 C31.3,65.7 26.9,66.1 23.9,63.7 L18,58.9 C17.9,59.4 17.9,59.9 17.9,60.4 C17.9,68.2 24.3,74.6 32.1,74.6 C39.9,74.6 46.3,68.2 46.3,60.4 C46.3,52.6 40,46.2 32.1,46.2 Z M26.1,47.6 L14.2,37.9 C11.2,35.5 6.8,35.9 4.4,38.9 C2,41.9 2.4,46.3 5.4,48.7 L18,58.9 L26.1,47.6 Z"></path>
        <path d="M70.1,43.7 L46,64"></path>
        <path d="M28.5,46.5 L49,22.4"></path>
    </g>
</svg>
