<svg viewBox="0 0 85 85" xmlns="http://www.w3.org/2000/svg">
    <g class="fill" fill="#FFFFFF" fill-rule="evenodd">
        <path d="M64.817319,62.0258274 C55.8795755,72.1673379 43.3083721,77.994394 28.5594238,77.994394 C19.1580396,77.994394 10.0956884,75.2971634 2.31320838,70.3384151 C-2.1839474,67.4729707 0.328886747,60.4988446 5.62017367,61.1602555 C6.54539515,61.2759082 7.55637064,61.3317289 8.66146459,61.3317289 C11.0104049,61.3317289 13.30982,61.0196647 15.514506,60.4181442 C12.3453668,57.9467268 9.90821186,54.5450461 8.63934623,50.5627601 C8.32360625,49.5718223 8.33006356,48.5872968 8.5825152,47.6948913 C5.10759729,44.0145321 3.00120048,39.0578103 3.00120048,33.6786677 C3.00120048,32.0333079 3.58191581,30.7963945 4.4841152,29.9110223 C3.59777902,27.6113947 3.1212485,25.1317171 3.1212485,22.5742259 C3.1212485,18.9287154 4.07521858,15.4172937 5.8649454,12.3259473 C7.61698573,9.29969585 11.8547635,8.96058216 14.0657576,11.6697054 C19.8093605,18.7073215 27.777399,23.5118242 36.6375275,25.2498368 C37.7164626,15.0066077 46.3942048,7.01000023 56.9207683,7.01000023 C61.5765064,7.01000023 65.9923688,8.58532914 69.5440651,11.3884438 C71.6079221,10.7823846 73.5625067,9.93222851 75.3694645,8.85535462 C79.3347942,6.49217834 84.1111163,10.305812 82.684342,14.6958868 C82.6559297,14.7833092 82.6269513,14.8704862 82.5974108,14.9574127 C84.8098966,16.3337478 85.9191131,19.3908698 84.1540364,22.0256945 C82.2418953,24.88005 79.9417654,27.4538494 77.3448588,29.6415165 C77.2345035,41.1809765 72.7369623,53.0395385 64.817319,62.0258274 Z M72.3469388,29.206879 C72.3469388,28.5466149 72.3469388,27.8863508 72.3169268,27.2260867 C75.3181273,25.0652223 77.9291717,22.3341299 80,19.2428934 C77.2388956,20.4733856 74.2677071,21.2837097 71.1464586,21.6738658 C74.3277311,19.7831095 76.7587035,16.751897 77.9291717,13.1504564 C74.9579832,14.9211647 71.6566627,16.1816689 68.1452581,16.871945 C65.3241297,13.8707445 61.332533,12.0100002 56.9207683,12.0100002 C48.4273709,12.0100002 41.5246098,18.9127613 41.5246098,27.4061587 C41.5246098,28.6066389 41.6746699,29.7771071 41.9147659,30.9175633 C29.1296519,30.2873112 17.785114,24.1348502 10.1920768,14.8311287 C8.87154862,17.112041 8.1212485,19.7530975 8.1212485,22.5742259 C8.1212485,27.9163628 10.8523409,32.6282475 14.9639856,35.389352 C12.4429772,35.299316 10.0720288,34.6090398 8.00120048,33.4685837 L8.00120048,33.6786677 C8.00120048,41.1216449 13.3133253,47.3641419 20.3361345,48.7747061 C19.0456182,49.1348502 17.695078,49.3149222 16.2845138,49.3149222 C15.2941176,49.3149222 14.3337335,49.2248862 13.4033613,49.0448142 C15.3541417,55.1672631 21.0564226,59.6090398 27.7791116,59.7290879 C22.4969988,63.8707445 15.8643457,66.3317289 8.66146459,66.3317289 C7.43097239,66.3317289 6.20048019,66.2717049 5,66.1216449 C11.7827131,70.4433736 19.8859544,72.994394 28.5594238,72.994394 C56.8607443,72.994394 72.3469388,49.5250062 72.3469388,29.206879 Z"></path>
    </g>
</svg>
