<svg viewBox="0 0 85 85" xmlns="http://www.w3.org/2000/svg">
    <g class="stroke" fill="none" stroke-width="5" stroke="#FFFFFF" stroke-linecap="round" stroke-linejoin="round">
        <path d="M81.7947103,30.8458498 C80.988665,25.5098814 80.2833753,21.5573123 78.1675063,20.173913 C75.9508816,18.3952569 57.1095718,18 42.5,18 C27.8904282,18 9.04911839,18.3952569 6.8324937,20.173913 C4.61586902,21.5573123 3.91057935,25.5098814 3.20528967,30.8458498 C2.5,36.1818182 2.5,39.4426877 2.5,43 C2.5,46.5573123 2.5,49.8181818 3.20528967,55.1541502 C3.91057935,60.4901186 4.61586902,64.4426877 6.8324937,65.826087 C9.04911839,67.6047431 27.8904282,68 42.5,68 C57.1095718,68 75.9508816,67.6047431 78.1675063,65.826087 C80.384131,64.4426877 81.0894207,60.4901186 81.7947103,55.1541502 C82.5,49.8181818 82.5,46.5573123 82.5,43 C82.5,39.3438735 82.5,36.1818182 81.7947103,30.8458498 Z"></path>
        <polygon points="34 56 34 30 55.6 43"></polygon>
    </g>
</svg>
