<svg viewBox="0 0 156 156" width="156" height="156" xmlns="http://www.w3.org/2000/svg" xmlns:xlink="http://www.w3.org/1999/xlink">
	<g stroke="none" stroke-linecap="round" stroke-linejoin="round">
		<!-- <rect class="background" fill="#FFFFFF" x="0" y="0" width="156" height="156"/> -->
		<g class="lights">
			<rect stroke="#FAE6E6" fill="#F2CACA" x="64.5" y="14.5" width="11" height="11" rx="1"/>
			<rect stroke="#FAE6E6" fill="#F2CACA" x="48.5" y="14.5" width="11" height="11" rx="1"/>
			<rect stroke="#FAE6E6" fill="#F2CACA" x="80.5" y="14.5" width="11" height="11" rx="1"/>
			<rect fill="#D5D5D5" x="97" y="15" width="10" height="10" rx="1"/>
		</g>
		<g class="left">
			<path d="M55.5,49 C47.5197983,49 40,56.4780197 40,65 C40,79 40,93 40,107 C40,115.52198 47.5197983,123 55.5,123 L70.5,123 C71.0522847,123 71.5,122.552285 71.5,122 L71.5,50 C71.5,49.4477153 71.0522847,49 70.5,49 C63,49 63,49 55.5,49 Z" stroke="#93807C" stroke-width="2" fill="#F2CACA"/>
			<rect fill="#FBF0EE" x="55.5" y="57" width="10" height="3" rx="1"/>
			<circle fill="#FBF0EE" cx="55.5" cy="73.5" r="5.5"/>
			<rect fill="#FBF0EE" x="52.5" y="85" width="6" height="18" rx="1"/>
			<rect fill="#FBF0EE" x="46.5" y="91" width="18" height="6" rx="1"/>
		</g>
		<g class="right">
			<path d="M99.5,49 C107.480202,49 115,56.4780197 115,65 L115,107 L115,107 C115,115.52198 107.480202,123 99.5,123 L84.5,123 C83.9477153,123 83.5,122.552285 83.5,122 L83.5,50 C83.5,49.4477153 83.9477153,49 84.5,49 L99.5,49 L99.5,49 Z" stroke="#93807C" stroke-width="2" fill="#F2CACA"/>
			<circle fill="#FBF0EE" cx="99.5" cy="71" r="3"/>
			<circle fill="#FBF0EE" cx="99.5" cy="83" r="3"/>
			<circle fill="#FBF0EE" cx="93.5" cy="77" r="3"/>
			<circle fill="#FBF0EE" cx="105.5" cy="77" r="3"/>
			<circle fill="#FBF0EE" cx="99.5" cy="96.5" r="5.5"/>
			<rect fill="#FBF0EE" x="93.5" y="53" width="3" height="10" rx="1"/>
			<rect fill="#FBF0EE" x="90" y="56.5" width="10" height="3" rx="1"/>
		</g>
	</g>
</svg>