<svg viewBox="0 0 156 156" width="156" height="156" xmlns="http://www.w3.org/2000/svg" xmlns:xlink="http://www.w3.org/1999/xlink">
	<g stroke="none" fill="none" stroke-linecap="round" stroke-linejoin="round">
		<!-- <rect class="background" fill="#FFFFFF" x="0" y="0" width="156" height="156"></rect> -->
		<g class="lights">
			<rect stroke="#C2D3B4" fill="#97B578" x="64.5" y="14.5" width="11" height="11" rx="1"></rect>
			<rect stroke="#C2D3B4" fill="#97B578" x="80.5" y="14.5" width="11" height="11" rx="1"></rect>
			<rect stroke="#C2D3B4" fill="#97B578" x="48.5" y="14.5" width="11" height="11" rx="1"></rect>
			<rect fill="#D5D5D5" x="97" y="15" width="10" height="10" rx="1"></rect>
		</g>
		<g class="controller">
			<path d="M60.4823841,101.698343 C54.6690676,101.698343 53.7819777,103.079613 51.3517252,108.03834 C48.9214727,112.997068 46.5937752,121 39.2023224,121 C32.5127193,121 26.2155338,116.992925 30.2888346,94.7082101 C31.7459382,86.7365088 33.9357548,73.2968318 36.894748,64.6953787 C37.5901177,62.674019 38.6696426,62.674019 39.2023224,61.7089833 C39.9684528,60.3210141 39.2023224,60.3210141 40.8694966,57.9053463 C44.7080388,52.3434543 50.4881851,52 55.2014924,52 C62.4767702,52 63.2341608,54.9652861 65.756381,54.9652861 C67.9503379,54.9652861 88.0496621,54.9652861 90.243619,54.9652861 C92.7658392,54.9652861 93.5232298,52 100.798508,52 C105.511815,52 111.291961,52.3434543 115.130503,57.9053463 C116.797678,60.3210141 116.031547,60.3210141 116.797678,61.7089833 C117.330357,62.674019 118.409882,62.674019 119.105252,64.6953787 C122.064245,73.2968318 124.254062,86.7365088 125.711165,94.7082101 C129.784466,116.992925 123.487281,121 116.797678,121 C109.406225,121 107.078527,112.997068 104.648275,108.03834 C102.218022,103.079613 101.330932,101.698343 95.5176159,101.698343 C94.2257677,101.698343 61.7742323,101.698343 60.4823841,101.698343 Z" fill="#97B578"></path>
			<path d="M35,73 C41.5449295,84.8529421 48.6105868,94.4293105 56.1969719,101.729105" stroke="#90B06F" stroke-width="2"></path>
			<path d="M121,73 C114.45507,84.8529421 107.389413,94.4293105 99.8030281,101.729105" stroke="#90B06F" stroke-width="2"></path>
			<path d="M60.4823841,101.698343 C54.6690676,101.698343 53.7819777,103.079613 51.3517252,108.03834 C48.9214727,112.997068 46.5937752,121 39.2023224,121 C32.5127193,121 26.2155338,116.992925 30.2888346,94.7082101 C31.7459382,86.7365088 33.9357548,73.2968318 36.894748,64.6953787 C37.5901177,62.674019 38.6696426,62.674019 39.2023224,61.7089833 C39.9684528,60.3210141 39.2023224,60.3210141 40.8694966,57.9053463 C44.7080388,52.3434543 50.4881851,52 55.2014924,52 C62.4767702,52 63.2341608,54.9652861 65.756381,54.9652861 C67.9503379,54.9652861 88.0496621,54.9652861 90.243619,54.9652861 C92.7658392,54.9652861 93.5232298,52 100.798508,52 C105.511815,52 111.291961,52.3434543 115.130503,57.9053463 C116.797678,60.3210141 116.031547,60.3210141 116.797678,61.7089833 C117.330357,62.674019 118.409882,62.674019 119.105252,64.6953787 C122.064245,73.2968318 124.254062,86.7365088 125.711165,94.7082101 C129.784466,116.992925 123.487281,121 116.797678,121 C109.406225,121 107.078527,112.997068 104.648275,108.03834 C102.218022,103.079613 101.330932,101.698343 95.5176159,101.698343 C94.2257677,101.698343 61.7742323,101.698343 60.4823841,101.698343 Z" stroke="#72885B" stroke-width="2"></path>
			<rect fill="#C2D3B4" x="54" y="86" width="15" height="5" rx="1"></rect>
			<rect fill="#C2D3B4" x="59" y="81" width="5" height="15" rx="1"></rect>
			<circle fill="#C2D3B4" cx="49" cy="72" r="5.5"></circle>
			<circle fill="#C2D3B4" cx="103" cy="65.5" r="3.5"></circle>
			<circle fill="#C2D3B4" cx="95.5" cy="72.5" r="3.5"></circle>
			<circle fill="#C2D3B4" cx="110.5" cy="72.5" r="3.5"></circle>
			<circle fill="#C2D3B4" cx="103" cy="79.5" r="3.5"></circle>
			<circle fill="#C2D3B4" cx="89.5" cy="88.5" r="5.5"></circle>
		</g>
	</g>
</svg>