<svg viewBox="0 0 100 100" version="1.1" xmlns="http://www.w3.org/2000/svg" xmlns:xlink="http://www.w3.org/1999/xlink">
	<path d="M50,10 C27.905807,10 10,27.9078393 10,50 C10,72.0901285 27.905807,90 50,90 C72.0880963,90 90,72.0921607 90,50 C89.9959356,27.9078393 72.0880963,10 50,10 L50,10 Z M50,13.5868516 C70.0782401,13.5868516 86.4131484,29.9217599 86.4131484,50 C86.4131484,57.4155362 84.1716202,64.3108266 80.3510644,70.0741757 C80.0381039,69.0621348 79.6336941,68.0846416 79.1398669,67.1416959 C82.133313,62.0489763 83.7285983,56.2653051 83.7285983,50.2967027 C83.7285983,31.8665854 68.7329167,16.872936 50.3027994,16.872936 C31.8747142,16.872936 16.8810649,31.8665854 16.8810649,50.2967027 C16.8810649,56.5437179 18.6125083,62.5610933 21.8640451,67.8204542 C21.3112838,68.9706854 20.8946807,70.1696896 20.6101712,71.4052736 C16.2144998,65.3878982 13.5888838,58.0028451 13.5888838,50.0020322 C13.5848194,29.9217599 29.9217599,13.5868516 50,13.5868516 L50,13.5868516 Z M63.5629731,56.1271148 C62.5875121,55.9218615 61.6425342,56.5437179 61.4393131,57.5130824 C61.4067977,57.6594015 61.4311843,57.799624 61.4352487,57.9378144 C61.3377026,58.10852 61.2503175,58.2873546 61.2137377,58.4926078 C60.2565666,63.7316466 55.5418381,67.3916578 49.7439415,67.3916578 C46.5371132,67.3916578 43.5741503,66.2556521 41.4017172,64.1929584 C39.7515623,62.6322207 38.668394,60.6630087 38.2761774,58.4926078 C38.2314688,58.2345171 38.1257938,58.0048773 37.9835391,57.8016563 C37.6807397,56.8973226 36.7235686,56.3933343 35.800945,56.6615861 C30.1046588,58.2975156 25.5484428,61.7136615 22.8516994,66.0199157 C20.1082152,61.2523497 18.6673779,55.8649596 18.6673779,50.2926383 C18.6673779,32.8501753 32.8583041,18.6633135 50.2967027,18.6633135 C67.7371336,18.6633135 81.9260275,32.8501753 81.9260275,50.2926383 C81.9260275,55.6068689 80.6010263,60.7727481 78.0831174,65.3777371 C75.0368338,60.8621653 69.8811157,57.4500838 63.5629731,56.1271148 L63.5629731,56.1271148 Z M50,86.4111162 C39.6763705,86.4111162 30.3607174,82.0723467 23.7316466,75.1465732 C23.7316466,75.1181222 23.7458721,75.0957679 23.7458721,75.067317 C23.7885485,68.8670426 28.3041203,63.1910786 35.144541,60.6284611 C35.8436214,62.9573744 37.113753,65.0749378 38.9366458,66.7962201 C41.7736117,69.4949957 45.6144897,70.9805416 49.7459737,70.9805416 C56.8424529,70.9805416 62.8984403,66.4446477 64.5262409,60.067571 C71.7974902,62.1688767 76.8902098,67.5237515 77.4653254,73.8297008 C70.7854494,81.5216176 60.9637758,86.4111162 50,86.4111162 L50,86.4111162 Z M49.7459737,28.5276635 C44.3077783,28.5276635 39.8836559,32.9497536 39.8836559,38.3899812 L39.8836559,49.1485038 C39.8836559,54.5866992 44.3057461,59.0108215 49.7459737,59.0108215 C54.6476655,59.0108215 58.716151,55.4117767 59.4701011,50.7194025 C59.5574862,50.5039882 59.6082914,50.2743484 59.6082914,50.0447086 C59.6082914,49.9837423 59.5757761,49.9268404 59.5676472,49.8658741 C59.5859371,49.6281055 59.6082914,49.3903368 59.6082914,49.1485038 L59.6082914,38.3899812 C59.6103236,32.9517858 55.1841691,28.5276635 49.7459737,28.5276635 L49.7459737,28.5276635 Z M49.7459737,55.4239699 C46.2830869,55.4239699 43.4705075,52.6093583 43.4705075,49.1485038 L43.4705075,38.3899812 C43.4705075,34.9291267 46.2830869,32.1145151 49.7459737,32.1145151 C53.2068282,32.1145151 56.0214398,34.9291267 56.0214398,38.3899812 L56.0214398,49.1485038 C56.0214398,52.6093583 53.2068282,55.4239699 49.7459737,55.4239699 L49.7459737,55.4239699 Z" fill="#000000"></path>
</svg>