<?xml version="1.0" encoding="UTF-8"?>
<svg width="1024" height="1024" viewBox="0 0 512 512" version="1.1" xmlns="http://www.w3.org/2000/svg" xmlns:xlink="http://www.w3.org/1999/xlink">
    <title>2023-03-02-logo-v2</title>
    <g stroke="none" fill-rule="evenodd">
        <rect fill="#444349" x="0" y="0" width="512" height="512"></rect>
        <circle fill="#8F8E92" cx="256" cy="256" r="177"></circle>
        <path d="M428.461287,215.999634 C431.430675,228.853713 433,242.243589 433,256 C433,353.754401 353.754401,433 256,433 C158.245599,433 79,353.754401 79,256 C79,158.245599 158.245599,79 256,79 C300.523553,79 341.207512,95.4392557 372.313193,122.579082 L322.677076,172.309884 C304.389272,157.720513 281.213029,149 256,149 C196.905532,149 149,196.905532 149,256 C149,315.094468 196.905532,363 256,363 C303.947219,363 344.528603,331.46311 358.13259,288.000893 L287,288 L287,216 Z" fill="#FFFFFF"></path>
    </g>
</svg>