<?xml version="1.0" encoding="UTF-8"?>
<svg width="1024" height="1024" viewBox="0 0 512 512" version="1.1" xmlns="http://www.w3.org/2000/svg" xmlns:xlink="http://www.w3.org/1999/xlink">
    <title>2023-03-02-logo-v4</title>
    <g stroke="none" fill="#fff" fill-rule="nonzero">
        <rect fill="#F5C8BF" x="0" y="0" width="512" height="512"></rect>
        <path d="M256,79 C353.754401,79 433,158.245599 433,256 C433,353.754401 353.754401,433 256,433 C158.245599,433 79,353.754401 79,256 C79,158.245599 158.245599,79 256,79 Z M279.545258,132.1 C226.267666,132.1 193.957385,163.763333 193.957385,199.556667 C193.957385,215.388333 199.800734,226.401667 212.51861,233.285 C166.802999,238.4475 156.491207,262.539167 156.491207,280.78 C156.491207,308.5336 179.299241,314.401504 203.323704,317.262504 L204.826621,317.437572 C205.327992,317.494736 205.829695,317.550767 206.331535,317.605833 C208.943856,318.018833 211.611173,318.3217 214.289489,318.60254 L218.309713,319.018293 C220.988029,319.299133 223.655346,319.602 226.267666,320.015 C242.766534,322.424167 255.828137,326.21 255.828137,339.976667 C255.828137,357.185 233.142194,366.4775 198.425828,366.4775 C169.55281,366.4775 158.209839,355.12 155.116302,339.976667 C154.085122,334.125833 154.428849,327.930833 155.116302,321.391667 L145.148236,321.391667 C137.242529,327.586667 133.461538,335.846667 133.461538,344.106667 C133.461538,362.003333 146.179415,379.9 191.5513,379.9 C260.640306,379.9 292.263135,345.8275 292.263135,312.443333 C292.263135,286.630833 275.076815,270.455 242.422807,270.455 C235.204553,270.455 227.642572,271.143333 220.768044,272.175833 C197.738375,274.929167 178.489697,279.403333 178.489697,266.669167 C178.489697,254.9675 196.707196,243.954167 229.361204,243.61 C236.235732,243.61 243.11026,245.675 254.109505,245.675 C306.355918,245.675 331.447945,218.485833 339.353652,186.478333 C340.728558,180.6275 342.103463,175.465 343.134642,170.990833 C347.603086,155.159167 350.696623,149.996667 357.571151,149.996667 C364.789406,149.996667 366.508038,157.568333 362.727047,167.549167 L373.726292,167.549167 C376.476103,164.451667 378.538462,159.289167 378.538462,154.126667 C378.538462,145.5225 372.695113,136.918333 359.63351,136.918333 C348.290538,136.918333 338.322473,141.736667 333.166577,157.568333 C325.26087,144.145833 310.136908,132.1 279.545258,132.1 Z M283.042041,142.992308 C297.823496,142.992308 302.292308,153.280625 302.292308,160.82539 C302.292308,173.857259 295.417212,180.030249 285.792079,194.433892 C273.760663,213.295807 277.19821,234.215385 251.760358,234.215385 C238.697677,234.215385 232.853846,226.327675 232.853846,218.097021 C232.853846,204.722209 240.072696,199.920995 251.072848,183.459688 C264.135529,163.225998 261.729246,142.992308 283.042041,142.992308 Z" fill-opacity="0.5"></path>
        <path d="M341.441966,177.939444 C360.254687,198.519619 371.730769,225.919618 371.730769,256 C371.730769,319.916339 319.916339,371.730769 256,371.730769 C252.264612,371.730769 248.570557,371.5538 244.925763,371.207788 C277.129645,358.961868 292.263135,335.537895 292.263135,312.443333 C292.263135,286.630833 275.076815,270.455 242.422807,270.455 C235.204553,270.455 227.642572,271.143333 220.768044,272.175833 C197.738375,274.929167 178.489697,279.403333 178.489697,266.669167 C178.489697,254.9675 196.707196,243.954167 229.361204,243.61 C236.235732,243.61 243.11026,245.675 254.109505,245.675 C306.355918,245.675 331.447945,218.485833 339.353652,186.478333 C340.041105,183.552917 340.728558,180.799583 341.373045,178.218333 Z M193.957385,199.556667 C193.957385,215.388333 199.800734,226.401667 212.51861,233.285 C166.802999,238.4475 156.491207,262.539167 156.491207,280.78 C156.491207,308.5336 179.299241,314.401504 203.323704,317.262504 L204.826621,317.437572 C205.327992,317.494736 205.829695,317.550767 206.331535,317.605833 C212.862337,318.638333 219.736865,318.9825 226.267666,320.015 C242.766534,322.424167 255.828137,326.21 255.828137,339.976667 C255.828137,353.692686 241.415767,362.37978 217.986662,365.340846 C172.742091,349.614691 140.269231,306.599567 140.269231,256 C140.269231,200.686772 179.073987,154.43688 230.945261,142.988562 C207.288814,155.277433 193.957385,176.565017 193.957385,199.556667 Z M281.276681,143.037776 C286.635729,144.231666 291.854713,145.797165 296.905189,147.70583 C300.852425,151.376085 302.292308,156.542734 302.292308,160.82539 C302.292308,173.857259 295.417212,180.030249 285.792079,194.433892 C273.760663,213.295807 277.19821,234.215385 251.760358,234.215385 C238.697677,234.215385 232.853846,226.327675 232.853846,218.097021 C232.853846,204.722209 240.072696,199.920995 251.072848,183.459688 C263.743649,163.833008 261.859701,144.206329 281.186873,143.046392 Z"></path>
    </g>
</svg>