<?xml version="1.0" encoding="UTF-8"?>
<svg width="1024" height="1024" viewBox="0 0 512 512" version="1.1" xmlns="http://www.w3.org/2000/svg" xmlns:xlink="http://www.w3.org/1999/xlink">
    <title>2023-03-02-logo-v3</title>
    <g stroke="none" fill="#F5C8BF" fill-rule="nonzero">
        <rect fill="#FCF1EF" x="0" y="0" width="512" height="512"></rect>
        <circle opacity="0.25" cx="256" cy="256" r="177"></circle>
        <circle opacity="0.5" cx="256" cy="256" r="99.12"></circle>
        <path d="M256,137.213333 C284.688431,137.213333 311.848611,147.443824 333.205147,165.722237 C341.457078,172.784814 342.421239,185.199676 335.358661,193.451606 C328.296084,201.703537 315.881222,202.667698 307.629292,195.60512 C293.333081,183.369427 275.219836,176.546667 256,176.546667 C212.119136,176.546667 176.546667,212.119136 176.546667,256 C176.546667,299.880864 212.119136,335.453333 256,335.453333 C292.859926,335.453333 323.857448,310.353399 332.833041,276.313056 L332.99854,275.6647 L277.24,275.666667 C266.637009,275.666667 257.993788,267.275897 257.588217,256.77224 L257.573333,256 C257.573333,245.1384 266.3784,236.333333 277.24,236.333333 L355.12,236.333333 C365.9816,236.333333 374.786667,245.1384 374.786667,256 C374.786667,321.604064 321.604064,374.786667 256,374.786667 C190.395936,374.786667 137.213333,321.604064 137.213333,256 C137.213333,190.395936 190.395936,137.213333 256,137.213333 Z" fill="#fff"></path>
    </g>
</svg>