<?xml version="1.0" encoding="UTF-8"?>
<svg width="1024" height="1024" viewBox="0 0 512 512" version="1.1" xmlns="http://www.w3.org/2000/svg" xmlns:xlink="http://www.w3.org/1999/xlink">
    <title>2023-03-02-logo-v1</title>
    <g stroke="none" fill-rule="nonzero">
        <rect fill="#D34836" x="0" y="0" width="512" height="512"></rect>
        <path d="M339.52,343.38 C321.58,361.78 297.66,369.6 263.62,369.6 C202.44,369.6 174.84,336.94 174.84,256.44 C174.84,180.54 202.44,142.82 263.62,142.82 C297.2,142.82 316.98,154.32 335.84,175.02 C341.82,181.46 348.26,184.22 354.7,184.22 C368.5,184.22 379.54,173.18 379.54,159.84 C379.54,154.78 378.16,150.18 374.48,144.66 C355.62,117.06 319.28,94.98 263.62,94.98 C172.08,94.98 119.64,147.42 119.64,256.44 C119.64,369.14 172.08,417.44 263.62,417.44 C312.84,417.44 361.6,396.74 383.68,367.3 C389.2,360.4 391.5,353.5 391.5,342.92 L391.5,269.32 C391.5,255.98 379.08,244.94 366.2,244.94 L276.96,244.94 C264.08,244.94 253.5,255.52 253.5,268.4 C253.5,281.28 264.08,291.86 276.96,291.86 L339.52,291.86 L339.52,343.38 Z" fill="#FFFFFF"></path>
    </g>
</svg>