<?xml version="1.0" encoding="UTF-8"?>
<svg width="1950" height="1950" viewBox="0 0 260 260" version="1.1" xmlns="http://www.w3.org/2000/svg" xmlns:xlink="http://www.w3.org/1999/xlink">
    <title>2023-03-02-logo-favicon</title>
    <defs>
        <linearGradient x1="-4.77048956e-16%" y1="1.75207071e-14%" x2="100%" y2="100%" id="gradient-logo-favicon">
            <stop stop-color="#D19487" offset="0%"></stop>
            <stop stop-color="#B2738E" offset="50%"></stop>
            <stop stop-color="#577783" stop-opacity="1" offset="100%"></stop>
        </linearGradient>
    </defs>
    <g id="favicon" stroke="none" fill-rule="evenodd">
        <polygon fill="url(#gradient-logo-favicon)" opacity="0.5" points="234 0 260 26 260 234 234 260 26 260 0 234 0 26 26 0"></polygon>
        <polygon fill="url(#gradient-logo-favicon)" points="224 26 36 26 26 36 26 224 36 234 224 234 234 224 234 36"></polygon>
        <path d="M204.821316,124.499555 C204.939787,126.292728 205,128.126191 205,130 C205,174.25 171.421356,196 130,196 C88.5786438,196 55,174.25 55,130 C55,85.75 88.5786438,64 130,64 C164.799862,64 194.064022,79.3520251 202.530899,110.50083 L162.714981,110.49972 C156.290901,99.4562211 144.047465,94 130,94 C109.289322,94 92.5,105.86 92.5,130 C92.5,154.14 109.289322,166 130,166 C145.265724,166 158.400943,159.556366 164.252432,146.500902 L133,146.5 L133,124.5 Z" fill="#FFFFFF"></path>
    </g>
</svg>