<?xml version="1.0" encoding="UTF-8"?>
<svg width="1950" height="1950" viewBox="0 0 260 260" version="1.1" xmlns="http://www.w3.org/2000/svg" xmlns:xlink="http://www.w3.org/1999/xlink">
    <title>2023-03-02-logo-ios</title>
    <defs>
        <radialGradient cx="-4.51028104e-15%" cy="0%" fx="-4.51028104e-15%" fy="0%" r="141.421356%" id="gradient-logo-ios">
            <stop stop-color="#D19487" offset="0%"></stop>
            <stop stop-color="#B2738E" offset="50%"></stop>
            <stop stop-color="#577783" stop-opacity="1" offset="100%"></stop>
        </radialGradient>
    </defs>
    <g id="ios" stroke="none" fill-rule="evenodd">
        <rect fill="url(#gradient-logo-ios)" x="0" y="0" width="260" height="260"></rect>
        <path d="M140,30 L230,120 L230,140 L142,230 L120,230 L30,140 L30,120 L120,30 L140,30 Z M130,86 C102.385763,86 80,100.5 80,130 C80,159.205 102.385763,174 130,174 C157.614237,174 180,159.5 180,130 C180,128.750794 179.959858,127.528485 179.880878,126.333037 L132,126.333333 L132,141 L152.834761,140.999994 C148.933672,149.703069 140.176981,154 130,154 C116.192881,154 105,145.93 105,130 C105,113.909091 116.192881,106 130,106 C139.36455,106 147.526524,109.638265 151.809403,116.999885 L178.354023,117.000885 C172.709555,96.2347923 153.200031,86 130,86 Z" fill="#FFFFFF" opacity="0.5"></path>
        <path d="M134.201,44 L216,125.799 L216,134.292 L136.107,216 L125.799,216 L44,134.201 L44,125.798 L125.798,44 L134.201,44 Z M130,86 C102.385763,86 80,100.5 80,130 C80,159.205 102.385763,174 130,174 C157.614237,174 180,159.5 180,130 C180,128.750794 179.959858,127.528485 179.880878,126.333037 L132,126.333333 L132,141 L152.834761,140.999994 C148.933672,149.703069 140.176981,154 130,154 C116.192881,154 105,145.93 105,130 C105,113.909091 116.192881,106 130,106 C139.36455,106 147.526524,109.638265 151.809403,116.999885 L178.354023,117.000885 C172.709555,96.2347923 153.200031,86 130,86 Z" fill="#FFFFFF"></path>
    </g>
</svg>