<?xml version="1.0" encoding="UTF-8"?>
<svg width="2400" height="1260" viewBox="0 0 1200 630" version="1.1" xmlns="http://www.w3.org/2000/svg" xmlns:xlink="http://www.w3.org/1999/xlink">
    <title>2023-03-02-logo-graphic</title>
    <g id="graphic" stroke="none" stroke-width="1" fill="none" fill-rule="evenodd">
        <rect id="background" fill="#F2D6D9" x="0" y="0" width="1200" height="630"></rect>
        <g stroke="#FFFFFF" stroke-width="4" fill-opacity="0.8" fill="#FFFFFF" stroke-linecap="round" stroke-linejoin="round">
            <path d="M127.348585,160.869648 C127.708349,160.709497 128.2874,160.707609 128.651405,160.869648 L135.299155,163.828927 C136.384177,164.311931 137.166905,163.737122 137.047495,162.545744 L136.315702,155.244485 C136.276099,154.849354 136.453258,154.292451 136.718296,153.992807 L141.558624,148.520483 C142.348646,147.62731 142.049359,146.697683 140.890818,146.444249 L133.790795,144.891102 C133.406555,144.807049 132.936994,144.464752 132.736791,144.117523 L129.080529,137.776161 C128.483766,136.741146 127.51607,136.741413 126.919461,137.776161 L123.263199,144.117523 C123.065329,144.460705 122.597966,144.806058 122.209195,144.891102 L115.109172,146.444249 C113.950332,146.697748 113.651549,147.62754 114.441366,148.520483 L119.281694,153.992807 C119.543644,154.288959 119.724358,154.844695 119.684288,155.244485 L118.952495,162.545744 C118.833054,163.73743 119.616093,164.311806 120.700835,163.828927 L127.348585,160.869648 Z"></path>
            <path d="M1090.08085,660.159601 C1090.86462,659.809642 1092.12612,659.805516 1092.91913,660.159601 L1107.40173,666.626175 C1109.76553,667.681626 1111.47076,666.425564 1111.21061,663.822182 L1109.61635,647.867578 C1109.53007,647.004145 1109.91603,645.787207 1110.49343,645.13243 L1121.03843,633.174389 C1122.75955,631.22264 1122.10753,629.191232 1119.58357,628.637433 L1104.11566,625.243519 C1103.27857,625.059847 1102.25559,624.311865 1101.81944,623.553105 L1093.85401,609.696055 C1092.55392,607.434356 1090.44572,607.43494 1089.14597,609.696055 L1081.18054,623.553105 C1080.74947,624.303023 1079.73128,625.057681 1078.88432,625.243519 L1063.41641,628.637433 C1060.89179,629.191375 1060.24087,631.223143 1061.96155,633.174389 L1072.50655,645.13243 C1073.07722,645.779577 1073.47092,646.993964 1073.38363,647.867578 L1071.78936,663.822182 C1071.52915,666.426236 1073.23506,667.681354 1075.59825,666.626175 L1090.08085,660.159601 Z"></path>
            <path d="M1187.98874,254.665878 C1188.22635,254.620631 1188.57373,254.69965 1188.76975,254.846187 L1192.34947,257.522357 C1192.93374,257.959152 1193.48172,257.726373 1193.57336,257.002848 L1194.13497,252.568786 C1194.16536,252.328823 1194.34786,252.022859 1194.5478,251.881723 L1198.19918,249.304185 C1198.79515,248.883488 1198.7431,248.290399 1198.0833,247.979662 L1194.0398,246.075339 C1193.82098,245.97228 1193.58638,245.704164 1193.51394,245.470401 L1192.19089,241.201225 C1191.97495,240.504425 1191.39481,240.370655 1190.89539,240.902134 L1187.83476,244.159259 C1187.66913,244.335529 1187.34164,244.475788 1187.09693,244.47245 L1182.62786,244.411493 C1181.89843,244.401543 1181.59194,244.911958 1181.94307,245.551167 L1184.095,249.468504 C1184.21146,249.680503 1184.24365,250.035304 1184.16486,250.267005 L1182.72587,254.498507 C1182.491,255.189157 1182.88172,255.638381 1183.59815,255.501955 L1187.98874,254.665878 Z"></path>
            <path d="M31.5013808,468.209832 C31.7240438,468.010878 32.1418762,467.873623 32.4424593,467.904057 L37.9319373,468.459863 C38.8279106,468.55058 39.2597573,467.955852 38.8967034,467.131976 L36.6717584,462.082926 C36.5513485,461.809681 36.5499288,461.369884 36.6717584,461.093418 L38.8967034,456.044367 C39.2598511,455.220279 38.8276794,454.625787 37.9319373,454.716481 L32.4424593,455.272287 C32.145379,455.302366 31.7266691,455.167812 31.5013808,454.966512 L27.3869944,451.290221 C26.7154588,450.69019 26.0165152,450.917501 25.8259702,451.797429 L24.6582311,457.189986 C24.5950353,457.481821 24.3376781,457.838458 24.0766127,457.990515 L19.308837,460.767493 C18.5306575,461.220741 18.5308584,461.955719 19.308837,462.408851 L24.0766127,465.185828 C24.3346358,465.336113 24.5942902,465.691082 24.6582311,465.986358 L25.8259702,471.378915 C26.0165644,472.259069 26.7156321,472.485999 27.3869944,471.886123 L31.5013808,468.209832 Z"></path>
            <path d="M293.494602,527.370712 C294.348715,527.238771 295.579321,527.564257 296.260978,528.11196 L308.70992,538.114535 C310.741792,539.74712 312.72756,538.984233 313.145015,536.412062 L315.703353,520.648732 C315.841805,519.79565 316.531638,518.725855 317.263178,518.246811 L330.623127,509.498129 C332.803691,508.0702 332.691778,505.945877 330.374499,504.754009 L316.173251,497.449749 C315.404706,497.054456 314.600441,496.067801 314.3709,495.224032 L310.178861,479.814474 C309.494651,477.29938 307.439717,476.749364 305.590105,478.58492 L294.254913,489.833969 C293.641474,490.442747 292.454577,490.902755 291.581174,490.860322 L275.630402,490.085373 C273.026973,489.958889 271.868867,491.743282 273.043023,494.069586 L280.238737,508.326141 C280.628156,509.09768 280.698879,510.368635 280.388626,511.186179 L274.722546,526.116793 C273.797749,528.553715 275.136933,530.206546 277.712214,529.808725 L293.494602,527.370712 Z"></path>
            <path d="M515.654142,599.620906 C515.882993,599.401587 516.321185,599.240494 516.6412,599.261646 L522.48556,599.647928 C523.439456,599.710975 523.875567,599.064032 523.459882,598.203436 L520.912392,592.929343 C520.774527,592.643919 520.756727,592.177394 520.875733,591.879577 L523.049116,586.440629 C523.403848,585.552903 522.923334,584.938219 521.976404,585.06762 L516.173227,585.860644 C515.85917,585.903561 515.409977,585.776324 515.163512,585.571113 L510.662377,581.823375 C509.927717,581.211683 509.194632,581.478731 509.025082,582.419302 L507.986011,588.183509 C507.929779,588.495457 507.669962,588.883347 507.398632,589.054335 L502.443395,592.177055 C501.634618,592.686734 501.66206,593.466462 502.504202,593.918366 L507.665199,596.687819 C507.944503,596.837696 508.23312,597.204661 508.311894,597.51555 L509.750524,603.193234 C509.985332,604.119926 510.735378,604.334776 511.4254,603.673497 L515.654142,599.620906 Z"></path>
            <path d="M892.88608,364.025754 C893.457628,364.14952 894.156088,364.653545 894.453886,365.164831 L899.892491,374.502338 C900.78016,376.026373 902.219587,376.02598 903.107028,374.502338 L908.545633,365.164831 C908.83996,364.659503 909.535152,364.15098 910.113438,364.025754 L920.674557,361.738781 C922.398305,361.36551 922.842738,359.996412 921.667903,358.681575 L914.468028,350.623706 C914.078384,350.187629 913.809576,349.36932 913.869179,348.780639 L914.957704,338.029706 C915.135369,336.274976 913.970618,335.429221 912.357089,336.140248 L902.468716,340.497718 C901.933576,340.733537 901.072252,340.736317 900.530802,340.497718 L890.642429,336.140248 C889.028484,335.429038 887.864195,336.275429 888.041814,338.029706 L889.130339,348.780639 C889.189248,349.36246 888.925728,350.182487 888.53149,350.623706 L881.331615,358.681575 C880.156477,359.996752 880.601658,361.365606 882.324962,361.738781 L892.88608,364.025754 Z"></path>
            <path d="M653.857557,15.6386703 C654.117981,15.6077021 654.487738,15.7194445 654.688664,15.8927651 L658.358115,19.0580786 C658.957029,19.5747099 659.567331,19.3643796 659.721173,18.58874 L660.663978,13.8352993 C660.715001,13.5780519 660.935536,13.2609217 661.162463,13.1233894 L665.306778,10.6116697 C665.983198,10.2017157 665.971756,9.55628871 665.281618,9.17029079 L661.05217,6.80473565 C660.82328,6.67671621 660.589821,6.36897654 660.529144,6.11065632 L659.42102,1.39301468 C659.240156,0.623017856 658.622783,0.434452311 658.042413,0.971532076 L654.485665,4.26297934 C654.29318,4.44110634 653.928359,4.56804299 653.663932,4.54592459 L648.834759,4.14198142 C648.046559,4.07605124 647.676443,4.60493829 648.007892,5.32286976 L650.039149,9.72265118 C650.149077,9.96075916 650.157065,10.34695 650.054317,10.5916003 L648.177848,15.0595913 C647.871577,15.7888411 648.260206,16.3042768 649.045423,16.2109031 L653.857557,15.6386703 Z"></path>
            <path d="M1031.39511,186.101526 C1031.72918,185.953238 1032.26687,185.95149 1032.60488,186.101526 L1038.77779,188.8416 C1039.78531,189.288825 1040.51213,188.756595 1040.40125,187.653467 L1039.72172,180.893042 C1039.68495,180.52718 1039.84945,180.011529 1040.09556,179.734081 L1044.59015,174.667114 C1045.32374,173.840102 1045.04583,172.979336 1043.97005,172.744675 L1037.37717,171.306576 C1037.02037,171.228749 1036.58435,170.911807 1036.39845,170.590299 L1033.00335,164.718667 C1032.44921,163.760321 1031.55064,163.760568 1030.99664,164.718667 L1027.60154,170.590299 C1027.41781,170.90806 1026.98383,171.227831 1026.62282,171.306576 L1020.02995,172.744675 C1018.95388,172.979396 1018.67644,173.840315 1019.40984,174.667114 L1023.90443,179.734081 C1024.14767,180.008295 1024.31548,180.522866 1024.27827,180.893042 L1023.59875,187.653467 C1023.48784,188.75688 1024.21494,189.288709 1025.2222,188.8416 L1031.39511,186.101526 Z"></path>
        </g>
        <g stroke="#EDB9C0" stroke-width="4" fill-opacity="0.12" fill="#DD5064" stroke-linecap="round" stroke-linejoin="round">
            <polygon points="909.5 9 914.203125 25.796875 931 30.5 914.203125 35.203125 909.5 52 904.796875 35.203125 888 30.5 904.796875 25.796875"></polygon>
            <polygon points="262 248 267.90625 269.09375 289 275 267.90625 280.90625 262 302 256.09375 280.90625 235 275 256.09375 269.09375"></polygon>
            <polygon points="995 506 997.84375 516.15625 1008 519 997.84375 521.84375 995 532 992.15625 521.84375 982 519 992.15625 516.15625"></polygon>
            <polygon points="100 594 107.4375 620.5625 134 628 107.4375 635.4375 100 662 92.5625 635.4375 66 628 92.5625 620.5625"></polygon>
        </g>
        <g stroke="#DEC54B" stroke-width="4" fill="#F5E698" opacity="0.5">
            <circle cx="789" cy="609" r="11"></circle>
            <circle cx="59" cy="324" r="11"></circle>
            <circle cx="1061" cy="392" r="11"></circle>
            <circle cx="1149" cy="97" r="11"></circle>
            <circle cx="465" cy="86" r="11"></circle>
        </g>
        <path d="M628,68 L848,287 L848,343 L628,564 L572,564 L352,343 L352,287 L572,68 L628,68 Z M600,216 C537.867966,216 487.5,248.625 487.5,315 C487.5,380.71125 537.867966,414 600,414 C662.132034,414 712.5,381.375 712.5,315 C712.5,312.189193 712.409675,309.438911 712.231957,306.749066 L604.5,306.75 L604.5,339.75 L651.3773,339.752023 C642.599397,359.332576 622.897413,369 600,369 C568.933983,369 543.75,350.8425 543.75,315 C543.75,278.795455 568.933983,261 600,261 C621.070345,261 639.434865,269.186179 649.071302,285.749992 L708.796081,285.750258 C696.095414,239.027713 652.199425,216 600,216 Z" fill="#FFFFFF" opacity="0.495512463"></path>
        <path d="M612.311,106 L810,302.791 L810,327.309 L612.208,526 L587.791,526 L390,327.31 L390,302.79 L587.688,106 L612.311,106 Z M600,216 C537.867966,216 487.5,248.625 487.5,315 C487.5,380.71125 537.867966,414 600,414 C662.132034,414 712.5,381.375 712.5,315 C712.5,312.189193 712.409675,309.438911 712.231957,306.749066 L604.5,306.75 L604.5,339.75 L651.3773,339.752023 C642.599397,359.332576 622.897413,369 600,369 C568.933983,369 543.75,350.8425 543.75,315 C543.75,278.795455 568.933983,261 600,261 C621.070345,261 639.434865,269.186179 649.071302,285.749992 L708.796081,285.750258 C696.095414,239.027713 652.199425,216 600,216 Z" fill="#FFFFFF"></path>
        <path d="M712.5,315 C712.5,381.375 662.132034,414 600,414 C537.867966,414 487.5,380.71125 487.5,315 C487.5,248.625 537.867966,216 600,216 C652.199425,216 696.095414,239.027713 708.796081,285.750258 L649.071302,285.749992 C639.434865,269.186179 621.070345,261 600,261 C568.933983,261 543.75,278.795455 543.75,315 C543.75,350.8425 568.933983,369 600,369 C622.897413,369 642.599397,359.332576 651.3773,339.752023 L604.5,339.75 L604.5,306.75 L712.231957,306.749066 C712.409675,309.438911 712.5,312.189193 712.5,315 Z" fill="#483830" opacity="0.5" style="mix-blend-mode: overlay;"></path>
    </g>
</svg>