<svg xmlns="http://www.w3.org/2000/svg" version="1.2" baseProfile="tiny" x="0" y="0" viewBox="0 0 23.4 12.7" xml:space="preserve"><text transform="matrix(1 0 0 1 7.1079 13.5215)" opacity="0">x</text><path fill="#FFFFFF" d="M21 12.7c-2 0-3.5-0.2-4.5-0.7 -1-0.5-1.7-1.2-2.1-2.4 -0.4 0.5-0.8 0.9-1.2 1.2s-0.9 0.4-1.5 0.4c-0.8 0-1.6-0.3-2.2-1S8.6 8.8 8.6 7.9c0-0.8 0.2-1.7 0.7-2.8l1.1 0.5c-0.2 0.4-0.3 0.8-0.3 1.1 0 0.5 0.1 0.9 0.3 1.1s0.6 0.4 1 0.4 0.8-0.2 1.1-0.5 0.5-0.7 0.5-1.2c0-1-0.5-1.9-1.5-2.7S9.5 2.6 8.2 2.6C6.9 2.6 5.7 3.1 4.8 4s-1.4 2-1.4 3.2c0 1.3 0.4 2.3 1.1 3.1s1.7 1.2 3 1.3v1.2H7.1c-2.1 0-3.9-0.5-5.2-1.6S0 8.6 0 6.9c0-1.7 0.6-3.2 1.9-4.4 1.3-1.2 2.8-1.8 4.6-1.8 2.1 0 4.3 0.9 6.7 2.7L13.9 4c1.4 1.1 2.5 1.7 3.3 1.7 0.4 0 0.8-0.2 1.1-0.5 0.3-0.3 0.5-0.7 0.5-1.1 0-0.5-0.2-1-0.6-1.3 -0.4-0.4-0.9-0.6-1.5-0.6 -0.7 0-1.4 0.4-2.1 1.1l-0.9-0.8c1-1.6 2.5-2.4 4.4-2.4 1.2 0 2.3 0.3 3.1 1s1.2 1.6 1.2 2.7c0 0.8-0.3 1.4-0.8 2s-1.2 0.9-2.1 1.1c1 0.4 1.6 1.3 2.1 2.6l0.2 0.6c0.2 0.6 0.4 1.1 0.7 1.3s0.6 0.3 1 0.3v1.2H21zM19.8 11.7c-0.6-0.2-1.1-0.7-1.5-1.4l-0.2-0.3c-1-1.7-2-2.6-3.1-2.9C15.2 10.1 16.9 11.7 19.8 11.7z"/></svg>