<svg xmlns="http://www.w3.org/2000/svg" version="1.2" baseProfile="tiny" x="0" y="0" viewBox="0 0 23.4 12.7" xml:space="preserve"><text transform="matrix(1 0 0 1 7.1079 13.5215)" opacity="0">x</text><path fill="#FFFFFF" d="M0 12.7v-1.2c0.4 0 0.8-0.1 1-0.3s0.5-0.7 0.7-1.3l0.2-0.6C2.3 8 3 7.2 3.9 6.8 3 6.6 2.3 6.3 1.8 5.7S1 4.5 1 3.7c0-1.1 0.4-2 1.2-2.7S4 0 5.3 0c1.9 0 3.3 0.8 4.4 2.4L8.7 3.2C8.1 2.5 7.4 2.1 6.7 2.1c-0.6 0-1.1 0.2-1.5 0.6C4.8 3.1 4.6 3.5 4.6 4c0 0.4 0.2 0.8 0.5 1.1 0.3 0.3 0.7 0.5 1.1 0.5C7 5.7 8.1 5.1 9.5 4l0.7-0.6c2.3-1.8 4.5-2.7 6.7-2.7 1.8 0 3.4 0.6 4.6 1.8 1.3 1.2 1.9 2.7 1.9 4.4 0 1.8-0.7 3.2-2 4.2s-3 1.6-5.2 1.6h-0.4v-1.2c1.3-0.1 2.3-0.5 3-1.3S20 8.4 20 7.2c0-1.2-0.5-2.3-1.4-3.2s-2.1-1.3-3.4-1.3c-1.3 0-2.4 0.4-3.4 1.2s-1.5 1.7-1.5 2.7c0 0.5 0.2 0.9 0.5 1.2s0.7 0.5 1.1 0.5 0.8-0.1 1-0.4 0.3-0.6 0.3-1.1c0-0.3-0.1-0.7-0.3-1.1l1.1-0.5c0.5 1.1 0.7 2 0.7 2.8 0 0.9-0.3 1.7-0.9 2.4s-1.3 1-2.2 1c-0.5 0-1-0.1-1.5-0.4S9.4 10.2 9 9.7c-0.5 1.1-1.2 1.9-2.1 2.4 -1 0.5-2.5 0.7-4.5 0.7H0zM8.4 7C7.3 7.2 6.2 8.2 5.3 9.9l-0.2 0.3c-0.4 0.7-0.9 1.2-1.5 1.4C6.6 11.7 8.2 10.1 8.4 7z"/></svg>