<svg xmlns="http://www.w3.org/2000/svg" version="1.2" baseProfile="tiny" x="0" y="0" viewBox="-40 45 80 80" width="80" height="80" xml:space="preserve"><text transform="matrix(1 0 0 1 7.1079 13.5215)" opacity="0">x</text><path fill="#21759B" d="M-34.3 85c0 13.6 7.9 25.3 19.3 30.9l-16.4-44.8C-33.2 75.3-34.3 80.1-34.3 85zM23.2 83.3c0-4.2-1.5-7.2-2.8-9.5 -1.7-2.8-3.4-5.2-3.4-8 0-3.2 2.4-6.1 5.8-6.1 0.2 0 0.3 0 0.4 0 -6.1-5.6-14.2-9-23.2-9 -12 0-22.5 6.1-28.7 15.5 0.8 0 1.6 0 2.2 0 3.6 0 9.1-0.4 9.1-0.4 1.9-0.1 2.1 2.6 0.2 2.8 0 0-1.9 0.2-3.9 0.3l12.5 37.2L-1 83.6 -6.3 69c-1.9-0.1-3.6-0.3-3.6-0.3 -1.9-0.1-1.6-2.9 0.2-2.8 0 0 5.7 0.4 9 0.4 3.6 0 9.1-0.4 9.1-0.4 1.8-0.1 2.1 2.6 0.2 2.8 0 0-1.9 0.2-3.9 0.3l12.4 36.9 3.4-11.4C22 89.7 23.2 86.2 23.2 83.3zM0.6 88l-10.3 30c3.1 0.9 6.3 1.4 9.7 1.4 4 0 7.8-0.7 11.4-1.9 -0.1-0.1-0.2-0.3-0.2-0.5L0.6 88zM30.1 68.6c0.1 1.1 0.2 2.3 0.2 3.5 0 3.5-0.7 7.4-2.6 12.3l-10.5 30.3c10.2-6 17.1-17 17.1-29.7C34.3 79.1 32.8 73.5 30.1 68.6zM0 45c-22.1 0-40 18-40 40 0 22.1 17.9 40 40 40s40-17.9 40-40C40 63 22.1 45 0 45zM0 123.2c-21 0-38.2-17.1-38.2-38.2S-21 46.9 0 46.9 38.2 64 38.2 85 21 123.2 0 123.2z"/></svg>