<svg viewBox="0 0 200 125" width="200" height="125" xmlns="http://www.w3.org/2000/svg" xmlns:xlink="http://www.w3.org/1999/xlink">
	<rect fill="#EBEBEB" x="0" y="0" width="100%" height="100%"/>
	<g fill="#FFFFFF">
		<rect x="40" y="32.5" width="20" height="28" rx="2"/>
		<rect x="65" y="32.5" width="20" height="28" rx="2"/>
		<rect x="90" y="32.5" width="20" height="28" rx="2"/>
		<rect x="115" y="32.5" width="20" height="28" rx="2"/>
		<rect x="140" y="32.5" width="20" height="28" rx="2"/>
		<rect x="40" y="65.5" width="20" height="28" rx="2"/>
		<rect x="65" y="65.5" width="20" height="28" rx="2"/>
		<rect x="90" y="65.5" width="20" height="28" rx="2"/>
		<rect x="115" y="65.5" width="20" height="28" rx="2"/>
		<rect x="140" y="65.5" width="20" height="28" rx="2"/>
	</g>
	<g fill="#F1F1F1">
		<rect x="43" y="35.5" width="14" height="22" rx="1"/>
		<rect x="93" y="35.5" width="14" height="22" rx="1"/>
		<rect x="118" y="35.5" width="14" height="22" rx="1"/>
		<rect x="143" y="35.5" width="14" height="22" rx="1"/>
		<rect x="43" y="68.5" width="14" height="22" rx="1"/>
		<rect x="68" y="68.5" width="14" height="22" rx="1"/>
		<rect x="93" y="68.5" width="14" height="22" rx="1"/>
		<rect x="143" y="68.5" width="14" height="22" rx="1"/>
	</g>
	<g fill="#F04F54">
		<rect x="68" y="35.5" width="14" height="22" rx="1"/>
		<rect x="118" y="68.5" width="14" height="22" rx="1"/>
	</g>
	<g fill="#FFFFFF">
		<circle cx="50" cy="46.5" r="4"/>
		<circle cx="75" cy="46.5" r="4"/>
		<circle cx="100" cy="46.5" r="4"/>
		<circle cx="125" cy="46.5" r="4"/>
		<circle cx="150" cy="46.5" r="4"/>
		<circle cx="50" cy="79.5" r="4"/>
		<circle cx="75" cy="79.5" r="4"/>
		<circle cx="100" cy="79.5" r="4"/>
		<circle cx="125" cy="79.5" r="4"/>
		<circle cx="150" cy="79.5" r="4"/>
	</g>
</svg>