<svg viewBox="0 0 200 125" width="200" height="125" xmlns="http://www.w3.org/2000/svg" xmlns:xlink="http://www.w3.org/1999/xlink">
	<rect fill="#E0D2C6" x="0" y="0" width="200" height="125"></rect>
	<rect fill="#ADA6AF" x="67" y="22" width="66" height="84" rx="2"></rect>
	<rect fill="#F5C8BF" x="70" y="25" width="60" height="6" rx="1"></rect>
	<rect fill="#683C35" x="70" y="43" width="18" height="18" rx="1"></rect>
	<rect fill="#DEC1A3" x="91" y="43" width="18" height="18" rx="1"></rect>
	<rect fill="#EDB06F" x="112" y="43" width="18" height="18" rx="1"></rect>
	<rect fill="#8FB946" x="70" y="64" width="18" height="18" rx="1"></rect>
	<rect fill="#B8B9BE" x="91" y="64" width="18" height="18" rx="1"></rect>
	<rect fill="#DBDBDF" x="112" y="64" width="18" height="18" rx="1"></rect>
	<rect fill="#546B79" x="70" y="85" width="18" height="18" rx="1"></rect>
	<rect fill="#3D4D26" x="91" y="85" width="18" height="18" rx="1"></rect>
	<rect fill="#7C4F78" x="112" y="85" width="18" height="18" rx="1"></rect>
	<rect fill="#886288" x="70" y="34" width="6" height="6" rx="1"></rect>
</svg>