<svg viewBox="0 0 200 125" width="200" height="125" xmlns="http://www.w3.org/2000/svg" xmlns:xlink="http://www.w3.org/1999/xlink">
	<defs>
		<radialGradient cx="50%" cy="100%" fx="50%" fy="100%" r="250%" gradientTransform="scale(1,0.4),rotate(-90)" id="lotus-gradient">
			<stop stop-color="#E9BABA" offset="0%"></stop>
			<stop stop-color="#FCFDF2" offset="100%"></stop>
		</radialGradient>
	</defs>
	<rect fill="#363A40" x="0" y="0" width="200" height="125"></rect>
	<g fill="url(#lotus-gradient)">
		<path d="M100,58 C105.333333,52.0304633 108,45.3637967 108,38 C108,30.6362033 105.333333,23.9695367 100,18 C94.6666667,23.9695367 92,30.6362033 92,38 C92,45.3637967 94.6666667,52.0304633 100,58 Z"></path>
		<path d="M100,106 C105.333333,100.030463 108,93.3637967 108,86 C108,78.6362033 105.333333,71.9695367 100,66 C94.6666667,71.9695367 92,78.6362033 92,86 C92,93.3637967 94.6666667,100.030463 100,106 Z" transform="translate(100, 86) scale(1, -1) translate(-100, -86)"></path>
		<path d="M120.78461,70 C126.117943,64.0304633 128.78461,57.3637967 128.78461,50 C128.78461,42.6362033 126.117943,35.9695367 120.78461,30 C115.451276,35.9695367 112.78461,42.6362033 112.78461,50 C112.78461,57.3637967 115.451276,64.0304633 120.78461,70 Z" transform="translate(120.784610, 50) rotate(-300) translate(-120.784610, -50)"></path>
		<path d="M79.2153903,94 C84.5487236,88.0304633 87.2153903,81.3637967 87.2153903,74 C87.2153903,66.6362033 84.5487236,59.9695367 79.2153903,54 C73.882057,59.9695367 71.2153903,66.6362033 71.2153903,74 C71.2153903,81.3637967 73.882057,88.0304633 79.2153903,94 Z" transform="translate(79.215390, 74) scale(1, -1) rotate(300) translate(-79.215390, -74)"></path>
		<path d="M120.78461,94 C126.117943,88.0304633 128.78461,81.3637967 128.78461,74 C128.78461,66.6362033 126.117943,59.9695367 120.78461,54 C115.451276,59.9695367 112.78461,66.6362033 112.78461,74 C112.78461,81.3637967 115.451276,88.0304633 120.78461,94 Z" transform="translate(120.784610, 74) rotate(-240) translate(-120.784610, -74)"></path>
		<path d="M79.2153903,70 C84.5487236,64.0304633 87.2153903,57.3637967 87.2153903,50 C87.2153903,42.6362033 84.5487236,35.9695367 79.2153903,30 C73.882057,35.9695367 71.2153903,42.6362033 71.2153903,50 C71.2153903,57.3637967 73.882057,64.0304633 79.2153903,70 Z" transform="translate(79.215390, 50)scale(1, -1) rotate(240) translate(-79.215390, -50)"></path>
	</g>
</svg>