<svg viewBox="0 0 200 125" xmlns="http://www.w3.org/2000/svg" xmlns:xlink="http://www.w3.org/1999/xlink">
	<defs>
		<linearGradient x1="50%" y1="0%" x2="50%" y2="100%" id="gradient-totem">
			<stop stop-color="#A3C4D0" offset="0%"></stop>
			<stop stop-color="#3E4F53" offset="100%"></stop>
		</linearGradient>
	</defs>
	<rect fill="url(#gradient-totem)" x="0" y="0" width="100%" height="100%"></rect>
	<g fill="#FEF440">
		<rect x="90.5" y="16.5" width="20" height="20" rx="2"></rect>
		<rect x="90.5" y="40.5" width="20" height="20" rx="2"></rect>
		<rect x="90.5" y="64.5" width="20" height="20" rx="2"></rect>
		<rect x="90.5" y="88.5" width="20" height="20" rx="2"></rect>
	</g>
	<g fill="#B5DAEA">
		<path d="M110.5,43.5 L95,43.5 C94.172,43.5 93.5,44.172 93.5,45 L93.5,60.5 L96.5,60.5 L96.5,47 C96.5,46.724 96.724,46.5 97,46.5 L110.5,46.5 L110.5,43.5 Z"></path>
		<path d="M110.5,49.5 L101,49.5 C100.172,49.5 99.5,50.172 99.5,51 L99.5,60.5 L102.5,60.5 L102.5,53 C102.5,52.724 102.724,52.5 103,52.5 L110.5,52.5 L110.5,49.5 Z"></path>
		<path d="M110.5,55.5 L107,55.5 C106.172,55.5 105.5,56.172 105.5,57 L105.5,60.5 L108.5,60.5 L108.5,59 C108.5,58.724 108.724,58.5 109,58.5 L110.5,58.5 L110.5,55.5 Z"></path>
	</g>
	<circle fill="#FFFFFF" cx="100.5" cy="26.5" r="7"></circle>
	<circle fill="#9F355A" cx="100.5" cy="26.5" r="4"></circle>
	<circle fill="#FFFEAE" cx="100.5" cy="74.5" r="6"></circle>
	<circle fill="#FDAA55" cx="100.5" cy="74.5" r="3"></circle>
	<circle fill="#FFFEAE" cx="100.5" cy="98.5" r="6"></circle>
	<circle fill="#FDAA55" cx="100.5" cy="98.5" r="3"></circle>
</svg>