<svg version="1.1" xmlns="http://www.w3.org/2000/svg" xmlns:xlink="http://www.w3.org/1999/xlink" viewBox="0 0 34.9297 21.9604">
 <g>
  <path d="M5.0625 21.9604L29.5132 21.9604C33.1021 21.9604 34.9697 19.6533 34.5059 15.8203L33.1875 4.82178C32.8213 1.70898 31.0269 0 28.1826 0L6.39307 0C3.54883 0 1.7544 1.70898 1.38819 4.82178L0.0698286 15.8203C-0.394039 19.6533 1.47364 21.9604 5.0625 21.9604ZM9.00538 14.5386C8.5293 14.5386 8.15088 14.3188 8.15088 14.0015L8.15088 10.4858C6.82032 10.0952 5.83155 8.87451 5.83155 7.42188C5.83155 5.68848 7.24756 4.26025 9.00538 4.26025C10.7388 4.26025 12.167 5.67627 12.167 7.42188C12.167 8.8623 11.1782 10.0952 9.85987 10.4492L9.85987 14.0015C9.85987 14.3188 9.46924 14.5386 9.00538 14.5386ZM9.00538 17.2119C6.4419 17.2119 4.63526 15.8447 4.63526 13.9038C4.63526 12.5366 5.51416 11.4624 6.93018 10.9375L6.93018 12.5854C6.45411 12.9028 6.17334 13.3545 6.17334 13.9038C6.17334 15.0513 7.33301 15.8569 9.00538 15.8569C10.6655 15.8569 11.813 15.0513 11.813 13.9038C11.813 13.3667 11.5444 12.915 11.0806 12.5977L11.0806 10.9375C12.4722 11.4746 13.3511 12.5366 13.3511 13.9038C13.3511 15.8447 11.5566 17.2119 9.00538 17.2119ZM16.354 10.1929C15.3408 10.1929 14.523 9.375 14.523 8.36182C14.523 7.33643 15.3408 6.51855 16.354 6.51855C17.3794 6.51855 18.1973 7.33643 18.1973 8.36182C18.1973 9.375 17.3794 10.1929 16.354 10.1929ZM21.6763 10.1929C20.6631 10.1929 19.8452 9.375 19.8452 8.36182C19.8452 7.33643 20.6631 6.51855 21.6763 6.51855C22.6895 6.51855 23.5195 7.33643 23.5195 8.36182C23.5195 9.375 22.6895 10.1929 21.6763 10.1929ZM26.9863 10.1929C25.9731 10.1929 25.1431 9.375 25.1431 8.36182C25.1431 7.33643 25.9731 6.51855 26.9863 6.51855C27.9873 6.51855 28.8174 7.33643 28.8174 8.36182C28.8174 9.375 27.9873 10.1929 26.9863 10.1929ZM18.1362 15.4907C17.1108 15.4907 16.293 14.6729 16.293 13.6597C16.293 12.6465 17.1108 11.8164 18.1362 11.8164C19.1372 11.8164 19.9551 12.6465 19.9551 13.6597C19.9551 14.6729 19.1372 15.4907 18.1362 15.4907ZM23.4463 15.4907C22.4331 15.4907 21.6152 14.6729 21.6152 13.6597C21.6152 12.6465 22.4331 11.8164 23.4463 11.8164C24.4595 11.8164 25.2896 12.6465 25.2896 13.6597C25.2896 14.6729 24.4595 15.4907 23.4463 15.4907ZM28.7564 15.4907C27.7432 15.4907 26.9253 14.6729 26.9253 13.6597C26.9253 12.6465 27.7432 11.8164 28.7564 11.8164C29.7817 11.8164 30.5996 12.6465 30.5996 13.6597C30.5996 14.6729 29.7817 15.4907 28.7564 15.4907Z" fill="white"/>
 </g>
</svg>
