
<svg version="1.1" xmlns="http://www.w3.org/2000/svg" xmlns:xlink="http://www.w3.org/1999/xlink" viewBox="0 0 20.8862 26.1597">
 <g>
  <path d="M7.2998 7.80029C6.84814 7.80029 6.46973 7.42188 6.46973 6.97021C6.46973 6.50635 6.84814 6.14014 7.2998 6.14014L16.7236 6.14014C17.1753 6.14014 17.5537 6.50635 17.5537 6.97021C17.5537 7.42188 17.1753 7.80029 16.7236 7.80029ZM7.2998 11.2671C6.84814 11.2671 6.46973 10.8887 6.46973 10.4248C6.46973 9.97314 6.84814 9.60693 7.2998 9.60693L14.4531 9.60693C14.917 9.60693 15.2832 9.97314 15.2832 10.4248C15.2832 10.8887 14.917 11.2671 14.4531 11.2671ZM3.74756 26.1597L19.5557 26.1597C20.0928 26.1597 20.5322 25.7324 20.5322 25.1831C20.5322 24.7559 20.2393 24.3774 19.8486 24.2432C18.3105 23.6328 17.9932 21.6431 19.5068 20.1172C19.9707 19.6533 20.5322 19.0552 20.5322 17.8345L20.5322 3.83301C20.5322 1.29395 19.2749 0 16.748 0L3.78418 0C1.25732 0 0 1.28174 0 3.83301L0 22.3877C0 24.9023 1.26953 26.1597 3.74756 26.1597ZM3.85742 24.1943C2.62451 24.1943 1.96533 23.5352 1.96533 22.3755C1.96533 21.2769 2.74658 20.5688 3.96729 20.5688L16.4917 20.5688C16.6504 20.5688 16.7969 20.5566 16.9189 20.5322C16.3452 21.8018 16.4429 23.1445 17.0898 24.1943ZM3.49121 18.7134C3.11279 18.7134 2.79541 18.396 2.79541 18.0054L2.79541 2.58789C2.79541 2.19727 3.11279 1.89209 3.49121 1.89209C3.86963 1.89209 4.19922 2.19727 4.19922 2.58789L4.19922 18.0054C4.19922 18.396 3.86963 18.7134 3.49121 18.7134Z" fill="white"/>
 </g>
</svg>
