<svg version="1.1" xmlns="http://www.w3.org/2000/svg" xmlns:xlink="http://www.w3.org/1999/xlink" viewBox="0 0 29.1382 22.4731">
 <g>
  <path d="M28.7842 3.78418L28.7842 18.7012C28.7842 21.2158 27.5146 22.4731 24.9512 22.4731L3.83301 22.4731C1.28174 22.4731 0 21.2158 0 18.7012L0 3.78418C0 1.26953 1.28174 0 3.83301 0L24.9512 0C27.5146 0 28.7842 1.26953 28.7842 3.78418ZM5.0415 5.96924C3.83301 5.96924 3.24707 6.55518 3.24707 7.73926L3.24707 14.7583C3.24707 15.9302 3.83301 16.5283 5.0415 16.5283L11.9995 16.5283C13.208 16.5283 13.8062 15.9302 13.8062 14.7583L13.8062 7.73926C13.8062 6.56738 13.208 5.96924 11.9995 5.96924ZM15.8325 11.2549C15.8325 14.3433 17.8955 16.394 20.9717 16.394C21.7773 16.394 22.5586 16.3086 23.0469 16.1133C23.3887 15.9668 23.5962 15.7593 23.5962 15.4297C23.5962 15.1123 23.3643 14.856 23.0347 14.856C22.9126 14.856 22.8027 14.8926 22.6318 14.917C22.2534 14.978 21.8994 15.1245 21.1182 15.1245C18.6646 15.1245 17.1631 13.6597 17.1631 11.2671C17.1631 8.92334 18.7012 7.31201 20.9351 7.31201C23.1567 7.31201 24.6582 8.71582 24.6582 10.8032C24.6582 12.0483 24.2798 12.8174 23.6816 12.8174C23.3032 12.8174 23.1567 12.6587 23.1567 12.3047L23.1567 9.17969C23.1567 8.80127 22.8882 8.5083 22.522 8.5083C22.2412 8.5083 21.9849 8.71582 21.9116 8.95996L21.9116 9.05762C21.6064 8.71582 21.1914 8.5083 20.5933 8.5083C19.2627 8.5083 18.3105 9.66797 18.3105 11.2671C18.3105 12.915 19.2627 14.0381 20.6299 14.0381C21.2402 14.0381 21.7651 13.7695 22.1313 13.2935C22.3999 13.7695 22.937 14.0381 23.5596 14.0381C24.9756 14.0381 25.9033 12.7319 25.9033 10.73C25.9033 7.9834 23.8525 6.0791 20.9351 6.0791C17.9077 6.0791 15.8325 8.17871 15.8325 11.2549ZM12.3413 15.3442L4.71191 15.3442C5.09033 14.209 6.49414 13.1592 8.53271 13.1592C10.5469 13.1592 11.9629 14.209 12.3413 15.3442ZM21.9482 11.2061C21.9482 12.1704 21.5088 12.7563 20.8252 12.7563C20.1416 12.7563 19.7266 12.1948 19.7266 11.2427C19.7266 10.3027 20.1538 9.75342 20.8374 9.75342C21.521 9.75342 21.9482 10.3027 21.9482 11.2061ZM10.498 10.1074C10.498 11.3281 9.61914 12.2681 8.52051 12.2681C7.42188 12.2681 6.55518 11.3281 6.55518 10.1074C6.55518 8.94775 7.42188 8.00781 8.52051 8.00781C9.61914 8.00781 10.498 8.94775 10.498 10.1074Z" fill="white"/>
 </g>
</svg>
