<svg version="1.1" xmlns="http://www.w3.org/2000/svg" xmlns:xlink="http://www.w3.org/1999/xlink" viewBox="0 0 21.5576 13.0005" width="21.5576" height="13.0005">
 <g>
  <path d="M10.6079 13.0005C10.9131 13.0005 11.2183 12.8784 11.4258 12.6465L20.874 2.96631C21.0815 2.75879 21.2036 2.49023 21.2036 2.18506C21.2036 1.55029 20.7275 1.06201 20.0928 1.06201C19.7876 1.06201 19.5068 1.18408 19.2993 1.37939L9.94873 10.9375L11.2549 10.9375L1.9043 1.37939C1.70898 1.18408 1.42822 1.06201 1.11084 1.06201C0.476074 1.06201 0 1.55029 0 2.18506C0 2.49023 0.12207 2.75879 0.32959 2.97852L9.77783 12.6465C10.0098 12.8784 10.2905 13.0005 10.6079 13.0005Z" fill="white"/>
 </g>
</svg>
