<svg version="1.1" xmlns="http://www.w3.org/2000/svg" xmlns:xlink="http://www.w3.org/1999/xlink" viewBox="0 0 14.7095 21.2036" width="14.7095" height="21.2036">
 <g>
  <path d="M14.7095 10.5957C14.7095 10.2905 14.5874 10.0098 14.3555 9.79004L4.6875 0.317383C4.46777 0.109863 4.19922 0 3.88184 0C3.25928 0 2.771 0.476074 2.771 1.11084C2.771 1.41602 2.89307 1.69678 3.08838 1.9043L11.9751 10.5957L3.08838 19.2871C2.89307 19.4946 2.771 19.7632 2.771 20.0806C2.771 20.7153 3.25928 21.1914 3.88184 21.1914C4.19922 21.1914 4.46777 21.0815 4.6875 20.8618L14.3555 11.4014C14.5874 11.1694 14.7095 10.9009 14.7095 10.5957Z" fill="white"/>
 </g>
</svg>
