<svg version="1.1" xmlns="http://www.w3.org/2000/svg" xmlns:xlink="http://www.w3.org/1999/xlink" viewBox="0 0 16.7871 27.0605" width="16.7871" height="27.0605">
 <g fill="white">
  <path d="M16.4258 6.91406L16.4258 21.7285C16.4258 23.7793 15.4199 24.7949 13.3984 24.7949L3.02734 24.7949C1.00586 24.7949 0 23.7793 0 21.7285L0 6.91406C0 4.86328 1.00586 3.84766 3.02734 3.84766L3.15794 3.84766C3.14873 3.93003 3.14453 4.01489 3.14453 4.10156L3.14453 5.12695C3.14453 6.35742 4.00391 7.22656 5.19531 7.22656L11.2305 7.22656C12.4219 7.22656 13.2812 6.35742 13.2812 5.12695L13.2812 4.10156C13.2812 4.01489 13.2771 3.93003 13.2678 3.84766L13.3984 3.84766C15.4199 3.84766 16.4258 4.86328 16.4258 6.91406ZM3.76953 18.3203C3.41797 18.3203 3.13477 18.6035 3.13477 18.9453C3.13477 19.2871 3.42773 19.5801 3.76953 19.5801L8.24219 19.5801C8.58398 19.5801 8.86719 19.2871 8.86719 18.9453C8.86719 18.6035 8.59375 18.3203 8.24219 18.3203ZM3.76953 14.5508C3.41797 14.5508 3.13477 14.8242 3.13477 15.1758C3.13477 15.5273 3.41797 15.8105 3.76953 15.8105L12.6562 15.8105C13.0078 15.8105 13.291 15.5273 13.291 15.1758C13.291 14.8242 13.0078 14.5508 12.6562 14.5508ZM3.76953 10.9668C3.42773 10.9668 3.13477 11.2598 3.13477 11.6113C3.13477 11.9531 3.42773 12.2363 3.76953 12.2363L12.6562 12.2363C12.998 12.2363 13.291 11.9531 13.291 11.6113C13.291 11.2598 12.998 10.9668 12.6562 10.9668Z"/>
  <path d="M10.332 3.13477L11.2305 3.13477C11.7969 3.13477 12.1387 3.49609 12.1387 4.10156L12.1387 5.12695C12.1387 5.73242 11.7969 6.09375 11.2305 6.09375L5.19531 6.09375C4.62891 6.09375 4.28711 5.73242 4.28711 5.12695L4.28711 4.10156C4.28711 3.49609 4.62891 3.13477 5.19531 3.13477L6.09375 3.13477C6.16211 2.03125 7.08008 1.13281 8.21289 1.13281C9.3457 1.13281 10.2637 2.03125 10.332 3.13477ZM7.36328 3.21289C7.36328 3.67188 7.74414 4.0625 8.21289 4.0625C8.68164 4.0625 9.0625 3.67188 9.0625 3.21289C9.0625 2.73438 8.68164 2.35352 8.21289 2.35352C7.74414 2.35352 7.36328 2.73438 7.36328 3.21289Z"/>
 </g>
</svg>
