<svg version="1.1" xmlns="http://www.w3.org/2000/svg" xmlns:xlink="http://www.w3.org/1999/xlink" viewBox="0 0 12.7949 12.3965">
 <g>
  <path d="M0.202159 12.1943C0.475597 12.46 0.928722 12.46 1.19435 12.1943L6.19435 7.19435L11.1943 12.1943C11.46 12.46 11.9209 12.4678 12.1865 12.1943C12.4522 11.9209 12.4522 11.4756 12.1865 11.21L7.18653 6.20216L12.1865 1.20216C12.4522 0.936534 12.46 0.483409 12.1865 0.217784C11.9131-0.0556534 11.46-0.0556534 11.1943 0.217784L6.19435 5.21778L1.19435 0.217784C0.928722-0.0556534 0.467784-0.0634659 0.202159 0.217784C-0.0634659 0.491222-0.0634659 0.936534 0.202159 1.20216L5.20216 6.20216L0.202159 11.21C-0.0634659 11.4756-0.0712784 11.9287 0.202159 12.1943Z" fill="white"/>
 </g>
</svg>
