<svg version="1.1" xmlns="http://www.w3.org/2000/svg" xmlns:xlink="http://www.w3.org/1999/xlink" viewBox="0 0 16.3828 19.6797" width="16.3828" height="19.6797">
 <g>
  <path d="M11.25 0.78125L15.1953 4.78906C15.7812 5.39062 15.9766 6 15.9766 6.96094L15.9766 13.3047C15.9766 14.9297 15.1641 15.7578 13.5547 15.7578L12.1875 15.7578L12.1875 14.5L13.4844 14.5C14.2969 14.5 14.7188 14.0625 14.7188 13.2812L14.7188 6.60156L11.0625 6.60156C10.1641 6.60156 9.72656 6.17188 9.72656 5.26562L9.72656 1.25781L6.27344 1.25781C5.46094 1.25781 5.04688 1.70312 5.04688 2.47656L5.04688 3.89844L3.78906 3.89844L3.78906 2.45312C3.78906 0.828125 4.60156 0 6.21094 0L9.20312 0C10.0391 0 10.6953 0.210938 11.25 0.78125ZM10.8594 5.07812C10.8594 5.35156 10.9688 5.46875 11.2422 5.46875L14.3906 5.46875L10.8594 1.875Z" fill="white"/>
  <path d="M0 17.2031C0 18.8359 0.804688 19.6562 2.42188 19.6562L9.76562 19.6562C11.3828 19.6562 12.1875 18.8281 12.1875 17.2031L12.1875 11.1016C12.1875 10.1016 12.0703 9.66406 11.4453 9.02344L7.14062 4.64062C6.54688 4.03125 6.05469 3.89844 5.17969 3.89844L2.42188 3.89844C0.8125 3.89844 0 4.71875 0 6.35156ZM1.25781 17.1797L1.25781 6.36719C1.25781 5.60156 1.67188 5.15625 2.48438 5.15625L5.04688 5.15625L5.04688 9.6875C5.04688 10.6719 5.54688 11.1641 6.51562 11.1641L10.9297 11.1641L10.9297 17.1797C10.9297 17.9609 10.5078 18.3984 9.70312 18.3984L2.47656 18.3984C1.67188 18.3984 1.25781 17.9609 1.25781 17.1797ZM6.66406 9.98438C6.35156 9.98438 6.22656 9.85938 6.22656 9.54688L6.22656 5.44531L10.6875 9.98438Z" fill="white"/>
 </g>
</svg>