<svg version="1.1" xmlns="http://www.w3.org/2000/svg" xmlns:xlink="http://www.w3.org/1999/xlink" viewBox="0 0 16.9375 16.3828" width="16.9375" height="16.3828">
 <g fill="white">
  <path d="M3.789,2.421875 L3.789,3.617185 L5.0468,3.617185 L5.0468,2.492185 C5.0468,1.679685 5.4843,1.257815 6.2578,1.257815 L14.06245,1.257815 C14.8437,1.257815 15.27339,1.679685 15.27339,2.492185 L15.27339,10.257775 C15.27339,11.070275 14.8437,11.492175 14.06245,11.492175 L12.74214,11.492175 L12.74214,12.749975 L14.07808,12.749975 C15.7187,12.749975 16.5312,11.937475 16.5312,10.328175 L16.5312,2.421875 C16.5312,0.8125 15.7187,0 14.07808,0 L6.2343,0 C4.6093,0 3.789,0.8125 3.789,2.421875 Z"/>
  <path d="M2.45313,16.367175 L10.29684,16.367175 C11.92184,16.367175 12.74214,15.554675 12.74214,13.945275 L12.74214,6.039065 C12.74214,4.429685 11.92184,3.617185 10.29684,3.617185 L2.45313,3.617185 C0.8125,3.617185 0,4.421875 0,6.039065 L0,13.945275 C0,15.554675 0.8125,16.367175 2.45313,16.367175 Z M2.46875,15.109375 C1.69532,15.109375 1.25782,14.687475 1.25782,13.874975 L1.25782,6.109375 C1.25782,5.296875 1.69532,4.874995 2.46875,4.874995 L10.27344,4.874995 C11.04684,4.874995 11.48434,5.296875 11.48434,6.109375 L11.48434,13.874975 C11.48434,14.687475 11.04684,15.109375 10.27344,15.109375 L2.46875,15.109375 Z"/>
 </g>
</svg>