<svg version="1.1" xmlns="http://www.w3.org/2000/svg" xmlns:xlink="http://www.w3.org/1999/xlink" viewBox="0 0 13.5469 21.6484">
 <g fill="white">
  <path d="M13.1406 5.53906L13.1406 17.3828C13.1406 19.0234 12.3359 19.8359 10.7188 19.8359L2.42188 19.8359C0.804688 19.8359 0 19.0234 0 17.3828L0 5.53906C0 3.89844 0.804688 3.08594 2.42188 3.08594L2.5253 3.08594C2.51872 3.14945 2.51562 3.21468 2.51562 3.28125L2.51562 4.10156C2.51562 4.18473 2.52053 4.26583 2.53183 4.34375L2.48438 4.34375C1.67188 4.34375 1.25781 4.78125 1.25781 5.55469L1.25781 17.3672C1.25781 18.1484 1.67188 18.5781 2.48438 18.5781L10.6562 18.5781C11.4688 18.5781 11.8828 18.1484 11.8828 17.3672L11.8828 5.55469C11.8828 4.78125 11.4688 4.34375 10.6562 4.34375L10.6088 4.34375C10.6201 4.26583 10.625 4.18473 10.625 4.10156L10.625 3.28125C10.625 3.21468 10.6219 3.14945 10.6153 3.08594L10.7188 3.08594C12.3359 3.08594 13.1406 3.89844 13.1406 5.53906Z"/>
  <path d="M4.15625 4.875L8.98438 4.875C9.4375 4.875 9.71094 4.58594 9.71094 4.10156L9.71094 3.28125C9.71094 2.79688 9.4375 2.50781 8.98438 2.50781L8.26562 2.50781C8.21094 1.625 7.47656 0.90625 6.57031 0.90625C5.66406 0.90625 4.92969 1.625 4.875 2.50781L4.15625 2.50781C3.70312 2.50781 3.42969 2.79688 3.42969 3.28125L3.42969 4.10156C3.42969 4.58594 3.70312 4.875 4.15625 4.875ZM6.57031 3.25C6.19531 3.25 5.89062 2.9375 5.89062 2.57031C5.89062 2.1875 6.19531 1.88281 6.57031 1.88281C6.94531 1.88281 7.25 2.1875 7.25 2.57031C7.25 2.9375 6.94531 3.25 6.57031 3.25Z"/>
  <path d="M3.125 14.9297L6.59375 14.9297C6.85938 14.9297 7.07812 14.7109 7.07812 14.4453C7.07812 14.1797 6.86719 13.9609 6.59375 13.9609L3.125 13.9609C2.85156 13.9609 2.63281 14.1797 2.63281 14.4453C2.63281 14.7109 2.85938 14.9297 3.125 14.9297Z"/>
  <path d="M3.125 12.0078L10.0156 12.0078C10.2891 12.0078 10.5078 11.7891 10.5078 11.5156C10.5078 11.25 10.2891 11.0391 10.0156 11.0391L3.125 11.0391C2.85156 11.0391 2.63281 11.25 2.63281 11.5156C2.63281 11.7891 2.85156 12.0078 3.125 12.0078Z"/>
  <path d="M3.125 9.23438L10.0156 9.23438C10.2812 9.23438 10.5078 9.01562 10.5078 8.75C10.5078 8.48438 10.2812 8.25781 10.0156 8.25781L3.125 8.25781C2.85938 8.25781 2.63281 8.48438 2.63281 8.75C2.63281 9.01562 2.85938 9.23438 3.125 9.23438Z"/>
 </g>
</svg>
