<svg version="1.1" xmlns="http://www.w3.org/2000/svg" xmlns:xlink="http://www.w3.org/1999/xlink" viewBox="0 0 20.8862 26.1841">
 <g>
  <path d="M9.38721 8.95996C9.38721 10.5225 10.1318 11.2671 11.6943 11.2671L20.5322 11.2671L20.5322 22.3511C20.5322 24.8901 19.2749 26.1719 16.748 26.1719L3.78418 26.1719C1.25732 26.1719 0 24.9023 0 22.3511L0 3.83301C0 1.29395 1.26953 0 3.78418 0L9.38721 0ZM9.375 14.3799L9.375 18.7012L9.44824 20.6177L8.42285 19.5801L7.36084 18.4937C7.18994 18.3228 6.9458 18.2251 6.72607 18.2251C6.23779 18.2251 5.896 18.5669 5.896 19.0308C5.896 19.2993 6.00586 19.5068 6.18896 19.6655L9.60693 22.8149C9.85107 23.0347 10.0464 23.1201 10.2661 23.1201C10.4858 23.1201 10.6812 23.0347 10.9253 22.8149L14.3433 19.6655C14.5264 19.5068 14.6362 19.2993 14.6362 19.0308C14.6362 18.5669 14.2822 18.2251 13.8062 18.2251C13.5742 18.2251 13.3423 18.3228 13.1714 18.4937L12.1094 19.5801L11.084 20.6177L11.1694 18.7012L11.1694 14.3799C11.1694 13.9038 10.7544 13.5132 10.2661 13.5132C9.77783 13.5132 9.375 13.9038 9.375 14.3799ZM12.6465 1.15967L19.3726 8.00781C19.9585 8.60596 20.3125 9.09424 20.3857 9.59473L11.731 9.59473C11.2793 9.59473 11.0596 9.375 11.0596 8.93555L11.0596 0.134277C11.5723 0.219727 12.0728 0.57373 12.6465 1.15967Z" fill="white"/>
 </g>
</svg>
