<svg version="1.1" xmlns="http://www.w3.org/2000/svg" xmlns:xlink="http://www.w3.org/1999/xlink" viewBox="0 0 22.8271 22.4731">
 <g>
  <path d="M22.4731 3.78418L22.4731 18.7012C22.4731 21.2158 21.2036 22.4731 18.6401 22.4731L3.83301 22.4731C1.28174 22.4731 0 21.2158 0 18.7012L0 3.78418C0 1.26953 1.28174 0 3.83301 0L18.6401 0C21.2036 0 22.4731 1.26953 22.4731 3.78418ZM4.71191 12.1704L4.71191 16.6992C4.71191 17.4805 5.10254 17.7856 5.78613 17.7856L10.3027 17.7856C10.8154 17.7856 11.2183 17.3706 11.2183 16.8579C11.2183 16.3452 10.8154 15.9424 10.3027 15.9424L9.66797 15.9424L7.69043 16.0645L10.5957 13.2935C10.9741 12.9272 10.9863 12.2803 10.6079 11.9019C10.2295 11.5112 9.59473 11.499 9.21631 11.9141L6.43311 14.8438L6.55518 12.8052L6.55518 12.1704C6.55518 11.6577 6.14014 11.2549 5.62744 11.2549C5.11475 11.2549 4.71191 11.6577 4.71191 12.1704ZM12.1948 4.69971C11.6821 4.69971 11.2671 5.11475 11.2671 5.62744C11.2671 6.14014 11.6821 6.54297 12.1948 6.54297L12.8296 6.54297L14.8071 6.4209L11.8896 9.19189C11.5112 9.55811 11.499 10.2051 11.8774 10.5835C12.2681 10.9741 12.8906 10.9863 13.2812 10.5713L16.0645 7.6416L15.9424 9.68018L15.9424 10.3149C15.9424 10.8276 16.3452 11.2305 16.8579 11.2305C17.3706 11.2305 17.7856 10.8276 17.7856 10.3149L17.7856 5.78613C17.7856 5.00488 17.3828 4.69971 16.6992 4.69971Z" fill="white"/>
 </g>
</svg>
