<svg version="1.1" xmlns="http://www.w3.org/2000/svg" xmlns:xlink="http://www.w3.org/1999/xlink" viewBox="0 0 22.8271 22.4731" width="22.8271" height="22.4731">
 <g>
  <path d="M22.4731 3.78418L22.4731 18.7012C22.4731 21.2158 21.2036 22.4731 18.6401 22.4731L3.83301 22.4731C1.28174 22.4731 0 21.2158 0 18.7012L0 3.78418C0 1.26953 1.28174 0 3.83301 0L18.6401 0C21.2036 0 22.4731 1.26953 22.4731 3.78418ZM9.09424 6.37207C8.49609 6.37207 8.11768 6.73828 8.11768 7.2998C8.11768 7.84912 8.5083 8.21533 9.11865 8.21533L11.3892 8.21533L13.2568 8.02002L11.2915 9.85107L6.66504 14.4653C6.48193 14.6484 6.37207 14.9048 6.37207 15.1489C6.37207 15.7227 6.73828 16.0889 7.2876 16.0889C7.59277 16.0889 7.83691 15.979 8.02002 15.7959L12.6221 11.1816L14.4409 9.24072L14.2578 11.2061L14.2578 13.3667C14.2578 13.9648 14.624 14.3555 15.1855 14.3555C15.7349 14.3555 16.1133 13.9282 16.1133 13.3423L16.1133 7.40967C16.1133 6.66504 15.6982 6.37207 15.0513 6.37207Z" fill="white"/>
 </g>
</svg>
