<svg version="1.1" xmlns="http://www.w3.org/2000/svg" xmlns:xlink="http://www.w3.org/1999/xlink" viewBox="0 0 14.2734 20.8047">
 <g>
  <path d="M13.8672 8.64844L13.8672 16.3516C13.8672 17.9609 13.0469 18.7734 11.4141 18.7734L2.45312 18.7734C0.820312 18.7734 0 17.9688 0 16.3516L0 8.64844C0 7.03125 0.820312 6.22656 2.45312 6.22656L4.84375 6.22656L4.84375 7.48438L2.46875 7.48438C1.6875 7.48438 1.25781 7.89844 1.25781 8.71094L1.25781 16.2891C1.25781 17.1016 1.6875 17.5156 2.46875 17.5156L11.3906 17.5156C12.1641 17.5156 12.6094 17.1016 12.6094 16.2891L12.6094 8.71094C12.6094 7.89844 12.1641 7.48438 11.3906 7.48438L9.01562 7.48438L9.01562 6.22656L11.4141 6.22656C13.0469 6.22656 13.8672 7.03906 13.8672 8.64844Z" fill="white"/>
  <path d="M6.92969 12.6562C7.26562 12.6562 7.55469 12.3828 7.55469 12.0547L7.55469 4.10938L7.50781 2.94531L7.94531 3.40625L9.14844 4.69531C9.25781 4.82031 9.42188 4.88281 9.57031 4.88281C9.89844 4.88281 10.1406 4.64844 10.1406 4.33594C10.1406 4.16406 10.0781 4.03906 9.96094 3.92188L7.38281 1.4375C7.22656 1.28125 7.09375 1.23438 6.92969 1.23438C6.77344 1.23438 6.64062 1.28125 6.47656 1.4375L3.90625 3.92188C3.78906 4.03906 3.71875 4.16406 3.71875 4.33594C3.71875 4.64844 3.95312 4.88281 4.28125 4.88281C4.42969 4.88281 4.60156 4.82031 4.71094 4.69531L5.92188 3.40625L6.35938 2.94531L6.3125 4.10938L6.3125 12.0547C6.3125 12.3828 6.59375 12.6562 6.92969 12.6562Z" fill="white"/>
 </g>
</svg>
