<svg version="1.1" xmlns="http://www.w3.org/2000/svg" xmlns:xlink="http://www.w3.org/1999/xlink" viewBox="0 0 35.2783 26.9409">
 <g>
  <path d="M10.5957 5.33447C12.0728 5.33447 13.2568 4.15039 13.2568 2.68555C13.2568 1.2085 12.0728 0.0244141 10.5957 0.0244141C9.11865 0.0244141 7.93457 1.2085 7.93457 2.68555C7.93457 4.15039 9.11865 5.33447 10.5957 5.33447ZM24.3164 5.33447C25.7812 5.33447 26.9653 4.15039 26.9653 2.68555C26.9653 1.2085 25.7812 0.0244141 24.3164 0.0244141C22.8394 0.0244141 21.6553 1.2085 21.6553 2.68555C21.6553 4.15039 22.8394 5.33447 24.3164 5.33447ZM10.5835 16.7969C11.1084 16.7969 11.3281 17.1143 11.5967 18.0176C11.9751 19.2261 13.269 24.353 13.6353 25.8667C13.8184 26.6235 14.2212 26.9409 14.7949 26.9409C15.5762 26.9409 16.04 26.2329 15.8325 25.4639C15.7593 25.1343 13.9648 17.7368 13.7329 16.2109C13.501 14.6484 13.4766 11.2427 13.4888 10.2661C13.5132 9.42383 13.8916 9.021 14.6362 8.89893C15.3442 8.77686 16.4673 8.71582 17.4683 8.72803C18.5059 8.72803 19.5801 8.77686 20.3003 8.89893C21.0449 9.021 21.4233 9.42383 21.4355 10.2661C21.46 11.2427 21.4233 14.6484 21.167 16.2109C20.9229 17.7368 19.1528 25.1343 19.0552 25.4639C18.8477 26.2329 19.3359 26.9409 20.105 26.9409C20.6787 26.9409 21.0693 26.6235 21.2769 25.8667C21.6797 24.3652 22.937 19.2505 23.3276 18.0176C23.6206 17.1387 23.8159 16.7969 24.3164 16.7969C24.8291 16.7969 25.061 17.1143 25.3296 18.0176C25.6958 19.2261 27.002 24.353 27.3682 25.8667C27.5513 26.6235 27.9663 26.9409 28.5278 26.9409C29.3091 26.9409 29.7729 26.2329 29.5654 25.4639C29.48 25.1343 27.6978 17.7368 27.4536 16.2109C27.2217 14.6484 27.2217 11.2427 27.2339 10.1929C27.2339 9.46045 27.5513 8.99658 28.1616 8.8623C28.7354 8.72803 33.3984 8.22754 34.0454 8.02002C34.5581 7.86133 34.9243 7.43408 34.9243 6.87256C34.9243 6.16455 34.375 5.7373 33.8867 5.7373C33.6792 5.7373 33.4839 5.78613 33.252 5.83496C31.3599 6.17676 27.2461 6.50635 24.3164 6.61621C21.8262 6.68945 19.1772 6.75049 17.5171 6.75049C15.8325 6.75049 13.1226 6.68945 10.5835 6.61621C7.69043 6.53076 3.54004 6.20117 1.63574 5.83496C1.44043 5.78613 1.2207 5.7373 1.0376 5.7373C0.500488 5.7373 0 6.16455 0 6.87256C0 7.43408 0.341797 7.91016 0.866699 8.02002C1.53809 8.1665 6.17676 8.75244 6.75049 8.8623C7.33643 8.97217 7.69043 9.46045 7.71484 10.1929C7.72705 11.2427 7.69043 14.6484 7.43408 16.2109C7.18994 17.7368 5.41992 25.1343 5.33447 25.4639C5.11475 26.2329 5.60303 26.9409 6.37207 26.9409C6.9458 26.9409 7.34863 26.6235 7.55615 25.8667C7.95898 24.3652 9.2041 19.2505 9.60693 18.0176C9.8999 17.1387 10.083 16.7969 10.5835 16.7969Z" fill="white"/>
 </g>
</svg>
