<svg version="1.1" xmlns="http://www.w3.org/2000/svg" xmlns:xlink="http://www.w3.org/1999/xlink" viewBox="0 0 22.8271 22.4731" width="22.8271" height="22.4731">
 <g>
  <path d="M22.4731 3.78418L22.4731 18.7012C22.4731 21.2158 21.2036 22.4731 18.6401 22.4731L3.83301 22.4731C1.28174 22.4731 0 21.2158 0 18.7012L0 3.78418C0 1.26953 1.28174 0 3.83301 0L18.6401 0C21.2036 0 22.4731 1.26953 22.4731 3.78418ZM13.562 5.62744L13.0127 8.20312L10.6812 8.20312L11.1572 5.85938C11.2671 5.34668 10.9009 4.89502 10.3882 4.89502C9.87549 4.89502 9.55811 5.15137 9.46045 5.62744L8.93555 8.20312L7.60498 8.20312C7.1167 8.20312 6.75049 8.56934 6.75049 9.05762C6.75049 9.48486 7.05566 9.80225 7.48291 9.80225L8.58154 9.80225L8.05664 12.3535L6.71387 12.3535C6.21338 12.3535 5.85938 12.7197 5.85938 13.1958C5.85938 13.6353 6.16455 13.9404 6.57959 13.9404L7.72705 13.9404L7.20215 16.4185C7.10449 16.9434 7.48291 17.3828 8.00781 17.3828C8.49609 17.3828 8.80127 17.1265 8.89893 16.6626L9.47266 13.9526L11.8042 13.9526L11.2915 16.4185C11.1816 16.9434 11.5479 17.3828 12.0605 17.3828C12.5732 17.3828 12.9028 17.1265 13.0005 16.6626L13.562 13.9404L14.8682 13.9404C15.3687 13.9404 15.7227 13.5742 15.7227 13.0981C15.7227 12.6709 15.4175 12.3535 15.0024 12.3535L13.9038 12.3535L14.4409 9.80225L15.7593 9.80225C16.2598 9.80225 16.6138 9.43604 16.6138 8.94775C16.6138 8.52051 16.3086 8.20312 15.8936 8.20312L14.7705 8.20312L15.271 5.85938C15.3687 5.33447 14.9902 4.89502 14.4653 4.89502C13.9771 4.89502 13.6597 5.15137 13.562 5.62744ZM12.2192 12.5L9.69238 12.5L10.2783 9.66797L12.8174 9.66797Z" fill="white"/>
 </g>
</svg>
