<svg version="1.1" xmlns="http://www.w3.org/2000/svg" xmlns:xlink="http://www.w3.org/1999/xlink" viewBox="0 0 22.8271 22.4731">
 <g>
  <path d="M22.4731 3.78418L22.4731 18.7012C22.4731 21.2158 21.2036 22.4731 18.6401 22.4731L3.83301 22.4731C1.28174 22.4731 0 21.2158 0 18.7012L0 3.78418C0 1.26953 1.28174 0 3.83301 0L18.6401 0C21.2036 0 22.4731 1.26953 22.4731 3.78418ZM9.25293 8.97217C8.74023 8.97217 8.3374 9.375 8.3374 9.86328C8.3374 10.3882 8.74023 10.7666 9.25293 10.7666L10.5957 10.7666L10.5957 16.5039L9.04541 16.5039C8.52051 16.5039 8.11768 16.9067 8.11768 17.395C8.11768 17.9199 8.52051 18.2983 9.04541 18.2983L14.1602 18.2983C14.6851 18.2983 15.0879 17.9199 15.0879 17.395C15.0879 16.9067 14.6851 16.5039 14.1602 16.5039L12.6099 16.5039L12.6099 10.1196C12.6099 9.43604 12.2681 8.97217 11.6211 8.97217ZM9.48486 5.23682C9.48486 6.16455 10.2173 6.89697 11.1328 6.89697C12.0483 6.89697 12.7686 6.16455 12.7686 5.23682C12.7686 4.30908 12.0483 3.57666 11.1328 3.57666C10.2173 3.57666 9.48486 4.30908 9.48486 5.23682Z" fill="white"/>
 </g>
</svg>