<svg class="icon" viewBox="0 0 100 100" width="25" height="25" version="1.1" xmlns="http://www.w3.org/2000/svg" xmlns:xlink="http://www.w3.org/1999/xlink">
    <g stroke="#fff" stroke-width="7px" fill="none" stroke-linecap="round" stroke-linejoin="round">
        <path d="M50.0000794,10 C39.1366522,10 37.7744765,10.0460463 33.5080512,10.2407109 C29.2505175,10.4348991 26.3427748,11.1111442 23.7984801,12.1000276 C21.1681265,13.1220961 18.9374227,14.4898291 16.7135465,16.7135465 C14.4898291,18.9374227 13.1220961,21.1681265 12.1000276,23.7984801 C11.1111442,26.3427748 10.4348991,29.2505175 10.2407109,33.5080512 C10.0460463,37.7744765 10,39.1366522 10,50.0000794 C10,60.8633478 10.0460463,62.2255235 10.2407109,66.4919488 C10.4348991,70.7494825 11.1111442,73.6572252 12.1000276,76.2015199 C13.1220961,78.8318735 14.4898291,81.0625773 16.7135465,83.2864535 C18.9374227,85.5101709 21.1681265,86.8779039 23.7984801,87.9001312 C26.3427748,88.8888558 29.2505175,89.5651009 33.5080512,89.7592891 C37.7744765,89.9539537 39.1366522,90 50.0000794,90 C60.8633478,90 62.2255235,89.9539537 66.4919488,89.7592891 C70.7494825,89.5651009 73.6572252,88.8888558 76.2015199,87.9001312 C78.8318735,86.8779039 81.0625773,85.5101709 83.2864535,83.2864535 C85.5101709,81.0625773 86.8779039,78.8318735 87.9001312,76.2015199 C88.8888558,73.6572252 89.5651009,70.7494825 89.7592891,66.4919488 C89.9539537,62.2255235 90,60.8633478 90,50.0000794 C90,39.1366522 89.9539537,37.7744765 89.7592891,33.5080512 C89.5651009,29.2505175 88.8888558,26.3427748 87.9001312,23.7984801 C86.8779039,21.1681265 85.5101709,18.9374227 83.2864535,16.7135465 C81.0625773,14.4898291 78.8318735,13.1220961 76.2015199,12.1000276 C73.6572252,11.1111442 70.7494825,10.4348991 66.4919488,10.2407109 C62.2255235,10.0460463 60.8633478,10 50.0000794,10 Z"></path>
        <path d="M30,50.0000773 C30,61.045766 38.954234,70 50.0000773,70 C61.045766,70 70,61.045766 70,50.0000773 C70,38.954234 61.045766,30 50.0000773,30 C38.954234,30 30,38.954234 30,50.0000773 Z"></path>
    </g>
</svg>