<svg class="icon" viewBox="0 0 100 100" width="100" height="100" version="1.1" xmlns="http://www.w3.org/2000/svg" xmlns:xlink="http://www.w3.org/1999/xlink">
 <g fill="none" stroke="#fff" stroke-width="7px" stroke-linecap="round" stroke-linejoin="round">
  <path d="M50.0000715,14 C40.222987,14 38.9970288,14.0414416 35.157246,14.2166398 C31.3254658,14.3914092 28.7084973,15.0000298 26.4186321,15.8900248 C24.0513138,16.8098865 22.0436804,18.0408462 20.0421919,20.0421919 C18.0408462,22.0436804 16.8098865,24.0513138 15.8900248,26.4186321 C15.0000298,28.7084973 14.3914092,31.3254658 14.2166398,35.157246 C14.0414416,38.9970288 14,40.222987 14,50.0000715 C14,59.777013 14.0414416,61.0029712 14.2166398,64.842754 C14.3914092,68.6745342 15.0000298,71.2915027 15.8900248,73.5813679 C16.8098865,75.9486862 18.0408462,77.9563196 20.0421919,79.9578081 C22.0436804,81.9591538 24.0513138,83.1901135 26.4186321,84.1101181 C28.7084973,84.9999702 31.3254658,85.6085908 35.157246,85.7833602 C38.9970288,85.9585584 40.222987,86 50.0000715,86 C59.777013,86 61.0029712,85.9585584 64.842754,85.7833602 C68.6745342,85.6085908 71.2915027,84.9999702 73.5813679,84.1101181 C75.9486862,83.1901135 77.9563196,81.9591538 79.9578081,79.9578081 C81.9591538,77.9563196 83.1901135,75.9486862 84.1101181,73.5813679 C84.9999702,71.2915027 85.6085908,68.6745342 85.7833602,64.842754 C85.9585584,61.0029712 86,59.777013 86,50.0000715 C86,40.222987 85.9585584,38.9970288 85.7833602,35.157246 C85.6085908,31.3254658 84.9999702,28.7084973 84.1101181,26.4186321 C83.1901135,24.0513138 81.9591538,22.0436804 79.9578081,20.0421919 C77.9563196,18.0408462 75.9486862,16.8098865 73.5813679,15.8900248 C71.2915027,15.0000298 68.6745342,14.3914092 64.842754,14.2166398 C61.0029712,14.0414416 59.777013,14 50.0000715,14 Z"/>
  <path d="M32,50.0000696 C32,59.9411894 40.0588106,68 50.0000696,68 C59.9411894,68 68,59.9411894 68,50.0000696 C68,40.0588106 59.9411894,32 50.0000696,32 C40.0588106,32 32,40.0588106 32,50.0000696 Z"/>
 </g>
</svg>