<svg version="1.1" xmlns="http://www.w3.org/2000/svg" xmlns:xlink="http://www.w3.org/1999/xlink" viewBox="0 0 43.5 43.1484" width="43.5" height="43.1484">
 <g>
  <path d="M43.1484 7.26562L43.1484 35.9062C43.1484 40.7344 40.7109 43.1484 35.7891 43.1484L7.35938 43.1484C2.46094 43.1484 0 40.7344 0 35.9062L0 7.26562C0 2.4375 2.46094 0 7.35938 0L35.7891 0C40.7109 0 43.1484 2.4375 43.1484 7.26562ZM20.2969 11.2969C17.7188 15.8203 15.375 19.9688 12.7734 24.5156C12.4922 25.0078 12.375 25.5234 12.375 26.0391C12.375 27.2578 13.1953 28.0547 14.5312 28.0547L23.6016 28.0547L23.6016 30.5391C23.6016 31.8281 24.2578 32.5781 25.3594 32.5781C26.5078 32.5781 27.1875 31.8516 27.1875 30.5391L27.1875 28.0547L28.7812 28.0547C29.8594 28.0547 30.5156 27.3984 30.5156 26.3906C30.5156 25.4531 29.8594 24.8438 28.7812 24.8438L27.1875 24.8438L27.1875 19.6406C27.1875 18.3281 26.5078 17.6016 25.3594 17.6016C24.2578 17.6016 23.6016 18.3516 23.6016 19.6406L23.6016 24.8438L16.8984 24.8438C19.1016 20.7891 21.1641 17.1797 23.4141 13.0547C23.625 12.6562 23.7422 12.2812 23.7422 11.9062C23.7422 10.9453 23.1328 10.125 22.0312 10.125C21.2812 10.125 20.7422 10.5 20.2969 11.2969Z" fill="white"/>
 </g>
</svg>
