<svg version="1.1" xmlns="http://www.w3.org/2000/svg" xmlns:xlink="http://www.w3.org/1999/xlink" viewBox="0 0 43.5 43.1484">
 <g>
  <path d="M43.1484 7.26562L43.1484 35.9062C43.1484 40.7344 40.7109 43.1484 35.7891 43.1484L7.35938 43.1484C2.46094 43.1484 0 40.7344 0 35.9062L0 7.26562C0 2.4375 2.46094 0 7.35938 0L35.7891 0C40.7109 0 43.1484 2.4375 43.1484 7.26562ZM20.2266 10.9922L15.8672 13.9453C15.3516 14.3438 15.1172 14.6953 15.1172 15.3047C15.1172 16.0547 15.7266 16.7578 16.5 16.7578C16.875 16.7578 17.1328 16.7109 17.6953 16.3359L20.8125 14.2734L20.9766 14.2734L20.9766 30.8906C20.9766 32.25 21.6797 33.0703 22.8984 33.0703C24.1406 33.0703 24.8672 32.25 24.8672 30.8906L24.8672 12.2344C24.8672 10.8281 24.1172 10.0547 22.8047 10.0547C21.8906 10.0547 21.2578 10.2891 20.2266 10.9922Z" fill="white"/>
 </g>
</svg>
