<svg version="1.1" xmlns="http://www.w3.org/2000/svg" xmlns:xlink="http://www.w3.org/1999/xlink" viewBox="0 0 43.5 43.1484">
 <g>
  <path d="M43.1484 7.26562L43.1484 35.9062C43.1484 40.7344 40.7109 43.1484 35.7891 43.1484L7.35938 43.1484C2.46094 43.1484 0 40.7344 0 35.9062L0 7.26562C0 2.4375 2.46094 0 7.35938 0L35.7891 0C40.7109 0 43.1484 2.4375 43.1484 7.26562ZM17.4141 10.5938C15.8203 10.5938 14.7891 11.4844 14.6953 12.8906L14.0391 20.9062C13.9219 22.3125 14.7422 23.2266 16.0781 23.2266C16.9688 23.2266 17.5312 23.0391 18.4922 22.3125C19.6406 21.3281 20.5547 20.9531 21.7734 20.9531C24.3281 20.9531 26.0391 22.7344 26.0391 25.4062C26.0391 28.0547 24.0469 30.0234 21.375 30.0234C19.3828 30.0234 17.6953 29.0391 16.8984 27.4453C16.4766 26.6719 15.8906 26.2734 15.1875 26.2734C14.2031 26.2734 13.5469 26.9531 13.5469 27.8906C13.5469 28.3125 13.6406 28.6875 13.8281 29.0625C14.7656 31.5234 17.5781 33.0703 21.4453 33.0703C26.3438 33.0703 29.7422 30 29.7422 25.3125C29.7422 21.0469 26.6484 18.0703 22.2422 18.0703C20.25 18.0703 18.2344 18.9375 17.3672 20.1328L17.2031 20.1328L17.7656 13.5938L27.4219 13.5938C28.2422 13.5938 28.8516 12.9609 28.8516 12.0938C28.8516 11.2031 28.2656 10.5938 27.4219 10.5938Z" fill="white"/>
 </g>
</svg>
