<svg version="1.1" xmlns="http://www.w3.org/2000/svg" xmlns:xlink="http://www.w3.org/1999/xlink" viewBox="0 0 43.5 43.1484">
 <g>
  <path d="M43.1484 7.26562L43.1484 35.9062C43.1484 40.7344 40.7109 43.1484 35.7891 43.1484L7.35938 43.1484C2.46094 43.1484 0 40.7344 0 35.9062L0 7.26562C0 2.4375 2.46094 0 7.35938 0L35.7891 0C40.7109 0 43.1484 2.4375 43.1484 7.26562ZM14.4141 14.8359C14.2969 15.2109 14.2734 15.4922 14.2734 15.8203C14.2734 16.7578 14.9062 17.3672 15.8672 17.3672C16.7344 17.3672 17.1562 16.8281 17.5781 16.1484C18.2109 14.6953 19.5 13.1484 21.8203 13.1484C24.1172 13.1484 25.6641 14.4844 25.6641 16.4766C25.6641 18.2344 24.1641 19.7109 22.7344 21.2109L15.0234 29.4844C14.6016 29.9531 14.3672 30.4453 14.3672 30.9375C14.3672 31.9219 15.0234 32.5312 16.1016 32.5312L28.5234 32.5312C29.4844 32.5312 30.1641 31.9219 30.1641 30.9375C30.1641 29.9297 29.4844 29.3438 28.5234 29.3438L19.7344 29.3438L19.7344 29.1797L25.4531 23.0625C27.5859 20.7891 29.0859 18.8672 29.0859 16.1719C29.0859 12.5156 26.1328 10.0547 21.6562 10.0547C18.2344 10.0547 15.2109 12.1406 14.4141 14.8359Z" fill="white"/>
 </g>
</svg>
