<svg version="1.1" xmlns="http://www.w3.org/2000/svg" xmlns:xlink="http://www.w3.org/1999/xlink" viewBox="0 0 43.5 43.1484" width="43.5" height="43.1484">
 <g>
  <path d="M43.1484 7.26562L43.1484 35.9062C43.1484 40.7344 40.7109 43.1484 35.7891 43.1484L7.35938 43.1484C2.46094 43.1484 0 40.7344 0 35.9062L0 7.26562C0 2.4375 2.46094 0 7.35938 0L35.7891 0C40.7109 0 43.1484 2.4375 43.1484 7.26562ZM14.3203 14.7422C14.2266 15.0938 14.2031 15.3516 14.2031 15.7031C14.2031 16.6641 14.8828 17.3203 15.8438 17.3203C16.7109 17.3203 17.2266 16.8984 17.5312 16.0547C18.0469 14.25 19.5703 13.125 21.7969 13.125C24.2109 13.125 25.7109 14.3203 25.7109 16.2656C25.7109 18.2578 24.0234 19.7109 21.7266 19.7109L20.2031 19.7109C19.3359 19.7109 18.6797 20.3203 18.6797 21.2344C18.6797 22.0781 19.3359 22.7109 20.2031 22.7109L21.8438 22.7109C24.5625 22.7109 26.4609 24.2109 26.4609 26.3906C26.4609 28.5703 24.5625 29.9766 21.75 29.9766C19.1016 29.9766 17.6719 28.7109 17.0625 27.0469C16.7578 26.2031 16.2422 25.8047 15.3984 25.8047C14.4141 25.8047 13.7344 26.4844 13.7344 27.4688C13.7344 27.8203 13.7578 28.0312 13.8281 28.3828C14.5547 31.1719 17.6953 33.0703 21.6797 33.0703C26.8594 33.0703 30.0703 30.3516 30.0703 26.5312C30.0703 23.6953 27.9141 21.4219 24.9844 21.1406L24.9844 20.9531C27.4219 20.6016 29.2969 18.375 29.2969 15.8438C29.2969 12.4688 26.2031 10.0547 21.8672 10.0547C17.9297 10.0547 14.9531 11.8828 14.3203 14.7422Z" fill="white"/>
 </g>
</svg>
