<svg version="1.1" xmlns="http://www.w3.org/2000/svg" xmlns:xlink="http://www.w3.org/1999/xlink" viewBox="0 0 31.1157 30.0171">
 <g fill="white">
  <path d="M24.3842 4.91943L6.52709 4.91943C6.72897 2.94884 7.99876 2.06299 9.96094 2.06299L20.9595 2.06299C23.0331 2.06299 24.2006 2.94884 24.3842 4.91943Z"/>
  <path d="M29.0894 10.1685L29.0894 20.105C29.0894 22.4854 27.832 23.6816 25.4639 23.6816L25.0854 23.6816L25.0854 16.9067C25.0854 15.2954 23.877 14.0869 22.2656 14.0869L8.49609 14.0869C6.89697 14.0869 5.67627 15.2954 5.67627 16.9067L5.67627 23.6816L5.29785 23.6816C2.92969 23.6816 1.67236 22.4854 1.67236 20.105L1.67236 10.1685C1.67236 7.78809 3.05176 6.57959 5.29785 6.57959L25.4639 6.57959C27.832 6.57959 29.0894 7.78809 29.0894 10.1685ZM21.3257 10.6201C21.3257 11.4868 22.0337 12.1826 22.9004 12.1826C23.7427 12.1826 24.4629 11.4746 24.4629 10.6201C24.4629 9.76562 23.7427 9.04541 22.9004 9.04541C22.0337 9.04541 21.3257 9.76562 21.3257 10.6201Z"/>
  <path d="M7.34863 26.709C7.34863 27.6978 8.00781 28.3569 8.98438 28.3569L21.7773 28.3569C22.7661 28.3569 23.4253 27.6978 23.4253 26.709L23.4253 16.9067C23.4253 16.2109 22.9614 15.7593 22.2656 15.7593L8.49609 15.7593C7.8125 15.7593 7.34863 16.2109 7.34863 16.9067ZM11.5112 20.6543C11.0474 20.6543 10.7178 20.3003 10.7178 19.8486C10.7178 19.4214 11.0474 19.0918 11.5112 19.0918L19.2871 19.0918C19.7266 19.0918 20.0562 19.4214 20.0562 19.8486C20.0562 20.3003 19.7266 20.6543 19.2871 20.6543ZM11.5112 25.0244C11.0474 25.0244 10.7178 24.6826 10.7178 24.2554C10.7178 23.8037 11.0474 23.4619 11.5112 23.4619L19.2871 23.4619C19.7266 23.4619 20.0562 23.8037 20.0562 24.2554C20.0562 24.6826 19.7266 25.0244 19.2871 25.0244Z"/>
 </g>
</svg>
