<svg version="1.1" xmlns="http://www.w3.org/2000/svg" xmlns:xlink="http://www.w3.org/1999/xlink" viewBox="0 0 18.8281 14.3828">
 <g>
  <path d="M2.45312 14.3828L15.9688 14.3828C17.6094 14.3828 18.4219 13.5781 18.4219 11.9688L18.4219 2.42188C18.4219 0.8125 17.6094 0 15.9688 0L2.45312 0C0.820312 0 0 0.8125 0 2.42188L0 11.9688C0 13.5781 0.820312 14.3828 2.45312 14.3828ZM2.46875 13.125C1.6875 13.125 1.25781 12.7109 1.25781 11.8984L1.25781 2.49219C1.25781 1.67969 1.6875 1.25781 2.46875 1.25781L15.9531 1.25781C16.7266 1.25781 17.1641 1.67969 17.1641 2.49219L17.1641 11.8984C17.1641 12.7109 16.7266 13.125 15.9531 13.125Z" fill="white"/>
  <path d="M11.0547 4.61719L15.3203 4.61719C15.5938 4.61719 15.8047 4.40625 15.8047 4.13281C15.8047 3.86719 15.5938 3.65625 15.3203 3.65625L11.0547 3.65625C10.7734 3.65625 10.5625 3.86719 10.5625 4.13281C10.5625 4.40625 10.7734 4.61719 11.0547 4.61719ZM11.0547 7.67969L15.3203 7.67969C15.5938 7.67969 15.8047 7.46094 15.8047 7.1875C15.8047 6.92188 15.5938 6.71875 15.3203 6.71875L11.0547 6.71875C10.7734 6.71875 10.5625 6.92188 10.5625 7.1875C10.5625 7.46094 10.7734 7.67969 11.0547 7.67969ZM11.0547 10.7344L15.3203 10.7344C15.5938 10.7344 15.8047 10.5312 15.8047 10.2656C15.8047 9.99219 15.5938 9.77344 15.3203 9.77344L11.0547 9.77344C10.7734 9.77344 10.5625 9.99219 10.5625 10.2656C10.5625 10.5312 10.7734 10.7344 11.0547 10.7344ZM2.91406 10.7344L9.01562 10.7344C9.27344 10.7344 9.39844 10.5625 9.39844 10.3281C9.39844 9.59375 8.29688 7.70312 5.96094 7.70312C3.625 7.70312 2.53125 9.59375 2.53125 10.3281C2.53125 10.5625 2.65625 10.7344 2.91406 10.7344ZM5.96094 7.15625C6.91406 7.16406 7.67188 6.35938 7.67188 5.28906C7.67188 4.28906 6.91406 3.46094 5.96094 3.46094C5.01562 3.46094 4.25 4.28906 4.25 5.28906C4.25 6.35938 5.01562 7.15625 5.96094 7.15625Z" fill="white"/>
 </g>
</svg>
