<svg width="100" height="89" viewBox="0 0 100 89" version="1.1" xmlns="http://www.w3.org/2000/svg" xmlns:xlink="http://www.w3.org/1999/xlink">
 <g>
  <path d="M21.6762324,5.92670996 C33.1410211,14.5339107 45.472007,31.9860938 50,41.3508825 C54.527993,31.9860938 66.8589789,14.5339107 78.3237676,5.92670996 C86.5961268,-0.283770676 100,-5.08915272 100,10.2018332 C100,13.2555656 98.2491197,35.85546 97.2221831,39.5248262 C93.6526408,52.280636 80.6455986,55.5341571 69.0751761,53.564967 C89.2996479,57.0070445 94.4443662,68.4084529 83.3332746,79.8098614 C62.231162,101.463382 53.0036972,74.3769388 50.6392606,67.4364459 C50.2058099,66.1640867 50.002993,65.5688402 50,66.0750022 C49.997007,65.5688402 49.7941901,66.1640867 49.3607394,67.4364459 C46.9963028,74.3769388 37.768838,101.463382 16.6666725,79.8098614 C5.55556338,68.4084529 10.7003169,57.0070445 30.9248239,53.564967 C19.3544014,55.5341571 6.34744718,52.280636 2.77778169,39.5248262 C1.7509243,35.85546 0,13.2555656 0,10.2018332 C0,-5.08915272 13.4039613,-0.283770676 21.6762324,5.92670996 Z" fill="white"/>
 </g>
</svg>