<svg width="94px" height="100px" viewBox="0 0 94 100" version="1.1" xmlns="http://www.w3.org/2000/svg" xmlns:xlink="http://www.w3.org/1999/xlink">
    <path d="M93.6207293,22.1389781 C92.1727893,11.3944889 82.7930039,2.9270241 71.6737887,1.28625263 C69.7978062,1.00900591 62.6900947,0 46.2252931,0 L46.1023069,0 C29.6329409,0 26.0996885,1.00900591 24.223706,1.28625263 C13.4141116,2.88156842 3.54249567,10.4900209 1.14744451,21.3617632 C-0.00454544708,26.7159382 -0.127485642,32.6517585 0.0865208978,38.0968196 C0.391593224,45.9051707 0.450786328,53.6999776 1.16110357,61.4765566 C1.65216062,66.6422507 2.50881616,71.7666789 3.7246166,76.8116135 C6.00128029,86.129078 15.2171899,93.8829988 24.2464014,97.0462886 C33.9134926,100.345275 44.3097522,100.892996 54.2709958,98.6280601 C55.3668404,98.3735033 56.4489917,98.0780604 57.5175764,97.7417314 C59.9398963,96.9736304 62.7765653,96.1145169 64.8620046,94.6056567 C64.8906591,94.5843909 64.9141152,94.5570492 64.9305979,94.5256568 C64.9472074,94.4941378 64.956463,94.4593277 64.9576041,94.4237581 L64.9576041,86.888065 C64.957097,86.8549005 64.949236,86.8222423 64.9344016,86.7924954 C64.9195672,86.7627486 64.8983933,86.7366727 64.8721478,86.7161664 C64.8459023,86.69566 64.8154727,86.6813562 64.7830145,86.6741411 C64.7505563,86.6669259 64.7168302,86.6670525 64.6844988,86.6745208 C58.3024055,88.1961657 51.7624589,88.9590768 45.2008312,88.9470515 C33.9085478,88.9470515 30.8715508,83.5974335 30.0017725,81.3703458 C29.3027802,79.4455365 28.8588889,77.4378158 28.6813832,75.3981964 C28.6794813,75.3638926 28.6858208,75.3297154 28.6997677,75.298323 C28.7135878,75.2669306 28.7347617,75.2393357 28.7613875,75.2176901 C28.7880134,75.195918 28.8193305,75.1808547 28.8529298,75.1735129 C28.8865291,75.1661712 28.9212695,75.1668041 28.9546153,75.1754117 C35.2303319,76.6868035 41.6636483,77.4497145 48.1195333,77.4479424 C49.6722016,77.4479424 51.2203055,77.4479424 52.7729739,77.4070563 C59.2660083,77.2252842 66.1096166,76.8935122 72.4979226,75.6481963 C72.6572974,75.6162976 72.8166723,75.5890824 72.9532249,75.5481963 C83.0297205,73.616425 92.6190896,67.5533895 93.5934695,52.2001048 C93.6298582,51.5956747 93.7210201,45.8688416 93.7210201,45.2416267 C93.7254577,43.109982 94.4084746,30.120114 93.6207293,22.1389781 Z M78,34.032099 L78,61 L67.3720356,61 L67.3720356,34.8265176 C67.3720356,29.3163578 65.0884386,26.5060958 60.4435391,26.5060958 C55.3373672,26.5060958 52.7798301,29.8305814 52.7798301,36.3969393 L52.7798301,50.7234569 L42.2157137,50.7234569 L42.2157137,36.3969393 C42.2157137,29.8305814 39.6535982,26.5060958 34.5474263,26.5060958 C29.92987,26.5060958 27.623381,29.3163578 27.623381,34.8265176 L27.623381,61 L17,61 L17,34.032099 C17,28.5219393 18.3990784,24.1444527 21.1973623,20.8995112 C24.0837801,17.6622428 27.8701051,16 32.5696909,16 C38.0093218,16 42.119822,18.1030607 44.8602402,22.3045783 L47.5046395,26.7678754 L50.1536172,22.3045783 C52.8939082,18.1030607 57.0044083,16 62.4348825,16 C67.1300171,16 70.9162149,17.6622428 73.8119167,20.8995112 C76.6070211,24.1413834 78.0030473,28.5188701 78,34.032099 Z" fill="white" fill-rule="nonzero"></path>
</svg>