<svg width="100" height="85" viewBox="0 0 100 85" version="1.1" xmlns="http://www.w3.org/2000/svg" xmlns:xlink="http://www.w3.org/1999/xlink">
 <g>
  <path d="M99.875486,0.990872569 L100,0.963596605 L100,0 L74.5872777,0 L50.9907955,55.4594305 L27.3943133,0 L0.0090919878,0 L0.0090919878,0.963596605 L0.132064975,0.990872569 C4.77051977,2.03783808 7.12549871,3.59919436 7.12549871,9.23006273 L7.12549871,75.1517514 C7.12549871,80.7826198 4.76142778,82.3439761 0.122972988,83.3909416 L0,83.4183717 L0,84.3848962 L18.5800164,84.3848962 L18.5800164,83.4212996 L18.4571975,83.3940236 C13.8185886,82.3470581 11.4636097,80.7857018 11.4636097,75.1548335 L11.4636097,13.0539371 L41.7758347,84.3848962 L43.4949909,84.3848962 L74.6903716,11.064641 L74.6903716,76.7829157 C74.2929438,81.2302846 71.9592309,82.603483 67.7591949,83.5518236 L67.6346808,83.5806405 L67.6346808,84.5366862 L100,84.5366862 L100,83.5806405 L99.875486,83.5518236 C95.670981,82.603483 93.281021,81.2302846 92.8835933,76.7829157 L92.8623273,9.23006273 L92.8835933,9.23006273 C92.8835933,3.59919436 95.2384181,2.03783808 99.875486,0.990872569 Z" fill="white"></path>
 </g>
</svg>