<svg width="96" height="100" viewBox="0 0 96 100" version="1.1" xmlns="http://www.w3.org/2000/svg" xmlns:xlink="http://www.w3.org/1999/xlink">
 <g>
  <path d="M61.3492684,0.228189935 L6.01692825,4.3151412 C1.55298148,4.70113659 0,7.61810181 0,11.1140601 L0,71.7733367 C0,74.4963043 0.966988468,76.8262765 3.29996065,79.9402393 L16.3068055,96.8530377 C18.4437801,99.5760052 20.3867569,100.159998 24.4667082,99.9660005 L88.7229419,96.0760469 C94.1558772,95.6890515 95.7128586,93.1590817 95.7128586,88.8831327 L95.7128586,20.6409465 C95.7128586,18.4309729 94.839869,17.7939805 92.2698996,15.9080029 L74.1661155,3.14415516 C69.8931665,0.0371922132 68.1461873,-0.3558031 61.3492684,0.227189947 L61.3492684,0.228189935 Z M25.9196909,19.5239598 C20.6727535,19.8769556 19.4827677,19.9569547 16.5028032,17.5339836 L8.92689354,11.5080554 C8.15690273,10.7280647 8.54389811,9.75507632 10.483875,9.56107864 L63.6762406,5.67412499 C68.1431874,5.28412964 70.4691596,6.84111107 72.2161388,8.20109486 L81.33903,14.811016 C81.7290254,15.0080137 82.6990138,16.1709998 81.5320277,16.1709998 L26.5996828,19.4779604 L25.9196909,19.5249598 L25.9196909,19.5239598 Z M19.8027638,88.3001396 L19.8027638,30.3678305 C19.8027638,27.8378607 20.5797546,26.6708746 22.9057268,26.4748769 L85.9989744,22.780921 C88.1389489,22.5879233 89.1059374,23.9479071 89.1059374,26.4738769 L89.1059374,84.0201907 C89.1059374,86.5501605 88.715942,88.690135 85.2229837,88.8831327 L24.8467037,92.383091 C21.3537453,92.5760887 19.8037638,91.4131025 19.8037638,88.3001396 L19.8027638,88.3001396 Z M79.4020531,33.4737935 C79.7890485,35.2237726 79.4020531,36.9737517 77.652074,37.1737493 L74.7421087,37.7507425 L74.7421087,80.5232324 C72.2151388,81.8832162 69.8891665,82.6602069 67.9451897,82.6602069 C64.8382268,82.6602069 64.062236,81.6872185 61.7352638,78.7732533 L42.7054907,48.8336103 L42.7054907,77.8002649 L48.7254189,79.1632486 C48.7254189,79.1632486 48.7254189,82.6632069 43.8684769,82.6632069 L30.4786365,83.4401976 C30.0886412,82.6602069 30.4786365,80.7172301 31.8356203,80.3302347 L35.3325786,79.3602463 L35.3325786,41.060703 L30.4796365,40.6677077 C30.0896412,38.9177285 31.0596296,36.3907587 33.7795972,36.194761 L48.1464258,35.2277726 L67.9461897,65.5544109 L67.9461897,38.7247309 L62.8992499,38.1447378 C62.5092546,36.0017633 64.062236,34.4447819 66.0022129,34.2547842 L79.4020531,33.4737935 Z" fill="white"></path>
 </g>
</svg>