<svg width="88" height="100" viewBox="0 0 88 100" version="1.1" xmlns="http://www.w3.org/2000/svg" xmlns:xlink="http://www.w3.org/1999/xlink">
 <g>
  <path d="M44.64,100 L44.61,100 C29.69,99.9 18.22,94.98 10.51,85.38 C3.66,76.83 0.12,64.94 0,50.04 L0,49.97 C0.12,35.06 3.66,23.18 10.52,14.63 C18.22,5.02 29.7,0.1 44.61,0 L44.64,0 L44.67,0 C56.11,0.08 65.68,3.02 73.11,8.74 C80.1,14.12 85.02,21.78 87.73,31.52 L79.23,33.89 C74.63,17.39 62.99,8.96 44.63,8.83 C32.51,8.92 23.34,12.73 17.38,20.15 C11.81,27.1 8.93,37.14 8.82,50 C8.93,62.86 11.81,72.9 17.39,79.85 C23.35,87.28 32.52,91.09 44.64,91.17 C55.57,91.09 62.8,88.54 68.81,82.65 C75.67,75.93 75.55,67.68 73.35,62.66 C72.06,59.7 69.71,57.24 66.54,55.37 C65.74,61 63.95,65.56 61.19,69 C57.5,73.59 52.27,76.1 45.65,76.46 C40.64,76.73 35.81,75.55 32.07,73.12 C27.64,70.25 25.05,65.87 24.77,60.77 C24.5,55.81 26.47,51.25 30.31,47.93 C33.98,44.76 39.14,42.9 45.24,42.55 C49.73,42.3 53.94,42.5 57.82,43.14 C57.3,40.05 56.26,37.59 54.7,35.82 C52.56,33.38 49.25,32.14 44.87,32.11 C44.83,32.11 44.79,32.11 44.75,32.11 C41.23,32.11 36.45,33.08 33.41,37.61 L26.09,32.7 C30.17,26.64 36.79,23.3 44.75,23.3 C44.81,23.3 44.87,23.3 44.93,23.3 C58.24,23.38 66.17,31.53 66.96,45.75 C67.41,45.94 67.86,46.14 68.3,46.34 C74.51,49.26 79.05,53.68 81.44,59.13 C84.76,66.72 85.07,79.09 74.99,88.96 C67.28,96.5 57.93,99.91 44.67,100 L44.64,100 L44.64,100 Z M48.82,51.29 C47.81,51.29 46.79,51.32 45.74,51.38 C38.09,51.81 33.32,55.32 33.59,60.31 C33.87,65.54 39.64,67.97 45.19,67.67 C50.29,67.4 56.93,65.41 58.05,52.21 C55.23,51.6 52.14,51.29 48.82,51.29 Z" fill="white"/>
</g>
</svg>