<?xml version="1.0" encoding="UTF-8"?>
<svg width="2400" height="1200" viewBox="0 0 1200 600" version="1.1" xmlns="http://www.w3.org/2000/svg" xmlns:xlink="http://www.w3.org/1999/xlink">
    <title>transistor</title>
    <g stroke="none" fill-rule="nonzero">
        <rect fill="#312C32" x="0" y="0" width="1200" height="600"></rect>
        <path d="M903.217,213 L763.673,213 L755.535,219.003 L911.185,219.003 L903.217,213 Z M917.819,224.001 L748.76,224.001 L721,244.478 L945,244.478 L917.819,224.001 Z M763.673,387 L903.217,387 L911.187,380.996 L755.533,380.996 L763.673,387 Z M748.76,375.999 L917.82,375.999 L945,355.522 L721,355.522 L748.76,375.999 Z" fill="#F4D459"></path>
        <path d="M693,300 C693,264.728 664.57,236.133 629.5,236.133 C594.43,236.133 566,264.728 566,300 C566,335.272 594.43,363.867 629.5,363.867 C664.57,363.867 693,335.272 693,300 Z M561,300 C561,270.97 578.861,246.152 604.125,236.008 L489,236.008 L489,363.992 L604.125,363.992 C578.861,353.849 561,329.029 561,300 Z M981,258.876 L981,257.835 L979.023,255.254 C976.669,251.253 974.004,247.764 971.089,244.894 L970.13,243.641 C966.483,238.877 961.776,236.339 956.999,236.024 L956.999,236.008 L956.61,236.008 C956.192,235.991 955.774,235.991 955.356,236.008 L952.056,236.008 C951.869,236.004 951.686,235.985 951.498,235.985 C951.31,235.985 951.127,236.004 950.94,236.008 L654.875,236.008 C680.14,246.152 698,270.97 698,300 C698,329.029 680.14,353.849 654.875,363.992 L957,363.992 L957,363.955 C961.776,363.64 966.483,361.101 970.131,356.338 L971.097,355.077 C974.006,352.21 976.668,348.726 979.019,344.731 L981,342.143 L981,341.1 C986.614,329.978 990,315.642 990,299.988 C990,284.333 986.614,269.998 981,258.876 Z" fill="#8ACFB2"></path>
        <path d="M989.505,329.003 L913.417,329.003 C911.529,329.003 910,329.899 910,331.004 L910,345.012 C910,346.117 911.529,347.013 913.417,347.013 L982.905,347.013 C984.67,347.013 986.099,346.117 986.099,345.012 L992.999,331.004 C993,329.898 991.436,329.003 989.505,329.003 Z M913.417,270.991 L989.505,270.991 C991.436,270.991 993,270.097 993,268.994 L986.1,255.01 C986.1,253.907 984.67,253.013 982.906,253.013 L913.418,253.013 C911.53,253.013 910.001,253.908 910.001,255.01 L910.001,268.994 C910,270.098 911.529,270.991 913.417,270.991 Z M996.583,291.008 L921.417,291.008 C919.529,291.008 918,291.903 918,293.005 L918,306.989 C918,308.093 919.529,308.986 921.417,308.986 L996.583,308.986 C998.471,308.986 1000,308.092 1000,306.989 L1000,293.005 C1000,291.902 998.471,291.008 996.583,291.008 Z" fill="#F4D459"></path>
        <path d="M723.344,269.996 L723.676,270.329 L741.968,251.993 L801.911,251.993 L818.992,269.877 C817.731,272.086 817,274.64 817,277.37 C817,285.702 823.716,292.457 832,292.457 C840.284,292.457 847,285.702 847,277.37 C847,269.038 840.284,262.283 832,262.283 C829.341,262.283 826.848,262.986 824.682,264.207 L806,244.647 L806,243.992 L738.002,243.992 L738.002,244.864 L737.865,244.727 L720.638,261.995 L686.628,261.995 C688.312,264.55 689.837,267.219 691.176,269.997 L723.344,269.997 L723.344,269.996 Z M832,268.328 C836.965,268.328 840.99,272.376 840.99,277.37 C840.99,282.364 836.965,286.412 832,286.412 C827.035,286.412 823.01,282.364 823.01,277.37 C823.01,272.376 827.035,268.328 832,268.328 Z M512,285.01 L512,313.99 L562.416,313.99 C561.489,309.473 561,304.794 561,300 C561,294.85 561.58,289.838 562.646,285.01 L512,285.01 Z M757.335,313.99 C761.755,320.424 769.136,324.641 777.5,324.641 C791.031,324.641 802,313.609 802,299.999 C802,286.389 791.031,275.357 777.5,275.357 C769.578,275.357 762.538,279.142 758.06,285.008 L696.355,285.008 C697.42,289.838 698,294.85 698,300 C698,304.794 697.511,309.473 696.584,313.99 L757.335,313.99 Z M777.5,284.41 C786.061,284.41 793,291.389 793,300 C793,308.611 786.061,315.59 777.5,315.59 C768.939,315.59 762,308.61 762,300 C762,291.39 768.939,284.41 777.5,284.41 Z M857,293.463 C844.85,293.463 835,303.369 835,315.59 C835,321.894 837.625,327.576 841.83,331.607 L826.441,347.007 L741.236,347.007 L724,329.671 L724,329.004 L691.634,329.004 C690.352,331.777 688.89,334.447 687.267,337.006 L719.979,337.006 L738.143,355.274 L738.407,355.008 L830,355.008 L830,354.561 L848.53,336.015 C851.137,337.111 853.998,337.717 857,337.717 C869.15,337.717 879,327.811 879,315.59 C879,303.369 869.15,293.463 857,293.463 Z M857,329.589 C849.313,329.589 843.082,323.321 843.082,315.59 C843.082,307.859 849.313,301.591 857,301.591 C864.687,301.591 870.918,307.859 870.918,315.59 C870.918,323.321 864.687,329.589 857,329.589 Z" fill="#D8F1E4"></path>
        <ellipse fill="#93272B" cx="629.5" cy="300" rx="51.5" ry="51.798"></ellipse>
        <ellipse fill="#3D0A09" cx="629.5" cy="300" rx="39.5" ry="39.729"></ellipse>
        <polygon fill="#524D47" points="538.998 300.014 474.991 217.035 474.991 291.014 322 291.014 322 308.986 474.991 308.986 474.991 382.991"></polygon>
        <polygon fill="#806144" points="297 285.984 297 291.014 275 291.014 275 291.241 270 282.998 215 282.998 215 285.01 213 285.01 213 314.99 215 314.99 215 317.002 270 317.002 275 308.759 275 308.986 297 308.986 297 314.016 324 314.016 324 285.984"></polygon>
        <rect fill="#8ACFB2" x="209" y="289.002" width="4" height="21.996"></rect>
        <path d="M209,289.002 C204.029,289.002 200,293.926 200,300 C200,306.074 204.029,310.998 209,310.998 L209,289.002 Z" fill="#7E2827"></path>
    </g>
</svg>