<?xml version="1.0" encoding="UTF-8"?>
<svg width="2400" height="1800" viewBox="0 0 1200 900" version="1.1" xmlns="http://www.w3.org/2000/svg" xmlns:xlink="http://www.w3.org/1999/xlink">
    <title>desk-setup</title>
    <g stroke="none" stroke-width="4" fill="none" fill-rule="evenodd" stroke-linecap="round" stroke-linejoin="round">
        <rect fill="#FBEBED" x="0" y="0" width="1200" height="900"></rect>
        <rect stroke="#C0C0C0" fill="#ECECEC" x="40" y="656" width="30" height="850" rx="4"></rect>
        <path d="M42,846 L68,846 C70.209139,846 72,847.790861 72,850 L72,1502 C72,1504.20914 70.209139,1506 68,1506 L42,1506 C39.790861,1506 38,1504.20914 38,1502 L38,850 C38,847.790861 39.790861,846 42,846 Z" stroke="#C0C0C0" fill="#ECECEC"></path>
        <rect stroke="#C0C0C0" fill="#ECECEC" x="1130" y="656" width="30" height="850" rx="4"></rect>
        <path d="M1132,846 L1158,846 C1160.20914,846 1162,847.790861 1162,850 L1162,1502 C1162,1504.20914 1160.20914,1506 1158,1506 L1132,1506 C1129.79086,1506 1128,1504.20914 1128,1502 L1128,850 C1128,847.790861 1129.79086,846 1132,846 Z" stroke="#C0C0C0" fill="#ECECEC"></path>
        <path d="M1020,670 L1140,670 L1131.10557,687.788854 C1130.428,689.14399 1129.04295,690 1127.52786,690 L1032.47214,690 C1030.95705,690 1029.572,689.14399 1028.89443,687.788854 L1020,670 L1020,670 Z" stroke="#414141" fill="#717171"></path>
        <rect stroke="#D7D7D7" fill="#FFFFFF" x="-26" y="640" width="1251" height="30" rx="4"></rect>
        <polygon stroke="#AEAEAE" fill="#D8D8D8" points="621.366874 579.462654 614.583653 618.27718 578.779735 628 578.660078 636 753.416591 636 753.293456 628 717.489537 618.27718 710.706317 579.462654"></polygon>
        <rect stroke="#141414" fill="#252525" stroke-linecap="square" x="396" y="254" width="540" height="328.013152" rx="12.4137931"></rect>
        <rect stroke="#E4B0B5" fill="#F2D6D9" x="418.112069" y="276.061062" width="496.551724" height="278.66604"></rect>
        <path d="M733.282958,294.192823 C752.029198,305.21294 764.056601,328.277734 764.000004,353.668267 C763.938348,381.135727 750.217014,408.089334 723.310334,429.161124 L722.902,429.477 L722.895814,429.698486 C722.689154,434.608391 720.535643,439.688889 716.50469,444.03987 L716.321,444.234 L716.319,444.263 L716.316,444.333 L716.31586,444.344246 C716.268953,445.120065 716.101069,446.147147 715.738691,447.354549 C715.114367,449.434729 714.057507,451.497895 712.471,453.408352 C709.845506,456.569947 706.157349,458.88723 701.360418,460.204315 L701.321,460.214 L701.189557,460.38542 C700.555072,461.180909 699.73171,461.97991 698.741923,462.725201 L698.543,462.871 L698.583696,462.928292 C699.119339,463.717082 699.639537,464.536725 700.144171,465.387624 L700.519727,466.031665 C704.090795,472.26001 705.511143,481.432242 706.31767,496.959333 C706.429068,499.10395 706.471246,500.04059 706.679759,504.840906 C707.018423,512.637532 707.275789,516.874652 707.700638,520.180139 L707.704,520.21 L707.842914,520.300091 C708.105506,520.467095 708.34771,520.610878 708.522178,520.701224 L708.639589,520.758492 C708.676126,520.77488 708.864429,520.858322 708.919389,520.882912 C709.250221,521.030932 709.500053,521.150623 709.779992,521.305585 C710.425194,521.662742 710.963034,522.048606 711.509589,522.696111 C712.911967,524.357511 713.310819,526.844514 711.846005,528.983169 C711.627086,529.302796 711.398459,529.576805 711.158956,529.814153 L711.03,529.935 L711.040008,530.018512 C711.326613,532.790203 709.455137,535.525574 706.297778,535.974224 L706.075422,536.001786 C705.604911,536.05893 704.717624,536.154028 703.420741,536.274196 C701.289479,536.471676 698.762997,536.668457 695.848476,536.851654 C690.719336,537.174055 684.973959,537.418389 678.627824,537.556903 L678.138,537.567 L678.082259,537.692593 C676.120824,541.925203 671.87995,544.877542 666.949808,544.996282 L666.640791,545 C661.579326,545 657.201622,542.013382 655.199324,537.692593 L655.142,537.567 L654.653759,537.556903 C648.660187,537.426084 643.202477,537.200876 638.293667,536.90466 L637.433107,536.851654 C634.518586,536.668457 631.992104,536.471676 629.860842,536.274196 C628.563959,536.154028 627.676672,536.05893 627.281172,536.010322 C623.936436,535.655259 621.954627,532.85538 622.238076,530.024464 L622.248,529.933 L622.122627,529.814153 C621.943,529.636142 621.76949,529.437509 621.601606,529.214476 L621.435578,528.983169 C619.970764,526.844514 620.369616,524.357511 621.771994,522.696111 C622.318549,522.048606 622.856389,521.662742 623.501591,521.305585 C623.78153,521.150623 624.031362,521.030932 624.362194,520.882912 C624.417154,520.858322 624.605457,520.77488 624.641994,520.758492 C624.812087,520.682196 625.097808,520.514976 625.40686,520.317027 L625.521,520.243 L625.529673,520.179057 C625.962089,516.915684 626.227498,512.750793 626.569171,505.178147 L626.593136,504.644263 C626.80391,499.924983 626.844699,499.041526 626.955059,496.950487 C627.776115,481.393717 629.193606,472.255095 632.761856,466.031665 C633.382912,464.948475 634.028333,463.914279 634.697887,462.928292 L634.737,462.871 L634.53966,462.725201 C633.549873,461.97991 632.726511,461.180909 632.092026,460.38542 L631.959,460.214 L631.921165,460.204315 C627.26532,458.925967 623.653986,456.705392 621.045003,453.685121 L620.810583,453.408352 C619.224076,451.497895 618.167216,449.434729 617.542892,447.354549 C617.180514,446.147147 617.01263,445.120065 616.965723,444.344246 L616.961,444.263 L616.959,444.237 L616.779442,444.046502 C612.84216,439.797514 610.698307,434.847451 610.409045,430.018151 L610.392,429.707 L609.94329,429.359209 C583.18672,408.505294 569.386267,381.857385 569.007981,354.63093 L569.000004,353.779921 C568.908455,328.346794 580.941687,305.230056 599.717042,294.192823 C612.902247,286.441801 626.493756,284.456604 639.858029,287.094272 C648.411908,288.782526 656.183833,292.199091 662.811728,296.467707 L663.374,296.834 L663.580346,296.800128 C664.311784,296.689856 665.052191,296.623093 665.798458,296.600798 L666.359209,296.592431 C667.407981,296.592431 668.446728,296.680089 669.466902,296.852734 L669.481,296.855 L669.49642,296.84573 C676.122349,292.529455 683.779341,289.069596 692.247927,287.27378 L693.069994,287.105213 C706.468506,284.451497 720.077549,286.429923 733.282958,294.192823 Z M672.772,437.75 L672.709629,437.776478 L671.955,438.082 L672.679,438.079 L672.772,437.75 Z M675.36938,406.61608 C674.278894,406.61608 673.394881,407.496897 673.394881,408.58344 C673.394881,409.284246 673.762637,409.899468 674.316351,410.247968 C670.368722,418.860815 662.921456,418.889782 659.012487,410.195909 C659.52219,409.840154 659.855458,409.250576 659.855458,408.58344 C659.855458,407.496897 658.971444,406.61608 657.880958,406.61608 C656.790472,406.61608 655.906459,407.496897 655.906459,408.58344 C655.906459,409.669983 656.790472,410.5508 657.880958,410.5508 C658.050804,410.5508 658.21564,410.529433 658.372908,410.489249 C657.425546,418.22829 652.599706,416.378715 650.119904,414.864642 C650.387354,414.528966 650.547104,414.104254 650.547104,413.642366 C650.547104,412.555823 649.663091,411.675006 648.572605,411.675006 C647.482119,411.675006 646.598106,412.555823 646.598106,413.642366 C646.598106,414.728909 647.482119,415.609726 648.572605,415.609726 C648.764913,415.609726 648.950799,415.582333 649.126549,415.531249 L652.949,429.071 L654.295107,429.708093 C657.593062,431.237811 661.043122,432.717419 664.650093,434.141102 C665.076977,434.309595 665.601977,434.644221 666.5,434.644221 C667.398023,434.644221 667.923023,434.309595 668.349907,434.141102 C671.956878,432.717419 675.406938,431.237811 678.704893,429.708093 L680.475,428.87 L684.233154,415.559654 C684.328415,415.581495 684.426309,415.596469 684.526282,415.604024 L684.677734,415.609726 C685.768219,415.609726 686.652233,414.728909 686.652233,413.642366 C686.652233,412.555823 685.768219,411.675006 684.677734,411.675006 C683.587248,411.675006 682.703234,412.555823 682.703234,413.642366 C682.703234,414.102592 682.861836,414.525908 683.127551,414.861013 C680.623031,416.34667 676.001306,417.969302 675.036452,410.522952 C675.144684,410.541264 675.255914,410.5508 675.36938,410.5508 C676.459866,410.5508 677.343879,409.669983 677.343879,408.58344 C677.343879,407.496897 676.459866,406.61608 675.36938,406.61608 Z M684.633879,319.379378 L684.347,319.549 L684.338978,319.588869 C682.366928,327.614458 675.191588,333.51187 666.695272,333.663695 L666.359214,333.666696 C657.626669,333.666696 650.236339,327.598861 648.323857,319.356553 L648.081331,319.215472 C637.994967,313.395172 627.107353,312.323475 615.366933,317.890831 C601.457234,324.486868 593.697017,343.997876 598.427316,364.787299 C602.975645,384.776972 617.790083,403.457296 642.84361,418.111922 L643.653,418.581 L643.642406,418.570557 C642.432375,417.362734 641.664079,415.712698 641.602155,413.882137 L641.598106,413.642366 C641.598106,409.790337 644.724742,406.675006 648.572605,406.675006 C649.374243,406.675006 650.144578,406.81022 650.861859,407.05914 L651.058,407.131 L651.098485,406.952558 C651.8158,403.963748 654.460788,401.727426 657.641428,401.620115 L657.880958,401.61608 C661.728822,401.61608 664.855458,404.731411 664.855458,408.58344 C664.855458,409.043989 664.810183,409.497188 664.722948,409.937881 L664.667,410.191 L664.726277,410.279833 C666.033678,412.18629 667.281594,412.188776 668.602443,410.290691 L668.574743,410.158374 C668.476325,409.73402 668.417033,409.29685 668.400002,408.851555 L668.394881,408.58344 C668.394881,404.731411 671.521517,401.61608 675.36938,401.61608 C678.656097,401.61608 681.416605,403.889028 682.151854,406.952558 L682.191,407.131 L682.388479,407.05914 C683.034032,406.835112 683.722559,406.703186 684.438203,406.679041 L684.677734,406.675006 C688.525597,406.675006 691.652233,409.790337 691.652233,413.642366 C691.652233,415.407879 690.995422,417.018635 689.913398,418.245613 L689.9,418.26 L690.15639,418.111922 C714.888718,403.645176 729.642815,385.255293 734.392686,365.555481 L734.572684,364.787299 C739.302983,343.997876 731.542766,324.486868 717.633067,317.890831 C705.775967,312.268145 694.79077,313.415686 684.633879,319.379378 Z" fill="#FFFFFF" fill-rule="nonzero"></path>
        <path d="M602.250932,298.497763 C561.546236,322.408968 551.774719,412.498479 663.135124,451.696732 C664.05954,452.022121 664.994621,452.662312 666.496968,452.662312 C667.999316,452.662312 668.94046,452.022121 669.864876,451.696732 C781.225281,412.498479 771.453764,322.408968 730.749068,298.497763 C696.316436,278.270964 666.359094,305.375213 666.359094,305.375213 C666.640906,305.375213 636.683564,278.270964 602.250932,298.497763 Z M719.775417,313.299442 C750.628905,327.908982 758.524181,398.351344 668.349907,433.891584 C667.923023,434.059831 667.398023,434.39397 666.5,434.39397 C665.601977,434.39397 665.076977,434.059831 664.650093,433.891584 C574.475819,398.351344 582.371095,327.908982 613.224583,313.299442 C633.580515,303.660635 651.115259,308.513095 665.828813,327.856822 L665.828651,327.856945 C666.110784,328.22772 666.640071,328.29958 667.010846,328.017447 C667.071333,327.971421 667.125323,327.917432 667.171349,327.856945 C681.884741,308.513095 699.419485,303.660635 719.775417,313.299442 Z" stroke="#BF293E" stroke-width="2" fill="#DD5064"></path>
        <ellipse stroke="#E0D18A" stroke-width="2" fill="#F3EBC6" cx="583.387686" cy="358.943216" rx="1.62719892" ry="1.62663317"></ellipse>
        <ellipse stroke="#E0D18A" stroke-width="2" fill="#F3EBC6" cx="589.395805" cy="381.71608" rx="1.62719892" ry="1.62663317"></ellipse>
        <path d="M582.755919,351.092975 C582.897446,351.030632 583.125238,351.029897 583.268434,351.092975 L585.883584,352.244963 C586.31042,352.432986 586.618336,352.209225 586.571361,351.745445 L586.283482,348.903213 C586.267903,348.749397 586.337595,348.532606 586.441858,348.41596 L588.345989,346.285696 C588.656774,345.938001 588.539039,345.576116 588.083281,345.47746 L585.290212,344.872851 C585.139056,344.840131 584.954337,344.706882 584.875579,344.571712 L583.437246,342.103149 C583.202487,341.700238 582.821806,341.700342 582.587107,342.103149 L581.148774,344.571712 C581.070935,344.705306 580.887079,344.839745 580.734141,344.872851 L577.941072,345.47746 C577.485197,345.576142 577.367659,345.938091 577.678365,346.285696 L579.582495,348.41596 C579.685543,348.531246 579.756634,348.747583 579.740871,348.903213 L579.452992,351.745445 C579.406005,352.209345 579.714044,352.432938 580.140769,352.244963 L582.755919,351.092975 Z" stroke="#E0D18A" stroke-width="2" fill="#F3EBC6"></path>
        <path d="M585.008964,374.616593 C585.150491,374.55425 585.378283,374.553515 585.521479,374.616593 L588.136629,375.768581 C588.563464,375.956604 588.871381,375.732843 588.824406,375.269064 L588.536527,372.426831 C588.520948,372.273015 588.59064,372.056224 588.694903,371.939578 L590.599034,369.809314 C590.909819,369.461619 590.792083,369.099734 590.336326,369.001078 L587.543257,368.396469 C587.392101,368.363749 587.207381,368.2305 587.128624,368.09533 L585.690291,365.626767 C585.455532,365.223857 585.074851,365.223961 584.840152,365.626767 L583.401819,368.09533 C583.323979,368.228924 583.140124,368.363363 582.987186,368.396469 L580.194117,369.001078 C579.738242,369.09976 579.620704,369.461709 579.931409,369.809314 L581.83554,371.939578 C581.938588,372.054864 582.009679,372.271201 581.993916,372.426831 L581.706037,375.269064 C581.65905,375.732963 581.967089,375.956556 582.393814,375.768581 L585.008964,374.616593 Z" stroke="#E0D18A" stroke-width="2" fill="#F3EBC6"></path>
        <path d="M594.772157,396.138201 C594.913685,396.075858 595.141477,396.075123 595.284672,396.138201 L597.899822,397.290189 C598.326658,397.478212 598.634574,397.254451 598.5876,396.790672 L598.29972,393.948439 C598.284141,393.794623 598.353833,393.577832 598.458096,393.461187 L600.362227,391.330922 C600.673013,390.983227 600.555277,390.621342 600.099519,390.522686 L597.30645,389.918077 C597.155295,389.885357 596.970575,389.752108 596.891817,389.616938 L595.453485,387.148375 C595.218725,386.745465 594.838044,386.745569 594.603345,387.148375 L593.165013,389.616938 C593.087173,389.750533 592.903317,389.884971 592.750379,389.918077 L589.95731,390.522686 C589.501435,390.621368 589.383897,390.983317 589.694603,391.330922 L591.598733,393.461187 C591.701781,393.576472 591.772872,393.792809 591.757109,393.948439 L591.46923,396.790672 C591.422243,397.254571 591.730282,397.478164 592.157007,397.290189 L594.772157,396.138201 Z" stroke="#E0D18A" stroke-width="2" fill="#F3EBC6"></path>
        <ellipse stroke="#E0D18A" stroke-width="2" fill="#F3EBC6" cx="749.111637" cy="358.943216" rx="1.62719892" ry="1.62663317"></ellipse>
        <ellipse stroke="#E0D18A" stroke-width="2" fill="#F3EBC6" cx="743.353857" cy="381.71608" rx="1.62719892" ry="1.62663317"></ellipse>
        <path d="M749.749291,350.853731 L747.582931,351.808041 C747.156555,351.995864 746.658649,351.80248 746.470825,351.376105 C746.412018,351.242608 746.388833,351.096144 746.403532,350.951011 L746.641955,348.597026 C746.649912,348.518459 746.624468,348.440167 746.571842,348.38129 L744.995052,346.617212 C744.68456,346.269839 744.714457,345.736534 745.061829,345.426041 C745.170663,345.328763 745.302876,345.261388 745.445543,345.230505 L747.758773,344.729757 C747.835926,344.713056 747.902507,344.664694 747.942248,344.596487 L749.133745,342.551523 C749.368299,342.148959 749.884786,342.01276 750.28735,342.247314 C750.41334,342.320722 750.518151,342.425533 750.591559,342.551523 L751.783057,344.596487 C751.822798,344.664694 751.889378,344.713056 751.966531,344.729757 L754.279761,345.230505 C754.735126,345.329078 755.024362,345.778133 754.925789,346.233498 C754.894905,346.376166 754.827531,346.508379 754.730252,346.617212 L753.153463,348.38129 C753.100837,348.440167 753.075392,348.518459 753.08335,348.597026 L753.321772,350.951011 C753.368721,351.414551 753.031008,351.828384 752.567468,351.875333 C752.422335,351.890033 752.275871,351.866848 752.142374,351.808041 L749.976014,350.853731 C749.903788,350.821915 749.821516,350.821915 749.749291,350.853731 Z" stroke="#E0D18A" stroke-width="2" fill="#F3EBC6"></path>
        <path d="M747.496246,374.377349 L745.329886,375.331659 C744.903511,375.519482 744.405604,375.326098 744.217781,374.899723 C744.158974,374.766226 744.135788,374.619762 744.150488,374.474629 L744.38891,372.120644 C744.396868,372.042077 744.371423,371.963786 744.318797,371.904908 L742.742008,370.14083 C742.431515,369.793457 742.461412,369.260152 742.808785,368.94966 C742.917618,368.852381 743.049831,368.785006 743.192499,368.754123 L745.505728,368.253376 C745.582882,368.236674 745.649462,368.188312 745.689203,368.120105 L746.880701,366.075141 C747.115255,365.672577 747.631741,365.536378 748.034305,365.770932 C748.160295,365.84434 748.265106,365.949151 748.338515,366.075141 L749.530012,368.120105 C749.569753,368.188312 749.636333,368.236674 749.713487,368.253376 L752.026716,368.754123 C752.482081,368.852696 752.771317,369.301752 752.672744,369.757116 C752.641861,369.899784 752.574486,370.031997 752.477208,370.14083 L750.900418,371.904908 C750.847792,371.963786 750.822347,372.042077 750.830305,372.120644 L751.068727,374.474629 C751.115677,374.938169 750.777964,375.352002 750.314424,375.398951 C750.169291,375.413651 750.022826,375.390466 749.889329,375.331659 L747.722969,374.377349 C747.650743,374.345533 747.568472,374.345533 747.496246,374.377349 Z" stroke="#E0D18A" stroke-width="2" fill="#F3EBC6"></path>
        <path d="M737.482714,396.149209 L735.316354,397.103518 C734.889979,397.291342 734.392072,397.097958 734.204249,396.671582 C734.145442,396.538086 734.122256,396.391621 734.136956,396.246488 L734.375378,393.892503 C734.383336,393.813937 734.357891,393.735645 734.305265,393.676768 L732.728476,391.912689 C732.417983,391.565317 732.44788,391.032012 732.795253,390.721519 C732.904086,390.62424 733.036299,390.556866 733.178967,390.525982 L735.492197,390.025235 C735.56935,390.008533 735.63593,389.960171 735.675671,389.891964 L736.867169,387.847001 C737.101723,387.444436 737.618209,387.308237 738.020773,387.542791 C738.146763,387.616199 738.251575,387.721011 738.324983,387.847001 L739.51648,389.891964 C739.556221,389.960171 739.622802,390.008533 739.699955,390.025235 L742.013185,390.525982 C742.468549,390.624556 742.757786,391.073611 742.659212,391.528975 C742.628329,391.671643 742.560955,391.803856 742.463676,391.912689 L740.886886,393.676768 C740.83426,393.735645 740.808816,393.813937 740.816773,393.892503 L741.055196,396.246488 C741.102145,396.710028 740.764432,397.123861 740.300892,397.170811 C740.155759,397.185511 740.009294,397.162325 739.875797,397.103518 L737.709437,396.149209 C737.637212,396.117392 737.55494,396.117392 737.482714,396.149209 Z" stroke="#E0D18A" stroke-width="2" fill="#F3EBC6"></path>
        <path d="M656.868541,443.152764 L648.600812,413.826162 C648.600812,413.826162 657.807327,421.665565 658.443136,408.959908 C662.354191,419.36078 670.896147,419.269214 674.807202,408.868342 C675.443011,421.573998 684.649526,413.734596 684.649526,413.734596 L676.381797,443.061197" stroke="#CD1D55" stroke-width="2" fill="#E15984"></path>
        <path d="M664.164378,438.147739 L661.368065,417.376884 C661.368065,417.376884 663.294325,419.220388 666.662843,419.220388 C670.031361,419.220388 671.882273,417.376884 671.882273,417.376884 L669.08596,438.147739 L664.164378,438.147739 Z" stroke="#CD1D55" stroke-width="2" fill="#E15984"></path>
        <path d="M658.948593,416.626131 C658.948593,416.626131 656.07718,420.870439 652.606225,418.308066 L658.40318,442.652261 L662.870095,440.94117 L658.948593,416.626131 Z" stroke="#CD1D55" stroke-width="2" fill="#E15984"></path>
        <path d="M674.301746,416.626131 C674.301746,416.626131 677.173158,420.870439 680.644114,418.308066 L674.847158,442.652261 L670.380244,440.94117 L674.301746,416.626131 Z" stroke="#CD1D55" stroke-width="2" fill="#E15984"></path>
        <ellipse stroke="#CD1D55" stroke-width="2" fill="#E15984" cx="648.600812" cy="413.623116" rx="1.50338295" ry="1.50251256"></ellipse>
        <ellipse stroke="#CD1D55" stroke-width="2" fill="#E15984" cx="657.863329" cy="408.61809" rx="1.50338295" ry="1.50251256"></ellipse>
        <ellipse stroke="#CD1D55" stroke-width="2" fill="#E15984" cx="684.649526" cy="413.623116" rx="1.50338295" ry="1.50251256"></ellipse>
        <ellipse stroke="#CD1D55" stroke-width="2" fill="#E15984" cx="675.387009" cy="408.61809" rx="1.50338295" ry="1.50251256"></ellipse>
        <ellipse stroke="#DEC54B" stroke-width="2" fill="#F5E598" cx="666.374831" cy="315.274372" rx="13.5182679" ry="13.5135678"></ellipse>
        <ellipse stroke="#DEC54B" stroke-width="2" fill="#F5E598" cx="666.374831" cy="308.517588" rx="6.75913396" ry="6.75678392"></ellipse>
        <ellipse stroke="#DEC54B" stroke-width="2" fill="#F5E698" cx="666.750338" cy="532.367337" rx="7.635318" ry="7.63266332"></ellipse>
        <path d="M705.588713,531.094555 C706.205131,531.029063 706.365058,530.603998 705.94174,530.149849 C705.94174,530.149849 705.740317,529.931848 705.70049,529.893539 C699.461687,523.89256 704.339532,482.551007 696.296664,468.51147 C687.813362,453.703119 675.942895,451.911558 666.750338,451.911558 C657.557782,451.911558 645.687315,453.703119 637.204013,468.51147 C629.161144,482.551007 634.038989,523.89256 627.800186,529.893539 C627.760359,529.931848 627.558937,530.149849 627.558937,530.149849 C627.135618,530.603998 627.295546,531.029063 627.911964,531.094555 C627.911964,531.094555 641.471083,532.742714 666.750338,532.742714 C692.029594,532.742714 705.588713,531.094555 705.588713,531.094555 Z" stroke="#DEC54B" stroke-width="2" fill="#F5E698"></path>
        <path d="M648.668137,516.699822 C644.442774,521.503325 638.285391,523.63001 630.195988,523.079876 C629.327393,523.917764 627.598661,525.03023 626.726753,525.421442 C626.00015,525.747458 624.979607,526.143785 626.00015,526.48647 C634.416399,529.312531 641.985834,528.042884 648.708453,522.67753 L648.708296,522.677327 C648.802285,522.604132 648.932197,522.598103 649.032561,522.662279 C654.116114,525.964202 659.980896,527.613924 666.625171,527.614163 C673.269451,527.614402 679.134238,525.965098 684.219531,522.666254 L684.217795,522.663538 C684.318152,522.599371 684.448051,522.605398 684.542037,522.678581 C691.2645,528.043302 698.833936,529.312532 707.250188,526.48647 C708.270731,526.143785 707.250188,525.747458 706.523585,525.421442 C705.651678,525.03023 703.922945,523.917764 703.054351,523.079876 C694.964948,523.63001 688.807565,521.503325 684.582202,516.699822 L684.58394,516.698304 C684.481811,516.581304 684.304172,516.56925 684.187173,516.671379 C684.184896,516.673365 684.182653,516.675389 684.180442,516.677448 C679.970262,520.665476 674.118639,522.659708 666.625169,522.659708 C659.131699,522.659708 653.280076,520.665476 649.070301,516.677014 L649.069897,516.677448 C648.956249,516.571601 648.778314,516.577926 648.672467,516.691573 C648.670408,516.693784 648.668385,516.696028 648.666398,516.698304 Z" stroke="#DEC54B" stroke-width="2" fill="#F5E698"></path>
        <path d="M675.113051,476.849436 C679.883674,479.120316 681.104456,492.105138 667.161544,497.629448 C667.095538,497.6556 667.014361,497.707538 666.875507,497.707538 C666.736653,497.707538 666.655477,497.6556 666.589471,497.629448 C652.646558,492.105138 653.867341,479.120316 658.637964,476.849436 C661.672912,475.40476 664.302275,476.054404 666.526053,478.798366 L666.525997,478.798411 C666.682474,478.99144 666.965805,479.021072 667.158834,478.864595 C667.183136,478.844895 667.205318,478.822713 667.225018,478.798411 C669.44874,476.054404 672.078103,475.40476 675.113051,476.849436 Z" fill="#F2D6D9"></path>
        <path d="M670.633373,476.450088 C671.362545,476.936436 671.843005,477.767295 671.843005,478.71055 C671.843005,480.209371 670.6299,481.424405 669.133461,481.424405 C668.191004,481.424405 667.360932,480.942466 666.875507,480.211219 C666.390083,480.942466 665.560011,481.424405 664.617554,481.424405 C663.121114,481.424405 661.90801,480.209371 661.90801,478.71055 C661.90801,477.767295 662.38847,476.936436 663.117642,476.450088 C661.885411,476.064386 660.368357,476.025746 658.637964,476.849436 C653.867341,479.120316 652.646558,492.105138 666.589471,497.629448 C666.655477,497.6556 666.736653,497.707538 666.875507,497.707538 C667.014361,497.707538 667.095538,497.6556 667.161544,497.629448 C681.104456,492.105138 679.883674,479.120316 675.113051,476.849436 C673.382658,476.025746 671.865604,476.064386 670.633373,476.450088 L670.633373,476.450088 Z M656.964285,474.59381 C662.275949,471.462727 666.897244,475.658431 666.853771,475.658431 C666.853771,475.658431 671.475066,471.462727 676.78673,474.59381 C683.065939,478.295235 684.573318,492.24098 667.394582,498.308821 C667.251979,498.359191 667.106796,498.458291 666.87504,498.458291 C666.643284,498.458291 666.499036,498.359191 666.356433,498.308821 C649.177697,492.24098 650.685076,478.295235 656.964285,474.59381 Z" stroke="#DEC54B" stroke-width="2" fill="#F5E698"></path>
        <path d="M636.10571,455.957833 C635.270904,455.876378 635.337707,456.396864 635.428158,456.577394 C635.520202,456.761102 639.717982,463.320976 651.451502,460.875799 C663.39835,458.386165 665.482705,449.607682 666.374831,443.830372 C666.292984,443.829823 659.020658,433.184115 645.143873,431.487037 C631.267087,429.789959 622.970886,432.759306 617.787529,424.989621 C615.03749,420.8674 610.600323,438.83409 629.917167,447.205318 C626.123016,445.554283 623.909587,443.818892 622.810049,442.982222 C621.710511,442.145552 621.843019,443.931637 621.843019,443.931637 C621.843019,443.931637 622.327822,457.802177 645.53428,456.28046 C639.898507,456.667201 636.940516,456.039287 636.10571,455.957833 Z" stroke="#D02F81" stroke-width="2" fill="#E464A6"></path>
        <path d="M696.643952,455.957833 C697.478758,455.876378 697.411954,456.396864 697.321503,456.577394 C697.22946,456.761102 693.03168,463.320976 681.298159,460.875799 C669.351312,458.386165 667.266957,449.607682 666.374831,443.830372 C666.456677,443.829823 673.729003,433.184115 687.605789,431.487037 C701.482575,429.789959 709.778776,432.759306 714.962133,424.989621 C717.712172,420.8674 722.149338,438.83409 702.832495,447.205318 C706.626646,445.554283 708.840074,443.818892 709.939613,442.982222 C711.039151,442.145552 710.906643,443.931637 710.906643,443.931637 C710.906643,443.931637 710.421839,457.802177 687.215382,456.28046 C692.851155,456.667201 695.809145,456.039287 696.643952,455.957833 Z" stroke="#D02F81" stroke-width="2" fill="#E464A6"></path>
        <path d="M666.25385,462.186787 C666.389466,462.115487 666.609312,462.115468 666.744972,462.186787 L678.924585,468.589859 C679.336518,468.80642 679.607018,468.612113 679.528007,468.151456 L677.201908,454.589533 C677.176006,454.438517 677.243927,454.229423 677.353678,454.122444 L687.207191,444.517837 C687.540452,444.192994 687.439231,443.8757 686.976683,443.808497 L673.359099,441.830019 C673.207463,441.807988 673.029587,441.67878 672.961761,441.541342 L666.872317,429.202117 C666.666363,428.784786 666.333331,428.782986 666.126491,429.202106 L660.037047,441.541151 C659.969239,441.67855 659.791396,441.807789 659.639733,441.829828 L646.023332,443.808486 C645.562804,443.875407 645.458184,444.191592 645.792858,444.517826 L655.645765,454.122253 C655.75548,454.229201 655.823432,454.438284 655.797525,454.589342 L653.471576,468.151445 C653.392909,468.610136 653.661283,468.807352 654.074963,468.589859 L666.25385,462.186787 Z" stroke="#E0D18A" stroke-width="2" fill="#F3EBC6"></path>
        <line x1="666.594046" y1="428.38794" x2="666.594046" y2="451.160804" stroke="#E0D18A" stroke-width="2"></line>
        <line x1="660.116373" y1="441.901508" x2="666.625169" y2="451.160804" stroke="#E0D18A" stroke-width="2"></line>
        <line x1="645.346414" y1="444.153769" x2="666.625169" y2="451.411055" stroke="#E0D18A" stroke-width="2"></line>
        <line x1="655.860622" y1="454.41407" x2="666.625169" y2="451.160804" stroke="#E0D18A" stroke-width="2"></line>
        <line x1="653.35724" y1="469.178894" x2="666.625169" y2="451.160804" stroke="#E0D18A" stroke-width="2"></line>
        <line x1="666.594046" y1="462.171859" x2="666.594046" y2="451.160804" stroke="#E0D18A" stroke-width="2"></line>
        <path d="M673.133965,441.901508 L666.625169,451.160804 L673.133965,441.901508 Z" stroke="#E0D18A" stroke-width="2"></path>
        <path d="M687.903924,444.153769 L666.625169,451.411055 L687.903924,444.153769 Z" stroke="#E0D18A" stroke-width="2"></path>
        <path d="M677.389716,454.41407 L666.625169,451.160804 L677.389716,454.41407 Z" stroke="#E0D18A" stroke-width="2"></path>
        <path d="M679.893099,469.178894 L666.625169,451.160804 L679.893099,469.178894 Z" stroke="#E0D18A" stroke-width="2"></path>
        <ellipse stroke="#E0D18A" stroke-width="2" fill="#F3EBC6" cx="666.5" cy="429.013568" rx="1.62719892" ry="1.62663317"></ellipse>
        <path d="M647.018724,444.781416 C647.296355,443.927251 646.828742,443.009827 645.97428,442.732292 C645.119818,442.454757 644.202074,442.922208 643.924443,443.776373 C643.646811,444.630538 644.114425,445.547962 644.968887,445.825497 C645.823349,446.103032 646.741092,445.635581 647.018724,444.781416 Z" stroke="#E0D18A" stroke-width="2" fill="#F3EBC6"></path>
        <path d="M654.438784,467.737888 C653.711791,467.20988 652.694262,467.370985 652.16607,468.097726 C651.637879,468.824466 651.799039,469.841641 652.526033,470.369649 C653.253026,470.897657 654.270555,470.736553 654.798747,470.009812 C655.326939,469.283071 655.165778,468.265896 654.438784,467.737888 Z" stroke="#E0D18A" stroke-width="2" fill="#F3EBC6"></path>
        <path d="M678.561216,467.737888 C677.834222,468.265896 677.673061,469.283071 678.201253,470.009812 C678.729445,470.736553 679.746974,470.897657 680.473967,470.369649 C681.200961,469.841641 681.362121,468.824466 680.83393,468.097726 C680.305738,467.370985 679.288209,467.20988 678.561216,467.737888 Z" stroke="#E0D18A" stroke-width="2" fill="#F3EBC6"></path>
        <path d="M686.231615,444.781416 C686.509246,445.635581 687.426989,446.103032 688.281451,445.825497 C689.135914,445.547962 689.603527,444.630538 689.325895,443.776373 C689.048264,442.922208 688.130521,442.454757 687.276059,442.732292 C686.421597,443.009827 685.953983,443.927251 686.231615,444.781416 Z" stroke="#E0D18A" stroke-width="2" fill="#F3EBC6"></path>
        <path d="M656.110961,503.555327 C651.941973,499.553019 647.86682,499.954384 643.885502,504.759422 C642.0497,506.975045 640.093572,507.573763 638.017119,506.555576 L638.017399,506.555011 C637.878282,506.485976 637.709542,506.542789 637.640508,506.681906 C637.607368,506.74869 637.602105,506.825901 637.625876,506.896564 C638.274181,508.762051 639.464475,510.028781 641.197619,510.696462 C641.401462,511.982164 640.025176,513.39336 637.06876,514.930051 L637.068442,514.929419 C636.929705,514.999213 636.873815,515.168261 636.943609,515.306999 C636.97927,515.377887 637.043222,515.430408 637.119691,515.451608 C641.002294,516.488759 644.143394,515.539922 646.542793,512.605806 C649.349982,509.173022 652.533976,508.600891 656.094773,510.889414 L656.110961,503.555327 Z" stroke="#DEC54B" stroke-width="2" fill="#F5E698"></path>
        <path d="M677.389716,503.555327 C677.389716,503.555327 683.643198,497.551865 689.615174,504.759422 C692.629976,508.397975 695.831045,506.355496 695.831045,506.355496 C695.967132,506.281957 696.042168,506.343421 695.994225,506.491384 C695.994225,506.491384 695.204539,509.578687 692.303058,510.696462 C691.976144,512.758411 696.819814,515.123892 696.819814,515.123892 C696.956923,515.193941 696.945722,515.286569 696.798244,515.325979 C696.798244,515.325979 690.766879,517.263653 686.957883,512.605806 C682.7471,507.456629 677.405904,510.889414 677.405904,510.889414 L677.389716,503.555327 Z" stroke="#DEC54B" stroke-width="2" fill="#F5E698"></path>
        <path d="M669.128552,507.644831 C666.952977,511.175961 663.739382,513.661056 659.487767,515.100117 L659.488041,515.100931 C658.075298,515.577364 656.543818,514.818335 656.067384,513.405592 C656.014423,513.248549 655.976036,513.086962 655.95271,512.922878 C655.724632,511.324587 655.610284,509.565267 655.610284,507.644831 C655.610284,505.858561 655.709213,504.211681 655.907071,502.704192 L655.9075,502.704248 C656.103315,501.226247 657.460211,500.186829 658.938213,500.382643 C659.187643,500.41569 659.431228,500.483445 659.661897,500.583941 C663.8271,502.39628 666.982735,504.74972 669.128552,507.644831 Z" stroke="#DEC54B" stroke-width="2" fill="#F5E698"></path>
        <path d="M664.372124,507.645494 C668.346771,514.095384 674.360673,515.112811 674.360673,515.112811 C675.785691,515.542619 677.210444,514.702309 677.470474,513.216058 C677.470474,513.216058 677.890392,512.437058 677.890392,507.645494 C677.890392,502.853929 677.469783,502.07038 677.469783,502.07038 C677.177687,500.595537 675.808571,499.824391 674.437433,500.402969 C674.437433,500.402969 668.346771,502.284005 664.372124,507.645494 Z" stroke="#DEC54B" stroke-width="2" fill="#F5E698"></path>
        <ellipse stroke="#DEC54B" stroke-width="2" fill="#F5E698" cx="666.625169" cy="508.593467" rx="4.00541272" ry="4.12914573"></ellipse>
        <polygon stroke="#1D100E" fill="#402824" points="890 537 958 537 950 635 898 635"></polygon>
        <polygon stroke="#DBD6D6" fill="#FFFFFF" points="886 537 962 537 960 529 888 529"></polygon>
        <polygon stroke="#DBD6D6" fill="#FFFFFF" points="892 529 956 529 952 517 896 517"></polygon>
        <rect stroke="#BDBDBD" fill="#F2F2F2" x="486" y="630" width="220" height="6"></rect>
        <rect stroke="#D7D7D7" fill="#FFFFFF" x="726" y="630" width="120" height="6"></rect>
        <path d="M134.313293,368.937002 C134.313293,364.312267 138.073888,360.563177 142.711291,360.563177 L369.308529,360.563177 C373.946616,360.563177 377.706527,364.312184 377.706527,368.937002 L377.706527,519.390625 C377.706527,524.015361 373.945932,527.76445 369.308529,527.76445 L142.711291,527.76445 C138.073205,527.76445 134.313293,524.015443 134.313293,519.390625 L134.313293,368.937002 L134.313293,368.937002 Z" stroke="#CFD1D4" fill="#252525"></path>
        <path d="M106.00991,528.516463 C106.00991,527.071258 106.00991,525.626052 106.00991,524.180847 C106.00991,523.628562 106.457625,523.180847 107.00991,523.180847 L404.871168,523.180847 C405.423453,523.180847 405.871168,523.628562 405.871168,524.180847 C405.871168,525.626052 405.871168,527.071258 405.871168,528.516463 C405.871168,530.058156 396.060514,532.784956 383.573335,532.784956 C371.086156,532.784956 374.654398,532.784956 368.410809,532.784956 C355.925069,532.784956 343.437759,532.784956 330.950449,532.784956 C305.917415,532.784956 280.928977,532.784956 255.940539,532.784956 C230.953089,532.784956 205.965639,532.784956 181.01982,532.784956 C168.518492,532.784956 156.017163,532.784956 143.559461,532.784956 C137.301283,532.784956 141.775482,532.784956 128.396934,532.784956 C115.018387,532.784956 106.00991,530.058156 106.00991,528.516463 Z" stroke="#9C9DA2" fill="#DDDEE3"></path>
        <path d="M107.00991,523.180847 L404.871168,523.180847 C405.423453,523.180847 405.871168,523.628562 405.871168,524.180847 L405.871168,528.427272 C405.871168,528.476531 405.831236,528.516463 405.781977,528.516463 L106.099101,528.516463 C106.049842,528.516463 106.00991,528.476531 106.00991,528.427272 L106.00991,524.180847 C106.00991,523.628562 106.457625,523.180847 107.00991,523.180847 Z" stroke="#CFD1D4" fill="#EEEEEE"></path>
        <polygon stroke="#E4B0B5" fill="#F2D6D9" points="144.932413 372.448228 367.087408 372.448228 367.087408 510.898935 144.932413 510.898935"></polygon>
        <path d="M285.958524,390.743084 C294.561303,395.78461 300.025607,406.230941 300.000002,417.682272 C299.973015,429.666301 294.13204,441.392711 282.762601,450.610093 L282.378,450.918 L282.360482,451.061062 C282.073529,453.138112 281.130262,455.209928 279.567913,457.028421 L279.559,457.037 L279.551488,457.091848 C279.511859,457.323548 279.458081,457.571717 279.387584,457.834393 L279.311419,458.101832 C278.975229,459.218505 278.408554,460.321319 277.561627,461.338018 C276.397069,462.736019 274.856121,463.800641 272.94691,464.494208 L272.654,464.596 L272.780977,464.822953 C274.368919,467.728821 274.988992,471.492149 275.344126,477.642115 L275.373934,478.175136 C275.418834,479.004082 275.438028,479.407961 275.520507,481.203882 C275.627536,483.534332 275.71446,485.064999 275.823342,486.239323 L275.836,486.378 L275.88029,486.401831 C276.28099,486.622954 276.629014,486.863681 276.987134,487.247996 L277.141415,487.421854 C278.241357,488.720916 278.557572,490.686528 277.399267,492.37243 L277.328,492.47 L277.332938,492.498708 C277.62553,494.578644 276.492812,496.739271 273.847117,497.127732 L273.623138,497.155962 C272.823588,497.252767 271.323968,497.391289 269.148806,497.527589 C267.274675,497.645025 265.212011,497.738323 262.964821,497.800315 L262.568,497.81 L262.493111,497.921012 C261.223836,499.7236 259.152163,500.918328 256.804,500.995973 L256.560122,501 C254.111908,501 251.940176,499.785758 250.627133,497.921012 L250.551,497.81 L250.155423,497.800315 C248.15792,497.745211 246.306217,497.665371 244.603125,497.56583 L243.971438,497.527589 C241.796276,497.391289 240.296655,497.252767 239.556935,497.16275 C237.00016,496.892175 235.480313,494.663538 235.753156,492.463258 L235.758,492.425 L235.720976,492.37243 C234.605572,490.748969 234.857486,488.866133 235.859873,487.568889 L235.978828,487.421854 C236.392868,486.932861 236.782011,486.654543 237.239954,486.401831 L237.264,486.388 L237.282137,486.206676 C237.388521,485.087839 237.474865,483.646793 237.577807,481.506706 L237.596153,481.12171 C237.657449,479.823889 237.683739,479.273906 237.711115,478.751417 L237.723019,478.527076 C237.72911,478.413648 237.735487,478.296756 237.742505,478.169314 C238.099358,471.689809 238.707497,467.808456 240.339385,464.822717 L240.465,464.596 L240.173334,464.494208 C238.37019,463.839172 236.895528,462.853165 235.756193,461.567925 L235.558617,461.338018 C234.71169,460.321319 234.145014,459.218505 233.808825,458.101832 C233.699587,457.738993 233.621594,457.400782 233.568755,457.091848 L233.56,457.038 L233.526237,456.999832 C232.029955,455.247517 231.107608,453.260368 230.791525,451.255442 L230.759,451.027 L230.34506,450.697118 C219.082625,441.609832 213.210517,430.069903 213.005552,418.239594 L213.000002,417.732409 C212.958584,406.262047 218.425437,395.792381 227.041476,390.743084 C233.078001,387.205472 239.343889,386.293105 245.481943,387.500798 C249.109767,388.214591 252.414085,389.600265 255.281341,391.345408 L255.604,391.545 L256.018506,391.518196 L256.439878,391.509227 C256.692883,391.509227 256.944884,391.518906 257.195427,391.53813 L257.342,391.552 L257.68154,391.343826 C260.419994,389.68981 263.516314,388.367293 266.916589,387.624146 L267.486107,387.505695 C273.638953,386.290838 279.912788,387.200074 285.958524,390.743084 Z M260.26572,440.248494 C259.801095,440.248494 259.424442,440.623725 259.424442,441.086596 C259.424442,441.385142 259.581133,441.647229 259.817054,441.795691 C258.135082,445.464795 254.962014,445.477135 253.296514,441.773514 C253.513684,441.621961 253.65568,441.370799 253.65568,441.086596 C253.65568,440.623725 253.279027,440.248494 252.814402,440.248494 C252.349777,440.248494 251.973124,440.623725 251.973124,441.086596 C251.973124,441.549468 252.349777,441.924699 252.814402,441.924699 C252.886768,441.924699 252.957,441.915596 253.024007,441.898478 C252.620363,445.195337 250.564211,444.407412 249.507637,443.762411 C249.62159,443.619412 249.689655,443.438483 249.689655,443.241717 C249.689655,442.778846 249.313002,442.403614 248.848377,442.403614 C248.383752,442.403614 248.007099,442.778846 248.007099,443.241717 C248.007099,443.704588 248.383752,444.079819 248.848377,444.079819 C248.930314,444.079819 249.009515,444.06815 249.084397,444.046388 L250.673,449.673 L251.287328,449.962533 C252.695874,450.613084 254.169384,451.242325 255.70991,451.847783 C255.892231,451.919439 256.116457,452.061747 256.5,452.061747 C256.883543,452.061747 257.107769,451.919439 257.29009,451.847783 C258.830616,451.242325 260.304126,450.613084 261.712672,449.962533 L262.477,449.602 L264.042322,444.058489 C264.072763,444.065467 264.103835,444.070799 264.135438,444.074388 L264.231744,444.079819 C264.696369,444.079819 265.073022,443.704588 265.073022,443.241717 C265.073022,442.778846 264.696369,442.403614 264.231744,442.403614 C263.767119,442.403614 263.390467,442.778846 263.390467,443.241717 C263.390467,443.437775 263.458042,443.618109 263.571256,443.760865 C262.504151,444.39376 260.534966,445.085008 260.123869,441.912835 C260.169983,441.920636 260.217375,441.924699 260.26572,441.924699 C260.730345,441.924699 261.106998,441.549468 261.106998,441.086596 C261.106998,440.623725 260.730345,440.248494 260.26572,440.248494 Z M265.844967,404.293995 L265.696,404.373 L265.637129,404.546569 C264.304056,408.244526 260.804887,410.875699 256.713491,410.98835 L256.439871,410.992113 C252.187633,410.992113 248.53495,408.272255 247.204036,404.437684 L247.157,404.297 L247.024385,404.227052 C243.413769,402.370502 239.606672,402.144403 235.45414,404.105153 C230.361942,406.509595 227.408543,413.903467 229.243591,421.934015 C230.871495,429.058057 235.83602,435.830165 244.200228,441.454355 L244.318,441.533 L244.368382,441.404148 C245.066892,439.705079 246.704921,438.492749 248.632987,438.408321 L248.785,438.404 L248.815001,438.359248 C249.64954,437.139627 251.027995,436.321994 252.599012,436.253201 L252.814402,436.248494 C254.257853,436.248494 255.555361,436.8804 256.442948,437.883617 L256.54,437.998 L256.637174,437.883617 C257.480382,436.930561 258.693543,436.312613 260.05033,436.253201 L260.26572,436.248494 C261.925689,436.248494 263.392648,437.08419 264.26512,438.359248 L264.295,438.404 L264.447135,438.408321 C266.3752,438.492749 268.013229,439.705079 268.71174,441.404148 L268.745,441.49 L268.799772,441.454355 C277.01724,435.928835 281.953265,429.295321 283.667648,422.308636 L283.756409,421.934015 C285.591457,413.903467 282.638058,406.509595 277.54586,404.105153 C273.342181,402.120253 269.491501,402.375931 265.844967,404.293995 Z" fill="#FFFFFF" fill-rule="nonzero"></path>
        <path d="M229.063912,394.194784 C211.681906,404.383308 207.509205,442.770295 255.063107,459.472604 C255.457857,459.611252 255.857163,459.884036 256.498705,459.884036 C257.140248,459.884036 257.542143,459.611252 257.936893,459.472604 C305.490795,442.770295 301.318094,404.383308 283.936088,394.194784 C269.232424,385.576179 256.439829,397.125254 256.439829,397.125254 C256.560171,397.125254 243.767576,385.576179 229.063912,394.194784 Z M279.253766,400.540046 C292.431195,406.76555 295.803243,436.782868 257.29009,451.927487 C257.107769,451.999181 256.883543,452.141566 256.5,452.141566 C256.116457,452.141566 255.892231,451.999181 255.70991,451.927487 C217.196757,436.782868 220.568805,406.76555 233.746234,400.540046 C242.440915,396.432357 249.930473,398.500804 256.214909,406.745384 L256.21405,406.746042 C256.335004,406.903968 256.561081,406.93394 256.719007,406.812986 C256.744169,406.793714 256.766678,406.771205 256.78595,406.746042 C263.069527,398.500804 270.559085,396.432357 279.253766,400.540046 Z" stroke="#BF293E" stroke-width="2" fill="#DD5064"></path>
        <path d="M252.416595,455.813253 L248.888438,443.318612 C248.888438,443.318612 252.817211,446.658601 253.088535,441.245337 C254.757532,445.676644 258.402712,445.637632 260.071709,441.206325 C260.343033,446.619589 264.271805,443.2796 264.271805,443.2796 L260.743649,455.774241" stroke="#CD1D55" stroke-width="2" fill="#E15984"></path>
        <ellipse stroke="#CD1D55" stroke-width="2" fill="#E15984" cx="248.848377" cy="443.241717" rx="1.081643" ry="1.07756024"></ellipse>
        <ellipse stroke="#CD1D55" stroke-width="2" fill="#E15984" cx="252.854462" cy="441.086596" rx="1.081643" ry="1.07756024"></ellipse>
        <ellipse stroke="#CD1D55" stroke-width="2" fill="#E15984" cx="264.231744" cy="443.241717" rx="1.081643" ry="1.07756024"></ellipse>
        <ellipse stroke="#CD1D55" stroke-width="2" fill="#E15984" cx="260.305781" cy="441.086596" rx="1.081643" ry="1.07756024"></ellipse>
        <ellipse stroke="#DEC54B" stroke-width="2" fill="#F5E598" cx="256.419878" cy="401.296687" rx="5.76876268" ry="5.74698795"></ellipse>
        <ellipse stroke="#DEC54B" stroke-width="2" fill="#F5E598" cx="256.419878" cy="398.423193" rx="2.88438134" ry="2.87349398"></ellipse>
        <ellipse stroke="#DEC54B" stroke-width="2" fill="#F5E698" cx="256.540061" cy="493.767319" rx="3.24492901" ry="3.23268072"></ellipse>
        <path d="M273.153944,493.185584 C273.416993,493.157711 273.48524,492.976801 273.304594,492.783513 C273.304594,492.783513 273.218639,492.690731 273.201643,492.674427 C270.539307,490.120383 272.62087,472.525229 269.18867,466.549938 C265.568521,460.247436 260.502938,459.48494 256.580122,459.48494 C252.657306,459.48494 247.591723,460.247436 243.971573,466.549938 C240.539373,472.525229 242.620936,490.120383 239.9586,492.674427 C239.941604,492.690731 239.85565,492.783513 239.85565,492.783513 C239.675003,492.976801 239.743251,493.157711 240.0063,493.185584 C240.0063,493.185584 245.792495,493.887048 256.580122,493.887048 C267.367748,493.887048 273.153944,493.185584 273.153944,493.185584 Z" stroke="#DEC54B" stroke-width="2" fill="#F5E698"></path>
        <path d="M248.90428,487.03916 C247.098441,489.081009 244.467247,489.984981 241.010697,489.751074 C240.639469,490.107408 239.900628,489.580512 239.527985,489.746885 C239.217443,489.885532 238.781274,490.05408 239.217443,490.199815 C242.815036,491.401864 246.050592,490.861545 248.924112,488.578859 L248.924777,488.579721 C248.965044,488.548655 249.020515,488.54633 249.06324,488.573917 C251.235129,489.978054 253.741135,490.679294 256.580123,490.679395 C259.419113,490.679497 261.92512,489.978435 264.098146,488.57621 L264.097011,488.574453 C264.139734,488.546869 264.195199,488.549193 264.235465,488.580254 C267.10965,490.861723 270.345206,491.401864 273.9428,490.199815 C274.378969,490.05408 273.9428,489.885532 273.632258,489.746885 C273.259615,489.580512 272.520774,490.107408 272.149546,489.751074 C268.692996,489.984981 266.061802,489.081009 264.255964,487.03916 L264.257228,487.038073 C264.214007,486.987787 264.138205,486.98206 264.087919,487.025281 C264.086964,487.026102 264.086021,487.026938 264.085092,487.027789 C262.284907,488.723869 259.783542,489.572387 256.580122,489.572387 C253.376702,489.572387 250.875337,488.723869 249.076028,487.026832 L249.075151,487.027789 C249.02625,486.983007 248.950305,486.986346 248.905523,487.035246 C248.904672,487.036175 248.903836,487.037118 248.903015,487.038073 Z" stroke="#DEC54B" stroke-width="2" fill="#F5E698"></path>
        <path d="M260.14501,468.9848 C262.18635,469.953357 262.70872,475.491535 256.742577,477.847718 C256.714333,477.858872 256.679598,477.881024 256.620183,477.881024 C256.560767,477.881024 256.526032,477.858872 256.497788,477.847718 C250.531645,475.491535 251.054015,469.953357 253.095355,468.9848 C254.393554,468.368842 255.518324,468.645518 256.469665,469.814828 L256.470577,469.814094 C256.537126,469.896718 256.658055,469.909751 256.74068,469.843202 C256.751397,469.83457 256.761156,469.824811 256.769788,469.814094 C257.722041,468.645518 258.846811,468.368842 260.14501,468.9848 Z" fill="#F2D6D9"></path>
        <path d="M253.617053,469.441261 C255.247973,468.478383 256.666917,469.768656 256.653569,469.768656 C256.653569,469.768656 258.072514,468.478383 259.703434,469.441261 C261.631433,470.579532 262.094265,474.868159 256.819622,476.734155 C256.775837,476.749645 256.731259,476.78012 256.6601,476.78012 C256.58894,476.78012 256.54465,476.749645 256.500864,476.734155 C251.226221,474.868159 251.689054,470.579532 253.617053,469.441261 Z" stroke="#DEC54B" stroke-width="2"></path>
        <path d="M243.61564,461.224478 C243.258086,461.18972 243.286698,461.411818 243.325439,461.488852 C243.364862,461.567243 245.162801,464.366421 250.188353,463.323034 C255.305273,462.260677 256.198018,458.514792 256.580122,456.049543 C256.545066,456.049309 253.430277,451.506656 247.48675,450.782492 C241.543223,450.058329 237.9899,451.325385 235.769831,448.009966 C234.591969,446.250965 232.691499,453.917569 240.965042,457.489674 C239.33998,456.785157 238.391953,456.044644 237.921012,455.687627 C237.450072,455.33061 237.506826,456.092754 237.506826,456.092754 C237.506826,456.092754 237.714471,462.011482 247.653964,461.362147 C245.240122,461.527174 243.973193,461.259236 243.61564,461.224478 Z" stroke="#D02F81" stroke-width="2" fill="#E464A6"></path>
        <path d="M269.544604,461.224478 C269.902157,461.18972 269.873545,461.411818 269.834804,461.488852 C269.795381,461.567243 267.997442,464.366421 262.971891,463.323034 C257.85497,462.260677 256.962226,458.514792 256.580122,456.049543 C256.615177,456.049309 259.729967,451.506656 265.673494,450.782492 C271.617021,450.058329 275.170343,451.325385 277.390412,448.009966 C278.568274,446.250965 280.468744,453.917569 272.195201,457.489674 C273.820263,456.785157 274.768291,456.044644 275.239231,455.687627 C275.710171,455.33061 275.653417,456.092754 275.653417,456.092754 C275.653417,456.092754 275.445772,462.011482 265.50628,461.362147 C267.920122,461.527174 269.18705,461.259236 269.544604,461.224478 Z" stroke="#D02F81" stroke-width="2" fill="#E464A6"></path>
        <path d="M256.474451,464.041549 C256.53267,464.010941 256.627049,464.010933 256.685287,464.041549 L261.913917,466.790307 C262.090757,466.883274 262.206881,466.799861 262.172962,466.602106 L261.174383,460.780143 C261.163263,460.715314 261.192421,460.625552 261.239536,460.579628 L265.469587,456.456491 C265.612654,456.31704 265.5692,456.180829 265.370631,456.15198 L259.524689,455.302644 C259.459593,455.293187 259.383232,455.237719 259.354114,455.178719 L256.739955,449.881645 C256.65154,449.70249 256.508572,449.701717 256.419777,449.88164 L253.805617,455.178637 C253.776508,455.237621 253.700161,455.293101 253.635053,455.302562 L247.789619,456.151975 C247.591917,456.180704 247.547005,456.316438 247.690678,456.456486 L251.920468,460.579546 C251.967568,460.625457 251.996739,460.715214 251.985618,460.780061 L250.987102,466.602101 C250.953331,466.799012 251.068542,466.883674 251.246133,466.790307 L256.474451,464.041549 Z" stroke="#E0D18A" stroke-width="2" fill="#F3EBC6"></path>
        <ellipse stroke="#E0D18A" stroke-width="2" fill="#F3EBC6" cx="256.580122" cy="449.826807" rx="1" ry="1"></ellipse>
        <path d="M248.211986,456.593918 C248.335019,456.216691 248.127796,455.811527 247.74914,455.688959 C247.370484,455.56639 246.963785,455.772832 246.840752,456.150058 C246.717719,456.527285 246.924943,456.932449 247.303599,457.055017 C247.682255,457.177586 248.088954,456.971144 248.211986,456.593918 Z" stroke="#E0D18A" stroke-width="2" fill="#F3EBC6"></path>
        <path d="M251.395422,466.406817 C251.073253,466.173631 250.622334,466.24478 250.388265,466.565732 C250.154197,466.886684 250.225615,467.335902 250.547783,467.569087 C250.869951,467.802272 251.320871,467.731123 251.554939,467.410171 C251.789008,467.089219 251.71759,466.640002 251.395422,466.406817 Z" stroke="#E0D18A" stroke-width="2" fill="#F3EBC6"></path>
        <path d="M261.764822,466.406817 C261.442654,466.640002 261.371235,467.089219 261.605304,467.410171 C261.839373,467.731123 262.290292,467.802272 262.61246,467.569087 C262.934628,467.335902 263.006047,466.886684 262.771978,466.565732 C262.537909,466.24478 262.08699,466.173631 261.764822,466.406817 Z" stroke="#E0D18A" stroke-width="2" fill="#F3EBC6"></path>
        <path d="M264.948257,456.593918 C265.07129,456.971144 265.477989,457.177586 265.856645,457.055017 C266.235301,456.932449 266.442524,456.527285 266.319492,456.150058 C266.196459,455.772832 265.78976,455.56639 265.411104,455.688959 C265.032448,455.811527 264.825224,456.216691 264.948257,456.593918 Z" stroke="#E0D18A" stroke-width="2" fill="#F3EBC6"></path>
        <path d="M252.013185,480.20464 C250.234118,478.487884 248.495094,478.660046 246.796113,480.721126 C246.012393,481.671879 245.177283,481.92852 244.290786,481.491047 L244.291478,481.489673 C244.232266,481.459829 244.160072,481.483636 244.130228,481.542848 C244.115977,481.571122 244.113472,481.603882 244.123259,481.633994 C244.399887,482.436243 244.908282,482.980905 245.64909,483.267769 C245.736206,483.820072 245.147034,484.426363 243.881574,485.086642 L243.8812,485.085947 C243.822815,485.117379 243.800965,485.190189 243.832396,485.248574 C243.848098,485.277742 243.875154,485.299126 243.907161,485.307666 C245.564902,485.75258 246.905846,485.345723 247.930081,484.086766 C249.128016,482.614302 250.486748,482.368892 252.006277,483.350534 L252.013185,480.20464 Z" stroke="#DEC54B" stroke-width="2" fill="#F5E698"></path>
        <path d="M261.066937,480.20464 C261.066937,480.20464 263.735537,477.629506 266.284008,480.721126 C267.57054,482.281853 268.936558,481.405749 268.936558,481.405749 C268.994632,481.374205 269.026653,481.400569 269.006194,481.464037 C269.006194,481.464037 268.669205,482.788309 267.431031,483.267769 C267.291525,484.152225 269.358504,485.166878 269.358504,485.166878 C269.417014,485.196925 269.412234,485.236657 269.3493,485.253562 C269.3493,485.253562 266.775485,486.084711 265.150041,484.086766 C263.353138,481.878071 261.073845,483.350534 261.073845,483.350534 L261.066937,480.20464 Z" stroke="#DEC54B" stroke-width="2" fill="#F5E698"></path>
        <path d="M257.621704,482.041637 C256.693579,483.542892 255.322754,484.59956 253.50923,485.21164 L253.509163,485.211443 C252.906143,485.415326 252.252018,485.091762 252.048135,484.488741 C252.025671,484.422302 252.009319,484.353951 251.999281,484.284539 C251.901659,483.60533 251.852941,482.857687 251.852941,482.041637 C251.852941,481.28397 251.894937,480.585273 251.978929,479.945544 L251.978973,479.94555 C252.062023,479.314436 252.640967,478.870143 253.272081,478.953192 C253.378238,478.967162 253.481931,478.995856 253.580168,479.038446 C255.358559,479.808953 256.705725,480.810046 257.621704,482.041637 Z" stroke="#DEC54B" stroke-width="2" fill="#F5E698"></path>
        <path d="M255.53854,482.041918 C257.234673,484.784898 259.801036,485.217585 259.801036,485.217585 C260.409146,485.400371 261.017142,485.043008 261.128107,484.410942 C261.128107,484.410942 261.307302,484.079653 261.307302,482.041918 C261.307302,480.004184 261.127812,479.670959 261.127812,479.670959 C261.003163,479.043745 260.418909,478.715796 259.833792,478.961851 C259.833792,478.961851 257.234673,479.761809 255.53854,482.041918 Z" stroke="#DEC54B" stroke-width="2" fill="#F5E698"></path>
        <ellipse stroke="#DEC54B" stroke-width="2" fill="#F5E698" cx="256.540061" cy="482.391855" rx="1.72261663" ry="1.7560241"></ellipse>
        <polygon stroke="#C0C0C0" fill="#ECECEC" points="154 536 180 536 188 624 186 636 160 636 162 624"></polygon>
        <polygon stroke="#C0C0C0" fill="#ECECEC" points="332 536 358 536 350 624 352 636 326 636 324 624"></polygon>
        <rect stroke="#FFFFFF" fill-opacity="0.75" fill="#FFFFFF" x="146" y="628" width="220" height="8" rx="4"></rect>
        <polygon stroke="#FFFFFF" fill-opacity="0.75" fill="#FFFFFF" points="148 526 170 526 172 530.5 174 531 174 538 144 538 144 531 146 530.5"></polygon>
        <polygon stroke="#FFFFFF" fill-opacity="0.75" fill="#FFFFFF" points="342 526 364 526 366 530.5 368 531 368 538 338 538 338 531 340 530.5"></polygon>
        <path d="M82,626 L88,626 C88.5522847,626 89,626.447715 89,627 C89,627.552285 88.5522847,628 88,628 L82,628 C81.4477153,628 81,627.552285 81,627 C81,626.447715 81.4477153,626 82,626 Z" stroke="#FFFFFF" fill-opacity="0.75" fill="#FFFFFF"></path>
        <path d="M62,630 L108,630 C109.656854,630 111,631.343146 111,633 C111,634.656854 109.656854,636 108,636 L62,636 C60.3431458,636 59,634.656854 59,633 C59,631.343146 60.3431458,630 62,630 Z" stroke="#F1B8AC" fill="#FFD2C9"></path>
        <path d="M59.2985075,614.401342 L59.2985075,526.828396 C59.2985075,521.641968 61.985541,518 68.2537313,518 C74.5415112,518 99.3445637,518 101.925373,518 C106.032649,518 110.761194,519.765031 110.761194,526.828396 L110.761194,614.401342 C110.761194,617.338817 109.916161,623.229737 101.746269,623.229737 L68.2537313,623.229737 C60.1789879,623.229737 59.2985075,617.371528 59.2985075,614.401342 Z" stroke="#FFD2C9" fill="#FFFFFF"></path>
        <path d="M85.0298507,619.008105 L85.0298507,619.008105 C86.3075244,619.008105 87.3432836,617.980162 87.3432836,616.71213 C87.3432836,615.444097 86.3075244,614.416154 85.0298507,614.416154 C83.7521771,614.416154 82.7164179,615.444097 82.7164179,616.71213 C82.7164179,617.980162 83.7521771,619.008105 85.0298507,619.008105 L85.0298507,619.008105 Z" stroke="#FFD2C9" fill="#FFFFFF" fill-rule="nonzero"></path>
        <rect stroke="#0A0C0F" fill="#1D2129" x="65.9253731" y="532.754612" width="38.2089552" height="76.5500279"></rect>
        <path d="M980,570 C982.209139,570 984,571.790861 984,574 L984,626 C984,628.209139 982.209139,630 980,630 C977.790861,630 976,628.209139 976,626 L976,574 C976,571.790861 977.790861,570 980,570 Z" stroke="#C0C0C0" fill="#ECECEC"></path>
        <path d="M1053.219,232 L1054,232 C1055.77781,232 1057.219,233.441197 1057.219,235.219003 C1057.219,235.450496 1057.19403,235.681313 1057.14452,235.907449 L984.688446,566.855477 C984.28648,568.691482 982.660489,570 980.780997,570 L980,570 C978.222194,570 976.780997,568.558803 976.780997,566.780997 C976.780997,566.549504 976.805968,566.318687 976.855477,566.092551 L1049.31155,235.144523 C1049.71352,233.308518 1051.33951,232 1053.219,232 Z" stroke="#C0C0C0" fill="#ECECEC"></path>
        <rect stroke="#C0C0C0" fill="#ECECEC" x="1050" y="230" width="18" height="8" rx="4"></rect>
        <rect stroke="#C0C0C0" fill="#ECECEC" x="1064" y="228" width="80" height="12" rx="6"></rect>
        <path d="M972.748535,632 L987.251465,632 C988.356034,632 989.251465,632.895431 989.251465,634 C989.251465,635.104569 988.356034,636 987.251465,636 L972.748535,636 C971.643966,636 970.748535,635.104569 970.748535,634 C970.748535,632.895431 971.643966,632 972.748535,632 Z" stroke="#C0C0C0" fill="#ECECEC"></path>
        <path d="M976.832357,624 L983.167643,624 C984.824497,624 986.167643,625.343146 986.167643,627 C986.167643,628.656854 984.824497,630 983.167643,630 L976.832357,630 C975.175503,630 973.832357,628.656854 973.832357,627 C973.832357,625.343146 975.175503,624 976.832357,624 Z" stroke="#C0C0C0" fill="#ECECEC"></path>
        <path d="M974,566 C975.104569,566 976,566.895431 976,568 L976,572 C976,573.104569 975.104569,574 974,574 C972.895431,574 972,573.104569 972,572 L972,568 C972,566.895431 972.895431,566 974,566 Z" stroke="#C0C0C0" fill="#ECECEC"></path>
        <path d="M986,566 C987.104569,566 988,566.895431 988,568 L988,572 C988,573.104569 987.104569,574 986,574 C984.895431,574 984,573.104569 984,572 L984,568 C984,566.895431 984.895431,566 986,566 Z" stroke="#C0C0C0" fill="#ECECEC"></path>
        <polygon stroke="#FFFFFF" fill-opacity="0.840000033" fill="#FFFFFF" points="1064.57422 548.234375 1066.8125 489.234375 1072.57422 475.660156 1084.41016 475.660156 1097.15234 485.15625 1083.35547 548.234375"></polygon>
        <rect stroke="#96B875" fill="#C0DBA5" x="1036" y="536" width="80" height="100" rx="4"></rect>
        <line x1="1062.29358" y1="619.518188" x2="1061.28577" y2="631.981079" stroke="#71525C" fill="#F1EAE1"></line>
        <line x1="1067.45276" y1="619.500244" x2="1068.46057" y2="631.963135" stroke="#71525C" fill="#F1EAE1"></line>
        <line x1="1062.37109" y1="618.648926" x2="1061.36328" y2="631.111816" stroke="#CFC0AF" fill="#F1EAE1"></line>
        <line x1="1067.36328" y1="618.648926" x2="1068.37109" y2="631.111816" stroke="#CFC0AF" fill="#F1EAE1"></line>
        <path d="M1061.20508,595.554199 C1059.23861,601.923665 1057.27734,605.835612 1055.32129,607.290039" stroke="#71525C"></path>
        <path d="M1068.66003,595.554199 C1070.62651,601.923665 1072.58777,605.835612 1074.54382,607.290039" stroke="#71525C"></path>
        <path d="M1065.48535,627.861328 C1068.43213,623.608887 1069.68164,617.383789 1069.68164,613.813965" stroke="#E39EB4" fill="#F3C9D6"></path>
        <path d="M1064.80371,590.597656 C1065.8059,593.171453 1062.17992,596.817937 1061.92578,597.537109 C1061.54457,598.615867 1063.1964,601.62466 1062.80371,603.560547 C1062.3959,605.570965 1061.88201,606.724392 1060.01416,610.47168 C1058.76893,612.969871 1060.01416,621.676758 1056.63721,624.235352 C1058.7937,624.235352 1060.31934,625.537842 1063.48535,627.861328 C1066.43213,623.608887 1069.19629,617.041992 1069.19629,613.472168 C1071.64648,616.405273 1072.1267,627.116621 1072.47998,626.96875 C1072.47998,623.219238 1071.23107,612.969871 1069.98584,610.47168 C1068.11799,606.724392 1067.6041,605.570965 1067.19629,603.560547 C1066.8036,601.62466 1068.45543,598.615867 1068.07422,597.537109 C1067.82008,596.817937 1064.1941,593.171453 1065.19629,590.597656 C1065.82612,593.890625 1065.87128,595.537109 1065.33179,595.537109 C1064.79229,595.537109 1064.61627,593.890625 1064.80371,590.597656 Z" stroke="#141414" fill="#252525"></path>
        <line x1="1065" y1="589" x2="1065" y2="593" stroke="#71525C"></line>
        <path d="M1065,590 C1068.24121,590 1072,587.970563 1072,583 C1072,578.029437 1069.97056,576 1065,576 C1060.02944,576 1058,578.029437 1058,583 C1058,587.970563 1061.75879,590 1065,590 Z" stroke="#CFC0AF" fill="#F1EAE1"></path>
        <path d="M1078.97072,572.16048 C1079.06819,574.385339 1078.61384,576.023033 1077.60766,577.073565 C1076.60148,578.124096 1075.20113,578.422866 1073.4066,577.969874 C1072.6288,576.180711 1072.80321,574.697991 1073.92982,573.521715 C1075.05643,572.345439 1076.73673,571.891694 1078.97072,572.16048 Z" stroke="#E39EB4" fill="#F3C9D6"></path>
        <path d="M1050.95406,572.23898 C1050.85933,574.401373 1051.30092,575.993088 1052.27885,577.014125 C1053.25678,578.035161 1054.61782,578.325543 1056.36196,577.885269 C1057.11792,576.146339 1056.94841,574.705248 1055.85343,573.561997 C1054.75845,572.418746 1053.12533,571.977741 1050.95406,572.23898 Z" stroke="#E39EB4" fill="#F3C9D6"></path>
        <path d="M1062.3269,581.082031 C1059.9021,580.044922 1057.81177,582.343262 1055.52124,584.681396 C1054.17847,576.190186 1060.74219,572.313599 1065,574.448486 C1069.25781,572.313599 1075.82153,576.190186 1074.47876,584.681396 C1072.18823,582.343262 1070.0979,580.044922 1067.6731,581.082031 C1068.96387,578.686279 1065.46399,578.697021 1065,577.365723 C1064.53601,578.697021 1061.03613,578.686279 1062.3269,581.082031 Z" stroke="#E39EB4" fill="#F3C9D6"></path>
        <path d="M1056.0102,581.219727 C1058.80093,590.806315 1056.88281,599.170573 1050.25586,606.3125" stroke="#E39EB4"></path>
        <path d="M1056.0102,581.219727 C1056.6093,585.034831 1056.24025,588.222005 1054.90305,590.78125" stroke="#E39EB4" fill="#F3C9D6"></path>
        <path d="M1073.7959,581.219727 C1073.1968,585.034831 1073.56585,588.222005 1074.90305,590.78125" stroke="#E39EB4" fill="#F3C9D6"></path>
        <path d="M1073.7959,581.219727 C1072.34408,584.686849 1071.83333,587.656576 1072.26367,590.128906 C1072.90918,593.837402 1082.26611,602.043457 1081.33984,606.704102" stroke="#E39EB4"></path>
        <line x1="1053" y1="636" x2="1076" y2="636" stroke="#FFFFFF" opacity="0.8"></line>
        <line x1="1000" y1="636" x2="1026" y2="636" stroke="#3B3434" opacity="0.5"></line>
        <path d="M1006.59033,597.213867 C1007.30811,600.524577 1006.92562,603.678304 1005.44287,606.675049 C1003.21875,611.170166 999.983887,612.316895 1000.67432,617.114746 C1003.85335,619.312663 1007.96191,620.631673 1013,621.071777 C1018.03809,620.631673 1022.14665,619.312663 1025.32568,617.114746 C1026.01611,612.316895 1022.78125,611.170166 1020.55713,606.675049 C1019.07438,603.678304 1018.69189,600.524577 1019.40967,597.213867" stroke="#42532F" fill="#6A7D53"></path>
        <line x1="1010.29358" y1="619.518188" x2="1009.28577" y2="631.981079" stroke="#252525" fill="#F1EAE1"></line>
        <line x1="1015.45276" y1="619.500244" x2="1016.46057" y2="631.963135" stroke="#252525" fill="#F1EAE1"></line>
        <line x1="1010.37109" y1="618.648926" x2="1009.36328" y2="631.111816" stroke="#CFC0AF" fill="#F1EAE1"></line>
        <line x1="1015.36328" y1="618.648926" x2="1016.37109" y2="631.111816" stroke="#CFC0AF" fill="#F1EAE1"></line>
        <circle stroke="#42532F" fill="#6A7D53" cx="1013" cy="594" r="4"></circle>
        <path d="M1004.47998,622.718262 L1008.47998,617.45752 L1018.01123,617.45752 L1022.01123,622.718262 C1020.5887,625.384928 1017.66683,626.718262 1013.24561,626.718262 C1008.82438,626.718262 1005.90251,625.384928 1004.47998,622.718262 Z" stroke="#141414" fill="#252525"></path>
        <path d="M1006.82178,612.599976 C1005.56331,615.707723 1003.95605,617.98881 1002,619.443237" stroke="#CFC0AF"></path>
        <path d="M1018,612.599976 C1019.25846,615.707723 1020.86572,617.98881 1022.82178,619.443237" stroke="#CFC0AF"></path>
        <polygon stroke="#E6EBE1" fill="#FFFFFF" points="1010.02002 608 1008.23999 617.568359 1013 620.37085 1017.78003 617.568359 1015.97998 608"></polygon>
        <polyline stroke="#252525" points="1009 609.443359 1013 613 1017 609.443359"></polyline>
        <path d="M1013,610 C1016.24121,610 1020,607.970563 1020,603 C1020,598.029437 1017.97056,596 1013,596 C1008.02944,596 1006,598.029437 1006,603 C1006,607.970563 1009.75879,610 1013,610 Z" stroke="#CFC0AF" fill="#F1EAE1"></path>
        <path d="M1012.3269,601.082031 C1009.9021,600.044922 1005.81177,602.343262 1003.52124,604.681396 C1002.17847,596.190186 1008.74219,592.313599 1013,594.448486 C1017.25781,592.313599 1023.82153,596.190186 1022.47876,604.681396 C1021.17725,602.894531 1018.96387,601.801758 1017.6731,601.082031 C1018.96387,598.686279 1015.46399,598.697021 1015,597.365723 C1014.53601,598.697021 1011.03613,598.686279 1012.3269,601.082031 Z" stroke="#42532F" fill="#6A7D53"></path>
        <line x1="998.626019" y1="612.55892" x2="1003.46446" y2="631.964835" stroke="#FCFCFC"></line>
        <path d="M991.549522,601.403302 C989.345468,603.477198 990.078625,609.037699 997.674025,609.642881 L997.77523,609.656206 C997.812039,609.659824 997.852786,609.659868 997.900063,609.648081 C997.994618,609.624505 998.044272,609.571313 998.097583,609.537277 C1004.51981,605.437108 1002.55665,600.18328 999.636951,599.38688 C997.167139,598.713194 995.687286,600.810086 995.687286,600.810086 L995.668221,600.798798 C995.44458,600.682975 993.30742,599.749214 991.549522,601.403302 Z" stroke="#FCFCFC"></path>
        <path d="M993.769887,596.383815 C993.364341,596.765412 993.477624,597.762883 994.775321,597.944693 L994.943751,597.963068 C994.955835,597.964031 994.968951,597.968583 994.987074,597.964065 L995.008968,597.954198 L995.024932,597.942827 C996.255859,597.156961 995.879587,596.149978 995.319978,595.997334 C994.846597,595.868211 994.562959,596.270116 994.562959,596.270116 L994.535015,596.256878 C994.43318,596.214258 994.072261,596.099298 993.769887,596.383815 Z" stroke="#FCFCFC"></path>
        <path d="M998.867941,613.529216 C999.9397,613.261996 1000.59191,612.17654 1000.32469,611.104781 C1000.05747,610.033022 998.972013,609.380814 997.900254,609.648033 C996.828495,609.915253 996.176287,611.000709 996.443506,612.072468 C996.710726,613.144227 997.796182,613.796436 998.867941,613.529216 Z" stroke="#B53D3D" fill="#CA5050"></path>
    </g>
</svg>