<?xml version="1.0" encoding="UTF-8"?>
<svg width="3200" height="2400" viewBox="0 0 1600 1200" version="1.1" xmlns="http://www.w3.org/2000/svg" xmlns:xlink="http://www.w3.org/1999/xlink">
    <title>crystal-carillon</title>
    <g stroke="none" stroke-width="4" fill="none" fill-rule="evenodd" stroke-linecap="round" stroke-linejoin="round">
        <rect fill="#F2D6D9" x="0" y="0" width="1600" height="1200"></rect>
        <path d="M217.633266,555.983598 C218.13546,555.762298 218.943756,555.759689 219.451871,555.983598 L228.731453,560.072795 C230.246034,560.740219 231.338642,559.945936 231.171958,558.299664 L230.15045,548.210625 C230.095167,547.664625 230.342463,546.895084 230.712429,546.48103 L237.469035,538.919254 C238.571824,537.685047 238.154051,536.400468 236.536845,536.050268 L226.625936,533.904096 C226.089576,533.787949 225.434117,533.314956 225.154654,532.835147 L220.050884,524.072516 C219.217864,522.64231 217.867058,522.642679 217.034253,524.072516 L211.930483,532.835147 C211.654277,533.309365 211.001885,533.78658 210.459201,533.904096 L200.548292,536.050268 C198.930668,536.400559 198.513597,537.685366 199.616102,538.919254 L206.372708,546.48103 C206.738363,546.890259 206.990621,547.658188 206.934687,548.210625 L205.913179,558.299664 C205.746452,559.946361 206.839494,560.740047 208.353684,560.072795 L217.633266,555.983598 Z" stroke="#FFFFFF" fill-opacity="0.8" fill="#FFFFFF"></path>
        <path d="M1520.56902,1230.42862 C1521.63546,1229.95868 1523.35193,1229.95314 1524.43095,1230.42862 L1544.13678,1239.11231 C1547.3531,1240.52964 1549.67333,1238.84292 1549.31936,1235.34695 L1547.15012,1213.92218 C1547.03272,1212.76272 1547.55787,1211.12854 1548.34352,1210.24927 L1562.69164,1194.19132 C1565.03349,1191.5704 1564.14632,1188.84251 1560.71207,1188.09883 L1539.66557,1183.54129 C1538.52657,1183.29464 1537.13466,1182.29021 1536.5412,1181.2713 L1525.703,1162.66325 C1523.93402,1159.62611 1521.06549,1159.6269 1519.29697,1162.66325 L1508.45877,1181.2713 C1507.87222,1182.27833 1506.48683,1183.29173 1505.3344,1183.54129 L1484.2879,1188.09883 C1480.85277,1188.8427 1479.96709,1191.57107 1482.30833,1194.19132 L1496.65645,1210.24927 C1497.43294,1211.1183 1497.96863,1212.74905 1497.84985,1213.92218 L1495.68061,1235.34695 C1495.32655,1238.84382 1497.6477,1240.52927 1500.86319,1239.11231 L1520.56902,1230.42862 Z" stroke="#FFFFFF" fill-opacity="0.8" fill="#FFFFFF"></path>
        <path d="M1534.08772,668.971723 C1534.40911,668.910521 1534.87899,669.017405 1535.14413,669.215614 L1539.98614,672.835461 C1540.77644,673.42628 1541.51764,673.111418 1541.6416,672.132761 L1542.40124,666.135149 C1542.44236,665.81057 1542.68921,665.396716 1542.95965,665.205812 L1547.89859,661.719375 C1548.70471,661.150331 1548.6343,660.348106 1547.74185,659.927796 L1542.27252,657.351965 C1541.97653,657.212566 1541.65922,656.849906 1541.56123,656.533712 L1539.77165,650.759128 C1539.47956,649.816621 1538.69484,649.63568 1538.01932,650.354571 L1533.87944,654.760232 C1533.6554,654.998658 1533.21243,655.188376 1532.88144,655.183861 L1526.83647,655.101409 C1525.84983,655.087951 1525.43525,655.77835 1525.91021,656.642958 L1528.82095,661.941637 C1528.97848,662.228392 1529.02203,662.708304 1528.91545,663.021708 L1526.96903,668.745333 C1526.65135,669.679523 1527.17984,670.287153 1528.1489,670.10262 L1534.08772,668.971723 Z" stroke="#FFFFFF" fill-opacity="0.8" fill="#FFFFFF"></path>
        <path d="M88.7795884,971.169786 C89.0807674,970.900676 89.645937,970.715022 90.0525125,970.756188 L97.4777051,971.507984 C98.6896188,971.630689 99.2737445,970.826247 98.7826695,969.711854 L95.7731585,962.882394 C95.6102893,962.512796 95.608369,961.917918 95.7731585,961.543963 L98.7826695,954.714502 C99.2738713,953.599822 98.6893061,952.795699 97.4777051,952.918373 L90.0525125,953.670169 C89.6506749,953.710855 89.0843184,953.528853 88.7795884,953.256571 L83.2143759,948.283936 C82.3060416,947.472321 81.3606347,947.779788 81.1028991,948.969997 L79.5233888,956.264092 C79.4379086,956.658835 79.0898014,957.141231 78.7366785,957.346906 L72.2876769,961.103109 C71.2350936,961.716184 71.2353653,962.710331 72.2876769,963.323247 L78.7366785,967.07945 C79.0856864,967.282729 79.4369008,967.762867 79.5233888,968.162264 L81.1028991,975.45636 C81.3607012,976.646876 82.306276,976.953827 83.2143759,976.14242 L88.7795884,971.169786 Z" stroke="#FFFFFF" fill-opacity="0.8" fill="#FFFFFF"></path>
        <path d="M405.28413,1051.19214 C406.439424,1051.01367 408.103968,1051.45393 409.025993,1052.19476 L425.864715,1065.72447 C428.613071,1067.93275 431.299065,1066.90085 431.863725,1063.42167 L435.324191,1042.09983 C435.511465,1040.94593 436.444548,1039.49891 437.434046,1038.85094 L455.505017,1027.01727 C458.454497,1025.08582 458.30312,1022.21242 455.168716,1020.60027 L435.959785,1010.72036 C434.920234,1010.18568 433.832367,1008.85111 433.521886,1007.70981 L427.851638,986.866488 C426.92616,983.464515 424.14661,982.720551 421.644782,985.203366 L406.312544,1000.41908 C405.482792,1001.24253 403.87737,1001.86475 402.695984,1001.80735 L381.120608,1000.75914 C377.599151,1000.58805 376.032671,1003.00167 377.620861,1006.14828 L387.353947,1025.43202 C387.880684,1026.47562 387.976345,1028.19474 387.556689,1029.30057 L379.892622,1049.49606 C378.641719,1052.79229 380.453131,1055.02795 383.936515,1054.48985 L405.28413,1051.19214 Z" stroke="#FFFFFF" fill-opacity="0.8" fill="#FFFFFF"></path>
        <path d="M743.655602,1148.91939 C743.965152,1148.62273 744.55786,1148.40483 744.99072,1148.43344 L752.895933,1148.95594 C754.186194,1149.04122 754.776089,1148.16615 754.213824,1147.00208 L750.768031,1139.86823 C750.581551,1139.48216 750.557475,1138.85112 750.718445,1138.44829 L753.658212,1131.09145 C754.13803,1129.89069 753.488077,1129.05925 752.207238,1129.23428 L744.357728,1130.30694 C743.932928,1130.36499 743.325339,1130.19289 742.991965,1129.91532 L736.903627,1124.84604 C735.90991,1124.01865 734.918322,1124.37987 734.688985,1125.65211 L733.283515,1133.4489 C733.207453,1133.87085 732.856019,1134.39552 732.489012,1134.6268 L725.786445,1138.85067 C724.692476,1139.54007 724.729595,1140.59475 725.868696,1141.206 L732.849577,1144.95203 C733.227369,1145.15475 733.617759,1145.65112 733.72431,1146.07164 L735.670234,1153.7514 C735.987841,1155.00486 737.00237,1155.29548 737.93571,1154.40101 L743.655602,1148.91939 Z" stroke="#FFFFFF" fill-opacity="0.8" fill="#FFFFFF"></path>
        <path d="M1380.91255,153.193646 C1381.76158,152.435024 1383.35479,151.911665 1384.50093,152.027711 L1405.4326,154.147028 C1408.84899,154.492936 1410.49565,152.225208 1409.1113,149.083727 L1400.62747,129.831435 C1400.16834,128.789536 1400.16293,127.11257 1400.62747,126.058387 L1409.1113,106.806095 C1410.496,103.663803 1408.84811,101.396976 1405.4326,101.742794 L1384.50093,103.862112 C1383.36815,103.976805 1381.77159,103.463742 1380.91255,102.696176 L1365.22418,88.6782871 C1362.66358,86.3903368 1359.99847,87.2570881 1359.27191,90.6122959 L1354.81926,111.174399 C1354.5783,112.287182 1353.59698,113.647058 1352.60152,114.226858 L1334.42175,124.815619 C1331.45451,126.543879 1331.45527,129.346389 1334.42175,131.074203 L1352.60152,141.662964 C1353.58538,142.236008 1354.57545,143.58952 1354.81926,144.715423 L1359.27191,165.277526 C1359.99866,168.6336 1362.66424,169.498895 1365.22418,167.211535 L1380.91255,153.193646 Z" stroke="#FFFFFF" fill-opacity="0.8" fill="#FFFFFF"></path>
        <path d="M1194.39268,830.248037 C1195.16577,830.415447 1196.11053,831.097201 1196.51333,831.788779 L1203.86972,844.418903 C1205.0704,846.480347 1207.0174,846.479815 1208.21777,844.418903 L1215.57415,831.788779 C1215.97227,831.10526 1216.9126,830.417421 1217.6948,830.248037 L1231.98001,827.154626 C1234.31159,826.649731 1234.91274,824.797859 1233.32363,823.019379 L1223.58492,812.120123 C1223.05788,811.530275 1222.69428,810.423412 1222.7749,809.62715 L1224.24727,795.085193 C1224.48758,792.711706 1222.91211,791.567718 1220.72961,792.52947 L1207.35438,798.423483 C1206.63053,798.742456 1205.46549,798.746216 1204.73311,798.423483 L1191.35787,792.52947 C1189.17481,791.56747 1187.59997,792.712319 1187.84022,795.085193 L1189.31258,809.62715 C1189.39227,810.414133 1189.03582,811.523321 1188.50257,812.120123 L1178.76385,823.019379 C1177.17433,824.798318 1177.7765,826.649861 1180.10748,827.154626 L1194.39268,830.248037 Z" stroke="#FFFFFF" fill-opacity="0.8" fill="#FFFFFF"></path>
        <path d="M930.592678,359.011761 C930.944933,358.969872 931.445076,359.121018 931.716852,359.355455 L936.680235,363.63693 C937.490341,364.335737 938.315848,364.05124 938.523938,363.002092 L939.799198,356.57248 C939.868213,356.224521 940.166513,355.795564 940.47346,355.609535 L946.079154,352.212126 C946.994096,351.657612 946.978618,350.784593 946.045123,350.262484 L940.324276,347.06278 C940.014674,346.889618 939.698891,346.473362 939.616818,346.123953 L938.117945,339.742764 C937.873304,338.701248 937.038231,338.44619 936.253209,339.172657 L931.442271,343.624743 C931.181912,343.865681 930.688447,344.037379 930.330777,344.007461 L923.798728,343.461078 C922.73259,343.3719 922.231964,344.087284 922.680289,345.058375 L925.427813,351.009619 C925.576504,351.331689 925.587309,351.85406 925.448329,352.184979 L922.910174,358.228485 C922.495906,359.214885 923.021575,359.912075 924.083677,359.785776 L930.592678,359.011761 Z" stroke="#FFFFFF" fill-opacity="0.8" fill="#FFFFFF"></path>
        <path d="M315.725214,134.123981 C316.57794,134.097459 317.74452,134.564413 318.346511,135.183053 L329.34054,146.481143 C331.134946,148.325178 333.172363,147.816601 333.890823,145.34663 L338.293842,130.209625 C338.532125,129.390439 339.336718,128.425252 340.111105,128.043895 L354.253569,121.079254 C356.561852,119.94251 356.707763,117.847653 354.580698,116.401094 L341.545158,107.535983 C340.839699,107.056219 340.170385,105.992747 340.046992,105.138415 L337.793486,89.5359402 C337.425677,86.9893594 335.478439,86.2032429 333.44538,87.7791913 L320.985955,97.4372558 C320.311674,97.9599323 319.093422,98.267857 318.242773,98.1212078 L302.707567,95.442989 C300.171965,95.0058596 298.822594,96.6148698 299.69316,99.0354183 L305.028351,113.869542 C305.317082,114.672337 305.233475,115.926117 304.831139,116.689816 L297.483358,130.63706 C296.28408,132.91348 297.397361,134.694019 299.968459,134.614052 L315.725214,134.123981 Z" stroke="#FFFFFF" fill-opacity="0.8" fill="#FFFFFF"></path>
        <path d="M592.498838,23.0326413 C594.156322,22.3022446 596.824091,22.2936329 598.501117,23.0326413 L629.12825,36.5289787 C634.127103,38.7318033 637.733241,36.1102845 637.183103,30.6767855 L633.811628,-2.62194709 C633.62917,-4.42401252 634.445366,-6.96387286 635.666434,-8.33045326 L657.966519,-33.2879906 C661.60626,-37.3614718 660.227405,-41.6012071 654.889839,-42.7570381 L622.179019,-49.8404492 C620.40877,-50.2237903 618.245438,-51.7848985 617.323074,-53.3685001 L600.47815,-82.2894438 C597.728781,-87.0098182 593.270464,-87.0086 590.521805,-82.2894438 L573.676881,-53.3685001 C572.765265,-51.8033524 570.612056,-50.2283101 568.820936,-49.8404492 L536.110116,-42.7570381 C530.771171,-41.6009088 529.394634,-37.3604205 533.033436,-33.2879906 L555.33352,-8.33045326 C556.540359,-6.97979779 557.372936,-4.44525981 557.188326,-2.62194709 L553.816852,30.6767855 C553.266571,36.1116871 556.874142,38.7312348 561.871705,36.5289787 L592.498838,23.0326413 Z" stroke="#FFFFFF" fill-opacity="0.8" fill="#FFFFFF"></path>
        <path d="M9.12223281,232.334459 C9.84624559,232.129837 10.9441024,232.280519 11.5912075,232.681451 L23.4091361,240.003583 C25.3380167,241.198676 26.9729142,240.328812 27.0607312,238.061996 L27.5989101,224.170004 C27.6280354,223.418196 28.1105983,222.420635 28.6918741,221.929096 L39.3075766,212.952242 C41.0402341,211.487071 40.7181558,209.663389 38.589422,208.879385 L25.5436596,204.074685 C24.8376472,203.814663 24.0380307,203.047456 23.7501737,202.342736 L18.4931101,189.472602 C17.6350707,187.371984 15.8011179,187.11475 14.3976711,188.897026 L5.79676757,199.819549 C5.33130268,200.410656 4.35454955,200.934056 3.59536844,200.990054 L-10.2693781,202.012728 C-12.5323331,202.179646 -13.3437,203.844349 -12.082344,205.729859 L-4.35223231,217.28505 C-3.93389305,217.910395 -3.73794315,219.001082 -3.91928595,219.740411 L-7.23110692,233.242592 C-7.77165066,235.446371 -6.43915019,236.732448 -4.2561425,236.115482 L9.12223281,232.334459 Z" stroke="#FFFFFF" fill-opacity="0.8" fill="#FFFFFF"></path>
        <path d="M1402.16247,368.325034 C1402.62502,368.121203 1403.36951,368.118799 1403.83752,368.325034 L1412.38463,372.091454 C1413.77966,372.706196 1414.78602,371.974609 1414.63249,370.458284 L1413.69162,361.165614 C1413.6407,360.662712 1413.86847,359.953914 1414.20924,359.572543 L1420.43252,352.607649 C1421.44826,351.470863 1421.06346,350.287681 1419.57391,349.965124 L1410.44531,347.988358 C1409.95128,347.881379 1409.34756,347.445721 1409.09016,347.003786 L1404.38925,338.932824 C1403.62199,337.615511 1402.3778,337.615851 1401.61074,338.932824 L1396.90983,347.003786 C1396.65542,347.440571 1396.05453,347.880118 1395.55468,347.988358 L1386.42608,349.965124 C1384.93614,350.287764 1384.55199,351.471157 1385.56747,352.607649 L1391.79075,359.572543 C1392.12754,359.94947 1392.35989,360.656783 1392.30837,361.165614 L1391.36749,370.458284 C1391.21393,371.975001 1392.22069,372.706037 1393.61536,372.091454 L1402.16247,368.325034 Z" stroke="#FFFFFF" fill-opacity="0.8" fill="#FFFFFF"></path>
        <polygon stroke="#EDB9C0" fill-opacity="0.12" fill="#DD5064" points="1246.12742 483 1252.49904 505.755795 1275.25483 512.127417 1252.49904 518.499039 1246.12742 541.254834 1239.75579 518.499039 1217 512.127417 1239.75579 505.755795"></polygon>
        <polygon stroke="#EDB9C0" fill-opacity="0.12" fill="#DD5064" points="400.5 674 408.484375 702.515625 437 710.5 408.484375 718.484375 400.5 747 392.515625 718.484375 364 710.5 392.515625 702.515625"></polygon>
        <polygon stroke="#EDB9C0" fill-opacity="0.12" fill="#DD5064" points="1391.5 1022 1395.32812 1035.67188 1409 1039.5 1395.32812 1043.32813 1391.5 1057 1387.67188 1043.32813 1374 1039.5 1387.67188 1035.67188"></polygon>
        <polygon stroke="#EDB9C0" fill-opacity="0.12" fill="#DD5064" points="157 242 160.5 254.5 173 258 160.5 261.5 157 274 153.5 261.5 141 258 153.5 254.5"></polygon>
        <polygon stroke="#EDB9C0" fill-opacity="0.12" fill="#DD5064" points="182.627417 1142 192.608414 1177.64642 228.254834 1187.62742 192.608414 1197.60841 182.627417 1233.25483 172.64642 1197.60841 137 1187.62742 172.64642 1177.64642"></polygon>
        <polygon stroke="#EDB9C0" fill-opacity="0.12" fill="#DD5064" points="1198.12742 37 1204.49904 59.7557945 1227.25483 66.127417 1204.49904 72.4990395 1198.12742 95.254834 1191.75579 72.4990395 1169 66.127417 1191.75579 59.7557945"></polygon>
        <polygon stroke="#EDB9C0" fill-opacity="0.12" fill="#DD5064" points="1574.12742 135 1580.49904 157.755795 1603.25483 164.127417 1580.49904 170.499039 1574.12742 193.254834 1567.75579 170.499039 1545 164.127417 1567.75579 157.755795"></polygon>
        <circle stroke="#DEC54B" fill="#F5E698" opacity="0.5" cx="313" cy="307" r="15"></circle>
        <circle stroke="#DEC54B" fill="#F5E698" opacity="0.5" cx="1114" cy="1162" r="15"></circle>
        <circle stroke="#DEC54B" fill="#F5E698" opacity="0.5" cx="875" cy="75" r="15"></circle>
        <circle stroke="#DEC54B" fill="#F5E698" opacity="0.5" cx="126" cy="776" r="15"></circle>
        <circle stroke="#DEC54B" fill="#F5E698" opacity="0.5" cx="126" cy="0" r="15"></circle>
        <circle stroke="#DEC54B" fill="#F5E698" opacity="0.5" cx="1481" cy="868" r="15"></circle>
        <circle stroke="#DEC54B" fill="#F5E698" opacity="0.5" cx="1600" cy="468" r="15"></circle>
        <circle stroke="#DEC54B" fill="#F5E698" opacity="0.5" cx="675" cy="453" r="15"></circle>
        <path d="M1033.74183,176.04904 C1097.83693,213.758228 1139.19509,293.134217 1138.99999,380.719208 C1138.7843,476.900856 1090.19514,571.431901 994.530766,645.222516 L993.002,646.391 C993.187312,657.087811 990.194026,669.267738 983.914147,680.665768 L983.54095,681.335321 C979.930929,687.737961 975.385753,693.751399 969.901436,699.289858 L969.666,699.524 L969.667487,699.53533 C969.718107,700.202805 969.730792,700.844099 969.717441,701.463061 L969.702732,701.923156 C969.700073,701.986236 969.697234,702.046316 969.694265,702.103312 L969.689,702.191 L969.688171,702.218715 C969.657898,702.846675 969.581769,703.681095 969.439485,704.699381 L969.389579,705.045589 C969.095602,707.025292 968.623961,709.185133 967.935171,711.481956 C966.00495,717.918428 962.727851,724.321032 957.794295,730.266768 C949.083583,740.764591 936.526686,748.413049 919.787115,752.554491 L919.383,752.652 L919.349954,752.704577 C917.858362,754.947479 915.279545,757.851652 912.152253,760.516506 L911.77438,760.835082 C909.230234,762.957084 906.410559,764.885845 903.312661,766.574038 L903.144,766.664 L903.186851,766.71805 C906.975625,771.675447 910.566351,777.055876 913.955482,782.873019 L914.588581,783.968854 C921.156615,795.433485 925.664543,811.170908 928.811352,831.508575 C931.319496,847.718576 932.896221,866.073339 934.160243,890.427664 C934.211228,891.410022 934.258118,892.320872 934.302722,893.199189 L934.326835,893.675279 L934.33908,893.918071 L934.363299,894.400416 L934.37529,894.640351 L934.399078,895.118701 L934.410894,895.357499 L934.446133,896.074678 C934.461748,896.394196 934.477327,896.715252 934.492963,897.039887 L934.516471,897.529778 C934.728646,901.967533 934.959882,907.243233 935.443006,918.374541 C936.73937,948.243101 937.703469,963.562199 939.453583,975.999132 L939.561724,976.757075 L939.615,977.128 L939.89313,977.330224 C942.253108,979.028842 945.07465,980.795334 946.729343,981.586533 L946.980676,981.703202 C947.130767,981.77058 947.803982,982.06914 947.981012,982.148411 C948.970085,982.591297 949.693916,982.938351 950.448799,983.35656 C951.981684,984.205786 953.22836,985.100913 954.420012,986.513804 C957.331359,989.965667 958.147398,995.0581 955.142139,999.449375 C953.630673,1001.65792 951.81982,1002.87848 949.620471,1003.74384 L949.513,1003.784 L949.557091,1003.86458 C953.447141,1011.11887 949.197634,1019.91883 940.271502,1021.05591 L940.094,1021.076 L940.007832,1021.08752 C939.601634,1021.13613 938.928481,1021.21285 937.990303,1021.3142 L937.727867,1021.34244 C935.81558,1021.54756 933.539759,1021.77522 930.903593,1022.01968 C923.410548,1022.71454 914.514398,1023.40799 904.240652,1024.05429 C884.409161,1025.30183 861.95495,1026.21917 836.95015,1026.67691 L836.432,1026.685 L836.371921,1026.88928 C831.773288,1041.85105 817.952974,1052.73514 801.599419,1053 L801,1053 C784.385478,1053 770.282793,1042.03351 765.628079,1026.88928 L765.567,1026.685 L765.04985,1026.67691 C740.626557,1026.22981 718.6366,1025.34425 699.147195,1024.14079 L697.759348,1024.05429 C687.485602,1023.40799 678.589452,1022.71454 671.096407,1022.01968 C668.460241,1021.77522 666.18442,1021.54756 664.272133,1021.34244 C663.106449,1021.21741 662.310677,1021.12634 661.888006,1021.07497 L661.905,1021.076 L661.728498,1021.05591 C652.802363,1019.91884 648.552628,1011.11912 652.422578,1003.88649 L652.479,1003.782 L652.379529,1003.74384 C650.284911,1002.91969 648.54267,1001.77336 647.075831,999.758229 L646.857861,999.449375 C643.852602,995.0581 644.668641,989.965667 647.579988,986.513804 C648.77164,985.100913 650.018316,984.205786 651.551201,983.35656 C652.306084,982.938351 653.029915,982.591297 654.018988,982.148411 C654.196018,982.06914 654.869233,981.77058 655.019324,981.703202 C656.653304,980.96969 659.584433,979.130475 661.909706,977.419341 L662.173,977.223 L662.193133,977.089246 C664.0942,964.467145 665.112819,949.181039 666.480016,918.706588 L666.52572,917.68513 C667.0445,906.060184 667.272814,900.994972 667.49449,896.508545 L667.517022,896.05406 C667.607144,894.242238 667.697761,892.49264 667.807976,890.402689 C669.095103,865.995439 670.676755,847.689045 673.185901,831.499422 C676.338204,811.159993 680.845535,795.429732 687.411419,783.968854 C690.985582,777.730083 694.787577,771.985284 698.813149,766.71805 L698.855,766.664 L698.687339,766.574038 C695.795967,764.998392 693.146959,763.213183 690.738124,761.256891 L690.22562,760.835082 C686.9285,758.085044 684.201302,755.037195 682.650046,752.704577 L682.616,752.652 L682.212885,752.554491 C665.766991,748.485705 653.358298,741.031879 644.667716,730.81665 L644.205705,730.266768 C639.272149,724.321032 635.99505,717.918428 634.064829,711.481956 C633.376039,709.185133 632.904398,707.025292 632.610421,705.045589 C632.435714,703.86907 632.345466,702.916449 632.311829,702.218715 L632.31,702.191 L632.305735,702.103312 L632.297268,701.923156 C632.265237,701.16311 632.269238,700.369674 632.332513,699.53533 L632.333,699.525 L632.298974,699.490655 C627.074217,694.246792 622.693757,688.573514 619.154164,682.543362 L618.803007,681.93916 C612.23801,670.530192 609.002819,658.270477 608.991318,647.39463 L608.992,647.151 L607.369945,645.915465 C512.226759,572.879526 463.353224,479.407868 462.027663,384.054932 L462.000015,381.105292 C461.684471,293.372612 503.063095,213.817046 567.258168,176.04904 C612.388973,149.497149 658.725694,142.723677 704.384551,151.742502 C735.43985,157.876741 763.57348,170.70008 787.193097,186.596133 L787.72,186.952 L788.440488,186.801753 C791.94763,186.091757 795.533052,185.705331 799.161835,185.65375 L800,185.647795 C804.111208,185.647795 808.170133,186.077178 812.126182,186.919426 L812.712,187.048 L813.458078,186.55081 C837.097982,170.833499 864.654498,158.252689 895.159245,152.02299 L896.364909,151.780387 C942.144649,142.705911 988.541707,149.456366 1033.74183,176.04904 Z M910.544073,234.052432 C892.0297,236.782681 874.377816,243.693525 857.768586,253.911021 L857.006,254.382477 L856.957148,254.650232 C851.844414,281.303565 828.593749,301.220258 800.895033,301.641001 L800,301.647795 C771.616092,301.647795 747.756721,281.181531 742.90079,253.883036 L742.868,253.692477 L742.166147,253.264895 C725.949212,243.454436 708.762812,236.80148 690.769014,234.100931 L689.749636,233.952296 C665.782682,230.560051 641.071509,234.283232 615.576984,246.371986 C562.658849,271.464209 533.617074,344.47689 551.175903,421.641593 C561.030503,464.948994 584.657438,507.558149 622.064613,546.232049 C664.183746,589.777471 722.7119,627.354579 797.601231,656.911554 C798.175705,657.138285 799.576703,657.76773 799.525549,657.745829 C800.030912,657.962195 800.184083,658 800.5,658 C800.815917,658 800.969088,657.962195 801.474451,657.745829 C801.423297,657.76773 802.824295,657.138285 803.398769,656.911554 C878.2881,627.354579 936.816254,589.777471 978.935387,546.232049 C1016.34256,507.558149 1039.9695,464.948994 1049.8241,421.641593 C1067.38293,344.47689 1038.34115,271.464209 985.423016,246.371986 C959.675034,234.16305 934.728774,230.486 910.544073,234.052432 Z" fill="#FFFFFF" fill-rule="nonzero"></path>
        <path d="M572.328987,184.668018 C427.77231,269.715317 393.07022,590.145407 788.550144,729.565628 C791.833067,730.722971 795.153871,733 800.489234,733 C805.824596,733 809.166933,730.722971 812.449856,729.565628 C1207.92978,590.145407 1173.22769,269.715317 1028.67101,184.668018 C906.388642,112.725403 799.999594,209.129711 799.999594,209.129711 C801.000406,209.129711 694.611358,112.725403 572.328987,184.668018 Z M989.707469,237.336308 C1099.28353,289.294053 1127.32358,539.817078 807.069939,666.213302 C805.55386,666.811661 803.689325,668 800.5,668 C797.310675,668 795.44614,666.811661 793.930061,666.213302 C473.676423,539.817078 501.716471,289.294053 611.292531,237.336308 C721.387324,185.132596 798.659431,289.940122 798.659431,289.940122 C799.675949,291.238976 801.318546,291.224693 802.350603,289.927699 C802.350603,289.927699 879.612676,185.132596 989.707469,237.336308 Z" stroke="#BF293E" fill="#DD5064"></path>
        <circle stroke="#E0D18A" fill="#F3EBC6" cx="506" cy="400" r="6"></circle>
        <circle stroke="#E0D18A" fill="#F3EBC6" cx="527" cy="481" r="6"></circle>
        <path d="M503.090698,371.500699 C503.592892,371.279399 504.401187,371.27679 504.909302,371.500699 L514.188885,375.589895 C515.703465,376.25732 516.796074,375.463037 516.62939,373.816765 L515.607881,363.727726 C515.552599,363.181726 515.799894,362.412185 516.169861,361.998131 L522.926467,354.436355 C524.029256,353.202148 523.611483,351.917569 521.994277,351.567369 L512.083367,349.421197 C511.547007,349.30505 510.891549,348.832057 510.612085,348.352248 L505.508315,339.589617 C504.675296,338.159411 503.324489,338.15978 502.491685,339.589617 L497.387915,348.352248 C497.111708,348.826465 496.459317,349.303681 495.916633,349.421197 L486.005723,351.567369 C484.3881,351.917659 483.971029,353.202467 485.073533,354.436355 L491.830139,361.998131 C492.195794,362.40736 492.448053,363.175288 492.392119,363.727726 L491.37061,373.816765 C491.203883,375.463462 492.296926,376.257147 493.811115,375.589895 L503.090698,371.500699 Z" stroke="#E0D18A" fill="#F3EBC6"></path>
        <path d="M511.090698,455.500699 C511.592892,455.279399 512.401187,455.27679 512.909302,455.500699 L522.188885,459.589895 C523.703465,460.25732 524.796074,459.463037 524.62939,457.816765 L523.607881,447.727726 C523.552599,447.181726 523.799894,446.412185 524.169861,445.998131 L530.926467,438.436355 C532.029256,437.202148 531.611483,435.917569 529.994277,435.567369 L520.083367,433.421197 C519.547007,433.30505 518.891549,432.832057 518.612085,432.352248 L513.508315,423.589617 C512.675296,422.159411 511.324489,422.15978 510.491685,423.589617 L505.387915,432.352248 C505.111708,432.826465 504.459317,433.303681 503.916633,433.421197 L494.005723,435.567369 C492.3881,435.917659 491.971029,437.202467 493.073533,438.436355 L499.830139,445.998131 C500.195794,446.40736 500.448053,447.175288 500.392119,447.727726 L499.37061,457.816765 C499.203883,459.463462 500.296926,460.257147 501.811115,459.589895 L511.090698,455.500699 Z" stroke="#E0D18A" fill="#F3EBC6"></path>
        <path d="M546.090698,532.500699 C546.592892,532.279399 547.401187,532.27679 547.909302,532.500699 L557.188885,536.589895 C558.703465,537.25732 559.796074,536.463037 559.62939,534.816765 L558.607881,524.727726 C558.552599,524.181726 558.799894,523.412185 559.169861,522.998131 L565.926467,515.436355 C567.029256,514.202148 566.611483,512.917569 564.994277,512.567369 L555.083367,510.421197 C554.547007,510.30505 553.891549,509.832057 553.612085,509.352248 L548.508315,500.589617 C547.675296,499.159411 546.324489,499.15978 545.491685,500.589617 L540.387915,509.352248 C540.111708,509.826465 539.459317,510.303681 538.916633,510.421197 L529.005723,512.567369 C527.3881,512.917659 526.971029,514.202467 528.073533,515.436355 L534.830139,522.998131 C535.195794,523.40736 535.448053,524.175288 535.392119,524.727726 L534.37061,534.816765 C534.203883,536.463462 535.296926,537.257147 536.811115,536.589895 L546.090698,532.500699 Z" stroke="#E0D18A" fill="#F3EBC6"></path>
        <circle stroke="#E0D18A" fill="#F3EBC6" cx="1095" cy="400" r="6"></circle>
        <circle stroke="#E0D18A" fill="#F3EBC6" cx="1074" cy="481" r="6"></circle>
        <path d="M1097.9093,371.500699 C1097.40711,371.279399 1096.59881,371.27679 1096.0907,371.500699 L1086.81112,375.589895 C1085.29653,376.25732 1084.20393,375.463037 1084.37061,373.816765 L1085.39212,363.727726 C1085.4474,363.181726 1085.20011,362.412185 1084.83014,361.998131 L1078.07353,354.436355 C1076.97074,353.202148 1077.38852,351.917569 1079.00572,351.567369 L1088.91663,349.421197 C1089.45299,349.30505 1090.10845,348.832057 1090.38791,348.352248 L1095.49168,339.589617 C1096.3247,338.159411 1097.67551,338.15978 1098.50832,339.589617 L1103.61209,348.352248 C1103.88829,348.826465 1104.54068,349.303681 1105.08337,349.421197 L1114.99428,351.567369 C1116.6119,351.917659 1117.02897,353.202467 1115.92647,354.436355 L1109.16986,361.998131 C1108.80421,362.40736 1108.55195,363.175288 1108.60788,363.727726 L1109.62939,373.816765 C1109.79612,375.463462 1108.70307,376.257147 1107.18888,375.589895 L1097.9093,371.500699 Z" stroke="#E0D18A" fill="#F3EBC6"></path>
        <path d="M1089.9093,455.500699 C1089.40711,455.279399 1088.59881,455.27679 1088.0907,455.500699 L1078.81112,459.589895 C1077.29653,460.25732 1076.20393,459.463037 1076.37061,457.816765 L1077.39212,447.727726 C1077.4474,447.181726 1077.20011,446.412185 1076.83014,445.998131 L1070.07353,438.436355 C1068.97074,437.202148 1069.38852,435.917569 1071.00572,435.567369 L1080.91663,433.421197 C1081.45299,433.30505 1082.10845,432.832057 1082.38791,432.352248 L1087.49168,423.589617 C1088.3247,422.159411 1089.67551,422.15978 1090.50832,423.589617 L1095.61209,432.352248 C1095.88829,432.826465 1096.54068,433.303681 1097.08337,433.421197 L1106.99428,435.567369 C1108.6119,435.917659 1109.02897,437.202467 1107.92647,438.436355 L1101.16986,445.998131 C1100.80421,446.40736 1100.55195,447.175288 1100.60788,447.727726 L1101.62939,457.816765 C1101.79612,459.463462 1100.70307,460.257147 1099.18888,459.589895 L1089.9093,455.500699 Z" stroke="#E0D18A" fill="#F3EBC6"></path>
        <path d="M1054.9093,532.500699 C1054.40711,532.279399 1053.59881,532.27679 1053.0907,532.500699 L1043.81112,536.589895 C1042.29653,537.25732 1041.20393,536.463037 1041.37061,534.816765 L1042.39212,524.727726 C1042.4474,524.181726 1042.20011,523.412185 1041.83014,522.998131 L1035.07353,515.436355 C1033.97074,514.202148 1034.38852,512.917569 1036.00572,512.567369 L1045.91663,510.421197 C1046.45299,510.30505 1047.10845,509.832057 1047.38791,509.352248 L1052.49168,500.589617 C1053.3247,499.159411 1054.67551,499.15978 1055.50832,500.589617 L1060.61209,509.352248 C1060.88829,509.826465 1061.54068,510.303681 1062.08337,510.421197 L1071.99428,512.567369 C1073.6119,512.917659 1074.02897,514.202467 1072.92647,515.436355 L1066.16986,522.998131 C1065.80421,523.40736 1065.55195,524.175288 1065.60788,524.727726 L1066.62939,534.816765 C1066.79612,536.463462 1065.70307,537.257147 1064.18888,536.589895 L1054.9093,532.500699 Z" stroke="#E0D18A" fill="#F3EBC6"></path>
        <path d="M766.610552,699 L737.253906,594.642243 C737.253906,594.642243 769.943946,622.538501 772.201546,577.325836 C786.088727,614.337002 816.419085,614.011166 830.306267,577 C832.563866,622.212665 865.253906,594.316408 865.253906,594.316408 L835.897261,698.674164" stroke="#CD1D55" fill="#E15984"></path>
        <path d="M792.428665,681.804867 L782.5,607.5 C782.5,607.5 789.339432,614.09488 801.299783,614.09488 C813.260133,614.09488 819.832031,607.5 819.832031,607.5 L809.903367,681.804867 L792.428665,681.804867 Z" stroke="#CD1D55" fill="#E15984"></path>
        <path d="M773.651367,604.655273 C773.651367,604.655273 763.394531,619.724609 750.996094,610.626953 L771.703125,697.060547 L787.65918,690.985352 L773.651367,604.655273 Z" stroke="#CD1D55" fill="#E15984"></path>
        <path d="M828.348633,604.655273 C828.348633,604.655273 838.605469,619.724609 851.003906,610.626953 L830.296875,697.060547 L814.34082,690.985352 L828.348633,604.655273 Z" stroke="#CD1D55" fill="#E15984"></path>
        <circle stroke="#CD1D55" fill="#E15984" cx="737" cy="594" r="7"></circle>
        <circle stroke="#CD1D55" fill="#E15984" cx="770" cy="576" r="7"></circle>
        <circle stroke="#CD1D55" fill="#E15984" cx="865" cy="594" r="7"></circle>
        <circle stroke="#CD1D55" fill="#E15984" cx="832" cy="576" r="7"></circle>
        <circle stroke="#DEC54B" fill="#F5E598" cx="800" cy="243.647795" r="48"></circle>
        <circle stroke="#DEC54B" fill="#F5E598" cx="800" cy="219.647795" r="24"></circle>
        <circle stroke="#DEC54B" fill="#F5E698" cx="801" cy="1016" r="27"></circle>
        <path d="M938.905387,1011.14803 C941.094134,1010.91549 941.661997,1009.40625 940.158898,1007.79375 C940.158898,1007.79375 939.443697,1007.01971 939.302282,1006.88369 C917.149846,985.576548 934.469859,838.788768 905.911637,788.939834 C875.789547,736.361138 833.640477,730 801,730 C768.359523,730 726.210453,736.361138 696.088363,788.939834 C667.530141,838.788768 684.850154,985.576548 662.697718,1006.88369 C662.556303,1007.01971 661.841102,1007.79375 661.841102,1007.79375 C660.338003,1009.40625 660.905866,1010.91549 663.094613,1011.14803 C663.094613,1011.14803 711.239664,1017 801,1017 C890.760336,1017 938.905387,1011.14803 938.905387,1011.14803 Z" stroke="#DEC54B" fill="#F5E698"></path>
        <path d="M738.563045,959.670429 C738.158196,959.300161 737.531881,959.333883 737.159662,959.73281 C737.159662,959.73281 715.26612,985.476108 671.451875,982.494939 C668.363012,985.476108 662.215355,989.434215 659.114711,990.82613 C656.530792,991.986081 652.901574,993.396195 656.530792,994.615451 C701.766462,1009.81263 737.048054,981.225432 737.048054,981.225432 C737.479912,980.894078 738.207183,980.866318 738.671892,981.15445 C738.671892,981.15445 765.164111,998.626445 801.000008,998.627733 C836.835904,998.629022 863.328123,981.158932 863.328123,981.158932 C863.793086,980.866814 864.524034,980.90657 864.969635,981.243049 C864.969635,981.243049 900.233538,1009.81263 945.469208,994.615451 C949.098426,993.396195 945.469208,991.986081 942.885289,990.82613 C939.784645,989.434215 933.636988,985.476108 930.548125,982.494939 C886.73388,985.476108 864.840338,959.73281 864.840338,959.73281 C864.47012,959.32809 863.837335,959.310999 863.436955,959.670429 C863.436955,959.670429 841.636719,981 801,981 C760.363281,981 738.563045,959.670429 738.563045,959.670429 Z" stroke="#DEC54B" fill="#F5E698"></path>
        <path d="M830.743786,817.843104 C847.679793,825.894214 852.013645,871.930214 802.515446,891.515935 C802.281121,891.608654 801.99294,891.792793 801.5,891.792793 C801.00706,891.792793 800.718879,891.608654 800.484554,891.515935 C750.986355,871.930214 755.320207,825.894214 772.256214,817.843104 C789.272395,809.75388 800.477338,825.123049 800.477338,825.123049 C801.042139,825.805505 801.944381,825.79833 802.522662,825.123049 C802.522662,825.123049 813.727605,809.75388 830.743786,817.843104 Z" fill="#F2D6D9"></path>
        <line x1="769.619048" y1="844.085586" x2="769.619048" y2="868.95437" stroke="#E2A8AE"></line>
        <line x1="770.638889" y1="844.085586" x2="761.019841" y2="848.094595" stroke="#E2A8AE"></line>
        <line x1="770.638889" y1="844.085586" x2="787.616502" y2="847.092342" stroke="#E2A8AE"></line>
        <line x1="770.638889" y1="844.085586" x2="786.670635" y2="831.256757" stroke="#E2A8AE"></line>
        <line x1="770.638889" y1="844.085586" x2="761.019841" y2="835.265766" stroke="#E2A8AE"></line>
        <line x1="770.285714" y1="844.085586" x2="770.285714" y2="831.256757" stroke="#E2A8AE"></line>
        <line x1="765.829365" y1="824.040541" x2="770.638889" y2="831.256757" stroke="#E2A8AE"></line>
        <line x1="785.869048" y1="829.653153" x2="770.638889" y2="831.256757" stroke="#E2A8AE"></line>
        <line x1="787.616502" y1="866.736486" x2="770.638889" y2="868.95437" stroke="#E2A8AE"></line>
        <line x1="787.616502" y1="866.736486" x2="781.861111" y2="880.968468" stroke="#E2A8AE"></line>
        <line x1="801.5" y1="876.558559" x2="796.289683" y2="889.788288" stroke="#E2A8AE"></line>
        <path d="M831.619048,844.085586 L831.619048,868.95437 L831.619048,844.085586 Z" stroke="#E2A8AE"></path>
        <path d="M832.361111,844.085586 L841.980159,848.094595 L832.361111,844.085586 Z" stroke="#E2A8AE"></path>
        <path d="M832.361111,844.085586 L815.383498,847.092342 L832.361111,844.085586 Z" stroke="#E2A8AE"></path>
        <path d="M832.361111,844.085586 L816.329365,831.256757 L832.361111,844.085586 Z" stroke="#E2A8AE"></path>
        <path d="M832.361111,844.085586 L841.980159,835.265766 L832.361111,844.085586 Z" stroke="#E2A8AE"></path>
        <path d="M830.952381,844.085586 L830.952381,831.256757 L830.952381,844.085586 Z" stroke="#E2A8AE"></path>
        <path d="M837.170635,824.040541 L832.361111,831.256757 L837.170635,824.040541 Z" stroke="#E2A8AE"></path>
        <path d="M817.130952,829.653153 L832.361111,831.256757 L817.130952,829.653153 Z" stroke="#E2A8AE"></path>
        <path d="M815.383498,866.736486 L832.361111,868.95437 L815.383498,866.736486 Z" stroke="#E2A8AE"></path>
        <path d="M815.383498,866.736486 L821.138889,880.968468 L815.383498,866.736486 Z" stroke="#E2A8AE"></path>
        <path d="M801.5,876.558559 L806.710317,889.788288 L801.5,876.558559 Z" stroke="#E2A8AE"></path>
        <line x1="801.5" y1="837.27027" x2="798.38015" y2="833.056113" stroke="#E2A8AE"></line>
        <path d="M801.5,837.27027 L804.61985,833.056113 L801.5,837.27027 Z" stroke="#E2A8AE"></path>
        <polygon stroke="#E2A8AE" points="801.5 837.27027 815.383899 847.092342 815.383899 866.736486 801.5 876.558559 787.616502 866.736486 787.616101 847.092342"></polygon>
        <path d="M814.840653,816.427267 C817.42926,818.151551 819.134921,821.097254 819.134921,824.441441 C819.134921,829.755316 814.828326,834.063063 809.515873,834.063063 C806.170095,834.063063 803.223287,832.354408 801.5,829.76187 C799.776713,832.354408 796.829905,834.063063 793.484127,834.063063 C788.171674,834.063063 783.865079,829.755316 783.865079,824.441441 C783.865079,821.097254 785.57074,818.151551 788.159347,816.427267 C783.784849,815.059812 778.399214,814.922818 772.256214,817.843104 C755.320207,825.894214 750.986355,871.930214 800.484554,891.515935 C800.718879,891.608654 801.00706,891.792793 801.5,891.792793 C801.99294,891.792793 802.281121,891.608654 802.515446,891.515935 C852.013645,871.930214 847.679793,825.894214 830.743786,817.843104 C824.600786,814.922818 819.215151,815.059812 814.840653,816.427267 L814.840653,816.427267 Z M766.423482,810.127745 C785.221837,798.99228 801.576927,813.91399 801.423073,813.91399 C801.423073,813.91399 817.778163,798.99228 836.576518,810.127745 C858.799082,823.291588 864.133802,872.888593 803.33704,894.468419 C802.83236,894.647556 802.318545,895 801.498345,895 C800.678145,895 800.16764,894.647556 799.66296,894.468419 C738.866198,872.888593 744.200918,823.291588 766.423482,810.127745 Z" stroke="#DEC54B" fill="#F5E698"></path>
        <path d="M693.126757,744.528973 C690.151671,744.238669 690.389744,746.093674 690.712094,746.73708 C691.040119,747.391813 706.000188,770.771112 747.816168,762.056534 C790.392402,753.183516 797.820637,721.89713 801,701.306877 C800.708315,701.304921 774.791163,663.363771 725.337005,657.315409 C675.882847,651.267047 646.316805,661.849756 627.844332,634.15871 C618.043728,619.467176 602.230532,683.500201 671.071995,713.335137 C657.550382,707.450872 649.662154,701.265962 645.743614,698.284082 C641.825074,695.302202 642.297306,701.667783 642.297306,701.667783 C642.297306,701.667783 644.025051,751.102191 726.728341,745.678813 C706.643544,747.057153 696.101843,744.819277 693.126757,744.528973 Z" stroke="#D02F81" fill="#E464A6"></path>
        <path d="M908.873243,744.528973 C911.848329,744.238669 911.610256,746.093674 911.287906,746.73708 C910.959881,747.391813 895.999812,770.771112 854.183832,762.056534 C811.607598,753.183516 804.179363,721.89713 801,701.306877 C801.291685,701.304921 827.208837,663.363771 876.662995,657.315409 C926.117153,651.267047 955.683195,661.849756 974.155668,634.15871 C983.956272,619.467176 999.769468,683.500201 930.928005,713.335137 C944.449618,707.450872 952.337846,701.265962 956.256386,698.284082 C960.174926,695.302202 959.702694,701.667783 959.702694,701.667783 C959.702694,701.667783 957.974949,751.102191 875.271659,745.678813 C895.356456,747.057153 905.898157,744.819277 908.873243,744.528973 Z" stroke="#D02F81" fill="#E464A6"></path>
        <path d="M800.123333,767.460919 C800.607503,767.20636 801.392391,767.206292 801.876719,767.460919 L845.35994,790.3214 C846.830608,791.094576 847.796336,790.400856 847.514255,788.756198 L839.209699,740.336921 C839.117225,739.797758 839.359712,739.051241 839.751542,738.669302 L874.930206,704.378579 C876.120001,703.218815 875.758625,702.085999 874.107251,701.846069 L825.490238,694.782433 C824.948873,694.703778 824.313826,694.242473 824.071676,693.751788 L802.331361,649.697832 C801.596071,648.207861 800.407092,648.201434 799.668639,649.697793 L777.928324,693.751106 C777.686239,694.241653 777.05131,694.703068 776.509847,694.781752 L727.897056,701.846029 C726.252898,702.084954 725.879387,703.213809 727.074227,704.37854 L762.250724,738.66862 C762.642425,739.050451 762.885026,739.796925 762.792533,740.33624 L754.488513,788.756159 C754.207658,790.393794 755.165796,791.097902 756.642702,790.3214 L800.123333,767.460919 Z" stroke="#E0D18A" fill="#F3EBC6"></path>
        <line x1="802" y1="647" x2="802" y2="728" stroke="#E0D18A"></line>
        <line x1="777.48999" y1="694.640015" x2="801" y2="728" stroke="#E0D18A"></line>
        <line x1="724.920044" y1="702.279999" x2="801" y2="728" stroke="#E0D18A"></line>
        <line x1="762.959961" y1="739.359985" x2="801" y2="728" stroke="#E0D18A"></line>
        <line x1="753.97998" y1="791.720001" x2="801" y2="728" stroke="#E0D18A"></line>
        <line x1="801" y1="767" x2="801" y2="728" stroke="#E0D18A"></line>
        <path d="M824.51001,694.640015 L801,728 L824.51001,694.640015 Z" stroke="#E0D18A"></path>
        <path d="M877.079956,702.279999 L801,728 L877.079956,702.279999 Z" stroke="#E0D18A"></path>
        <path d="M839.040039,739.359985 L801,728 L839.040039,739.359985 Z" stroke="#E0D18A"></path>
        <path d="M848.02002,791.720001 L801,728 L848.02002,791.720001 Z" stroke="#E0D18A"></path>
        <circle stroke="#E0D18A" fill="#F3EBC6" cx="801" cy="649" r="6"></circle>
        <path d="M731.572874,705.441759 C732.596867,702.290235 730.872161,698.905311 727.720637,697.881318 C724.569113,696.857326 721.184188,698.582031 720.160196,701.733555 C719.136204,704.88508 720.860909,708.270004 724.012433,709.293997 C727.163957,710.317989 730.548882,708.593283 731.572874,705.441759 Z" stroke="#E0D18A" fill="#F3EBC6"></path>
        <path d="M758.091677,787.058241 C755.41083,785.110492 751.658612,785.704785 749.710863,788.385631 C747.763114,791.066478 748.357407,794.818696 751.038254,796.766445 C753.7191,798.714194 757.471318,798.119901 759.419067,795.439054 C761.366816,792.758208 760.772523,789.00599 758.091677,787.058241 Z" stroke="#E0D18A" fill="#F3EBC6"></path>
        <path d="M843.908323,787.058241 C841.227477,789.00599 840.633184,792.758208 842.580933,795.439054 C844.528682,798.119901 848.2809,798.714194 850.961746,796.766445 C853.642593,794.818696 854.236886,791.066478 852.289137,788.385631 C850.341388,785.704785 846.58917,785.110492 843.908323,787.058241 Z" stroke="#E0D18A" fill="#F3EBC6"></path>
        <path d="M870.427126,705.441759 C871.451118,708.593283 874.836043,710.317989 877.987567,709.293997 C881.139091,708.270004 882.863796,704.88508 881.839804,701.733555 C880.815812,698.582031 877.430887,696.857326 874.279363,697.881318 C871.127839,698.905311 869.403133,702.290235 870.427126,705.441759 Z" stroke="#E0D18A" fill="#F3EBC6"></path>
        <path d="M763.441406,913.683594 C763.441406,913.683594 741.183594,892.323242 719.927734,917.967773 C709.19725,930.913768 697.803791,923.646615 697.803791,923.646615 C697.319419,923.384963 697.052348,923.603651 697.222988,924.130105 C697.222988,924.130105 700.033691,935.114746 710.36084,939.091797 C711.524414,946.428223 694.284497,954.84462 694.284497,954.84462 C693.796488,955.093854 693.836358,955.423426 694.36127,955.563648 C694.36127,955.563648 715.828511,962.457902 729.385742,945.885254 C744.373047,927.564453 763.383789,939.77832 763.383789,939.77832 L763.441406,913.683594 Z" stroke="#DEC54B" fill="#F5E698"></path>
        <path d="M838.558594,913.683594 C838.558594,913.683594 860.816406,892.323242 882.072266,917.967773 C892.80275,930.913768 904.196209,923.646615 904.196209,923.646615 C904.680581,923.384963 904.947652,923.603651 904.777012,924.130105 C904.777012,924.130105 901.966309,935.114746 891.63916,939.091797 C890.475586,946.428223 907.715503,954.84462 907.715503,954.84462 C908.203512,955.093854 908.163642,955.423426 907.63873,955.563648 C907.63873,955.563648 886.171489,962.457902 872.614258,945.885254 C857.626953,927.564453 838.616211,939.77832 838.616211,939.77832 L838.558594,913.683594 Z" stroke="#DEC54B" fill="#F5E698"></path>
        <path d="M809.8,928.597015 C795.632812,951.29326 774.19692,954.873439 774.19692,954.873439 C769.117601,956.385872 764.039227,953.428942 763.112377,948.199038 C763.112377,948.199038 761.615625,945.457847 761.615625,928.597015 C761.615625,911.736182 763.114841,908.978985 763.114841,908.978985 C764.155985,903.789223 769.036049,901.075672 773.923319,903.111605 C773.923319,903.111605 795.632812,909.730702 809.8,928.597015 Z" stroke="#DEC54B" fill="#F5E698"></path>
        <path d="M792.2,928.597015 C806.367188,951.29326 827.80308,954.873439 827.80308,954.873439 C832.882399,956.385872 837.960773,953.428942 838.887623,948.199038 C838.887623,948.199038 840.384375,945.457847 840.384375,928.597015 C840.384375,911.736182 838.885159,908.978985 838.885159,908.978985 C837.844015,903.789223 832.963951,901.075672 828.076681,903.111605 C828.076681,903.111605 806.367188,909.730702 792.2,928.597015 Z" stroke="#DEC54B" fill="#F5E698"></path>
        <ellipse stroke="#DEC54B" fill="#F5E698" cx="801" cy="931.820896" rx="14.4" ry="14.5074627"></ellipse>
    </g>
</svg>