<?xml version="1.0" encoding="UTF-8"?>
<svg width="3200" height="2400" viewBox="0 0 800 600" version="1.1" xmlns="http://www.w3.org/2000/svg" xmlns:xlink="http://www.w3.org/1999/xlink">
    <title>portfolio-icons</title>
    <g stroke="none">
        <rect fill="#EBCDC2" x="0" y="0" width="800" height="600"></rect>
        <path d="M105.993065,62.5 L194.006935,62.5 C197.316813,62.5 200,65.1780403 200,68.5033309 L200,78.5 L100,78.5 L100,68.5033309 C100,65.1877828 102.687681,62.5 105.993065,62.5 Z" fill="#E8E6E8"></path>
        <circle fill="#FC645F" cx="110" cy="70.5" r="3"></circle>
        <circle fill="#FDBD41" cx="121" cy="70.5" r="3"></circle>
        <circle fill="#35CC4B" cx="132" cy="70.5" r="3"></circle>
        <path d="M100,78.5 L200,78.5 L200,156.492638 C200,159.810412 197.312319,162.5 194.006935,162.5 L105.993065,162.5 C102.683187,162.5 100,159.812094 100,156.492638 L100,78.5 L100,78.5 Z" fill="#99B3CC"></path>
        <rect fill="#FFFFFF" x="171" y="83.5" width="24" height="10" rx="1"></rect>
        <circle fill="#16324A" cx="110" cy="88.5" r="5"></circle>
        <rect fill="#FFFFFF" x="126" y="102.5" width="48" height="36" rx="2"></rect>
        <rect fill="#3A3B39" x="130" y="106.5" width="40" height="28" rx="1"></rect>
        <rect fill="#0062A9" x="225" y="62.5" width="100" height="100" rx="6"></rect>
        <path d="M225,150.5 L253.008383,150.5 C254.108323,150.5 255,151.40195 255,152.50853 L255,162.5 L230.998845,162.5 C227.685774,162.5 225,159.806966 225,156.5 L225,150.5 Z" fill="#003054"></path>
        <circle fill="#99C0DC" cx="244" cy="113.5" r="8"></circle>
        <circle fill="#99C0DC" cx="265" cy="113.5" r="8"></circle>
        <circle fill="#99C0DC" cx="286" cy="113.5" r="8"></circle>
        <circle fill="#99C0DC" cx="307" cy="113.5" r="8"></circle>
        <circle fill="#99C0DC" cx="267" cy="140.5" r="5"></circle>
        <circle fill="#99C0DC" cx="283" cy="140.5" r="5"></circle>
        <circle fill="#99C0DC" cx="254" cy="86.5" r="5"></circle>
        <circle fill="#99C0DC" cx="275" cy="86.5" r="10"></circle>
        <circle fill="#99C0DC" cx="296" cy="86.5" r="5"></circle>
        <rect fill="#222222" x="350" y="62.5" width="100" height="100" rx="6"></rect>
        <rect fill="#D6DDBF" x="382" y="136.5" width="18" height="18" rx="2"></rect>
        <path d="M382,149.5 L392.99724,149.5 C394.103334,149.5 395,150.3939 395,151.504882 L395,154.5 L384.00276,154.5 C382.896666,154.5 382,153.6061 382,152.495118 L382,149.5 Z" fill="#ABB098"></path>
        <path d="M382,106.504947 C382,105.397645 382.89473,104.5 383.996307,104.5 L440.003693,104.5 C441.106223,104.5 442,105.397026 442,106.504947 L442,126.495053 C442,127.602355 441.10527,128.5 440.003693,128.5 L383.996307,128.5 C382.893777,128.5 382,127.602974 382,126.495053 L382,106.504947 Z" fill="#2F4B49"></path>
        <path d="M382,123.5 L406.002995,123.5 C407.105911,123.5 408,124.3939 408,125.504882 L408,128.5 L383.997005,128.5 C382.894089,128.5 382,127.6061 382,126.495118 L382,123.5 Z" fill="#253C3A"></path>
        <rect fill="#647E98" x="408" y="136.5" width="34" height="18" rx="2"></rect>
        <path d="M408,149.5 L432.002995,149.5 C433.105911,149.5 434,150.3939 434,151.504882 L434,154.5 L409.997005,154.5 C408.894089,154.5 408,153.6061 408,152.495118 L408,149.5 Z" fill="#506479"></path>
        <rect fill="#79BA3C" x="358" y="104.5" width="16" height="50" rx="2"></rect>
        <path d="M358,106.49406 C358,105.392771 358.894514,104.5 359.99406,104.5 L372.00594,104.5 C373.107229,104.5 374,105.394514 374,106.49406 L374,120.5 L358,120.5 L358,106.49406 Z" fill="#D8D8D8"></path>
        <rect fill="#656565" x="358" y="90.5" width="60" height="8" rx="4"></rect>
        <circle fill="#FFFFFF" cx="362" cy="74.5" r="4"></circle>
        <circle fill="#FFFFFF" cx="438" cy="74.5" r="4"></circle>
        <path d="M575,74.5 L575,156.503323 C575,159.815196 572.312319,162.5 569.006935,162.5 L480.993065,162.5 C477.683187,162.5 475,159.818285 475,156.503323 L475,74.5 L575,74.5 Z" fill="#A6B2A5"></path>
        <rect fill="#BD6165" x="562" y="117.5" width="6" height="38" rx="3"></rect>
        <path d="M480.993065,62.5 L569.006935,62.5 C572.316813,62.5 575,65.1930342 575,68.5 L575,74.5 L475,74.5 L475,68.5 C475,65.1862915 477.687681,62.5 480.993065,62.5 Z" fill="#332012"></path>
        <circle fill="#585499" cx="525.5" cy="73" r="5.5"></circle>
        <path d="M481,87.4961002 C481,85.8413998 482.343394,84.5 483.993614,84.5 L525.006386,84.5 C526.659713,84.5 528,85.8342595 528,87.4961002 L528,113.5039 C528,115.1586 526.656606,116.5 525.006386,116.5 L483.993614,116.5 C482.340287,116.5 481,115.16574 481,113.5039 L481,87.4961002 Z" fill="#462B18"></path>
        <path d="M481,126 C481,124.619288 482.115447,123.5 483.49374,123.5 L525.50626,123.5 C526.883515,123.5 528,124.609662 528,126 L528,126 C528,127.380712 526.884553,128.5 525.50626,128.5 L483.49374,128.5 C482.116485,128.5 481,127.390338 481,126 L481,126 Z" fill="#E9D28B"></path>
        <path d="M481,135 C481,133.619288 482.115447,132.5 483.49374,132.5 L525.50626,132.5 C526.883515,132.5 528,133.609662 528,135 L528,135 C528,136.380712 526.884553,137.5 525.50626,137.5 L483.49374,137.5 C482.116485,137.5 481,136.390338 481,135 L481,135 Z" fill="#E9D28B"></path>
        <path d="M481,144 C481,142.619288 482.115447,141.5 483.49374,141.5 L525.50626,141.5 C526.883515,141.5 528,142.609662 528,144 L528,144 C528,145.380712 526.884553,146.5 525.50626,146.5 L483.49374,146.5 C482.116485,146.5 481,145.390338 481,144 L481,144 Z" fill="#E9D28B"></path>
        <path d="M481,153 C481,151.619288 482.115447,150.5 483.49374,150.5 L525.50626,150.5 C526.883515,150.5 528,151.609662 528,153 L528,153 C528,154.380712 526.884553,155.5 525.50626,155.5 L483.49374,155.5 C482.116485,155.5 481,154.390338 481,153 L481,153 Z" fill="#E9D28B"></path>
        <circle fill="#F3C45D" cx="550" cy="68.5" r="2"></circle>
        <path d="M558,70.5 C559.104569,70.5 560,69.6045695 560,68.5 C560,67.3954305 559.104569,66.5 558,66.5 C556.895431,66.5 556,67.3954305 556,68.5 C556,69.6045695 556.895431,70.5 558,70.5 Z" fill="#F3C45D"></path>
        <path d="M566,70.5 C567.104569,70.5 568,69.6045695 568,68.5 C568,67.3954305 567.104569,66.5 566,66.5 C564.895431,66.5 564,67.3954305 564,68.5 C564,69.6045695 564.895431,70.5 566,70.5 Z" fill="#C6C6C6"></path>
        <circle fill="#4A3D5C" cx="546.5" cy="110" r="9.5"></circle>
        <rect fill="#F8A74D" x="600" y="62.5" width="100" height="100" rx="6"></rect>
        <circle fill="#FFFFFF" cx="688" cy="74.5" r="3"></circle>
        <circle fill="#FFFFFF" cx="688" cy="150.5" r="3"></circle>
        <circle fill="#FFFFFF" cx="612" cy="74.5" r="3"></circle>
        <circle fill="#FFFFFF" cx="612" cy="150.5" r="3"></circle>
        <circle fill="#FFFFFF" cx="636" cy="128.5" r="9"></circle>
        <circle fill="#FFFFFF" cx="664" cy="128.5" r="9"></circle>
        <rect fill="#FFFFFF" x="610" y="87.5" width="80" height="5" rx="2.5"></rect>
        <rect fill="#FFFFFF" x="610" y="102.5" width="57" height="5" rx="2.5"></rect>
        <path d="M105.993065,187.5 L194.006935,187.5 C197.316813,187.5 200,190.17804 200,193.503331 L200,203.5 L100,203.5 L100,193.503331 C100,190.187783 102.687681,187.5 105.993065,187.5 Z" fill="#E8E6E8"></path>
        <circle fill="#FC645F" cx="110" cy="195.5" r="3"></circle>
        <circle fill="#FDBD41" cx="121" cy="195.5" r="3"></circle>
        <circle fill="#35CC4B" cx="132" cy="195.5" r="3"></circle>
        <path d="M200,203.5 L200,281.492638 C200,284.810412 197.312319,287.5 194.006935,287.5 L105.993065,287.5 C102.683187,287.5 100,284.812094 100,281.492638 L100,203.5 L200,203.5 Z" fill="#B3A28A"></path>
        <rect fill="#FFFFFF" x="135" y="209.5" width="30" height="9" rx="3"></rect>
        <rect fill="#F1F1F1" x="120" y="213.5" width="8" height="3" rx="1.5"></rect>
        <rect fill="#F1F1F1" x="141" y="221.5" width="19" height="3" rx="1.5"></rect>
        <path d="M126,232.4961 C126,230.8414 127.333893,229.5 129.002615,229.5 L170.997385,229.5 C172.655683,229.5 174,230.83426 174,232.4961 L174,258.5039 C174,260.1586 172.666107,261.5 170.997385,261.5 L129.002615,261.5 C127.344317,261.5 126,260.16574 126,258.5039 L126,232.4961 Z" fill="#A38074"></path>
        <path d="M126,268.5 C126,266.843146 127.333893,265.5 129.002615,265.5 L170.997385,265.5 C172.655683,265.5 174,266.846517 174,268.5 L174,268.5 C174,270.156854 172.666107,271.5 170.997385,271.5 L129.002615,271.5 C127.344317,271.5 126,270.153483 126,268.5 L126,268.5 Z" fill="#242424"></path>
        <rect fill="#423C33" x="100" y="275.5" width="100" height="6"></rect>
        <rect fill="#F1F1F1" x="173" y="219.5" width="8" height="3" rx="1.5"></rect>
        <rect fill="#F1F1F1" x="120" y="219.5" width="8" height="3" rx="1.5"></rect>
        <rect fill="#F1F1F1" x="173" y="213.5" width="8" height="3" rx="1.5"></rect>
        <path d="M230.993065,187.5 L319.006935,187.5 C322.316813,187.5 325,190.17804 325,193.503331 L325,203.5 L225,203.5 L225,193.503331 C225,190.187783 227.687681,187.5 230.993065,187.5 Z" fill="#E8E6E8"></path>
        <circle fill="#FC645F" cx="235" cy="195.5" r="3"></circle>
        <circle fill="#FDBD41" cx="246" cy="195.5" r="3"></circle>
        <circle fill="#35CC4B" cx="257" cy="195.5" r="3"></circle>
        <path d="M225,203.5 L325,203.5 L325,281.492638 C325,284.810412 322.312319,287.5 319.006935,287.5 L230.993065,287.5 C227.683187,287.5 225,284.812094 225,281.492638 L225,203.5 L225,203.5 Z" fill="#433039"></path>
        <rect fill="#DDD0CA" x="233" y="217.5" width="25" height="6" rx="3"></rect>
        <path d="M233,229 C233,228.171573 233.662544,227.5 234.491265,227.5 L244.508735,227.5 C245.332338,227.5 246,228.165797 246,229 L246,229 C246,229.828427 245.337456,230.5 244.508735,230.5 L234.491265,230.5 C233.667662,230.5 233,229.834203 233,229 L233,229 Z" fill="#BFAEA6"></path>
        <rect fill="#DDD0CA" x="233" y="237.5" width="18" height="3" rx="1.5"></rect>
        <path d="M233,246 C233,245.171573 233.662544,244.5 234.491265,244.5 L244.508735,244.5 C245.332338,244.5 246,245.165797 246,246 L246,246 C246,246.828427 245.337456,247.5 244.508735,247.5 L234.491265,247.5 C233.667662,247.5 233,246.834203 233,246 L233,246 Z" fill="#BFAEA6"></path>
        <rect fill="#BFAEA6" x="233" y="251.5" width="16" height="3" rx="1.5"></rect>
        <rect fill="#BFAEA6" x="233" y="258.5" width="16" height="3" rx="1.5"></rect>
        <path d="M235,273.5 C236.104569,273.5 237,272.604569 237,271.5 C237,270.395431 236.104569,269.5 235,269.5 C233.895431,269.5 233,270.395431 233,271.5 C233,272.604569 233.895431,273.5 235,273.5 L235,273.5 Z" fill="#BFAEA6" fill-rule="nonzero"></path>
        <path d="M241,273.5 C242.104569,273.5 243,272.604569 243,271.5 C243,270.395431 242.104569,269.5 241,269.5 C239.895431,269.5 239,270.395431 239,271.5 C239,272.604569 239.895431,273.5 241,273.5 L241,273.5 Z" fill="#BFAEA6" fill-rule="nonzero"></path>
        <path d="M247,273.5 C248.104569,273.5 249,272.604569 249,271.5 C249,270.395431 248.104569,269.5 247,269.5 C245.895431,269.5 245,270.395431 245,271.5 C245,272.604569 245.895431,273.5 247,273.5 L247,273.5 Z" fill="#BFAEA6" fill-rule="nonzero"></path>
        <path d="M253,273.5 C254.104569,273.5 255,272.604569 255,271.5 C255,270.395431 254.104569,269.5 253,269.5 C251.895431,269.5 251,270.395431 251,271.5 C251,272.604569 251.895431,273.5 253,273.5 L253,273.5 Z" fill="#BFAEA6" fill-rule="nonzero"></path>
        <rect fill="#70494A" x="265" y="217.5" width="22" height="22" rx="2"></rect>
        <rect fill="#70494A" x="265" y="247.5" width="22" height="22" rx="2"></rect>
        <rect fill="#70494A" x="295" y="217.5" width="22" height="22" rx="2"></rect>
        <rect fill="#70494A" x="295" y="247.5" width="22" height="22" rx="2"></rect>
        <path d="M355.993065,187.5 L444.006935,187.5 C447.316813,187.5 450,190.17804 450,193.503331 L450,203.5 L350,203.5 L350,193.503331 C350,190.187783 352.687681,187.5 355.993065,187.5 Z" fill="#E8E6E8"></path>
        <circle fill="#FC645F" cx="360" cy="195.5" r="3"></circle>
        <circle fill="#FDBD41" cx="371" cy="195.5" r="3"></circle>
        <circle fill="#35CC4B" cx="382" cy="195.5" r="3"></circle>
        <path d="M350,203.5 L450,203.5 L450,281.492638 C450,284.810412 447.312319,287.5 444.006935,287.5 L355.993065,287.5 C352.683187,287.5 350,284.812094 350,281.492638 L350,203.5 L350,203.5 Z" fill="#FFFFFF"></path>
        <path d="M355,252.499807 C355,251.947629 355.437881,251.5 356.002929,251.5 L362,251.5 L364,249.5 L366,251.5 L371.997071,251.5 C372.550973,251.5 373,251.943717 373,252.499807 L373,255.500193 C373,256.052371 372.555054,256.5 372.006602,256.5 L355.993398,256.5 C355.444759,256.5 355,256.056283 355,255.500193 L355,252.499807 Z" fill="#EDEDED"></path>
        <circle fill="#444349" cx="364" cy="242.5" r="6"></circle>
        <path d="M379,252.499807 C379,251.947629 379.437881,251.5 380.002929,251.5 L386,251.5 L388,249.5 L390,251.5 L395.997071,251.5 C396.550973,251.5 397,251.943717 397,252.499807 L397,255.500193 C397,256.052371 396.555054,256.5 396.006602,256.5 L379.993398,256.5 C379.444759,256.5 379,256.056283 379,255.500193 L379,252.499807 Z" fill="#EDEDED"></path>
        <circle fill="#FDBF54" cx="388" cy="242.5" r="6"></circle>
        <path d="M403,252.499807 C403,251.947629 403.437881,251.5 404.002929,251.5 L410,251.5 L412,249.5 L414,251.5 L419.997071,251.5 C420.550973,251.5 421,251.943717 421,252.499807 L421,255.500193 C421,256.052371 420.555054,256.5 420.006602,256.5 L403.993398,256.5 C403.444759,256.5 403,256.056283 403,255.500193 L403,252.499807 Z" fill="#EDEDED"></path>
        <circle fill="#9F745D" cx="412" cy="242.5" r="6"></circle>
        <path d="M427,252.499807 C427,251.947629 427.437881,251.5 428.002929,251.5 L434,251.5 L436,249.5 L438,251.5 L443.997071,251.5 C444.550973,251.5 445,251.943717 445,252.499807 L445,255.500193 C445,256.052371 444.555054,256.5 444.006602,256.5 L427.993398,256.5 C427.444759,256.5 427,256.056283 427,255.500193 L427,252.499807 Z" fill="#EDEDED"></path>
        <circle fill="#3B5A76" cx="436" cy="242.5" r="6"></circle>
        <path d="M355,276.499807 C355,275.947629 355.437881,275.5 356.002929,275.5 L362,275.5 L364,273.5 L366,275.5 L371.997071,275.5 C372.550973,275.5 373,275.943717 373,276.499807 L373,279.500193 C373,280.052371 372.555054,280.5 372.006602,280.5 L355.993398,280.5 C355.444759,280.5 355,280.056283 355,279.500193 L355,276.499807 Z" fill="#EDEDED"></path>
        <circle fill="#37ABE0" cx="364" cy="266.5" r="6"></circle>
        <path d="M379,276.499807 C379,275.947629 379.437881,275.5 380.002929,275.5 L386,275.5 L388,273.5 L390,275.5 L395.997071,275.5 C396.550973,275.5 397,275.943717 397,276.499807 L397,279.500193 C397,280.052371 396.555054,280.5 396.006602,280.5 L379.993398,280.5 C379.444759,280.5 379,280.056283 379,279.500193 L379,276.499807 Z" fill="#EDEDED"></path>
        <circle fill="#3C5B96" cx="388" cy="266.5" r="6"></circle>
        <path d="M403,276.499807 C403,275.947629 403.437881,275.5 404.002929,275.5 L410,275.5 L412,273.5 L414,275.5 L419.997071,275.5 C420.550973,275.5 421,275.943717 421,276.499807 L421,279.500193 C421,280.052371 420.555054,280.5 420.006602,280.5 L403.993398,280.5 C403.444759,280.5 403,280.056283 403,279.500193 L403,276.499807 Z" fill="#EDEDED"></path>
        <circle fill="#0D6798" cx="412" cy="266.5" r="6"></circle>
        <path d="M427,276.499807 C427,275.947629 427.437881,275.5 428.002929,275.5 L434,275.5 L436,273.5 L438,275.5 L443.997071,275.5 C444.550973,275.5 445,275.943717 445,276.499807 L445,279.500193 C445,280.052371 444.555054,280.5 444.006602,280.5 L427.993398,280.5 C427.444759,280.5 427,280.056283 427,279.500193 L427,276.499807 Z" fill="#EDEDED"></path>
        <circle fill="#4484C3" cx="436" cy="266.5" r="6"></circle>
        <rect fill="#DDDDDD" x="416" y="210.5" width="21" height="10" rx="5"></rect>
        <circle fill="#D52027" cx="369" cy="215.5" r="5"></circle>
        <circle fill="#D44C27" cx="382" cy="215.5" r="5"></circle>
        <circle fill="#D56527" cx="395" cy="215.5" r="5"></circle>
        <circle fill="#D3862A" cx="408" cy="215.5" r="5"></circle>
        <rect fill="#555555" x="378" y="224.5" width="45" height="4" rx="2"></rect>
        <path d="M480.993065,187.5 L569.006935,187.5 C572.316813,187.5 575,190.17804 575,193.503331 L575,203.5 L475,203.5 L475,193.503331 C475,190.187783 477.687681,187.5 480.993065,187.5 Z" fill="#E8E6E8"></path>
        <circle fill="#FC645F" cx="485" cy="195.5" r="3"></circle>
        <circle fill="#FDBD41" cx="496" cy="195.5" r="3"></circle>
        <circle fill="#35CC4B" cx="507" cy="195.5" r="3"></circle>
        <path d="M475,218.5 L575,218.5 L575,281.497407 C575,284.812548 572.312319,287.5 569.006935,287.5 L480.993065,287.5 C477.683187,287.5 475,284.816295 475,281.497407 L475,218.5 L475,218.5 Z" fill="#FFFFFF"></path>
        <rect fill="#4B4D52" x="475" y="203.5" width="100" height="15"></rect>
        <circle fill="#6FF8A0" cx="489.5" cy="211" r="4.5"></circle>
        <rect fill="#43F7CC" x="497" y="206.5" width="26" height="5" rx="2.5"></rect>
        <rect fill="#FFFFFF" x="497" y="213.5" width="18" height="2" rx="1"></rect>
        <rect fill="#2CFDFE" x="533" y="210.5" width="4" height="2" rx="1"></rect>
        <rect fill="#43F7CC" x="540" y="210.5" width="4" height="2" rx="1"></rect>
        <rect fill="#6FF8A0" x="547" y="210.5" width="4" height="2" rx="1"></rect>
        <rect fill="#B4FB69" x="554" y="210.5" width="4" height="2" rx="1"></rect>
        <rect fill="#E3FD4A" x="561" y="210.5" width="4" height="2" rx="1"></rect>
        <rect fill="#4B4D52" x="485" y="228.5" width="80" height="42" rx="3"></rect>
        <rect fill="#4B4D52" x="518" y="275.5" width="14" height="6" rx="3"></rect>
        <rect fill="#EDEDED" x="485" y="277.5" width="30" height="2" rx="1"></rect>
        <rect fill="#EDEDED" x="535" y="277.5" width="30" height="2" rx="1"></rect>
        <path d="M605.993065,187.5 L694.006935,187.5 C697.316813,187.5 700,190.17804 700,193.503331 L700,203.5 L600,203.5 L600,193.503331 C600,190.187783 602.687681,187.5 605.993065,187.5 Z" fill="#E8E6E8"></path>
        <circle fill="#FC645F" cx="610" cy="195.5" r="3"></circle>
        <circle fill="#FDBD41" cx="621" cy="195.5" r="3"></circle>
        <circle fill="#35CC4B" cx="632" cy="195.5" r="3"></circle>
        <path d="M600,218.5 L700,218.5 L700,281.497407 C700,284.812548 697.312319,287.5 694.006935,287.5 L605.993065,287.5 C602.683187,287.5 600,284.816295 600,281.497407 L600,218.5 L600,218.5 Z" fill="#F2F2F2"></path>
        <circle fill="#343434" cx="677" cy="249.5" r="13"></circle>
        <path d="M610,230.505859 C610,229.398054 610.898116,228.5 612.002,228.5 L650.998,228.5 C652.103674,228.5 653,229.39706 653,230.505859 L653,240.494141 C653,241.601946 652.101884,242.5 650.998,242.5 L612.002,242.5 C610.896326,242.5 610,241.60294 610,240.494141 L610,230.505859 Z" fill="#C1C1C1"></path>
        <path d="M610,259.505859 C610,258.398054 610.898116,257.5 612.002,257.5 L650.998,257.5 C652.103674,257.5 653,258.39706 653,259.505859 L653,269.494141 C653,270.601946 652.101884,271.5 650.998,271.5 L612.002,271.5 C610.896326,271.5 610,270.60294 610,269.494141 L610,259.505859 Z" fill="#C1C1C1"></path>
        <path d="M610,274.504882 C610,273.397616 610.898116,272.5 612.002,272.5 L650.998,272.5 C652.103674,272.5 653,273.3939 653,274.504882 L653,275.495118 C653,276.602384 652.101884,277.5 650.998,277.5 L612.002,277.5 C610.896326,277.5 610,276.6061 610,275.495118 L610,274.504882 Z" fill="#C1C1C1"></path>
        <path d="M610,245.504882 C610,244.397616 610.898116,243.5 612.002,243.5 L650.998,243.5 C652.103674,243.5 653,244.3939 653,245.504882 L653,246.495118 C653,247.602384 652.101884,248.5 650.998,248.5 L612.002,248.5 C610.896326,248.5 610,247.6061 610,246.495118 L610,245.504882 Z" fill="#C1C1C1"></path>
        <rect fill="#FFFFFF" x="600" y="203.5" width="100" height="15"></rect>
        <rect fill="#343434" x="658" y="210.5" width="4" height="2" rx="1"></rect>
        <rect fill="#343434" x="665" y="210.5" width="4" height="2" rx="1"></rect>
        <rect fill="#343434" x="672" y="210.5" width="4" height="2" rx="1"></rect>
        <rect fill="#343434" x="679" y="210.5" width="4" height="2" rx="1"></rect>
        <rect fill="#343434" x="686" y="210.5" width="4" height="2" rx="1"></rect>
        <rect fill="#D00A29" x="610" y="206.5" width="9" height="9" rx="2"></rect>
        <rect fill="#343434" x="622" y="208.5" width="18" height="5" rx="2.5"></rect>
        <path d="M641,211 C641,209.619288 642.121659,208.5 643.507002,208.5 L647.492998,208.5 C648.877577,208.5 650,209.609662 650,211 L650,211 C650,212.380712 648.878341,213.5 647.492998,213.5 L643.507002,213.5 C642.122423,213.5 641,212.390338 641,211 L641,211 Z" fill="#343434"></path>
        <path d="M105.993065,312.5 L194.006935,312.5 C197.316813,312.5 200,315.17804 200,318.503331 L200,328.5 L100,328.5 L100,318.503331 C100,315.187783 102.687681,312.5 105.993065,312.5 Z" fill="#E8E6E8"></path>
        <circle fill="#FC645F" cx="110" cy="320.5" r="3"></circle>
        <circle fill="#FDBD41" cx="121" cy="320.5" r="3"></circle>
        <circle fill="#35CC4B" cx="132" cy="320.5" r="3"></circle>
        <path d="M100,343.5 L200,343.5 L200,406.497407 C200,409.812548 197.312319,412.5 194.006935,412.5 L105.993065,412.5 C102.683187,412.5 100,409.816295 100,406.497407 L100,343.5 L100,343.5 Z" fill="#F2F2F2"></path>
        <path d="M110,353 C110,351.619288 111.128043,350.5 112.497723,350.5 L150.502277,350.5 C151.881731,350.5 153,351.609662 153,353 L153,353 C153,354.380712 151.871957,355.5 150.502277,355.5 L112.497723,355.5 C111.118269,355.5 110,354.390338 110,353 L110,353 Z" fill="#C1C1C1"></path>
        <rect fill="#C1C1C1" x="165" y="350.5" width="25" height="5" rx="2.5"></rect>
        <rect fill="#C1C1C1" x="165" y="357.5" width="25" height="5" rx="2.5"></rect>
        <rect fill="#C1C1C1" x="165" y="364.5" width="25" height="5" rx="2.5"></rect>
        <rect fill="#C1C1C1" x="165" y="371.5" width="25" height="5" rx="2.5"></rect>
        <rect fill="#3C5B97" x="165" y="384.5" width="7" height="5" rx="2.5"></rect>
        <rect fill="#3C5B97" x="165" y="392.5" width="9" height="2" rx="1"></rect>
        <rect fill="#AE2D2B" x="183" y="384.5" width="7" height="5" rx="2.5"></rect>
        <rect fill="#AE2D2B" x="165" y="400.5" width="13" height="2" rx="1"></rect>
        <rect fill="#5AAEEC" x="174" y="384.5" width="7" height="5" rx="2.5"></rect>
        <rect fill="#5AAEEC" x="165" y="396.5" width="16" height="2" rx="1"></rect>
        <rect fill="#C1C1C1" x="110" y="357.5" width="27" height="5" rx="2.5"></rect>
        <path d="M110,378.497005 C110,377.394089 110.898116,376.5 112.002,376.5 L150.998,376.5 C152.103674,376.5 153,377.394979 153,378.497005 L153,400.502995 C153,401.605911 152.101884,402.5 150.998,402.5 L112.002,402.5 C110.896326,402.5 110,401.605021 110,400.502995 L110,378.497005 Z" fill="#803033"></path>
        <circle fill="#C1C1C1" cx="119.5" cy="367" r="2.5"></circle>
        <circle fill="#C1C1C1" cx="129.5" cy="367" r="2.5"></circle>
        <circle fill="#C1C1C1" cx="139.5" cy="367" r="2.5"></circle>
        <rect fill="#0E344B" x="100" y="328.5" width="100" height="15"></rect>
        <rect fill="#FFFFFF" x="146" y="335.5" width="4" height="2" rx="1"></rect>
        <rect fill="#FFFFFF" x="156" y="335.5" width="4" height="2" rx="1"></rect>
        <rect fill="#FFFFFF" x="166" y="335.5" width="4" height="2" rx="1"></rect>
        <rect fill="#FFFFFF" x="176" y="335.5" width="4" height="2" rx="1"></rect>
        <rect fill="#FFFFFF" x="186" y="335.5" width="4" height="2" rx="1"></rect>
        <circle fill="#FFFFFF" cx="114.5" cy="336" r="4.5"></circle>
        <rect fill="#FFFFFF" x="122" y="333.5" width="18" height="5" rx="2.5"></rect>
        <path d="M230.993065,312.5 L319.006935,312.5 C322.316813,312.5 325,315.17804 325,318.503331 L325,328.5 L225,328.5 L225,318.503331 C225,315.187783 227.687681,312.5 230.993065,312.5 Z" fill="#E8E6E8"></path>
        <path d="M325,328.5 L325,406.497407 C325,409.812548 322.312319,412.5 319.006935,412.5 L230.993065,412.5 C227.683187,412.5 225,409.816295 225,406.497407 L225,328.5 L325,328.5 Z" fill="#121517"></path>
        <circle fill="#FC645F" cx="235" cy="320.5" r="3"></circle>
        <circle fill="#FDBD41" cx="246" cy="320.5" r="3"></circle>
        <circle fill="#35CC4B" cx="257" cy="320.5" r="3"></circle>
        <rect fill="#FFFFFF" x="261" y="333.5" width="24" height="7" rx="3.5"></rect>
        <rect fill="#B4AF35" x="260" y="342.5" width="6" height="3" rx="1.5"></rect>
        <rect fill="#B4AF35" x="269" y="342.5" width="6" height="3" rx="1.5"></rect>
        <rect fill="#B4AF35" x="278" y="342.5" width="6" height="3" rx="1.5"></rect>
        <rect fill="#B4AF35" x="287" y="342.5" width="6" height="3" rx="1.5"></rect>
        <rect fill="#B4AF35" x="296" y="342.5" width="6" height="3" rx="1.5"></rect>
        <rect fill="#A82030" x="288" y="333.5" width="13" height="7" rx="3.5"></rect>
        <circle fill="#A82030" cx="252" cy="339.5" r="4"></circle>
        <rect fill="#282C2E" x="225" y="349.5" width="100" height="18"></rect>
        <rect fill="#282C2E" x="225" y="372.5" width="100" height="8"></rect>
        <rect fill="#4A5056" x="235" y="374.5" width="37" height="4" rx="2"></rect>
        <rect fill="#4A5056" x="278" y="374.5" width="37" height="4" rx="2"></rect>
        <rect fill="#282C2E" x="225" y="385.5" width="100" height="18"></rect>
        <rect fill="#FFFFFF" x="257" y="388.5" width="37" height="3" rx="1.5"></rect>
        <rect fill="#777F87" x="235" y="352.5" width="80" height="2" rx="1"></rect>
        <rect fill="#777F87" x="235" y="357.5" width="70" height="2" rx="1"></rect>
        <rect fill="#777F87" x="235" y="362.5" width="75" height="2" rx="1"></rect>
        <circle fill="#777F87" cx="257" cy="397.5" r="3"></circle>
        <circle fill="#777F87" cx="266" cy="397.5" r="3"></circle>
        <circle fill="#777F87" cx="275" cy="397.5" r="3"></circle>
        <circle fill="#777F87" cx="284" cy="397.5" r="3"></circle>
        <circle fill="#777F87" cx="293" cy="397.5" r="3"></circle>
        <path d="M355.993065,312.5 L444.006935,312.5 C447.316813,312.5 450,315.17804 450,318.503331 L450,328.5 L350,328.5 L350,318.503331 C350,315.187783 352.687681,312.5 355.993065,312.5 Z" fill="#E8E6E8"></path>
        <circle fill="#FC645F" cx="360" cy="320.5" r="3"></circle>
        <circle fill="#FDBD41" cx="371" cy="320.5" r="3"></circle>
        <circle fill="#35CC4B" cx="382" cy="320.5" r="3"></circle>
        <path d="M450,328.5 L450,406.492638 C450,409.810412 447.312319,412.5 444.006935,412.5 L355.993065,412.5 C352.683187,412.5 350,409.812094 350,406.492638 L350,328.5 L450,328.5 Z" fill="#6AB2D4"></path>
        <polygon fill="#5489A2" points="369 328.5 431 328.5 431 412.5 369 412.5"></polygon>
        <rect fill="#423C33" x="350" y="344.5" width="100" height="6"></rect>
        <rect fill="#FFFFFF" x="392" y="333.5" width="16" height="6" rx="3"></rect>
        <rect fill="#FFFFFF" x="363" y="346.5" width="8" height="2" rx="1"></rect>
        <rect fill="#FFFFFF" x="410" y="346.5" width="8" height="2" rx="1"></rect>
        <rect fill="#FFFFFF" x="429" y="346.5" width="8" height="2" rx="1"></rect>
        <rect fill="#FFFFFF" x="382" y="346.5" width="8" height="2" rx="1"></rect>
        <rect fill="#40484B" x="374" y="354.5" width="14" height="14" rx="3"></rect>
        <rect fill="#40484B" x="374" y="373.5" width="14" height="14" rx="3"></rect>
        <rect fill="#40484B" x="374" y="392.5" width="14" height="14" rx="3"></rect>
        <rect fill="#40484B" x="393" y="392.5" width="14" height="14" rx="3"></rect>
        <rect fill="#40484B" x="412" y="392.5" width="14" height="14" rx="3"></rect>
        <rect fill="#40484B" x="393" y="354.5" width="14" height="14" rx="3"></rect>
        <rect fill="#40484B" x="412" y="354.5" width="14" height="14" rx="3"></rect>
        <rect fill="#40484B" x="393" y="373.5" width="14" height="14" rx="3"></rect>
        <rect fill="#40484B" x="412" y="373.5" width="14" height="14" rx="3"></rect>
        <circle fill="#BA125C" cx="359.5" cy="391" r="6.5"></circle>
        <circle fill="#BA125C" cx="440.5" cy="391" r="6.5"></circle>
        <path d="M480.993065,312.5 L569.006935,312.5 C572.316813,312.5 575,315.17804 575,318.503331 L575,328.5 L475,328.5 L475,318.503331 C475,315.187783 477.687681,312.5 480.993065,312.5 Z" fill="#E8E6E8"></path>
        <circle fill="#FC645F" cx="485" cy="320.5" r="3"></circle>
        <circle fill="#FDBD41" cx="496" cy="320.5" r="3"></circle>
        <circle fill="#35CC4B" cx="507" cy="320.5" r="3"></circle>
        <path d="M575,328.5 L575,406.497407 C575,409.812548 572.312319,412.5 569.006935,412.5 L480.993065,412.5 C477.683187,412.5 475,409.816295 475,406.497407 L475,328.5 L575,328.5 Z" fill="#2A282D"></path>
        <rect fill="#141316" x="485" y="328.5" width="80" height="13"></rect>
        <rect fill="#F3E3CB" x="488" y="332" width="35" height="6" rx="3"></rect>
        <rect fill="#FD9727" x="526" y="334" width="23" height="4" rx="2"></rect>
        <polygon fill="#000000" points="485 341.5 565 341.5 565 349.5 485 349.5"></polygon>
        <rect fill="#262629" x="558" y="343.5" width="4" height="4" rx="1"></rect>
        <rect fill="#262629" x="551" y="343.5" width="4" height="4" rx="1"></rect>
        <rect fill="#262629" x="544" y="343.5" width="4" height="4" rx="1"></rect>
        <rect fill="#141217" x="485" y="349.5" width="80" height="63"></rect>
        <rect fill="#FD9727" x="488" y="343.5" width="12" height="4" rx="2"></rect>
        <rect fill="#FD9727" x="503" y="343.5" width="12" height="4" rx="2"></rect>
        <path d="M518,345.5 C518,344.395431 518.90195,343.5 520.00853,343.5 L527.99147,343.5 C529.10075,343.5 530,344.38773 530,345.5 L530,345.5 C530,346.604569 529.09805,347.5 527.99147,347.5 L520.00853,347.5 C518.89925,347.5 518,346.61227 518,345.5 L518,345.5 Z" fill="#FD9727"></path>
        <rect fill="#414124" x="488" y="352.5" width="74" height="27" rx="2"></rect>
        <rect fill="#7198A1" x="488" y="382.5" width="74" height="27" rx="2"></rect>
        <rect fill="#141217" opacity="0.5" x="488" y="375.5" width="74" height="4"></rect>
        <rect fill="#141217" opacity="0.5" x="488" y="405.5" width="74" height="4"></rect>
        <path d="M605.993065,312.5 L694.006935,312.5 C697.316813,312.5 700,315.17804 700,318.503331 L700,328.5 L600,328.5 L600,318.503331 C600,315.187783 602.687681,312.5 605.993065,312.5 Z" fill="#E8E6E8"></path>
        <circle fill="#FC645F" cx="610" cy="320.5" r="3"></circle>
        <circle fill="#FDBD41" cx="621" cy="320.5" r="3"></circle>
        <circle fill="#35CC4B" cx="632" cy="320.5" r="3"></circle>
        <path d="M700,328.5 L700,406.492638 C700,409.810412 697.312319,412.5 694.006935,412.5 L605.993065,412.5 C602.683187,412.5 600,409.812094 600,406.492638 L600,328.5 L700,328.5 Z" fill="#FFFFFF"></path>
        <rect fill="#F3F3F3" x="600" y="328.5" width="100" height="12"></rect>
        <rect fill="#343434" x="610" y="332" width="17" height="2" rx="1"></rect>
        <circle fill="#343434" cx="689" cy="333" r="1"></circle>
        <rect fill="#D34836" x="610" y="336" width="7" height="2" rx="1"></rect>
        <rect fill="#D34836" x="618" y="336" width="7" height="2" rx="1"></rect>
        <path d="M610,348.5 C610,346.290861 611.796425,344.5 614.000026,344.5 L645.999974,344.5 C648.209128,344.5 650,346.295356 650,348.5 L650,348.5 C650,350.709139 648.203575,352.5 645.999974,352.5 L614.000026,352.5 C611.790872,352.5 610,350.704644 610,348.5 L610,348.5 Z" fill="#D34836"></path>
        <rect fill="#D7D7D7" x="610" y="359.5" width="24" height="2" rx="1"></rect>
        <rect fill="#D7D7D7" x="638" y="359.5" width="24" height="2" rx="1"></rect>
        <rect fill="#D7D7D7" x="666" y="359.5" width="24" height="2" rx="1"></rect>
        <rect fill="#D34836" x="610" y="355.5" width="24" height="2" rx="1"></rect>
        <rect fill="#D34836" x="638" y="355.5" width="24" height="2" rx="1"></rect>
        <rect fill="#D34836" x="666" y="355.5" width="24" height="2" rx="1"></rect>
        <rect fill="#D7D7D7" x="610" y="363.5" width="24" height="2" rx="1"></rect>
        <rect fill="#D7D7D7" x="638" y="363.5" width="24" height="2" rx="1"></rect>
        <rect fill="#D7D7D7" x="666" y="363.5" width="24" height="2" rx="1"></rect>
        <rect fill="#D34836" x="610" y="369.5" width="28" height="6" rx="3"></rect>
        <rect fill="#D7D7D7" x="610" y="378.5" width="74" height="2" rx="1"></rect>
        <rect fill="#D7D7D7" x="610" y="382.5" width="79" height="2" rx="1"></rect>
        <rect fill="#D7D7D7" x="610" y="386.5" width="71" height="2" rx="1"></rect>
        <rect fill="#D7D7D7" x="610" y="390.5" width="74" height="2" rx="1"></rect>
        <rect fill="#D34836" x="610" y="396.5" width="28" height="6" rx="3"></rect>
        <path d="M230.993065,437.5 L319.006935,437.5 C322.316813,437.5 325,440.17804 325,443.503331 L325,453.5 L225,453.5 L225,443.503331 C225,440.187783 227.687681,437.5 230.993065,437.5 Z" fill="#E8E6E8"></path>
        <circle fill="#FC645F" cx="235" cy="445.5" r="3"></circle>
        <circle fill="#FDBD41" cx="246" cy="445.5" r="3"></circle>
        <circle fill="#35CC4B" cx="257" cy="445.5" r="3"></circle>
        <path d="M325,453.5 L325,531.492638 C325,534.810412 322.312319,537.5 319.006935,537.5 L230.993065,537.5 C227.683187,537.5 225,534.812094 225,531.492638 L225,453.5 L325,453.5 Z" fill="#F1F1F1"></path>
        <rect fill="#493A6D" x="235" y="487.5" width="80" height="16" rx="2"></rect>
        <rect fill="#493A6D" x="235" y="511.5" width="80" height="16" rx="2"></rect>
        <rect fill="#27353C" x="235" y="463.5" width="30" height="8" rx="4"></rect>
        <rect fill="#531010" x="235" y="473.5" width="30" height="3" rx="1.5"></rect>
        <rect fill="#531010" x="235" y="481.5" width="22" height="4" rx="2"></rect>
        <rect fill="#531010" x="235" y="505.5" width="18" height="4" rx="2"></rect>
        <rect fill="#531010" x="280" y="475.5" width="8" height="3" rx="1.5"></rect>
        <rect fill="#531010" x="294" y="475.5" width="8" height="3" rx="1.5"></rect>
        <rect fill="#531010" x="307" y="475.5" width="8" height="3" rx="1.5"></rect>
        <circle fill="#5B6F82" cx="289" cy="467.5" r="2"></circle>
        <circle fill="#637AA5" cx="295" cy="467.5" r="2"></circle>
        <circle fill="#579F38" cx="301" cy="467.5" r="2"></circle>
        <circle fill="#3793C0" cx="307" cy="467.5" r="2"></circle>
        <circle fill="#BD3D40" cx="313" cy="467.5" r="2"></circle>
        <rect fill="#040303" x="100" y="437.5" width="100" height="100" rx="6"></rect>
        <rect fill="#D46A32" x="110" y="467.5" width="36" height="36" rx="2"></rect>
        <rect fill="#FFFFFF" x="110" y="447.5" width="36" height="10" rx="5"></rect>
        <rect fill="#FFFFFF" x="154" y="447.5" width="36" height="10" rx="5"></rect>
        <rect fill="#B39F8A" x="154" y="467.5" width="36" height="5" rx="2.5"></rect>
        <rect fill="#B39F8A" x="160" y="498.5" width="30" height="5" rx="2.5"></rect>
        <rect fill="#B39F8A" x="137" y="513.5" width="53" height="5" rx="2.5"></rect>
        <rect fill="#FFFFFF" x="110" y="513.5" width="22" height="5" rx="2.5"></rect>
        <rect fill="#FFFFFF" x="110" y="522.5" width="16" height="5" rx="2.5"></rect>
        <rect fill="#B39F8A" x="165" y="522.5" width="25" height="5" rx="2.5"></rect>
        <rect fill="#FFFFFF" x="154" y="478.5" width="22" height="5" rx="2.5"></rect>
        <rect fill="#FFFFFF" x="179" y="478.5" width="11" height="5" rx="2.5"></rect>
        <rect fill="#FFFFFF" x="154" y="487.5" width="12" height="5" rx="2.5"></rect>
        <rect fill="#FFFFFF" x="174" y="487.5" width="16" height="5" rx="2.5"></rect>
        <path d="M355.993065,437.5 L444.006935,437.5 C447.316813,437.5 450,440.17804 450,443.503331 L450,453.5 L350,453.5 L350,443.503331 C350,440.187783 352.687681,437.5 355.993065,437.5 Z" fill="#E8E6E8"></path>
        <circle fill="#FC645F" cx="360" cy="445.5" r="3"></circle>
        <circle fill="#FDBD41" cx="371" cy="445.5" r="3"></circle>
        <circle fill="#35CC4B" cx="382" cy="445.5" r="3"></circle>
        <path d="M450,453.5 L450,531.492638 C450,534.810412 447.312319,537.5 444.006935,537.5 L355.993065,537.5 C352.683187,537.5 350,534.812094 350,531.492638 L350,453.5 L450,453.5 Z" fill="#BBB7B7"></path>
        <rect fill="#212B25" x="350" y="453.5" width="100" height="16"></rect>
        <rect fill="#3C4941" x="360" y="478.5" width="80" height="59"></rect>
        <rect fill="#66624A" x="365" y="507.5" width="10" height="10" rx="3"></rect>
        <rect fill="#66624A" x="380" y="507.5" width="10" height="10" rx="3"></rect>
        <rect fill="#66624A" x="395" y="507.5" width="10" height="10" rx="3"></rect>
        <rect fill="#66624A" x="410" y="507.5" width="10" height="10" rx="3"></rect>
        <rect fill="#66624A" x="425" y="507.5" width="10" height="10" rx="3"></rect>
        <rect fill="#66624A" x="365" y="522.5" width="10" height="10" rx="3"></rect>
        <rect fill="#66624A" x="380" y="522.5" width="10" height="10" rx="3"></rect>
        <rect fill="#66624A" x="395" y="522.5" width="10" height="10" rx="3"></rect>
        <rect fill="#66624A" x="410" y="522.5" width="10" height="10" rx="3"></rect>
        <rect fill="#66624A" x="425" y="522.5" width="10" height="10" rx="3"></rect>
        <rect fill="#F1F1F1" x="365" y="483.5" width="70" height="19" rx="2"></rect>
        <rect fill="#0C110E" x="350" y="469.5" width="100" height="9"></rect>
        <rect fill="#DED7CE" x="360" y="456.5" width="51" height="6" rx="3"></rect>
        <rect fill="#DDDDDD" x="360" y="464.5" width="22" height="3" rx="1.5"></rect>
        <rect fill="#999999" x="360" y="472.5" width="10" height="3" rx="1.5"></rect>
        <rect fill="#999999" x="372" y="472.5" width="10" height="3" rx="1.5"></rect>
        <rect fill="#999999" x="384" y="472.5" width="10" height="3" rx="1.5"></rect>
        <rect fill="#999999" x="396" y="472.5" width="10" height="3" rx="1.5"></rect>
        <path d="M475,487.5 L575,487.5 L575,531.493684 C575,534.810881 572.312319,537.5 569.006935,537.5 L480.993065,537.5 C477.683187,537.5 475,534.811783 475,531.493684 L475,487.5 L475,487.5 Z" fill="#EAE5DF"></path>
        <rect fill="#5B2450" x="480" y="492.5" width="27" height="5" rx="2.5"></rect>
        <rect fill="#5B2450" x="480" y="498.5" width="27" height="1" rx="0.5"></rect>
        <rect fill="#5B2450" x="480" y="502.5" width="27" height="8" rx="4"></rect>
        <rect fill="#5B2450" x="480" y="513.5" width="27" height="5" rx="2.5"></rect>
        <rect fill="#5B2450" x="500" y="527.5" width="50" height="5" rx="2.5"></rect>
        <path d="M475,443.506316 C475,440.189119 477.687681,437.5 480.993065,437.5 L569.006935,437.5 C572.316813,437.5 575,440.188217 575,443.506316 L575,487.5 L475,487.5 L475,443.506316 L475,443.506316 Z" fill="#2F3823"></path>
        <rect fill="#FFFFFF" x="525" y="442.5" width="45" height="8" rx="4"></rect>
        <rect fill="#FFFFFF" x="545" y="453.5" width="25" height="3" rx="1.5"></rect>
        <rect fill="#777065" x="480" y="477.5" width="68" height="3" rx="1.5"></rect>
        <circle fill="#2A4F73" cx="528" cy="468.5" r="6"></circle>
        <circle fill="#F6F8F8" cx="514.5" cy="470" r="4.5"></circle>
        <circle fill="#AA5895" cx="525" cy="516.5" r="8"></circle>
        <rect fill="#22313C" x="600" y="437.5" width="100" height="100" rx="6"></rect>
        <circle fill="#D5AD73" cx="620" cy="457.5" r="10"></circle>
        <circle fill="#EFD376" cx="650" cy="457.5" r="10"></circle>
        <circle fill="#F97849" cx="680" cy="457.5" r="10"></circle>
        <circle fill="#85CBDD" cx="620" cy="487.5" r="10"></circle>
        <circle fill="#4D595C" cx="650" cy="487.5" r="10"></circle>
        <circle fill="#D4B5CF" cx="680" cy="487.5" r="10"></circle>
        <circle fill="#F5E6AD" cx="620" cy="517.5" r="10"></circle>
        <circle fill="#BDE3DE" cx="650" cy="517.5" r="10"></circle>
        <circle fill="#DF7F90" cx="680" cy="517.5" r="10"></circle>
    </g>
</svg>