<?xml version="1.0" encoding="UTF-8"?>
<svg width="3200" height="2400" viewBox="0 0 800 600" version="1.1" xmlns="http://www.w3.org/2000/svg" xmlns:xlink="http://www.w3.org/1999/xlink">
    <title>easing-graphs</title>
    <defs>
        <linearGradient x1="0%" y1="21.875%" x2="100%" y2="78.125%" id="gradient-easing-graphs">
            <stop stop-color="#E99195" offset="0%"></stop>
            <stop stop-color="#91ADE9" offset="100%"></stop>
        </linearGradient>
    </defs>
    <g id="easing-graphs" stroke="none" stroke-width="2" fill="none" fill-rule="nonzero" stroke-linecap="round" stroke-linejoin="round">
        <rect fill="#E99195" x="0" y="0" width="800" height="600"></rect>
        <rect fill="url(#gradient-easing-graphs)" x="0" y="0" width="800" height="600"></rect>
        <rect fill="#FFFFFF" x="96.2507331" y="215.250733" width="170.498534" height="170.498534" rx="2"></rect>
        <line x1="256.719941" y1="225.280059" x2="106.280059" y2="375.719941" stroke="#F1F1F1"></line>
        <polyline stroke="#F1F1F1" points="256.719941 375.719941 106.280059 375.719941 106.280059 225.280059"></polyline>
        <path d="M253.711144,324.570381 L256.719941,225.280059" stroke="#91ADE9"></path>
        <path d="M106.280059,375.719941 C106.280059,375.719941 196.543988,369.702346 196.543988,369.702346" stroke="#E99195"></path>
        <circle stroke="#91ADE9" fill="#FFFFFF" cx="253.711144" cy="324.570381" r="3.00879765"></circle>
        <circle stroke="#E99195" fill="#FFFFFF" cx="196.543988" cy="369.702346" r="3.00879765"></circle>
        <path d="M256.719941,225.280059 C253.711144,324.570381 196.543988,369.702346 106.280059,375.719941" stroke="#2B3234"></path>
        <circle stroke="#2B3234" fill="#FFFFFF" cx="106.280059" cy="375.719941" r="3.00879765"></circle>
        <circle stroke="#2B3234" fill="#FFFFFF" cx="256.719941" cy="225.280059" r="3.00879765"></circle>
        <path d="M131.328,412.368 C131.328,415.032 132.936,417.264 135.504,417.264 C136.92,417.264 138.24,416.544 138.936,415.992 C139.32,415.704 139.248,415.536 139.104,415.32 L138.792,414.84 C138.576,414.528 138.36,414.504 138.096,414.696 C137.472,415.152 136.752,415.68 135.672,415.68 C133.8,415.68 132.792,413.904 132.936,412.08 C133.488,412.128 133.992,412.152 134.472,412.152 C138.336,412.152 140.472,410.688 140.472,408.552 C140.472,406.872 139.08,405.672 137.112,405.672 C133.656,405.672 131.328,408.768 131.328,412.368 Z M133.152,410.64 C133.488,408.912 135.168,407.232 136.992,407.232 C138.096,407.232 138.72,407.904 138.72,408.648 C138.72,409.944 137.28,410.712 134.664,410.712 C134.208,410.712 133.68,410.688 133.152,410.64 Z" fill="#FFFFFF"></path>
        <path d="M152.232,406.368 C152.256,406.032 152.184,405.912 151.872,405.912 L151.32,405.912 C151.152,405.912 151.032,405.984 150.96,406.176 L150.6,406.872 C150.6,406.872 149.616,405.672 147.84,405.672 C144.84,405.672 142.44,408.312 142.44,412.368 C142.44,415.056 144.024,417.264 146.232,417.264 C148.2,417.264 149.472,415.896 149.544,415.896 L149.64,416.592 C149.664,416.832 149.736,417 150,417 L150.552,417 C150.792,417 151.008,416.88 151.032,416.592 L152.232,406.368 Z M149.568,413.88 C149.568,413.88 148.488,415.68 146.712,415.68 C145.08,415.68 144.24,413.952 144.24,412.368 C144.24,408.84 146.088,407.256 147.72,407.256 C149.472,407.256 150.216,408.576 150.216,408.576 L149.568,413.88 Z" fill="#FFFFFF"></path>
        <path d="M157.416,417.264 C159.984,417.264 161.28,415.608 161.28,413.904 C161.28,412.2 160.008,411.384 158.568,410.472 C157.728,409.944 156.984,409.488 156.984,408.696 C156.984,408.024 157.464,407.256 158.664,407.256 C159.456,407.256 160.008,407.472 160.656,407.88 C160.896,408.024 161.208,408.072 161.4,407.736 L161.64,407.28 C161.808,406.968 161.76,406.68 161.544,406.488 C161.088,406.128 160.176,405.672 158.832,405.672 C156.192,405.672 155.184,407.52 155.184,408.912 C155.184,410.496 156.432,411.24 157.584,411.96 C158.808,412.728 159.456,413.304 159.456,414.072 C159.456,414.984 158.664,415.68 157.632,415.68 C156.624,415.68 155.76,415.128 155.352,414.792 C155.112,414.6 154.824,414.624 154.68,414.864 L154.272,415.488 C154.128,415.704 154.2,415.968 154.32,416.088 C154.896,416.568 156,417.264 157.416,417.264 Z" fill="#FFFFFF"></path>
        <path d="M163.92,412.368 C163.92,415.032 165.528,417.264 168.096,417.264 C169.512,417.264 170.832,416.544 171.528,415.992 C171.912,415.704 171.84,415.536 171.696,415.32 L171.384,414.84 C171.168,414.528 170.952,414.504 170.688,414.696 C170.064,415.152 169.344,415.68 168.264,415.68 C166.392,415.68 165.384,413.904 165.528,412.08 C166.08,412.128 166.584,412.152 167.064,412.152 C170.928,412.152 173.064,410.688 173.064,408.552 C173.064,406.872 171.672,405.672 169.704,405.672 C166.248,405.672 163.92,408.768 163.92,412.368 Z M165.744,410.64 C166.08,408.912 167.76,407.232 169.584,407.232 C170.688,407.232 171.312,407.904 171.312,408.648 C171.312,409.944 169.872,410.712 167.256,410.712 C166.8,410.712 166.272,410.688 165.744,410.64 Z" fill="#FFFFFF"></path>
        <path d="M175.128,416.544 C175.08,416.784 175.248,417 175.464,417 L176.52,417 C176.736,417 176.952,416.784 176.976,416.544 L179.208,400.656 C179.256,400.416 179.088,400.2 178.872,400.2 L177.816,400.2 C177.6,400.2 177.384,400.416 177.36,400.656 L175.128,416.544 Z" fill="#FFFFFF"></path>
        <path d="M181.416,417 L182.184,417 C182.496,417 182.76,416.76 182.784,416.472 L183.864,408.84 C183.912,408.84 185.208,407.256 186.984,407.256 C188.376,407.256 188.904,408.264 188.592,410.376 L187.704,416.472 C187.656,416.76 187.848,417 188.112,417 L188.952,417 C189.192,417 189.48,416.76 189.504,416.472 L190.392,410.376 C190.776,407.52 190.056,405.672 187.368,405.672 C185.328,405.672 183.96,407.088 183.912,407.088 L183.792,406.248 C183.744,406.008 183.648,405.912 183.432,405.912 L182.952,405.912 C182.616,405.912 182.424,406.176 182.4,406.44 L181.008,416.472 C180.96,416.76 181.152,417 181.416,417 Z" fill="#FFFFFF"></path>
        <path d="M193.416,409.776 C193.416,413.904 196.488,417.24 200.088,417.24 C202.008,417.24 204,416.52 205.68,414.912 C205.848,414.744 205.968,414.456 205.776,414.264 L205.032,413.544 C204.936,413.448 204.72,413.4 204.504,413.616 C203.256,414.768 202.128,415.488 200.328,415.488 C197.376,415.488 195.384,412.728 195.384,409.56 C195.384,405.36 198.624,401.688 202.272,401.688 C203.688,401.688 205.104,402.264 206.04,403.296 C206.28,403.56 206.424,403.608 206.664,403.416 L207.36,402.864 C207.576,402.696 207.6,402.36 207.432,402.192 C206.136,400.8 204.696,399.96 202.512,399.96 C197.304,399.96 193.416,404.376 193.416,409.776 Z" fill="#FFFFFF"></path>
        <path d="M208.92,417 L209.712,417 C209.976,417 210.264,416.76 210.288,416.472 L211.68,406.44 C211.728,406.176 211.56,405.912 211.32,405.912 L210.456,405.912 C210.144,405.912 209.928,406.176 209.904,406.44 L208.512,416.472 C208.464,416.76 208.656,417 208.92,417 Z M211.272,403.056 C212.088,403.056 212.76,402.336 212.76,401.544 C212.76,400.896 212.28,400.416 211.632,400.416 C210.864,400.416 210.096,401.088 210.096,401.928 C210.096,402.552 210.576,403.056 211.272,403.056 Z" fill="#FFFFFF"></path>
        <path d="M214.464,417 L215.208,417 C215.496,417 215.76,416.76 215.832,416.472 L216.864,408.816 C217.224,408.36 218.352,407.256 219.576,407.256 C219.984,407.256 220.392,407.352 220.704,407.472 C220.968,407.568 221.184,407.616 221.328,407.28 L221.664,406.536 C221.784,406.272 221.712,406.032 221.496,405.936 C221.112,405.744 220.608,405.672 220.056,405.672 C218.496,405.672 217.44,406.536 216.96,407.088 L216.84,406.296 C216.792,406.032 216.672,405.912 216.48,405.912 L216,405.912 C215.664,405.912 215.472,406.176 215.448,406.44 L214.056,416.472 C214.008,416.76 214.2,417 214.464,417 Z" fill="#FFFFFF"></path>
        <path d="M222.456,412.296 C222.456,415.128 224.328,417.264 226.824,417.264 C228.768,417.264 230.28,416.184 230.976,414.96 C231.144,414.672 231.192,414.408 230.952,414.24 L230.376,413.832 C230.112,413.64 229.848,413.688 229.656,414 C229.32,414.504 228.408,415.68 227.04,415.68 C225.312,415.68 224.328,413.952 224.328,412.056 C224.328,409.104 226.272,407.256 228.264,407.256 C229.224,407.256 229.944,407.808 230.376,408.504 C230.52,408.744 230.808,408.888 231.072,408.648 L231.576,408.216 C231.816,408.024 231.888,407.76 231.768,407.496 C231.048,406.248 229.8,405.672 228.288,405.672 C225.072,405.672 222.456,408.408 222.456,412.296 Z" fill="#FFFFFF"></path>
        <rect fill="#FFFFFF" x="-122.749267" y="215.250733" width="170.498534" height="170.498534" rx="2"></rect>
        <line x1="37.7396166" y1="225.260383" x2="-112.739617" y2="375.739617" stroke="#F1F1F1"></line>
        <polyline stroke="#F1F1F1" points="37.7396166 375.739617 -112.739617 375.739617 -112.739617 225.260383"></polyline>
        <path d="M16.672524,366.710863 L37.7396166,225.260383" stroke="#91ADE9" fill="#FFFFFF"></path>
        <path d="M-112.739617,375.739617 C-112.739617,375.739617 1.62460064,368.466454 1.62460064,368.466454" stroke="#E99195" fill="#FFFFFF"></path>
        <circle stroke="#91ADE9" fill="#FFFFFF" cx="16.672524" cy="366.710863" r="3.00958466"></circle>
        <circle stroke="#E99195" fill="#FFFFFF" cx="1.62460064" cy="368.215655" r="3.00958466"></circle>
        <path d="M37.7396166,225.260383 C16.672524,366.710863 1.62460064,368.466454 -112.739617,375.739617" stroke="#2B3234"></path>
        <circle stroke="#2B3234" fill="#FFFFFF" cx="37.7396166" cy="225.260383" r="3.00958466"></circle>
        <path d="M-7.32,417.24 C-6.816,417.24 -6.24,417.216 -5.736,417.12 L-4.104,421.368 C-3.984,421.656 -3.84,421.752 -3.648,421.752 L-2.64,421.752 C-2.136,421.752 -1.968,421.344 -2.112,421.032 L-4.008,416.568 C-0.336,414.84 1.8,411.072 1.8,407.328 C1.8,403.152 -1.152,399.96 -4.992,399.96 C-10.368,399.96 -14.064,405.24 -14.064,409.92 C-14.064,414.096 -11.112,417.24 -7.32,417.24 Z M-7.128,415.56 C-10.176,415.56 -12.336,413.04 -12.336,409.752 C-12.336,405.816 -9.216,401.64 -5.184,401.64 C-2.112,401.64 0.072,404.232 0.072,407.544 C0.072,411.48 -3.144,415.56 -7.128,415.56 Z" fill="#FFFFFF"></path>
        <path d="M7.008,417.264 C9.048,417.264 10.152,415.872 10.224,415.824 L10.32,416.52 C10.368,416.808 10.44,417 10.704,417 L11.184,417 C11.496,417 11.712,416.76 11.736,416.472 L13.152,406.44 C13.176,406.176 12.984,405.912 12.72,405.912 L11.928,405.912 C11.664,405.912 11.4,406.176 11.376,406.44 L10.296,413.88 C10.272,413.88 9.168,415.68 7.44,415.68 C5.928,415.68 5.544,414.816 5.856,412.704 L6.72,406.44 C6.744,406.176 6.552,405.912 6.288,405.912 L5.448,405.912 C5.208,405.912 4.944,406.176 4.896,406.44 L4.056,412.68 C3.624,415.608 4.368,417.264 7.008,417.264 Z" fill="#FFFFFF"></path>
        <path d="M15.96,417 L16.752,417 C17.016,417 17.304,416.76 17.328,416.472 L18.72,406.44 C18.768,406.176 18.6,405.912 18.36,405.912 L17.496,405.912 C17.184,405.912 16.968,406.176 16.944,406.44 L15.552,416.472 C15.504,416.76 15.696,417 15.96,417 Z M18.312,403.056 C19.128,403.056 19.8,402.336 19.8,401.544 C19.8,400.896 19.32,400.416 18.672,400.416 C17.904,400.416 17.136,401.088 17.136,401.928 C17.136,402.552 17.616,403.056 18.312,403.056 Z" fill="#FFFFFF"></path>
        <path d="M21.504,417 L22.272,417 C22.584,417 22.848,416.76 22.872,416.472 L23.952,408.84 C24,408.84 25.296,407.256 27.072,407.256 C28.464,407.256 28.992,408.264 28.68,410.376 L27.792,416.472 C27.744,416.76 27.936,417 28.2,417 L29.04,417 C29.28,417 29.568,416.76 29.592,416.472 L30.48,410.376 C30.864,407.52 30.144,405.672 27.456,405.672 C25.416,405.672 24.048,407.088 24,407.088 L23.88,406.248 C23.832,406.008 23.736,405.912 23.52,405.912 L23.04,405.912 C22.704,405.912 22.512,406.176 22.488,406.44 L21.096,416.472 C21.048,416.76 21.24,417 21.504,417 Z" fill="#FFFFFF"></path>
        <path d="M36.264,417.264 C37.416,417.264 38.496,416.76 39.024,416.352 C39.312,416.136 39.456,415.968 39.312,415.632 L39.048,415.032 C38.952,414.816 38.76,414.528 38.4,414.816 C38.04,415.104 37.2,415.584 36.648,415.584 C36.12,415.584 35.64,415.416 35.784,414.312 L36.768,407.472 L39.624,407.472 C39.888,407.472 40.152,407.232 40.176,406.944 L40.248,406.44 C40.272,406.128 40.128,405.912 39.84,405.912 L37.008,405.912 L37.44,402.792 C37.488,402.504 37.296,402.24 37.056,402.264 L36.192,402.312 C35.928,402.336 35.688,402.552 35.64,402.84 L35.232,405.912 L33.912,405.912 C33.648,405.912 33.48,406.128 33.384,406.44 L33.288,406.944 C33.24,407.232 33.432,407.472 33.72,407.472 L34.968,407.472 L34.008,414.24 C33.768,415.944 34.536,417.264 36.264,417.264 Z" fill="#FFFFFF"></path>
        <rect fill="#FFFFFF" x="753.250733" y="215.250733" width="170.498534" height="170.498534" rx="2"></rect>
        <line x1="913.739617" y1="225.260383" x2="763.260383" y2="375.739617" stroke="#F1F1F1"></line>
        <polyline stroke="#F1F1F1" points="913.739617 375.739617 763.260383 375.739617 763.260383 225.260383"></polyline>
        <path d="M763.260383,375.739617 C763.260383,375.739617 877.624601,368.466454 877.624601,368.466454" stroke="#E99195" fill="#FFFFFF"></path>
        <path d="M913.739617,225.260383 C892.672524,366.710863 877.624601,368.466454 763.260383,375.739617" stroke="#2B3234"></path>
        <circle stroke="#2B3234" fill="#FFFFFF" cx="763.260383" cy="375.739617" r="3.00958466"></circle>
        <path d="M761.328,412.368 C761.328,415.032 762.936,417.264 765.504,417.264 C766.92,417.264 768.24,416.544 768.936,415.992 C769.32,415.704 769.248,415.536 769.104,415.32 L768.792,414.84 C768.576,414.528 768.36,414.504 768.096,414.696 C767.472,415.152 766.752,415.68 765.672,415.68 C763.8,415.68 762.792,413.904 762.936,412.08 C763.488,412.128 763.992,412.152 764.472,412.152 C768.336,412.152 770.472,410.688 770.472,408.552 C770.472,406.872 769.08,405.672 767.112,405.672 C763.656,405.672 761.328,408.768 761.328,412.368 Z M763.152,410.64 C763.488,408.912 765.168,407.232 766.992,407.232 C768.096,407.232 768.72,407.904 768.72,408.648 C768.72,409.944 767.28,410.712 764.664,410.712 C764.208,410.712 763.68,410.688 763.152,410.64 Z" fill="#FFFFFF"></path>
        <path d="M782.232,406.368 C782.256,406.032 782.184,405.912 781.872,405.912 L781.32,405.912 C781.152,405.912 781.032,405.984 780.96,406.176 L780.6,406.872 C780.6,406.872 779.616,405.672 777.84,405.672 C774.84,405.672 772.44,408.312 772.44,412.368 C772.44,415.056 774.024,417.264 776.232,417.264 C778.2,417.264 779.472,415.896 779.544,415.896 L779.64,416.592 C779.664,416.832 779.736,417 780,417 L780.552,417 C780.792,417 781.008,416.88 781.032,416.592 L782.232,406.368 Z M779.568,413.88 C779.568,413.88 778.488,415.68 776.712,415.68 C775.08,415.68 774.24,413.952 774.24,412.368 C774.24,408.84 776.088,407.256 777.72,407.256 C779.472,407.256 780.216,408.576 780.216,408.576 L779.568,413.88 Z" fill="#FFFFFF"></path>
        <path d="M787.416,417.264 C789.984,417.264 791.28,415.608 791.28,413.904 C791.28,412.2 790.008,411.384 788.568,410.472 C787.728,409.944 786.984,409.488 786.984,408.696 C786.984,408.024 787.464,407.256 788.664,407.256 C789.456,407.256 790.008,407.472 790.656,407.88 C790.896,408.024 791.208,408.072 791.4,407.736 L791.64,407.28 C791.808,406.968 791.76,406.68 791.544,406.488 C791.088,406.128 790.176,405.672 788.832,405.672 C786.192,405.672 785.184,407.52 785.184,408.912 C785.184,410.496 786.432,411.24 787.584,411.96 C788.808,412.728 789.456,413.304 789.456,414.072 C789.456,414.984 788.664,415.68 787.632,415.68 C786.624,415.68 785.76,415.128 785.352,414.792 C785.112,414.6 784.824,414.624 784.68,414.864 L784.272,415.488 C784.128,415.704 784.2,415.968 784.32,416.088 C784.896,416.568 786,417.264 787.416,417.264 Z" fill="#FFFFFF"></path>
        <path d="M793.92,412.368 C793.92,415.032 795.528,417.264 798.096,417.264 C799.512,417.264 800.832,416.544 801.528,415.992 C801.912,415.704 801.84,415.536 801.696,415.32 L801.384,414.84 C801.168,414.528 800.952,414.504 800.688,414.696 C800.064,415.152 799.344,415.68 798.264,415.68 C796.392,415.68 795.384,413.904 795.528,412.08 C796.08,412.128 796.584,412.152 797.064,412.152 C800.928,412.152 803.064,410.688 803.064,408.552 C803.064,406.872 801.672,405.672 799.704,405.672 C796.248,405.672 793.92,408.768 793.92,412.368 Z M795.744,410.64 C796.08,408.912 797.76,407.232 799.584,407.232 C800.688,407.232 801.312,407.904 801.312,408.648 C801.312,409.944 799.872,410.712 797.256,410.712 C796.8,410.712 796.272,410.688 795.744,410.64 Z" fill="#FFFFFF"></path>
        <rect fill="#FFFFFF" x="315.250733" y="215.250733" width="170.498534" height="170.498534" rx="2"></rect>
        <line x1="475.719941" y1="225.280059" x2="325.280059" y2="375.719941" stroke="#F1F1F1"></line>
        <polyline stroke="#F1F1F1" points="475.719941 375.719941 325.280059 375.719941 325.280059 225.280059"></polyline>
        <line x1="328.288856" y1="276.429619" x2="325.280059" y2="375.719941" stroke="#E99195"></line>
        <path d="M475.719941,225.280059 C475.719941,225.280059 385.456012,231.297654 385.456012,231.297654" stroke="#91ADE9"></path>
        <circle stroke="#E99195" fill="#FFFFFF" cx="328.288856" cy="276.429619" r="3.00879765"></circle>
        <circle stroke="#91ADE9" fill="#FFFFFF" cx="385.456012" cy="231.297654" r="3.00879765"></circle>
        <path d="M325.280059,375.719941 C328.288856,276.429619 385.456012,231.297654 475.719941,225.280059" stroke="#2B3234"></path>
        <circle stroke="#2B3234" fill="#FFFFFF" cx="325.280059" cy="375.719941" r="3.00879765"></circle>
        <circle stroke="#2B3234" fill="#FFFFFF" cx="475.719941" cy="225.280059" r="3.00879765"></circle>
        <path d="M340.02,412.368 C340.02,415.032 341.628,417.264 344.196,417.264 C345.612,417.264 346.932,416.544 347.628,415.992 C348.012,415.704 347.94,415.536 347.796,415.32 L347.484,414.84 C347.268,414.528 347.052,414.504 346.788,414.696 C346.164,415.152 345.444,415.68 344.364,415.68 C342.492,415.68 341.484,413.904 341.628,412.08 C342.18,412.128 342.684,412.152 343.164,412.152 C347.028,412.152 349.164,410.688 349.164,408.552 C349.164,406.872 347.772,405.672 345.804,405.672 C342.348,405.672 340.02,408.768 340.02,412.368 Z M341.844,410.64 C342.18,408.912 343.86,407.232 345.684,407.232 C346.788,407.232 347.412,407.904 347.412,408.648 C347.412,409.944 345.972,410.712 343.356,410.712 C342.9,410.712 342.372,410.688 341.844,410.64 Z" fill="#FFFFFF"></path>
        <path d="M360.924,406.368 C360.948,406.032 360.876,405.912 360.564,405.912 L360.012,405.912 C359.844,405.912 359.724,405.984 359.652,406.176 L359.292,406.872 C359.292,406.872 358.308,405.672 356.532,405.672 C353.532,405.672 351.132,408.312 351.132,412.368 C351.132,415.056 352.716,417.264 354.924,417.264 C356.892,417.264 358.164,415.896 358.236,415.896 L358.332,416.592 C358.356,416.832 358.428,417 358.692,417 L359.244,417 C359.484,417 359.7,416.88 359.724,416.592 L360.924,406.368 Z M358.26,413.88 C358.26,413.88 357.18,415.68 355.404,415.68 C353.772,415.68 352.932,413.952 352.932,412.368 C352.932,408.84 354.78,407.256 356.412,407.256 C358.164,407.256 358.908,408.576 358.908,408.576 L358.26,413.88 Z" fill="#FFFFFF"></path>
        <path d="M366.108,417.264 C368.676,417.264 369.972,415.608 369.972,413.904 C369.972,412.2 368.7,411.384 367.26,410.472 C366.42,409.944 365.676,409.488 365.676,408.696 C365.676,408.024 366.156,407.256 367.356,407.256 C368.148,407.256 368.7,407.472 369.348,407.88 C369.588,408.024 369.9,408.072 370.092,407.736 L370.332,407.28 C370.5,406.968 370.452,406.68 370.236,406.488 C369.78,406.128 368.868,405.672 367.524,405.672 C364.884,405.672 363.876,407.52 363.876,408.912 C363.876,410.496 365.124,411.24 366.276,411.96 C367.5,412.728 368.148,413.304 368.148,414.072 C368.148,414.984 367.356,415.68 366.324,415.68 C365.316,415.68 364.452,415.128 364.044,414.792 C363.804,414.6 363.516,414.624 363.372,414.864 L362.964,415.488 C362.82,415.704 362.892,415.968 363.012,416.088 C363.588,416.568 364.692,417.264 366.108,417.264 Z" fill="#FFFFFF"></path>
        <path d="M372.612,412.368 C372.612,415.032 374.22,417.264 376.788,417.264 C378.204,417.264 379.524,416.544 380.22,415.992 C380.604,415.704 380.532,415.536 380.388,415.32 L380.076,414.84 C379.86,414.528 379.644,414.504 379.38,414.696 C378.756,415.152 378.036,415.68 376.956,415.68 C375.084,415.68 374.076,413.904 374.22,412.08 C374.772,412.128 375.276,412.152 375.756,412.152 C379.62,412.152 381.756,410.688 381.756,408.552 C381.756,406.872 380.364,405.672 378.396,405.672 C374.94,405.672 372.612,408.768 372.612,412.368 Z M374.436,410.64 C374.772,408.912 376.452,407.232 378.276,407.232 C379.38,407.232 380.004,407.904 380.004,408.648 C380.004,409.944 378.564,410.712 375.948,410.712 C375.492,410.712 374.964,410.688 374.436,410.64 Z" fill="#FFFFFF"></path>
        <path d="M390.876,417.24 C395.796,417.24 399.972,412.704 399.972,407.304 C399.972,403.128 397.02,399.96 393.204,399.96 C388.38,399.96 384.108,404.52 384.108,409.896 C384.108,414.072 387.036,417.24 390.876,417.24 Z M391.068,415.56 C387.996,415.56 385.836,413.016 385.836,409.704 C385.836,405.432 389.34,401.64 393.012,401.64 C396.06,401.64 398.244,404.208 398.244,407.52 C398.244,411.816 394.764,415.56 391.068,415.56 Z" fill="#FFFFFF"></path>
        <path d="M405.204,417.264 C407.244,417.264 408.348,415.872 408.42,415.824 L408.516,416.52 C408.564,416.808 408.636,417 408.9,417 L409.38,417 C409.692,417 409.908,416.76 409.932,416.472 L411.348,406.44 C411.372,406.176 411.18,405.912 410.916,405.912 L410.124,405.912 C409.86,405.912 409.596,406.176 409.572,406.44 L408.492,413.88 C408.468,413.88 407.364,415.68 405.636,415.68 C404.124,415.68 403.74,414.816 404.052,412.704 L404.916,406.44 C404.94,406.176 404.748,405.912 404.484,405.912 L403.644,405.912 C403.404,405.912 403.14,406.176 403.092,406.44 L402.252,412.68 C401.82,415.608 402.564,417.264 405.204,417.264 Z" fill="#FFFFFF"></path>
        <path d="M416.844,417.264 C417.996,417.264 419.076,416.76 419.604,416.352 C419.892,416.136 420.036,415.968 419.892,415.632 L419.628,415.032 C419.532,414.816 419.34,414.528 418.98,414.816 C418.62,415.104 417.78,415.584 417.228,415.584 C416.7,415.584 416.22,415.416 416.364,414.312 L417.348,407.472 L420.204,407.472 C420.468,407.472 420.732,407.232 420.756,406.944 L420.828,406.44 C420.852,406.128 420.708,405.912 420.42,405.912 L417.588,405.912 L418.02,402.792 C418.068,402.504 417.876,402.24 417.636,402.264 L416.772,402.312 C416.508,402.336 416.268,402.552 416.22,402.84 L415.812,405.912 L414.492,405.912 C414.228,405.912 414.06,406.128 413.964,406.44 L413.868,406.944 C413.82,407.232 414.012,407.472 414.3,407.472 L415.548,407.472 L414.588,414.24 C414.348,415.944 415.116,417.264 416.844,417.264 Z" fill="#FFFFFF"></path>
        <path d="M422.724,409.776 C422.724,413.904 425.796,417.24 429.396,417.24 C431.316,417.24 433.308,416.52 434.988,414.912 C435.156,414.744 435.276,414.456 435.084,414.264 L434.34,413.544 C434.244,413.448 434.028,413.4 433.812,413.616 C432.564,414.768 431.436,415.488 429.636,415.488 C426.684,415.488 424.692,412.728 424.692,409.56 C424.692,405.36 427.932,401.688 431.58,401.688 C432.996,401.688 434.412,402.264 435.348,403.296 C435.588,403.56 435.732,403.608 435.972,403.416 L436.668,402.864 C436.884,402.696 436.908,402.36 436.74,402.192 C435.444,400.8 434.004,399.96 431.82,399.96 C426.612,399.96 422.724,404.376 422.724,409.776 Z" fill="#FFFFFF"></path>
        <path d="M438.228,417 L439.02,417 C439.284,417 439.572,416.76 439.596,416.472 L440.988,406.44 C441.036,406.176 440.868,405.912 440.628,405.912 L439.764,405.912 C439.452,405.912 439.236,406.176 439.212,406.44 L437.82,416.472 C437.772,416.76 437.964,417 438.228,417 Z M440.58,403.056 C441.396,403.056 442.068,402.336 442.068,401.544 C442.068,400.896 441.588,400.416 440.94,400.416 C440.172,400.416 439.404,401.088 439.404,401.928 C439.404,402.552 439.884,403.056 440.58,403.056 Z" fill="#FFFFFF"></path>
        <path d="M443.772,417 L444.516,417 C444.804,417 445.068,416.76 445.14,416.472 L446.172,408.816 C446.532,408.36 447.66,407.256 448.884,407.256 C449.292,407.256 449.7,407.352 450.012,407.472 C450.276,407.568 450.492,407.616 450.636,407.28 L450.972,406.536 C451.092,406.272 451.02,406.032 450.804,405.936 C450.42,405.744 449.916,405.672 449.364,405.672 C447.804,405.672 446.748,406.536 446.268,407.088 L446.148,406.296 C446.1,406.032 445.98,405.912 445.788,405.912 L445.308,405.912 C444.972,405.912 444.78,406.176 444.756,406.44 L443.364,416.472 C443.316,416.76 443.508,417 443.772,417 Z" fill="#FFFFFF"></path>
        <path d="M451.764,412.296 C451.764,415.128 453.636,417.264 456.132,417.264 C458.076,417.264 459.588,416.184 460.284,414.96 C460.452,414.672 460.5,414.408 460.26,414.24 L459.684,413.832 C459.42,413.64 459.156,413.688 458.964,414 C458.628,414.504 457.716,415.68 456.348,415.68 C454.62,415.68 453.636,413.952 453.636,412.056 C453.636,409.104 455.58,407.256 457.572,407.256 C458.532,407.256 459.252,407.808 459.684,408.504 C459.828,408.744 460.116,408.888 460.38,408.648 L460.884,408.216 C461.124,408.024 461.196,407.76 461.076,407.496 C460.356,406.248 459.108,405.672 457.596,405.672 C454.38,405.672 451.764,408.408 451.764,412.296 Z" fill="#FFFFFF"></path>
        <rect fill="#FFFFFF" x="534.250733" y="215.250733" width="170.498534" height="170.498534" rx="2"></rect>
        <line x1="694.719941" y1="225.280059" x2="544.280059" y2="375.719941" stroke="#F1F1F1"></line>
        <polyline stroke="#F1F1F1" points="694.719941 375.719941 544.280059 375.719941 544.280059 225.280059"></polyline>
        <path d="M566.846041,246.341642 L694.719941,225.280059" stroke="#91ADE9"></path>
        <path d="M544.280059,375.719941 C544.280059,375.719941 663.127566,354.658358 663.127566,354.658358" stroke="#E99195"></path>
        <circle stroke="#91ADE9" fill="#FFFFFF" cx="566.846041" cy="246.341642" r="3.00879765"></circle>
        <circle stroke="#E99195" fill="#FFFFFF" cx="663.127566" cy="354.658358" r="3.00879765"></circle>
        <path d="M694.719941,225.280059 C566.846041,246.341642 663.127566,354.658358 544.280059,375.719941" stroke="#2B3234"></path>
        <circle stroke="#2B3234" fill="#FFFFFF" cx="544.280059" cy="375.719941" r="3.00879765"></circle>
        <circle stroke="#2B3234" fill="#FFFFFF" cx="694.719941" cy="225.280059" r="3.00879765"></circle>
        <path d="M550.544,412.368 C550.544,415.032 552.152,417.264 554.72,417.264 C556.136,417.264 557.456,416.544 558.152,415.992 C558.536,415.704 558.464,415.536 558.32,415.32 L558.008,414.84 C557.792,414.528 557.576,414.504 557.312,414.696 C556.688,415.152 555.968,415.68 554.888,415.68 C553.016,415.68 552.008,413.904 552.152,412.08 C552.704,412.128 553.208,412.152 553.688,412.152 C557.552,412.152 559.688,410.688 559.688,408.552 C559.688,406.872 558.296,405.672 556.328,405.672 C552.872,405.672 550.544,408.768 550.544,412.368 Z M552.368,410.64 C552.704,408.912 554.384,407.232 556.208,407.232 C557.312,407.232 557.936,407.904 557.936,408.648 C557.936,409.944 556.496,410.712 553.88,410.712 C553.424,410.712 552.896,410.688 552.368,410.64 Z" fill="#FFFFFF"></path>
        <path d="M571.448,406.368 C571.472,406.032 571.4,405.912 571.088,405.912 L570.536,405.912 C570.368,405.912 570.248,405.984 570.176,406.176 L569.816,406.872 C569.816,406.872 568.832,405.672 567.056,405.672 C564.056,405.672 561.656,408.312 561.656,412.368 C561.656,415.056 563.24,417.264 565.448,417.264 C567.416,417.264 568.688,415.896 568.76,415.896 L568.856,416.592 C568.88,416.832 568.952,417 569.216,417 L569.768,417 C570.008,417 570.224,416.88 570.248,416.592 L571.448,406.368 Z M568.784,413.88 C568.784,413.88 567.704,415.68 565.928,415.68 C564.296,415.68 563.456,413.952 563.456,412.368 C563.456,408.84 565.304,407.256 566.936,407.256 C568.688,407.256 569.432,408.576 569.432,408.576 L568.784,413.88 Z" fill="#FFFFFF"></path>
        <path d="M576.632,417.264 C579.2,417.264 580.496,415.608 580.496,413.904 C580.496,412.2 579.224,411.384 577.784,410.472 C576.944,409.944 576.2,409.488 576.2,408.696 C576.2,408.024 576.68,407.256 577.88,407.256 C578.672,407.256 579.224,407.472 579.872,407.88 C580.112,408.024 580.424,408.072 580.616,407.736 L580.856,407.28 C581.024,406.968 580.976,406.68 580.76,406.488 C580.304,406.128 579.392,405.672 578.048,405.672 C575.408,405.672 574.4,407.52 574.4,408.912 C574.4,410.496 575.648,411.24 576.8,411.96 C578.024,412.728 578.672,413.304 578.672,414.072 C578.672,414.984 577.88,415.68 576.848,415.68 C575.84,415.68 574.976,415.128 574.568,414.792 C574.328,414.6 574.04,414.624 573.896,414.864 L573.488,415.488 C573.344,415.704 573.416,415.968 573.536,416.088 C574.112,416.568 575.216,417.264 576.632,417.264 Z" fill="#FFFFFF"></path>
        <path d="M583.136,412.368 C583.136,415.032 584.744,417.264 587.312,417.264 C588.728,417.264 590.048,416.544 590.744,415.992 C591.128,415.704 591.056,415.536 590.912,415.32 L590.6,414.84 C590.384,414.528 590.168,414.504 589.904,414.696 C589.28,415.152 588.56,415.68 587.48,415.68 C585.608,415.68 584.6,413.904 584.744,412.08 C585.296,412.128 585.8,412.152 586.28,412.152 C590.144,412.152 592.28,410.688 592.28,408.552 C592.28,406.872 590.888,405.672 588.92,405.672 C585.464,405.672 583.136,408.768 583.136,412.368 Z M584.96,410.64 C585.296,408.912 586.976,407.232 588.8,407.232 C589.904,407.232 590.528,407.904 590.528,408.648 C590.528,409.944 589.088,410.712 586.472,410.712 C586.016,410.712 585.488,410.688 584.96,410.64 Z" fill="#FFFFFF"></path>
        <path d="M594.344,416.544 C594.296,416.784 594.464,417 594.68,417 L595.736,417 C595.952,417 596.168,416.784 596.192,416.544 L598.424,400.656 C598.472,400.416 598.304,400.2 598.088,400.2 L597.032,400.2 C596.816,400.2 596.6,400.416 596.576,400.656 L594.344,416.544 Z" fill="#FFFFFF"></path>
        <path d="M600.632,417 L601.4,417 C601.712,417 601.976,416.76 602,416.472 L603.08,408.84 C603.128,408.84 604.424,407.256 606.2,407.256 C607.592,407.256 608.12,408.264 607.808,410.376 L606.92,416.472 C606.872,416.76 607.064,417 607.328,417 L608.168,417 C608.408,417 608.696,416.76 608.72,416.472 L609.608,410.376 C609.992,407.52 609.272,405.672 606.584,405.672 C604.544,405.672 603.176,407.088 603.128,407.088 L603.008,406.248 C602.96,406.008 602.864,405.912 602.648,405.912 L602.168,405.912 C601.832,405.912 601.64,406.176 601.616,406.44 L600.224,416.472 C600.176,416.76 600.368,417 600.632,417 Z" fill="#FFFFFF"></path>
        <path d="M619.352,417.24 C624.272,417.24 628.448,412.704 628.448,407.304 C628.448,403.128 625.496,399.96 621.68,399.96 C616.856,399.96 612.584,404.52 612.584,409.896 C612.584,414.072 615.512,417.24 619.352,417.24 Z M619.544,415.56 C616.472,415.56 614.312,413.016 614.312,409.704 C614.312,405.432 617.816,401.64 621.488,401.64 C624.536,401.64 626.72,404.208 626.72,407.52 C626.72,411.816 623.24,415.56 619.544,415.56 Z" fill="#FFFFFF"></path>
        <path d="M633.68,417.264 C635.72,417.264 636.824,415.872 636.896,415.824 L636.992,416.52 C637.04,416.808 637.112,417 637.376,417 L637.856,417 C638.168,417 638.384,416.76 638.408,416.472 L639.824,406.44 C639.848,406.176 639.656,405.912 639.392,405.912 L638.6,405.912 C638.336,405.912 638.072,406.176 638.048,406.44 L636.968,413.88 C636.944,413.88 635.84,415.68 634.112,415.68 C632.6,415.68 632.216,414.816 632.528,412.704 L633.392,406.44 C633.416,406.176 633.224,405.912 632.96,405.912 L632.12,405.912 C631.88,405.912 631.616,406.176 631.568,406.44 L630.728,412.68 C630.296,415.608 631.04,417.264 633.68,417.264 Z" fill="#FFFFFF"></path>
        <path d="M645.32,417.264 C646.472,417.264 647.552,416.76 648.08,416.352 C648.368,416.136 648.512,415.968 648.368,415.632 L648.104,415.032 C648.008,414.816 647.816,414.528 647.456,414.816 C647.096,415.104 646.256,415.584 645.704,415.584 C645.176,415.584 644.696,415.416 644.84,414.312 L645.824,407.472 L648.68,407.472 C648.944,407.472 649.208,407.232 649.232,406.944 L649.304,406.44 C649.328,406.128 649.184,405.912 648.896,405.912 L646.064,405.912 L646.496,402.792 C646.544,402.504 646.352,402.24 646.112,402.264 L645.248,402.312 C644.984,402.336 644.744,402.552 644.696,402.84 L644.288,405.912 L642.968,405.912 C642.704,405.912 642.536,406.128 642.44,406.44 L642.344,406.944 C642.296,407.232 642.488,407.472 642.776,407.472 L644.024,407.472 L643.064,414.24 C642.824,415.944 643.592,417.264 645.32,417.264 Z" fill="#FFFFFF"></path>
        <path d="M651.2,409.776 C651.2,413.904 654.272,417.24 657.872,417.24 C659.792,417.24 661.784,416.52 663.464,414.912 C663.632,414.744 663.752,414.456 663.56,414.264 L662.816,413.544 C662.72,413.448 662.504,413.4 662.288,413.616 C661.04,414.768 659.912,415.488 658.112,415.488 C655.16,415.488 653.168,412.728 653.168,409.56 C653.168,405.36 656.408,401.688 660.056,401.688 C661.472,401.688 662.888,402.264 663.824,403.296 C664.064,403.56 664.208,403.608 664.448,403.416 L665.144,402.864 C665.36,402.696 665.384,402.36 665.216,402.192 C663.92,400.8 662.48,399.96 660.296,399.96 C655.088,399.96 651.2,404.376 651.2,409.776 Z" fill="#FFFFFF"></path>
        <path d="M666.704,417 L667.496,417 C667.76,417 668.048,416.76 668.072,416.472 L669.464,406.44 C669.512,406.176 669.344,405.912 669.104,405.912 L668.24,405.912 C667.928,405.912 667.712,406.176 667.688,406.44 L666.296,416.472 C666.248,416.76 666.44,417 666.704,417 Z M669.056,403.056 C669.872,403.056 670.544,402.336 670.544,401.544 C670.544,400.896 670.064,400.416 669.416,400.416 C668.648,400.416 667.88,401.088 667.88,401.928 C667.88,402.552 668.36,403.056 669.056,403.056 Z" fill="#FFFFFF"></path>
        <path d="M672.248,417 L672.992,417 C673.28,417 673.544,416.76 673.616,416.472 L674.648,408.816 C675.008,408.36 676.136,407.256 677.36,407.256 C677.768,407.256 678.176,407.352 678.488,407.472 C678.752,407.568 678.968,407.616 679.112,407.28 L679.448,406.536 C679.568,406.272 679.496,406.032 679.28,405.936 C678.896,405.744 678.392,405.672 677.84,405.672 C676.28,405.672 675.224,406.536 674.744,407.088 L674.624,406.296 C674.576,406.032 674.456,405.912 674.264,405.912 L673.784,405.912 C673.448,405.912 673.256,406.176 673.232,406.44 L671.84,416.472 C671.792,416.76 671.984,417 672.248,417 Z" fill="#FFFFFF"></path>
        <path d="M680.24,412.296 C680.24,415.128 682.112,417.264 684.608,417.264 C686.552,417.264 688.064,416.184 688.76,414.96 C688.928,414.672 688.976,414.408 688.736,414.24 L688.16,413.832 C687.896,413.64 687.632,413.688 687.44,414 C687.104,414.504 686.192,415.68 684.824,415.68 C683.096,415.68 682.112,413.952 682.112,412.056 C682.112,409.104 684.056,407.256 686.048,407.256 C687.008,407.256 687.728,407.808 688.16,408.504 C688.304,408.744 688.592,408.888 688.856,408.648 L689.36,408.216 C689.6,408.024 689.672,407.76 689.552,407.496 C688.832,406.248 687.584,405.672 686.072,405.672 C682.856,405.672 680.24,408.408 680.24,412.296 Z" fill="#FFFFFF"></path>
    </g>
</svg>