<svg height="2524" viewBox="0 0 2524 2524" width="2524" xmlns="http://www.w3.org/2000/svg"><g fill="none" fill-rule="evenodd"><path d="m0 0h2524v2524h-2524z" fill="#f2d6d9"/><g opacity=".8" stroke-width="6" transform="translate(118 249)"><g stroke-linecap="round" stroke-linejoin="round"><path d="m271.949899 980.975397c.753291-.33195 1.965735-.335864 2.727907 0l13.919374 6.133795c2.271871 1.001136 3.910783-.190288 3.660757-2.659696l-1.532263-15.133558c-.082923-.819.28802-1.973312.84297-2.594393l10.134909-11.342664c1.654184-1.85131 1.027524-3.778178-1.398285-4.303479l-14.866364-3.219258c-.80454-.17422-1.787728-.88371-2.206923-1.603423l-7.655656-13.143947c-1.249529-2.145309-3.275738-2.144755-4.524945 0l-7.655655 13.143947c-.41431.711326-1.392897 1.427149-2.206923 1.603423l-14.866364 3.219258c-2.426436.525436-3.052042 2.452647-1.398285 4.303479l10.134909 11.342664c.548482.613844.92687 1.765737.842969 2.594393l-1.532263 15.133558c-.25009 2.470046 1.389473 3.660574 3.660758 2.659696z" fill="#fff" fill-opacity=".8" stroke="#fff"/><path d="m73.7320672 1604.21869c.5543965-.2443 1.4467142-.24718 2.0076473 0l10.2441902 4.51427c1.6720205.7368 2.8782049-.14005 2.6941942-1.95745l-1.1276939-11.13779c-.0610287-.60276.2119732-1.45229.6203972-1.90938l7.4589515-8.34782c1.2174238-1.3625.7562234-2.78062-1.0290906-3.16722l-10.9411433-2.36926c-.5921143-.12822-1.3157076-.65039-1.6242208-1.18007l-5.6343046-9.6735c-.9196113-1.57888-2.4108332-1.57847-3.3302072 0l-5.6343045 9.6735c-.3049181.52351-1.0251252 1.05033-1.6242209 1.18007l-10.9411433 2.36926c-1.7857748.3867-2.2462001 1.80507-1.0290906 3.16722l7.4589516 8.34782c.4036646.45176.6821454 1.29952.6203971 1.90938l-1.1276938 11.13779c-.1840582 1.81787 1.0226051 2.69406 2.6941942 1.95745z" fill="#fff" fill-opacity=".8" stroke="#fff" transform="matrix(.95105652 -.30901699 .30901699 .95105652 -487.18482 100.836502)"/><path d="m565.17695 1726.10023c1.604605-.70709 4.187266-.71543 5.810791 0l29.650054 13.06577c4.839378 2.13255 8.330472-.40533 7.797884-5.66549l-3.263917-32.23642c-.176637-1.74458.61352-4.20341 1.795634-5.5264l21.588658-24.16133c3.523624-3.94353 2.188759-8.048-2.978527-9.16696l-31.667266-6.85743c-1.713773-.37111-3.80809-1.88242-4.701029-3.4155l-16.30753-27.9983c-2.661657-4.56978-6.977743-4.5686-9.638714 0l-16.30753 27.9983c-.882533 1.51521-2.967049 3.04001-4.701029 3.4155l-31.667266 6.85743c-5.168619 1.11925-6.501242 5.22445-2.978526 9.16696l21.588658 24.16133c1.168338 1.30757 1.974353 3.76125 1.795633 5.5264l-3.263917 32.23642c-.532725 5.26151 2.959756 7.79749 7.797884 5.66549z" fill="#fff" fill-opacity=".8" stroke="#fff" transform="matrix(.96592583 .25881905 -.25881905 .96592583 454.254799 -89.775155)"/><path d="m1055.17593 1871.0273c.58852-.25934 1.53575-.26239 2.1312 0l10.87466 4.79209c1.77492.78215 3.05533-.14866 2.86-2.07791l-1.1971-11.82325c-.06478-.63985.22502-1.54167.65858-2.02689l7.918-8.86157c1.29235-1.44636.80276-2.95174-1.09242-3.36214l-11.6145-2.51508c-.62855-.13611-1.39668-.6904-1.72418-1.25269l-5.98106-10.26884c-.97621-1.67604-2.5592-1.67561-3.53516 0l-5.98106 10.26884c-.32368.55573-1.08821 1.11498-1.72418 1.25269l-11.61449 2.51508c-1.89568.4105-2.38444 1.91616-1.09243 3.36214l7.918 8.86157c.42851.47957.72413 1.3795.65858 2.02689l-1.1971 11.82325c-.19538 1.92975 1.08554 2.85986 2.86001 2.07791z" fill="#fff" fill-opacity=".8" stroke="#fff" transform="matrix(.93969262 -.34202014 .34202014 .93969262 -570.486666 473.079941)"/><path d="m1979.9505 326.598521c1.56285-.688694 4.0783-.696814 5.65957 0l28.87844 12.725747c4.71344 2.077051 8.11368-.394789 7.59495-5.518055l-3.17897-31.3975c-.17204-1.699174.59755-4.094018 1.7489-5.382572l21.02683-23.532555c3.43193-3.840901 2.1318-7.838563-2.90101-8.9284l-30.84315-6.678975c-1.66918-.361454-3.70899-1.833429-4.57869-3.326613l-15.88314-27.269666c-2.59239-4.450859-6.79616-4.44971-9.38788 0l-15.88314 27.269666c-.85957 1.475784-2.88984 2.960897-4.57869 3.326613l-30.84315 6.678975c-5.03412 1.090118-6.33206 5.08849-2.90102 8.9284l21.02684 23.532555c1.13793 1.273538 1.92297 3.663364 1.7489 5.382572l-3.17898 31.3975c-.51886 5.124589 2.88273 7.59457 7.59495 5.518055z" fill="#fff" fill-opacity=".8" stroke="#fff" transform="matrix(.95105652 -.30901699 .30901699 .95105652 9.899498 626.51517)"/><path d="m1754.9231 1399.44426c1.08577-.47846 2.83334-.4841 3.9319 0l20.06286 8.84102c3.27459 1.443 5.63686-.27427 5.27648-3.83359l-2.20855-21.81293c-.11952-1.18048.41514-2.84426 1.21503-3.73946l14.60807-16.34889c2.38428-2.6684 1.48103-5.44572-2.01544-6.20287l-21.42781-4.64011c-1.15963-.25112-2.57676-1.27375-3.18097-2.31112l-11.03457-18.94518c-1.80103-3.09217-4.72153-3.09137-6.52209 0l-11.03457 18.94518c-.59717 1.02528-2.00767 2.05704-3.18097 2.31112l-21.42782 4.64011c-3.49737.75735-4.39909 3.53516-2.01543 6.20287l14.60807 16.34889c.79056.88477 1.33596 2.54507 1.21503 3.73946l-2.20855 21.81293c-.36047 3.56023 2.00273 5.27622 5.27648 3.83359z" fill="#fff" fill-opacity=".8" stroke="#fff" transform="matrix(.80901699 .58778525 -.58778525 .80901699 1139.899095 -771.320078)"/><path d="m1345.41251 686.382486c.48692-.214571 1.27064-.217101 1.76331 0l8.99743 3.964863c1.46853.647131 2.52792-.123001 2.3663-1.719218l-.99045-9.782277c-.0536-.529399.18618-1.275542.54489-1.677007l6.55117-7.331857c1.06926-1.19668.66419-2.442201-.90384-2.781753l-9.60957-2.080917c-.52005-.112615-1.15558-.571227-1.42655-1.036447l-4.94858-8.4962c-.80769-1.38672-2.11743-1.386362-2.92491 0l-4.94859 8.4962c-.26781.459799-.90036.922504-1.42655 1.036447l-9.60956 2.080917c-1.56844.33964-1.97283 1.585382-.90385 2.781753l6.55117 7.331857c.35454.396787.59913 1.141366.54489 1.677007l-.99045 9.782277c-.16165 1.596629.89815 2.366182 2.3663 1.719218z" fill="#fff" fill-opacity=".8" stroke="#fff" transform="matrix(.95630476 .2923717 -.2923717 .95630476 255.443467 -364.233751)"/><path d="m431.450269 351.41331c1.171048-.516041 3.055885-.522126 4.24074 0l21.638737 9.535456c3.531798 1.556344 6.079614-.295816 5.690929-4.134702l-2.38202-23.52628c-.128911-1.273198.447749-3.067665 1.310461-4.033183l15.755495-17.633044c2.571556-2.878003 1.597366-5.873469-2.173741-6.690089l-23.110907-5.004584c-1.250719-.270839-2.779161-1.373796-3.430831-2.492645l-11.901305-20.433276c-1.94249-3.335048-5.092388-3.334187-7.034376 0l-11.901305 20.433276c-.644076 1.105811-2.165365 2.218613-3.430831 2.492645l-23.110907 5.004584c-3.77208.816831-4.744634 3.812828-2.173741 6.690089l15.755495 17.633044c.852658.954267 1.440892 2.744973 1.310461 4.033183l-2.38202 23.52628c-.388785 3.839877 2.160042 5.690644 5.690929 4.134702z" fill="#fff" fill-opacity=".8" stroke="#fff" transform="matrix(.92718385 .37460659 -.37460659 .92718385 150.695844 -139.262909)"/><path d="m835.772103 108.536011c1.644635-.724735 4.291723-.73328 5.955749 0l30.389714 13.391715c4.960102 2.185748 8.538286-.415449 7.992412-5.806828l-3.345339-33.0406026c-.181044-1.7880959.628825-4.3082674 1.840428-5.6642542l22.127215-24.764068c3.611526-4.0419039 2.243361-8.248773-3.05283-9.3956441l-32.457247-7.028501c-1.756526-.3803693-3.903088-1.929376-4.818302-3.5007016l-16.714343-28.69675035c-2.728056-4.68378234-7.151813-4.68257356-9.879165 0l-16.714342 28.69675035c-.90455 1.5530148-3.041067 3.1158475-4.818303 3.5007016l-32.457247 7.028501c-5.297558 1.1471671-6.663424 5.3547834-3.05283 9.3956441l22.127215 24.764068c1.197484 1.3401853 2.023606 3.8550757 1.840428 5.6642542l-3.345339 33.0406026c-.546015 5.392771 3.03359 7.992012 7.992412 5.806828z" fill="#fff" fill-opacity=".8" stroke="#fff"/><path d="m2107.7437 1032.5701c.69383-.30575 1.81057-.30935 2.51258 0l12.82066 5.64963c2.09254.92211 3.60209-.17527 3.3718-2.44975l-1.41131-13.93901c-.07638-.75435.26528-1.81755.77643-2.38961l9.33492-10.44734c1.52361-1.70518.94641-3.47995-1.28792-3.96378l-13.6929-2.96515c-.74103-.16047-1.64661-.81396-2.03272-1.47686l-7.05136-12.106443c-1.1509-1.975971-3.01717-1.975461-4.16778 0l-7.05136 12.106443c-.38161.65518-1.28295 1.3145-2.03272 1.47686l-13.6929 2.96515c-2.23491.48396-2.81113 2.25904-1.28791 3.96378l9.33491 10.44734c.50519.56539.85371 1.62636.77644 2.38961l-1.41132 13.93901c-.23035 2.27507 1.2798 3.37163 3.3718 2.44975z" fill="#fff" fill-opacity=".8" stroke="#fff"/><path d="m1858.69113 672 9.55743 34.133692 34.13369 9.557433-34.13369 9.557434-9.55743 34.133692-9.55744-34.133692-34.13369-9.557434 34.13369-9.557433z" fill="#dd5064" fill-opacity=".12" stroke="#edb9c0"/><path d="m546.25 1158 11.976563 42.77344 42.773437 11.97656-42.773437 11.97656-11.976563 42.77344-11.976563-42.77344-42.773437-11.97656 42.773437-11.97656z" fill="#dd5064" fill-opacity=".12" stroke="#edb9c0"/><path d="m2032.75 1628.5 17.00781 60.74219 60.74219 17.00781-60.74219 17.00781-17.00781 60.74219-17.00781-60.74219-60.74219-17.00781 60.74219-17.00781z" fill="#dd5064" fill-opacity=".12" stroke="#edb9c0"/><path d="m24 510 5.25 18.75 18.75 5.25-18.75 5.25-5.25 18.75-5.25-18.75-18.75-5.25 18.75-5.25z" fill="#dd5064" fill-opacity=".12" stroke="#edb9c0"/><path d="m219.441125 1883 14.971497 53.46963 53.469629 14.9715-53.469629 14.97149-14.971497 53.46963-14.971496-53.46963-53.469629-14.97149 53.469629-14.9715z" fill="#dd5064" fill-opacity=".12" stroke="#edb9c0"/><path d="m1637.69113 81 9.55743 34.133692 34.13369 9.557433-34.13369 9.557434-9.55743 34.133692-9.55744-34.133692-34.13369-9.557434 34.13369-9.557433z" fill="#dd5064" fill-opacity=".12" stroke="#edb9c0"/></g><circle cx="415" cy="607.5" fill="#f5e698" opacity=".5" r="22.5" stroke="#dec54b"/><circle cx="1616.5" cy="1890" fill="#f5e698" opacity=".5" r="22.5" stroke="#dec54b"/><circle cx="1258" cy="259.5" fill="#f5e698" opacity=".5" r="22.5" stroke="#dec54b"/><circle cx="134.5" cy="1311" fill="#f5e698" opacity=".5" r="22.5" stroke="#dec54b"/><circle cx="134.5" cy="147" fill="#f5e698" opacity=".5" r="22.5" stroke="#dec54b"/><circle cx="2167" cy="1449" fill="#f5e698" opacity=".5" r="22.5" stroke="#dec54b"/><circle cx="816.5" cy="1448.5" fill="#f5e698" opacity=".5" r="22.5" stroke="#dec54b"/><circle cx="2284.5" cy="487.5" fill="#f5e698" opacity=".5" r="22.5" stroke="#dec54b"/><circle cx="958" cy="826.5" fill="#f5e698" opacity=".5" r="22.5" stroke="#dec54b"/></g><g transform="translate(769 598)"><path d="m676.739053-6.97451765c49.169697-3.03746865 104.68269 6.51503779 162.495787 40.52388095 51.588135 30.3469778 94.159749 80.1204597 121.415426 141.4590637 25.987342 58.484232 38.053737 127.475359 30.749796 199.967304-11.992145 119.022581-76.172329 247.66077-217.172055 354.310608.848846 12.571486-1.573375 29.676402-10.5109 47.529017-5.46109 10.908469-13.357165 22.120546-24.446693 32.705407l-.574414.544237.072494.249377c.407075 1.44333.641833 2.898059.681143 4.146528l.005742.307694c-.003902.885503-.02987 1.351917-.041419 1.522036-.13695 2.481479-1.877901 27.202101-26.00972 47.586859-10.570041 8.928781-25.559787 17.094-46.95334 21.833374l-.0249.004132-.065638.188404c-.091287.24727-.187614.478473-.28621.690654l-.099248.205731c-.328766.656128-8.850649 15.141323-30.757021 23.790372 7.848649 9.307749 15.387514 20.048615 22.490594 32.44556 23.001998 40.145192 26.980846 121.345119 30.130985 194.104079 1.580775 36.51127 3.039943 70.78811 6.983087 96.15881 4.613173 3.70201 11.314253 7.93943 14.936509 9.56529.245157.11004.496854.22162.751655.3346.170817.07574.342947.15207.515486.22893l.566397.25375c7.100493 3.34881 8.168734 6.38997 8.567858 8.16004.393114 1.74341.254815 3.48251-.512611 5.21176-.462846 1.04293-1.192423 2.15715-2.439186 3.20004-.857494.71727-2.179404 1.55878-4.255107 2.25603-3.02027 1.01455-6.012577 1.90606-8.97352 2.68383.7776 1.24731 1.614391 2.32272 2.530478 3.20374.013526.01301.02939.02851.047367.04628l.131414.13205c.153161.1557.36616.37702.590314.61576.540093.5779.817815.87839.826092.8873 1.383631 1.49072 2.21667 2.9983 2.68949 4.36656.842923 2.43926.696714 4.68991-.034069 6.64517-.730464 1.9544-2.09586 3.74879-4.329964 5.03753-1.250345.72126-2.861258 1.31204-4.87189 1.53294-2.060964.24707-57.670084 6.81279-160.559269 8.45893-1.825143 10.04929-6.77714 19.00932-13.813308 25.83433-8.646372 8.38689-20.438208 13.55034-33.436304 13.55034s-24.789933-5.16345-33.436305-13.55034c-7.036698-6.82552-11.98891-15.78639-13.830542-25.83585-103.155029-1.65029-158.775324-8.24516-160.557636-8.45922-2.003558-.22222-3.609254-.81178-4.856289-1.53113-2.234104-1.28874-3.5995-3.08313-4.329964-5.03753-.730783-1.95526-.876992-4.20591-.034069-6.64517.475374-1.37565 1.314867-2.89213 2.711875-4.39072.072197-.07805.309731-.33463.566511-.60971.474617-.50633.749939-.79144.901391-.94382l.076611-.07621.028289-.02749c.916275-.8812 1.753222-1.95687 2.529959-3.20474-2.961076-.77702-5.953086-1.6684-8.973001-2.68283-2.251225-.75621-3.628554-1.68854-4.496826-2.4651-1.347264-1.20494-2.06195-2.4889-2.470901-3.68967-.611251-1.79476-.610462-3.60596.022054-5.42811.678213-1.95379 3.314897-4.95319 7.845072-7.0343l1.01676-.45945c.176287-.07855.352168-.15654.526678-.23392.254801-.11298.506498-.22456.751655-.3346 3.587604-1.61031 10.249507-5.80721 14.615491-9.48288 4.09774-25.60491 5.617015-60.31979 7.261456-97.257 3.227503-72.49574 7.277952-153.12866 30.173634-193.088299 7.103659-12.397955 14.643173-23.13956 22.488681-32.449672-21.905667-8.64699-30.426365-23.130179-30.755108-23.78626-.133065-.265562-.263742-.566692-.385458-.896385l-.071399-.201404-.528293-.1172c-20.95551-4.734615-35.619127-12.675695-46.045265-21.372448l-.398921-.334858c-24.485815-20.683787-25.918883-45.8308-26.010544-47.590579-.006271-.133882.141642-3.030424.86053-6.012786l.014493-.062129-.469675-.442797c-10.734978-10.19099-18.498475-20.971177-23.969733-31.506766l-.346122-.672144c-8.999576-17.625302-11.620311-34.578648-10.979511-47.235494-141.6924495-106.630534-206.28850366-235.410138-218.51848566-354.616485-7.45160584-72.631236 4.54767911-141.77527 30.52254396-200.392487 27.2493863-61.493416 69.8824961-111.3938888 121.5651427-141.7964637 57.76925-33.98305001 113.241964-43.54660225 162.339595-40.53083487 72.95556 4.48121411 131.843766 36.87908957 163.217492 58.48893727 6.368312-1.6432454 13.045654-2.5183078 19.927372-2.5183078 7.098286 0 13.979129.9309791 20.532692 2.6755984 31.694267-21.5945951 90.809861-54.12060964 163.956742-58.63927395zm-136.46508 616.20291565c4.972972 0 9.475109 2.015507 12.734033 5.274004 3.259278 3.258853 5.275099 7.760938 5.275099 12.733756s-2.015821 9.474904-5.275099 12.733756c-1.629462 1.629249-3.569727 2.94775-5.724248 3.858939l-.078758.031147.043607.189238c1.77702 7.628061 4.545418 12.372829 8.388734 14.57073l.241608.134056c5.132944 2.761666 11.098899 1.076821 16.1856-1.358827-.180448-1.022436-.274595-2.074644-.274595-3.148869 0-4.972818 2.015822-9.474904 5.2751-12.733756 3.258923-3.258498 7.76106-5.274004 12.734033-5.274004 4.972972 0 9.47511 2.015506 12.734033 5.274004 3.259278 3.258852 5.275099 7.760938 5.275099 12.733756 0 4.972817-2.015821 9.474903-5.275099 12.733755-2.492118 2.491793-5.711236 4.256715-9.311962 4.949313l-.092158.016604-19.066181 67.764816-12.828404 6.068652c-13.296993 6.166887-27.054473 12.1822-41.283464 18.032504l-14.315492 5.766788c-.347543.136159-.709498.302777-1.097365.477463-2.783813 1.253764-6.299831 2.735718-11.538094 2.735718s-8.754281-1.481954-11.538094-2.735718c-.380029-.171156-.735183-.334567-1.076279-.469171-19.374553-7.645661-37.905753-15.59205-55.619661-23.807408l-10.378738-4.908383-19.360228-68.815261-.330254-.051468c-3.62957-.6096-6.890816-2.304811-9.438346-4.740179l-.290759-.28427c-3.259278-3.258852-5.275099-7.760938-5.275099-12.733755 0-4.972818 2.015821-9.474904 5.275099-12.733756 3.258923-3.258498 7.761061-5.274004 12.734033-5.274004 4.972973 0 9.47511 2.015506 12.734033 5.274004 3.259278 3.258852 5.2751 7.760938 5.2751 12.733756 0 1.121468-.102608 2.218941-.298731 3.283721 5.249486 2.640525 11.540024 4.602825 16.93201 1.734223 3.99431-2.125021 6.85861-6.913468 8.675299-14.726058l.082615-.364214-.115838-.040621c-2.333222-.861897-4.438973-2.193172-6.202648-3.879196l-.290759-.284269c-3.259278-3.258852-5.275099-7.760938-5.275099-12.733756s2.015821-9.474903 5.275099-12.733756c3.258924-3.258497 7.761061-5.274004 12.734033-5.274004 4.972973 0 9.47511 2.015507 12.734033 5.274004 3.259279 3.258853 5.2751 7.760938 5.2751 12.733756 0 3.690823-1.110092 7.122881-3.014856 9.9795 4.071084 7.948851 8.770558 14.158973 13.900265 18.558496 5.570333 4.777429 11.603257 7.336289 17.715151 7.357153 6.128369.02092 12.192245-2.508573 17.802807-7.247399 5.126664-4.330114 9.837968-10.437915 13.93474-18.241456-2.084457-2.938574-3.309188-6.529704-3.309188-10.406294 0-4.972818 2.015821-9.474903 5.2751-12.733756 3.258923-3.258497 7.76106-5.274004 12.734033-5.274004z" stroke="#fff" stroke-linecap="round" stroke-linejoin="round" stroke-width="15.00761"/><g><g stroke-width="6.003044"><path d="m150.569835 40.017094c-216.9450288 127.618997-269.024574 608.445166 324.496286 817.654267 4.926884 1.736668 9.910616 5.153498 17.917721 5.153498s13.023153-3.41683 17.950037-5.153498c593.520861-209.209101 541.441311-690.03527 324.496286-817.654267-183.516618-107.9545677-343.181154 36.706359-343.181154 36.706359 1.501978 0-158.162558-144.6609267-341.679176-36.706359zm626.385362 79.032191c164.447481 77.965971 206.528892 453.892048-274.095288 643.557794-2.275273.897877-5.073494 2.681057-9.859909 2.681057s-7.584636-1.78318-9.859909-2.681057c-480.62418044-189.665746-438.5427693-565.591823-274.095288-643.557794 108.492669-51.4373112 201.949487-25.5446673 280.370452 77.677932l-.000174.000132c1.504295 1.979896 4.32879 2.365447 6.308686.861152.324728-.246723.614429-.536424.861152-.861152 78.420791-103.2227313 171.877609-129.1153752 280.370278-77.678064z" fill="#dd5064" stroke="#bf293e" stroke-linecap="round" stroke-linejoin="round"/><g fill="#f3ebc6" stroke="#e0d18a" stroke-linecap="round" stroke-linejoin="round" transform="translate(18.0091 268.6011)"><ellipse cx="33.016743" cy="94.535593" rx="9.004566" ry="9.00339"/><ellipse cx="64.532725" cy="216.081356" rx="9.004566" ry="9.00339"/><path d="m28.6505754 51.7705398c.7536728-.3320746 1.9667316-.3359899 2.7292906 0l13.9264357 6.1361054c2.2730237 1.0015135 3.9127676-.1903592 3.6626148-2.6606977l-1.5330403-15.139258c-.0829653-.8193084.2881664-1.9740551.8433972-2.5953705l10.1400508-11.3469362c1.6550234-1.8520069 1.0280457-3.7796012-1.3989943-4.3050994l-14.8739067-3.2204705c-.8049481-.1742859-1.788635-.8840433-2.2080424-1.6040272l-7.6595397-13.1488977c-1.250163-2.14611668-3.2774004-2.14556282-4.5272408 0l-7.6595397 13.1488977c-.41452.7115939-1.3936035 1.4276864-2.2080424 1.6040272l-14.8739067 3.2204705c-2.42766656.5256339-3.05359054 2.4535705-1.39899435 4.3050994l10.14005085 11.3469362c.5487607.6140751.9273407 1.766402.8433972 2.5953705l-1.5330403 15.139258c-.2502174 2.4709762 1.3901777 3.6619527 3.6626148 2.6606977z"/><path d="m40.6566637 177.817997c.7536728-.332074 1.9667316-.33599 2.7292906 0l13.9264357 6.136106c2.2730237 1.001513 3.9127676-.190359 3.6626147-2.660698l-1.5330402-15.139258c-.0829653-.819308.2881663-1.974055.8433972-2.59537l10.1400508-11.346937c1.6550233-1.852006 1.0280457-3.779601-1.3989943-4.305099l-14.8739067-3.220471c-.8049482-.174285-1.788635-.884043-2.2080425-1.604027l-7.6595396-13.148897c-1.250163-2.146117-3.2774004-2.145563-4.5272408 0l-7.6595397 13.148897c-.41452.711594-1.3936035 1.427687-2.2080424 1.604027l-14.8739067 3.220471c-2.4276666.525634-3.0535906 2.45357-1.3989944 4.305099l10.1400509 11.346937c.5487607.614075.9273406 1.766402.8433971 2.59537l-1.5330402 15.139258c-.2502174 2.470976 1.3901777 3.661953 3.6626148 2.660698z"/><path d="m93.1832999 293.3615c.7536728-.332074 1.9667316-.33599 2.7292906 0l13.9264355 6.136106c2.273024 1.001513 3.912768-.19036 3.662615-2.660698l-1.53304-15.139258c-.082966-.819308.288166-1.974055.843397-2.595371l10.140051-11.346936c1.655023-1.852007 1.028045-3.779601-1.398995-4.305099l-14.873906-3.220471c-.804948-.174286-1.788635-.884043-2.208043-1.604027l-7.6595394-13.148898c-1.250163-2.146116-3.2774004-2.145562-4.5272408 0l-7.6595396 13.148898c-.4145201.711594-1.3936036 1.427687-2.2080425 1.604027l-14.8739067 3.220471c-2.4276666.525634-3.0535905 2.45357-1.3989943 4.305099l10.1400508 11.346936c.5487607.614076.9273407 1.766402.8433972 2.595371l-1.5330403 15.139258c-.2502174 2.470976 1.3901777 3.661953 3.6626148 2.660698z"/><ellipse cx="916.964992" cy="94.535593" rx="9.004566" ry="9.00339"/><ellipse cx="885.449011" cy="216.081356" rx="9.004566" ry="9.00339"/><path d="m919.3614 51.4358841-11.728181 5.1675359c-2.275459 1.0025864-4.93284-.0292806-5.935426-2.3047394-.313943-.7125209-.437737-1.49428-.359293-2.2689365l1.290946-12.7485047c.042453-.4192385-.093301-.8370109-.374085-1.1512142l-8.538324-9.5545695c-1.656882-1.8540863-1.497016-4.7002881.357071-6.3571697.580719-.5189532 1.286125-.8783924 2.0473-1.0432004l12.52506-2.7119028c.411785-.0891588.767126-.3473065.9792-.7113674l6.450499-11.07337394c1.251597-2.14857984 4.007986-2.87572739 6.156566-1.62412951.672687.39185605 1.232273.9514422 1.624129 1.62412951l6.450499 11.07337394c.212074.3640609.567415.6222086.9792.7113674l12.52506 2.7119028c2.43023.5261888 3.97376 2.9228399 3.447572 5.3530699-.164808.7611742-.524248 1.4665804-1.043201 2.0473002l-8.538324 9.5545695c-.280784.3142033-.416538.7319757-.374085 1.1512142l1.290946 12.7485047c.250513 2.4738909-1.551891 4.6824563-4.025782 4.9329688-.774657.0784437-1.556416-.0453502-2.268937-.3592929l-11.728181-5.1675359c-.385528-.1698668-.824701-.1698668-1.210229 0z"/><path d="m907.355312 177.483342-11.728182 5.167536c-2.275458 1.002586-4.932839-.029281-5.935426-2.30474-.313942-.712521-.437736-1.49428-.359293-2.268936l1.290947-12.748505c.042453-.419239-.093301-.837011-.374085-1.151214l-8.538325-9.55457c-1.656881-1.854086-1.497015-4.700288.357071-6.357169.58072-.518954 1.286126-.878393 2.0473-1.043201l12.525061-2.711903c.411785-.089158.767126-.347306.9792-.711367l6.450498-11.073374c1.251598-2.14858 4.007987-2.875727 6.156567-1.624129.672687.391856 1.232273.951442 1.624129 1.624129l6.450499 11.073374c.212074.364061.567415.622209.979199.711367l12.525061 2.711903c2.43023.526189 3.97376 2.92284 3.447571 5.35307-.164808.761174-.524247 1.46658-1.0432 2.0473l-8.538324 9.55457c-.280784.314203-.416539.731975-.374085 1.151214l1.290946 12.748505c.250512 2.473891-1.551892 4.682456-4.025783 4.932969-.774656.078443-1.556415-.045351-2.268936-.359293l-11.728181-5.167536c-.385528-.169867-.824701-.169867-1.210229 0z"/><path d="m854.828676 293.026845-11.728182 5.167535c-2.275459 1.002587-4.932839-.02928-5.935426-2.304739-.313943-.712521-.437736-1.49428-.359293-2.268936l1.290947-12.748505c.042453-.419239-.093302-.837011-.374086-1.151214l-8.538324-9.55457c-1.656881-1.854086-1.497015-4.700288.357071-6.35717.58072-.518953 1.286126-.878392 2.0473-1.0432l12.525061-2.711903c.411784-.089159.767125-.347306.979199-.711367l6.450499-11.073374c1.251598-2.14858 4.007987-2.875727 6.156566-1.62413.672688.391856 1.232274.951443 1.62413 1.62413l6.450499 11.073374c.212074.364061.567415.622208.979199.711367l12.525061 2.711903c2.43023.526189 3.97376 2.92284 3.447571 5.35307-.164808.761174-.524247 1.46658-1.0432 2.0473l-8.538325 9.55457c-.280783.314203-.416538.731975-.374085 1.151214l1.290947 12.748505c.250512 2.47389-1.551892 4.682456-4.025783 4.932968-.774656.078444-1.556415-.04535-2.268936-.359293l-11.728182-5.167535c-.385527-.169867-.824701-.169867-1.210228 0z"/></g><g fill="#e15984" stroke="#cd1d55" transform="translate(384.1948 613.7311)"><g stroke-linecap="round" stroke-linejoin="round"><path d="m57.9452116 198.074576-44.0573097-156.5955937s49.0599386 41.8601471 52.4480559-25.9843948c20.8413407 55.537659 66.3599602 55.0487212 87.2013012-.4889378 3.388117 67.8445419 52.448055 25.9843947 52.448055 25.9843947l-44.057309 156.5955936"/><path d="m96.6920296 172.272162-14.9005532-111.4992806s10.2643532 9.8960452 28.2139816 9.8960452c17.949628 0 27.812476-9.8960452 27.812476-9.8960452l-14.900553 111.4992806z"/><path d="m68.5117931 56.5041843c-10.2620398 15.0750118-21.5954237 18.0619762-34.0001516 8.9608934 0 0 10.3587685 43.2330743 31.0763056 129.6992233l23.9462252-9.116225z"/><path d="m150.599318 56.5041843s15.39306 22.6125177 34.000152 8.9608934l-31.076306 129.6992233-23.946225-9.116225z"/></g><ellipse cx="13.506849" cy="40.515254" rx="10.505327" ry="10.503563"/><ellipse cx="63.031964" cy="13.505085" rx="10.505327" ry="10.503563"/><ellipse cx="205.604262" cy="40.515254" rx="10.505327" ry="10.503563"/><ellipse cx="156.079148" cy="13.505085" rx="10.505327" ry="10.503563"/></g><g fill="#f5e598" stroke="#dec54b" stroke-linecap="round" stroke-linejoin="round"><ellipse cx="492.24963" cy="128.520078" rx="72.03653" ry="72.027119"/><ellipse cx="492.24963" cy="92.506518" rx="36.018265" ry="36.013559"/></g><g fill="#f5e698" stroke="#dec54b" stroke-linecap="round" stroke-linejoin="round" transform="translate(274.6393 858.3232)"><ellipse cx="219.111111" cy="429.161582" rx="40.520548" ry="40.515254"/><path d="m426.074142 421.880884c3.284786-.348935 4.137013-2.613648 1.88122-5.033319 0 0-1.073345-1.161493-1.285576-1.365599-33.245511-31.972751-7.252311-252.237351-50.111378-327.0389151-45.206059-78.89775043-108.461741-88.4430509-157.447297-88.4430509s-112.241238 9.54530047-157.4472971 88.4430509c-42.8590666 74.8015641-16.8658666 295.0661641-50.1113781 327.0389151-.2122311.204106-1.2855757 1.365599-1.2855757 1.365599-2.25579314 2.419671-1.40356589 4.684384 1.8812202 5.033319 0 0 72.254216 8.781263 206.9630307 8.781263 134.708815 0 206.963031-8.781263 206.963031-8.781263z"/><path d="m123.279066 344.818026c-22.550664 25.648658-55.4135753 37.004336-98.5887324 34.067035-4.6356461 4.473438-13.8618096 10.412835-18.51513566 12.501493-3.87784482 1.740582-9.32443376 3.856551-3.87784482 5.686123 44.90439678 15.08391 85.29194398 8.313445 121.16264188-20.311395l-.001229-.001536c.504862-.404007 1.211734-.439225 1.754254-.0874 27.1398 17.612516 58.439024 26.419746 93.898103 26.421021 35.459107.001275 66.758352-8.803718 93.897734-26.41498l.000432.000667c.542489-.351766 1.249288-.316554 1.754127.087389 35.869483 28.62191 76.257037 35.390151 121.161453 20.306234 5.446589-1.829572 0-3.945541-3.877845-5.686123-4.653326-2.088658-13.879489-8.028055-18.515135-12.501493-43.175157 2.937301-76.038068-8.418377-98.588733-34.067035l.002904-.002548c-.546637-.623038-1.494845-.684974-2.117883-.138337-.013386.011744-.026562.023726-.039521.035939-22.467058 21.285603-53.692703 31.928728-93.677545 31.928728s-71.210487-10.643125-93.676934-31.929375l-.00061.000647c-.60319-.568463-1.553002-.540312-2.121465.062877-.012214.01296-.024195.026135-.03594.039521z"/></g></g><g transform="translate(418.7123 972.3661)"><path d="m119.676368 17.7713465c25.416898 12.0812135 31.920974 81.1612231-42.3639944 110.5508705-.3516648.13913-.784156.415443-1.5239413.415443-.7397854 0-1.1722765-.276313-1.5239413-.415443-74.28496877-29.3896474-67.78089253-98.469657-42.363994-110.5508705 16.1709757-7.6864221 30.1807045-4.2290206 42.0291865 10.3722046l.0003513-.0002863c.8376409 1.028128 2.3501455 1.1825483 3.3782735.3449074.1278622-.1041724.2446517-.2212408.348519-.3493511 11.8436785-14.59769 25.8513597-18.0525683 42.0195407-10.3674746z" fill="#f2d6d9"/><g stroke-linecap="round" stroke-linejoin="round" stroke-width="6.003044"><g stroke="#e2a8ae" transform="translate(14.4359 26.4694)"><path d="m13.506849 30.68047v37.317228"/><path d="m15.037387 30.68047-14.435892 6.015779"/><path d="m15.037387 30.68047 25.479341 4.511834"/><path d="m15.037387 30.68047 24.05982-19.250491"/><path d="m15.037387 30.68047-14.435892-13.234712"/><path d="m14.507357 30.68047v-19.250491"/><path d="m7.819441.601578 7.217946 10.828401"/><path d="m37.894216 9.023668-22.856829 2.406311"/><path d="m40.516728 64.669619-25.479341 3.328079"/><path d="m40.516728 64.669619-8.637467 21.356013"/><path d="m61.35254 79.408276-7.819441 19.852069"/><path d="m106.554033 30.6804703v37.3172273z"/><path d="m107.667693 30.6804703 14.435892 6.0157785z"/><path d="m107.667693 30.6804703-25.4793399 4.5118339z"/><path d="m107.667693 30.6804703-24.0598193-19.2504912z"/><path d="m107.667693 30.6804703 14.435892-13.2347127z"/><path d="m105.553526 30.6804703v-19.2504912z"/><path d="m114.885639.60157785-7.217946 10.82840125z"/><path d="m84.8108647 9.02366774 22.8568283 2.40631136z"/><path d="m82.1883531 64.6696188 25.4793399 3.3280788z"/><path d="m82.1883531 64.6696188 8.6374665 21.3560136z"/><path d="m61.3525404 79.4082761 7.8194414 19.852069z"/><path d="m61.35254 20.453647-4.682149-6.323617"/><path d="m61.3525404 20.4536469 4.682149-6.3236172z"/><path d="m61.3525404 20.4536469 20.8364151 14.7386573v29.4773146l-20.8364151 14.7386573-20.8358127-14.7386573-.0006024-29.4773146z"/></g><path d="m95.8095643 15.6467919c3.884881 2.5874003 6.4446697 7.0076184 6.4446697 12.0257892 0 7.9738145-6.4631689 14.4378683-14.4358918 14.4378683-5.0212141 0-9.4436681-2.5639472-12.0299099-6.4542201-2.5862419 3.8902729-7.0086959 6.4542201-12.0299099 6.4542201-7.9727229 0-14.4358919-6.4640538-14.4358919-14.4378683 0-5.0181708 2.5597887-9.4383889 6.4446697-12.0257892-6.5650762-2.0519549-14.6476274-2.2575235-23.8668032 2.1245546-25.41689853 12.0812135-31.92097477 81.1612231 42.363994 110.5508705.3516648.13913.7841559.415443 1.5239413.415443.7397853 0 1.1722765-.276313 1.5239413-.415443 74.2849684-29.3896474 67.7808924-98.469657 42.3639944-110.5508705-9.219176-4.3820781-17.301727-4.1765095-23.8668037-2.1245546zm-72.6626034-9.4528417c28.2118393-16.7094896 52.7569202 5.681506 52.5260225 5.681506 0 0 24.5450806-22.3909956 52.7569206-5.681506 33.350757 19.7532013 41.356898 94.1767298-49.8845132 126.5586608-.7574053.268806-1.5285177.797671-2.7594425.797671-1.2309247 0-1.9970693-.528865-2.7544745-.797671-91.2414108-32.381931-83.2352707-106.8054595-49.8845129-126.5586608z" fill="#f5e698" stroke="#dec54b"/></g></g><g fill="#e464a6" stroke="#d02f81" stroke-linecap="round" stroke-linejoin="round" stroke-width="6.003044" transform="translate(220.6119 711.2678)"><path d="m111.246548 168.857036c-4.464893-.43562-4.107602 2.347935-3.623831 3.313408.492286.982468 22.943775 36.064626 85.699568 22.987835 63.896754-13.31454 75.04476-60.261795 79.816223-91.158807-.437749-.002936-39.333201-56.9360955-113.552074-66.0120561-74.2188733-9.0759605-118.5904381 6.8040821-146.313205-34.74813096-14.70836429-22.04560214-38.4401934 74.04011286 64.8743926 118.80937206-20.2927106-8.829721-32.1310563-18.110581-38.0118485-22.5850857-5.8807922-4.4745043-5.1720842 5.0774637-5.1720842 5.0774637s2.5929329 74.17954 126.7108071 66.041409c-30.142479 2.068289-45.963054-1.289788-50.427948-1.725408z"/><path d="m435.030468 168.857036c4.464894-.43562 4.107602 2.347935 3.623832 3.313408-.492286.982468-22.943775 36.064626-85.699569 22.987835-63.896753-13.31454-75.044759-60.261795-79.816223-91.158807.437749-.002936 39.333202-56.9360955 113.552075-66.0120561 74.218873-9.0759605 118.590438 6.8040821 146.313205-34.74813096 14.708364-22.04560214 38.440193 74.04011286-64.874393 118.80937206 20.292711-8.829721 32.131056-18.110581 38.011849-22.5850857 5.880792-4.4745043 5.172084 5.0774637 5.172084 5.0774637s-2.592933 74.17954-126.710808 66.041409c30.14248 2.068289 45.963055-1.289788 50.427948-1.725408z"/></g><g stroke="#e0d18a" stroke-linecap="round" stroke-linejoin="round" stroke-width="6.003044" transform="translate(370.688 727.774)"><path d="m121.746737 186.761695c.726623-.381981 1.904553-.382084 2.631414 0l65.257923 34.303638c2.207121 1.160201 3.656449.119228 3.233113-2.348687l-12.463154-72.656272c-.138781-.809049.225133-1.929246.813175-2.502371l52.794769-51.455457c1.785599-1.7403015 1.243259-3.4401655-1.235058-3.8001967l-72.962519-10.5994436c-.81246-.118028-1.765514-.8102454-2.128922-1.5465504l-32.627018-66.1058231c-1.103496-2.23579908-2.887868-2.24544243-3.99611-.0000591l-32.6270178 66.1048596c-.3633116.7360975-1.3161882 1.4284801-2.1287944 1.5465504l-72.9561832 10.6004072c-2.4674886.3585218-3.0280386 2.0524422-1.2348695 3.8001967l52.7915159 51.454494c.5878494.572961.9519356 1.693094.8131265 2.502371l-12.4623506 72.657235c-.4214955 2.457377 1.0164408 3.513937 3.2329242 2.348746z" fill="#f3ebc6"/><path d="m124.563166 6.00226v121.545763"/><path d="m87.779498 77.489197 35.282907 50.058826"/><path d="m8.884571 88.95349 114.177834 38.594533"/><path d="m65.973397 144.594419 57.089008-17.046396"/><path d="m52.496592 223.164024 70.565813-95.616001"/><path d="m123.062405 186.070056v-58.522033"/><path d="m158.345311 77.4891971-35.282906 50.0588259z"/><path d="m237.240238 88.9534897-114.177833 38.5945333z"/><path d="m180.151413 144.594419-57.089008-17.046396z"/><path d="m193.628218 223.164024-70.565813-95.616001z"/><g fill="#f3ebc6"><ellipse cx="123.062405" cy="9.00339" rx="9.004566" ry="9.00339"/><path d="m18.8688799 93.6979169c1.5367676-4.7290666-1.0516029-9.8083661-5.7812874-11.344933-4.72968453-1.5365669-9.80964772 1.0514655-11.34641538 5.7805321-1.53676765 4.7290666 1.05160288 9.8083662 5.78128739 11.344933 4.72968449 1.536567 9.80964769-1.0514654 11.34641539-5.7805321z"/><path d="m58.667265 216.16875c-4.0233099-2.922724-9.6544925-2.030949-12.5775983 1.991835-2.9231058 4.022785-2.0312141 9.653232 1.9920959 12.575955 4.0233099 2.922724 9.6544925 2.030949 12.5775983-1.991835s2.0312141-9.653231-1.9920959-12.575955z"/><path d="m187.457545 216.16875c-4.02331 2.922724-4.915202 8.553171-1.992096 12.575955s8.554288 4.914559 12.577598 1.991835c4.02331-2.922723 4.915202-8.55317 1.992096-12.575955-2.923106-4.022784-8.554288-4.914559-12.577598-1.991835z"/><path d="m227.25593 93.6979169c1.536768 4.7290667 6.616731 7.3170991 11.346415 5.7805321 4.729685-1.5365668 7.318055-6.6158664 5.781288-11.344933-1.536768-4.7290666-6.616731-7.317099-11.346416-5.7805321-4.729684 1.5365669-7.318055 6.6158664-5.781287 11.344933z"/></g></g><g fill="#f5e698" stroke="#dec54b" stroke-linecap="round" stroke-linejoin="round" stroke-width="6.003044" transform="translate(331.6682 1116.4203)"><path d="m105.715718 17.5319915c-22.2691054-21.36839687-44.0369798-19.22550021-65.3036235 6.42869-9.8071193 11.8304378-20.2570997 15.0264608-31.34994122 9.5880692l.00052244-.00107c-.74481089-.3636548-1.64339987-.0546668-2.00705467.6901441-.17552849.3595045-.20025102.7742126-.06867716 1.1520248 3.46033031 9.9501575 9.81605521 16.7064657 19.06752811 20.2688015 1.0893173 6.867333-6.2690463 14.4052601-22.07509071 22.6137812l-.00011136-.0002143c-.73553768.3820633-1.02208526 1.2880579-.64002193 2.0235956.19460098.3746404.53799593.6499917.94597239.7585283 20.73375061 5.5271259 37.50742631.4599745 50.32108371-15.2016671 14.9949086-18.3277013 32.0025566-21.3823182 51.0229439-9.1638506z"/><path d="m218.448666 17.5319915s33.403658-32.0525953 65.303623 6.42869c16.103892 19.4263054 33.202752 8.5214707 33.202752 8.5214707.726927-.3926263 1.127737-.0644697.871646.7255081 0 0-4.218193 16.4831677-19.716775 22.4509908-1.746247 11.0087836 24.126749 23.6381348 24.126749 23.6381348.732384.373992.67255.8685352-.115218 1.0789477 0 0-32.217199 10.3452768-52.563364-14.5230588-22.492362-27.4915519-51.022944-9.1638506-51.022944-9.1638506z"/><path d="m175.288889 39.910549c-11.655967 18.6707572-28.88196 31.8020009-51.677979 39.3937311l.000014.0000446c-7.549325 2.5140603-15.707312-1.5678289-18.221372-9.1171547-.270056-.8109353-.467413-1.6442937-.589736-2.4902153-1.2162-8.4167128-1.82416-17.6788615-1.82416-27.7864057 0-9.3910184.524819-18.0522533 1.574455-25.9837049l.000233.0000308c1.044875-7.88803242 8.286428-13.43550714 16.17446-12.39063158 1.300389.17225389 2.571162.52129255 3.777094 1.03744098 22.354133 9.5742396 39.283288 22.0194909 50.786991 37.3368647z"/><path d="m148.875495 39.910549c21.261563 34.0571907 53.431716 39.4294819 53.431716 39.4294819 7.622843 2.269503 15.244269-2.1675615 16.63525-10.0153733 0 0 2.246266-4.1133339 2.246266-29.4141086 0-25.3007748-2.249964-29.4381285-2.249964-29.4381285-1.56251-7.7875752-8.88632-11.85943541-16.220944-8.80438434 0 0-32.580761 9.93238444-53.842324 38.24251284z"/><ellipse cx="162.082192" cy="44.748191" rx="21.610959" ry="21.76939"/></g></g></g></g></svg>