<?xml version="1.0" encoding="UTF-8"?>
<svg width="2400" height="1260" viewBox="0 0 1200 630" version="1.1" xmlns="http://www.w3.org/2000/svg" xmlns:xlink="http://www.w3.org/1999/xlink">
    <title>2023-03-02-logo-default</title>
    <defs>
        <radialGradient cx="-8.23993651e-16%" cy="2.42861287e-15%" fx="-8.23993651e-16%" fy="2.42861287e-15%" r="215.130609%" gradientTransform="translate(0,0),scale(0.525,1),rotate(27.699473),translate(0,0)" id="gradient-logo-default">
            <stop stop-color="#D19487" offset="0%"></stop>
            <stop stop-color="#B2738E" offset="50%"></stop>
            <stop stop-color="#577783" stop-opacity="1" offset="100%"></stop>
        </radialGradient>
    </defs>
    <g stroke="none" fill="#fff" fill-rule="evenodd">
        <rect fill="url(#gradient-logo-default)" x="0" y="0" width="1200" height="630"></rect>
        <path d="M628,68 L848,287 L848,343 L628,564 L572,564 L352,343 L352,287 L572,68 L628,68 Z M600,216 C537.867966,216 487.5,248.625 487.5,315 C487.5,380.71125 537.867966,414 600,414 C662.132034,414 712.5,381.375 712.5,315 C712.5,312.189193 712.409675,309.438911 712.231957,306.749066 L604.5,306.75 L604.5,339.75 L651.3773,339.752023 C642.599397,359.332576 622.897413,369 600,369 C568.933983,369 543.75,350.8425 543.75,315 C543.75,278.795455 568.933983,261 600,261 C621.070345,261 639.434865,269.186179 649.071302,285.749992 L708.796081,285.750258 C696.095414,239.027713 652.199425,216 600,216 Z" opacity="0.5"></path>
        <path d="M612.311,106 L810,302.791 L810,327.309 L612.208,526 L587.791,526 L390,327.31 L390,302.79 L587.688,106 L612.311,106 Z M600,216 C537.867966,216 487.5,248.625 487.5,315 C487.5,380.71125 537.867966,414 600,414 C662.132034,414 712.5,381.375 712.5,315 C712.5,312.189193 712.409675,309.438911 712.231957,306.749066 L604.5,306.75 L604.5,339.75 L651.3773,339.752023 C642.599397,359.332576 622.897413,369 600,369 C568.933983,369 543.75,350.8425 543.75,315 C543.75,278.795455 568.933983,261 600,261 C621.070345,261 639.434865,269.186179 649.071302,285.749992 L708.796081,285.750258 C696.095414,239.027713 652.199425,216 600,216 Z"></path>
    </g>
</svg>