<?xml version="1.0" encoding="UTF-8"?>
<svg width="260px" height="260px" viewBox="0 0 260 260" version="1.1" xmlns="http://www.w3.org/2000/svg" xmlns:xlink="http://www.w3.org/1999/xlink">
    <title>favicon</title>
    <defs>
        <linearGradient x1="-4.77048956e-16%" y1="1.75207071e-14%" x2="100%" y2="100%" id="linearGradient-1">
            <stop stop-color="#D19487" offset="0%"></stop>
            <stop stop-color="#B2738E" offset="49.8422222%"></stop>
            <stop stop-color="#577783" stop-opacity="0.995356206" offset="100%"></stop>
        </linearGradient>
        <linearGradient x1="0%" y1="0%" x2="100%" y2="100%" id="linearGradient-2">
            <stop stop-color="#D19487" offset="0%"></stop>
            <stop stop-color="#B2738E" offset="49.8422222%"></stop>
            <stop stop-color="#577783" stop-opacity="0.995356206" offset="100%"></stop>
            <stop stop-color="#577783" stop-opacity="0.995356206" offset="100%"></stop>
        </linearGradient>
    </defs>
    <g id="favicon" stroke="none" stroke-width="1" fill="none" fill-rule="evenodd">
        <circle id="transparent-circle" fill="url(#linearGradient-1)" opacity="0.495512463" cx="130" cy="130" r="130"></circle>
        <circle id="solid-circle" fill="url(#linearGradient-2)" cx="130" cy="130" r="85"></circle>
        <path d="M82.6647966,221 C133.408135,221 156.633941,195.975 156.633941,171.455556 C156.633941,152.497222 144.01122,140.616667 120.02805,140.616667 C114.726508,140.616667 109.172511,141.122222 104.123422,141.880556 C87.2089762,143.902778 73.0715288,147.188889 73.0715288,137.836111 C73.0715288,129.241667 86.4516129,121.152778 110.434783,120.9 C115.483871,120.9 120.532959,122.416667 128.611501,122.416667 C166.984572,122.416667 185.413745,102.447222 191.220196,78.9388889 C192.230014,74.6416667 193.239832,70.85 193.997195,67.5638889 C197.279102,55.9361111 199.551192,52.1444444 204.600281,52.1444444 C209.901823,52.1444444 211.164095,57.7055556 208.387097,65.0361111 L216.465638,65.0361111 C218.485273,62.7611111 220,58.9694444 220,55.1777778 C220,48.8583333 215.708275,42.5388889 206.115007,42.5388889 C197.784011,42.5388889 190.462833,46.0777778 186.676017,57.7055556 C180.869565,47.8472222 169.761571,39 147.293128,39 C108.162693,39 84.4319776,62.2555556 84.4319776,88.5444444 C84.4319776,100.172222 88.7237027,108.261111 98.0645161,113.316667 C64.4880785,117.108333 56.914446,134.802778 56.914446,148.2 C56.914446,168.584 73.6661094,172.89376 91.3111948,174.995059 L92.4150326,175.12364 C92.7832707,175.165626 93.1517532,175.206778 93.5203366,175.247222 C98.3169705,176.005556 103.366059,176.258333 108.162693,177.016667 C120.280505,178.786111 129.873773,181.566667 129.873773,191.677778 C129.873773,204.316667 113.211781,211.141667 87.713885,211.141667 C66.5077139,211.141667 58.1767181,202.8 55.9046283,191.677778 C55.1472651,187.380556 55.3997195,182.830556 55.9046283,178.027778 L48.5834502,178.027778 C42.7769986,182.577778 40,188.644444 40,194.711111 C40,207.855556 49.3408135,221 82.6647966,221 Z M126.886139,114 C117.292079,114 113,108.206767 113,102.161654 C113,92.3383459 118.30198,88.8120301 126.381188,76.7218045 C135.975248,61.8609023 134.207921,47 149.861386,47 C160.717822,47 164,54.556391 164,60.0977444 C164,69.6691729 158.950495,74.2030075 151.881188,84.7819549 C143.044554,98.6353383 145.569307,114 126.886139,114 Z" id="front-letter" fill="#FFFFFF" fill-rule="nonzero"></path>
    </g>
</svg>