<?xml version="1.0" encoding="UTF-8"?>
<svg width="260px" height="260px" viewBox="0 0 260 260" version="1.1" xmlns="http://www.w3.org/2000/svg" xmlns:xlink="http://www.w3.org/1999/xlink">
    <title>favicon</title>
    <defs>
        <linearGradient x1="-4.77048956e-16%" y1="1.75207071e-14%" x2="100%" y2="100%" id="linearGradient-1">
            <stop stop-color="#D19487" offset="0%"></stop>
            <stop stop-color="#B2738E" offset="49.8422222%"></stop>
            <stop stop-color="#577783" stop-opacity="0.995356206" offset="100%"></stop>
        </linearGradient>
    </defs>
    <g id="favicon" stroke="none" stroke-width="1" fill="none" fill-rule="evenodd">
        <polygon id="transparent" fill="url(#linearGradient-1)" opacity="0.495512463" points="234 0 260 26 260 234 234 260 26 260 0 234 0 26 26 0"></polygon>
        <polygon id="solid" fill="url(#linearGradient-1)" points="224 26 36 26 26 36 26 224 36 234 224 234 234 224 234 36"></polygon>
        <path d="M205,130 C205,174.25 171.421356,196 130,196 L128.759738,195.993474 C87.9104288,195.56275 55,173.8075 55,130 C55,85.75 88.5786438,64 130,64 C164.799862,64 194.064022,79.3520251 202.530899,110.50083 L162.714396,110.50033 C156.290158,99.4575629 144.047039,94 130,94 C109.289322,94 92.5,105.863636 92.5,130 C92.5,153.895 108.955214,165.7615 129.379869,165.99644 L130,166 C145.264942,166 158.399598,159.555051 164.251533,146.501349 L133,146.5 L133,124.5 L204.821316,124.499555 C204.939787,126.292728 205,128.126191 205,130 Z" id="letter" fill="#FFFFFF"></path>
    </g>
</svg>