<?xml version="1.0" encoding="UTF-8"?>
<svg width="16px" height="16px" viewBox="0 0 16 16" version="1.1" xmlns="http://www.w3.org/2000/svg" xmlns:xlink="http://www.w3.org/1999/xlink">
    <title>safari-pinned-tab</title>
    <defs>
        <linearGradient x1="-4.77048956e-16%" y1="1.75207071e-14%" x2="100%" y2="100%" id="linearGradient-1">
            <stop stop-color="#D19487" offset="0%"></stop>
            <stop stop-color="#B2738E" offset="49.8422222%"></stop>
            <stop stop-color="#577783" stop-opacity="0.995356206" offset="100%"></stop>
        </linearGradient>
    </defs>
    <g id="safari-pinned-tab" stroke="none" stroke-width="1" fill="none" fill-rule="evenodd">
        <polygon id="transparent" fill="url(#linearGradient-1)" opacity="0.495512463" points="14.4 0 16 1.6 16 14.4 14.4 16 1.6 16 0 14.4 0 1.6 1.6 0"></polygon>
        <polygon id="solid" fill="url(#linearGradient-1)" points="13.7846154 1.6 2.21538462 1.6 1.6 2.21538462 1.6 13.7846154 2.21538462 14.4 13.7846154 14.4 14.4 13.7846154 14.4 2.21538462"></polygon>
        <path d="M12.61,8.0012 C12.61,10.72405 10.5437941,12.0624 7.995,12.0624 L7.91868254,12.0619984 C5.40508838,12.0354945 3.38,10.6968215 3.38,8.0012 C3.38,5.27835 5.44620588,3.94 7.995,3.94 C10.1361512,3.94 11.9367359,4.88448453 12.4579217,6.80081316 L10.0078485,6.8010155 C9.61249573,6.12172161 8.85923186,5.786 7.995,5.786 C6.72060294,5.786 5.6875,6.51600909 5.6875,8.0012 C5.6875,9.471539 6.70004419,10.2017243 7.95684127,10.216181 L7.995,10.2164 C8.9338845,10.2164 9.7418021,9.82017389 10.1021297,9.01765579 L8.1796,9.0165 L8.1796,7.66276667 L12.598919,7.66143998 C12.6062658,7.77219349 12.61,7.88544565 12.61,8.0012 Z" id="letter" fill="#FFFFFF"></path>
    </g>
</svg>