<?xml version="1.0" encoding="UTF-8"?>
<svg width="16px" height="16px" viewBox="0 0 16 16" version="1.1" xmlns="http://www.w3.org/2000/svg" xmlns:xlink="http://www.w3.org/1999/xlink">
    <title>safari-pinned-tab</title>
    <defs>
        <linearGradient x1="-4.77048956e-16%" y1="1.75207071e-14%" x2="100%" y2="100%" id="linearGradient-1">
            <stop stop-color="#D19487" offset="0%"></stop>
            <stop stop-color="#B2738E" offset="49.8422222%"></stop>
            <stop stop-color="#577783" stop-opacity="0.995356206" offset="100%"></stop>
        </linearGradient>
        <linearGradient x1="0%" y1="0%" x2="100%" y2="100%" id="linearGradient-2">
            <stop stop-color="#D19487" offset="0%"></stop>
            <stop stop-color="#B2738E" offset="49.8422222%"></stop>
            <stop stop-color="#577783" stop-opacity="0.995356206" offset="100%"></stop>
            <stop stop-color="#577783" stop-opacity="0.995356206" offset="100%"></stop>
        </linearGradient>
    </defs>
    <g id="safari-pinned-tab" stroke="none" stroke-width="1" fill="none" fill-rule="evenodd">
        <circle id="transparent-circle" fill="url(#linearGradient-1)" opacity="0.495512463" cx="8" cy="8" r="8"></circle>
        <circle id="solid-circle" fill="url(#linearGradient-2)" cx="8" cy="8" r="5.23076923"></circle>
        <path d="M9.06419247,2.4 C10.4468659,2.4 11.1304348,2.94444444 11.4877549,3.55111111 C11.7207897,2.83555556 12.1713238,2.61777778 12.6840004,2.61777778 C13.2743554,2.61777778 13.5384615,3.00666667 13.5384615,3.39555556 C13.5384615,3.62888889 13.4452476,3.86222222 13.3209623,4.00222222 L12.8238213,4.00222222 C12.9947136,3.55111111 12.9170353,3.20888889 12.5907865,3.20888889 C12.2800734,3.20888889 12.1402525,3.44222222 11.9382889,4.15777778 C11.891682,4.36 11.8295393,4.59333333 11.7673967,4.85777778 C11.4100766,6.30444444 10.2759737,7.53333333 7.91455389,7.53333333 C7.41741288,7.53333333 7.10669975,7.44 6.79598662,7.44 C5.32009926,7.45555556 4.49670946,7.95333333 4.49670946,8.48222222 C4.49670946,9.05777778 5.36670623,8.85555556 6.40759521,8.73111111 C6.71830834,8.68444444 7.06009278,8.65333333 7.38634157,8.65333333 C8.86222894,8.65333333 9.63901176,9.38444444 9.63901176,10.5511111 C9.63901176,12.06 8.20973136,13.6 5.08706441,13.6 C3.03635775,13.6 2.46153846,12.7911111 2.46153846,11.9822222 C2.46153846,11.6088889 2.63243068,11.2355556 2.98975078,10.9555556 L3.44028482,10.9555556 C3.40921351,11.2511111 3.39367785,11.5311111 3.44028482,11.7955556 C3.58010573,12.48 4.09278239,12.9933333 5.39777754,12.9933333 C6.96687884,12.9933333 7.99223217,12.5733333 7.99223217,11.7955556 C7.99223217,11.1733333 7.40187723,11.0022222 6.65616571,10.8933333 C6.36098824,10.8466667 6.05027511,10.8311111 5.75509764,10.7844444 L5.61915045,10.7689267 C4.53329904,10.639616 3.50242745,10.3744 3.50242745,9.12 C3.50242745,8.29555556 3.96849714,7.20666667 6.03473945,6.97333333 C5.45992016,6.66222222 5.195814,6.16444444 5.195814,5.44888889 C5.195814,3.83111111 6.65616571,2.4 9.06419247,2.4 Z M9.22223915,2.89230769 C8.25894897,2.89230769 8.36770754,3.80682475 7.77730388,4.72134182 C7.28012186,5.4653557 6.95384615,5.68235975 6.95384615,6.28687102 C6.95384615,6.65887796 7.21797411,7.01538462 7.80837776,7.01538462 C8.9581112,7.01538462 8.80274181,6.06986698 9.34653465,5.21735107 C9.78156893,4.56633892 10.0923077,4.28733372 10.0923077,3.69832273 C10.0923077,3.35731637 9.89032749,2.89230769 9.22223915,2.89230769 Z" id="front-letter" fill="#FFFFFF"></path>
    </g>
</svg>