<?xml version="1.0" encoding="UTF-8"?>
<svg width="16px" height="16px" viewBox="0 0 16 16" version="1.1" xmlns="http://www.w3.org/2000/svg" xmlns:xlink="http://www.w3.org/1999/xlink">
    <title>safari-pinned-tab</title>
    <g stroke="none" fill="F5C8BF" fill-rule="nonzero">
        <path d="M8,0 C12.418278,0 16,3.581722 16,8 C16,12.418278 12.418278,16 8,16 C3.581722,16 0,12.418278 0,8 C0,3.581722 3.581722,0 8,0 Z M9.06419247,2.4 C6.65616571,2.4 5.195814,3.83111111 5.195814,5.44888889 C5.195814,6.16444444 5.45992016,6.66222222 6.03473945,6.97333333 C3.96849714,7.20666667 3.50242745,8.29555556 3.50242745,9.12 C3.50242745,10.3744 4.53329904,10.639616 5.61915045,10.7689267 L5.75509764,10.7844444 L5.75509764,10.7844444 C6.05027511,10.8311111 6.36098824,10.8466667 6.65616571,10.8933333 C7.40187723,11.0022222 7.99223217,11.1733333 7.99223217,11.7955556 C7.99223217,12.5733333 6.96687884,12.9933333 5.39777754,12.9933333 C4.09278239,12.9933333 3.58010573,12.48 3.44028482,11.7955556 C3.39367785,11.5311111 3.40921351,11.2511111 3.44028482,10.9555556 L2.98975078,10.9555556 C2.63243068,11.2355556 2.46153846,11.6088889 2.46153846,11.9822222 C2.46153846,12.7911111 3.03635775,13.6 5.08706441,13.6 C8.20973136,13.6 9.63901176,12.06 9.63901176,10.5511111 C9.63901176,9.38444444 8.86222894,8.65333333 7.38634157,8.65333333 C7.06009278,8.65333333 6.71830834,8.68444444 6.40759521,8.73111111 C5.36670623,8.85555556 4.49670946,9.05777778 4.49670946,8.48222222 C4.49670946,7.95333333 5.32009926,7.45555556 6.79598662,7.44 C7.10669975,7.44 7.41741288,7.53333333 7.91455389,7.53333333 C10.2759737,7.53333333 11.4100766,6.30444444 11.7673967,4.85777778 C11.8295393,4.59333333 11.891682,4.36 11.9382889,4.15777778 C12.1402525,3.44222222 12.2800734,3.20888889 12.5907865,3.20888889 C12.9170353,3.20888889 12.9947136,3.55111111 12.8238213,4.00222222 L13.3209623,4.00222222 C13.4452476,3.86222222 13.5384615,3.62888889 13.5384615,3.39555556 C13.5384615,3.00666667 13.2743554,2.61777778 12.6840004,2.61777778 C12.1713238,2.61777778 11.7207897,2.83555556 11.4877549,3.55111111 C11.1304348,2.94444444 10.4468659,2.4 9.06419247,2.4 Z M9.22223915,2.89230769 C9.89032749,2.89230769 10.0923077,3.35731637 10.0923077,3.69832273 C10.0923077,4.28733372 9.78156893,4.56633892 9.34653465,5.21735107 C8.80274181,6.06986698 8.9581112,7.01538462 7.80837776,7.01538462 C7.21797411,7.01538462 6.95384615,6.65887796 6.95384615,6.28687102 C6.95384615,5.68235975 7.28012186,5.4653557 7.77730388,4.72134182 C8.36770754,3.80682475 8.25894897,2.89230769 9.22223915,2.89230769 Z" fill-opacity="0.5"></path>
        <path d="M11.8624404,4.47255779 C12.7123433,5.40265436 13.2307692,6.64078475 13.2307692,8 C13.2307692,10.8888741 10.8888741,13.2307692 8,13.2307692 C7.83125416,13.2307692 7.6643746,13.2227787 7.49971908,13.2071553 C8.95527192,12.6532417 9.63901176,11.5947349 9.63901176,10.5511111 C9.63901176,9.38444444 8.86222894,8.65333333 7.38634157,8.65333333 C7.06009278,8.65333333 6.71830834,8.68444444 6.40759521,8.73111111 C5.36670623,8.85555556 4.49670946,9.05777778 4.49670946,8.48222222 C4.49670946,7.95333333 5.32009926,7.45555556 6.79598662,7.44 C7.10669975,7.44 7.41741288,7.53333333 7.91455389,7.53333333 C10.2759737,7.53333333 11.4100766,6.30444444 11.7673967,4.85777778 L11.8137609,4.66527778 L11.8137609,4.66527778 Z M5.195814,5.44888889 C5.195814,6.16444444 5.45992016,6.66222222 6.03473945,6.97333333 C3.96849714,7.20666667 3.50242745,8.29555556 3.50242745,9.12 C3.50242745,10.3744 4.53329904,10.639616 5.61915045,10.7689267 L5.75509764,10.7844444 L5.75509764,10.7844444 C6.05027511,10.8311111 6.36098824,10.8466667 6.65616571,10.8933333 C7.40187723,11.0022222 7.99223217,11.1733333 7.99223217,11.7955556 C7.99223217,12.4153167 7.34118692,12.8079078 6.28276399,12.9418477 C4.23666084,12.230815 2.76923077,10.2867758 2.76923077,8 C2.76923077,5.50034122 4.52259313,3.41020217 6.86652988,2.89237082 C5.79783747,3.44840929 5.195814,4.41017284 5.195814,5.44888889 Z M9.22223915,2.89230769 C9.89032749,2.89230769 10.0923077,3.35731637 10.0923077,3.69832273 C10.0923077,4.28733372 9.78156893,4.56633892 9.34653465,5.21735107 C8.80274181,6.06986698 8.9581112,7.01538462 7.80837776,7.01538462 C7.21797411,7.01538462 6.95384615,6.65887796 6.95384615,6.28687102 C6.95384615,5.68235975 7.28012186,5.4653557 7.77730388,4.72134182 C8.36770754,3.80682475 8.25894897,2.89230769 9.22223915,2.89230769 Z"></path>
    </g>
</svg>