<?xml version="1.0" standalone="no"?>
<!DOCTYPE svg PUBLIC "-//W3C//DTD SVG 20010904//EN"
 "http://www.w3.org/TR/2001/REC-SVG-20010904/DTD/svg10.dtd">
<svg version="1.0" xmlns="http://www.w3.org/2000/svg"
 width="512.000000pt" height="512.000000pt" viewBox="0 0 512.000000 512.000000"
 preserveAspectRatio="xMidYMid meet">
<metadata>
Created by potrace 1.11, written by Peter Selinger 2001-2013
</metadata>
<g transform="translate(0.000000,512.000000) scale(0.100000,-0.100000)"
fill="#000000" stroke="none">
<path d="M2280 5109 c-291 -33 -588 -120 -850 -250 -275 -137 -464 -273 -680
-489 -216 -216 -352 -405 -489 -680 -177 -358 -261 -719 -261 -1130 0 -411 84
-772 261 -1130 137 -275 273 -464 489 -680 216 -216 405 -352 680 -489 358
-177 719 -261 1130 -261 411 0 772 84 1130 261 275 137 464 273 680 489 216
216 352 405 489 680 177 358 261 719 261 1130 0 411 -84 772 -261 1130 -137
275 -273 464 -489 680 -216 216 -405 352 -680 489 -269 133 -560 218 -862 251
-112 12 -438 11 -548 -1z m616 -863 c228 -48 428 -131 616 -256 202 -134 261
-209 261 -333 0 -158 -121 -279 -278 -279 -77 0 -125 21 -230 101 -588 450
-1435 243 -1754 -429 -272 -573 -25 -1258 554 -1536 565 -272 1247 -36 1532
531 36 70 83 197 83 222 0 11 -79 13 -423 13 -496 0 -499 0 -582 83 -115 116
-115 278 0 394 86 85 64 83 761 83 694 0 671 3 759 -85 73 -73 90 -132 81
-279 -34 -601 -357 -1122 -875 -1414 -269 -152 -519 -216 -841 -216 -322 0
-572 64 -841 216 -654 368 -991 1109 -843 1848 9 41 33 129 55 195 210 632
765 1082 1439 1165 131 16 389 4 526 -24z"/>
</g>
</svg>
