<svg viewBox="0 0 100 100" version="1.1" xmlns="http://www.w3.org/2000/svg" xmlns:xlink="https://www.w3.org/1999/xlink">
	<path d="M89.111,64.374 C87.34,41.783 83.237,33.19 80.303,28.693 L80.143,28.446 C78.315,25.614 74.04,25.79 73.388,25.835 C72.925,25.824 70.5,25.814 66.608,26.704 L62.567,26.704 C62.355,26.155 61.838,25.764 61.231,25.764 L38.315,25.764 C37.709,25.764 37.191,26.155 36.979,26.704 L33.168,26.704 C29.276,25.813 26.851,25.823 26.388,25.835 C25.738,25.791 21.461,25.614 19.633,28.446 L19.472,28.693 C16.539,33.191 12.435,41.783 10.665,64.374 C10.662,64.414 10.661,64.455 10.662,64.495 C10.756,67.938 12.638,74.451 19.088,74.451 C25.303,74.451 28.564,69.733 29.421,67.235 L32.592,57.918 L33.234,57.324 C34.527,58.127 36.05,58.592 37.681,58.592 C39.447,58.592 41.088,58.047 42.446,57.117 C42.51,57.128 42.576,57.137 42.644,57.137 L57.356,57.137 C58.709,58.055 60.339,58.592 62.093,58.592 C63.724,58.592 65.247,58.127 66.54,57.324 L67.182,57.918 L70.354,67.238 C71.21,69.733 74.472,74.451 80.686,74.451 C87.137,74.451 89.019,67.938 89.113,64.495 C89.115,64.455 89.114,64.414 89.111,64.374 L89.111,64.374 Z M64.66,39.445 C64.66,34.36 68.798,30.223 73.882,30.223 C76.146,30.223 78.22,31.044 79.826,32.402 C80.749,34.162 81.889,36.79 83.011,40.742 C82.379,45.215 78.527,48.667 73.882,48.667 C68.798,48.667 64.66,44.53 64.66,39.445 L64.66,39.445 Z M64.118,30.397 C64.118,30.179 64.4,29.936 64.805,29.936 C65.21,29.936 65.493,30.18 65.493,30.397 L65.493,32.372 C65.493,32.59 65.211,32.833 64.805,32.833 C64.401,32.833 64.118,32.59 64.118,32.372 L64.118,30.397 L64.118,30.397 Z M66.74,29.009 C66.828,29.009 66.915,28.999 67,28.979 C70.986,28.054 73.341,28.139 73.36,28.14 C73.411,28.142 73.464,28.141 73.513,28.137 C74.486,28.055 77.224,28.175 78.206,29.697 L78.372,29.953 C78.416,30.02 78.463,30.092 78.512,30.167 C77.117,29.468 75.545,29.072 73.881,29.072 C71.068,29.072 68.514,30.199 66.644,32.024 L66.644,30.398 C66.644,29.807 66.279,29.291 65.737,29.01 L66.74,29.01 L66.74,29.009 Z M38.027,27.252 C38.027,27.067 38.156,26.916 38.315,26.916 L61.231,26.916 C61.389,26.916 61.519,27.067 61.519,27.252 L61.519,39.636 C61.519,39.821 61.389,39.972 61.231,39.972 L38.315,39.972 C38.156,39.972 38.027,39.821 38.027,39.636 L38.027,27.252 L38.027,27.252 Z M38.315,41.125 L61.231,41.125 C62.025,41.125 62.671,40.457 62.671,39.637 L62.671,29.009 L63.871,29.009 C63.33,29.29 62.965,29.806 62.965,30.397 L62.965,32.372 C62.965,33.262 63.79,33.986 64.804,33.986 C64.898,33.986 64.99,33.978 65.078,33.966 C64.084,35.557 63.507,37.435 63.507,39.446 C63.507,40.273 63.608,41.077 63.791,41.848 C63.237,41.735 62.671,41.676 62.094,41.676 C57.43,41.676 53.636,45.469 53.636,50.134 C53.636,51.15 53.816,52.124 54.146,53.027 L45.63,53.027 C45.96,52.125 46.14,51.15 46.14,50.134 C46.14,45.47 42.346,41.676 37.682,41.676 C37.105,41.676 36.538,41.735 35.985,41.848 C36.169,41.077 36.269,40.273 36.269,39.446 C36.269,37.443 35.697,35.573 34.71,33.986 L34.717,33.986 C35.731,33.986 36.556,33.262 36.556,32.372 L36.556,30.397 C36.556,29.806 36.191,29.29 35.649,29.009 L36.874,29.009 L36.874,39.637 C36.875,40.457 37.521,41.125 38.315,41.125 L38.315,41.125 Z M45.109,54.178 L54.668,54.178 C54.791,54.403 54.924,54.621 55.065,54.832 L44.712,54.832 C44.854,54.621 44.986,54.402 45.109,54.178 L45.109,54.178 Z M25.896,48.667 C21.251,48.667 17.399,45.215 16.767,40.742 C17.888,36.79 19.029,34.162 19.952,32.403 C21.558,31.045 23.633,30.224 25.896,30.224 C30.98,30.224 35.117,34.361 35.117,39.446 C35.117,44.531 30.98,48.667 25.896,48.667 L25.896,48.667 Z M34.032,30.397 C34.032,30.179 34.314,29.936 34.718,29.936 C35.123,29.936 35.405,30.18 35.405,30.397 L35.405,32.372 C35.405,32.59 35.123,32.833 34.718,32.833 C34.314,32.833 34.032,32.59 34.032,32.372 L34.032,30.397 L34.032,30.397 Z M21.57,29.696 C22.552,28.175 25.293,28.055 26.261,28.136 C26.311,28.14 26.364,28.142 26.414,28.139 C26.437,28.138 28.79,28.053 32.777,28.978 C32.862,28.998 32.95,29.008 33.037,29.008 L33.786,29.008 C33.244,29.289 32.88,29.805 32.88,30.396 L32.88,31.78 C31.035,30.098 28.584,29.07 25.896,29.07 C24.232,29.07 22.66,29.466 21.265,30.165 C21.314,30.09 21.361,30.019 21.405,29.951 L21.57,29.696 L21.57,29.696 Z M19.089,72.146 C14.819,72.146 13.526,68.163 13.134,65.917 C14.918,67.194 18.206,68.702 23.794,68.702 C24.505,68.702 25.257,68.675 26.044,68.622 C24.857,70.226 22.686,72.146 19.089,72.146 L19.089,72.146 Z M30.506,56.898 L27.242,66.49 C27.237,66.505 27.107,66.869 26.818,67.407 C18.368,68.162 14.426,65.615 12.985,64.295 C13.729,54.943 14.903,48.078 16.159,43.028 C17.621,46.988 21.433,49.819 25.895,49.819 C27.077,49.819 28.212,49.617 29.271,49.252 C29.241,49.544 29.224,49.838 29.224,50.133 C29.224,52.33 30.066,54.334 31.445,55.84 L30.814,56.423 C30.674,56.553 30.568,56.717 30.506,56.898 L30.506,56.898 Z M31.529,50.133 C31.529,49.518 31.618,48.906 31.8,48.321 C31.838,48.193 31.847,48.064 31.842,47.938 C33.108,47.048 34.167,45.884 34.931,44.532 C35.057,44.525 35.185,44.503 35.309,44.451 C36.058,44.137 36.856,43.979 37.683,43.979 C41.077,43.979 43.836,46.739 43.836,50.132 C43.836,53.527 41.076,56.286 37.683,56.286 C34.29,56.286 31.529,53.527 31.529,50.133 L31.529,50.133 Z M55.941,50.133 C55.941,46.74 58.701,43.98 62.094,43.98 C62.921,43.98 63.719,44.138 64.468,44.452 C64.592,44.504 64.719,44.525 64.846,44.533 C65.611,45.885 66.669,47.049 67.935,47.939 C67.93,48.065 67.939,48.194 67.977,48.322 C68.156,48.907 68.248,49.518 68.248,50.134 C68.248,53.529 65.488,56.288 62.095,56.288 C58.702,56.288 55.941,53.527 55.941,50.133 L55.941,50.133 Z M69.271,56.898 C69.209,56.716 69.103,56.552 68.962,56.422 L68.331,55.839 C69.71,54.333 70.552,52.329 70.552,50.132 C70.552,49.837 70.535,49.543 70.505,49.251 C71.565,49.616 72.699,49.818 73.881,49.818 C78.343,49.818 82.155,46.987 83.617,43.027 C84.872,48.071 86.045,54.926 86.789,64.262 C85.399,65.573 81.505,68.168 72.954,67.41 C72.684,66.901 72.555,66.545 72.535,66.491 L69.271,56.898 L69.271,56.898 Z M80.688,72.146 C77.065,72.146 74.897,70.228 73.718,68.625 C74.492,68.677 75.233,68.703 75.934,68.703 C81.58,68.703 84.877,67.164 86.649,65.879 C86.267,68.117 84.982,72.146 80.688,72.146 L80.688,72.146 Z M52.117,44.836 C52.347855,44.836 52.535,44.648855 52.535,44.418 C52.535,44.187145 52.347855,44 52.117,44 C51.886145,44 51.699,44.187145 51.699,44.418 C51.699,44.648855 51.886145,44.836 52.117,44.836 Z M50.7,44.836 C50.930855,44.836 51.118,44.648855 51.118,44.418 C51.118,44.187145 50.930855,44 50.7,44 C50.469145,44 50.282,44.187145 50.282,44.418 C50.282,44.648855 50.469145,44.836 50.7,44.836 Z M49.283,44.836 C49.513855,44.836 49.701,44.648855 49.701,44.418 C49.701,44.187145 49.513855,44 49.283,44 C49.052145,44 48.865,44.187145 48.865,44.418 C48.865,44.648855 49.052145,44.836 49.283,44.836 Z M47.866,44.836 C48.096855,44.836 48.284,44.648855 48.284,44.418 C48.284,44.187145 48.096855,44 47.866,44 C47.635145,44 47.448,44.187145 47.448,44.418 C47.448,44.648855 47.635145,44.836 47.866,44.836 Z M51.408,45.988 C51.638855,45.988 51.826,45.800855 51.826,45.57 C51.826,45.339145 51.638855,45.152 51.408,45.152 C51.177145,45.152 50.99,45.339145 50.99,45.57 C50.99,45.800855 51.177145,45.988 51.408,45.988 Z M49.992,45.988 C50.222855,45.988 50.41,45.800855 50.41,45.57 C50.41,45.339145 50.222855,45.152 49.992,45.152 C49.761145,45.152 49.574,45.339145 49.574,45.57 C49.574,45.800855 49.761145,45.988 49.992,45.988 Z M48.575,45.988 C48.805855,45.988 48.993,45.800855 48.993,45.57 C48.993,45.339145 48.805855,45.152 48.575,45.152 C48.344145,45.152 48.157,45.339145 48.157,45.57 C48.157,45.800855 48.344145,45.988 48.575,45.988 Z M49.992,52.555 C51.645,52.555 52.99,51.211 52.99,49.559 C52.99,47.905 51.645,46.56 49.992,46.56 C48.339,46.56 46.994,47.905 46.994,49.559 C46.994,51.211 48.339,52.555 49.992,52.555 L49.992,52.555 Z M49.992,47.712 C51.01,47.712 51.837,48.54 51.837,49.559 C51.837,50.576 51.009,51.403 49.992,51.403 C48.975,51.403 48.146,50.576 48.146,49.559 C48.146,48.54 48.974,47.712 49.992,47.712 L49.992,47.712 Z M19.369,40.726 L19.369,38.231 L18.121,39.479 L19.369,40.726 Z M32.421,38.23 L32.421,40.726 L33.668,39.478 L32.421,38.23 Z M25.895,47.252 L27.143,46.004 L24.647,46.004 L25.895,47.252 Z M25.895,31.705 L24.647,32.952 L27.142,32.952 L25.895,31.705 Z M31.11,37.428 L28.794,37.428 C28.641,37.428 28.495,37.489 28.386,37.596 L27.301,38.68 C26.863,39.12 26.863,39.835 27.301,40.276 L28.386,41.36 C28.494,41.468 28.64,41.528 28.793,41.528 L31.109,41.528 C31.427,41.528 31.685,41.27 31.685,40.952 L31.685,38.003 C31.687,37.686 31.428,37.428 31.11,37.428 L31.11,37.428 Z M30.534,40.376 L29.033,40.376 L28.134,39.478 L29.033,38.58 L30.534,38.58 L30.534,40.376 L30.534,40.376 Z M24.487,38.68 L23.403,37.596 C23.295,37.488 23.148,37.428 22.996,37.428 L20.68,37.428 C20.362,37.428 20.104,37.686 20.104,38.004 L20.104,40.953 C20.104,41.271 20.362,41.529 20.68,41.529 L22.996,41.529 C23.148,41.529 23.295,41.468 23.403,41.361 L24.488,40.276 C24.926,39.835 24.926,39.121 24.487,38.68 L24.487,38.68 Z M22.757,40.376 L21.256,40.376 L21.256,38.58 L22.757,38.58 L23.655,39.478 L22.757,40.376 L22.757,40.376 Z M25.098,38.072 C25.312,38.284 25.595,38.401 25.896,38.401 C26.197,38.401 26.479,38.284 26.694,38.071 L27.777,36.987 C27.885,36.879 27.945,36.733 27.945,36.58 L27.945,34.264 C27.945,33.946 27.687,33.688 27.369,33.688 L24.42,33.688 C24.102,33.688 23.844,33.946 23.844,34.264 L23.844,36.58 C23.844,36.733 23.905,36.879 24.012,36.987 L25.098,38.072 L25.098,38.072 Z M24.997,34.839 L26.793,34.839 L26.793,36.341 L25.895,37.239 L24.997,36.34 L24.997,34.839 L24.997,34.839 Z M26.692,40.885 C26.265,40.46 25.524,40.46 25.096,40.886 L24.013,41.97 C23.905,42.078 23.845,42.225 23.845,42.377 L23.845,44.693 C23.845,45.011 24.103,45.269 24.421,45.269 L27.37,45.269 C27.688,45.269 27.946,45.011 27.946,44.693 L27.946,42.377 C27.946,42.225 27.885,42.078 27.777,41.97 L26.692,40.885 L26.692,40.885 Z M26.793,44.117 L24.997,44.117 L24.997,42.616 L25.895,41.717 L26.793,42.616 L26.793,44.117 L26.793,44.117 Z M74.702,46.184 L75.517,45.369 L74.786,44.639 L75.517,43.909 L74.702,43.094 L73.972,43.824 L73.241,43.094 L72.427,43.909 L73.157,44.639 L72.427,45.369 L73.241,46.184 L73.972,45.454 L74.702,46.184 Z M69.666,37.981 L67.89,37.981 C67.572,37.981 67.314,38.239 67.314,38.557 L67.314,40.334 C67.314,40.652 67.572,40.91 67.89,40.91 L69.666,40.91 C69.984,40.91 70.242,40.652 70.242,40.334 L70.242,38.557 C70.242,38.239 69.984,37.981 69.666,37.981 L69.666,37.981 Z M69.09,39.758 L68.466,39.758 L68.466,39.133 L69.09,39.133 L69.09,39.758 L69.09,39.758 Z M37.683,44.863 C34.89,44.863 32.619,47.136 32.619,49.929 C32.619,52.72 34.89,54.991 37.683,54.991 C40.475,54.991 42.747,52.72 42.747,49.929 C42.747,47.137 40.475,44.863 37.683,44.863 L37.683,44.863 Z M37.683,53.84 C35.526,53.84 33.771,52.086 33.771,49.93 C33.771,47.772 35.526,46.016 37.683,46.016 C39.84,46.016 41.595,47.772 41.595,49.93 C41.594,52.086 39.839,53.84 37.683,53.84 L37.683,53.84 Z M62.096,44.863 C59.303,44.863 57.032,47.136 57.032,49.929 C57.032,52.72 59.303,54.991 62.096,54.991 C64.888,54.991 67.16,52.72 67.16,49.929 C67.16,47.137 64.888,44.863 62.096,44.863 L62.096,44.863 Z M62.096,53.84 C59.939,53.84 58.184,52.086 58.184,49.93 C58.184,47.772 59.939,46.016 62.096,46.016 C64.252,46.016 66.008,47.772 66.008,49.93 C66.008,52.086 64.252,53.84 62.096,53.84 L62.096,53.84 Z M68.777,36.448 C67.125,36.448 65.779,37.793 65.779,39.447 C65.779,41.099 67.125,42.444 68.777,42.444 C70.43,42.444 71.775,41.099 71.775,39.447 C71.775,37.793 70.431,36.448 68.777,36.448 L68.777,36.448 Z M68.777,41.291 C67.759,41.291 66.931,40.463 66.931,39.446 C66.931,38.428 67.759,37.6 68.777,37.6 C69.795,37.6 70.623,38.428 70.623,39.446 C70.623,40.463 69.795,41.291 68.777,41.291 L68.777,41.291 Z M79.165,42.443 C80.818,42.443 82.163,41.098 82.163,39.446 C82.163,37.793 80.818,36.447 79.165,36.447 C77.513,36.447 76.167,37.792 76.167,39.446 C76.167,41.099 77.513,42.443 79.165,42.443 L79.165,42.443 Z M79.165,37.6 C80.183,37.6 81.011,38.428 81.011,39.446 C81.011,40.463 80.183,41.291 79.165,41.291 C78.147,41.291 77.319,40.463 77.319,39.446 C77.319,38.428 78.147,37.6 79.165,37.6 L79.165,37.6 Z M76.97,44.639 C76.97,42.986 75.625,41.641 73.973,41.641 C72.319,41.641 70.974,42.986 70.974,44.639 C70.974,46.293 72.319,47.637 73.973,47.637 C75.625,47.637 76.97,46.293 76.97,44.639 L76.97,44.639 Z M72.126,44.639 C72.126,43.621 72.954,42.794 73.973,42.794 C74.99,42.794 75.818,43.622 75.818,44.639 C75.818,45.656 74.99,46.484 73.973,46.484 C72.954,46.484 72.126,45.656 72.126,44.639 L72.126,44.639 Z M79.166,41.075 C80.077,41.075 80.818,40.333 80.818,39.422 C80.818,38.511 80.077,37.769 79.166,37.769 C78.254,37.769 77.513,38.51 77.513,39.422 C77.513,40.334 78.254,41.075 79.166,41.075 L79.166,41.075 Z M79.166,38.921 C79.441,38.921 79.666,39.146 79.666,39.421 C79.666,39.697 79.441,39.922 79.166,39.922 C78.89,39.922 78.665,39.697 78.665,39.421 C78.665,39.146 78.89,38.921 79.166,38.921 L79.166,38.921 Z M73.973,37.25 C75.625,37.25 76.97,35.905 76.97,34.252 C76.97,32.599 75.625,31.254 73.973,31.254 C72.319,31.254 70.974,32.599 70.974,34.252 C70.974,35.905 72.318,37.25 73.973,37.25 L73.973,37.25 Z M72.736,35.619 L75.207,35.619 C74.88,35.915 74.447,36.098 73.973,36.098 C73.497,36.097 73.064,35.915 72.736,35.619 L72.736,35.619 Z M73.972,33.976 L74.243,34.466 L73.7,34.466 L73.972,33.976 L73.972,33.976 Z M75.817,34.251 C75.817,34.44 75.788,34.622 75.735,34.794 C75.73,34.784 75.728,34.773 75.723,34.763 L74.475,32.506 C74.467,32.493 74.457,32.483 74.449,32.471 C75.235,32.682 75.817,33.399 75.817,34.251 L75.817,34.251 Z M73.493,32.472 C73.484,32.484 73.473,32.493 73.467,32.507 L72.22,34.765 C72.214,34.774 72.213,34.785 72.208,34.795 C72.155,34.624 72.126,34.441 72.126,34.253 C72.126,33.4 72.707,32.684 73.493,32.472 L73.493,32.472 Z" fill="#000000"></path>
</svg>