<?xml version="1.0" standalone="no"?>
<!DOCTYPE svg PUBLIC "-//W3C//DTD SVG 20010904//EN"
 "http://www.w3.org/TR/2001/REC-SVG-20010904/DTD/svg10.dtd">
<svg version="1.0" xmlns="http://www.w3.org/2000/svg"
 width="16.000000pt" height="16.000000pt" viewBox="0 0 16.000000 16.000000"
 preserveAspectRatio="xMidYMid meet">
<metadata>
Created by potrace 1.11, written by Peter Selinger 2001-2013
</metadata>
<g transform="translate(0.000000,16.000000) scale(0.003125,-0.003125)"
fill="#000000" stroke="none">
<path d="M2419 4376 c-2 -2 -33 -6 -69 -10 -62 -6 -141 -18 -185 -29 -183 -45
-248 -68 -406 -144 -206 -98 -401 -246 -553 -419 -136 -155 -196 -244 -281
-419 -135 -280 -187 -518 -180 -835 2 -96 6 -186 9 -200 3 -14 8 -43 11 -65 8
-60 50 -221 81 -305 236 -658 825 -1124 1514 -1198 36 -4 133 -7 215 -7 189 1
259 9 430 51 573 141 1061 580 1262 1134 36 99 80 261 88 327 3 21 9 67 14
103 10 69 7 391 -4 450 -64 354 -161 587 -349 840 -69 93 -206 238 -296 313
-87 73 -255 180 -375 237 -248 120 -500 177 -786 178 -75 1 -138 0 -140 -2z
m376 -241 c193 -32 284 -61 465 -147 332 -157 629 -471 766 -808 14 -36 30
-74 35 -85 19 -45 59 -206 74 -295 14 -93 16 -400 2 -475 -58 -308 -162 -546
-335 -760 -256 -316 -604 -516 -1017 -582 -62 -10 -404 -9 -465 1 -520 87
-955 406 -1188 871 -70 140 -128 328 -147 475 -4 30 -9 64 -11 75 -5 24 -5
268 0 310 25 218 77 391 172 575 189 363 508 640 893 774 57 20 115 38 130 41
14 3 37 7 51 11 14 3 41 8 60 11 19 3 53 9 75 13 66 12 354 9 440 -5z"/>
<path d="M2355 3620 c-227 -47 -392 -135 -556 -299 -150 -151 -247 -321 -289
-506 -7 -27 -14 -59 -17 -70 -10 -40 -12 -291 -2 -345 6 -30 12 -68 15 -84 17
-92 89 -253 163 -366 48 -74 212 -237 286 -285 145 -95 306 -155 469 -175 373
-47 740 100 972 390 125 156 182 278 230 495 3 11 7 63 10 115 6 104 -1 128
-48 163 -26 20 -43 20 -415 21 -213 1 -405 -2 -425 -6 -47 -10 -75 -33 -88
-73 -13 -41 7 -102 43 -129 25 -19 44 -20 363 -20 l336 0 -5 -35 c-33 -250
-231 -509 -477 -623 -118 -55 -195 -72 -340 -72 -143 -1 -182 3 -270 30 -302
90 -534 353 -590 670 -12 67 -10 255 4 313 55 236 174 411 366 540 307 205
717 186 1008 -47 91 -74 202 -31 202 76 0 32 -7 47 -38 78 -81 84 -245 175
-396 218 -128 38 -128 38 -281 41 -107 3 -161 -1 -230 -15z"/>
</g>
</svg>
