<svg viewBox="0 0 150 150" version="1.1" xmlns="http://www.w3.org/2000/svg" xmlns:xlink="http://www.w3.org/1999/xlink">
    <rect fill="#B9090B" x="0.100302419" y="0.0990040323" width="149.816464" height="149.816464"></rect>
    <path d="M28.8589042,58.7967536 L28.8589042,59.3620363 C28.8589042,59.3620363 28.857431,60.3620012 28.857431,61.2313657 C27.9992884,60.2671369 26.6931097,58.7987021 26.6931097,58.7987021 L20.730717,58.7987021 L20.7321902,88.7742648 L24.167584,91.5201739 L27.7486009,91.0663879 C27.7486009,91.0663879 27.7643896,89.4828833 27.7746576,88.4082611 C28.9511941,89.3879548 30.5617113,90.7272837 30.5617113,90.7272837 L36.4270648,90.1229516 L36.4270648,61.8824164 L33.2437038,58.804551 L28.858904,58.7967568 M48.6244205,64.7588586 L51.9567425,64.7588586 L51.9567425,61.874619 L48.7768459,58.7922054 L48.5532452,58.7922054 L41.1369974,58.7987005 L41.1369974,86.7595196 L44.4901123,89.4333695 L51.9567425,88.9587926 L51.9567425,85.8655938 C51.9567425,85.8655938 48.8874273,82.4290009 48.6244205,82.1348591 L48.6244205,77.1365932 L52.0010894,77.1365932 L52.0010894,74.019093 C52.0010894,74.019093 48.9200312,70.8983436 48.6244205,70.5975094 L48.6244205,64.758857 M64.9771339,58.7954545 L54.7831374,58.7954545 L54.7831374,62.7881665 C54.7831374,62.7881665 57.478158,64.9323415 57.8482167,65.2253799 L57.8482167,85.8051682 L61.2231526,88.5465932 L65.302266,88.4425025 L65.302266,65.2227802 C66.0405855,65.2169265 68.3159381,65.2000392 68.3159381,65.2000392 L68.3159381,62.2930586 L65.226085,58.7954545 L64.9771339,58.7954545 M79.7445516,64.7575596 L83.0761037,64.7575596 L83.0761037,61.87332 L79.8972985,58.7915559 L79.6726714,58.7921974 L72.251931,58.796752 L72.251931,85.4922466 L75.6567114,88.3516667 L79.7445516,88.3795413 L79.7445516,77.1348387 C80.521764,77.1348387 83.1203872,77.1365868 83.1203872,77.1365868 L83.1203872,74.0190866 C83.1203872,74.0190866 80.0384942,70.8983372 79.7445516,70.597503 L79.7445516,64.7575515 M95.1739176,81.6099922 L95.1739176,61.8596754 L91.9829181,58.7967536 L87.695093,58.7967536 L87.695093,85.6808062 L91.0972422,88.6953207 L98.8565304,89.0879642 L98.6851702,85.6014067 C98.6851702,85.6014067 95.9543378,82.4967717 95.1739176,81.6099922 M106.181963,58.7967536 L102.166901,58.7967536 L102.166901,86.3511531 L105.590872,89.5651407 L109.641875,89.9054797 L109.641875,61.9584368 L106.407875,58.7967536 L106.181963,58.7967536 M126.129557,75.6419101 C126.166139,75.4378888 128.556822,62.1761027 128.556822,62.1761027 L125.294584,58.8000027 L121.047834,58.8000027 C121.047834,58.8000027 120.827698,60.1865682 120.687787,61.059833 C119.845112,60.1358885 118.630838,58.8000027 118.630838,58.8000027 L114.252521,58.8000027 C114.252521,58.8000027 116.749741,72.0360585 116.78504,72.2296827 C116.754875,72.4220095 114.393715,87.298618 114.393715,87.298618 L119.035169,90.8742568 L121.805792,91.2067343 L121.805792,88.6970752 C122.970007,89.6156264 125.623182,91.7065219 125.623182,91.7065219 L129.28269,92.2199542 C129.28269,92.2199542 126.167424,75.8482712 126.129557,75.6419101" fill="#231F20"></path>
    <path d="M29.8364203,82.310228 L29.6375927,82.3348534 L26.2120182,59.6037422 L21.6492495,59.5978886 L21.6510458,88.1303572 C21.6510458,88.1303572 22.5573229,87.9991072 24.4837312,87.7752685 L24.2854169,66.0908392 L24.4834744,66.0713474 L27.7423107,87.4373992 C27.7423107,87.4373992 28.8561439,87.304199 32.6452303,86.925266 L32.6452303,59.5998387 L29.7346312,59.6011217 L29.8364197,82.3102055 M42.0257527,86.1518741 C42.0257527,86.1518741 43.6936467,86.0361547 48.5176251,85.7219357 L48.5176251,83.1137734 L44.8706974,83.3678906 L44.8706974,74.22747 L48.5176251,74.2246795 L48.5176251,71.5656433 L44.8561285,71.5669263 L44.8561285,62.2365171 L48.5294346,62.2365171 L48.5294346,59.5978821 L42.0257527,59.6011377 L42.0257527,86.1518677 M55.6731125,62.2339303 L58.7381918,62.2339303 L58.7381918,85.2227319 C58.7381918,85.2227319 59.3965444,85.1706873 61.5450135,85.1194222 L61.5585576,62.2397775 L64.6620166,62.2397775 L64.6620166,59.6017937 L55.6731156,59.6011522 L55.6731156,62.2339383 M73.1389533,84.921184 L75.9901869,84.921184 L75.9901869,74.22747 L79.6360897,74.2233805 L79.6360897,71.5649938 L75.9761312,71.5669504 L75.9761312,62.2365412 L79.6495673,62.2365412 L79.6495673,59.5979062 L73.1389533,59.5998628 L73.1389533,84.9212017 M91.4117212,59.5920477 L88.5859029,59.5979014 L88.5859029,85.1303437 C88.5859029,85.1303437 90.5010166,85.1838845 95.1180812,85.3919985 L95.1180812,82.8028757 C95.1180812,82.8028757 94.6014361,82.7481016 91.4117212,82.6369288 L91.4117212,59.5920542 M103.05386,85.8381747 C103.05386,85.8381747 104.090359,85.8902209 105.868127,86.0201702 L105.868127,59.5952969 L103.05386,59.5998515 L103.05386,85.8381811 M124.926193,59.5952969 L121.754448,59.5952969 L120.160875,69.7905224 L119.973471,69.7905224 L118.320851,59.5952969 L115.206226,59.5952969 L117.639266,72.2056426 L115.287734,86.9440506 L118.312508,87.235397 L119.870784,75.0845546 L120.062039,75.0876017 L121.57218,87.5775499 L124.890253,87.9534295 L122.519466,72.565597 L124.926193,59.5952905" fill="#FFFFFF"></path>
</svg>